<?xml version="1.0" encoding="utf-8" standalone="no"?>
<!DOCTYPE svg PUBLIC "-//W3C//DTD SVG 1.1//EN"
  "http://www.w3.org/Graphics/SVG/1.1/DTD/svg11.dtd">
<svg xmlns:xlink="http://www.w3.org/1999/xlink" width="1145.59575pt" height="357.2pt" viewBox="0 0 1145.59575 357.2" xmlns="http://www.w3.org/2000/svg" version="1.1">
 <metadata>
  <rdf:RDF xmlns:dc="http://purl.org/dc/elements/1.1/" xmlns:cc="http://creativecommons.org/ns#" xmlns:rdf="http://www.w3.org/1999/02/22-rdf-syntax-ns#">
   <cc:Work>
    <dc:type rdf:resource="http://purl.org/dc/dcmitype/StillImage"/>
    <dc:date>2023-04-29T21:35:13.929861</dc:date>
    <dc:format>image/svg+xml</dc:format>
    <dc:creator>
     <cc:Agent>
      <dc:title>Matplotlib v3.5.2, https://matplotlib.org/</dc:title>
     </cc:Agent>
    </dc:creator>
   </cc:Work>
  </rdf:RDF>
 </metadata>
 <defs>
  <style type="text/css">*{stroke-linejoin: round; stroke-linecap: butt}</style>
 </defs>
 <g id="figure_1">
  <g id="patch_1">
   <path d="M 0 357.2 
L 1145.59575 357.2 
L 1145.59575 0 
L 0 0 
L 0 357.2 
z
" style="fill: none"/>
  </g>
  <g id="axes_1">
   <g id="patch_2">
    <path d="M 161.278125 350 
L 677.406523 350 
L 677.406523 74.96 
L 161.278125 74.96 
L 161.278125 350 
z
" style="fill: none"/>
   </g>
   <g id="patch_3">
    <path d="M 161.278125 87.461818 
L 652.82898 87.461818 
L 652.82898 110.192397 
L 161.278125 110.192397 
z
" clip-path="url(#p89b7b9ab0f)" style="fill: #56ed0e; stroke: #56ed0e; stroke-linejoin: miter"/>
   </g>
   <g id="patch_4">
    <path d="M 161.278125 132.922975 
L 293.435188 132.922975 
L 293.435188 155.653554 
L 161.278125 155.653554 
z
" clip-path="url(#p89b7b9ab0f)" style="fill: #b13ab2; stroke: #b13ab2; stroke-linejoin: miter"/>
   </g>
   <g id="patch_5">
    <path d="M 161.278125 178.384132 
L 227.136395 178.384132 
L 227.136395 201.114711 
L 161.278125 201.114711 
z
" clip-path="url(#p89b7b9ab0f)" style="fill: #89dafd; stroke: #89dafd; stroke-linejoin: miter"/>
   </g>
   <g id="patch_6">
    <path d="M 161.278125 223.845289 
L 182.202993 223.845289 
L 182.202993 246.575868 
L 161.278125 246.575868 
z
" clip-path="url(#p89b7b9ab0f)" style="fill: #2fce8d; stroke: #2fce8d; stroke-linejoin: miter"/>
   </g>
   <g id="patch_7">
    <path d="M 161.278125 269.306446 
L 178.01802 269.306446 
L 178.01802 292.037025 
L 161.278125 292.037025 
z
" clip-path="url(#p89b7b9ab0f)" style="fill: #5e65b1; stroke: #5e65b1; stroke-linejoin: miter"/>
   </g>
   <g id="patch_8">
    <path d="M 161.278125 314.767603 
L 165.830202 314.767603 
L 165.830202 337.498182 
L 161.278125 337.498182 
z
" clip-path="url(#p89b7b9ab0f)" style="fill: #1f5845; stroke: #1f5845; stroke-linejoin: miter"/>
   </g>
   <g id="matplotlib.axis_1"/>
   <g id="matplotlib.axis_2">
    <g id="ytick_1">
     <g id="line2d_1"/>
     <g id="text_1">
      <!-- SolOrder -->
      <g style="fill: #586069" transform="translate(74.51875 106.327107)scale(0.2 -0.2)">
       <defs>
        <path id="Spectral-Bold-53" d="M 1734 -64 
Q 1312 -64 992 22 
Q 672 109 365 262 
L 301 1344 
L 416 1344 
L 870 563 
Q 1037 422 1241 342 
Q 1446 262 1658 262 
Q 2003 262 2220 425 
Q 2438 589 2438 909 
Q 2438 1126 2339 1267 
Q 2240 1408 2009 1533 
Q 1779 1658 1376 1837 
Q 922 2035 678 2307 
Q 435 2579 435 2995 
Q 435 3251 566 3484 
Q 698 3718 918 3900 
Q 1139 4083 1411 4185 
Q 1683 4288 1971 4288 
Q 2298 4288 2598 4211 
Q 2899 4134 3155 3994 
L 3219 2970 
L 3110 2970 
L 2662 3693 
Q 2496 3821 2339 3888 
Q 2182 3955 1984 3955 
Q 1722 3955 1549 3788 
Q 1376 3622 1376 3347 
Q 1376 3085 1565 2915 
Q 1754 2746 2221 2534 
Q 2803 2266 3078 1984 
Q 3354 1702 3354 1242 
Q 3354 826 3117 534 
Q 2880 243 2512 89 
Q 2144 -64 1734 -64 
z
" transform="scale(0.015625)"/>
        <path id="Spectral-Bold-6f" d="M 1754 -64 
Q 1299 -64 953 144 
Q 608 352 416 697 
Q 224 1043 224 1459 
Q 224 1882 416 2227 
Q 608 2573 953 2777 
Q 1299 2982 1754 2982 
Q 2208 2982 2550 2777 
Q 2893 2573 3085 2227 
Q 3277 1882 3277 1459 
Q 3277 1043 3085 697 
Q 2893 352 2550 144 
Q 2208 -64 1754 -64 
z
M 1824 250 
Q 2010 250 2125 400 
Q 2240 550 2297 796 
Q 2355 1043 2355 1331 
Q 2355 1683 2288 1990 
Q 2221 2298 2073 2486 
Q 1926 2675 1696 2675 
Q 1504 2675 1382 2524 
Q 1261 2374 1203 2128 
Q 1146 1882 1146 1594 
Q 1146 1242 1216 938 
Q 1286 634 1436 442 
Q 1587 250 1824 250 
z
" transform="scale(0.015625)"/>
        <path id="Spectral-Bold-6c" d="M 186 0 
L 186 102 
L 614 307 
L 614 4070 
L 205 4371 
L 205 4448 
L 1440 4800 
L 1517 4800 
L 1517 307 
L 1894 102 
L 1894 0 
L 186 0 
z
" transform="scale(0.015625)"/>
        <path id="Spectral-Bold-4f" d="M 2522 -64 
Q 2048 -64 1645 99 
Q 1242 262 944 553 
Q 646 845 480 1245 
Q 314 1645 314 2112 
Q 314 2586 480 2982 
Q 646 3379 944 3670 
Q 1242 3962 1645 4125 
Q 2048 4288 2522 4288 
Q 2995 4288 3401 4125 
Q 3808 3962 4105 3670 
Q 4403 3379 4569 2982 
Q 4736 2586 4736 2112 
Q 4736 1645 4569 1245 
Q 4403 845 4105 553 
Q 3808 262 3401 99 
Q 2995 -64 2522 -64 
z
M 2624 269 
Q 2950 269 3193 470 
Q 3437 672 3577 1046 
Q 3718 1421 3718 1920 
Q 3718 2541 3545 2998 
Q 3373 3456 3085 3709 
Q 2797 3962 2438 3962 
Q 2118 3962 1868 3760 
Q 1619 3558 1475 3187 
Q 1331 2816 1331 2317 
Q 1331 1696 1504 1235 
Q 1677 774 1971 521 
Q 2266 269 2624 269 
z
" transform="scale(0.015625)"/>
        <path id="Spectral-Bold-72" d="M 211 0 
L 211 102 
L 634 307 
L 634 2214 
L 230 2515 
L 230 2592 
L 1395 2982 
L 1472 2982 
L 1530 2406 
L 1562 2406 
Q 1715 2656 1836 2777 
Q 1958 2899 2067 2940 
Q 2176 2982 2304 2982 
Q 2355 2982 2422 2966 
Q 2490 2950 2541 2931 
Q 2733 2867 2733 2752 
Q 2733 2701 2707 2643 
L 2554 2227 
L 2509 2227 
L 2342 2285 
Q 2176 2342 2003 2342 
Q 1728 2342 1536 2093 
L 1536 307 
L 2054 102 
L 2054 0 
L 211 0 
z
" transform="scale(0.015625)"/>
        <path id="Spectral-Bold-64" d="M 1280 -64 
Q 998 -64 752 96 
Q 506 256 355 550 
Q 205 845 205 1248 
Q 205 1779 400 2169 
Q 595 2560 934 2771 
Q 1274 2982 1709 2982 
Q 2016 2982 2240 2925 
L 2240 4070 
L 1798 4378 
L 1798 4448 
L 3059 4800 
L 3136 4800 
L 3136 288 
L 3584 102 
L 3584 0 
L 2304 0 
L 2246 320 
L 2208 320 
Q 1754 -64 1280 -64 
z
M 1107 1446 
Q 1107 941 1324 701 
Q 1542 461 1811 461 
Q 1926 461 2025 493 
Q 2125 525 2240 589 
L 2240 2445 
Q 2150 2541 2044 2592 
Q 1939 2643 1805 2643 
Q 1619 2643 1459 2540 
Q 1299 2438 1203 2179 
Q 1107 1920 1107 1446 
z
" transform="scale(0.015625)"/>
        <path id="Spectral-Bold-65" d="M 1664 -64 
Q 1005 -64 624 317 
Q 243 698 243 1325 
Q 243 1811 454 2185 
Q 666 2560 1027 2771 
Q 1389 2982 1824 2982 
Q 2342 2982 2630 2636 
Q 2918 2291 2925 1658 
L 2899 1626 
L 1107 1626 
L 1107 1594 
Q 1107 1325 1209 1104 
Q 1312 883 1529 755 
Q 1747 627 2106 627 
Q 2285 627 2489 672 
Q 2694 717 2912 826 
L 2931 826 
L 2931 723 
Q 2771 384 2441 160 
Q 2112 -64 1664 -64 
z
M 1677 2694 
Q 1453 2694 1312 2489 
Q 1171 2285 1126 1914 
L 2208 1914 
Q 2163 2355 2028 2524 
Q 1894 2694 1677 2694 
z
" transform="scale(0.015625)"/>
       </defs>
       <use xlink:href="#Spectral-Bold-53"/>
       <use xlink:href="#Spectral-Bold-6f" x="57.199997"/>
       <use xlink:href="#Spectral-Bold-6c" x="111.899994"/>
       <use xlink:href="#Spectral-Bold-4f" x="144.499985"/>
       <use xlink:href="#Spectral-Bold-72" x="223.399979"/>
       <use xlink:href="#Spectral-Bold-64" x="265.899963"/>
       <use xlink:href="#Spectral-Bold-65" x="324.199951"/>
       <use xlink:href="#Spectral-Bold-72" x="373.799942"/>
      </g>
     </g>
    </g>
    <g id="ytick_2">
     <g id="line2d_2"/>
     <g id="text_2">
      <!-- Test -->
      <g style="fill: #586069" transform="translate(117.38125 151.788264)scale(0.2 -0.2)">
       <defs>
        <path id="Spectral-Bold-54" d="M 1082 0 
L 1082 102 
L 1760 365 
L 1760 3872 
L 845 3872 
L 333 2816 
L 230 2816 
L 230 4224 
L 4256 4224 
L 4256 2816 
L 4154 2816 
L 3642 3872 
L 2726 3872 
L 2726 365 
L 3405 102 
L 3405 0 
L 1082 0 
z
" transform="scale(0.015625)"/>
        <path id="Spectral-Bold-73" d="M 1338 -64 
Q 1024 -64 790 -3 
Q 557 58 333 166 
L 333 909 
L 429 909 
L 653 576 
Q 883 224 1312 224 
Q 1811 224 1811 582 
Q 1811 717 1744 800 
Q 1677 883 1517 963 
Q 1357 1043 1082 1152 
Q 717 1299 547 1497 
Q 378 1696 378 1990 
Q 378 2266 522 2490 
Q 666 2714 915 2848 
Q 1165 2982 1478 2982 
Q 1696 2982 1904 2937 
Q 2112 2893 2310 2790 
L 2310 2029 
L 2214 2029 
L 2016 2330 
Q 1888 2515 1763 2604 
Q 1638 2694 1459 2694 
Q 1267 2694 1148 2598 
Q 1030 2502 1030 2330 
Q 1030 2221 1084 2137 
Q 1139 2054 1280 1977 
Q 1421 1901 1683 1798 
Q 1862 1728 2041 1635 
Q 2221 1542 2336 1372 
Q 2451 1203 2451 902 
Q 2451 602 2291 384 
Q 2131 166 1878 51 
Q 1626 -64 1338 -64 
z
" transform="scale(0.015625)"/>
        <path id="Spectral-Bold-74" d="M 1414 -64 
Q 1024 -64 774 102 
Q 525 269 525 570 
L 525 2630 
L 64 2630 
L 64 2720 
L 653 2918 
L 1299 3622 
L 1427 3622 
L 1427 2918 
L 2310 2918 
L 2310 2630 
L 1427 2630 
L 1427 736 
Q 1427 570 1564 493 
Q 1702 416 1894 416 
Q 2016 416 2109 429 
Q 2202 442 2291 461 
L 2310 448 
L 2310 339 
Q 2208 186 1961 61 
Q 1715 -64 1414 -64 
z
" transform="scale(0.015625)"/>
       </defs>
       <use xlink:href="#Spectral-Bold-54"/>
       <use xlink:href="#Spectral-Bold-65" x="70.099991"/>
       <use xlink:href="#Spectral-Bold-73" x="119.699982"/>
       <use xlink:href="#Spectral-Bold-74" x="163.399979"/>
      </g>
     </g>
    </g>
    <g id="ytick_3">
     <g id="line2d_3"/>
     <g id="text_3">
      <!-- manim -->
      <g style="fill: #586069" transform="translate(92.421875 197.249421)scale(0.2 -0.2)">
       <defs>
        <path id="Spectral-Bold-6d" d="M 198 0 
L 198 102 
L 627 307 
L 627 2253 
L 218 2515 
L 218 2592 
L 1382 2982 
L 1459 2982 
L 1523 2509 
L 1549 2509 
Q 1773 2733 1984 2857 
Q 2195 2982 2490 2982 
Q 2803 2982 3024 2848 
Q 3245 2714 3322 2451 
L 3347 2451 
Q 3590 2701 3811 2841 
Q 4032 2982 4346 2982 
Q 4723 2982 4966 2784 
Q 5210 2586 5210 2195 
L 5210 307 
L 5632 102 
L 5632 0 
L 3981 0 
L 3981 102 
L 4307 307 
L 4307 1933 
Q 4307 2157 4182 2275 
Q 4058 2394 3859 2394 
Q 3558 2394 3354 2195 
L 3354 2195 
L 3354 307 
L 3674 102 
L 3674 0 
L 2138 0 
L 2138 102 
L 2451 307 
L 2451 1933 
Q 2451 2157 2329 2275 
Q 2208 2394 2003 2394 
Q 1888 2394 1753 2349 
Q 1619 2304 1523 2227 
L 1523 307 
L 1830 102 
L 1830 0 
L 198 0 
z
" transform="scale(0.015625)"/>
        <path id="Spectral-Bold-61" d="M 966 -58 
Q 659 -58 435 131 
Q 211 320 218 678 
Q 218 909 307 1072 
Q 397 1235 621 1356 
Q 845 1478 1248 1581 
L 1850 1728 
L 1850 2125 
Q 1850 2368 1702 2515 
Q 1555 2662 1325 2662 
Q 1120 2662 1030 2572 
Q 941 2483 941 2304 
L 941 2010 
L 915 1984 
L 493 1984 
Q 397 1984 358 2025 
Q 320 2067 320 2182 
Q 320 2323 429 2457 
Q 538 2592 730 2707 
Q 960 2854 1161 2918 
Q 1363 2982 1600 2982 
Q 1914 2982 2176 2899 
Q 2438 2816 2595 2633 
Q 2752 2451 2752 2163 
L 2752 474 
Q 2797 429 2873 400 
Q 2950 371 3059 371 
L 3245 371 
L 3264 352 
L 3264 262 
Q 3194 141 3024 38 
Q 2854 -64 2586 -64 
Q 2317 -64 2144 51 
Q 1971 166 1888 378 
L 1850 378 
Q 1690 192 1469 67 
Q 1248 -58 966 -58 
z
M 1062 858 
Q 1062 659 1174 556 
Q 1286 454 1485 454 
Q 1658 454 1850 531 
L 1850 1472 
Q 1530 1402 1360 1318 
Q 1190 1235 1126 1123 
Q 1062 1011 1062 858 
z
" transform="scale(0.015625)"/>
        <path id="Spectral-Bold-6e" d="M 198 0 
L 198 102 
L 627 307 
L 627 2253 
L 218 2515 
L 218 2592 
L 1382 2982 
L 1459 2982 
L 1523 2509 
L 1549 2509 
Q 1779 2733 1996 2857 
Q 2214 2982 2509 2982 
Q 2899 2982 3145 2784 
Q 3392 2586 3392 2195 
L 3392 307 
L 3821 102 
L 3821 0 
L 2170 0 
L 2170 102 
L 2490 307 
L 2490 1933 
Q 2490 2157 2362 2275 
Q 2234 2394 2029 2394 
Q 1907 2394 1763 2349 
Q 1619 2304 1523 2227 
L 1523 307 
L 1850 102 
L 1850 0 
L 198 0 
z
" transform="scale(0.015625)"/>
        <path id="Spectral-Bold-69" d="M 1075 3616 
Q 870 3616 739 3747 
Q 608 3878 608 4077 
Q 608 4282 739 4413 
Q 870 4544 1075 4544 
Q 1274 4544 1408 4413 
Q 1542 4282 1542 4077 
Q 1542 3878 1408 3747 
Q 1274 3616 1075 3616 
z
M 211 0 
L 211 102 
L 640 307 
L 640 2253 
L 230 2554 
L 230 2630 
L 1466 2982 
L 1542 2982 
L 1542 307 
L 1920 102 
L 1920 0 
L 211 0 
z
" transform="scale(0.015625)"/>
       </defs>
       <use xlink:href="#Spectral-Bold-6d"/>
       <use xlink:href="#Spectral-Bold-61" x="90.099991"/>
       <use xlink:href="#Spectral-Bold-6e" x="141.599976"/>
       <use xlink:href="#Spectral-Bold-69" x="203.399963"/>
       <use xlink:href="#Spectral-Bold-6d" x="236.699951"/>
      </g>
     </g>
    </g>
    <g id="ytick_4">
     <g id="line2d_4"/>
     <g id="text_4">
      <!-- bxde -->
      <g style="fill: #586069" transform="translate(113.578125 242.710579)scale(0.2 -0.2)">
       <defs>
        <path id="Spectral-Bold-62" d="M 576 -26 
L 576 4070 
L 166 4371 
L 166 4448 
L 1395 4800 
L 1472 4800 
L 1472 2605 
L 1510 2605 
Q 1741 2803 1958 2892 
Q 2176 2982 2432 2982 
Q 2714 2982 2960 2812 
Q 3206 2643 3353 2329 
Q 3501 2016 3501 1581 
Q 3501 1069 3296 701 
Q 3091 333 2748 134 
Q 2406 -64 1997 -64 
Q 1722 -64 1491 -6 
Q 1261 51 1062 179 
L 653 -26 
L 576 -26 
z
M 1901 2458 
Q 1786 2458 1686 2426 
Q 1587 2394 1472 2330 
L 1472 480 
Q 1651 269 1952 269 
Q 2112 269 2262 368 
Q 2413 467 2509 716 
Q 2605 966 2605 1421 
Q 2605 1952 2387 2205 
Q 2170 2458 1901 2458 
z
" transform="scale(0.015625)"/>
        <path id="Spectral-Bold-78" d="M 115 0 
L 115 102 
L 448 301 
L 1325 1344 
L 403 2643 
L 115 2816 
L 115 2918 
L 1856 2918 
L 1856 2816 
L 1498 2650 
L 1498 2611 
L 1984 1920 
L 2483 2573 
L 2483 2611 
L 2157 2816 
L 2157 2918 
L 3302 2918 
L 3302 2816 
L 2963 2618 
L 2157 1670 
L 3149 275 
L 3411 102 
L 3411 0 
L 1709 0 
L 1709 102 
L 2061 269 
L 2061 307 
L 1504 1094 
L 947 346 
L 947 307 
L 1299 102 
L 1299 0 
L 115 0 
z
" transform="scale(0.015625)"/>
       </defs>
       <use xlink:href="#Spectral-Bold-62"/>
       <use xlink:href="#Spectral-Bold-78" x="58.199997"/>
       <use xlink:href="#Spectral-Bold-64" x="113.099991"/>
       <use xlink:href="#Spectral-Bold-65" x="171.399979"/>
      </g>
     </g>
    </g>
    <g id="ytick_5">
     <g id="line2d_5"/>
     <g id="text_5">
      <!-- MSM_N_Others -->
      <g style="fill: #586069" transform="translate(7.2 288.171736)scale(0.2 -0.2)">
       <defs>
        <path id="Spectral-Bold-4d" d="M 269 0 
L 269 102 
L 813 365 
L 941 3859 
L 384 4122 
L 384 4224 
L 1971 4224 
L 3258 1242 
L 4531 4224 
L 6067 4224 
L 6067 4122 
L 5504 3923 
L 5619 365 
L 6106 102 
L 6106 0 
L 4166 0 
L 4166 102 
L 4678 358 
L 4614 3392 
L 3155 -32 
L 2797 -32 
L 1325 3386 
L 1242 358 
L 1798 102 
L 1798 0 
L 269 0 
z
" transform="scale(0.015625)"/>
        <path id="Spectral-Bold-5f" d="M 160 -896 
L 160 -576 
L 3040 -576 
L 3040 -896 
L 160 -896 
z
" transform="scale(0.015625)"/>
        <path id="Spectral-Bold-4e" d="M 269 0 
L 269 102 
L 813 365 
L 813 3853 
L 269 4122 
L 269 4224 
L 1485 4224 
L 3968 1414 
L 3968 3866 
L 3238 4122 
L 3238 4224 
L 4954 4224 
L 4954 4122 
L 4416 3859 
L 4416 -32 
L 4019 -32 
L 1261 3053 
L 1261 365 
L 1990 102 
L 1990 0 
L 269 0 
z
" transform="scale(0.015625)"/>
        <path id="Spectral-Bold-68" d="M 198 0 
L 198 102 
L 627 307 
L 627 4070 
L 218 4371 
L 218 4448 
L 1446 4800 
L 1523 4800 
L 1523 2509 
L 1549 2509 
Q 1779 2733 1996 2857 
Q 2214 2982 2509 2982 
Q 2899 2982 3145 2784 
Q 3392 2586 3392 2195 
L 3392 307 
L 3821 102 
L 3821 0 
L 2170 0 
L 2170 102 
L 2490 301 
L 2490 1933 
Q 2490 2157 2362 2275 
Q 2234 2394 2029 2394 
Q 1907 2394 1763 2349 
Q 1619 2304 1523 2227 
L 1523 301 
L 1850 102 
L 1850 0 
L 198 0 
z
" transform="scale(0.015625)"/>
       </defs>
       <use xlink:href="#Spectral-Bold-4d"/>
       <use xlink:href="#Spectral-Bold-53" x="99.499985"/>
       <use xlink:href="#Spectral-Bold-4d" x="156.699982"/>
       <use xlink:href="#Spectral-Bold-5f" x="256.199966"/>
       <use xlink:href="#Spectral-Bold-4e" x="306.199951"/>
       <use xlink:href="#Spectral-Bold-5f" x="387.799942"/>
       <use xlink:href="#Spectral-Bold-4f" x="437.799927"/>
       <use xlink:href="#Spectral-Bold-74" x="516.699921"/>
       <use xlink:href="#Spectral-Bold-68" x="555.299911"/>
       <use xlink:href="#Spectral-Bold-65" x="617.099899"/>
       <use xlink:href="#Spectral-Bold-72" x="666.69989"/>
       <use xlink:href="#Spectral-Bold-73" x="709.199875"/>
      </g>
     </g>
    </g>
    <g id="ytick_6">
     <g id="line2d_6"/>
     <g id="text_6">
      <!-- dibyendu -->
      <g style="fill: #586069" transform="translate(72.5625 333.632893)scale(0.2 -0.2)">
       <defs>
        <path id="Spectral-Bold-79" d="M 531 -1542 
Q 390 -1542 352 -1500 
Q 314 -1459 314 -1357 
L 314 -915 
L 346 -883 
L 634 -883 
Q 794 -883 899 -860 
Q 1005 -838 1091 -736 
Q 1178 -634 1274 -410 
L 1440 -6 
L 166 2643 
L -230 2816 
L -230 2918 
L 1536 2918 
L 1536 2816 
L 1139 2630 
L 1139 2611 
L 1843 1133 
L 1888 1133 
L 2432 2586 
L 2432 2611 
L 2054 2816 
L 2054 2918 
L 3277 2918 
L 3277 2816 
L 2822 2605 
L 1542 -506 
Q 1485 -653 1443 -752 
Q 1402 -851 1350 -944 
Q 1299 -1037 1203 -1171 
Q 1075 -1357 886 -1449 
Q 698 -1542 531 -1542 
z
" transform="scale(0.015625)"/>
        <path id="Spectral-Bold-75" d="M 1395 -64 
Q 1011 -64 764 134 
Q 518 333 518 723 
L 518 2611 
L 96 2816 
L 96 2918 
L 1421 2918 
L 1421 986 
Q 1421 762 1549 643 
Q 1677 525 1875 525 
Q 1997 525 2134 569 
Q 2272 614 2362 691 
L 2362 2611 
L 1978 2816 
L 1978 2918 
L 3264 2918 
L 3264 301 
L 3667 102 
L 3667 0 
L 2362 0 
L 2362 410 
L 2336 410 
Q 2112 186 1897 61 
Q 1683 -64 1395 -64 
z
" transform="scale(0.015625)"/>
       </defs>
       <use xlink:href="#Spectral-Bold-64"/>
       <use xlink:href="#Spectral-Bold-69" x="58.299988"/>
       <use xlink:href="#Spectral-Bold-62" x="91.599976"/>
       <use xlink:href="#Spectral-Bold-79" x="149.799973"/>
       <use xlink:href="#Spectral-Bold-65" x="197.399963"/>
       <use xlink:href="#Spectral-Bold-6e" x="246.999954"/>
       <use xlink:href="#Spectral-Bold-64" x="308.799942"/>
       <use xlink:href="#Spectral-Bold-75" x="367.09993"/>
      </g>
     </g>
    </g>
   </g>
   <g id="patch_9">
    <path d="M 161.278125 350 
L 161.278125 74.96 
" style="fill: none; stroke: #000000; stroke-width: 1.5; stroke-linejoin: miter; stroke-linecap: square"/>
   </g>
   <g id="patch_10">
    <path d="M 161.278125 350 
L 677.406523 350 
" style="fill: none; stroke: #000000; stroke-width: 1.5; stroke-linejoin: miter; stroke-linecap: square"/>
   </g>
   <g id="text_7">
    <!-- 8 hrs 55 mins -->
    <g style="fill: #586069" transform="translate(656.82898 102.727107)scale(0.15 -0.15)">
     <defs>
      <path id="Spectral-Bold-38" d="M 1766 -64 
Q 1350 -64 1008 61 
Q 666 186 461 413 
Q 256 640 256 947 
Q 256 1126 326 1305 
Q 397 1485 576 1664 
Q 755 1843 1094 2010 
Q 691 2266 544 2522 
Q 397 2778 397 3130 
Q 397 3443 598 3708 
Q 800 3974 1129 4131 
Q 1459 4288 1850 4288 
Q 2208 4288 2509 4157 
Q 2810 4026 2989 3792 
Q 3168 3558 3168 3264 
Q 3168 3002 2947 2784 
Q 2726 2566 2368 2387 
Q 2880 2099 3104 1824 
Q 3328 1549 3328 1178 
Q 3328 819 3123 537 
Q 2918 256 2563 96 
Q 2208 -64 1766 -64 
z
M 1254 3450 
Q 1254 3290 1312 3152 
Q 1370 3014 1542 2870 
Q 1715 2726 2074 2541 
Q 2246 2669 2345 2851 
Q 2445 3034 2445 3264 
Q 2445 3635 2269 3814 
Q 2093 3994 1824 3994 
Q 1574 3994 1414 3846 
Q 1254 3699 1254 3450 
z
M 1018 1043 
Q 1018 666 1229 445 
Q 1440 224 1754 224 
Q 2080 224 2259 393 
Q 2438 563 2438 838 
Q 2438 1050 2345 1194 
Q 2253 1338 2022 1482 
Q 1792 1626 1382 1843 
L 1363 1850 
Q 1165 1709 1091 1513 
Q 1018 1318 1018 1043 
z
" transform="scale(0.015625)"/>
      <path id="Spectral-Bold-20" transform="scale(0.015625)"/>
      <path id="Spectral-Bold-35" d="M 1466 -64 
Q 1094 -64 828 29 
Q 563 122 422 307 
Q 371 378 371 435 
Q 371 525 486 608 
L 819 864 
L 909 864 
L 979 717 
Q 1088 486 1235 358 
Q 1382 230 1638 230 
Q 1946 230 2144 470 
Q 2342 710 2342 1101 
Q 2342 1555 2067 1804 
Q 1792 2054 1178 2054 
Q 1024 2054 883 2041 
Q 742 2029 570 1997 
L 570 4224 
L 2848 4224 
L 2848 3578 
L 915 3578 
L 915 2778 
Q 1011 2784 1132 2790 
Q 1254 2797 1408 2797 
Q 2016 2797 2413 2617 
Q 2810 2438 3002 2131 
Q 3194 1824 3194 1434 
Q 3194 1005 2970 665 
Q 2746 326 2355 131 
Q 1965 -64 1466 -64 
z
" transform="scale(0.015625)"/>
     </defs>
     <use xlink:href="#Spectral-Bold-38"/>
     <use xlink:href="#Spectral-Bold-20" x="56.099991"/>
     <use xlink:href="#Spectral-Bold-68" x="81.099976"/>
     <use xlink:href="#Spectral-Bold-72" x="142.899963"/>
     <use xlink:href="#Spectral-Bold-73" x="185.399948"/>
     <use xlink:href="#Spectral-Bold-20" x="229.099945"/>
     <use xlink:href="#Spectral-Bold-35" x="254.09993"/>
     <use xlink:href="#Spectral-Bold-35" x="310.199921"/>
     <use xlink:href="#Spectral-Bold-20" x="366.299911"/>
     <use xlink:href="#Spectral-Bold-6d" x="391.299896"/>
     <use xlink:href="#Spectral-Bold-69" x="481.399887"/>
     <use xlink:href="#Spectral-Bold-6e" x="514.699875"/>
     <use xlink:href="#Spectral-Bold-73" x="576.499863"/>
    </g>
   </g>
   <g id="text_8">
    <!-- 2 hrs 23 mins -->
    <g style="fill: #586069" transform="translate(297.435188 148.188264)scale(0.15 -0.15)">
     <defs>
      <path id="Spectral-Bold-32" d="M 333 0 
L 333 237 
Q 851 800 1190 1184 
Q 1530 1568 1731 1837 
Q 1933 2106 2029 2317 
Q 2125 2528 2157 2742 
Q 2189 2957 2189 3238 
Q 2189 3546 2048 3757 
Q 1907 3968 1619 3968 
Q 1312 3968 1155 3776 
Q 998 3584 998 3232 
L 998 2931 
L 954 2874 
L 518 2874 
Q 390 2874 326 2918 
Q 262 2963 262 3142 
Q 262 3328 377 3517 
Q 493 3706 762 3898 
Q 1011 4077 1254 4182 
Q 1498 4288 1894 4288 
Q 2278 4288 2572 4137 
Q 2867 3987 3030 3728 
Q 3194 3469 3194 3155 
Q 3194 2957 3149 2787 
Q 3104 2618 2979 2432 
Q 2854 2246 2630 2016 
Q 2406 1786 2051 1469 
Q 1696 1152 1178 717 
L 2874 717 
L 3245 1357 
L 3347 1357 
L 3283 0 
L 333 0 
z
" transform="scale(0.015625)"/>
      <path id="Spectral-Bold-33" d="M 1709 -64 
Q 1427 -64 1152 6 
Q 877 77 653 224 
Q 474 346 355 490 
Q 237 634 237 806 
Q 237 966 297 1008 
Q 358 1050 486 1050 
L 909 1050 
L 973 986 
L 973 762 
Q 973 499 1149 371 
Q 1325 243 1632 243 
Q 1990 243 2176 486 
Q 2362 730 2362 1101 
Q 2362 1555 2134 1795 
Q 1907 2035 1357 2035 
L 1018 2035 
L 1018 2342 
L 1338 2342 
Q 1722 2342 1933 2608 
Q 2144 2874 2144 3258 
Q 2144 3635 2003 3811 
Q 1862 3987 1600 3987 
Q 1376 3987 1219 3833 
Q 1062 3680 1062 3405 
L 1062 3123 
L 1011 3066 
L 582 3066 
Q 454 3066 393 3110 
Q 333 3155 333 3322 
Q 333 3674 755 3942 
Q 1030 4122 1264 4205 
Q 1498 4288 1837 4288 
Q 2208 4288 2505 4166 
Q 2803 4045 2976 3821 
Q 3149 3597 3149 3283 
Q 3149 2906 2825 2650 
Q 2502 2394 2022 2304 
Q 2662 2227 3017 1948 
Q 3373 1670 3373 1165 
Q 3373 806 3142 528 
Q 2912 250 2531 93 
Q 2150 -64 1709 -64 
z
" transform="scale(0.015625)"/>
     </defs>
     <use xlink:href="#Spectral-Bold-32"/>
     <use xlink:href="#Spectral-Bold-20" x="56.099991"/>
     <use xlink:href="#Spectral-Bold-68" x="81.099976"/>
     <use xlink:href="#Spectral-Bold-72" x="142.899963"/>
     <use xlink:href="#Spectral-Bold-73" x="185.399948"/>
     <use xlink:href="#Spectral-Bold-20" x="229.099945"/>
     <use xlink:href="#Spectral-Bold-32" x="254.09993"/>
     <use xlink:href="#Spectral-Bold-33" x="310.199921"/>
     <use xlink:href="#Spectral-Bold-20" x="366.299911"/>
     <use xlink:href="#Spectral-Bold-6d" x="391.299896"/>
     <use xlink:href="#Spectral-Bold-69" x="481.399887"/>
     <use xlink:href="#Spectral-Bold-6e" x="514.699875"/>
     <use xlink:href="#Spectral-Bold-73" x="576.499863"/>
    </g>
   </g>
   <g id="text_9">
    <!-- 1 hr 11 mins -->
    <g style="fill: #586069" transform="translate(231.136395 193.649421)scale(0.15 -0.15)">
     <defs>
      <path id="Spectral-Bold-31" d="M 947 0 
L 947 102 
L 1555 326 
L 1555 3488 
L 493 3008 
L 493 3264 
L 2086 4224 
L 2490 4224 
L 2490 326 
L 3034 102 
L 3034 0 
L 947 0 
z
" transform="scale(0.015625)"/>
     </defs>
     <use xlink:href="#Spectral-Bold-31"/>
     <use xlink:href="#Spectral-Bold-20" x="56.099991"/>
     <use xlink:href="#Spectral-Bold-68" x="81.099976"/>
     <use xlink:href="#Spectral-Bold-72" x="142.899963"/>
     <use xlink:href="#Spectral-Bold-20" x="185.399948"/>
     <use xlink:href="#Spectral-Bold-31" x="210.399933"/>
     <use xlink:href="#Spectral-Bold-31" x="266.499924"/>
     <use xlink:href="#Spectral-Bold-20" x="322.599915"/>
     <use xlink:href="#Spectral-Bold-6d" x="347.599899"/>
     <use xlink:href="#Spectral-Bold-69" x="437.69989"/>
     <use xlink:href="#Spectral-Bold-6e" x="470.999878"/>
     <use xlink:href="#Spectral-Bold-73" x="532.799866"/>
    </g>
   </g>
   <g id="text_10">
    <!-- 22 mins -->
    <g style="fill: #586069" transform="translate(186.202993 239.110579)scale(0.15 -0.15)">
     <use xlink:href="#Spectral-Bold-32"/>
     <use xlink:href="#Spectral-Bold-32" x="56.099991"/>
     <use xlink:href="#Spectral-Bold-20" x="112.199982"/>
     <use xlink:href="#Spectral-Bold-6d" x="137.199966"/>
     <use xlink:href="#Spectral-Bold-69" x="227.299957"/>
     <use xlink:href="#Spectral-Bold-6e" x="260.599945"/>
     <use xlink:href="#Spectral-Bold-73" x="322.399933"/>
    </g>
   </g>
   <g id="text_11">
    <!-- 18 mins -->
    <g style="fill: #586069" transform="translate(182.01802 284.571736)scale(0.15 -0.15)">
     <use xlink:href="#Spectral-Bold-31"/>
     <use xlink:href="#Spectral-Bold-38" x="56.099991"/>
     <use xlink:href="#Spectral-Bold-20" x="112.199982"/>
     <use xlink:href="#Spectral-Bold-6d" x="137.199966"/>
     <use xlink:href="#Spectral-Bold-69" x="227.299957"/>
     <use xlink:href="#Spectral-Bold-6e" x="260.599945"/>
     <use xlink:href="#Spectral-Bold-73" x="322.399933"/>
    </g>
   </g>
   <g id="text_12">
    <!-- 4 mins -->
    <g style="fill: #586069" transform="translate(169.830202 330.032893)scale(0.15 -0.15)">
     <defs>
      <path id="Spectral-Bold-34" d="M 1210 0 
L 1210 102 
L 1818 326 
L 1818 1120 
L 96 1120 
L 96 1312 
L 2349 4224 
L 2752 4224 
L 2752 1626 
L 3514 1626 
L 3514 1120 
L 2752 1120 
L 2752 326 
L 3296 102 
L 3296 0 
L 1210 0 
z
M 730 1626 
L 1818 1626 
L 1818 3078 
L 730 1626 
z
" transform="scale(0.015625)"/>
     </defs>
     <use xlink:href="#Spectral-Bold-34"/>
     <use xlink:href="#Spectral-Bold-20" x="56.099991"/>
     <use xlink:href="#Spectral-Bold-6d" x="81.099976"/>
     <use xlink:href="#Spectral-Bold-69" x="171.199966"/>
     <use xlink:href="#Spectral-Bold-6e" x="204.499954"/>
     <use xlink:href="#Spectral-Bold-73" x="266.299942"/>
    </g>
   </g>
   <g id="text_13">
    <!-- Projects touched : -->
    <g style="fill: #2a475e" transform="translate(320.211074 68.96)scale(0.24 -0.24)">
     <defs>
      <path id="Spectral-Bold-50" d="M 282 0 
L 282 102 
L 826 365 
L 826 3859 
L 282 4122 
L 282 4224 
L 2496 4224 
Q 3251 4224 3708 3952 
Q 4166 3680 4166 3085 
Q 4166 2726 3926 2454 
Q 3686 2182 3273 2032 
Q 2861 1882 2342 1882 
L 1792 1882 
L 1792 365 
L 2445 102 
L 2445 0 
L 282 0 
z
M 2061 3872 
L 1792 3872 
L 1792 2195 
L 2106 2195 
Q 2605 2195 2896 2432 
Q 3187 2669 3187 3027 
Q 3187 3475 2892 3673 
Q 2598 3872 2061 3872 
z
" transform="scale(0.015625)"/>
      <path id="Spectral-Bold-6a" d="M 1062 3616 
Q 858 3616 726 3747 
Q 595 3878 595 4077 
Q 595 4282 726 4413 
Q 858 4544 1062 4544 
Q 1267 4544 1398 4413 
Q 1530 4282 1530 4077 
Q 1530 3878 1398 3747 
Q 1267 3616 1062 3616 
z
M 224 -1472 
L 224 -1357 
Q 397 -1216 483 -1085 
Q 570 -954 598 -787 
Q 627 -621 627 -358 
L 627 2253 
L 224 2554 
L 224 2630 
L 1453 2982 
L 1530 2982 
L 1530 154 
Q 1530 -237 1418 -515 
Q 1306 -794 1021 -1021 
Q 736 -1248 224 -1472 
z
" transform="scale(0.015625)"/>
      <path id="Spectral-Bold-63" d="M 1626 -64 
Q 1216 -64 902 109 
Q 589 282 416 595 
Q 243 909 243 1325 
Q 243 1811 444 2185 
Q 646 2560 1008 2771 
Q 1370 2982 1850 2982 
Q 2150 2982 2390 2896 
Q 2630 2810 2758 2669 
Q 2861 2554 2861 2477 
Q 2861 2394 2778 2323 
L 2477 2067 
L 2432 2067 
L 2208 2381 
Q 2099 2534 1990 2617 
Q 1882 2701 1702 2701 
Q 1408 2701 1257 2406 
Q 1107 2112 1107 1632 
Q 1107 1350 1203 1123 
Q 1299 896 1504 761 
Q 1709 627 2048 627 
Q 2227 627 2432 672 
Q 2637 717 2854 826 
L 2874 826 
L 2874 723 
Q 2714 384 2390 160 
Q 2067 -64 1626 -64 
z
" transform="scale(0.015625)"/>
      <path id="Spectral-Bold-3a" d="M 858 -32 
Q 666 -32 525 109 
Q 384 250 384 442 
Q 384 640 525 781 
Q 666 922 858 922 
Q 1050 922 1190 781 
Q 1331 640 1331 442 
Q 1331 250 1190 109 
Q 1050 -32 858 -32 
z
M 858 2010 
Q 666 2010 525 2151 
Q 384 2292 384 2484 
Q 384 2682 525 2823 
Q 666 2964 858 2964 
Q 1050 2964 1190 2823 
Q 1331 2682 1331 2484 
Q 1331 2292 1190 2151 
Q 1050 2010 858 2010 
z
" transform="scale(0.015625)"/>
     </defs>
     <use xlink:href="#Spectral-Bold-50"/>
     <use xlink:href="#Spectral-Bold-72" x="68.399994"/>
     <use xlink:href="#Spectral-Bold-6f" x="110.899979"/>
     <use xlink:href="#Spectral-Bold-6a" x="165.599976"/>
     <use xlink:href="#Spectral-Bold-65" x="198.59996"/>
     <use xlink:href="#Spectral-Bold-63" x="248.199951"/>
     <use xlink:href="#Spectral-Bold-74" x="296.599945"/>
     <use xlink:href="#Spectral-Bold-73" x="335.199936"/>
     <use xlink:href="#Spectral-Bold-20" x="378.899933"/>
     <use xlink:href="#Spectral-Bold-74" x="403.899918"/>
     <use xlink:href="#Spectral-Bold-6f" x="442.499908"/>
     <use xlink:href="#Spectral-Bold-75" x="497.199905"/>
     <use xlink:href="#Spectral-Bold-63" x="556.19989"/>
     <use xlink:href="#Spectral-Bold-68" x="604.599884"/>
     <use xlink:href="#Spectral-Bold-65" x="666.399872"/>
     <use xlink:href="#Spectral-Bold-64" x="715.999863"/>
     <use xlink:href="#Spectral-Bold-20" x="774.29985"/>
     <use xlink:href="#Spectral-Bold-3a" x="799.299835"/>
    </g>
   </g>
  </g>
  <g id="axes_2">
   <g id="patch_11">
    <path d="M 805.390679 171.708973 
L 838.23726 181.741588 
" style="fill: none; stroke: #000000; stroke-linecap: round"/>
   </g>
   <g id="text_14">
    <g id="patch_12">
     <path d="M 755.972665 179.810165 
L 803.11954 179.810165 
L 803.11954 160.718915 
L 755.972665 160.718915 
z
" style="fill: #ffffff; stroke: #000000; stroke-width: 0.72; stroke-linejoin: miter"/>
    </g>
    <!-- Python -->
    <g style="fill: #2a475e" transform="translate(759.572665 173.318915)scale(0.12 -0.12)">
     <use xlink:href="#Spectral-Bold-50"/>
     <use xlink:href="#Spectral-Bold-79" x="68.399994"/>
     <use xlink:href="#Spectral-Bold-74" x="115.999985"/>
     <use xlink:href="#Spectral-Bold-68" x="154.599976"/>
     <use xlink:href="#Spectral-Bold-6f" x="216.399963"/>
     <use xlink:href="#Spectral-Bold-6e" x="271.09996"/>
    </g>
   </g>
   <g id="patch_13">
    <path d="M 1072.263842 297.807746 
L 1055.510548 297.807746 
L 1023.798823 274.608372 
" style="fill: none; stroke: #000000; stroke-linecap: round"/>
   </g>
   <g id="text_15">
    <g id="patch_14">
     <path d="M 1074.628875 307.287746 
L 1110.917625 307.287746 
L 1110.917625 288.327746 
L 1074.628875 288.327746 
z
" style="fill: #ffffff; stroke: #000000; stroke-width: 0.72; stroke-linejoin: miter"/>
    </g>
    <!-- XML -->
    <g style="fill: #2a475e" transform="translate(1078.228875 300.927746)scale(0.12 -0.12)">
     <defs>
      <path id="Spectral-Bold-58" d="M 166 0 
L 166 102 
L 672 358 
L 2003 1990 
L 666 3878 
L 243 4122 
L 243 4224 
L 2355 4224 
L 2355 4122 
L 1850 3872 
L 1850 3840 
L 2720 2637 
L 3680 3840 
L 3680 3866 
L 3181 4122 
L 3181 4224 
L 4685 4224 
L 4685 4122 
L 4256 3898 
L 2950 2317 
L 4365 365 
L 4826 102 
L 4826 0 
L 2682 0 
L 2682 102 
L 3142 346 
L 3142 371 
L 2234 1664 
L 1203 378 
L 1190 352 
L 1702 102 
L 1702 0 
L 166 0 
z
" transform="scale(0.015625)"/>
      <path id="Spectral-Bold-4c" d="M 282 0 
L 282 102 
L 826 365 
L 826 3859 
L 282 4122 
L 282 4224 
L 2400 4224 
L 2400 4122 
L 1792 3859 
L 1792 352 
L 3200 352 
L 3718 1562 
L 3821 1562 
L 3821 0 
L 282 0 
z
" transform="scale(0.015625)"/>
     </defs>
     <use xlink:href="#Spectral-Bold-58"/>
     <use xlink:href="#Spectral-Bold-4d" x="77.999985"/>
     <use xlink:href="#Spectral-Bold-4c" x="177.499969"/>
    </g>
   </g>
   <g id="patch_15">
    <path d="M 1072.297503 265.688009 
L 1036.612723 251.45724 
" style="fill: none; stroke: #000000; stroke-linecap: round"/>
   </g>
   <g id="text_16">
    <g id="patch_16">
     <path d="M 1074.628875 275.491942 
L 1113.137625 275.491942 
L 1113.137625 256.531942 
L 1074.628875 256.531942 
z
" style="fill: #ffffff; stroke: #000000; stroke-width: 0.72; stroke-linejoin: miter"/>
    </g>
    <!-- JSON -->
    <g style="fill: #2a475e" transform="translate(1078.228875 269.131942)scale(0.12 -0.12)">
     <defs>
      <path id="Spectral-Bold-4a" d="M 371 -1107 
Q 282 -1107 224 -1065 
Q 166 -1024 166 -922 
Q 166 -826 250 -448 
L 307 -448 
Q 397 -474 454 -486 
Q 512 -499 582 -499 
Q 698 -499 784 -444 
Q 870 -390 915 -217 
Q 960 -45 960 320 
L 960 3859 
L 416 4122 
L 416 4224 
L 2470 4224 
L 2470 4122 
L 1926 3859 
L 1926 1568 
Q 1926 1075 1808 659 
Q 1690 243 1514 -70 
Q 1338 -384 1178 -570 
Q 954 -832 768 -969 
Q 582 -1107 371 -1107 
z
" transform="scale(0.015625)"/>
     </defs>
     <use xlink:href="#Spectral-Bold-4a"/>
     <use xlink:href="#Spectral-Bold-53" x="43.199997"/>
     <use xlink:href="#Spectral-Bold-4f" x="100.399994"/>
     <use xlink:href="#Spectral-Bold-4e" x="179.299988"/>
    </g>
   </g>
   <g id="patch_17">
    <path d="M 1072.293559 232.851615 
L 1042.897405 228.363157 
" style="fill: none; stroke: #000000; stroke-linecap: round"/>
   </g>
   <g id="text_17">
    <g id="patch_18">
     <path d="M 1074.628875 243.77313 
L 1114.39575 243.77313 
L 1114.39575 224.81313 
L 1074.628875 224.81313 
z
" style="fill: #ffffff; stroke: #000000; stroke-width: 0.72; stroke-linejoin: miter"/>
    </g>
    <!-- Other -->
    <g style="fill: #2a475e" transform="translate(1078.228875 237.41313)scale(0.12 -0.12)">
     <use xlink:href="#Spectral-Bold-4f"/>
     <use xlink:href="#Spectral-Bold-74" x="78.899994"/>
     <use xlink:href="#Spectral-Bold-68" x="117.499985"/>
     <use xlink:href="#Spectral-Bold-65" x="179.299973"/>
     <use xlink:href="#Spectral-Bold-72" x="228.899963"/>
    </g>
   </g>
   <g id="patch_19">
    <path d="M 1072.272277 203.486658 
L 1043.859277 205.402187 
" style="fill: none; stroke: #000000; stroke-linecap: round"/>
   </g>
   <g id="text_18">
    <g id="patch_20">
     <path d="M 1074.628875 212.239186 
L 1141.99575 212.239186 
L 1141.99575 193.279186 
L 1074.628875 193.279186 
z
" style="fill: #ffffff; stroke: #000000; stroke-width: 0.72; stroke-linejoin: miter"/>
    </g>
    <!-- Markdown -->
    <g style="fill: #2a475e" transform="translate(1078.228875 205.879186)scale(0.12 -0.12)">
     <defs>
      <path id="Spectral-Bold-6b" d="M 198 0 
L 198 102 
L 627 307 
L 627 4070 
L 218 4371 
L 218 4448 
L 1446 4800 
L 1523 4800 
L 1523 1670 
L 2483 2547 
L 2483 2586 
L 2170 2816 
L 2170 2918 
L 3526 2918 
L 3526 2816 
L 3117 2592 
L 2246 1907 
L 3418 320 
L 3827 102 
L 3827 0 
L 2579 0 
L 2381 333 
L 1523 1523 
L 1523 301 
L 1939 102 
L 1939 0 
L 198 0 
z
" transform="scale(0.015625)"/>
      <path id="Spectral-Bold-77" d="M 1222 0 
L 166 2643 
L -230 2816 
L -230 2918 
L 1581 2918 
L 1581 2816 
L 1139 2630 
L 1139 2611 
L 1677 1184 
L 1709 1184 
L 2445 2918 
L 2688 2918 
L 3456 1190 
L 3482 1190 
L 4032 2586 
L 4032 2611 
L 3629 2816 
L 3629 2918 
L 4883 2918 
L 4883 2816 
L 4435 2598 
L 3309 0 
L 3066 0 
L 2278 1734 
L 1466 0 
L 1222 0 
z
" transform="scale(0.015625)"/>
     </defs>
     <use xlink:href="#Spectral-Bold-4d"/>
     <use xlink:href="#Spectral-Bold-61" x="99.499985"/>
     <use xlink:href="#Spectral-Bold-72" x="150.999969"/>
     <use xlink:href="#Spectral-Bold-6b" x="193.499954"/>
     <use xlink:href="#Spectral-Bold-64" x="253.799942"/>
     <use xlink:href="#Spectral-Bold-6f" x="312.09993"/>
     <use xlink:href="#Spectral-Bold-77" x="366.799927"/>
     <use xlink:href="#Spectral-Bold-6e" x="439.599915"/>
    </g>
   </g>
   <g id="patch_21">
    <path d="M 1038.467143 196.619562 
C 1036.467909 185.281343 1032.585801 174.357074 1026.981834 164.299852 
C 1021.377867 154.242631 1014.130606 145.193453 1005.540639 137.527644 
C 996.950672 129.861836 987.138425 123.686867 976.510874 119.258852 
C 965.883323 114.830838 954.589459 112.211855 943.097711 111.51053 
C 931.605962 110.809205 920.077434 112.03537 908.990289 115.138168 
C 897.903143 118.240965 887.412814 123.176897 877.954401 129.741238 
C 868.495988 136.30558 860.202093 144.406303 853.416714 153.707421 
C 846.631335 163.008538 841.4496 173.379654 838.086428 184.390613 
C 834.723255 195.401572 833.225795 206.898009 833.656156 218.403092 
C 834.086517 229.908175 836.438666 241.260612 840.615044 251.989545 
C 844.791423 262.718479 850.733481 272.673497 858.194763 281.441701 
C 865.656046 290.209905 874.531952 297.668373 884.45434 303.507752 
C 894.376728 309.347132 905.206495 313.485561 916.49446 315.751392 
C 927.782425 318.017223 939.37034 318.37869 950.77758 316.820802 
C 962.184821 315.262913 973.251465 311.80751 983.518509 306.597908 
C 993.785554 301.388307 1003.109062 294.497543 1011.102328 286.211419 
L 973.956011 250.377966 
C 969.959378 254.521028 965.297624 257.96641 960.164102 260.571211 
C 955.030579 263.176012 949.497257 264.903713 943.793637 265.682658 
C 938.090017 266.461602 932.296059 266.280868 926.652077 265.147953 
C 921.008094 264.015037 915.593211 261.945823 910.632017 259.026133 
C 905.670823 256.106443 901.23287 252.377209 897.502229 247.993107 
C 893.771587 243.609005 890.800558 238.631496 888.712369 233.267029 
C 886.62418 227.902563 885.448105 222.226344 885.232925 216.473803 
C 885.017744 210.721261 885.766474 204.973043 887.448061 199.467564 
C 889.129647 193.962084 891.720514 188.776526 895.113204 184.125967 
C 898.505893 179.475408 902.652841 175.425047 907.382047 172.142876 
C 912.111254 168.860705 917.356418 166.392739 922.899991 164.841341 
C 928.443564 163.289942 934.207828 162.676859 939.953702 163.027522 
C 945.699577 163.378184 951.346508 164.687676 956.660284 166.901683 
C 961.974059 169.11569 966.880183 172.203175 971.175166 176.036079 
C 975.47015 179.868983 979.093781 184.393572 981.895764 189.422183 
C 984.697747 194.450794 986.638802 199.912928 987.638418 205.582038 
L 1038.467143 196.619562 
z
" style="fill: #092436; opacity: 0.5; stroke: #092436; stroke-width: 4; stroke-linejoin: miter"/>
   </g>
   <g id="patch_22">
    <path d="M 1019.433496 292.306258 
C 1022.679077 288.941765 1025.692361 285.360681 1028.452533 281.587742 
C 1031.212705 277.814804 1033.713394 273.858719 1035.937325 269.746817 
L 990.539093 245.193085 
C 989.427127 247.249036 988.176783 249.227078 986.796697 251.113547 
C 985.416611 253.000017 983.909969 254.790559 982.287178 256.472805 
L 1019.433496 292.306258 
z
" style="fill: #4c2604; opacity: 0.5; stroke: #4c2604; stroke-width: 4; stroke-linejoin: miter"/>
   </g>
   <g id="patch_23">
    <path d="M 1037.194414 267.475688 
C 1039.099159 263.953939 1040.797394 260.32435 1042.280508 256.605325 
C 1043.763622 252.8863 1045.029104 249.084133 1046.070538 245.218103 
L 996.234244 231.793163 
C 995.713527 233.726179 995.080786 235.627262 994.339229 237.486774 
C 993.597672 239.346287 992.748554 241.161081 991.796182 242.921956 
L 1037.194414 267.475688 
z
" style="fill: #0d300d; opacity: 0.5; stroke: #0d300d; stroke-width: 4; stroke-linejoin: miter"/>
   </g>
   <g id="patch_24">
    <path d="M 1046.686585 242.952474 
C 1047.685805 239.243151 1048.477183 235.48094 1049.057023 231.683402 
C 1049.636864 227.885863 1050.004265 224.058916 1050.15751 220.220423 
L 998.585753 218.161508 
C 998.509131 220.080755 998.32543 221.994229 998.03551 223.892998 
C 997.745589 225.791767 997.349901 227.672873 996.850291 229.527534 
L 1046.686585 242.952474 
z
" style="fill: #400c0c; opacity: 0.5; stroke: #400c0c; stroke-width: 4; stroke-linejoin: miter"/>
   </g>
   <g id="patch_25">
    <path d="M 1050.252397 217.967998 
C 1050.3996 214.28085 1050.348986 210.588459 1050.100774 206.906731 
C 1049.852561 203.225003 1049.407107 199.559231 1048.76633 195.925207 
L 997.937607 204.887688 
C 998.257995 206.704701 998.480722 208.537586 998.604828 210.37845 
C 998.728934 212.219314 998.754241 214.06551 998.68064 215.909084 
L 1050.252397 217.967998 
z
" style="fill: #2c1f39; opacity: 0.5; stroke: #2c1f39; stroke-width: 4; stroke-linejoin: miter"/>
   </g>
   <g id="patch_26">
    <path d="M 1040.531657 194.555049 
C 1038.532423 183.21683 1034.650315 172.29256 1029.046348 162.235339 
C 1023.442381 152.178117 1016.195119 143.128939 1007.605152 135.463131 
C 999.015185 127.797323 989.202938 121.622354 978.575388 117.194339 
C 967.947837 112.766324 956.653973 110.147341 945.162224 109.446016 
C 933.670475 108.744691 922.141948 109.970856 911.054802 113.073654 
C 899.967657 116.176452 889.477327 121.112383 880.018915 127.676725 
C 870.560502 134.241066 862.266606 142.34179 855.481228 151.642907 
C 848.695849 160.944025 843.514114 171.315141 840.150941 182.3261 
C 836.787769 193.337059 835.290309 204.833495 835.72067 216.338578 
C 836.151031 227.843661 838.50318 239.196098 842.679558 249.925032 
C 846.855936 260.653965 852.797994 270.608983 860.259277 279.377187 
C 867.72056 288.145392 876.596465 295.603859 886.518853 301.443239 
C 896.441242 307.282619 907.271008 311.421048 918.558973 313.686878 
C 929.846939 315.952709 941.434854 316.314176 952.842094 314.756288 
C 964.249334 313.1984 975.315979 309.742996 985.583023 304.533395 
C 995.850068 299.323793 1005.173575 292.433029 1013.166842 284.146906 
L 976.020525 248.313453 
C 972.023891 252.456515 967.362137 255.901897 962.228615 258.506697 
C 957.095093 261.111498 951.561771 262.8392 945.858151 263.618144 
C 940.15453 264.397088 934.360573 264.216355 928.71659 263.083439 
C 923.072608 261.950524 917.657725 259.881309 912.69653 256.961619 
C 907.735336 254.041929 903.297383 250.312696 899.566742 245.928594 
C 895.836101 241.544491 892.865072 236.566983 890.776883 231.202516 
C 888.688693 225.838049 887.512619 220.161831 887.297438 214.409289 
C 887.082258 208.656748 887.830988 202.908529 889.512574 197.40305 
C 891.19416 191.89757 893.785028 186.712012 897.177717 182.061454 
C 900.570407 177.410895 904.717355 173.360533 909.446561 170.078362 
C 914.175767 166.796192 919.420932 164.328226 924.964505 162.776827 
C 930.508077 161.225428 936.272341 160.612346 942.018216 160.963008 
C 947.76409 161.313671 953.411022 162.623162 958.724797 164.837169 
C 964.038573 167.051177 968.944696 170.138661 973.23968 173.971565 
C 977.534663 177.804469 981.158294 182.329059 983.960278 187.357669 
C 986.762261 192.38628 988.703315 197.848415 989.702932 203.517524 
L 1040.531657 194.555049 
z
" style="fill: #1f77b4; stroke: #ffffff; stroke-width: 4; stroke-linejoin: miter"/>
   </g>
   <g id="patch_27">
    <path d="M 1021.498009 290.241745 
C 1024.743591 286.877252 1027.756875 283.296167 1030.517047 279.523229 
C 1033.277218 275.75029 1035.777907 271.794206 1038.001839 267.682303 
L 992.603607 243.128571 
C 991.491641 245.184522 990.241296 247.162565 988.861211 249.049034 
C 987.481125 250.935503 985.974483 252.726045 984.351692 254.408292 
L 1021.498009 290.241745 
z
" style="fill: #ff7f0e; stroke: #ffffff; stroke-width: 4; stroke-linejoin: miter"/>
   </g>
   <g id="patch_28">
    <path d="M 1039.258927 265.411174 
C 1041.163673 261.889425 1042.861908 258.259837 1044.345022 254.540811 
C 1045.828135 250.821786 1047.093617 247.01962 1048.135052 243.15359 
L 998.298757 229.72865 
C 997.77804 231.661665 997.145299 233.562748 996.403742 235.422261 
C 995.662185 237.281773 994.813068 239.096568 993.860695 240.857442 
L 1039.258927 265.411174 
z
" style="fill: #2ca02c; stroke: #ffffff; stroke-width: 4; stroke-linejoin: miter"/>
   </g>
   <g id="patch_29">
    <path d="M 1048.751099 240.88796 
C 1049.750319 237.178638 1050.541696 233.416427 1051.121537 229.618888 
C 1051.701378 225.82135 1052.068778 221.994402 1052.222024 218.155909 
L 1000.650267 216.096995 
C 1000.573644 218.016241 1000.389944 219.929715 1000.100024 221.828484 
C 999.810103 223.727254 999.414414 225.608359 998.914804 227.46302 
L 1048.751099 240.88796 
z
" style="fill: #d62728; stroke: #ffffff; stroke-width: 4; stroke-linejoin: miter"/>
   </g>
   <g id="patch_30">
    <path d="M 1052.31691 215.903484 
C 1052.464113 212.216336 1052.4135 208.523946 1052.165287 204.842217 
C 1051.917075 201.160489 1051.471621 197.494718 1050.830844 193.860693 
L 1000.00212 202.823175 
C 1000.322509 204.640187 1000.545236 206.473073 1000.669342 208.313937 
C 1000.793448 210.154801 1000.818755 212.000996 1000.745153 213.84457 
L 1052.31691 215.903484 
z
" style="fill: #9467bd; stroke: #ffffff; stroke-width: 4; stroke-linejoin: miter"/>
   </g>
   <g id="matplotlib.axis_3"/>
   <g id="matplotlib.axis_4"/>
   <g id="text_19">
    <!-- Languages -->
    <g style="fill: #2a475e" transform="translate(914.364832 214.98)scale(0.1 -0.1)">
     <defs>
      <path id="Spectral-Bold-67" d="M 1645 973 
Q 1344 973 1088 1075 
Q 954 986 954 826 
Q 954 666 1069 592 
Q 1184 518 1440 518 
L 2144 518 
Q 2643 518 2883 297 
Q 3123 77 3123 -352 
Q 3123 -646 2921 -918 
Q 2720 -1190 2342 -1363 
Q 1965 -1536 1446 -1536 
Q 832 -1536 560 -1341 
Q 288 -1146 288 -851 
Q 288 -634 403 -454 
L 806 -198 
L 806 -173 
Q 314 0 314 467 
Q 314 614 355 729 
Q 397 845 493 947 
L 858 1158 
L 858 1197 
Q 653 1331 534 1532 
Q 416 1734 416 1978 
Q 416 2259 579 2486 
Q 742 2714 1017 2845 
Q 1293 2976 1645 2976 
Q 1818 2976 1994 2941 
Q 2170 2906 2291 2848 
L 3277 2912 
L 3277 2528 
L 2637 2579 
L 2611 2554 
Q 2726 2451 2796 2297 
Q 2867 2144 2867 1978 
Q 2867 1690 2707 1462 
Q 2547 1235 2268 1104 
Q 1990 973 1645 973 
z
M 1690 1248 
Q 1894 1248 2000 1440 
Q 2106 1632 2106 1958 
Q 2106 2323 1971 2518 
Q 1837 2714 1626 2714 
Q 1402 2714 1296 2515 
Q 1190 2317 1190 1997 
Q 1190 1632 1324 1440 
Q 1459 1248 1690 1248 
z
M 832 -730 
Q 832 -979 1005 -1142 
Q 1178 -1306 1510 -1306 
Q 1920 -1306 2157 -1117 
Q 2394 -928 2394 -672 
Q 2394 -429 2266 -333 
Q 2138 -237 1818 -237 
L 1267 -237 
Q 1171 -237 1082 -230 
Q 832 -390 832 -730 
z
" transform="scale(0.015625)"/>
     </defs>
     <use xlink:href="#Spectral-Bold-4c"/>
     <use xlink:href="#Spectral-Bold-61" x="64.899994"/>
     <use xlink:href="#Spectral-Bold-6e" x="116.399979"/>
     <use xlink:href="#Spectral-Bold-67" x="178.199966"/>
     <use xlink:href="#Spectral-Bold-75" x="232.299957"/>
     <use xlink:href="#Spectral-Bold-61" x="291.299942"/>
     <use xlink:href="#Spectral-Bold-67" x="342.799927"/>
     <use xlink:href="#Spectral-Bold-65" x="396.899918"/>
     <use xlink:href="#Spectral-Bold-73" x="446.499908"/>
    </g>
   </g>
   <g id="text_20">
    <!-- Languages exploited : -->
    <g style="fill: #2a475e" transform="translate(819.177957 77.4479)scale(0.24 -0.24)">
     <defs>
      <path id="Spectral-Bold-70" d="M 198 -1472 
L 198 -1370 
L 627 -1165 
L 627 2214 
L 218 2515 
L 218 2592 
L 1382 2982 
L 1459 2982 
L 1510 2592 
L 1549 2592 
Q 1786 2797 2006 2889 
Q 2227 2982 2483 2982 
Q 2765 2982 3011 2812 
Q 3258 2643 3405 2329 
Q 3552 2016 3552 1581 
Q 3552 1069 3347 701 
Q 3142 333 2803 134 
Q 2464 -64 2067 -64 
Q 1920 -64 1785 -51 
Q 1651 -38 1523 -6 
L 1523 -1165 
L 2022 -1370 
L 2022 -1472 
L 198 -1472 
z
M 1952 2458 
Q 1837 2458 1737 2426 
Q 1638 2394 1523 2330 
L 1523 480 
Q 1709 269 2029 269 
Q 2182 269 2326 365 
Q 2470 461 2563 704 
Q 2656 947 2656 1395 
Q 2656 1939 2438 2198 
Q 2221 2458 1952 2458 
z
" transform="scale(0.015625)"/>
     </defs>
     <use xlink:href="#Spectral-Bold-4c"/>
     <use xlink:href="#Spectral-Bold-61" x="64.899994"/>
     <use xlink:href="#Spectral-Bold-6e" x="116.399979"/>
     <use xlink:href="#Spectral-Bold-67" x="178.199966"/>
     <use xlink:href="#Spectral-Bold-75" x="232.299957"/>
     <use xlink:href="#Spectral-Bold-61" x="291.299942"/>
     <use xlink:href="#Spectral-Bold-67" x="342.799927"/>
     <use xlink:href="#Spectral-Bold-65" x="396.899918"/>
     <use xlink:href="#Spectral-Bold-73" x="446.499908"/>
     <use xlink:href="#Spectral-Bold-20" x="490.199905"/>
     <use xlink:href="#Spectral-Bold-65" x="515.19989"/>
     <use xlink:href="#Spectral-Bold-78" x="564.799881"/>
     <use xlink:href="#Spectral-Bold-70" x="619.699875"/>
     <use xlink:href="#Spectral-Bold-6c" x="678.599869"/>
     <use xlink:href="#Spectral-Bold-6f" x="711.19986"/>
     <use xlink:href="#Spectral-Bold-69" x="765.899857"/>
     <use xlink:href="#Spectral-Bold-74" x="799.199844"/>
     <use xlink:href="#Spectral-Bold-65" x="837.799835"/>
     <use xlink:href="#Spectral-Bold-64" x="887.399826"/>
     <use xlink:href="#Spectral-Bold-20" x="945.699814"/>
     <use xlink:href="#Spectral-Bold-3a" x="970.699799"/>
    </g>
   </g>
  </g>
  <g id="text_21">
   <!-- My stats: From 29 March, 2023 to 28 April, 2023: 13 hrs 19 mins -->
   <g transform="translate(128.839219 29.7)scale(0.3 -0.3)">
    <defs>
     <path id="Spectral-Bold-46" d="M 282 0 
L 282 102 
L 826 365 
L 826 3859 
L 282 4122 
L 282 4224 
L 3706 4224 
L 3706 3117 
L 3603 3117 
L 3168 3872 
L 1792 3872 
L 1792 2336 
L 2714 2336 
L 3072 2886 
L 3174 2886 
L 3174 1485 
L 3072 1485 
L 2714 2022 
L 1792 2022 
L 1792 365 
L 2445 102 
L 2445 0 
L 282 0 
z
" transform="scale(0.015625)"/>
     <path id="Spectral-Bold-39" d="M 627 -64 
L 627 160 
Q 1376 390 1801 908 
Q 2227 1427 2336 2150 
Q 2170 1933 1917 1817 
Q 1664 1702 1344 1702 
Q 986 1702 730 1862 
Q 474 2022 339 2297 
Q 205 2573 205 2912 
Q 205 3277 381 3590 
Q 557 3904 909 4096 
Q 1261 4288 1779 4288 
Q 2259 4288 2617 4086 
Q 2976 3885 3174 3520 
Q 3373 3155 3373 2662 
Q 3373 1958 3040 1408 
Q 2707 858 2092 483 
Q 1478 109 627 -64 
z
M 1184 3085 
Q 1184 2688 1328 2432 
Q 1472 2176 1786 2176 
Q 1971 2176 2118 2265 
Q 2266 2355 2368 2502 
Q 2374 2586 2374 2669 
Q 2374 3290 2211 3635 
Q 2048 3981 1754 3981 
Q 1542 3981 1417 3840 
Q 1293 3699 1238 3491 
Q 1184 3283 1184 3085 
z
" transform="scale(0.015625)"/>
     <path id="Spectral-Bold-2c" d="M 358 -1363 
L 358 -1165 
Q 666 -1011 784 -822 
Q 902 -634 902 -461 
Q 902 -275 809 -147 
Q 717 -19 570 64 
L 352 186 
L 333 262 
L 595 698 
Q 646 774 675 806 
Q 704 838 755 838 
Q 813 838 915 781 
Q 1152 646 1283 419 
Q 1414 192 1414 -70 
Q 1414 -429 1177 -781 
Q 941 -1133 358 -1363 
z
" transform="scale(0.015625)"/>
     <path id="Spectral-Bold-30" d="M 1792 -64 
Q 1293 -64 937 201 
Q 582 467 393 953 
Q 205 1440 205 2112 
Q 205 2739 406 3228 
Q 608 3718 966 4003 
Q 1325 4288 1792 4288 
Q 2298 4288 2653 4025 
Q 3008 3763 3197 3273 
Q 3386 2784 3386 2112 
Q 3386 1491 3181 998 
Q 2976 506 2617 221 
Q 2259 -64 1792 -64 
z
M 1901 250 
Q 2067 250 2176 464 
Q 2285 678 2336 1052 
Q 2387 1427 2387 1914 
Q 2387 2477 2320 2947 
Q 2253 3418 2105 3699 
Q 1958 3981 1709 3981 
Q 1453 3981 1328 3529 
Q 1203 3078 1203 2323 
Q 1203 1754 1273 1283 
Q 1344 813 1494 531 
Q 1645 250 1901 250 
z
" transform="scale(0.015625)"/>
     <path id="Spectral-Bold-41" d="M 122 0 
L 122 102 
L 512 320 
L 2182 4256 
L 2746 4256 
L 4397 326 
L 4832 102 
L 4832 0 
L 2810 0 
L 2810 102 
L 3366 333 
L 2931 1395 
L 1414 1395 
L 979 333 
L 1510 102 
L 1510 0 
L 122 0 
z
M 1562 1747 
L 2784 1747 
L 2170 3232 
L 1562 1747 
z
" transform="scale(0.015625)"/>
    </defs>
    <use xlink:href="#Spectral-Bold-4d"/>
    <use xlink:href="#Spectral-Bold-79" x="99.499985"/>
    <use xlink:href="#Spectral-Bold-20" x="147.099976"/>
    <use xlink:href="#Spectral-Bold-73" x="172.09996"/>
    <use xlink:href="#Spectral-Bold-74" x="215.799957"/>
    <use xlink:href="#Spectral-Bold-61" x="254.399948"/>
    <use xlink:href="#Spectral-Bold-74" x="305.899933"/>
    <use xlink:href="#Spectral-Bold-73" x="344.499924"/>
    <use xlink:href="#Spectral-Bold-3a" x="388.199921"/>
    <use xlink:href="#Spectral-Bold-20" x="414.999908"/>
    <use xlink:href="#Spectral-Bold-46" x="439.999893"/>
    <use xlink:href="#Spectral-Bold-72" x="503.099884"/>
    <use xlink:href="#Spectral-Bold-6f" x="545.599869"/>
    <use xlink:href="#Spectral-Bold-6d" x="600.299866"/>
    <use xlink:href="#Spectral-Bold-20" x="690.399857"/>
    <use xlink:href="#Spectral-Bold-32" x="715.399841"/>
    <use xlink:href="#Spectral-Bold-39" x="771.499832"/>
    <use xlink:href="#Spectral-Bold-20" x="827.599823"/>
    <use xlink:href="#Spectral-Bold-4d" x="852.599808"/>
    <use xlink:href="#Spectral-Bold-61" x="952.099792"/>
    <use xlink:href="#Spectral-Bold-72" x="1003.599777"/>
    <use xlink:href="#Spectral-Bold-63" x="1046.099762"/>
    <use xlink:href="#Spectral-Bold-68" x="1094.499756"/>
    <use xlink:href="#Spectral-Bold-2c" x="1156.299744"/>
    <use xlink:href="#Spectral-Bold-20" x="1183.099731"/>
    <use xlink:href="#Spectral-Bold-32" x="1208.099716"/>
    <use xlink:href="#Spectral-Bold-30" x="1264.199707"/>
    <use xlink:href="#Spectral-Bold-32" x="1320.299698"/>
    <use xlink:href="#Spectral-Bold-33" x="1376.399689"/>
    <use xlink:href="#Spectral-Bold-20" x="1432.49968"/>
    <use xlink:href="#Spectral-Bold-74" x="1457.499664"/>
    <use xlink:href="#Spectral-Bold-6f" x="1496.099655"/>
    <use xlink:href="#Spectral-Bold-20" x="1550.799652"/>
    <use xlink:href="#Spectral-Bold-32" x="1575.799637"/>
    <use xlink:href="#Spectral-Bold-38" x="1631.899628"/>
    <use xlink:href="#Spectral-Bold-20" x="1687.999619"/>
    <use xlink:href="#Spectral-Bold-41" x="1712.999603"/>
    <use xlink:href="#Spectral-Bold-70" x="1790.399597"/>
    <use xlink:href="#Spectral-Bold-72" x="1849.299591"/>
    <use xlink:href="#Spectral-Bold-69" x="1891.799576"/>
    <use xlink:href="#Spectral-Bold-6c" x="1925.099564"/>
    <use xlink:href="#Spectral-Bold-2c" x="1957.699554"/>
    <use xlink:href="#Spectral-Bold-20" x="1984.499542"/>
    <use xlink:href="#Spectral-Bold-32" x="2009.499527"/>
    <use xlink:href="#Spectral-Bold-30" x="2065.599518"/>
    <use xlink:href="#Spectral-Bold-32" x="2121.699509"/>
    <use xlink:href="#Spectral-Bold-33" x="2177.7995"/>
    <use xlink:href="#Spectral-Bold-3a" x="2233.89949"/>
    <use xlink:href="#Spectral-Bold-20" x="2260.699478"/>
    <use xlink:href="#Spectral-Bold-31" x="2285.699463"/>
    <use xlink:href="#Spectral-Bold-33" x="2341.799454"/>
    <use xlink:href="#Spectral-Bold-20" x="2397.899445"/>
    <use xlink:href="#Spectral-Bold-68" x="2422.899429"/>
    <use xlink:href="#Spectral-Bold-72" x="2484.699417"/>
    <use xlink:href="#Spectral-Bold-73" x="2527.199402"/>
    <use xlink:href="#Spectral-Bold-20" x="2570.899399"/>
    <use xlink:href="#Spectral-Bold-31" x="2595.899384"/>
    <use xlink:href="#Spectral-Bold-39" x="2651.999374"/>
    <use xlink:href="#Spectral-Bold-20" x="2708.099365"/>
    <use xlink:href="#Spectral-Bold-6d" x="2733.09935"/>
    <use xlink:href="#Spectral-Bold-69" x="2823.199341"/>
    <use xlink:href="#Spectral-Bold-6e" x="2856.499329"/>
    <use xlink:href="#Spectral-Bold-73" x="2918.299316"/>
   </g>
  </g>
 </g>
 <defs>
  <clipPath id="p89b7b9ab0f">
   <rect x="161.278125" y="74.96" width="516.128398" height="275.04"/>
  </clipPath>
 </defs>
</svg>
