<?xml version="1.0" encoding="utf-8" standalone="no"?>
<!DOCTYPE svg PUBLIC "-//W3C//DTD SVG 1.1//EN"
  "http://www.w3.org/Graphics/SVG/1.1/DTD/svg11.dtd">
<svg xmlns:xlink="http://www.w3.org/1999/xlink" width="1153.530332pt" height="362.2pt" viewBox="0 0 1153.530332 362.2" xmlns="http://www.w3.org/2000/svg" version="1.1">
 <metadata>
  <rdf:RDF xmlns:dc="http://purl.org/dc/elements/1.1/" xmlns:cc="http://creativecommons.org/ns#" xmlns:rdf="http://www.w3.org/1999/02/22-rdf-syntax-ns#">
   <cc:Work>
    <dc:type rdf:resource="http://purl.org/dc/dcmitype/StillImage"/>
    <dc:date>2025-09-30T08:12:59.547525</dc:date>
    <dc:format>image/svg+xml</dc:format>
    <dc:creator>
     <cc:Agent>
      <dc:title>Matplotlib v3.9.1.post1, https://matplotlib.org/</dc:title>
     </cc:Agent>
    </dc:creator>
   </cc:Work>
  </rdf:RDF>
 </metadata>
 <defs>
  <style type="text/css">*{stroke-linejoin: round; stroke-linecap: butt}</style>
 </defs>
 <g id="figure_1">
  <g id="patch_1">
   <path d="M 0 362.2 
L 1153.530332 362.2 
L 1153.530332 0 
L 0 0 
L 0 362.2 
z
" style="fill: none"/>
  </g>
  <g id="axes_1">
   <g id="patch_2">
    <path d="M 306.615625 355 
L 702.910686 355 
L 702.910686 56.32 
L 306.615625 56.32 
L 306.615625 355 
z
" style="fill: none"/>
   </g>
   <g id="patch_3">
    <path d="M 306.615625 69.896364 
L 684.039493 69.896364 
L 684.039493 94.580661 
L 306.615625 94.580661 
z
" clip-path="url(#p0de4db234c)" style="fill: #c36360; stroke: #c36360; stroke-linejoin: miter"/>
   </g>
   <g id="patch_4">
    <path d="M 306.615625 119.264959 
L 665.877167 119.264959 
L 665.877167 143.949256 
L 306.615625 143.949256 
z
" clip-path="url(#p0de4db234c)" style="fill: #77df18; stroke: #77df18; stroke-linejoin: miter"/>
   </g>
   <g id="patch_5">
    <path d="M 306.615625 168.633554 
L 315.888374 168.633554 
L 315.888374 193.317851 
L 306.615625 193.317851 
z
" clip-path="url(#p0de4db234c)" style="fill: #379fa2; stroke: #379fa2; stroke-linejoin: miter"/>
   </g>
   <g id="patch_6">
    <path d="M 306.615625 218.002149 
L 314.892128 218.002149 
L 314.892128 242.686446 
L 306.615625 242.686446 
z
" clip-path="url(#p0de4db234c)" style="fill: #acfb37; stroke: #acfb37; stroke-linejoin: miter"/>
   </g>
   <g id="patch_7">
    <path d="M 306.615625 267.370744 
L 313.512711 267.370744 
L 313.512711 292.055041 
L 306.615625 292.055041 
z
" clip-path="url(#p0de4db234c)" style="fill: #79198b; stroke: #79198b; stroke-linejoin: miter"/>
   </g>
   <g id="patch_8">
    <path d="M 306.615625 316.739339 
L 309.451094 316.739339 
L 309.451094 341.423636 
L 306.615625 341.423636 
z
" clip-path="url(#p0de4db234c)" style="fill: #ebfbe9; stroke: #ebfbe9; stroke-linejoin: miter"/>
   </g>
   <g id="matplotlib.axis_1"/>
   <g id="matplotlib.axis_2">
    <g id="ytick_1">
     <g id="line2d_1">
      <defs>
       <path id="mcd8417b6d9" d="M 0 0 
L -3.5 0 
" style="stroke: #000000; stroke-width: 0.8"/>
      </defs>
      <g>
       <use xlink:href="#mcd8417b6d9" x="306.615625" y="82.238512" style="stroke: #000000; stroke-width: 0.8"/>
      </g>
     </g>
     <g id="text_1">
      <!-- WEPath -->
      <g style="fill: #586069" transform="translate(212.465625 89.83695) scale(0.2 -0.2)">
       <defs>
        <path id="DejaVuSans-Bold-57" d="M 191 4666 
L 1344 4666 
L 2150 1275 
L 2950 4666 
L 4109 4666 
L 4909 1275 
L 5716 4666 
L 6859 4666 
L 5759 0 
L 4372 0 
L 3525 3547 
L 2688 0 
L 1300 0 
L 191 4666 
z
" transform="scale(0.015625)"/>
        <path id="DejaVuSans-Bold-45" d="M 588 4666 
L 3834 4666 
L 3834 3756 
L 1791 3756 
L 1791 2888 
L 3713 2888 
L 3713 1978 
L 1791 1978 
L 1791 909 
L 3903 909 
L 3903 0 
L 588 0 
L 588 4666 
z
" transform="scale(0.015625)"/>
        <path id="DejaVuSans-Bold-50" d="M 588 4666 
L 2584 4666 
Q 3475 4666 3951 4270 
Q 4428 3875 4428 3144 
Q 4428 2409 3951 2014 
Q 3475 1619 2584 1619 
L 1791 1619 
L 1791 0 
L 588 0 
L 588 4666 
z
M 1791 3794 
L 1791 2491 
L 2456 2491 
Q 2806 2491 2997 2661 
Q 3188 2831 3188 3144 
Q 3188 3456 2997 3625 
Q 2806 3794 2456 3794 
L 1791 3794 
z
" transform="scale(0.015625)"/>
        <path id="DejaVuSans-Bold-61" d="M 2106 1575 
Q 1756 1575 1579 1456 
Q 1403 1338 1403 1106 
Q 1403 894 1545 773 
Q 1688 653 1941 653 
Q 2256 653 2472 879 
Q 2688 1106 2688 1447 
L 2688 1575 
L 2106 1575 
z
M 3816 1997 
L 3816 0 
L 2688 0 
L 2688 519 
Q 2463 200 2181 54 
Q 1900 -91 1497 -91 
Q 953 -91 614 226 
Q 275 544 275 1050 
Q 275 1666 698 1953 
Q 1122 2241 2028 2241 
L 2688 2241 
L 2688 2328 
Q 2688 2594 2478 2717 
Q 2269 2841 1825 2841 
Q 1466 2841 1156 2769 
Q 847 2697 581 2553 
L 581 3406 
Q 941 3494 1303 3539 
Q 1666 3584 2028 3584 
Q 2975 3584 3395 3211 
Q 3816 2838 3816 1997 
z
" transform="scale(0.015625)"/>
        <path id="DejaVuSans-Bold-74" d="M 1759 4494 
L 1759 3500 
L 2913 3500 
L 2913 2700 
L 1759 2700 
L 1759 1216 
Q 1759 972 1856 886 
Q 1953 800 2241 800 
L 2816 800 
L 2816 0 
L 1856 0 
Q 1194 0 917 276 
Q 641 553 641 1216 
L 641 2700 
L 84 2700 
L 84 3500 
L 641 3500 
L 641 4494 
L 1759 4494 
z
" transform="scale(0.015625)"/>
        <path id="DejaVuSans-Bold-68" d="M 4056 2131 
L 4056 0 
L 2931 0 
L 2931 347 
L 2931 1625 
Q 2931 2084 2911 2256 
Q 2891 2428 2841 2509 
Q 2775 2619 2662 2680 
Q 2550 2741 2406 2741 
Q 2056 2741 1856 2470 
Q 1656 2200 1656 1722 
L 1656 0 
L 538 0 
L 538 4863 
L 1656 4863 
L 1656 2988 
Q 1909 3294 2193 3439 
Q 2478 3584 2822 3584 
Q 3428 3584 3742 3212 
Q 4056 2841 4056 2131 
z
" transform="scale(0.015625)"/>
       </defs>
       <use xlink:href="#DejaVuSans-Bold-57"/>
       <use xlink:href="#DejaVuSans-Bold-45" x="110.302734"/>
       <use xlink:href="#DejaVuSans-Bold-50" x="178.613281"/>
       <use xlink:href="#DejaVuSans-Bold-61" x="249.279297"/>
       <use xlink:href="#DejaVuSans-Bold-74" x="316.759766"/>
       <use xlink:href="#DejaVuSans-Bold-68" x="364.5625"/>
      </g>
     </g>
    </g>
    <g id="ytick_2">
     <g id="line2d_2">
      <g>
       <use xlink:href="#mcd8417b6d9" x="306.615625" y="131.607107" style="stroke: #000000; stroke-width: 0.8"/>
      </g>
     </g>
     <g id="text_2">
      <!-- PathGennie -->
      <g style="fill: #586069" transform="translate(169.309375 139.205545) scale(0.2 -0.2)">
       <defs>
        <path id="DejaVuSans-Bold-47" d="M 4781 347 
Q 4331 128 3847 18 
Q 3363 -91 2847 -91 
Q 1681 -91 1000 561 
Q 319 1213 319 2328 
Q 319 3456 1012 4103 
Q 1706 4750 2913 4750 
Q 3378 4750 3804 4662 
Q 4231 4575 4609 4403 
L 4609 3438 
Q 4219 3659 3833 3768 
Q 3447 3878 3059 3878 
Q 2341 3878 1952 3476 
Q 1563 3075 1563 2328 
Q 1563 1588 1938 1184 
Q 2313 781 3003 781 
Q 3191 781 3352 804 
Q 3513 828 3641 878 
L 3641 1784 
L 2906 1784 
L 2906 2591 
L 4781 2591 
L 4781 347 
z
" transform="scale(0.015625)"/>
        <path id="DejaVuSans-Bold-65" d="M 4031 1759 
L 4031 1441 
L 1416 1441 
Q 1456 1047 1700 850 
Q 1944 653 2381 653 
Q 2734 653 3104 758 
Q 3475 863 3866 1075 
L 3866 213 
Q 3469 63 3072 -14 
Q 2675 -91 2278 -91 
Q 1328 -91 801 392 
Q 275 875 275 1747 
Q 275 2603 792 3093 
Q 1309 3584 2216 3584 
Q 3041 3584 3536 3087 
Q 4031 2591 4031 1759 
z
M 2881 2131 
Q 2881 2450 2695 2645 
Q 2509 2841 2209 2841 
Q 1884 2841 1681 2658 
Q 1478 2475 1428 2131 
L 2881 2131 
z
" transform="scale(0.015625)"/>
        <path id="DejaVuSans-Bold-6e" d="M 4056 2131 
L 4056 0 
L 2931 0 
L 2931 347 
L 2931 1631 
Q 2931 2084 2911 2256 
Q 2891 2428 2841 2509 
Q 2775 2619 2662 2680 
Q 2550 2741 2406 2741 
Q 2056 2741 1856 2470 
Q 1656 2200 1656 1722 
L 1656 0 
L 538 0 
L 538 3500 
L 1656 3500 
L 1656 2988 
Q 1909 3294 2193 3439 
Q 2478 3584 2822 3584 
Q 3428 3584 3742 3212 
Q 4056 2841 4056 2131 
z
" transform="scale(0.015625)"/>
        <path id="DejaVuSans-Bold-69" d="M 538 3500 
L 1656 3500 
L 1656 0 
L 538 0 
L 538 3500 
z
M 538 4863 
L 1656 4863 
L 1656 3950 
L 538 3950 
L 538 4863 
z
" transform="scale(0.015625)"/>
       </defs>
       <use xlink:href="#DejaVuSans-Bold-50"/>
       <use xlink:href="#DejaVuSans-Bold-61" x="70.666016"/>
       <use xlink:href="#DejaVuSans-Bold-74" x="138.146484"/>
       <use xlink:href="#DejaVuSans-Bold-68" x="185.949219"/>
       <use xlink:href="#DejaVuSans-Bold-47" x="257.140625"/>
       <use xlink:href="#DejaVuSans-Bold-65" x="339.220703"/>
       <use xlink:href="#DejaVuSans-Bold-6e" x="407.042969"/>
       <use xlink:href="#DejaVuSans-Bold-6e" x="478.234375"/>
       <use xlink:href="#DejaVuSans-Bold-69" x="549.425781"/>
       <use xlink:href="#DejaVuSans-Bold-65" x="583.703125"/>
      </g>
     </g>
    </g>
    <g id="ytick_3">
     <g id="line2d_3">
      <g>
       <use xlink:href="#mcd8417b6d9" x="306.615625" y="180.975702" style="stroke: #000000; stroke-width: 0.8"/>
      </g>
     </g>
     <g id="text_3">
      <!-- velocvpath -->
      <g style="fill: #586069" transform="translate(175.9125 188.57414) scale(0.2 -0.2)">
       <defs>
        <path id="DejaVuSans-Bold-76" d="M 97 3500 
L 1216 3500 
L 2088 1081 
L 2956 3500 
L 4078 3500 
L 2700 0 
L 1472 0 
L 97 3500 
z
" transform="scale(0.015625)"/>
        <path id="DejaVuSans-Bold-6c" d="M 538 4863 
L 1656 4863 
L 1656 0 
L 538 0 
L 538 4863 
z
" transform="scale(0.015625)"/>
        <path id="DejaVuSans-Bold-6f" d="M 2203 2784 
Q 1831 2784 1636 2517 
Q 1441 2250 1441 1747 
Q 1441 1244 1636 976 
Q 1831 709 2203 709 
Q 2569 709 2762 976 
Q 2956 1244 2956 1747 
Q 2956 2250 2762 2517 
Q 2569 2784 2203 2784 
z
M 2203 3584 
Q 3106 3584 3614 3096 
Q 4122 2609 4122 1747 
Q 4122 884 3614 396 
Q 3106 -91 2203 -91 
Q 1297 -91 786 396 
Q 275 884 275 1747 
Q 275 2609 786 3096 
Q 1297 3584 2203 3584 
z
" transform="scale(0.015625)"/>
        <path id="DejaVuSans-Bold-63" d="M 3366 3391 
L 3366 2478 
Q 3138 2634 2908 2709 
Q 2678 2784 2431 2784 
Q 1963 2784 1702 2511 
Q 1441 2238 1441 1747 
Q 1441 1256 1702 982 
Q 1963 709 2431 709 
Q 2694 709 2930 787 
Q 3166 866 3366 1019 
L 3366 103 
Q 3103 6 2833 -42 
Q 2563 -91 2291 -91 
Q 1344 -91 809 395 
Q 275 881 275 1747 
Q 275 2613 809 3098 
Q 1344 3584 2291 3584 
Q 2566 3584 2833 3536 
Q 3100 3488 3366 3391 
z
" transform="scale(0.015625)"/>
        <path id="DejaVuSans-Bold-70" d="M 1656 506 
L 1656 -1331 
L 538 -1331 
L 538 3500 
L 1656 3500 
L 1656 2988 
Q 1888 3294 2169 3439 
Q 2450 3584 2816 3584 
Q 3463 3584 3878 3070 
Q 4294 2556 4294 1747 
Q 4294 938 3878 423 
Q 3463 -91 2816 -91 
Q 2450 -91 2169 54 
Q 1888 200 1656 506 
z
M 2400 2772 
Q 2041 2772 1848 2508 
Q 1656 2244 1656 1747 
Q 1656 1250 1848 986 
Q 2041 722 2400 722 
Q 2759 722 2948 984 
Q 3138 1247 3138 1747 
Q 3138 2247 2948 2509 
Q 2759 2772 2400 2772 
z
" transform="scale(0.015625)"/>
       </defs>
       <use xlink:href="#DejaVuSans-Bold-76"/>
       <use xlink:href="#DejaVuSans-Bold-65" x="65.185547"/>
       <use xlink:href="#DejaVuSans-Bold-6c" x="133.007812"/>
       <use xlink:href="#DejaVuSans-Bold-6f" x="167.285156"/>
       <use xlink:href="#DejaVuSans-Bold-63" x="235.986328"/>
       <use xlink:href="#DejaVuSans-Bold-76" x="295.263672"/>
       <use xlink:href="#DejaVuSans-Bold-70" x="360.449219"/>
       <use xlink:href="#DejaVuSans-Bold-61" x="432.03125"/>
       <use xlink:href="#DejaVuSans-Bold-74" x="499.511719"/>
       <use xlink:href="#DejaVuSans-Bold-68" x="547.314453"/>
      </g>
     </g>
    </g>
    <g id="ytick_4">
     <g id="line2d_4">
      <g>
       <use xlink:href="#mcd8417b6d9" x="306.615625" y="230.344298" style="stroke: #000000; stroke-width: 0.8"/>
      </g>
     </g>
     <g id="text_4">
      <!-- Dimensionality_Reduction -->
      <g style="fill: #586069" transform="translate(7.2 237.942735) scale(0.2 -0.2)">
       <defs>
        <path id="DejaVuSans-Bold-44" d="M 1791 3756 
L 1791 909 
L 2222 909 
Q 2959 909 3348 1275 
Q 3738 1641 3738 2338 
Q 3738 3031 3350 3393 
Q 2963 3756 2222 3756 
L 1791 3756 
z
M 588 4666 
L 1856 4666 
Q 2919 4666 3439 4514 
Q 3959 4363 4331 4000 
Q 4659 3684 4818 3271 
Q 4978 2859 4978 2338 
Q 4978 1809 4818 1395 
Q 4659 981 4331 666 
Q 3956 303 3431 151 
Q 2906 0 1856 0 
L 588 0 
L 588 4666 
z
" transform="scale(0.015625)"/>
        <path id="DejaVuSans-Bold-6d" d="M 3781 2919 
Q 3994 3244 4286 3414 
Q 4578 3584 4928 3584 
Q 5531 3584 5847 3212 
Q 6163 2841 6163 2131 
L 6163 0 
L 5038 0 
L 5038 1825 
Q 5041 1866 5042 1909 
Q 5044 1953 5044 2034 
Q 5044 2406 4934 2573 
Q 4825 2741 4581 2741 
Q 4263 2741 4089 2478 
Q 3916 2216 3909 1719 
L 3909 0 
L 2784 0 
L 2784 1825 
Q 2784 2406 2684 2573 
Q 2584 2741 2328 2741 
Q 2006 2741 1831 2477 
Q 1656 2213 1656 1722 
L 1656 0 
L 531 0 
L 531 3500 
L 1656 3500 
L 1656 2988 
Q 1863 3284 2130 3434 
Q 2397 3584 2719 3584 
Q 3081 3584 3359 3409 
Q 3638 3234 3781 2919 
z
" transform="scale(0.015625)"/>
        <path id="DejaVuSans-Bold-73" d="M 3272 3391 
L 3272 2541 
Q 2913 2691 2578 2766 
Q 2244 2841 1947 2841 
Q 1628 2841 1473 2761 
Q 1319 2681 1319 2516 
Q 1319 2381 1436 2309 
Q 1553 2238 1856 2203 
L 2053 2175 
Q 2913 2066 3209 1816 
Q 3506 1566 3506 1031 
Q 3506 472 3093 190 
Q 2681 -91 1863 -91 
Q 1516 -91 1145 -36 
Q 775 19 384 128 
L 384 978 
Q 719 816 1070 734 
Q 1422 653 1784 653 
Q 2113 653 2278 743 
Q 2444 834 2444 1013 
Q 2444 1163 2330 1236 
Q 2216 1309 1875 1350 
L 1678 1375 
Q 931 1469 631 1722 
Q 331 1975 331 2491 
Q 331 3047 712 3315 
Q 1094 3584 1881 3584 
Q 2191 3584 2531 3537 
Q 2872 3491 3272 3391 
z
" transform="scale(0.015625)"/>
        <path id="DejaVuSans-Bold-79" d="M 78 3500 
L 1197 3500 
L 2138 1125 
L 2938 3500 
L 4056 3500 
L 2584 -331 
Q 2363 -916 2067 -1148 
Q 1772 -1381 1288 -1381 
L 641 -1381 
L 641 -647 
L 991 -647 
Q 1275 -647 1404 -556 
Q 1534 -466 1606 -231 
L 1638 -134 
L 78 3500 
z
" transform="scale(0.015625)"/>
        <path id="DejaVuSans-Bold-5f" d="M 3200 -916 
L 3200 -1509 
L 0 -1509 
L 0 -916 
L 3200 -916 
z
" transform="scale(0.015625)"/>
        <path id="DejaVuSans-Bold-52" d="M 2297 2597 
Q 2675 2597 2839 2737 
Q 3003 2878 3003 3200 
Q 3003 3519 2839 3656 
Q 2675 3794 2297 3794 
L 1791 3794 
L 1791 2597 
L 2297 2597 
z
M 1791 1766 
L 1791 0 
L 588 0 
L 588 4666 
L 2425 4666 
Q 3347 4666 3776 4356 
Q 4206 4047 4206 3378 
Q 4206 2916 3982 2619 
Q 3759 2322 3309 2181 
Q 3556 2125 3751 1926 
Q 3947 1728 4147 1325 
L 4800 0 
L 3519 0 
L 2950 1159 
Q 2778 1509 2601 1637 
Q 2425 1766 2131 1766 
L 1791 1766 
z
" transform="scale(0.015625)"/>
        <path id="DejaVuSans-Bold-64" d="M 2919 2988 
L 2919 4863 
L 4044 4863 
L 4044 0 
L 2919 0 
L 2919 506 
Q 2688 197 2409 53 
Q 2131 -91 1766 -91 
Q 1119 -91 703 423 
Q 288 938 288 1747 
Q 288 2556 703 3070 
Q 1119 3584 1766 3584 
Q 2128 3584 2408 3439 
Q 2688 3294 2919 2988 
z
M 2181 722 
Q 2541 722 2730 984 
Q 2919 1247 2919 1747 
Q 2919 2247 2730 2509 
Q 2541 2772 2181 2772 
Q 1825 2772 1636 2509 
Q 1447 2247 1447 1747 
Q 1447 1247 1636 984 
Q 1825 722 2181 722 
z
" transform="scale(0.015625)"/>
        <path id="DejaVuSans-Bold-75" d="M 500 1363 
L 500 3500 
L 1625 3500 
L 1625 3150 
Q 1625 2866 1622 2436 
Q 1619 2006 1619 1863 
Q 1619 1441 1641 1255 
Q 1663 1069 1716 984 
Q 1784 875 1895 815 
Q 2006 756 2150 756 
Q 2500 756 2700 1025 
Q 2900 1294 2900 1772 
L 2900 3500 
L 4019 3500 
L 4019 0 
L 2900 0 
L 2900 506 
Q 2647 200 2364 54 
Q 2081 -91 1741 -91 
Q 1134 -91 817 281 
Q 500 653 500 1363 
z
" transform="scale(0.015625)"/>
       </defs>
       <use xlink:href="#DejaVuSans-Bold-44"/>
       <use xlink:href="#DejaVuSans-Bold-69" x="83.007812"/>
       <use xlink:href="#DejaVuSans-Bold-6d" x="117.285156"/>
       <use xlink:href="#DejaVuSans-Bold-65" x="221.484375"/>
       <use xlink:href="#DejaVuSans-Bold-6e" x="289.306641"/>
       <use xlink:href="#DejaVuSans-Bold-73" x="360.498047"/>
       <use xlink:href="#DejaVuSans-Bold-69" x="420.019531"/>
       <use xlink:href="#DejaVuSans-Bold-6f" x="454.296875"/>
       <use xlink:href="#DejaVuSans-Bold-6e" x="522.998047"/>
       <use xlink:href="#DejaVuSans-Bold-61" x="594.189453"/>
       <use xlink:href="#DejaVuSans-Bold-6c" x="661.669922"/>
       <use xlink:href="#DejaVuSans-Bold-69" x="695.947266"/>
       <use xlink:href="#DejaVuSans-Bold-74" x="730.224609"/>
       <use xlink:href="#DejaVuSans-Bold-79" x="778.027344"/>
       <use xlink:href="#DejaVuSans-Bold-5f" x="843.212891"/>
       <use xlink:href="#DejaVuSans-Bold-52" x="893.212891"/>
       <use xlink:href="#DejaVuSans-Bold-65" x="970.214844"/>
       <use xlink:href="#DejaVuSans-Bold-64" x="1038.037109"/>
       <use xlink:href="#DejaVuSans-Bold-75" x="1109.619141"/>
       <use xlink:href="#DejaVuSans-Bold-63" x="1180.810547"/>
       <use xlink:href="#DejaVuSans-Bold-74" x="1240.087891"/>
       <use xlink:href="#DejaVuSans-Bold-69" x="1287.890625"/>
       <use xlink:href="#DejaVuSans-Bold-6f" x="1322.167969"/>
       <use xlink:href="#DejaVuSans-Bold-6e" x="1390.869141"/>
      </g>
     </g>
    </g>
    <g id="ytick_5">
     <g id="line2d_5">
      <g>
       <use xlink:href="#mcd8417b6d9" x="306.615625" y="279.712893" style="stroke: #000000; stroke-width: 0.8"/>
      </g>
     </g>
     <g id="text_5">
      <!-- JayPortfolio -->
      <g style="fill: #586069" transform="translate(168.55 287.31133) scale(0.2 -0.2)">
       <defs>
        <path id="DejaVuSans-Bold-4a" d="M 588 4666 
L 1791 4666 
L 1791 453 
Q 1791 -419 1317 -850 
Q 844 -1281 -116 -1281 
L -359 -1281 
L -359 -372 
L -172 -372 
Q 203 -372 395 -162 
Q 588 47 588 453 
L 588 4666 
z
" transform="scale(0.015625)"/>
        <path id="DejaVuSans-Bold-72" d="M 3138 2547 
Q 2991 2616 2845 2648 
Q 2700 2681 2553 2681 
Q 2122 2681 1889 2404 
Q 1656 2128 1656 1613 
L 1656 0 
L 538 0 
L 538 3500 
L 1656 3500 
L 1656 2925 
Q 1872 3269 2151 3426 
Q 2431 3584 2822 3584 
Q 2878 3584 2943 3579 
Q 3009 3575 3134 3559 
L 3138 2547 
z
" transform="scale(0.015625)"/>
        <path id="DejaVuSans-Bold-66" d="M 2841 4863 
L 2841 4128 
L 2222 4128 
Q 1984 4128 1890 4042 
Q 1797 3956 1797 3744 
L 1797 3500 
L 2753 3500 
L 2753 2700 
L 1797 2700 
L 1797 0 
L 678 0 
L 678 2700 
L 122 2700 
L 122 3500 
L 678 3500 
L 678 3744 
Q 678 4316 997 4589 
Q 1316 4863 1984 4863 
L 2841 4863 
z
" transform="scale(0.015625)"/>
       </defs>
       <use xlink:href="#DejaVuSans-Bold-4a"/>
       <use xlink:href="#DejaVuSans-Bold-61" x="37.207031"/>
       <use xlink:href="#DejaVuSans-Bold-79" x="101.5625"/>
       <use xlink:href="#DejaVuSans-Bold-50" x="166.748047"/>
       <use xlink:href="#DejaVuSans-Bold-6f" x="240.039062"/>
       <use xlink:href="#DejaVuSans-Bold-72" x="308.740234"/>
       <use xlink:href="#DejaVuSans-Bold-74" x="358.056641"/>
       <use xlink:href="#DejaVuSans-Bold-66" x="405.859375"/>
       <use xlink:href="#DejaVuSans-Bold-6f" x="449.365234"/>
       <use xlink:href="#DejaVuSans-Bold-6c" x="518.066406"/>
       <use xlink:href="#DejaVuSans-Bold-69" x="552.34375"/>
       <use xlink:href="#DejaVuSans-Bold-6f" x="586.621094"/>
      </g>
     </g>
    </g>
    <g id="ytick_6">
     <g id="line2d_6">
      <g>
       <use xlink:href="#mcd8417b6d9" x="306.615625" y="329.081488" style="stroke: #000000; stroke-width: 0.8"/>
      </g>
     </g>
     <g id="text_6">
      <!-- Learning -->
      <g style="fill: #586069" transform="translate(200.3 336.679925) scale(0.2 -0.2)">
       <defs>
        <path id="DejaVuSans-Bold-4c" d="M 588 4666 
L 1791 4666 
L 1791 909 
L 3903 909 
L 3903 0 
L 588 0 
L 588 4666 
z
" transform="scale(0.015625)"/>
        <path id="DejaVuSans-Bold-67" d="M 2919 594 
Q 2688 288 2409 144 
Q 2131 0 1766 0 
Q 1125 0 706 504 
Q 288 1009 288 1791 
Q 288 2575 706 3076 
Q 1125 3578 1766 3578 
Q 2131 3578 2409 3434 
Q 2688 3291 2919 2981 
L 2919 3500 
L 4044 3500 
L 4044 353 
Q 4044 -491 3511 -936 
Q 2978 -1381 1966 -1381 
Q 1638 -1381 1331 -1331 
Q 1025 -1281 716 -1178 
L 716 -306 
Q 1009 -475 1290 -558 
Q 1572 -641 1856 -641 
Q 2406 -641 2662 -400 
Q 2919 -159 2919 353 
L 2919 594 
z
M 2181 2772 
Q 1834 2772 1640 2515 
Q 1447 2259 1447 1791 
Q 1447 1309 1634 1061 
Q 1822 813 2181 813 
Q 2531 813 2725 1069 
Q 2919 1325 2919 1791 
Q 2919 2259 2725 2515 
Q 2531 2772 2181 2772 
z
" transform="scale(0.015625)"/>
       </defs>
       <use xlink:href="#DejaVuSans-Bold-4c"/>
       <use xlink:href="#DejaVuSans-Bold-65" x="63.720703"/>
       <use xlink:href="#DejaVuSans-Bold-61" x="131.542969"/>
       <use xlink:href="#DejaVuSans-Bold-72" x="199.023438"/>
       <use xlink:href="#DejaVuSans-Bold-6e" x="248.339844"/>
       <use xlink:href="#DejaVuSans-Bold-69" x="319.53125"/>
       <use xlink:href="#DejaVuSans-Bold-6e" x="353.808594"/>
       <use xlink:href="#DejaVuSans-Bold-67" x="425"/>
      </g>
     </g>
    </g>
   </g>
   <g id="patch_9">
    <path d="M 306.615625 355 
L 306.615625 56.32 
" style="fill: none; stroke: #000000; stroke-width: 0.8; stroke-linejoin: miter; stroke-linecap: square"/>
   </g>
   <g id="patch_10">
    <path d="M 306.615625 355 
L 702.910686 355 
" style="fill: none; stroke: #000000; stroke-width: 0.8; stroke-linejoin: miter; stroke-linecap: square"/>
   </g>
   <g id="text_7">
    <!-- 39 hrs 12 mins -->
    <g style="fill: #586069" transform="translate(688.039493 86.377575) scale(0.15 -0.15)">
     <defs>
      <path id="DejaVuSans-Bold-33" d="M 2981 2516 
Q 3453 2394 3698 2092 
Q 3944 1791 3944 1325 
Q 3944 631 3412 270 
Q 2881 -91 1863 -91 
Q 1503 -91 1142 -33 
Q 781 25 428 141 
L 428 1069 
Q 766 900 1098 814 
Q 1431 728 1753 728 
Q 2231 728 2486 893 
Q 2741 1059 2741 1369 
Q 2741 1688 2480 1852 
Q 2219 2016 1709 2016 
L 1228 2016 
L 1228 2791 
L 1734 2791 
Q 2188 2791 2409 2933 
Q 2631 3075 2631 3366 
Q 2631 3634 2415 3781 
Q 2200 3928 1806 3928 
Q 1516 3928 1219 3862 
Q 922 3797 628 3669 
L 628 4550 
Q 984 4650 1334 4700 
Q 1684 4750 2022 4750 
Q 2931 4750 3382 4451 
Q 3834 4153 3834 3553 
Q 3834 3144 3618 2883 
Q 3403 2622 2981 2516 
z
" transform="scale(0.015625)"/>
      <path id="DejaVuSans-Bold-39" d="M 641 103 
L 641 966 
Q 928 831 1190 764 
Q 1453 697 1709 697 
Q 2247 697 2547 995 
Q 2847 1294 2900 1881 
Q 2688 1725 2447 1647 
Q 2206 1569 1925 1569 
Q 1209 1569 770 1986 
Q 331 2403 331 3084 
Q 331 3838 820 4291 
Q 1309 4744 2131 4744 
Q 3044 4744 3544 4128 
Q 4044 3513 4044 2388 
Q 4044 1231 3459 570 
Q 2875 -91 1856 -91 
Q 1528 -91 1228 -42 
Q 928 6 641 103 
z
M 2125 2350 
Q 2441 2350 2600 2554 
Q 2759 2759 2759 3169 
Q 2759 3575 2600 3781 
Q 2441 3988 2125 3988 
Q 1809 3988 1650 3781 
Q 1491 3575 1491 3169 
Q 1491 2759 1650 2554 
Q 1809 2350 2125 2350 
z
" transform="scale(0.015625)"/>
      <path id="DejaVuSans-Bold-20" transform="scale(0.015625)"/>
      <path id="DejaVuSans-Bold-31" d="M 750 831 
L 1813 831 
L 1813 3847 
L 722 3622 
L 722 4441 
L 1806 4666 
L 2950 4666 
L 2950 831 
L 4013 831 
L 4013 0 
L 750 0 
L 750 831 
z
" transform="scale(0.015625)"/>
      <path id="DejaVuSans-Bold-32" d="M 1844 884 
L 3897 884 
L 3897 0 
L 506 0 
L 506 884 
L 2209 2388 
Q 2438 2594 2547 2791 
Q 2656 2988 2656 3200 
Q 2656 3528 2436 3728 
Q 2216 3928 1850 3928 
Q 1569 3928 1234 3808 
Q 900 3688 519 3450 
L 519 4475 
Q 925 4609 1322 4679 
Q 1719 4750 2100 4750 
Q 2938 4750 3402 4381 
Q 3866 4013 3866 3353 
Q 3866 2972 3669 2642 
Q 3472 2313 2841 1759 
L 1844 884 
z
" transform="scale(0.015625)"/>
     </defs>
     <use xlink:href="#DejaVuSans-Bold-33"/>
     <use xlink:href="#DejaVuSans-Bold-39" x="69.580078"/>
     <use xlink:href="#DejaVuSans-Bold-20" x="139.160156"/>
     <use xlink:href="#DejaVuSans-Bold-68" x="173.974609"/>
     <use xlink:href="#DejaVuSans-Bold-72" x="245.166016"/>
     <use xlink:href="#DejaVuSans-Bold-73" x="294.482422"/>
     <use xlink:href="#DejaVuSans-Bold-20" x="354.003906"/>
     <use xlink:href="#DejaVuSans-Bold-31" x="388.818359"/>
     <use xlink:href="#DejaVuSans-Bold-32" x="458.398438"/>
     <use xlink:href="#DejaVuSans-Bold-20" x="527.978516"/>
     <use xlink:href="#DejaVuSans-Bold-6d" x="562.792969"/>
     <use xlink:href="#DejaVuSans-Bold-69" x="666.992188"/>
     <use xlink:href="#DejaVuSans-Bold-6e" x="701.269531"/>
     <use xlink:href="#DejaVuSans-Bold-73" x="772.460938"/>
    </g>
   </g>
   <g id="text_8">
    <!-- 37 hrs 19 mins -->
    <g style="fill: #586069" transform="translate(669.877167 135.74617) scale(0.15 -0.15)">
     <defs>
      <path id="DejaVuSans-Bold-37" d="M 428 4666 
L 3944 4666 
L 3944 3988 
L 2125 0 
L 953 0 
L 2675 3781 
L 428 3781 
L 428 4666 
z
" transform="scale(0.015625)"/>
     </defs>
     <use xlink:href="#DejaVuSans-Bold-33"/>
     <use xlink:href="#DejaVuSans-Bold-37" x="69.580078"/>
     <use xlink:href="#DejaVuSans-Bold-20" x="139.160156"/>
     <use xlink:href="#DejaVuSans-Bold-68" x="173.974609"/>
     <use xlink:href="#DejaVuSans-Bold-72" x="245.166016"/>
     <use xlink:href="#DejaVuSans-Bold-73" x="294.482422"/>
     <use xlink:href="#DejaVuSans-Bold-20" x="354.003906"/>
     <use xlink:href="#DejaVuSans-Bold-31" x="388.818359"/>
     <use xlink:href="#DejaVuSans-Bold-39" x="458.398438"/>
     <use xlink:href="#DejaVuSans-Bold-20" x="527.978516"/>
     <use xlink:href="#DejaVuSans-Bold-6d" x="562.792969"/>
     <use xlink:href="#DejaVuSans-Bold-69" x="666.992188"/>
     <use xlink:href="#DejaVuSans-Bold-6e" x="701.269531"/>
     <use xlink:href="#DejaVuSans-Bold-73" x="772.460938"/>
    </g>
   </g>
   <g id="text_9">
    <!-- 58 mins -->
    <g style="fill: #586069" transform="translate(319.888374 185.114765) scale(0.15 -0.15)">
     <defs>
      <path id="DejaVuSans-Bold-35" d="M 678 4666 
L 3669 4666 
L 3669 3781 
L 1638 3781 
L 1638 3059 
Q 1775 3097 1914 3117 
Q 2053 3138 2203 3138 
Q 3056 3138 3531 2711 
Q 4006 2284 4006 1522 
Q 4006 766 3489 337 
Q 2972 -91 2053 -91 
Q 1656 -91 1267 -14 
Q 878 63 494 219 
L 494 1166 
Q 875 947 1217 837 
Q 1559 728 1863 728 
Q 2300 728 2551 942 
Q 2803 1156 2803 1522 
Q 2803 1891 2551 2103 
Q 2300 2316 1863 2316 
Q 1603 2316 1309 2248 
Q 1016 2181 678 2041 
L 678 4666 
z
" transform="scale(0.015625)"/>
      <path id="DejaVuSans-Bold-38" d="M 2228 2088 
Q 1891 2088 1709 1903 
Q 1528 1719 1528 1375 
Q 1528 1031 1709 848 
Q 1891 666 2228 666 
Q 2563 666 2741 848 
Q 2919 1031 2919 1375 
Q 2919 1722 2741 1905 
Q 2563 2088 2228 2088 
z
M 1350 2484 
Q 925 2613 709 2878 
Q 494 3144 494 3541 
Q 494 4131 934 4440 
Q 1375 4750 2228 4750 
Q 3075 4750 3515 4442 
Q 3956 4134 3956 3541 
Q 3956 3144 3739 2878 
Q 3522 2613 3097 2484 
Q 3572 2353 3814 2058 
Q 4056 1763 4056 1313 
Q 4056 619 3595 264 
Q 3134 -91 2228 -91 
Q 1319 -91 855 264 
Q 391 619 391 1313 
Q 391 1763 633 2058 
Q 875 2353 1350 2484 
z
M 1631 3419 
Q 1631 3141 1786 2991 
Q 1941 2841 2228 2841 
Q 2509 2841 2662 2991 
Q 2816 3141 2816 3419 
Q 2816 3697 2662 3845 
Q 2509 3994 2228 3994 
Q 1941 3994 1786 3844 
Q 1631 3694 1631 3419 
z
" transform="scale(0.015625)"/>
     </defs>
     <use xlink:href="#DejaVuSans-Bold-35"/>
     <use xlink:href="#DejaVuSans-Bold-38" x="69.580078"/>
     <use xlink:href="#DejaVuSans-Bold-20" x="139.160156"/>
     <use xlink:href="#DejaVuSans-Bold-6d" x="173.974609"/>
     <use xlink:href="#DejaVuSans-Bold-69" x="278.173828"/>
     <use xlink:href="#DejaVuSans-Bold-6e" x="312.451172"/>
     <use xlink:href="#DejaVuSans-Bold-73" x="383.642578"/>
    </g>
   </g>
   <g id="text_10">
    <!-- 51 mins -->
    <g style="fill: #586069" transform="translate(318.892128 234.48336) scale(0.15 -0.15)">
     <use xlink:href="#DejaVuSans-Bold-35"/>
     <use xlink:href="#DejaVuSans-Bold-31" x="69.580078"/>
     <use xlink:href="#DejaVuSans-Bold-20" x="139.160156"/>
     <use xlink:href="#DejaVuSans-Bold-6d" x="173.974609"/>
     <use xlink:href="#DejaVuSans-Bold-69" x="278.173828"/>
     <use xlink:href="#DejaVuSans-Bold-6e" x="312.451172"/>
     <use xlink:href="#DejaVuSans-Bold-73" x="383.642578"/>
    </g>
   </g>
   <g id="text_11">
    <!-- 43 mins -->
    <g style="fill: #586069" transform="translate(317.512711 283.851955) scale(0.15 -0.15)">
     <defs>
      <path id="DejaVuSans-Bold-34" d="M 2356 3675 
L 1038 1722 
L 2356 1722 
L 2356 3675 
z
M 2156 4666 
L 3494 4666 
L 3494 1722 
L 4159 1722 
L 4159 850 
L 3494 850 
L 3494 0 
L 2356 0 
L 2356 850 
L 288 850 
L 288 1881 
L 2156 4666 
z
" transform="scale(0.015625)"/>
     </defs>
     <use xlink:href="#DejaVuSans-Bold-34"/>
     <use xlink:href="#DejaVuSans-Bold-33" x="69.580078"/>
     <use xlink:href="#DejaVuSans-Bold-20" x="139.160156"/>
     <use xlink:href="#DejaVuSans-Bold-6d" x="173.974609"/>
     <use xlink:href="#DejaVuSans-Bold-69" x="278.173828"/>
     <use xlink:href="#DejaVuSans-Bold-6e" x="312.451172"/>
     <use xlink:href="#DejaVuSans-Bold-73" x="383.642578"/>
    </g>
   </g>
   <g id="text_12">
    <!-- 17 mins -->
    <g style="fill: #586069" transform="translate(313.451094 333.22055) scale(0.15 -0.15)">
     <use xlink:href="#DejaVuSans-Bold-31"/>
     <use xlink:href="#DejaVuSans-Bold-37" x="69.580078"/>
     <use xlink:href="#DejaVuSans-Bold-20" x="139.160156"/>
     <use xlink:href="#DejaVuSans-Bold-6d" x="173.974609"/>
     <use xlink:href="#DejaVuSans-Bold-69" x="278.173828"/>
     <use xlink:href="#DejaVuSans-Bold-6e" x="312.451172"/>
     <use xlink:href="#DejaVuSans-Bold-73" x="383.642578"/>
    </g>
   </g>
   <g id="text_13">
    <!-- Projects touched : -->
    <g style="fill: #2a475e" transform="translate(443.131906 50.32) scale(0.12 -0.12)">
     <defs>
      <path id="DejaVuSans-Bold-6a" d="M 538 3500 
L 1656 3500 
L 1656 63 
Q 1656 -641 1318 -1011 
Q 981 -1381 341 -1381 
L -213 -1381 
L -213 -647 
L -19 -647 
Q 300 -647 419 -503 
Q 538 -359 538 63 
L 538 3500 
z
M 538 4863 
L 1656 4863 
L 1656 3950 
L 538 3950 
L 538 4863 
z
" transform="scale(0.015625)"/>
      <path id="DejaVuSans-Bold-3a" d="M 716 3500 
L 1844 3500 
L 1844 2291 
L 716 2291 
L 716 3500 
z
M 716 1209 
L 1844 1209 
L 1844 0 
L 716 0 
L 716 1209 
z
" transform="scale(0.015625)"/>
     </defs>
     <use xlink:href="#DejaVuSans-Bold-50"/>
     <use xlink:href="#DejaVuSans-Bold-72" x="73.291016"/>
     <use xlink:href="#DejaVuSans-Bold-6f" x="122.607422"/>
     <use xlink:href="#DejaVuSans-Bold-6a" x="191.308594"/>
     <use xlink:href="#DejaVuSans-Bold-65" x="225.585938"/>
     <use xlink:href="#DejaVuSans-Bold-63" x="293.408203"/>
     <use xlink:href="#DejaVuSans-Bold-74" x="352.685547"/>
     <use xlink:href="#DejaVuSans-Bold-73" x="400.488281"/>
     <use xlink:href="#DejaVuSans-Bold-20" x="460.009766"/>
     <use xlink:href="#DejaVuSans-Bold-74" x="494.824219"/>
     <use xlink:href="#DejaVuSans-Bold-6f" x="542.626953"/>
     <use xlink:href="#DejaVuSans-Bold-75" x="611.328125"/>
     <use xlink:href="#DejaVuSans-Bold-63" x="682.519531"/>
     <use xlink:href="#DejaVuSans-Bold-68" x="741.796875"/>
     <use xlink:href="#DejaVuSans-Bold-65" x="812.988281"/>
     <use xlink:href="#DejaVuSans-Bold-64" x="880.810547"/>
     <use xlink:href="#DejaVuSans-Bold-20" x="952.392578"/>
     <use xlink:href="#DejaVuSans-Bold-3a" x="987.207031"/>
    </g>
   </g>
  </g>
  <g id="axes_2">
   <g id="patch_11">
    <path d="M 867.80503 174.713438 
L 891.22608 181.880813 
" style="fill: none; stroke: #000000; stroke-linecap: round"/>
   </g>
   <g id="text_14">
    <g id="patch_12">
     <path d="M 810.422245 182.643073 
L 865.53037 182.643073 
L 865.53037 163.735573 
L 810.422245 163.735573 
z
" style="fill: #ffffff; stroke: #000000; stroke-width: 0.72; stroke-linejoin: miter"/>
    </g>
    <!-- Python -->
    <g style="fill: #2a475e" transform="translate(814.022245 176.453698) scale(0.12 -0.12)">
     <use xlink:href="#DejaVuSans-Bold-50"/>
     <use xlink:href="#DejaVuSans-Bold-79" x="75.166016"/>
     <use xlink:href="#DejaVuSans-Bold-74" x="140.351562"/>
     <use xlink:href="#DejaVuSans-Bold-68" x="188.154297"/>
     <use xlink:href="#DejaVuSans-Bold-6f" x="259.345703"/>
     <use xlink:href="#DejaVuSans-Bold-6e" x="328.046875"/>
    </g>
   </g>
   <g id="patch_13">
    <path d="M 1069.975201 271.793602 
L 1058.031395 271.793602 
L 1034.180491 254.090777 
" style="fill: none; stroke: #000000; stroke-linecap: round"/>
   </g>
   <g id="text_15">
    <g id="patch_14">
     <path d="M 1072.329707 281.200477 
L 1117.346582 281.200477 
L 1117.346582 262.386727 
L 1072.329707 262.386727 
z
" style="fill: #ffffff; stroke: #000000; stroke-width: 0.72; stroke-linejoin: miter"/>
    </g>
    <!-- HTML -->
    <g style="fill: #2a475e" transform="translate(1075.929707 275.104852) scale(0.12 -0.12)">
     <defs>
      <path id="DejaVuSans-Bold-48" d="M 588 4666 
L 1791 4666 
L 1791 2888 
L 3566 2888 
L 3566 4666 
L 4769 4666 
L 4769 0 
L 3566 0 
L 3566 1978 
L 1791 1978 
L 1791 0 
L 588 0 
L 588 4666 
z
" transform="scale(0.015625)"/>
      <path id="DejaVuSans-Bold-54" d="M 31 4666 
L 4331 4666 
L 4331 3756 
L 2784 3756 
L 2784 0 
L 1581 0 
L 1581 3756 
L 31 3756 
L 31 4666 
z
" transform="scale(0.015625)"/>
      <path id="DejaVuSans-Bold-4d" d="M 588 4666 
L 2119 4666 
L 3181 2169 
L 4250 4666 
L 5778 4666 
L 5778 0 
L 4641 0 
L 4641 3413 
L 3566 897 
L 2803 897 
L 1728 3413 
L 1728 0 
L 588 0 
L 588 4666 
z
" transform="scale(0.015625)"/>
     </defs>
     <use xlink:href="#DejaVuSans-Bold-48"/>
     <use xlink:href="#DejaVuSans-Bold-54" x="83.691406"/>
     <use xlink:href="#DejaVuSans-Bold-4d" x="151.904297"/>
     <use xlink:href="#DejaVuSans-Bold-4c" x="251.416016"/>
    </g>
   </g>
   <g id="patch_15">
    <path d="M 1070.078027 246.963027 
L 1044.161529 236.380219 
" style="fill: none; stroke: #000000; stroke-linecap: round"/>
   </g>
   <g id="text_16">
    <g id="patch_16">
     <path d="M 1072.329707 257.015101 
L 1118.066582 257.015101 
L 1118.066582 238.201351 
L 1072.329707 238.201351 
z
" style="fill: #ffffff; stroke: #000000; stroke-width: 0.72; stroke-linejoin: miter"/>
    </g>
    <!-- Other -->
    <g style="fill: #2a475e" transform="translate(1075.929707 250.919476) scale(0.12 -0.12)">
     <defs>
      <path id="DejaVuSans-Bold-4f" d="M 2719 3878 
Q 2169 3878 1866 3472 
Q 1563 3066 1563 2328 
Q 1563 1594 1866 1187 
Q 2169 781 2719 781 
Q 3272 781 3575 1187 
Q 3878 1594 3878 2328 
Q 3878 3066 3575 3472 
Q 3272 3878 2719 3878 
z
M 2719 4750 
Q 3844 4750 4481 4106 
Q 5119 3463 5119 2328 
Q 5119 1197 4481 553 
Q 3844 -91 2719 -91 
Q 1597 -91 958 553 
Q 319 1197 319 2328 
Q 319 3463 958 4106 
Q 1597 4750 2719 4750 
z
" transform="scale(0.015625)"/>
     </defs>
     <use xlink:href="#DejaVuSans-Bold-4f"/>
     <use xlink:href="#DejaVuSans-Bold-74" x="85.009766"/>
     <use xlink:href="#DejaVuSans-Bold-68" x="132.8125"/>
     <use xlink:href="#DejaVuSans-Bold-65" x="204.003906"/>
     <use xlink:href="#DejaVuSans-Bold-72" x="271.826172"/>
    </g>
   </g>
   <g id="patch_17">
    <path d="M 1069.995283 220.711381 
L 1049.303167 217.629762 
" style="fill: none; stroke: #000000; stroke-linecap: round"/>
   </g>
   <g id="text_17">
    <g id="patch_18">
     <path d="M 1072.329707 231.411983 
L 1149.930332 231.411983 
L 1149.930332 212.598233 
L 1072.329707 212.598233 
z
" style="fill: #ffffff; stroke: #000000; stroke-width: 0.72; stroke-linejoin: miter"/>
    </g>
    <!-- Markdown -->
    <g style="fill: #2a475e" transform="translate(1075.929707 225.316358) scale(0.12 -0.12)">
     <defs>
      <path id="DejaVuSans-Bold-6b" d="M 538 4863 
L 1656 4863 
L 1656 2216 
L 2944 3500 
L 4244 3500 
L 2534 1894 
L 4378 0 
L 3022 0 
L 1656 1459 
L 1656 0 
L 538 0 
L 538 4863 
z
" transform="scale(0.015625)"/>
      <path id="DejaVuSans-Bold-77" d="M 225 3500 
L 1313 3500 
L 1900 1088 
L 2491 3500 
L 3425 3500 
L 4013 1113 
L 4603 3500 
L 5691 3500 
L 4769 0 
L 3547 0 
L 2956 2406 
L 2369 0 
L 1147 0 
L 225 3500 
z
" transform="scale(0.015625)"/>
     </defs>
     <use xlink:href="#DejaVuSans-Bold-4d"/>
     <use xlink:href="#DejaVuSans-Bold-61" x="99.511719"/>
     <use xlink:href="#DejaVuSans-Bold-72" x="166.992188"/>
     <use xlink:href="#DejaVuSans-Bold-6b" x="216.308594"/>
     <use xlink:href="#DejaVuSans-Bold-64" x="282.8125"/>
     <use xlink:href="#DejaVuSans-Bold-6f" x="354.394531"/>
     <use xlink:href="#DejaVuSans-Bold-77" x="423.095703"/>
     <use xlink:href="#DejaVuSans-Bold-6e" x="515.478516"/>
    </g>
   </g>
   <g id="patch_19">
    <path d="M 1069.973426 198.287545 
L 1049.973782 199.746785 
" style="fill: none; stroke: #000000; stroke-linecap: round"/>
   </g>
   <g id="text_18">
    <g id="patch_20">
     <path d="M 1072.329707 206.992147 
L 1107.740957 206.992147 
L 1107.740957 188.178397 
L 1072.329707 188.178397 
z
" style="fill: #ffffff; stroke: #000000; stroke-width: 0.72; stroke-linejoin: miter"/>
    </g>
    <!-- Text -->
    <g style="fill: #2a475e" transform="translate(1075.929707 200.896522) scale(0.12 -0.12)">
     <defs>
      <path id="DejaVuSans-Bold-78" d="M 1422 1791 
L 159 3500 
L 1344 3500 
L 2059 2463 
L 2784 3500 
L 3969 3500 
L 2706 1797 
L 4031 0 
L 2847 0 
L 2059 1106 
L 1281 0 
L 97 0 
L 1422 1791 
z
" transform="scale(0.015625)"/>
     </defs>
     <use xlink:href="#DejaVuSans-Bold-54"/>
     <use xlink:href="#DejaVuSans-Bold-65" x="54.962891"/>
     <use xlink:href="#DejaVuSans-Bold-78" x="122.785156"/>
     <use xlink:href="#DejaVuSans-Bold-74" x="187.287109"/>
    </g>
   </g>
   <g id="patch_21">
    <path d="M 1045.399748 193.481997 
C 1043.865 184.778006 1040.885117 176.391714 1036.583644 168.670816 
C 1032.282172 160.949918 1026.71939 154.002613 1020.12593 148.116934 
C 1013.532471 142.231255 1006.000732 137.489683 997.842979 134.088802 
C 989.685226 130.687921 981.015779 128.67539 972.194071 128.134649 
C 963.372364 127.593908 954.522021 128.532533 946.009975 130.911611 
C 937.49793 133.290689 929.443468 137.076879 922.180526 142.113206 
C 914.917583 147.149533 908.547941 153.365421 903.335684 160.503159 
C 898.123427 167.640896 894.141597 175.600458 891.555281 184.051842 
C 888.968965 192.503226 887.814406 201.327998 888.139472 210.160283 
C 888.464539 218.992568 890.264675 227.708593 893.465248 235.946995 
C 896.665821 244.185396 901.221978 251.830723 906.944823 258.566002 
C 912.667667 265.30128 919.477001 271.032124 927.09051 275.520933 
C 934.704019 280.009742 943.015009 283.193613 951.678909 284.940541 
C 960.34281 286.687469 969.238206 286.972975 977.996298 285.78522 
C 986.754389 284.597466 995.252442 281.953096 1003.138129 277.961747 
C 1011.023816 273.970398 1018.186629 268.688002 1024.329599 262.333567 
L 995.837229 234.789374 
C 992.765744 237.966591 989.184337 240.607789 985.241494 242.603464 
C 981.29865 244.599138 977.049624 245.921323 972.670578 246.5152 
C 968.291532 247.109077 963.843834 246.966325 959.511884 246.092861 
C 955.179934 245.219396 951.024439 243.627461 947.217684 241.383057 
C 943.41093 239.138652 940.006263 236.27323 937.144841 232.905591 
C 934.283418 229.537952 932.00534 225.715288 930.405053 221.596088 
C 928.804767 217.476887 927.904699 213.118874 927.742166 208.702731 
C 927.579632 204.286589 928.156912 199.874203 929.45007 195.648511 
C 930.743228 191.422819 932.734143 187.443038 935.340271 183.874169 
C 937.9464 180.305301 941.131221 177.197357 944.762692 174.679193 
C 948.394163 172.16103 952.421394 170.267934 956.677417 169.078396 
C 960.93344 167.888857 965.358611 167.419544 969.769465 167.689915 
C 974.180319 167.960285 978.515042 168.966551 982.593919 170.666991 
C 986.672795 172.367432 990.438665 174.738218 993.735395 177.681057 
C 997.032124 180.623897 999.813515 184.097549 1001.964251 187.957998 
C 1004.114988 191.818447 1005.604929 196.011593 1006.372304 200.363589 
z
" style="fill: #092436; opacity: 0.5; stroke: #092436; stroke-width: 4; stroke-linejoin: miter"/>
   </g>
   <g id="patch_22">
    <path d="M 1030.693976 267.057397 
C 1033.081439 264.587748 1035.305831 261.965507 1037.353079 259.20726 
C 1039.400328 256.449014 1041.266105 253.560597 1042.938602 250.560285 
L 1008.323922 231.264646 
C 1007.487674 232.764802 1006.554785 234.20901 1005.531161 235.588133 
C 1004.507537 236.967256 1003.395341 238.278377 1002.201609 239.513201 
z
" style="fill: #4d2604; opacity: 0.5; stroke: #4d2604; stroke-width: 4; stroke-linejoin: miter"/>
   </g>
   <g id="patch_23">
    <path d="M 1043.911934 248.832762 
C 1045.467129 246.04288 1046.852256 243.161537 1048.059739 240.204501 
C 1049.267223 237.247466 1050.294855 234.220145 1051.137011 231.139099 
L 1012.909793 220.690291 
C 1012.488715 222.230814 1011.974899 223.744474 1011.371157 225.222992 
C 1010.767416 226.70151 1010.074852 228.142181 1009.297255 229.537122 
z
" style="fill: #0d300d; opacity: 0.5; stroke: #0d300d; stroke-width: 4; stroke-linejoin: miter"/>
   </g>
   <g id="patch_24">
    <path d="M 1051.638736 229.310304 
C 1052.467749 226.277333 1053.115555 223.197697 1053.578712 220.087765 
C 1054.041868 216.977834 1054.319547 213.843115 1054.410295 210.700195 
L 1014.797297 209.556441 
C 1014.751923 211.127901 1014.613084 212.695261 1014.381506 214.250227 
C 1014.149927 215.805192 1013.826024 217.34501 1013.411518 218.861496 
z
" style="fill: #400c0c; opacity: 0.5; stroke: #400c0c; stroke-width: 4; stroke-linejoin: miter"/>
   </g>
   <g id="patch_25">
    <path d="M 1054.475741 208.95592 
C 1054.553308 206.269604 1054.494189 203.5811 1054.298626 200.900789 
C 1054.103063 198.220478 1053.771301 195.551827 1053.304634 192.90522 
L 1014.27719 199.786817 
C 1014.510524 201.110121 1014.676405 202.444446 1014.774186 203.784601 
C 1014.871968 205.124757 1014.901527 206.469009 1014.862744 207.812167 
z
" style="fill: #2c1f39; opacity: 0.5; stroke: #2c1f39; stroke-width: 4; stroke-linejoin: miter"/>
   </g>
   <g id="patch_26">
    <path d="M 1046.984929 191.896817 
C 1045.45018 183.192825 1042.470297 174.806533 1038.168825 167.085636 
C 1033.867352 159.364738 1028.30457 152.417433 1021.711111 146.531754 
C 1015.117651 140.646075 1007.585912 135.904503 999.428159 132.503622 
C 991.270406 129.102741 982.600959 127.09021 973.779252 126.549469 
C 964.957544 126.008727 956.107201 126.947353 947.595156 129.326431 
C 939.08311 131.705508 931.028648 135.491699 923.765706 140.528026 
C 916.502764 145.564353 910.133121 151.780241 904.920864 158.917978 
C 899.708607 166.055716 895.726777 174.015278 893.140461 182.466662 
C 890.554145 190.918046 889.399586 199.742818 889.724653 208.575102 
C 890.049719 217.407387 891.849855 226.123413 895.050428 234.361815 
C 898.251001 242.600216 902.807159 250.245543 908.530003 256.980821 
C 914.252848 263.7161 921.062181 269.446944 928.67569 273.935753 
C 936.289199 278.424562 944.60019 281.608432 953.26409 283.355361 
C 961.92799 285.102289 970.823387 285.387794 979.581478 284.20004 
C 988.339569 283.012286 996.837622 280.367916 1004.723309 276.376567 
C 1012.608996 272.385218 1019.771809 267.102822 1025.914779 260.748387 
L 997.422409 233.204194 
C 994.350924 236.381411 990.769517 239.022609 986.826674 241.018283 
C 982.883831 243.013958 978.634804 244.336143 974.255758 244.93002 
C 969.876713 245.523897 965.429014 245.381144 961.097064 244.50768 
C 956.765114 243.634216 952.609619 242.042281 948.802864 239.797876 
C 944.99611 237.553472 941.591443 234.68805 938.730021 231.320411 
C 935.868599 227.952772 933.59052 224.130108 931.990234 220.010907 
C 930.389947 215.891707 929.489879 211.533694 929.327346 207.117551 
C 929.164813 202.701409 929.742092 198.289023 931.03525 194.063331 
C 932.328408 189.837639 934.319323 185.857858 936.925452 182.288989 
C 939.53158 178.72012 942.716401 175.612177 946.347872 173.094013 
C 949.979343 170.575849 954.006575 168.682754 958.262597 167.493215 
C 962.51862 166.303677 966.943792 165.834364 971.354645 166.104734 
C 975.765499 166.375105 980.100223 167.38137 984.179099 169.081811 
C 988.257976 170.782251 992.023845 173.153038 995.320575 176.095877 
C 998.617305 179.038716 1001.398696 182.512369 1003.549432 186.372818 
C 1005.700168 190.233267 1007.190109 194.426413 1007.957484 198.778408 
z
" style="fill: #1f77b4; stroke: #ffffff; stroke-width: 4; stroke-linejoin: miter"/>
   </g>
   <g id="patch_27">
    <path d="M 1032.279157 265.472216 
C 1034.666619 263.002567 1036.891011 260.380326 1038.938259 257.62208 
C 1040.985508 254.863834 1042.851286 251.975417 1044.523782 248.975105 
L 1009.909102 229.679465 
C 1009.072854 231.179621 1008.139965 232.62383 1007.116341 234.002953 
C 1006.092717 235.382076 1004.980521 236.693196 1003.78679 237.928021 
z
" style="fill: #ff7f0e; stroke: #ffffff; stroke-width: 4; stroke-linejoin: miter"/>
   </g>
   <g id="patch_28">
    <path d="M 1045.497115 247.247581 
C 1047.052309 244.4577 1048.437436 241.576357 1049.64492 238.619321 
C 1050.852403 235.662285 1051.880036 232.634965 1052.722191 229.553919 
L 1014.494973 219.10511 
C 1014.073896 220.645633 1013.560079 222.159294 1012.956338 223.637812 
C 1012.352596 225.11633 1011.660032 226.557001 1010.882435 227.951942 
z
" style="fill: #2ca02c; stroke: #ffffff; stroke-width: 4; stroke-linejoin: miter"/>
   </g>
   <g id="patch_29">
    <path d="M 1053.223916 227.725124 
C 1054.052929 224.692153 1054.700735 221.612516 1055.163892 218.502585 
C 1055.627048 215.392654 1055.904727 212.257934 1055.995475 209.115014 
L 1016.382477 207.971261 
C 1016.337104 209.542721 1016.198264 211.110081 1015.966686 212.665046 
C 1015.735108 214.220012 1015.411204 215.75983 1014.996698 217.276316 
z
" style="fill: #d62728; stroke: #ffffff; stroke-width: 4; stroke-linejoin: miter"/>
   </g>
   <g id="patch_30">
    <path d="M 1056.060921 207.37074 
C 1056.138488 204.684424 1056.079369 201.995919 1055.883806 199.315609 
C 1055.688243 196.635298 1055.356481 193.966647 1054.889815 191.32004 
L 1015.862371 198.201637 
C 1016.095704 199.52494 1016.261585 200.859266 1016.359366 202.199421 
C 1016.457148 203.539577 1016.486707 204.883829 1016.447924 206.226987 
z
" style="fill: #9467bd; stroke: #ffffff; stroke-width: 4; stroke-linejoin: miter"/>
   </g>
   <g id="matplotlib.axis_3"/>
   <g id="matplotlib.axis_4"/>
   <g id="text_19">
    <!-- Languages -->
    <g style="fill: #2a475e" transform="translate(938.351914 208.34125) scale(0.1 -0.1)">
     <use xlink:href="#DejaVuSans-Bold-4c"/>
     <use xlink:href="#DejaVuSans-Bold-61" x="63.720703"/>
     <use xlink:href="#DejaVuSans-Bold-6e" x="131.201172"/>
     <use xlink:href="#DejaVuSans-Bold-67" x="202.392578"/>
     <use xlink:href="#DejaVuSans-Bold-75" x="273.974609"/>
     <use xlink:href="#DejaVuSans-Bold-61" x="345.166016"/>
     <use xlink:href="#DejaVuSans-Bold-67" x="412.646484"/>
     <use xlink:href="#DejaVuSans-Bold-65" x="484.228516"/>
     <use xlink:href="#DejaVuSans-Bold-73" x="552.050781"/>
    </g>
   </g>
   <g id="text_20">
    <!-- Languages exploited : -->
    <g style="fill: #2a475e" transform="translate(893.957226 100.586235) scale(0.12 -0.12)">
     <use xlink:href="#DejaVuSans-Bold-4c"/>
     <use xlink:href="#DejaVuSans-Bold-61" x="63.720703"/>
     <use xlink:href="#DejaVuSans-Bold-6e" x="131.201172"/>
     <use xlink:href="#DejaVuSans-Bold-67" x="202.392578"/>
     <use xlink:href="#DejaVuSans-Bold-75" x="273.974609"/>
     <use xlink:href="#DejaVuSans-Bold-61" x="345.166016"/>
     <use xlink:href="#DejaVuSans-Bold-67" x="412.646484"/>
     <use xlink:href="#DejaVuSans-Bold-65" x="484.228516"/>
     <use xlink:href="#DejaVuSans-Bold-73" x="552.050781"/>
     <use xlink:href="#DejaVuSans-Bold-20" x="611.572266"/>
     <use xlink:href="#DejaVuSans-Bold-65" x="646.386719"/>
     <use xlink:href="#DejaVuSans-Bold-78" x="714.208984"/>
     <use xlink:href="#DejaVuSans-Bold-70" x="778.710938"/>
     <use xlink:href="#DejaVuSans-Bold-6c" x="850.292969"/>
     <use xlink:href="#DejaVuSans-Bold-6f" x="884.570312"/>
     <use xlink:href="#DejaVuSans-Bold-69" x="953.271484"/>
     <use xlink:href="#DejaVuSans-Bold-74" x="987.548828"/>
     <use xlink:href="#DejaVuSans-Bold-65" x="1035.351562"/>
     <use xlink:href="#DejaVuSans-Bold-64" x="1103.173828"/>
     <use xlink:href="#DejaVuSans-Bold-20" x="1174.755859"/>
     <use xlink:href="#DejaVuSans-Bold-3a" x="1209.570312"/>
    </g>
   </g>
  </g>
  <g id="text_21">
   <!-- From 30 August, 2025 to 29 September, 2025: 79 hrs 36 mins -->
   <g transform="translate(58.054375 29.995312) scale(0.3 -0.3)">
    <defs>
     <path id="DejaVuSans-Bold-46" d="M 588 4666 
L 3834 4666 
L 3834 3756 
L 1791 3756 
L 1791 2888 
L 3713 2888 
L 3713 1978 
L 1791 1978 
L 1791 0 
L 588 0 
L 588 4666 
z
" transform="scale(0.015625)"/>
     <path id="DejaVuSans-Bold-30" d="M 2944 2338 
Q 2944 3213 2780 3570 
Q 2616 3928 2228 3928 
Q 1841 3928 1675 3570 
Q 1509 3213 1509 2338 
Q 1509 1453 1675 1090 
Q 1841 728 2228 728 
Q 2613 728 2778 1090 
Q 2944 1453 2944 2338 
z
M 4147 2328 
Q 4147 1169 3647 539 
Q 3147 -91 2228 -91 
Q 1306 -91 806 539 
Q 306 1169 306 2328 
Q 306 3491 806 4120 
Q 1306 4750 2228 4750 
Q 3147 4750 3647 4120 
Q 4147 3491 4147 2328 
z
" transform="scale(0.015625)"/>
     <path id="DejaVuSans-Bold-41" d="M 3419 850 
L 1538 850 
L 1241 0 
L 31 0 
L 1759 4666 
L 3194 4666 
L 4922 0 
L 3713 0 
L 3419 850 
z
M 1838 1716 
L 3116 1716 
L 2478 3572 
L 1838 1716 
z
" transform="scale(0.015625)"/>
     <path id="DejaVuSans-Bold-2c" d="M 653 1209 
L 1778 1209 
L 1778 256 
L 1006 -909 
L 341 -909 
L 653 256 
L 653 1209 
z
" transform="scale(0.015625)"/>
     <path id="DejaVuSans-Bold-53" d="M 3834 4519 
L 3834 3531 
Q 3450 3703 3084 3790 
Q 2719 3878 2394 3878 
Q 1963 3878 1756 3759 
Q 1550 3641 1550 3391 
Q 1550 3203 1689 3098 
Q 1828 2994 2194 2919 
L 2706 2816 
Q 3484 2659 3812 2340 
Q 4141 2022 4141 1434 
Q 4141 663 3683 286 
Q 3225 -91 2284 -91 
Q 1841 -91 1394 -6 
Q 947 78 500 244 
L 500 1259 
Q 947 1022 1364 901 
Q 1781 781 2169 781 
Q 2563 781 2772 912 
Q 2981 1044 2981 1288 
Q 2981 1506 2839 1625 
Q 2697 1744 2272 1838 
L 1806 1941 
Q 1106 2091 782 2419 
Q 459 2747 459 3303 
Q 459 4000 909 4375 
Q 1359 4750 2203 4750 
Q 2588 4750 2994 4692 
Q 3400 4634 3834 4519 
z
" transform="scale(0.015625)"/>
     <path id="DejaVuSans-Bold-62" d="M 2400 722 
Q 2759 722 2948 984 
Q 3138 1247 3138 1747 
Q 3138 2247 2948 2509 
Q 2759 2772 2400 2772 
Q 2041 2772 1848 2508 
Q 1656 2244 1656 1747 
Q 1656 1250 1848 986 
Q 2041 722 2400 722 
z
M 1656 2988 
Q 1888 3294 2169 3439 
Q 2450 3584 2816 3584 
Q 3463 3584 3878 3070 
Q 4294 2556 4294 1747 
Q 4294 938 3878 423 
Q 3463 -91 2816 -91 
Q 2450 -91 2169 54 
Q 1888 200 1656 506 
L 1656 0 
L 538 0 
L 538 4863 
L 1656 4863 
L 1656 2988 
z
" transform="scale(0.015625)"/>
     <path id="DejaVuSans-Bold-36" d="M 2316 2303 
Q 2000 2303 1842 2098 
Q 1684 1894 1684 1484 
Q 1684 1075 1842 870 
Q 2000 666 2316 666 
Q 2634 666 2792 870 
Q 2950 1075 2950 1484 
Q 2950 1894 2792 2098 
Q 2634 2303 2316 2303 
z
M 3803 4544 
L 3803 3681 
Q 3506 3822 3243 3889 
Q 2981 3956 2731 3956 
Q 2194 3956 1894 3657 
Q 1594 3359 1544 2772 
Q 1750 2925 1990 3001 
Q 2231 3078 2516 3078 
Q 3231 3078 3670 2659 
Q 4109 2241 4109 1563 
Q 4109 813 3618 361 
Q 3128 -91 2303 -91 
Q 1394 -91 895 523 
Q 397 1138 397 2266 
Q 397 3422 980 4083 
Q 1563 4744 2578 4744 
Q 2900 4744 3203 4694 
Q 3506 4644 3803 4544 
z
" transform="scale(0.015625)"/>
    </defs>
    <use xlink:href="#DejaVuSans-Bold-46"/>
    <use xlink:href="#DejaVuSans-Bold-72" x="61.935547"/>
    <use xlink:href="#DejaVuSans-Bold-6f" x="111.251953"/>
    <use xlink:href="#DejaVuSans-Bold-6d" x="179.953125"/>
    <use xlink:href="#DejaVuSans-Bold-20" x="284.152344"/>
    <use xlink:href="#DejaVuSans-Bold-33" x="318.966797"/>
    <use xlink:href="#DejaVuSans-Bold-30" x="388.546875"/>
    <use xlink:href="#DejaVuSans-Bold-20" x="458.126953"/>
    <use xlink:href="#DejaVuSans-Bold-41" x="492.941406"/>
    <use xlink:href="#DejaVuSans-Bold-75" x="570.333984"/>
    <use xlink:href="#DejaVuSans-Bold-67" x="641.525391"/>
    <use xlink:href="#DejaVuSans-Bold-75" x="713.107422"/>
    <use xlink:href="#DejaVuSans-Bold-73" x="784.298828"/>
    <use xlink:href="#DejaVuSans-Bold-74" x="843.820312"/>
    <use xlink:href="#DejaVuSans-Bold-2c" x="891.623047"/>
    <use xlink:href="#DejaVuSans-Bold-20" x="929.611328"/>
    <use xlink:href="#DejaVuSans-Bold-32" x="964.425781"/>
    <use xlink:href="#DejaVuSans-Bold-30" x="1034.005859"/>
    <use xlink:href="#DejaVuSans-Bold-32" x="1103.585938"/>
    <use xlink:href="#DejaVuSans-Bold-35" x="1173.166016"/>
    <use xlink:href="#DejaVuSans-Bold-20" x="1242.746094"/>
    <use xlink:href="#DejaVuSans-Bold-74" x="1277.560547"/>
    <use xlink:href="#DejaVuSans-Bold-6f" x="1325.363281"/>
    <use xlink:href="#DejaVuSans-Bold-20" x="1394.064453"/>
    <use xlink:href="#DejaVuSans-Bold-32" x="1428.878906"/>
    <use xlink:href="#DejaVuSans-Bold-39" x="1498.458984"/>
    <use xlink:href="#DejaVuSans-Bold-20" x="1568.039062"/>
    <use xlink:href="#DejaVuSans-Bold-53" x="1602.853516"/>
    <use xlink:href="#DejaVuSans-Bold-65" x="1674.875"/>
    <use xlink:href="#DejaVuSans-Bold-70" x="1742.697266"/>
    <use xlink:href="#DejaVuSans-Bold-74" x="1814.279297"/>
    <use xlink:href="#DejaVuSans-Bold-65" x="1862.082031"/>
    <use xlink:href="#DejaVuSans-Bold-6d" x="1929.904297"/>
    <use xlink:href="#DejaVuSans-Bold-62" x="2034.103516"/>
    <use xlink:href="#DejaVuSans-Bold-65" x="2105.685547"/>
    <use xlink:href="#DejaVuSans-Bold-72" x="2173.507812"/>
    <use xlink:href="#DejaVuSans-Bold-2c" x="2208.074219"/>
    <use xlink:href="#DejaVuSans-Bold-20" x="2246.0625"/>
    <use xlink:href="#DejaVuSans-Bold-32" x="2280.876953"/>
    <use xlink:href="#DejaVuSans-Bold-30" x="2350.457031"/>
    <use xlink:href="#DejaVuSans-Bold-32" x="2420.037109"/>
    <use xlink:href="#DejaVuSans-Bold-35" x="2489.617188"/>
    <use xlink:href="#DejaVuSans-Bold-3a" x="2559.197266"/>
    <use xlink:href="#DejaVuSans-Bold-20" x="2599.1875"/>
    <use xlink:href="#DejaVuSans-Bold-37" x="2634.001953"/>
    <use xlink:href="#DejaVuSans-Bold-39" x="2703.582031"/>
    <use xlink:href="#DejaVuSans-Bold-20" x="2773.162109"/>
    <use xlink:href="#DejaVuSans-Bold-68" x="2807.976562"/>
    <use xlink:href="#DejaVuSans-Bold-72" x="2879.167969"/>
    <use xlink:href="#DejaVuSans-Bold-73" x="2928.484375"/>
    <use xlink:href="#DejaVuSans-Bold-20" x="2988.005859"/>
    <use xlink:href="#DejaVuSans-Bold-33" x="3022.820312"/>
    <use xlink:href="#DejaVuSans-Bold-36" x="3092.400391"/>
    <use xlink:href="#DejaVuSans-Bold-20" x="3161.980469"/>
    <use xlink:href="#DejaVuSans-Bold-6d" x="3196.794922"/>
    <use xlink:href="#DejaVuSans-Bold-69" x="3300.994141"/>
    <use xlink:href="#DejaVuSans-Bold-6e" x="3335.271484"/>
    <use xlink:href="#DejaVuSans-Bold-73" x="3406.462891"/>
   </g>
  </g>
 </g>
 <defs>
  <clipPath id="p0de4db234c">
   <rect x="306.615625" y="56.32" width="396.295061" height="298.68"/>
  </clipPath>
 </defs>
</svg>
