<?xml version="1.0" encoding="utf-8" standalone="no"?>
<!DOCTYPE svg PUBLIC "-//W3C//DTD SVG 1.1//EN"
  "http://www.w3.org/Graphics/SVG/1.1/DTD/svg11.dtd">
<svg xmlns:xlink="http://www.w3.org/1999/xlink" width="1155.211733pt" height="362.2pt" viewBox="0 0 1155.211733 362.2" xmlns="http://www.w3.org/2000/svg" version="1.1">
 <metadata>
  <rdf:RDF xmlns:dc="http://purl.org/dc/elements/1.1/" xmlns:cc="http://creativecommons.org/ns#" xmlns:rdf="http://www.w3.org/1999/02/22-rdf-syntax-ns#">
   <cc:Work>
    <dc:type rdf:resource="http://purl.org/dc/dcmitype/StillImage"/>
    <dc:date>2024-04-04T00:28:39.477638</dc:date>
    <dc:format>image/svg+xml</dc:format>
    <dc:creator>
     <cc:Agent>
      <dc:title>Matplotlib v3.5.1, https://matplotlib.org/</dc:title>
     </cc:Agent>
    </dc:creator>
   </cc:Work>
  </rdf:RDF>
 </metadata>
 <defs>
  <style type="text/css">*{stroke-linejoin: round; stroke-linecap: butt}</style>
 </defs>
 <g id="figure_1">
  <g id="patch_1">
   <path d="M 0 362.2 
L 1155.211733 362.2 
L 1155.211733 0 
L 0 0 
L 0 362.2 
z
" style="fill: none"/>
  </g>
  <g id="axes_1">
   <g id="patch_2">
    <path d="M 205.734375 351.5 
L 690.34944 351.5 
L 690.34944 56.32 
L 205.734375 56.32 
L 205.734375 351.5 
z
" style="fill: none"/>
   </g>
   <g id="patch_3">
    <path d="M 205.734375 69.737273 
L 667.272532 69.737273 
L 667.272532 94.132314 
L 205.734375 94.132314 
z
" clip-path="url(#p78fa446eb0)" style="fill: #9a84e4; stroke: #9a84e4; stroke-linejoin: miter"/>
   </g>
   <g id="patch_4">
    <path d="M 205.734375 118.527355 
L 401.867649 118.527355 
L 401.867649 142.922397 
L 205.734375 142.922397 
z
" clip-path="url(#p78fa446eb0)" style="fill: #c5d104; stroke: #c5d104; stroke-linejoin: miter"/>
   </g>
   <g id="patch_5">
    <path d="M 205.734375 167.317438 
L 398.363183 167.317438 
L 398.363183 191.712479 
L 205.734375 191.712479 
z
" clip-path="url(#p78fa446eb0)" style="fill: #9c750a; stroke: #9c750a; stroke-linejoin: miter"/>
   </g>
   <g id="patch_6">
    <path d="M 205.734375 216.107521 
L 285.636197 216.107521 
L 285.636197 240.502562 
L 205.734375 240.502562 
z
" clip-path="url(#p78fa446eb0)" style="fill: #60318a; stroke: #60318a; stroke-linejoin: miter"/>
   </g>
   <g id="patch_7">
    <path d="M 205.734375 264.897603 
L 276.40777 264.897603 
L 276.40777 289.292645 
L 205.734375 289.292645 
z
" clip-path="url(#p78fa446eb0)" style="fill: #3dd3ab; stroke: #3dd3ab; stroke-linejoin: miter"/>
   </g>
   <g id="patch_8">
    <path d="M 205.734375 313.687686 
L 250.007461 313.687686 
L 250.007461 338.082727 
L 205.734375 338.082727 
z
" clip-path="url(#p78fa446eb0)" style="fill: #14389e; stroke: #14389e; stroke-linejoin: miter"/>
   </g>
   <g id="matplotlib.axis_1"/>
   <g id="matplotlib.axis_2">
    <g id="ytick_1">
     <g id="line2d_1">
      <defs>
       <path id="m9ad6428cb4" d="M 0 0 
L -3.5 0 
" style="stroke: #000000; stroke-width: 0.8"/>
      </defs>
      <g>
       <use xlink:href="#m9ad6428cb4" x="205.734375" y="81.934793" style="stroke: #000000; stroke-width: 0.8"/>
      </g>
     </g>
     <g id="text_1">
      <!-- CVSampler -->
      <g style="fill: #586069" transform="translate(75.2375 89.533231)scale(0.2 -0.2)">
       <defs>
        <path id="DejaVuSans-Bold-43" d="M 4288 256 
Q 3956 84 3597 -3 
Q 3238 -91 2847 -91 
Q 1681 -91 1000 561 
Q 319 1213 319 2328 
Q 319 3447 1000 4098 
Q 1681 4750 2847 4750 
Q 3238 4750 3597 4662 
Q 3956 4575 4288 4403 
L 4288 3438 
Q 3953 3666 3628 3772 
Q 3303 3878 2944 3878 
Q 2300 3878 1931 3465 
Q 1563 3053 1563 2328 
Q 1563 1606 1931 1193 
Q 2300 781 2944 781 
Q 3303 781 3628 887 
Q 3953 994 4288 1222 
L 4288 256 
z
" transform="scale(0.015625)"/>
        <path id="DejaVuSans-Bold-56" d="M 31 4666 
L 1241 4666 
L 2478 1222 
L 3713 4666 
L 4922 4666 
L 3194 0 
L 1759 0 
L 31 4666 
z
" transform="scale(0.015625)"/>
        <path id="DejaVuSans-Bold-53" d="M 3834 4519 
L 3834 3531 
Q 3450 3703 3084 3790 
Q 2719 3878 2394 3878 
Q 1963 3878 1756 3759 
Q 1550 3641 1550 3391 
Q 1550 3203 1689 3098 
Q 1828 2994 2194 2919 
L 2706 2816 
Q 3484 2659 3812 2340 
Q 4141 2022 4141 1434 
Q 4141 663 3683 286 
Q 3225 -91 2284 -91 
Q 1841 -91 1394 -6 
Q 947 78 500 244 
L 500 1259 
Q 947 1022 1364 901 
Q 1781 781 2169 781 
Q 2563 781 2772 912 
Q 2981 1044 2981 1288 
Q 2981 1506 2839 1625 
Q 2697 1744 2272 1838 
L 1806 1941 
Q 1106 2091 782 2419 
Q 459 2747 459 3303 
Q 459 4000 909 4375 
Q 1359 4750 2203 4750 
Q 2588 4750 2994 4692 
Q 3400 4634 3834 4519 
z
" transform="scale(0.015625)"/>
        <path id="DejaVuSans-Bold-61" d="M 2106 1575 
Q 1756 1575 1579 1456 
Q 1403 1338 1403 1106 
Q 1403 894 1545 773 
Q 1688 653 1941 653 
Q 2256 653 2472 879 
Q 2688 1106 2688 1447 
L 2688 1575 
L 2106 1575 
z
M 3816 1997 
L 3816 0 
L 2688 0 
L 2688 519 
Q 2463 200 2181 54 
Q 1900 -91 1497 -91 
Q 953 -91 614 226 
Q 275 544 275 1050 
Q 275 1666 698 1953 
Q 1122 2241 2028 2241 
L 2688 2241 
L 2688 2328 
Q 2688 2594 2478 2717 
Q 2269 2841 1825 2841 
Q 1466 2841 1156 2769 
Q 847 2697 581 2553 
L 581 3406 
Q 941 3494 1303 3539 
Q 1666 3584 2028 3584 
Q 2975 3584 3395 3211 
Q 3816 2838 3816 1997 
z
" transform="scale(0.015625)"/>
        <path id="DejaVuSans-Bold-6d" d="M 3781 2919 
Q 3994 3244 4286 3414 
Q 4578 3584 4928 3584 
Q 5531 3584 5847 3212 
Q 6163 2841 6163 2131 
L 6163 0 
L 5038 0 
L 5038 1825 
Q 5041 1866 5042 1909 
Q 5044 1953 5044 2034 
Q 5044 2406 4934 2573 
Q 4825 2741 4581 2741 
Q 4263 2741 4089 2478 
Q 3916 2216 3909 1719 
L 3909 0 
L 2784 0 
L 2784 1825 
Q 2784 2406 2684 2573 
Q 2584 2741 2328 2741 
Q 2006 2741 1831 2477 
Q 1656 2213 1656 1722 
L 1656 0 
L 531 0 
L 531 3500 
L 1656 3500 
L 1656 2988 
Q 1863 3284 2130 3434 
Q 2397 3584 2719 3584 
Q 3081 3584 3359 3409 
Q 3638 3234 3781 2919 
z
" transform="scale(0.015625)"/>
        <path id="DejaVuSans-Bold-70" d="M 1656 506 
L 1656 -1331 
L 538 -1331 
L 538 3500 
L 1656 3500 
L 1656 2988 
Q 1888 3294 2169 3439 
Q 2450 3584 2816 3584 
Q 3463 3584 3878 3070 
Q 4294 2556 4294 1747 
Q 4294 938 3878 423 
Q 3463 -91 2816 -91 
Q 2450 -91 2169 54 
Q 1888 200 1656 506 
z
M 2400 2772 
Q 2041 2772 1848 2508 
Q 1656 2244 1656 1747 
Q 1656 1250 1848 986 
Q 2041 722 2400 722 
Q 2759 722 2948 984 
Q 3138 1247 3138 1747 
Q 3138 2247 2948 2509 
Q 2759 2772 2400 2772 
z
" transform="scale(0.015625)"/>
        <path id="DejaVuSans-Bold-6c" d="M 538 4863 
L 1656 4863 
L 1656 0 
L 538 0 
L 538 4863 
z
" transform="scale(0.015625)"/>
        <path id="DejaVuSans-Bold-65" d="M 4031 1759 
L 4031 1441 
L 1416 1441 
Q 1456 1047 1700 850 
Q 1944 653 2381 653 
Q 2734 653 3104 758 
Q 3475 863 3866 1075 
L 3866 213 
Q 3469 63 3072 -14 
Q 2675 -91 2278 -91 
Q 1328 -91 801 392 
Q 275 875 275 1747 
Q 275 2603 792 3093 
Q 1309 3584 2216 3584 
Q 3041 3584 3536 3087 
Q 4031 2591 4031 1759 
z
M 2881 2131 
Q 2881 2450 2695 2645 
Q 2509 2841 2209 2841 
Q 1884 2841 1681 2658 
Q 1478 2475 1428 2131 
L 2881 2131 
z
" transform="scale(0.015625)"/>
        <path id="DejaVuSans-Bold-72" d="M 3138 2547 
Q 2991 2616 2845 2648 
Q 2700 2681 2553 2681 
Q 2122 2681 1889 2404 
Q 1656 2128 1656 1613 
L 1656 0 
L 538 0 
L 538 3500 
L 1656 3500 
L 1656 2925 
Q 1872 3269 2151 3426 
Q 2431 3584 2822 3584 
Q 2878 3584 2943 3579 
Q 3009 3575 3134 3559 
L 3138 2547 
z
" transform="scale(0.015625)"/>
       </defs>
       <use xlink:href="#DejaVuSans-Bold-43"/>
       <use xlink:href="#DejaVuSans-Bold-56" x="73.388672"/>
       <use xlink:href="#DejaVuSans-Bold-53" x="150.78125"/>
       <use xlink:href="#DejaVuSans-Bold-61" x="222.802734"/>
       <use xlink:href="#DejaVuSans-Bold-6d" x="290.283203"/>
       <use xlink:href="#DejaVuSans-Bold-70" x="394.482422"/>
       <use xlink:href="#DejaVuSans-Bold-6c" x="466.064453"/>
       <use xlink:href="#DejaVuSans-Bold-65" x="500.341797"/>
       <use xlink:href="#DejaVuSans-Bold-72" x="568.164062"/>
      </g>
     </g>
    </g>
    <g id="ytick_2">
     <g id="line2d_2">
      <g>
       <use xlink:href="#m9ad6428cb4" x="205.734375" y="130.724876" style="stroke: #000000; stroke-width: 0.8"/>
      </g>
     </g>
     <g id="text_2">
      <!-- Project_SERB -->
      <g style="fill: #586069" transform="translate(49.925 138.323314)scale(0.2 -0.2)">
       <defs>
        <path id="DejaVuSans-Bold-50" d="M 588 4666 
L 2584 4666 
Q 3475 4666 3951 4270 
Q 4428 3875 4428 3144 
Q 4428 2409 3951 2014 
Q 3475 1619 2584 1619 
L 1791 1619 
L 1791 0 
L 588 0 
L 588 4666 
z
M 1791 3794 
L 1791 2491 
L 2456 2491 
Q 2806 2491 2997 2661 
Q 3188 2831 3188 3144 
Q 3188 3456 2997 3625 
Q 2806 3794 2456 3794 
L 1791 3794 
z
" transform="scale(0.015625)"/>
        <path id="DejaVuSans-Bold-6f" d="M 2203 2784 
Q 1831 2784 1636 2517 
Q 1441 2250 1441 1747 
Q 1441 1244 1636 976 
Q 1831 709 2203 709 
Q 2569 709 2762 976 
Q 2956 1244 2956 1747 
Q 2956 2250 2762 2517 
Q 2569 2784 2203 2784 
z
M 2203 3584 
Q 3106 3584 3614 3096 
Q 4122 2609 4122 1747 
Q 4122 884 3614 396 
Q 3106 -91 2203 -91 
Q 1297 -91 786 396 
Q 275 884 275 1747 
Q 275 2609 786 3096 
Q 1297 3584 2203 3584 
z
" transform="scale(0.015625)"/>
        <path id="DejaVuSans-Bold-6a" d="M 538 3500 
L 1656 3500 
L 1656 63 
Q 1656 -641 1318 -1011 
Q 981 -1381 341 -1381 
L -213 -1381 
L -213 -647 
L -19 -647 
Q 300 -647 419 -503 
Q 538 -359 538 63 
L 538 3500 
z
M 538 4863 
L 1656 4863 
L 1656 3950 
L 538 3950 
L 538 4863 
z
" transform="scale(0.015625)"/>
        <path id="DejaVuSans-Bold-63" d="M 3366 3391 
L 3366 2478 
Q 3138 2634 2908 2709 
Q 2678 2784 2431 2784 
Q 1963 2784 1702 2511 
Q 1441 2238 1441 1747 
Q 1441 1256 1702 982 
Q 1963 709 2431 709 
Q 2694 709 2930 787 
Q 3166 866 3366 1019 
L 3366 103 
Q 3103 6 2833 -42 
Q 2563 -91 2291 -91 
Q 1344 -91 809 395 
Q 275 881 275 1747 
Q 275 2613 809 3098 
Q 1344 3584 2291 3584 
Q 2566 3584 2833 3536 
Q 3100 3488 3366 3391 
z
" transform="scale(0.015625)"/>
        <path id="DejaVuSans-Bold-74" d="M 1759 4494 
L 1759 3500 
L 2913 3500 
L 2913 2700 
L 1759 2700 
L 1759 1216 
Q 1759 972 1856 886 
Q 1953 800 2241 800 
L 2816 800 
L 2816 0 
L 1856 0 
Q 1194 0 917 276 
Q 641 553 641 1216 
L 641 2700 
L 84 2700 
L 84 3500 
L 641 3500 
L 641 4494 
L 1759 4494 
z
" transform="scale(0.015625)"/>
        <path id="DejaVuSans-Bold-5f" d="M 3200 -916 
L 3200 -1509 
L 0 -1509 
L 0 -916 
L 3200 -916 
z
" transform="scale(0.015625)"/>
        <path id="DejaVuSans-Bold-45" d="M 588 4666 
L 3834 4666 
L 3834 3756 
L 1791 3756 
L 1791 2888 
L 3713 2888 
L 3713 1978 
L 1791 1978 
L 1791 909 
L 3903 909 
L 3903 0 
L 588 0 
L 588 4666 
z
" transform="scale(0.015625)"/>
        <path id="DejaVuSans-Bold-52" d="M 2297 2597 
Q 2675 2597 2839 2737 
Q 3003 2878 3003 3200 
Q 3003 3519 2839 3656 
Q 2675 3794 2297 3794 
L 1791 3794 
L 1791 2597 
L 2297 2597 
z
M 1791 1766 
L 1791 0 
L 588 0 
L 588 4666 
L 2425 4666 
Q 3347 4666 3776 4356 
Q 4206 4047 4206 3378 
Q 4206 2916 3982 2619 
Q 3759 2322 3309 2181 
Q 3556 2125 3751 1926 
Q 3947 1728 4147 1325 
L 4800 0 
L 3519 0 
L 2950 1159 
Q 2778 1509 2601 1637 
Q 2425 1766 2131 1766 
L 1791 1766 
z
" transform="scale(0.015625)"/>
        <path id="DejaVuSans-Bold-42" d="M 2456 2859 
Q 2741 2859 2887 2984 
Q 3034 3109 3034 3353 
Q 3034 3594 2887 3720 
Q 2741 3847 2456 3847 
L 1791 3847 
L 1791 2859 
L 2456 2859 
z
M 2497 819 
Q 2859 819 3042 972 
Q 3225 1125 3225 1434 
Q 3225 1738 3044 1889 
Q 2863 2041 2497 2041 
L 1791 2041 
L 1791 819 
L 2497 819 
z
M 3616 2497 
Q 4003 2384 4215 2081 
Q 4428 1778 4428 1338 
Q 4428 663 3972 331 
Q 3516 0 2584 0 
L 588 0 
L 588 4666 
L 2394 4666 
Q 3366 4666 3802 4372 
Q 4238 4078 4238 3431 
Q 4238 3091 4078 2852 
Q 3919 2613 3616 2497 
z
" transform="scale(0.015625)"/>
       </defs>
       <use xlink:href="#DejaVuSans-Bold-50"/>
       <use xlink:href="#DejaVuSans-Bold-72" x="73.291016"/>
       <use xlink:href="#DejaVuSans-Bold-6f" x="122.607422"/>
       <use xlink:href="#DejaVuSans-Bold-6a" x="191.308594"/>
       <use xlink:href="#DejaVuSans-Bold-65" x="225.585938"/>
       <use xlink:href="#DejaVuSans-Bold-63" x="293.408203"/>
       <use xlink:href="#DejaVuSans-Bold-74" x="352.685547"/>
       <use xlink:href="#DejaVuSans-Bold-5f" x="400.488281"/>
       <use xlink:href="#DejaVuSans-Bold-53" x="450.488281"/>
       <use xlink:href="#DejaVuSans-Bold-45" x="522.509766"/>
       <use xlink:href="#DejaVuSans-Bold-52" x="590.820312"/>
       <use xlink:href="#DejaVuSans-Bold-42" x="667.822266"/>
      </g>
     </g>
    </g>
    <g id="ytick_3">
     <g id="line2d_3">
      <g>
       <use xlink:href="#m9ad6428cb4" x="205.734375" y="179.514959" style="stroke: #000000; stroke-width: 0.8"/>
      </g>
     </g>
     <g id="text_3">
      <!-- Learnings -->
      <g style="fill: #586069" transform="translate(87.515625 187.113396)scale(0.2 -0.2)">
       <defs>
        <path id="DejaVuSans-Bold-4c" d="M 588 4666 
L 1791 4666 
L 1791 909 
L 3903 909 
L 3903 0 
L 588 0 
L 588 4666 
z
" transform="scale(0.015625)"/>
        <path id="DejaVuSans-Bold-6e" d="M 4056 2131 
L 4056 0 
L 2931 0 
L 2931 347 
L 2931 1631 
Q 2931 2084 2911 2256 
Q 2891 2428 2841 2509 
Q 2775 2619 2662 2680 
Q 2550 2741 2406 2741 
Q 2056 2741 1856 2470 
Q 1656 2200 1656 1722 
L 1656 0 
L 538 0 
L 538 3500 
L 1656 3500 
L 1656 2988 
Q 1909 3294 2193 3439 
Q 2478 3584 2822 3584 
Q 3428 3584 3742 3212 
Q 4056 2841 4056 2131 
z
" transform="scale(0.015625)"/>
        <path id="DejaVuSans-Bold-69" d="M 538 3500 
L 1656 3500 
L 1656 0 
L 538 0 
L 538 3500 
z
M 538 4863 
L 1656 4863 
L 1656 3950 
L 538 3950 
L 538 4863 
z
" transform="scale(0.015625)"/>
        <path id="DejaVuSans-Bold-67" d="M 2919 594 
Q 2688 288 2409 144 
Q 2131 0 1766 0 
Q 1125 0 706 504 
Q 288 1009 288 1791 
Q 288 2575 706 3076 
Q 1125 3578 1766 3578 
Q 2131 3578 2409 3434 
Q 2688 3291 2919 2981 
L 2919 3500 
L 4044 3500 
L 4044 353 
Q 4044 -491 3511 -936 
Q 2978 -1381 1966 -1381 
Q 1638 -1381 1331 -1331 
Q 1025 -1281 716 -1178 
L 716 -306 
Q 1009 -475 1290 -558 
Q 1572 -641 1856 -641 
Q 2406 -641 2662 -400 
Q 2919 -159 2919 353 
L 2919 594 
z
M 2181 2772 
Q 1834 2772 1640 2515 
Q 1447 2259 1447 1791 
Q 1447 1309 1634 1061 
Q 1822 813 2181 813 
Q 2531 813 2725 1069 
Q 2919 1325 2919 1791 
Q 2919 2259 2725 2515 
Q 2531 2772 2181 2772 
z
" transform="scale(0.015625)"/>
        <path id="DejaVuSans-Bold-73" d="M 3272 3391 
L 3272 2541 
Q 2913 2691 2578 2766 
Q 2244 2841 1947 2841 
Q 1628 2841 1473 2761 
Q 1319 2681 1319 2516 
Q 1319 2381 1436 2309 
Q 1553 2238 1856 2203 
L 2053 2175 
Q 2913 2066 3209 1816 
Q 3506 1566 3506 1031 
Q 3506 472 3093 190 
Q 2681 -91 1863 -91 
Q 1516 -91 1145 -36 
Q 775 19 384 128 
L 384 978 
Q 719 816 1070 734 
Q 1422 653 1784 653 
Q 2113 653 2278 743 
Q 2444 834 2444 1013 
Q 2444 1163 2330 1236 
Q 2216 1309 1875 1350 
L 1678 1375 
Q 931 1469 631 1722 
Q 331 1975 331 2491 
Q 331 3047 712 3315 
Q 1094 3584 1881 3584 
Q 2191 3584 2531 3537 
Q 2872 3491 3272 3391 
z
" transform="scale(0.015625)"/>
       </defs>
       <use xlink:href="#DejaVuSans-Bold-4c"/>
       <use xlink:href="#DejaVuSans-Bold-65" x="63.720703"/>
       <use xlink:href="#DejaVuSans-Bold-61" x="131.542969"/>
       <use xlink:href="#DejaVuSans-Bold-72" x="199.023438"/>
       <use xlink:href="#DejaVuSans-Bold-6e" x="248.339844"/>
       <use xlink:href="#DejaVuSans-Bold-69" x="319.53125"/>
       <use xlink:href="#DejaVuSans-Bold-6e" x="353.808594"/>
       <use xlink:href="#DejaVuSans-Bold-67" x="425"/>
       <use xlink:href="#DejaVuSans-Bold-73" x="496.582031"/>
      </g>
     </g>
    </g>
    <g id="ytick_4">
     <g id="line2d_4">
      <g>
       <use xlink:href="#m9ad6428cb4" x="205.734375" y="228.305041" style="stroke: #000000; stroke-width: 0.8"/>
      </g>
     </g>
     <g id="text_4">
      <!-- Unknown Project -->
      <g style="fill: #586069" transform="translate(7.2 235.903479)scale(0.2 -0.2)">
       <defs>
        <path id="DejaVuSans-Bold-55" d="M 588 4666 
L 1791 4666 
L 1791 1869 
Q 1791 1291 1980 1042 
Q 2169 794 2597 794 
Q 3028 794 3217 1042 
Q 3406 1291 3406 1869 
L 3406 4666 
L 4609 4666 
L 4609 1869 
Q 4609 878 4112 393 
Q 3616 -91 2597 -91 
Q 1581 -91 1084 393 
Q 588 878 588 1869 
L 588 4666 
z
" transform="scale(0.015625)"/>
        <path id="DejaVuSans-Bold-6b" d="M 538 4863 
L 1656 4863 
L 1656 2216 
L 2944 3500 
L 4244 3500 
L 2534 1894 
L 4378 0 
L 3022 0 
L 1656 1459 
L 1656 0 
L 538 0 
L 538 4863 
z
" transform="scale(0.015625)"/>
        <path id="DejaVuSans-Bold-77" d="M 225 3500 
L 1313 3500 
L 1900 1088 
L 2491 3500 
L 3425 3500 
L 4013 1113 
L 4603 3500 
L 5691 3500 
L 4769 0 
L 3547 0 
L 2956 2406 
L 2369 0 
L 1147 0 
L 225 3500 
z
" transform="scale(0.015625)"/>
        <path id="DejaVuSans-Bold-20" transform="scale(0.015625)"/>
       </defs>
       <use xlink:href="#DejaVuSans-Bold-55"/>
       <use xlink:href="#DejaVuSans-Bold-6e" x="81.201172"/>
       <use xlink:href="#DejaVuSans-Bold-6b" x="152.392578"/>
       <use xlink:href="#DejaVuSans-Bold-6e" x="218.896484"/>
       <use xlink:href="#DejaVuSans-Bold-6f" x="290.087891"/>
       <use xlink:href="#DejaVuSans-Bold-77" x="358.789062"/>
       <use xlink:href="#DejaVuSans-Bold-6e" x="451.171875"/>
       <use xlink:href="#DejaVuSans-Bold-20" x="522.363281"/>
       <use xlink:href="#DejaVuSans-Bold-50" x="557.177734"/>
       <use xlink:href="#DejaVuSans-Bold-72" x="630.46875"/>
       <use xlink:href="#DejaVuSans-Bold-6f" x="679.785156"/>
       <use xlink:href="#DejaVuSans-Bold-6a" x="748.486328"/>
       <use xlink:href="#DejaVuSans-Bold-65" x="782.763672"/>
       <use xlink:href="#DejaVuSans-Bold-63" x="850.585938"/>
       <use xlink:href="#DejaVuSans-Bold-74" x="909.863281"/>
      </g>
     </g>
    </g>
    <g id="ytick_5">
     <g id="line2d_5">
      <g>
       <use xlink:href="#m9ad6428cb4" x="205.734375" y="277.095124" style="stroke: #000000; stroke-width: 0.8"/>
      </g>
     </g>
     <g id="text_5">
      <!-- Paper -->
      <g style="fill: #586069" transform="translate(133.359375 284.693561)scale(0.2 -0.2)">
       <use xlink:href="#DejaVuSans-Bold-50"/>
       <use xlink:href="#DejaVuSans-Bold-61" x="70.666016"/>
       <use xlink:href="#DejaVuSans-Bold-70" x="138.146484"/>
       <use xlink:href="#DejaVuSans-Bold-65" x="209.728516"/>
       <use xlink:href="#DejaVuSans-Bold-72" x="277.550781"/>
      </g>
     </g>
    </g>
    <g id="ytick_6">
     <g id="line2d_6">
      <g>
       <use xlink:href="#m9ad6428cb4" x="205.734375" y="325.885207" style="stroke: #000000; stroke-width: 0.8"/>
      </g>
     </g>
     <g id="text_6">
      <!-- CIGIN -->
      <g style="fill: #586069" transform="translate(136.021875 333.483644)scale(0.2 -0.2)">
       <defs>
        <path id="DejaVuSans-Bold-49" d="M 588 4666 
L 1791 4666 
L 1791 0 
L 588 0 
L 588 4666 
z
" transform="scale(0.015625)"/>
        <path id="DejaVuSans-Bold-47" d="M 4781 347 
Q 4331 128 3847 18 
Q 3363 -91 2847 -91 
Q 1681 -91 1000 561 
Q 319 1213 319 2328 
Q 319 3456 1012 4103 
Q 1706 4750 2913 4750 
Q 3378 4750 3804 4662 
Q 4231 4575 4609 4403 
L 4609 3438 
Q 4219 3659 3833 3768 
Q 3447 3878 3059 3878 
Q 2341 3878 1952 3476 
Q 1563 3075 1563 2328 
Q 1563 1588 1938 1184 
Q 2313 781 3003 781 
Q 3191 781 3352 804 
Q 3513 828 3641 878 
L 3641 1784 
L 2906 1784 
L 2906 2591 
L 4781 2591 
L 4781 347 
z
" transform="scale(0.015625)"/>
        <path id="DejaVuSans-Bold-4e" d="M 588 4666 
L 1931 4666 
L 3628 1466 
L 3628 4666 
L 4769 4666 
L 4769 0 
L 3425 0 
L 1728 3200 
L 1728 0 
L 588 0 
L 588 4666 
z
" transform="scale(0.015625)"/>
       </defs>
       <use xlink:href="#DejaVuSans-Bold-43"/>
       <use xlink:href="#DejaVuSans-Bold-49" x="73.388672"/>
       <use xlink:href="#DejaVuSans-Bold-47" x="110.595703"/>
       <use xlink:href="#DejaVuSans-Bold-49" x="192.675781"/>
       <use xlink:href="#DejaVuSans-Bold-4e" x="229.882812"/>
      </g>
     </g>
    </g>
   </g>
   <g id="patch_9">
    <path d="M 205.734375 351.5 
L 205.734375 56.32 
" style="fill: none; stroke: #000000; stroke-width: 0.8; stroke-linejoin: miter; stroke-linecap: square"/>
   </g>
   <g id="patch_10">
    <path d="M 205.734375 351.5 
L 690.34944 351.5 
" style="fill: none; stroke: #000000; stroke-width: 0.8; stroke-linejoin: miter; stroke-linecap: square"/>
   </g>
   <g id="text_7">
    <!-- 59 hrs 53 mins -->
    <g style="fill: #586069" transform="translate(671.272532 86.073856)scale(0.15 -0.15)">
     <defs>
      <path id="DejaVuSans-Bold-35" d="M 678 4666 
L 3669 4666 
L 3669 3781 
L 1638 3781 
L 1638 3059 
Q 1775 3097 1914 3117 
Q 2053 3138 2203 3138 
Q 3056 3138 3531 2711 
Q 4006 2284 4006 1522 
Q 4006 766 3489 337 
Q 2972 -91 2053 -91 
Q 1656 -91 1267 -14 
Q 878 63 494 219 
L 494 1166 
Q 875 947 1217 837 
Q 1559 728 1863 728 
Q 2300 728 2551 942 
Q 2803 1156 2803 1522 
Q 2803 1891 2551 2103 
Q 2300 2316 1863 2316 
Q 1603 2316 1309 2248 
Q 1016 2181 678 2041 
L 678 4666 
z
" transform="scale(0.015625)"/>
      <path id="DejaVuSans-Bold-39" d="M 641 103 
L 641 966 
Q 928 831 1190 764 
Q 1453 697 1709 697 
Q 2247 697 2547 995 
Q 2847 1294 2900 1881 
Q 2688 1725 2447 1647 
Q 2206 1569 1925 1569 
Q 1209 1569 770 1986 
Q 331 2403 331 3084 
Q 331 3838 820 4291 
Q 1309 4744 2131 4744 
Q 3044 4744 3544 4128 
Q 4044 3513 4044 2388 
Q 4044 1231 3459 570 
Q 2875 -91 1856 -91 
Q 1528 -91 1228 -42 
Q 928 6 641 103 
z
M 2125 2350 
Q 2441 2350 2600 2554 
Q 2759 2759 2759 3169 
Q 2759 3575 2600 3781 
Q 2441 3988 2125 3988 
Q 1809 3988 1650 3781 
Q 1491 3575 1491 3169 
Q 1491 2759 1650 2554 
Q 1809 2350 2125 2350 
z
" transform="scale(0.015625)"/>
      <path id="DejaVuSans-Bold-68" d="M 4056 2131 
L 4056 0 
L 2931 0 
L 2931 347 
L 2931 1625 
Q 2931 2084 2911 2256 
Q 2891 2428 2841 2509 
Q 2775 2619 2662 2680 
Q 2550 2741 2406 2741 
Q 2056 2741 1856 2470 
Q 1656 2200 1656 1722 
L 1656 0 
L 538 0 
L 538 4863 
L 1656 4863 
L 1656 2988 
Q 1909 3294 2193 3439 
Q 2478 3584 2822 3584 
Q 3428 3584 3742 3212 
Q 4056 2841 4056 2131 
z
" transform="scale(0.015625)"/>
      <path id="DejaVuSans-Bold-33" d="M 2981 2516 
Q 3453 2394 3698 2092 
Q 3944 1791 3944 1325 
Q 3944 631 3412 270 
Q 2881 -91 1863 -91 
Q 1503 -91 1142 -33 
Q 781 25 428 141 
L 428 1069 
Q 766 900 1098 814 
Q 1431 728 1753 728 
Q 2231 728 2486 893 
Q 2741 1059 2741 1369 
Q 2741 1688 2480 1852 
Q 2219 2016 1709 2016 
L 1228 2016 
L 1228 2791 
L 1734 2791 
Q 2188 2791 2409 2933 
Q 2631 3075 2631 3366 
Q 2631 3634 2415 3781 
Q 2200 3928 1806 3928 
Q 1516 3928 1219 3862 
Q 922 3797 628 3669 
L 628 4550 
Q 984 4650 1334 4700 
Q 1684 4750 2022 4750 
Q 2931 4750 3382 4451 
Q 3834 4153 3834 3553 
Q 3834 3144 3618 2883 
Q 3403 2622 2981 2516 
z
" transform="scale(0.015625)"/>
     </defs>
     <use xlink:href="#DejaVuSans-Bold-35"/>
     <use xlink:href="#DejaVuSans-Bold-39" x="69.580078"/>
     <use xlink:href="#DejaVuSans-Bold-20" x="139.160156"/>
     <use xlink:href="#DejaVuSans-Bold-68" x="173.974609"/>
     <use xlink:href="#DejaVuSans-Bold-72" x="245.166016"/>
     <use xlink:href="#DejaVuSans-Bold-73" x="294.482422"/>
     <use xlink:href="#DejaVuSans-Bold-20" x="354.003906"/>
     <use xlink:href="#DejaVuSans-Bold-35" x="388.818359"/>
     <use xlink:href="#DejaVuSans-Bold-33" x="458.398438"/>
     <use xlink:href="#DejaVuSans-Bold-20" x="527.978516"/>
     <use xlink:href="#DejaVuSans-Bold-6d" x="562.792969"/>
     <use xlink:href="#DejaVuSans-Bold-69" x="666.992188"/>
     <use xlink:href="#DejaVuSans-Bold-6e" x="701.269531"/>
     <use xlink:href="#DejaVuSans-Bold-73" x="772.460938"/>
    </g>
   </g>
   <g id="text_8">
    <!-- 25 hrs 27 mins -->
    <g style="fill: #586069" transform="translate(405.867649 134.863939)scale(0.15 -0.15)">
     <defs>
      <path id="DejaVuSans-Bold-32" d="M 1844 884 
L 3897 884 
L 3897 0 
L 506 0 
L 506 884 
L 2209 2388 
Q 2438 2594 2547 2791 
Q 2656 2988 2656 3200 
Q 2656 3528 2436 3728 
Q 2216 3928 1850 3928 
Q 1569 3928 1234 3808 
Q 900 3688 519 3450 
L 519 4475 
Q 925 4609 1322 4679 
Q 1719 4750 2100 4750 
Q 2938 4750 3402 4381 
Q 3866 4013 3866 3353 
Q 3866 2972 3669 2642 
Q 3472 2313 2841 1759 
L 1844 884 
z
" transform="scale(0.015625)"/>
      <path id="DejaVuSans-Bold-37" d="M 428 4666 
L 3944 4666 
L 3944 3988 
L 2125 0 
L 953 0 
L 2675 3781 
L 428 3781 
L 428 4666 
z
" transform="scale(0.015625)"/>
     </defs>
     <use xlink:href="#DejaVuSans-Bold-32"/>
     <use xlink:href="#DejaVuSans-Bold-35" x="69.580078"/>
     <use xlink:href="#DejaVuSans-Bold-20" x="139.160156"/>
     <use xlink:href="#DejaVuSans-Bold-68" x="173.974609"/>
     <use xlink:href="#DejaVuSans-Bold-72" x="245.166016"/>
     <use xlink:href="#DejaVuSans-Bold-73" x="294.482422"/>
     <use xlink:href="#DejaVuSans-Bold-20" x="354.003906"/>
     <use xlink:href="#DejaVuSans-Bold-32" x="388.818359"/>
     <use xlink:href="#DejaVuSans-Bold-37" x="458.398438"/>
     <use xlink:href="#DejaVuSans-Bold-20" x="527.978516"/>
     <use xlink:href="#DejaVuSans-Bold-6d" x="562.792969"/>
     <use xlink:href="#DejaVuSans-Bold-69" x="666.992188"/>
     <use xlink:href="#DejaVuSans-Bold-6e" x="701.269531"/>
     <use xlink:href="#DejaVuSans-Bold-73" x="772.460938"/>
    </g>
   </g>
   <g id="text_9">
    <!-- 24 hrs 59 mins -->
    <g style="fill: #586069" transform="translate(402.363183 183.654021)scale(0.15 -0.15)">
     <defs>
      <path id="DejaVuSans-Bold-34" d="M 2356 3675 
L 1038 1722 
L 2356 1722 
L 2356 3675 
z
M 2156 4666 
L 3494 4666 
L 3494 1722 
L 4159 1722 
L 4159 850 
L 3494 850 
L 3494 0 
L 2356 0 
L 2356 850 
L 288 850 
L 288 1881 
L 2156 4666 
z
" transform="scale(0.015625)"/>
     </defs>
     <use xlink:href="#DejaVuSans-Bold-32"/>
     <use xlink:href="#DejaVuSans-Bold-34" x="69.580078"/>
     <use xlink:href="#DejaVuSans-Bold-20" x="139.160156"/>
     <use xlink:href="#DejaVuSans-Bold-68" x="173.974609"/>
     <use xlink:href="#DejaVuSans-Bold-72" x="245.166016"/>
     <use xlink:href="#DejaVuSans-Bold-73" x="294.482422"/>
     <use xlink:href="#DejaVuSans-Bold-20" x="354.003906"/>
     <use xlink:href="#DejaVuSans-Bold-35" x="388.818359"/>
     <use xlink:href="#DejaVuSans-Bold-39" x="458.398438"/>
     <use xlink:href="#DejaVuSans-Bold-20" x="527.978516"/>
     <use xlink:href="#DejaVuSans-Bold-6d" x="562.792969"/>
     <use xlink:href="#DejaVuSans-Bold-69" x="666.992188"/>
     <use xlink:href="#DejaVuSans-Bold-6e" x="701.269531"/>
     <use xlink:href="#DejaVuSans-Bold-73" x="772.460938"/>
    </g>
   </g>
   <g id="text_10">
    <!-- 10 hrs 22 mins -->
    <g style="fill: #586069" transform="translate(289.636197 232.444104)scale(0.15 -0.15)">
     <defs>
      <path id="DejaVuSans-Bold-31" d="M 750 831 
L 1813 831 
L 1813 3847 
L 722 3622 
L 722 4441 
L 1806 4666 
L 2950 4666 
L 2950 831 
L 4013 831 
L 4013 0 
L 750 0 
L 750 831 
z
" transform="scale(0.015625)"/>
      <path id="DejaVuSans-Bold-30" d="M 2944 2338 
Q 2944 3213 2780 3570 
Q 2616 3928 2228 3928 
Q 1841 3928 1675 3570 
Q 1509 3213 1509 2338 
Q 1509 1453 1675 1090 
Q 1841 728 2228 728 
Q 2613 728 2778 1090 
Q 2944 1453 2944 2338 
z
M 4147 2328 
Q 4147 1169 3647 539 
Q 3147 -91 2228 -91 
Q 1306 -91 806 539 
Q 306 1169 306 2328 
Q 306 3491 806 4120 
Q 1306 4750 2228 4750 
Q 3147 4750 3647 4120 
Q 4147 3491 4147 2328 
z
" transform="scale(0.015625)"/>
     </defs>
     <use xlink:href="#DejaVuSans-Bold-31"/>
     <use xlink:href="#DejaVuSans-Bold-30" x="69.580078"/>
     <use xlink:href="#DejaVuSans-Bold-20" x="139.160156"/>
     <use xlink:href="#DejaVuSans-Bold-68" x="173.974609"/>
     <use xlink:href="#DejaVuSans-Bold-72" x="245.166016"/>
     <use xlink:href="#DejaVuSans-Bold-73" x="294.482422"/>
     <use xlink:href="#DejaVuSans-Bold-20" x="354.003906"/>
     <use xlink:href="#DejaVuSans-Bold-32" x="388.818359"/>
     <use xlink:href="#DejaVuSans-Bold-32" x="458.398438"/>
     <use xlink:href="#DejaVuSans-Bold-20" x="527.978516"/>
     <use xlink:href="#DejaVuSans-Bold-6d" x="562.792969"/>
     <use xlink:href="#DejaVuSans-Bold-69" x="666.992188"/>
     <use xlink:href="#DejaVuSans-Bold-6e" x="701.269531"/>
     <use xlink:href="#DejaVuSans-Bold-73" x="772.460938"/>
    </g>
   </g>
   <g id="text_11">
    <!-- 9 hrs 9 mins -->
    <g style="fill: #586069" transform="translate(280.40777 281.234186)scale(0.15 -0.15)">
     <use xlink:href="#DejaVuSans-Bold-39"/>
     <use xlink:href="#DejaVuSans-Bold-20" x="69.580078"/>
     <use xlink:href="#DejaVuSans-Bold-68" x="104.394531"/>
     <use xlink:href="#DejaVuSans-Bold-72" x="175.585938"/>
     <use xlink:href="#DejaVuSans-Bold-73" x="224.902344"/>
     <use xlink:href="#DejaVuSans-Bold-20" x="284.423828"/>
     <use xlink:href="#DejaVuSans-Bold-39" x="319.238281"/>
     <use xlink:href="#DejaVuSans-Bold-20" x="388.818359"/>
     <use xlink:href="#DejaVuSans-Bold-6d" x="423.632812"/>
     <use xlink:href="#DejaVuSans-Bold-69" x="527.832031"/>
     <use xlink:href="#DejaVuSans-Bold-6e" x="562.109375"/>
     <use xlink:href="#DejaVuSans-Bold-73" x="633.300781"/>
    </g>
   </g>
   <g id="text_12">
    <!-- 5 hrs 44 mins -->
    <g style="fill: #586069" transform="translate(254.007461 330.024269)scale(0.15 -0.15)">
     <use xlink:href="#DejaVuSans-Bold-35"/>
     <use xlink:href="#DejaVuSans-Bold-20" x="69.580078"/>
     <use xlink:href="#DejaVuSans-Bold-68" x="104.394531"/>
     <use xlink:href="#DejaVuSans-Bold-72" x="175.585938"/>
     <use xlink:href="#DejaVuSans-Bold-73" x="224.902344"/>
     <use xlink:href="#DejaVuSans-Bold-20" x="284.423828"/>
     <use xlink:href="#DejaVuSans-Bold-34" x="319.238281"/>
     <use xlink:href="#DejaVuSans-Bold-34" x="388.818359"/>
     <use xlink:href="#DejaVuSans-Bold-20" x="458.398438"/>
     <use xlink:href="#DejaVuSans-Bold-6d" x="493.212891"/>
     <use xlink:href="#DejaVuSans-Bold-69" x="597.412109"/>
     <use xlink:href="#DejaVuSans-Bold-6e" x="631.689453"/>
     <use xlink:href="#DejaVuSans-Bold-73" x="702.880859"/>
    </g>
   </g>
   <g id="text_13">
    <!-- Projects touched : -->
    <g style="fill: #2a475e" transform="translate(386.410657 50.32)scale(0.12 -0.12)">
     <defs>
      <path id="DejaVuSans-Bold-75" d="M 500 1363 
L 500 3500 
L 1625 3500 
L 1625 3150 
Q 1625 2866 1622 2436 
Q 1619 2006 1619 1863 
Q 1619 1441 1641 1255 
Q 1663 1069 1716 984 
Q 1784 875 1895 815 
Q 2006 756 2150 756 
Q 2500 756 2700 1025 
Q 2900 1294 2900 1772 
L 2900 3500 
L 4019 3500 
L 4019 0 
L 2900 0 
L 2900 506 
Q 2647 200 2364 54 
Q 2081 -91 1741 -91 
Q 1134 -91 817 281 
Q 500 653 500 1363 
z
" transform="scale(0.015625)"/>
      <path id="DejaVuSans-Bold-64" d="M 2919 2988 
L 2919 4863 
L 4044 4863 
L 4044 0 
L 2919 0 
L 2919 506 
Q 2688 197 2409 53 
Q 2131 -91 1766 -91 
Q 1119 -91 703 423 
Q 288 938 288 1747 
Q 288 2556 703 3070 
Q 1119 3584 1766 3584 
Q 2128 3584 2408 3439 
Q 2688 3294 2919 2988 
z
M 2181 722 
Q 2541 722 2730 984 
Q 2919 1247 2919 1747 
Q 2919 2247 2730 2509 
Q 2541 2772 2181 2772 
Q 1825 2772 1636 2509 
Q 1447 2247 1447 1747 
Q 1447 1247 1636 984 
Q 1825 722 2181 722 
z
" transform="scale(0.015625)"/>
      <path id="DejaVuSans-Bold-3a" d="M 716 3500 
L 1844 3500 
L 1844 2291 
L 716 2291 
L 716 3500 
z
M 716 1209 
L 1844 1209 
L 1844 0 
L 716 0 
L 716 1209 
z
" transform="scale(0.015625)"/>
     </defs>
     <use xlink:href="#DejaVuSans-Bold-50"/>
     <use xlink:href="#DejaVuSans-Bold-72" x="73.291016"/>
     <use xlink:href="#DejaVuSans-Bold-6f" x="122.607422"/>
     <use xlink:href="#DejaVuSans-Bold-6a" x="191.308594"/>
     <use xlink:href="#DejaVuSans-Bold-65" x="225.585938"/>
     <use xlink:href="#DejaVuSans-Bold-63" x="293.408203"/>
     <use xlink:href="#DejaVuSans-Bold-74" x="352.685547"/>
     <use xlink:href="#DejaVuSans-Bold-73" x="400.488281"/>
     <use xlink:href="#DejaVuSans-Bold-20" x="460.009766"/>
     <use xlink:href="#DejaVuSans-Bold-74" x="494.824219"/>
     <use xlink:href="#DejaVuSans-Bold-6f" x="542.626953"/>
     <use xlink:href="#DejaVuSans-Bold-75" x="611.328125"/>
     <use xlink:href="#DejaVuSans-Bold-63" x="682.519531"/>
     <use xlink:href="#DejaVuSans-Bold-68" x="741.796875"/>
     <use xlink:href="#DejaVuSans-Bold-65" x="812.988281"/>
     <use xlink:href="#DejaVuSans-Bold-64" x="880.810547"/>
     <use xlink:href="#DejaVuSans-Bold-20" x="952.392578"/>
     <use xlink:href="#DejaVuSans-Bold-3a" x="987.207031"/>
    </g>
   </g>
  </g>
  <g id="axes_2">
   <g id="patch_11">
    <path d="M 853.695826 177.300579 
L 881.878719 183.303242 
" style="fill: none; stroke: #000000; stroke-linecap: round"/>
   </g>
   <g id="text_14">
    <g id="patch_12">
     <path d="M 796.274598 185.096768 
L 851.382723 185.096768 
L 851.382723 166.189268 
L 796.274598 166.189268 
z
" style="fill: #ffffff; stroke: #000000; stroke-width: 0.72; stroke-linejoin: miter"/>
    </g>
    <!-- Python -->
    <g style="fill: #2a475e" transform="translate(799.874598 178.907393)scale(0.12 -0.12)">
     <defs>
      <path id="DejaVuSans-Bold-79" d="M 78 3500 
L 1197 3500 
L 2138 1125 
L 2938 3500 
L 4056 3500 
L 2584 -331 
Q 2363 -916 2067 -1148 
Q 1772 -1381 1288 -1381 
L 641 -1381 
L 641 -647 
L 991 -647 
Q 1275 -647 1404 -556 
Q 1534 -466 1606 -231 
L 1638 -134 
L 78 3500 
z
" transform="scale(0.015625)"/>
     </defs>
     <use xlink:href="#DejaVuSans-Bold-50"/>
     <use xlink:href="#DejaVuSans-Bold-79" x="75.166016"/>
     <use xlink:href="#DejaVuSans-Bold-74" x="140.351562"/>
     <use xlink:href="#DejaVuSans-Bold-68" x="188.154297"/>
     <use xlink:href="#DejaVuSans-Bold-6f" x="259.345703"/>
     <use xlink:href="#DejaVuSans-Bold-6e" x="328.046875"/>
    </g>
   </g>
   <g id="patch_13">
    <path d="M 1103.516963 267.064517 
L 1098.728271 267.064517 
L 1066.185969 249.952092 
" style="fill: none; stroke: #000000; stroke-linecap: round"/>
   </g>
   <g id="text_15">
    <g id="patch_14">
     <path d="M 1105.874858 276.471392 
L 1142.195483 276.471392 
L 1142.195483 257.657642 
L 1105.874858 257.657642 
z
" style="fill: #ffffff; stroke: #000000; stroke-width: 0.72; stroke-linejoin: miter"/>
    </g>
    <!-- conf -->
    <g style="fill: #2a475e" transform="translate(1109.474858 270.375767)scale(0.12 -0.12)">
     <defs>
      <path id="DejaVuSans-Bold-66" d="M 2841 4863 
L 2841 4128 
L 2222 4128 
Q 1984 4128 1890 4042 
Q 1797 3956 1797 3744 
L 1797 3500 
L 2753 3500 
L 2753 2700 
L 1797 2700 
L 1797 0 
L 678 0 
L 678 2700 
L 122 2700 
L 122 3500 
L 678 3500 
L 678 3744 
Q 678 4316 997 4589 
Q 1316 4863 1984 4863 
L 2841 4863 
z
" transform="scale(0.015625)"/>
     </defs>
     <use xlink:href="#DejaVuSans-Bold-63"/>
     <use xlink:href="#DejaVuSans-Bold-6f" x="59.277344"/>
     <use xlink:href="#DejaVuSans-Bold-6e" x="127.978516"/>
     <use xlink:href="#DejaVuSans-Bold-66" x="199.169922"/>
    </g>
   </g>
   <g id="patch_15">
    <path d="M 1103.585332 237.973072 
L 1074.070451 229.927335 
" style="fill: none; stroke: #000000; stroke-linecap: round"/>
   </g>
   <g id="text_16">
    <g id="patch_16">
     <path d="M 1105.874858 249.004272 
L 1151.611733 249.004272 
L 1151.611733 230.190522 
L 1105.874858 230.190522 
z
" style="fill: #ffffff; stroke: #000000; stroke-width: 0.72; stroke-linejoin: miter"/>
    </g>
    <!-- Other -->
    <g style="fill: #2a475e" transform="translate(1109.474858 242.908647)scale(0.12 -0.12)">
     <defs>
      <path id="DejaVuSans-Bold-4f" d="M 2719 3878 
Q 2169 3878 1866 3472 
Q 1563 3066 1563 2328 
Q 1563 1594 1866 1187 
Q 2169 781 2719 781 
Q 3272 781 3575 1187 
Q 3878 1594 3878 2328 
Q 3878 3066 3575 3472 
Q 3272 3878 2719 3878 
z
M 2719 4750 
Q 3844 4750 4481 4106 
Q 5119 3463 5119 2328 
Q 5119 1197 4481 553 
Q 3844 -91 2719 -91 
Q 1597 -91 958 553 
Q 319 1197 319 2328 
Q 319 3463 958 4106 
Q 1597 4750 2719 4750 
z
" transform="scale(0.015625)"/>
     </defs>
     <use xlink:href="#DejaVuSans-Bold-4f"/>
     <use xlink:href="#DejaVuSans-Bold-74" x="85.009766"/>
     <use xlink:href="#DejaVuSans-Bold-68" x="132.8125"/>
     <use xlink:href="#DejaVuSans-Bold-65" x="204.003906"/>
     <use xlink:href="#DejaVuSans-Bold-72" x="271.826172"/>
    </g>
   </g>
   <g id="patch_17">
    <path d="M 1103.518568 213.059325 
L 1077.287721 211.137674 
" style="fill: none; stroke: #000000; stroke-linecap: round"/>
   </g>
   <g id="text_17">
    <g id="patch_18">
     <path d="M 1105.874858 223.23101 
L 1146.003608 223.23101 
L 1146.003608 204.41726 
L 1105.874858 204.41726 
z
" style="fill: #ffffff; stroke: #000000; stroke-width: 0.72; stroke-linejoin: miter"/>
    </g>
    <!-- Bash -->
    <g style="fill: #2a475e" transform="translate(1109.474858 217.135385)scale(0.12 -0.12)">
     <use xlink:href="#DejaVuSans-Bold-42"/>
     <use xlink:href="#DejaVuSans-Bold-61" x="76.220703"/>
     <use xlink:href="#DejaVuSans-Bold-73" x="143.701172"/>
     <use xlink:href="#DejaVuSans-Bold-68" x="203.222656"/>
    </g>
   </g>
   <g id="patch_19">
    <path d="M 1103.526162 192.226051 
L 1077.123572 194.695971 
" style="fill: none; stroke: #000000; stroke-linecap: round"/>
   </g>
   <g id="text_18">
    <g id="patch_20">
     <path d="M 1105.874858 200.678267 
L 1128.759233 200.678267 
L 1128.759233 181.864517 
L 1105.874858 181.864517 
z
" style="fill: #ffffff; stroke: #000000; stroke-width: 0.72; stroke-linejoin: miter"/>
    </g>
    <!-- sh -->
    <g style="fill: #2a475e" transform="translate(1109.474858 194.582642)scale(0.12 -0.12)">
     <use xlink:href="#DejaVuSans-Bold-73"/>
     <use xlink:href="#DejaVuSans-Bold-68" x="59.521484"/>
    </g>
   </g>
   <g id="patch_21">
    <path d="M 1072.140865 189.017956 
C 1070.202544 178.025192 1066.379704 167.449441 1060.841266 157.758019 
C 1055.302828 148.066598 1048.131588 139.404385 1039.644425 132.154143 
C 1031.157262 124.9039 1021.481053 119.174014 1011.043365 115.217674 
C 1000.605678 111.261333 989.562548 109.137683 978.401943 108.940562 
C 967.241339 108.74344 956.130103 110.475794 945.559214 114.061075 
C 934.988324 117.646357 925.115808 123.030968 916.377907 129.976977 
C 907.640006 136.922985 900.167346 145.326553 894.290124 154.816349 
C 888.412902 164.306144 884.218979 174.7403 881.893674 185.657759 
C 879.568369 196.575218 879.146443 207.81277 880.646541 218.873858 
C 882.146639 229.934946 885.546334 240.654212 890.695404 250.558001 
C 895.844473 260.46179 902.665942 269.402046 910.858385 276.983722 
C 919.050829 284.565398 928.491777 290.675154 938.764058 295.043013 
C 949.036339 299.410873 959.986388 301.971541 971.130352 302.611868 
C 982.274316 303.252195 993.4456 301.962608 1004.150572 298.80009 
C 1014.855545 295.637573 1024.934174 290.649403 1033.941111 284.055995 
C 1042.948049 277.462587 1050.748646 269.362508 1056.998216 260.113679 
L 1016.844273 232.98107 
C 1013.719488 237.605484 1009.819189 241.655524 1005.315721 244.952228 
C 1000.812252 248.248932 995.772938 250.743017 990.420451 252.324275 
C 985.067965 253.905534 979.482323 254.550328 973.910341 254.230164 
C 968.338359 253.910001 962.863335 252.629667 957.727194 250.445737 
C 952.591054 248.261807 947.87058 245.206929 943.774358 241.416091 
C 939.678136 237.625253 936.267402 233.155125 933.692867 228.203231 
C 931.118332 223.251336 929.418485 217.891703 928.668436 212.361159 
C 927.918387 206.830615 928.12935 201.211839 929.292002 195.75311 
C 930.454655 190.29438 932.551616 185.077302 935.490227 180.332404 
C 938.428838 175.587507 942.165168 171.385723 946.534119 167.912718 
C 950.903069 164.439714 955.839327 161.747409 961.124772 159.954768 
C 966.410217 158.162127 971.965835 157.29595 977.546137 157.394511 
C 983.126439 157.493072 988.648004 158.554897 993.866848 160.533067 
C 999.085692 162.511237 1003.923796 165.37618 1008.167378 169.001301 
C 1012.410959 172.626423 1015.996579 176.957529 1018.765798 181.80324 
C 1021.535017 186.648951 1023.446437 191.936826 1024.415598 197.433208 
L 1072.140865 189.017956 
z
" style="fill: #092436; opacity: 0.5; stroke: #092436; stroke-width: 4; stroke-linejoin: miter"/>
   </g>
   <g id="patch_22">
    <path d="M 1065.57675 264.624716 
C 1067.569258 261.675975 1069.397847 258.619729 1071.054207 255.469866 
C 1072.710568 252.320004 1074.192187 249.081303 1075.492333 245.768482 
L 1030.380599 228.06399 
C 1029.730526 229.7204 1028.989716 231.33975 1028.161536 232.914682 
C 1027.333356 234.489613 1026.419061 236.017736 1025.422807 237.492107 
L 1065.57675 264.624716 
z
" style="fill: #4c2604; opacity: 0.5; stroke: #4c2604; stroke-width: 4; stroke-linejoin: miter"/>
   </g>
   <g id="patch_23">
    <path d="M 1076.264884 243.806545 
C 1077.538209 240.562062 1078.635598 237.251256 1079.552268 233.888558 
C 1080.468937 230.525859 1081.203553 227.116162 1081.752914 223.674327 
L 1033.897165 216.035943 
C 1033.622484 217.756861 1033.255176 219.46171 1032.796842 221.143059 
C 1032.338507 222.824408 1031.789812 224.479811 1031.15315 226.102052 
L 1076.264884 243.806545 
z
" style="fill: #0d300d; opacity: 0.5; stroke: #0d300d; stroke-width: 4; stroke-linejoin: miter"/>
   </g>
   <g id="patch_24">
    <path d="M 1082.068225 221.833379 
C 1082.501891 219.11639 1082.819668 216.382165 1083.020694 213.638138 
C 1083.221719 210.89411 1083.30581 208.142766 1083.272738 205.391583 
L 1034.814732 205.974098 
C 1034.831268 207.349689 1034.789223 208.725361 1034.68871 210.097375 
C 1034.588198 211.469389 1034.429309 212.836501 1034.212476 214.194996 
L 1082.068225 221.833379 
z
" style="fill: #400c0c; opacity: 0.5; stroke: #400c0c; stroke-width: 4; stroke-linejoin: miter"/>
   </g>
   <g id="patch_25">
    <path d="M 1083.256509 203.780673 
C 1083.224949 201.155294 1083.086723 198.532281 1082.842173 195.918126 
C 1082.597623 193.30397 1082.246951 190.700831 1081.791024 188.115151 
L 1034.065761 196.530427 
C 1034.293724 197.823267 1034.46906 199.124836 1034.591335 200.431914 
C 1034.71361 201.738992 1034.782723 203.050498 1034.798503 204.363188 
L 1083.256509 203.780673 
z
" style="fill: #2c1f39; opacity: 0.5; stroke: #2c1f39; stroke-width: 4; stroke-linejoin: miter"/>
   </g>
   <g id="patch_26">
    <path d="M 1074.079325 187.079495 
C 1072.141004 176.086731 1068.318164 165.510981 1062.779726 155.819559 
C 1057.241288 146.128137 1050.070048 137.465925 1041.582885 130.215682 
C 1033.095722 122.96544 1023.419513 117.235554 1012.981826 113.279214 
C 1002.544138 109.322873 991.501008 107.199223 980.340404 107.002101 
C 969.179799 106.80498 958.068564 108.537334 947.497674 112.122615 
C 936.926784 115.707897 927.054268 121.092508 918.316367 128.038516 
C 909.578466 134.984525 902.105806 143.388093 896.228584 152.877888 
C 890.351362 162.367684 886.157439 172.80184 883.832134 183.719299 
C 881.506829 194.636758 881.084904 205.87431 882.585001 216.935398 
C 884.085099 227.996485 887.484794 238.715752 892.633864 248.619541 
C 897.782933 258.52333 904.604402 267.463586 912.796846 275.045262 
C 920.98929 282.626938 930.430238 288.736693 940.702518 293.104553 
C 950.974799 297.472413 961.924849 300.033081 973.068813 300.673408 
C 984.212777 301.313735 995.38406 300.024147 1006.089032 296.86163 
C 1016.794005 293.699113 1026.872634 288.710943 1035.879572 282.117535 
C 1044.886509 275.524127 1052.687107 267.424048 1058.936676 258.175219 
L 1018.782733 231.042609 
C 1015.657949 235.667024 1011.75765 239.717063 1007.254181 243.013767 
C 1002.750712 246.310472 997.711398 248.804556 992.358912 250.385815 
C 987.006425 251.967074 981.420784 252.611867 975.848802 252.291704 
C 970.27682 251.971541 964.801795 250.691207 959.665654 248.507277 
C 954.529514 246.323347 949.80904 243.268469 945.712818 239.477631 
C 941.616596 235.686793 938.205862 231.216665 935.631327 226.26477 
C 933.056793 221.312876 931.356945 215.953243 930.606896 210.422699 
C 929.856847 204.892155 930.06781 199.273379 931.230462 193.814649 
C 932.393115 188.35592 934.490076 183.138842 937.428687 178.393944 
C 940.367298 173.649047 944.103628 169.447263 948.472579 165.974258 
C 952.841529 162.501254 957.777787 159.808948 963.063232 158.016308 
C 968.348677 156.223667 973.904295 155.35749 979.484597 155.456051 
C 985.064899 155.554611 990.586464 156.616437 995.805308 158.594607 
C 1001.024152 160.572777 1005.862256 163.43772 1010.105838 167.062841 
C 1014.349419 170.687962 1017.935039 175.019069 1020.704258 179.86478 
C 1023.473477 184.71049 1025.384897 189.998366 1026.354058 195.494748 
L 1074.079325 187.079495 
z
" style="fill: #1f77b4; stroke: #ffffff; stroke-width: 4; stroke-linejoin: miter"/>
   </g>
   <g id="patch_27">
    <path d="M 1067.51521 262.686256 
C 1069.507718 259.737514 1071.336307 256.681268 1072.992668 253.531406 
C 1074.649028 250.381544 1076.130648 247.142843 1077.430793 243.830022 
L 1032.319059 226.125529 
C 1031.668986 227.78194 1030.928177 229.40129 1030.099996 230.976221 
C 1029.271816 232.551153 1028.357522 234.079276 1027.361268 235.553646 
L 1067.51521 262.686256 
z
" style="fill: #ff7f0e; stroke: #ffffff; stroke-width: 4; stroke-linejoin: miter"/>
   </g>
   <g id="patch_28">
    <path d="M 1078.203344 241.868085 
C 1079.47667 238.623602 1080.574059 235.312796 1081.490728 231.950098 
C 1082.407397 228.587399 1083.142013 225.177701 1083.691374 221.735867 
L 1035.835625 214.097483 
C 1035.560945 215.818401 1035.193637 217.523249 1034.735302 219.204599 
C 1034.276967 220.885948 1033.728273 222.541351 1033.09161 224.163592 
L 1078.203344 241.868085 
z
" style="fill: #2ca02c; stroke: #ffffff; stroke-width: 4; stroke-linejoin: miter"/>
   </g>
   <g id="patch_29">
    <path d="M 1084.006685 219.894919 
C 1084.440351 217.177929 1084.758129 214.443705 1084.959154 211.699677 
C 1085.160179 208.955649 1085.24427 206.204306 1085.211198 203.453123 
L 1036.753193 204.035638 
C 1036.769729 205.411229 1036.727683 206.786901 1036.627171 208.158915 
C 1036.526658 209.530929 1036.367769 210.898041 1036.150936 212.256536 
L 1084.006685 219.894919 
z
" style="fill: #d62728; stroke: #ffffff; stroke-width: 4; stroke-linejoin: miter"/>
   </g>
   <g id="patch_30">
    <path d="M 1085.194969 201.842213 
C 1085.163409 199.216833 1085.025183 196.59382 1084.780633 193.979665 
C 1084.536083 191.36551 1084.185411 188.762371 1083.729484 186.176691 
L 1036.004221 194.591967 
C 1036.232185 195.884807 1036.407521 197.186376 1036.529796 198.493454 
C 1036.652071 199.800531 1036.721184 201.112038 1036.736964 202.424727 
L 1085.194969 201.842213 
z
" style="fill: #9467bd; stroke: #ffffff; stroke-width: 4; stroke-linejoin: miter"/>
   </g>
   <g id="matplotlib.axis_3"/>
   <g id="matplotlib.axis_4"/>
   <g id="text_19">
    <!-- Languages -->
    <g style="fill: #2a475e" transform="translate(948.050666 206.59125)scale(0.1 -0.1)">
     <use xlink:href="#DejaVuSans-Bold-4c"/>
     <use xlink:href="#DejaVuSans-Bold-61" x="63.720703"/>
     <use xlink:href="#DejaVuSans-Bold-6e" x="131.201172"/>
     <use xlink:href="#DejaVuSans-Bold-67" x="202.392578"/>
     <use xlink:href="#DejaVuSans-Bold-75" x="273.974609"/>
     <use xlink:href="#DejaVuSans-Bold-61" x="345.166016"/>
     <use xlink:href="#DejaVuSans-Bold-67" x="412.646484"/>
     <use xlink:href="#DejaVuSans-Bold-65" x="484.228516"/>
     <use xlink:href="#DejaVuSans-Bold-73" x="552.050781"/>
    </g>
   </g>
   <g id="text_20">
    <!-- Languages exploited : -->
    <g style="fill: #2a475e" transform="translate(903.655978 76.756234)scale(0.12 -0.12)">
     <defs>
      <path id="DejaVuSans-Bold-78" d="M 1422 1791 
L 159 3500 
L 1344 3500 
L 2059 2463 
L 2784 3500 
L 3969 3500 
L 2706 1797 
L 4031 0 
L 2847 0 
L 2059 1106 
L 1281 0 
L 97 0 
L 1422 1791 
z
" transform="scale(0.015625)"/>
     </defs>
     <use xlink:href="#DejaVuSans-Bold-4c"/>
     <use xlink:href="#DejaVuSans-Bold-61" x="63.720703"/>
     <use xlink:href="#DejaVuSans-Bold-6e" x="131.201172"/>
     <use xlink:href="#DejaVuSans-Bold-67" x="202.392578"/>
     <use xlink:href="#DejaVuSans-Bold-75" x="273.974609"/>
     <use xlink:href="#DejaVuSans-Bold-61" x="345.166016"/>
     <use xlink:href="#DejaVuSans-Bold-67" x="412.646484"/>
     <use xlink:href="#DejaVuSans-Bold-65" x="484.228516"/>
     <use xlink:href="#DejaVuSans-Bold-73" x="552.050781"/>
     <use xlink:href="#DejaVuSans-Bold-20" x="611.572266"/>
     <use xlink:href="#DejaVuSans-Bold-65" x="646.386719"/>
     <use xlink:href="#DejaVuSans-Bold-78" x="714.208984"/>
     <use xlink:href="#DejaVuSans-Bold-70" x="778.710938"/>
     <use xlink:href="#DejaVuSans-Bold-6c" x="850.292969"/>
     <use xlink:href="#DejaVuSans-Bold-6f" x="884.570312"/>
     <use xlink:href="#DejaVuSans-Bold-69" x="953.271484"/>
     <use xlink:href="#DejaVuSans-Bold-74" x="987.548828"/>
     <use xlink:href="#DejaVuSans-Bold-65" x="1035.351562"/>
     <use xlink:href="#DejaVuSans-Bold-64" x="1103.173828"/>
     <use xlink:href="#DejaVuSans-Bold-20" x="1174.755859"/>
     <use xlink:href="#DejaVuSans-Bold-3a" x="1209.570312"/>
    </g>
   </g>
  </g>
  <g id="text_21">
   <!-- From 03 March, 2024 to 02 April, 2024: 151 hrs 34 mins -->
   <g transform="translate(106.433906 29.995312)scale(0.3 -0.3)">
    <defs>
     <path id="DejaVuSans-Bold-46" d="M 588 4666 
L 3834 4666 
L 3834 3756 
L 1791 3756 
L 1791 2888 
L 3713 2888 
L 3713 1978 
L 1791 1978 
L 1791 0 
L 588 0 
L 588 4666 
z
" transform="scale(0.015625)"/>
     <path id="DejaVuSans-Bold-4d" d="M 588 4666 
L 2119 4666 
L 3181 2169 
L 4250 4666 
L 5778 4666 
L 5778 0 
L 4641 0 
L 4641 3413 
L 3566 897 
L 2803 897 
L 1728 3413 
L 1728 0 
L 588 0 
L 588 4666 
z
" transform="scale(0.015625)"/>
     <path id="DejaVuSans-Bold-2c" d="M 653 1209 
L 1778 1209 
L 1778 256 
L 1006 -909 
L 341 -909 
L 653 256 
L 653 1209 
z
" transform="scale(0.015625)"/>
     <path id="DejaVuSans-Bold-41" d="M 3419 850 
L 1538 850 
L 1241 0 
L 31 0 
L 1759 4666 
L 3194 4666 
L 4922 0 
L 3713 0 
L 3419 850 
z
M 1838 1716 
L 3116 1716 
L 2478 3572 
L 1838 1716 
z
" transform="scale(0.015625)"/>
    </defs>
    <use xlink:href="#DejaVuSans-Bold-46"/>
    <use xlink:href="#DejaVuSans-Bold-72" x="61.935547"/>
    <use xlink:href="#DejaVuSans-Bold-6f" x="111.251953"/>
    <use xlink:href="#DejaVuSans-Bold-6d" x="179.953125"/>
    <use xlink:href="#DejaVuSans-Bold-20" x="284.152344"/>
    <use xlink:href="#DejaVuSans-Bold-30" x="318.966797"/>
    <use xlink:href="#DejaVuSans-Bold-33" x="388.546875"/>
    <use xlink:href="#DejaVuSans-Bold-20" x="458.126953"/>
    <use xlink:href="#DejaVuSans-Bold-4d" x="492.941406"/>
    <use xlink:href="#DejaVuSans-Bold-61" x="592.453125"/>
    <use xlink:href="#DejaVuSans-Bold-72" x="659.933594"/>
    <use xlink:href="#DejaVuSans-Bold-63" x="709.25"/>
    <use xlink:href="#DejaVuSans-Bold-68" x="768.527344"/>
    <use xlink:href="#DejaVuSans-Bold-2c" x="839.71875"/>
    <use xlink:href="#DejaVuSans-Bold-20" x="877.707031"/>
    <use xlink:href="#DejaVuSans-Bold-32" x="912.521484"/>
    <use xlink:href="#DejaVuSans-Bold-30" x="982.101562"/>
    <use xlink:href="#DejaVuSans-Bold-32" x="1051.681641"/>
    <use xlink:href="#DejaVuSans-Bold-34" x="1121.261719"/>
    <use xlink:href="#DejaVuSans-Bold-20" x="1190.841797"/>
    <use xlink:href="#DejaVuSans-Bold-74" x="1225.65625"/>
    <use xlink:href="#DejaVuSans-Bold-6f" x="1273.458984"/>
    <use xlink:href="#DejaVuSans-Bold-20" x="1342.160156"/>
    <use xlink:href="#DejaVuSans-Bold-30" x="1376.974609"/>
    <use xlink:href="#DejaVuSans-Bold-32" x="1446.554688"/>
    <use xlink:href="#DejaVuSans-Bold-20" x="1516.134766"/>
    <use xlink:href="#DejaVuSans-Bold-41" x="1550.949219"/>
    <use xlink:href="#DejaVuSans-Bold-70" x="1628.341797"/>
    <use xlink:href="#DejaVuSans-Bold-72" x="1699.923828"/>
    <use xlink:href="#DejaVuSans-Bold-69" x="1749.240234"/>
    <use xlink:href="#DejaVuSans-Bold-6c" x="1783.517578"/>
    <use xlink:href="#DejaVuSans-Bold-2c" x="1817.794922"/>
    <use xlink:href="#DejaVuSans-Bold-20" x="1855.783203"/>
    <use xlink:href="#DejaVuSans-Bold-32" x="1890.597656"/>
    <use xlink:href="#DejaVuSans-Bold-30" x="1960.177734"/>
    <use xlink:href="#DejaVuSans-Bold-32" x="2029.757812"/>
    <use xlink:href="#DejaVuSans-Bold-34" x="2099.337891"/>
    <use xlink:href="#DejaVuSans-Bold-3a" x="2168.917969"/>
    <use xlink:href="#DejaVuSans-Bold-20" x="2208.908203"/>
    <use xlink:href="#DejaVuSans-Bold-31" x="2243.722656"/>
    <use xlink:href="#DejaVuSans-Bold-35" x="2313.302734"/>
    <use xlink:href="#DejaVuSans-Bold-31" x="2382.882812"/>
    <use xlink:href="#DejaVuSans-Bold-20" x="2452.462891"/>
    <use xlink:href="#DejaVuSans-Bold-68" x="2487.277344"/>
    <use xlink:href="#DejaVuSans-Bold-72" x="2558.46875"/>
    <use xlink:href="#DejaVuSans-Bold-73" x="2607.785156"/>
    <use xlink:href="#DejaVuSans-Bold-20" x="2667.306641"/>
    <use xlink:href="#DejaVuSans-Bold-33" x="2702.121094"/>
    <use xlink:href="#DejaVuSans-Bold-34" x="2771.701172"/>
    <use xlink:href="#DejaVuSans-Bold-20" x="2841.28125"/>
    <use xlink:href="#DejaVuSans-Bold-6d" x="2876.095703"/>
    <use xlink:href="#DejaVuSans-Bold-69" x="2980.294922"/>
    <use xlink:href="#DejaVuSans-Bold-6e" x="3014.572266"/>
    <use xlink:href="#DejaVuSans-Bold-73" x="3085.763672"/>
   </g>
  </g>
 </g>
 <defs>
  <clipPath id="p78fa446eb0">
   <rect x="205.734375" y="56.32" width="484.615065" height="295.18"/>
  </clipPath>
 </defs>
</svg>
