<?xml version="1.0" encoding="utf-8" standalone="no"?>
<!DOCTYPE svg PUBLIC "-//W3C//DTD SVG 1.1//EN"
  "http://www.w3.org/Graphics/SVG/1.1/DTD/svg11.dtd">
<svg xmlns:xlink="http://www.w3.org/1999/xlink" width="1155.635983pt" height="349.136764pt" viewBox="0 0 1155.635983 349.136764" xmlns="http://www.w3.org/2000/svg" version="1.1">
 <metadata>
  <rdf:RDF xmlns:dc="http://purl.org/dc/elements/1.1/" xmlns:cc="http://creativecommons.org/ns#" xmlns:rdf="http://www.w3.org/1999/02/22-rdf-syntax-ns#">
   <cc:Work>
    <dc:type rdf:resource="http://purl.org/dc/dcmitype/StillImage"/>
    <dc:date>2026-05-25T17:26:02.436575</dc:date>
    <dc:format>image/svg+xml</dc:format>
    <dc:creator>
     <cc:Agent>
      <dc:title>Matplotlib v3.9.1.post1, https://matplotlib.org/</dc:title>
     </cc:Agent>
    </dc:creator>
   </cc:Work>
  </rdf:RDF>
 </metadata>
 <defs>
  <style type="text/css">*{stroke-linejoin: round; stroke-linecap: butt}</style>
 </defs>
 <g id="figure_1">
  <g id="patch_1">
   <path d="M 0 349.136764 
L 1155.635983 349.136764 
L 1155.635983 0 
L 0 0 
L 0 349.136764 
z
" style="fill: none"/>
  </g>
  <g id="axes_1">
   <g id="patch_2">
    <path d="M 175.746875 341.936764 
L 659.761936 341.936764 
L 659.761936 56.32 
L 175.746875 56.32 
L 175.746875 341.936764 
z
" style="fill: none"/>
   </g>
   <g id="patch_3">
    <path d="M 175.746875 69.30258 
L 636.7136 69.30258 
L 636.7136 92.907271 
L 175.746875 92.907271 
z
" clip-path="url(#pa9008a792d)" style="fill: #f6451a; stroke: #f6451a; stroke-linejoin: miter"/>
   </g>
   <g id="patch_4">
    <path d="M 175.746875 116.511963 
L 446.237458 116.511963 
L 446.237458 140.116654 
L 175.746875 140.116654 
z
" clip-path="url(#pa9008a792d)" style="fill: #6d8fa3; stroke: #6d8fa3; stroke-linejoin: miter"/>
   </g>
   <g id="patch_5">
    <path d="M 175.746875 163.721345 
L 227.322448 163.721345 
L 227.322448 187.326036 
L 175.746875 187.326036 
z
" clip-path="url(#pa9008a792d)" style="fill: #d671c1; stroke: #d671c1; stroke-linejoin: miter"/>
   </g>
   <g id="patch_6">
    <path d="M 175.746875 210.930728 
L 193.099404 210.930728 
L 193.099404 234.535419 
L 175.746875 234.535419 
z
" clip-path="url(#pa9008a792d)" style="fill: #54eab5; stroke: #54eab5; stroke-linejoin: miter"/>
   </g>
   <g id="patch_7">
    <path d="M 175.746875 258.14011 
L 177.835605 258.14011 
L 177.835605 281.744801 
L 175.746875 281.744801 
z
" clip-path="url(#pa9008a792d)" style="fill: #3a5f83; stroke: #3a5f83; stroke-linejoin: miter"/>
   </g>
   <g id="patch_8">
    <path d="M 175.746875 305.349493 
L 176.630569 305.349493 
L 176.630569 328.954184 
L 175.746875 328.954184 
z
" clip-path="url(#pa9008a792d)" style="fill: #ea53d4; stroke: #ea53d4; stroke-linejoin: miter"/>
   </g>
   <g id="matplotlib.axis_1"/>
   <g id="matplotlib.axis_2">
    <g id="ytick_1">
     <g id="line2d_1">
      <defs>
       <path id="m92a591dea5" d="M 0 0 
L -3.5 0 
" style="stroke: #000000; stroke-width: 0.8"/>
      </defs>
      <g>
       <use xlink:href="#m92a591dea5" x="175.746875" y="81.104926" style="stroke: #000000; stroke-width: 0.8"/>
      </g>
     </g>
     <g id="text_1">
      <!-- SlideForge -->
      <g style="fill: #586069" transform="translate(48.403125 88.703363) scale(0.2 -0.2)">
       <defs>
        <path id="DejaVuSans-Bold-53" d="M 3834 4519 
L 3834 3531 
Q 3450 3703 3084 3790 
Q 2719 3878 2394 3878 
Q 1963 3878 1756 3759 
Q 1550 3641 1550 3391 
Q 1550 3203 1689 3098 
Q 1828 2994 2194 2919 
L 2706 2816 
Q 3484 2659 3812 2340 
Q 4141 2022 4141 1434 
Q 4141 663 3683 286 
Q 3225 -91 2284 -91 
Q 1841 -91 1394 -6 
Q 947 78 500 244 
L 500 1259 
Q 947 1022 1364 901 
Q 1781 781 2169 781 
Q 2563 781 2772 912 
Q 2981 1044 2981 1288 
Q 2981 1506 2839 1625 
Q 2697 1744 2272 1838 
L 1806 1941 
Q 1106 2091 782 2419 
Q 459 2747 459 3303 
Q 459 4000 909 4375 
Q 1359 4750 2203 4750 
Q 2588 4750 2994 4692 
Q 3400 4634 3834 4519 
z
" transform="scale(0.015625)"/>
        <path id="DejaVuSans-Bold-6c" d="M 538 4863 
L 1656 4863 
L 1656 0 
L 538 0 
L 538 4863 
z
" transform="scale(0.015625)"/>
        <path id="DejaVuSans-Bold-69" d="M 538 3500 
L 1656 3500 
L 1656 0 
L 538 0 
L 538 3500 
z
M 538 4863 
L 1656 4863 
L 1656 3950 
L 538 3950 
L 538 4863 
z
" transform="scale(0.015625)"/>
        <path id="DejaVuSans-Bold-64" d="M 2919 2988 
L 2919 4863 
L 4044 4863 
L 4044 0 
L 2919 0 
L 2919 506 
Q 2688 197 2409 53 
Q 2131 -91 1766 -91 
Q 1119 -91 703 423 
Q 288 938 288 1747 
Q 288 2556 703 3070 
Q 1119 3584 1766 3584 
Q 2128 3584 2408 3439 
Q 2688 3294 2919 2988 
z
M 2181 722 
Q 2541 722 2730 984 
Q 2919 1247 2919 1747 
Q 2919 2247 2730 2509 
Q 2541 2772 2181 2772 
Q 1825 2772 1636 2509 
Q 1447 2247 1447 1747 
Q 1447 1247 1636 984 
Q 1825 722 2181 722 
z
" transform="scale(0.015625)"/>
        <path id="DejaVuSans-Bold-65" d="M 4031 1759 
L 4031 1441 
L 1416 1441 
Q 1456 1047 1700 850 
Q 1944 653 2381 653 
Q 2734 653 3104 758 
Q 3475 863 3866 1075 
L 3866 213 
Q 3469 63 3072 -14 
Q 2675 -91 2278 -91 
Q 1328 -91 801 392 
Q 275 875 275 1747 
Q 275 2603 792 3093 
Q 1309 3584 2216 3584 
Q 3041 3584 3536 3087 
Q 4031 2591 4031 1759 
z
M 2881 2131 
Q 2881 2450 2695 2645 
Q 2509 2841 2209 2841 
Q 1884 2841 1681 2658 
Q 1478 2475 1428 2131 
L 2881 2131 
z
" transform="scale(0.015625)"/>
        <path id="DejaVuSans-Bold-46" d="M 588 4666 
L 3834 4666 
L 3834 3756 
L 1791 3756 
L 1791 2888 
L 3713 2888 
L 3713 1978 
L 1791 1978 
L 1791 0 
L 588 0 
L 588 4666 
z
" transform="scale(0.015625)"/>
        <path id="DejaVuSans-Bold-6f" d="M 2203 2784 
Q 1831 2784 1636 2517 
Q 1441 2250 1441 1747 
Q 1441 1244 1636 976 
Q 1831 709 2203 709 
Q 2569 709 2762 976 
Q 2956 1244 2956 1747 
Q 2956 2250 2762 2517 
Q 2569 2784 2203 2784 
z
M 2203 3584 
Q 3106 3584 3614 3096 
Q 4122 2609 4122 1747 
Q 4122 884 3614 396 
Q 3106 -91 2203 -91 
Q 1297 -91 786 396 
Q 275 884 275 1747 
Q 275 2609 786 3096 
Q 1297 3584 2203 3584 
z
" transform="scale(0.015625)"/>
        <path id="DejaVuSans-Bold-72" d="M 3138 2547 
Q 2991 2616 2845 2648 
Q 2700 2681 2553 2681 
Q 2122 2681 1889 2404 
Q 1656 2128 1656 1613 
L 1656 0 
L 538 0 
L 538 3500 
L 1656 3500 
L 1656 2925 
Q 1872 3269 2151 3426 
Q 2431 3584 2822 3584 
Q 2878 3584 2943 3579 
Q 3009 3575 3134 3559 
L 3138 2547 
z
" transform="scale(0.015625)"/>
        <path id="DejaVuSans-Bold-67" d="M 2919 594 
Q 2688 288 2409 144 
Q 2131 0 1766 0 
Q 1125 0 706 504 
Q 288 1009 288 1791 
Q 288 2575 706 3076 
Q 1125 3578 1766 3578 
Q 2131 3578 2409 3434 
Q 2688 3291 2919 2981 
L 2919 3500 
L 4044 3500 
L 4044 353 
Q 4044 -491 3511 -936 
Q 2978 -1381 1966 -1381 
Q 1638 -1381 1331 -1331 
Q 1025 -1281 716 -1178 
L 716 -306 
Q 1009 -475 1290 -558 
Q 1572 -641 1856 -641 
Q 2406 -641 2662 -400 
Q 2919 -159 2919 353 
L 2919 594 
z
M 2181 2772 
Q 1834 2772 1640 2515 
Q 1447 2259 1447 1791 
Q 1447 1309 1634 1061 
Q 1822 813 2181 813 
Q 2531 813 2725 1069 
Q 2919 1325 2919 1791 
Q 2919 2259 2725 2515 
Q 2531 2772 2181 2772 
z
" transform="scale(0.015625)"/>
       </defs>
       <use xlink:href="#DejaVuSans-Bold-53"/>
       <use xlink:href="#DejaVuSans-Bold-6c" x="72.021484"/>
       <use xlink:href="#DejaVuSans-Bold-69" x="106.298828"/>
       <use xlink:href="#DejaVuSans-Bold-64" x="140.576172"/>
       <use xlink:href="#DejaVuSans-Bold-65" x="212.158203"/>
       <use xlink:href="#DejaVuSans-Bold-46" x="279.980469"/>
       <use xlink:href="#DejaVuSans-Bold-6f" x="344.291016"/>
       <use xlink:href="#DejaVuSans-Bold-72" x="412.992188"/>
       <use xlink:href="#DejaVuSans-Bold-67" x="462.308594"/>
       <use xlink:href="#DejaVuSans-Bold-65" x="533.890625"/>
      </g>
     </g>
    </g>
    <g id="ytick_2">
     <g id="line2d_2">
      <g>
       <use xlink:href="#m92a591dea5" x="175.746875" y="128.314308" style="stroke: #000000; stroke-width: 0.8"/>
      </g>
     </g>
     <g id="text_2">
      <!-- fresh-repo -->
      <g style="fill: #586069" transform="translate(50.69375 135.912746) scale(0.2 -0.2)">
       <defs>
        <path id="DejaVuSans-Bold-66" d="M 2841 4863 
L 2841 4128 
L 2222 4128 
Q 1984 4128 1890 4042 
Q 1797 3956 1797 3744 
L 1797 3500 
L 2753 3500 
L 2753 2700 
L 1797 2700 
L 1797 0 
L 678 0 
L 678 2700 
L 122 2700 
L 122 3500 
L 678 3500 
L 678 3744 
Q 678 4316 997 4589 
Q 1316 4863 1984 4863 
L 2841 4863 
z
" transform="scale(0.015625)"/>
        <path id="DejaVuSans-Bold-73" d="M 3272 3391 
L 3272 2541 
Q 2913 2691 2578 2766 
Q 2244 2841 1947 2841 
Q 1628 2841 1473 2761 
Q 1319 2681 1319 2516 
Q 1319 2381 1436 2309 
Q 1553 2238 1856 2203 
L 2053 2175 
Q 2913 2066 3209 1816 
Q 3506 1566 3506 1031 
Q 3506 472 3093 190 
Q 2681 -91 1863 -91 
Q 1516 -91 1145 -36 
Q 775 19 384 128 
L 384 978 
Q 719 816 1070 734 
Q 1422 653 1784 653 
Q 2113 653 2278 743 
Q 2444 834 2444 1013 
Q 2444 1163 2330 1236 
Q 2216 1309 1875 1350 
L 1678 1375 
Q 931 1469 631 1722 
Q 331 1975 331 2491 
Q 331 3047 712 3315 
Q 1094 3584 1881 3584 
Q 2191 3584 2531 3537 
Q 2872 3491 3272 3391 
z
" transform="scale(0.015625)"/>
        <path id="DejaVuSans-Bold-68" d="M 4056 2131 
L 4056 0 
L 2931 0 
L 2931 347 
L 2931 1625 
Q 2931 2084 2911 2256 
Q 2891 2428 2841 2509 
Q 2775 2619 2662 2680 
Q 2550 2741 2406 2741 
Q 2056 2741 1856 2470 
Q 1656 2200 1656 1722 
L 1656 0 
L 538 0 
L 538 4863 
L 1656 4863 
L 1656 2988 
Q 1909 3294 2193 3439 
Q 2478 3584 2822 3584 
Q 3428 3584 3742 3212 
Q 4056 2841 4056 2131 
z
" transform="scale(0.015625)"/>
        <path id="DejaVuSans-Bold-2d" d="M 347 2297 
L 2309 2297 
L 2309 1388 
L 347 1388 
L 347 2297 
z
" transform="scale(0.015625)"/>
        <path id="DejaVuSans-Bold-70" d="M 1656 506 
L 1656 -1331 
L 538 -1331 
L 538 3500 
L 1656 3500 
L 1656 2988 
Q 1888 3294 2169 3439 
Q 2450 3584 2816 3584 
Q 3463 3584 3878 3070 
Q 4294 2556 4294 1747 
Q 4294 938 3878 423 
Q 3463 -91 2816 -91 
Q 2450 -91 2169 54 
Q 1888 200 1656 506 
z
M 2400 2772 
Q 2041 2772 1848 2508 
Q 1656 2244 1656 1747 
Q 1656 1250 1848 986 
Q 2041 722 2400 722 
Q 2759 722 2948 984 
Q 3138 1247 3138 1747 
Q 3138 2247 2948 2509 
Q 2759 2772 2400 2772 
z
" transform="scale(0.015625)"/>
       </defs>
       <use xlink:href="#DejaVuSans-Bold-66"/>
       <use xlink:href="#DejaVuSans-Bold-72" x="43.505859"/>
       <use xlink:href="#DejaVuSans-Bold-65" x="92.822266"/>
       <use xlink:href="#DejaVuSans-Bold-73" x="160.644531"/>
       <use xlink:href="#DejaVuSans-Bold-68" x="220.166016"/>
       <use xlink:href="#DejaVuSans-Bold-2d" x="291.357422"/>
       <use xlink:href="#DejaVuSans-Bold-72" x="332.861328"/>
       <use xlink:href="#DejaVuSans-Bold-65" x="382.177734"/>
       <use xlink:href="#DejaVuSans-Bold-70" x="450"/>
       <use xlink:href="#DejaVuSans-Bold-6f" x="521.582031"/>
      </g>
     </g>
    </g>
    <g id="ytick_3">
     <g id="line2d_3">
      <g>
       <use xlink:href="#m92a591dea5" x="175.746875" y="175.523691" style="stroke: #000000; stroke-width: 0.8"/>
      </g>
     </g>
     <g id="text_3">
      <!-- PDF2PPT -->
      <g style="fill: #586069" transform="translate(66.94375 183.122128) scale(0.2 -0.2)">
       <defs>
        <path id="DejaVuSans-Bold-50" d="M 588 4666 
L 2584 4666 
Q 3475 4666 3951 4270 
Q 4428 3875 4428 3144 
Q 4428 2409 3951 2014 
Q 3475 1619 2584 1619 
L 1791 1619 
L 1791 0 
L 588 0 
L 588 4666 
z
M 1791 3794 
L 1791 2491 
L 2456 2491 
Q 2806 2491 2997 2661 
Q 3188 2831 3188 3144 
Q 3188 3456 2997 3625 
Q 2806 3794 2456 3794 
L 1791 3794 
z
" transform="scale(0.015625)"/>
        <path id="DejaVuSans-Bold-44" d="M 1791 3756 
L 1791 909 
L 2222 909 
Q 2959 909 3348 1275 
Q 3738 1641 3738 2338 
Q 3738 3031 3350 3393 
Q 2963 3756 2222 3756 
L 1791 3756 
z
M 588 4666 
L 1856 4666 
Q 2919 4666 3439 4514 
Q 3959 4363 4331 4000 
Q 4659 3684 4818 3271 
Q 4978 2859 4978 2338 
Q 4978 1809 4818 1395 
Q 4659 981 4331 666 
Q 3956 303 3431 151 
Q 2906 0 1856 0 
L 588 0 
L 588 4666 
z
" transform="scale(0.015625)"/>
        <path id="DejaVuSans-Bold-32" d="M 1844 884 
L 3897 884 
L 3897 0 
L 506 0 
L 506 884 
L 2209 2388 
Q 2438 2594 2547 2791 
Q 2656 2988 2656 3200 
Q 2656 3528 2436 3728 
Q 2216 3928 1850 3928 
Q 1569 3928 1234 3808 
Q 900 3688 519 3450 
L 519 4475 
Q 925 4609 1322 4679 
Q 1719 4750 2100 4750 
Q 2938 4750 3402 4381 
Q 3866 4013 3866 3353 
Q 3866 2972 3669 2642 
Q 3472 2313 2841 1759 
L 1844 884 
z
" transform="scale(0.015625)"/>
        <path id="DejaVuSans-Bold-54" d="M 31 4666 
L 4331 4666 
L 4331 3756 
L 2784 3756 
L 2784 0 
L 1581 0 
L 1581 3756 
L 31 3756 
L 31 4666 
z
" transform="scale(0.015625)"/>
       </defs>
       <use xlink:href="#DejaVuSans-Bold-50"/>
       <use xlink:href="#DejaVuSans-Bold-44" x="73.291016"/>
       <use xlink:href="#DejaVuSans-Bold-46" x="156.298828"/>
       <use xlink:href="#DejaVuSans-Bold-32" x="224.609375"/>
       <use xlink:href="#DejaVuSans-Bold-50" x="294.189453"/>
       <use xlink:href="#DejaVuSans-Bold-50" x="367.480469"/>
       <use xlink:href="#DejaVuSans-Bold-54" x="440.771484"/>
      </g>
     </g>
    </g>
    <g id="ytick_4">
     <g id="line2d_4">
      <g>
       <use xlink:href="#m92a591dea5" x="175.746875" y="222.733073" style="stroke: #000000; stroke-width: 0.8"/>
      </g>
     </g>
     <g id="text_4">
      <!-- website -->
      <g style="fill: #586069" transform="translate(80.503125 230.331511) scale(0.2 -0.2)">
       <defs>
        <path id="DejaVuSans-Bold-77" d="M 225 3500 
L 1313 3500 
L 1900 1088 
L 2491 3500 
L 3425 3500 
L 4013 1113 
L 4603 3500 
L 5691 3500 
L 4769 0 
L 3547 0 
L 2956 2406 
L 2369 0 
L 1147 0 
L 225 3500 
z
" transform="scale(0.015625)"/>
        <path id="DejaVuSans-Bold-62" d="M 2400 722 
Q 2759 722 2948 984 
Q 3138 1247 3138 1747 
Q 3138 2247 2948 2509 
Q 2759 2772 2400 2772 
Q 2041 2772 1848 2508 
Q 1656 2244 1656 1747 
Q 1656 1250 1848 986 
Q 2041 722 2400 722 
z
M 1656 2988 
Q 1888 3294 2169 3439 
Q 2450 3584 2816 3584 
Q 3463 3584 3878 3070 
Q 4294 2556 4294 1747 
Q 4294 938 3878 423 
Q 3463 -91 2816 -91 
Q 2450 -91 2169 54 
Q 1888 200 1656 506 
L 1656 0 
L 538 0 
L 538 4863 
L 1656 4863 
L 1656 2988 
z
" transform="scale(0.015625)"/>
        <path id="DejaVuSans-Bold-74" d="M 1759 4494 
L 1759 3500 
L 2913 3500 
L 2913 2700 
L 1759 2700 
L 1759 1216 
Q 1759 972 1856 886 
Q 1953 800 2241 800 
L 2816 800 
L 2816 0 
L 1856 0 
Q 1194 0 917 276 
Q 641 553 641 1216 
L 641 2700 
L 84 2700 
L 84 3500 
L 641 3500 
L 641 4494 
L 1759 4494 
z
" transform="scale(0.015625)"/>
       </defs>
       <use xlink:href="#DejaVuSans-Bold-77"/>
       <use xlink:href="#DejaVuSans-Bold-65" x="92.382812"/>
       <use xlink:href="#DejaVuSans-Bold-62" x="160.205078"/>
       <use xlink:href="#DejaVuSans-Bold-73" x="231.787109"/>
       <use xlink:href="#DejaVuSans-Bold-69" x="291.308594"/>
       <use xlink:href="#DejaVuSans-Bold-74" x="325.585938"/>
       <use xlink:href="#DejaVuSans-Bold-65" x="373.388672"/>
      </g>
     </g>
    </g>
    <g id="ytick_5">
     <g id="line2d_5">
      <g>
       <use xlink:href="#m92a591dea5" x="175.746875" y="269.942456" style="stroke: #000000; stroke-width: 0.8"/>
      </g>
     </g>
     <g id="text_5">
      <!-- PathCommitor -->
      <g style="fill: #586069" transform="translate(7.2 277.540893) scale(0.2 -0.2)">
       <defs>
        <path id="DejaVuSans-Bold-61" d="M 2106 1575 
Q 1756 1575 1579 1456 
Q 1403 1338 1403 1106 
Q 1403 894 1545 773 
Q 1688 653 1941 653 
Q 2256 653 2472 879 
Q 2688 1106 2688 1447 
L 2688 1575 
L 2106 1575 
z
M 3816 1997 
L 3816 0 
L 2688 0 
L 2688 519 
Q 2463 200 2181 54 
Q 1900 -91 1497 -91 
Q 953 -91 614 226 
Q 275 544 275 1050 
Q 275 1666 698 1953 
Q 1122 2241 2028 2241 
L 2688 2241 
L 2688 2328 
Q 2688 2594 2478 2717 
Q 2269 2841 1825 2841 
Q 1466 2841 1156 2769 
Q 847 2697 581 2553 
L 581 3406 
Q 941 3494 1303 3539 
Q 1666 3584 2028 3584 
Q 2975 3584 3395 3211 
Q 3816 2838 3816 1997 
z
" transform="scale(0.015625)"/>
        <path id="DejaVuSans-Bold-43" d="M 4288 256 
Q 3956 84 3597 -3 
Q 3238 -91 2847 -91 
Q 1681 -91 1000 561 
Q 319 1213 319 2328 
Q 319 3447 1000 4098 
Q 1681 4750 2847 4750 
Q 3238 4750 3597 4662 
Q 3956 4575 4288 4403 
L 4288 3438 
Q 3953 3666 3628 3772 
Q 3303 3878 2944 3878 
Q 2300 3878 1931 3465 
Q 1563 3053 1563 2328 
Q 1563 1606 1931 1193 
Q 2300 781 2944 781 
Q 3303 781 3628 887 
Q 3953 994 4288 1222 
L 4288 256 
z
" transform="scale(0.015625)"/>
        <path id="DejaVuSans-Bold-6d" d="M 3781 2919 
Q 3994 3244 4286 3414 
Q 4578 3584 4928 3584 
Q 5531 3584 5847 3212 
Q 6163 2841 6163 2131 
L 6163 0 
L 5038 0 
L 5038 1825 
Q 5041 1866 5042 1909 
Q 5044 1953 5044 2034 
Q 5044 2406 4934 2573 
Q 4825 2741 4581 2741 
Q 4263 2741 4089 2478 
Q 3916 2216 3909 1719 
L 3909 0 
L 2784 0 
L 2784 1825 
Q 2784 2406 2684 2573 
Q 2584 2741 2328 2741 
Q 2006 2741 1831 2477 
Q 1656 2213 1656 1722 
L 1656 0 
L 531 0 
L 531 3500 
L 1656 3500 
L 1656 2988 
Q 1863 3284 2130 3434 
Q 2397 3584 2719 3584 
Q 3081 3584 3359 3409 
Q 3638 3234 3781 2919 
z
" transform="scale(0.015625)"/>
       </defs>
       <use xlink:href="#DejaVuSans-Bold-50"/>
       <use xlink:href="#DejaVuSans-Bold-61" x="70.666016"/>
       <use xlink:href="#DejaVuSans-Bold-74" x="138.146484"/>
       <use xlink:href="#DejaVuSans-Bold-68" x="185.949219"/>
       <use xlink:href="#DejaVuSans-Bold-43" x="257.140625"/>
       <use xlink:href="#DejaVuSans-Bold-6f" x="330.529297"/>
       <use xlink:href="#DejaVuSans-Bold-6d" x="399.230469"/>
       <use xlink:href="#DejaVuSans-Bold-6d" x="503.429688"/>
       <use xlink:href="#DejaVuSans-Bold-69" x="607.628906"/>
       <use xlink:href="#DejaVuSans-Bold-74" x="641.90625"/>
       <use xlink:href="#DejaVuSans-Bold-6f" x="689.708984"/>
       <use xlink:href="#DejaVuSans-Bold-72" x="758.410156"/>
      </g>
     </g>
    </g>
    <g id="ytick_6">
     <g id="line2d_6">
      <g>
       <use xlink:href="#m92a591dea5" x="175.746875" y="317.151838" style="stroke: #000000; stroke-width: 0.8"/>
      </g>
     </g>
     <g id="text_6">
      <!-- PPTMaker -->
      <g style="fill: #586069" transform="translate(56.18125 324.750276) scale(0.2 -0.2)">
       <defs>
        <path id="DejaVuSans-Bold-4d" d="M 588 4666 
L 2119 4666 
L 3181 2169 
L 4250 4666 
L 5778 4666 
L 5778 0 
L 4641 0 
L 4641 3413 
L 3566 897 
L 2803 897 
L 1728 3413 
L 1728 0 
L 588 0 
L 588 4666 
z
" transform="scale(0.015625)"/>
        <path id="DejaVuSans-Bold-6b" d="M 538 4863 
L 1656 4863 
L 1656 2216 
L 2944 3500 
L 4244 3500 
L 2534 1894 
L 4378 0 
L 3022 0 
L 1656 1459 
L 1656 0 
L 538 0 
L 538 4863 
z
" transform="scale(0.015625)"/>
       </defs>
       <use xlink:href="#DejaVuSans-Bold-50"/>
       <use xlink:href="#DejaVuSans-Bold-50" x="73.291016"/>
       <use xlink:href="#DejaVuSans-Bold-54" x="146.582031"/>
       <use xlink:href="#DejaVuSans-Bold-4d" x="214.794922"/>
       <use xlink:href="#DejaVuSans-Bold-61" x="314.306641"/>
       <use xlink:href="#DejaVuSans-Bold-6b" x="381.787109"/>
       <use xlink:href="#DejaVuSans-Bold-65" x="445.666016"/>
       <use xlink:href="#DejaVuSans-Bold-72" x="513.488281"/>
      </g>
     </g>
    </g>
   </g>
   <g id="patch_9">
    <path d="M 175.746875 341.936764 
L 175.746875 56.32 
" style="fill: none; stroke: #000000; stroke-width: 0.8; stroke-linejoin: miter; stroke-linecap: square"/>
   </g>
   <g id="patch_10">
    <path d="M 175.746875 341.936764 
L 659.761936 341.936764 
" style="fill: none; stroke: #000000; stroke-width: 0.8; stroke-linejoin: miter; stroke-linecap: square"/>
   </g>
   <g id="text_7">
    <!-- 8 hrs 8 mins -->
    <g style="fill: #586069" transform="translate(640.7136 85.243988) scale(0.15 -0.15)">
     <defs>
      <path id="DejaVuSans-Bold-38" d="M 2228 2088 
Q 1891 2088 1709 1903 
Q 1528 1719 1528 1375 
Q 1528 1031 1709 848 
Q 1891 666 2228 666 
Q 2563 666 2741 848 
Q 2919 1031 2919 1375 
Q 2919 1722 2741 1905 
Q 2563 2088 2228 2088 
z
M 1350 2484 
Q 925 2613 709 2878 
Q 494 3144 494 3541 
Q 494 4131 934 4440 
Q 1375 4750 2228 4750 
Q 3075 4750 3515 4442 
Q 3956 4134 3956 3541 
Q 3956 3144 3739 2878 
Q 3522 2613 3097 2484 
Q 3572 2353 3814 2058 
Q 4056 1763 4056 1313 
Q 4056 619 3595 264 
Q 3134 -91 2228 -91 
Q 1319 -91 855 264 
Q 391 619 391 1313 
Q 391 1763 633 2058 
Q 875 2353 1350 2484 
z
M 1631 3419 
Q 1631 3141 1786 2991 
Q 1941 2841 2228 2841 
Q 2509 2841 2662 2991 
Q 2816 3141 2816 3419 
Q 2816 3697 2662 3845 
Q 2509 3994 2228 3994 
Q 1941 3994 1786 3844 
Q 1631 3694 1631 3419 
z
" transform="scale(0.015625)"/>
      <path id="DejaVuSans-Bold-20" transform="scale(0.015625)"/>
      <path id="DejaVuSans-Bold-6e" d="M 4056 2131 
L 4056 0 
L 2931 0 
L 2931 347 
L 2931 1631 
Q 2931 2084 2911 2256 
Q 2891 2428 2841 2509 
Q 2775 2619 2662 2680 
Q 2550 2741 2406 2741 
Q 2056 2741 1856 2470 
Q 1656 2200 1656 1722 
L 1656 0 
L 538 0 
L 538 3500 
L 1656 3500 
L 1656 2988 
Q 1909 3294 2193 3439 
Q 2478 3584 2822 3584 
Q 3428 3584 3742 3212 
Q 4056 2841 4056 2131 
z
" transform="scale(0.015625)"/>
     </defs>
     <use xlink:href="#DejaVuSans-Bold-38"/>
     <use xlink:href="#DejaVuSans-Bold-20" x="69.580078"/>
     <use xlink:href="#DejaVuSans-Bold-68" x="104.394531"/>
     <use xlink:href="#DejaVuSans-Bold-72" x="175.585938"/>
     <use xlink:href="#DejaVuSans-Bold-73" x="224.902344"/>
     <use xlink:href="#DejaVuSans-Bold-20" x="284.423828"/>
     <use xlink:href="#DejaVuSans-Bold-38" x="319.238281"/>
     <use xlink:href="#DejaVuSans-Bold-20" x="388.818359"/>
     <use xlink:href="#DejaVuSans-Bold-6d" x="423.632812"/>
     <use xlink:href="#DejaVuSans-Bold-69" x="527.832031"/>
     <use xlink:href="#DejaVuSans-Bold-6e" x="562.109375"/>
     <use xlink:href="#DejaVuSans-Bold-73" x="633.300781"/>
    </g>
   </g>
   <g id="text_8">
    <!-- 4 hrs 46 mins -->
    <g style="fill: #586069" transform="translate(450.237458 132.453371) scale(0.15 -0.15)">
     <defs>
      <path id="DejaVuSans-Bold-34" d="M 2356 3675 
L 1038 1722 
L 2356 1722 
L 2356 3675 
z
M 2156 4666 
L 3494 4666 
L 3494 1722 
L 4159 1722 
L 4159 850 
L 3494 850 
L 3494 0 
L 2356 0 
L 2356 850 
L 288 850 
L 288 1881 
L 2156 4666 
z
" transform="scale(0.015625)"/>
      <path id="DejaVuSans-Bold-36" d="M 2316 2303 
Q 2000 2303 1842 2098 
Q 1684 1894 1684 1484 
Q 1684 1075 1842 870 
Q 2000 666 2316 666 
Q 2634 666 2792 870 
Q 2950 1075 2950 1484 
Q 2950 1894 2792 2098 
Q 2634 2303 2316 2303 
z
M 3803 4544 
L 3803 3681 
Q 3506 3822 3243 3889 
Q 2981 3956 2731 3956 
Q 2194 3956 1894 3657 
Q 1594 3359 1544 2772 
Q 1750 2925 1990 3001 
Q 2231 3078 2516 3078 
Q 3231 3078 3670 2659 
Q 4109 2241 4109 1563 
Q 4109 813 3618 361 
Q 3128 -91 2303 -91 
Q 1394 -91 895 523 
Q 397 1138 397 2266 
Q 397 3422 980 4083 
Q 1563 4744 2578 4744 
Q 2900 4744 3203 4694 
Q 3506 4644 3803 4544 
z
" transform="scale(0.015625)"/>
     </defs>
     <use xlink:href="#DejaVuSans-Bold-34"/>
     <use xlink:href="#DejaVuSans-Bold-20" x="69.580078"/>
     <use xlink:href="#DejaVuSans-Bold-68" x="104.394531"/>
     <use xlink:href="#DejaVuSans-Bold-72" x="175.585938"/>
     <use xlink:href="#DejaVuSans-Bold-73" x="224.902344"/>
     <use xlink:href="#DejaVuSans-Bold-20" x="284.423828"/>
     <use xlink:href="#DejaVuSans-Bold-34" x="319.238281"/>
     <use xlink:href="#DejaVuSans-Bold-36" x="388.818359"/>
     <use xlink:href="#DejaVuSans-Bold-20" x="458.398438"/>
     <use xlink:href="#DejaVuSans-Bold-6d" x="493.212891"/>
     <use xlink:href="#DejaVuSans-Bold-69" x="597.412109"/>
     <use xlink:href="#DejaVuSans-Bold-6e" x="631.689453"/>
     <use xlink:href="#DejaVuSans-Bold-73" x="702.880859"/>
    </g>
   </g>
   <g id="text_9">
    <!-- 54 mins -->
    <g style="fill: #586069" transform="translate(231.322448 179.662753) scale(0.15 -0.15)">
     <defs>
      <path id="DejaVuSans-Bold-35" d="M 678 4666 
L 3669 4666 
L 3669 3781 
L 1638 3781 
L 1638 3059 
Q 1775 3097 1914 3117 
Q 2053 3138 2203 3138 
Q 3056 3138 3531 2711 
Q 4006 2284 4006 1522 
Q 4006 766 3489 337 
Q 2972 -91 2053 -91 
Q 1656 -91 1267 -14 
Q 878 63 494 219 
L 494 1166 
Q 875 947 1217 837 
Q 1559 728 1863 728 
Q 2300 728 2551 942 
Q 2803 1156 2803 1522 
Q 2803 1891 2551 2103 
Q 2300 2316 1863 2316 
Q 1603 2316 1309 2248 
Q 1016 2181 678 2041 
L 678 4666 
z
" transform="scale(0.015625)"/>
     </defs>
     <use xlink:href="#DejaVuSans-Bold-35"/>
     <use xlink:href="#DejaVuSans-Bold-34" x="69.580078"/>
     <use xlink:href="#DejaVuSans-Bold-20" x="139.160156"/>
     <use xlink:href="#DejaVuSans-Bold-6d" x="173.974609"/>
     <use xlink:href="#DejaVuSans-Bold-69" x="278.173828"/>
     <use xlink:href="#DejaVuSans-Bold-6e" x="312.451172"/>
     <use xlink:href="#DejaVuSans-Bold-73" x="383.642578"/>
    </g>
   </g>
   <g id="text_10">
    <!-- 18 mins -->
    <g style="fill: #586069" transform="translate(197.099404 226.872136) scale(0.15 -0.15)">
     <defs>
      <path id="DejaVuSans-Bold-31" d="M 750 831 
L 1813 831 
L 1813 3847 
L 722 3622 
L 722 4441 
L 1806 4666 
L 2950 4666 
L 2950 831 
L 4013 831 
L 4013 0 
L 750 0 
L 750 831 
z
" transform="scale(0.015625)"/>
     </defs>
     <use xlink:href="#DejaVuSans-Bold-31"/>
     <use xlink:href="#DejaVuSans-Bold-38" x="69.580078"/>
     <use xlink:href="#DejaVuSans-Bold-20" x="139.160156"/>
     <use xlink:href="#DejaVuSans-Bold-6d" x="173.974609"/>
     <use xlink:href="#DejaVuSans-Bold-69" x="278.173828"/>
     <use xlink:href="#DejaVuSans-Bold-6e" x="312.451172"/>
     <use xlink:href="#DejaVuSans-Bold-73" x="383.642578"/>
    </g>
   </g>
   <g id="text_11">
    <!-- 2 mins -->
    <g style="fill: #586069" transform="translate(181.835605 274.081518) scale(0.15 -0.15)">
     <use xlink:href="#DejaVuSans-Bold-32"/>
     <use xlink:href="#DejaVuSans-Bold-20" x="69.580078"/>
     <use xlink:href="#DejaVuSans-Bold-6d" x="104.394531"/>
     <use xlink:href="#DejaVuSans-Bold-69" x="208.59375"/>
     <use xlink:href="#DejaVuSans-Bold-6e" x="242.871094"/>
     <use xlink:href="#DejaVuSans-Bold-73" x="314.0625"/>
    </g>
   </g>
   <g id="text_12">
    <!-- 0 secs -->
    <g style="fill: #586069" transform="translate(180.630569 321.290901) scale(0.15 -0.15)">
     <defs>
      <path id="DejaVuSans-Bold-30" d="M 2944 2338 
Q 2944 3213 2780 3570 
Q 2616 3928 2228 3928 
Q 1841 3928 1675 3570 
Q 1509 3213 1509 2338 
Q 1509 1453 1675 1090 
Q 1841 728 2228 728 
Q 2613 728 2778 1090 
Q 2944 1453 2944 2338 
z
M 4147 2328 
Q 4147 1169 3647 539 
Q 3147 -91 2228 -91 
Q 1306 -91 806 539 
Q 306 1169 306 2328 
Q 306 3491 806 4120 
Q 1306 4750 2228 4750 
Q 3147 4750 3647 4120 
Q 4147 3491 4147 2328 
z
" transform="scale(0.015625)"/>
      <path id="DejaVuSans-Bold-63" d="M 3366 3391 
L 3366 2478 
Q 3138 2634 2908 2709 
Q 2678 2784 2431 2784 
Q 1963 2784 1702 2511 
Q 1441 2238 1441 1747 
Q 1441 1256 1702 982 
Q 1963 709 2431 709 
Q 2694 709 2930 787 
Q 3166 866 3366 1019 
L 3366 103 
Q 3103 6 2833 -42 
Q 2563 -91 2291 -91 
Q 1344 -91 809 395 
Q 275 881 275 1747 
Q 275 2613 809 3098 
Q 1344 3584 2291 3584 
Q 2566 3584 2833 3536 
Q 3100 3488 3366 3391 
z
" transform="scale(0.015625)"/>
     </defs>
     <use xlink:href="#DejaVuSans-Bold-30"/>
     <use xlink:href="#DejaVuSans-Bold-20" x="69.580078"/>
     <use xlink:href="#DejaVuSans-Bold-73" x="104.394531"/>
     <use xlink:href="#DejaVuSans-Bold-65" x="163.916016"/>
     <use xlink:href="#DejaVuSans-Bold-63" x="231.738281"/>
     <use xlink:href="#DejaVuSans-Bold-73" x="291.015625"/>
    </g>
   </g>
   <g id="text_13">
    <!-- Projects touched : -->
    <g style="fill: #2a475e" transform="translate(356.123156 50.32) scale(0.12 -0.12)">
     <defs>
      <path id="DejaVuSans-Bold-6a" d="M 538 3500 
L 1656 3500 
L 1656 63 
Q 1656 -641 1318 -1011 
Q 981 -1381 341 -1381 
L -213 -1381 
L -213 -647 
L -19 -647 
Q 300 -647 419 -503 
Q 538 -359 538 63 
L 538 3500 
z
M 538 4863 
L 1656 4863 
L 1656 3950 
L 538 3950 
L 538 4863 
z
" transform="scale(0.015625)"/>
      <path id="DejaVuSans-Bold-75" d="M 500 1363 
L 500 3500 
L 1625 3500 
L 1625 3150 
Q 1625 2866 1622 2436 
Q 1619 2006 1619 1863 
Q 1619 1441 1641 1255 
Q 1663 1069 1716 984 
Q 1784 875 1895 815 
Q 2006 756 2150 756 
Q 2500 756 2700 1025 
Q 2900 1294 2900 1772 
L 2900 3500 
L 4019 3500 
L 4019 0 
L 2900 0 
L 2900 506 
Q 2647 200 2364 54 
Q 2081 -91 1741 -91 
Q 1134 -91 817 281 
Q 500 653 500 1363 
z
" transform="scale(0.015625)"/>
      <path id="DejaVuSans-Bold-3a" d="M 716 3500 
L 1844 3500 
L 1844 2291 
L 716 2291 
L 716 3500 
z
M 716 1209 
L 1844 1209 
L 1844 0 
L 716 0 
L 716 1209 
z
" transform="scale(0.015625)"/>
     </defs>
     <use xlink:href="#DejaVuSans-Bold-50"/>
     <use xlink:href="#DejaVuSans-Bold-72" x="73.291016"/>
     <use xlink:href="#DejaVuSans-Bold-6f" x="122.607422"/>
     <use xlink:href="#DejaVuSans-Bold-6a" x="191.308594"/>
     <use xlink:href="#DejaVuSans-Bold-65" x="225.585938"/>
     <use xlink:href="#DejaVuSans-Bold-63" x="293.408203"/>
     <use xlink:href="#DejaVuSans-Bold-74" x="352.685547"/>
     <use xlink:href="#DejaVuSans-Bold-73" x="400.488281"/>
     <use xlink:href="#DejaVuSans-Bold-20" x="460.009766"/>
     <use xlink:href="#DejaVuSans-Bold-74" x="494.824219"/>
     <use xlink:href="#DejaVuSans-Bold-6f" x="542.626953"/>
     <use xlink:href="#DejaVuSans-Bold-75" x="611.328125"/>
     <use xlink:href="#DejaVuSans-Bold-63" x="682.519531"/>
     <use xlink:href="#DejaVuSans-Bold-68" x="741.796875"/>
     <use xlink:href="#DejaVuSans-Bold-65" x="812.988281"/>
     <use xlink:href="#DejaVuSans-Bold-64" x="880.810547"/>
     <use xlink:href="#DejaVuSans-Bold-20" x="952.392578"/>
     <use xlink:href="#DejaVuSans-Bold-3a" x="987.207031"/>
    </g>
   </g>
  </g>
  <g id="axes_2">
   <g id="patch_11">
    <path d="M 822.629462 75.922346 
L 890.896999 75.922346 
L 906.193922 109.306404 
" style="fill: none; stroke: #000000; stroke-linecap: round"/>
   </g>
   <g id="text_14">
    <g id="patch_12">
     <path d="M 744.47222 85.329221 
L 820.26722 85.329221 
L 820.26722 66.515471 
L 744.47222 66.515471 
z
" style="fill: #ffffff; stroke: #000000; stroke-width: 0.72; stroke-linejoin: miter"/>
    </g>
    <!-- JavaScript -->
    <g style="fill: #2a475e" transform="translate(748.07222 79.233596) scale(0.12 -0.12)">
     <defs>
      <path id="DejaVuSans-Bold-4a" d="M 588 4666 
L 1791 4666 
L 1791 453 
Q 1791 -419 1317 -850 
Q 844 -1281 -116 -1281 
L -359 -1281 
L -359 -372 
L -172 -372 
Q 203 -372 395 -162 
Q 588 47 588 453 
L 588 4666 
z
" transform="scale(0.015625)"/>
      <path id="DejaVuSans-Bold-76" d="M 97 3500 
L 1216 3500 
L 2088 1081 
L 2956 3500 
L 4078 3500 
L 2700 0 
L 1472 0 
L 97 3500 
z
" transform="scale(0.015625)"/>
     </defs>
     <use xlink:href="#DejaVuSans-Bold-4a"/>
     <use xlink:href="#DejaVuSans-Bold-61" x="37.207031"/>
     <use xlink:href="#DejaVuSans-Bold-76" x="104.6875"/>
     <use xlink:href="#DejaVuSans-Bold-61" x="169.873047"/>
     <use xlink:href="#DejaVuSans-Bold-53" x="237.353516"/>
     <use xlink:href="#DejaVuSans-Bold-63" x="309.375"/>
     <use xlink:href="#DejaVuSans-Bold-72" x="368.652344"/>
     <use xlink:href="#DejaVuSans-Bold-69" x="417.96875"/>
     <use xlink:href="#DejaVuSans-Bold-70" x="452.246094"/>
     <use xlink:href="#DejaVuSans-Bold-74" x="523.828125"/>
    </g>
   </g>
   <g id="patch_13">
    <path d="M 822.630132 328.997267 
L 908.61005 328.997267 
L 919.107417 293.80784 
" style="fill: none; stroke: #000000; stroke-linecap: round"/>
   </g>
   <g id="text_15">
    <g id="patch_14">
     <path d="M 765.159095 338.451017 
L 820.26722 338.451017 
L 820.26722 319.543517 
L 765.159095 319.543517 
z
" style="fill: #ffffff; stroke: #000000; stroke-width: 0.72; stroke-linejoin: miter"/>
    </g>
    <!-- Python -->
    <g style="fill: #2a475e" transform="translate(768.759095 332.261642) scale(0.12 -0.12)">
     <defs>
      <path id="DejaVuSans-Bold-79" d="M 78 3500 
L 1197 3500 
L 2138 1125 
L 2938 3500 
L 4056 3500 
L 2584 -331 
Q 2363 -916 2067 -1148 
Q 1772 -1381 1288 -1381 
L 641 -1381 
L 641 -647 
L 991 -647 
Q 1275 -647 1404 -556 
Q 1534 -466 1606 -231 
L 1638 -134 
L 78 3500 
z
" transform="scale(0.015625)"/>
     </defs>
     <use xlink:href="#DejaVuSans-Bold-50"/>
     <use xlink:href="#DejaVuSans-Bold-79" x="75.166016"/>
     <use xlink:href="#DejaVuSans-Bold-74" x="140.351562"/>
     <use xlink:href="#DejaVuSans-Bold-68" x="188.154297"/>
     <use xlink:href="#DejaVuSans-Bold-6f" x="259.345703"/>
     <use xlink:href="#DejaVuSans-Bold-6e" x="328.046875"/>
    </g>
   </g>
   <g id="patch_15">
    <path d="M 1072.072515 297.28378 
L 1040.798221 297.28378 
L 1015.477733 270.687478 
" style="fill: none; stroke: #000000; stroke-linecap: round"/>
   </g>
   <g id="text_16">
    <g id="patch_16">
     <path d="M 1074.435358 306.690655 
L 1107.410983 306.690655 
L 1107.410983 287.876905 
L 1074.435358 287.876905 
z
" style="fill: #ffffff; stroke: #000000; stroke-width: 0.72; stroke-linejoin: miter"/>
    </g>
    <!-- CSS -->
    <g style="fill: #2a475e" transform="translate(1078.035358 300.59503) scale(0.12 -0.12)">
     <use xlink:href="#DejaVuSans-Bold-43"/>
     <use xlink:href="#DejaVuSans-Bold-53" x="75.263672"/>
     <use xlink:href="#DejaVuSans-Bold-53" x="142.785156"/>
    </g>
   </g>
   <g id="patch_17">
    <path d="M 1072.115089 224.257525 
L 1044.206367 218.636331 
" style="fill: none; stroke: #000000; stroke-linecap: round"/>
   </g>
   <g id="text_17">
    <g id="patch_18">
     <path d="M 1074.435358 235.294324 
L 1152.035983 235.294324 
L 1152.035983 216.480574 
L 1074.435358 216.480574 
z
" style="fill: #ffffff; stroke: #000000; stroke-width: 0.72; stroke-linejoin: miter"/>
    </g>
    <!-- Markdown -->
    <g style="fill: #2a475e" transform="translate(1078.035358 229.198699) scale(0.12 -0.12)">
     <use xlink:href="#DejaVuSans-Bold-4d"/>
     <use xlink:href="#DejaVuSans-Bold-61" x="99.511719"/>
     <use xlink:href="#DejaVuSans-Bold-72" x="166.992188"/>
     <use xlink:href="#DejaVuSans-Bold-6b" x="216.308594"/>
     <use xlink:href="#DejaVuSans-Bold-64" x="282.8125"/>
     <use xlink:href="#DejaVuSans-Bold-6f" x="354.394531"/>
     <use xlink:href="#DejaVuSans-Bold-77" x="423.095703"/>
     <use xlink:href="#DejaVuSans-Bold-6e" x="515.478516"/>
    </g>
   </g>
   <g id="patch_19">
    <path d="M 1072.077859 190.861972 
L 1045.937843 192.594436 
" style="fill: none; stroke: #000000; stroke-linecap: round"/>
   </g>
   <g id="text_18">
    <g id="patch_20">
     <path d="M 1074.435358 199.572885 
L 1119.452233 199.572885 
L 1119.452233 180.759135 
L 1074.435358 180.759135 
z
" style="fill: #ffffff; stroke: #000000; stroke-width: 0.72; stroke-linejoin: miter"/>
    </g>
    <!-- HTML -->
    <g style="fill: #2a475e" transform="translate(1078.035358 193.47726) scale(0.12 -0.12)">
     <defs>
      <path id="DejaVuSans-Bold-48" d="M 588 4666 
L 1791 4666 
L 1791 2888 
L 3566 2888 
L 3566 4666 
L 4769 4666 
L 4769 0 
L 3566 0 
L 3566 1978 
L 1791 1978 
L 1791 0 
L 588 0 
L 588 4666 
z
" transform="scale(0.015625)"/>
      <path id="DejaVuSans-Bold-4c" d="M 588 4666 
L 1791 4666 
L 1791 909 
L 3903 909 
L 3903 0 
L 588 0 
L 588 4666 
z
" transform="scale(0.015625)"/>
     </defs>
     <use xlink:href="#DejaVuSans-Bold-48"/>
     <use xlink:href="#DejaVuSans-Bold-54" x="83.691406"/>
     <use xlink:href="#DejaVuSans-Bold-4d" x="151.904297"/>
     <use xlink:href="#DejaVuSans-Bold-4c" x="251.416016"/>
    </g>
   </g>
   <g id="patch_21">
    <path d="M 1040.747586 184.254776 
C 1038.178769 169.686295 1032.304324 155.898662 1023.576859 143.954174 
C 1014.849393 132.009685 1003.498957 122.223189 990.400066 115.348705 
C 977.301176 108.474221 962.799109 104.692956 948.011206 104.296245 
C 933.223303 103.899533 918.539362 106.897832 905.090737 113.060132 
C 891.642112 119.222432 879.783299 128.386299 870.427983 139.845685 
C 861.072667 151.305071 854.467449 164.757915 851.121239 179.167715 
C 847.775029 193.577515 847.776032 208.56444 851.124171 222.973792 
C 854.472309 237.383144 861.079329 250.835103 870.436178 262.293236 
L 907.925703 231.678839 
C 903.247279 225.949773 899.943769 219.223793 898.2697 212.019117 
C 896.59563 204.814441 896.595129 197.320979 898.268234 190.116079 
C 899.941339 182.911179 903.243948 176.184757 907.921606 170.455064 
C 912.599264 164.725371 918.52867 160.143437 925.252983 157.062287 
C 931.977295 153.981137 939.319266 152.481988 946.713217 152.680343 
C 954.107169 152.878699 961.358202 154.769332 967.907648 158.206574 
C 974.457093 161.643816 980.132311 166.537064 984.496044 172.509308 
C 988.859776 178.481552 991.796999 185.375368 993.081407 192.659609 
z
" style="fill: #092436; opacity: 0.5; stroke: #092436; stroke-width: 4; stroke-linejoin: miter"/>
   </g>
   <g id="patch_22">
    <path d="M 867.668955 271.569592 
C 879.92449 286.577374 896.408212 297.565427 914.975725 303.104304 
C 933.543237 308.643174 953.352895 308.481813 971.827716 302.641211 
L 957.237858 256.491002 
C 948.000448 259.411303 938.095619 259.491984 928.811863 256.722548 
C 919.528106 253.95311 911.286246 248.459084 905.158478 240.955193 
z
" style="fill: #4d2604; opacity: 0.5; stroke: #4d2604; stroke-width: 4; stroke-linejoin: miter"/>
   </g>
   <g id="patch_23">
    <path d="M 981.269721 300.375963 
C 995.317255 295.934997 1008.167338 288.34516 1018.837787 278.186577 
C 1029.508236 268.027994 1037.720103 255.566231 1042.845716 241.753793 
L 997.467861 224.914669 
C 994.905055 231.820888 990.799121 238.05177 985.463897 243.131061 
C 980.128673 248.210353 973.703631 252.005271 966.679864 254.225754 
z
" style="fill: #0d300d; opacity: 0.5; stroke: #0d300d; stroke-width: 4; stroke-linejoin: miter"/>
   </g>
   <g id="patch_24">
    <path d="M 1045.660665 236.654052 
C 1047.419356 231.914755 1048.804112 227.044995 1049.802231 222.089425 
C 1050.80035 217.133855 1051.408764 212.107682 1051.621893 207.057088 
L 1003.263424 205.016446 
C 1003.15686 207.541743 1002.852653 210.054829 1002.353593 212.532615 
C 1001.854534 215.0104 1001.162156 217.44528 1000.282811 219.814928 
z
" style="fill: #400c0c; opacity: 0.5; stroke: #400c0c; stroke-width: 4; stroke-linejoin: miter"/>
   </g>
   <g id="patch_25">
    <path d="M 1051.791276 204.505552 
C 1051.93872 201.011503 1051.896715 197.51203 1051.66544 194.022527 
C 1051.434164 190.533025 1051.013971 187.058617 1050.406694 183.614588 
L 1002.740516 192.019428 
C 1003.044155 193.741443 1003.254252 195.478646 1003.369889 197.223398 
C 1003.485527 198.968149 1003.506529 200.717886 1003.432807 202.46491 
z
" style="fill: #2c1f39; opacity: 0.5; stroke: #2c1f39; stroke-width: 4; stroke-linejoin: miter"/>
   </g>
   <g id="patch_26">
    <path d="M 1042.683646 182.318715 
C 1040.11483 167.750234 1034.240385 153.962602 1025.512919 142.018114 
C 1016.785453 130.073625 1005.435017 120.287129 992.336127 113.412645 
C 979.237236 106.538161 964.735169 102.756896 949.947266 102.360184 
C 935.159363 101.963473 920.475422 104.961772 907.026797 111.124072 
C 893.578172 117.286372 881.719359 126.450239 872.364043 137.909625 
C 863.008728 149.369011 856.403509 162.821854 853.057299 177.231655 
C 849.711089 191.641455 849.712092 206.628379 853.060231 221.037731 
C 856.408369 235.447083 863.015389 248.899043 872.372239 260.357176 
L 909.861764 229.742779 
C 905.183339 224.013712 901.879829 217.287733 900.20576 210.083057 
C 898.531691 202.878381 898.531189 195.384918 900.204294 188.180018 
C 901.877399 180.975118 905.180008 174.248697 909.857666 168.519004 
C 914.535324 162.789311 920.464731 158.207377 927.189043 155.126227 
C 933.913356 152.045077 941.255326 150.545927 948.649278 150.744283 
C 956.043229 150.942639 963.294263 152.833272 969.843708 156.270514 
C 976.393153 159.707756 982.068371 164.601004 986.432104 170.573248 
C 990.795837 176.545492 993.733059 183.439308 995.017467 190.723549 
z
" style="fill: #1f77b4; stroke: #ffffff; stroke-width: 4; stroke-linejoin: miter"/>
   </g>
   <g id="patch_27">
    <path d="M 869.605015 269.633532 
C 881.86055 284.641314 898.344272 295.629367 916.911785 301.168243 
C 935.479298 306.707114 955.288955 306.545752 973.763776 300.70515 
L 959.173919 254.554942 
C 949.936508 257.475243 940.03168 257.555923 930.747923 254.786488 
C 921.464167 252.01705 913.222306 246.523023 907.094538 239.019132 
z
" style="fill: #ff7f0e; stroke: #ffffff; stroke-width: 4; stroke-linejoin: miter"/>
   </g>
   <g id="patch_28">
    <path d="M 983.205781 298.439903 
C 997.253315 293.998936 1010.103399 286.4091 1020.773848 276.250517 
C 1031.444296 266.091934 1039.656164 253.630171 1044.781776 239.817732 
L 999.403922 222.978609 
C 996.841115 229.884828 992.735182 236.11571 987.399957 241.195001 
C 982.064733 246.274293 975.639691 250.069211 968.615924 252.289694 
z
" style="fill: #2ca02c; stroke: #ffffff; stroke-width: 4; stroke-linejoin: miter"/>
   </g>
   <g id="patch_29">
    <path d="M 1047.596725 234.717991 
C 1049.355417 229.978695 1050.740172 225.108935 1051.738291 220.153364 
C 1052.73641 215.197794 1053.344824 210.171621 1053.557953 205.121028 
L 1005.199485 203.080386 
C 1005.09292 205.605683 1004.788713 208.118769 1004.289654 210.596554 
C 1003.790594 213.074339 1003.098216 215.509219 1002.218871 217.878868 
z
" style="fill: #d62728; stroke: #ffffff; stroke-width: 4; stroke-linejoin: miter"/>
   </g>
   <g id="patch_30">
    <path d="M 1053.727336 202.569492 
C 1053.87478 199.075443 1053.832775 195.57597 1053.6015 192.086467 
C 1053.370225 188.596964 1052.950031 185.122557 1052.342754 181.678528 
L 1004.676576 190.083368 
C 1004.980215 191.805382 1005.190312 193.542586 1005.305949 195.287338 
C 1005.421587 197.032089 1005.44259 198.781825 1005.368867 200.52885 
z
" style="fill: #9467bd; stroke: #ffffff; stroke-width: 4; stroke-linejoin: miter"/>
   </g>
   <g id="matplotlib.axis_3"/>
   <g id="matplotlib.axis_4"/>
   <g id="text_19">
    <!-- Languages -->
    <g style="fill: #2a475e" transform="translate(916.773164 201.809632) scale(0.1 -0.1)">
     <use xlink:href="#DejaVuSans-Bold-4c"/>
     <use xlink:href="#DejaVuSans-Bold-61" x="63.720703"/>
     <use xlink:href="#DejaVuSans-Bold-6e" x="131.201172"/>
     <use xlink:href="#DejaVuSans-Bold-67" x="202.392578"/>
     <use xlink:href="#DejaVuSans-Bold-75" x="273.974609"/>
     <use xlink:href="#DejaVuSans-Bold-61" x="345.166016"/>
     <use xlink:href="#DejaVuSans-Bold-67" x="412.646484"/>
     <use xlink:href="#DejaVuSans-Bold-65" x="484.228516"/>
     <use xlink:href="#DejaVuSans-Bold-73" x="552.050781"/>
    </g>
   </g>
   <g id="text_20">
    <!-- Languages exploited : -->
    <g style="fill: #2a475e" transform="translate(872.378476 72.124617) scale(0.12 -0.12)">
     <defs>
      <path id="DejaVuSans-Bold-78" d="M 1422 1791 
L 159 3500 
L 1344 3500 
L 2059 2463 
L 2784 3500 
L 3969 3500 
L 2706 1797 
L 4031 0 
L 2847 0 
L 2059 1106 
L 1281 0 
L 97 0 
L 1422 1791 
z
" transform="scale(0.015625)"/>
     </defs>
     <use xlink:href="#DejaVuSans-Bold-4c"/>
     <use xlink:href="#DejaVuSans-Bold-61" x="63.720703"/>
     <use xlink:href="#DejaVuSans-Bold-6e" x="131.201172"/>
     <use xlink:href="#DejaVuSans-Bold-67" x="202.392578"/>
     <use xlink:href="#DejaVuSans-Bold-75" x="273.974609"/>
     <use xlink:href="#DejaVuSans-Bold-61" x="345.166016"/>
     <use xlink:href="#DejaVuSans-Bold-67" x="412.646484"/>
     <use xlink:href="#DejaVuSans-Bold-65" x="484.228516"/>
     <use xlink:href="#DejaVuSans-Bold-73" x="552.050781"/>
     <use xlink:href="#DejaVuSans-Bold-20" x="611.572266"/>
     <use xlink:href="#DejaVuSans-Bold-65" x="646.386719"/>
     <use xlink:href="#DejaVuSans-Bold-78" x="714.208984"/>
     <use xlink:href="#DejaVuSans-Bold-70" x="778.710938"/>
     <use xlink:href="#DejaVuSans-Bold-6c" x="850.292969"/>
     <use xlink:href="#DejaVuSans-Bold-6f" x="884.570312"/>
     <use xlink:href="#DejaVuSans-Bold-69" x="953.271484"/>
     <use xlink:href="#DejaVuSans-Bold-74" x="987.548828"/>
     <use xlink:href="#DejaVuSans-Bold-65" x="1035.351562"/>
     <use xlink:href="#DejaVuSans-Bold-64" x="1103.173828"/>
     <use xlink:href="#DejaVuSans-Bold-20" x="1174.755859"/>
     <use xlink:href="#DejaVuSans-Bold-3a" x="1209.570312"/>
    </g>
   </g>
  </g>
  <g id="text_21">
   <!-- From 17 May, 2026 to 24 May, 2026: 14 hrs 10 mins -->
   <g transform="translate(142.593125 29.995312) scale(0.3 -0.3)">
    <defs>
     <path id="DejaVuSans-Bold-37" d="M 428 4666 
L 3944 4666 
L 3944 3988 
L 2125 0 
L 953 0 
L 2675 3781 
L 428 3781 
L 428 4666 
z
" transform="scale(0.015625)"/>
     <path id="DejaVuSans-Bold-2c" d="M 653 1209 
L 1778 1209 
L 1778 256 
L 1006 -909 
L 341 -909 
L 653 256 
L 653 1209 
z
" transform="scale(0.015625)"/>
    </defs>
    <use xlink:href="#DejaVuSans-Bold-46"/>
    <use xlink:href="#DejaVuSans-Bold-72" x="61.935547"/>
    <use xlink:href="#DejaVuSans-Bold-6f" x="111.251953"/>
    <use xlink:href="#DejaVuSans-Bold-6d" x="179.953125"/>
    <use xlink:href="#DejaVuSans-Bold-20" x="284.152344"/>
    <use xlink:href="#DejaVuSans-Bold-31" x="318.966797"/>
    <use xlink:href="#DejaVuSans-Bold-37" x="388.546875"/>
    <use xlink:href="#DejaVuSans-Bold-20" x="458.126953"/>
    <use xlink:href="#DejaVuSans-Bold-4d" x="492.941406"/>
    <use xlink:href="#DejaVuSans-Bold-61" x="592.453125"/>
    <use xlink:href="#DejaVuSans-Bold-79" x="656.808594"/>
    <use xlink:href="#DejaVuSans-Bold-2c" x="714.244141"/>
    <use xlink:href="#DejaVuSans-Bold-20" x="752.232422"/>
    <use xlink:href="#DejaVuSans-Bold-32" x="787.046875"/>
    <use xlink:href="#DejaVuSans-Bold-30" x="856.626953"/>
    <use xlink:href="#DejaVuSans-Bold-32" x="926.207031"/>
    <use xlink:href="#DejaVuSans-Bold-36" x="995.787109"/>
    <use xlink:href="#DejaVuSans-Bold-20" x="1065.367188"/>
    <use xlink:href="#DejaVuSans-Bold-74" x="1100.181641"/>
    <use xlink:href="#DejaVuSans-Bold-6f" x="1147.984375"/>
    <use xlink:href="#DejaVuSans-Bold-20" x="1216.685547"/>
    <use xlink:href="#DejaVuSans-Bold-32" x="1251.5"/>
    <use xlink:href="#DejaVuSans-Bold-34" x="1321.080078"/>
    <use xlink:href="#DejaVuSans-Bold-20" x="1390.660156"/>
    <use xlink:href="#DejaVuSans-Bold-4d" x="1425.474609"/>
    <use xlink:href="#DejaVuSans-Bold-61" x="1524.986328"/>
    <use xlink:href="#DejaVuSans-Bold-79" x="1589.341797"/>
    <use xlink:href="#DejaVuSans-Bold-2c" x="1646.777344"/>
    <use xlink:href="#DejaVuSans-Bold-20" x="1684.765625"/>
    <use xlink:href="#DejaVuSans-Bold-32" x="1719.580078"/>
    <use xlink:href="#DejaVuSans-Bold-30" x="1789.160156"/>
    <use xlink:href="#DejaVuSans-Bold-32" x="1858.740234"/>
    <use xlink:href="#DejaVuSans-Bold-36" x="1928.320312"/>
    <use xlink:href="#DejaVuSans-Bold-3a" x="1997.900391"/>
    <use xlink:href="#DejaVuSans-Bold-20" x="2037.890625"/>
    <use xlink:href="#DejaVuSans-Bold-31" x="2072.705078"/>
    <use xlink:href="#DejaVuSans-Bold-34" x="2142.285156"/>
    <use xlink:href="#DejaVuSans-Bold-20" x="2211.865234"/>
    <use xlink:href="#DejaVuSans-Bold-68" x="2246.679688"/>
    <use xlink:href="#DejaVuSans-Bold-72" x="2317.871094"/>
    <use xlink:href="#DejaVuSans-Bold-73" x="2367.1875"/>
    <use xlink:href="#DejaVuSans-Bold-20" x="2426.708984"/>
    <use xlink:href="#DejaVuSans-Bold-31" x="2461.523438"/>
    <use xlink:href="#DejaVuSans-Bold-30" x="2531.103516"/>
    <use xlink:href="#DejaVuSans-Bold-20" x="2600.683594"/>
    <use xlink:href="#DejaVuSans-Bold-6d" x="2635.498047"/>
    <use xlink:href="#DejaVuSans-Bold-69" x="2739.697266"/>
    <use xlink:href="#DejaVuSans-Bold-6e" x="2773.974609"/>
    <use xlink:href="#DejaVuSans-Bold-73" x="2845.166016"/>
   </g>
  </g>
 </g>
 <defs>
  <clipPath id="pa9008a792d">
   <rect x="175.746875" y="56.32" width="484.015061" height="285.616764"/>
  </clipPath>
 </defs>
</svg>
