<?xml version="1.0" encoding="utf-8" standalone="no"?>
<!DOCTYPE svg PUBLIC "-//W3C//DTD SVG 1.1//EN"
  "http://www.w3.org/Graphics/SVG/1.1/DTD/svg11.dtd">
<svg xmlns:xlink="http://www.w3.org/1999/xlink" width="1153.237358pt" height="362.2pt" viewBox="0 0 1153.237358 362.2" xmlns="http://www.w3.org/2000/svg" version="1.1">
 <metadata>
  <rdf:RDF xmlns:dc="http://purl.org/dc/elements/1.1/" xmlns:cc="http://creativecommons.org/ns#" xmlns:rdf="http://www.w3.org/1999/02/22-rdf-syntax-ns#">
   <cc:Work>
    <dc:type rdf:resource="http://purl.org/dc/dcmitype/StillImage"/>
    <dc:date>2024-03-06T08:08:22.812824</dc:date>
    <dc:format>image/svg+xml</dc:format>
    <dc:creator>
     <cc:Agent>
      <dc:title>Matplotlib v3.5.1, https://matplotlib.org/</dc:title>
     </cc:Agent>
    </dc:creator>
   </cc:Work>
  </rdf:RDF>
 </metadata>
 <defs>
  <style type="text/css">*{stroke-linejoin: round; stroke-linecap: butt}</style>
 </defs>
 <g id="figure_1">
  <g id="patch_1">
   <path d="M 0 362.2 
L 1153.237358 362.2 
L 1153.237358 0 
L 0 0 
L 0 362.2 
z
" style="fill: none"/>
  </g>
  <g id="axes_1">
   <g id="patch_2">
    <path d="M 339.24375 351.5 
L 723.358815 351.5 
L 723.358815 56.32 
L 339.24375 56.32 
L 339.24375 351.5 
z
" style="fill: none"/>
   </g>
   <g id="patch_3">
    <path d="M 339.24375 69.737273 
L 705.067621 69.737273 
L 705.067621 94.132314 
L 339.24375 94.132314 
z
" clip-path="url(#p090fbe46ba)" style="fill: #4ea67a; stroke: #4ea67a; stroke-linejoin: miter"/>
   </g>
   <g id="patch_4">
    <path d="M 339.24375 118.527355 
L 372.512326 118.527355 
L 372.512326 142.922397 
L 339.24375 142.922397 
z
" clip-path="url(#p090fbe46ba)" style="fill: #41e3b4; stroke: #41e3b4; stroke-linejoin: miter"/>
   </g>
   <g id="patch_5">
    <path d="M 339.24375 167.317438 
L 355.247457 167.317438 
L 355.247457 191.712479 
L 339.24375 191.712479 
z
" clip-path="url(#p090fbe46ba)" style="fill: #1864af; stroke: #1864af; stroke-linejoin: miter"/>
   </g>
   <g id="patch_6">
    <path d="M 339.24375 216.107521 
L 350.811647 216.107521 
L 350.811647 240.502562 
L 339.24375 240.502562 
z
" clip-path="url(#p090fbe46ba)" style="fill: #493088; stroke: #493088; stroke-linejoin: miter"/>
   </g>
   <g id="patch_7">
    <path d="M 339.24375 264.897603 
L 342.418398 264.897603 
L 342.418398 289.292645 
L 339.24375 289.292645 
z
" clip-path="url(#p090fbe46ba)" style="fill: #3515a6; stroke: #3515a6; stroke-linejoin: miter"/>
   </g>
   <g id="patch_8">
    <path d="M 339.24375 313.687686 
L 341.200725 313.687686 
L 341.200725 338.082727 
L 339.24375 338.082727 
z
" clip-path="url(#p090fbe46ba)" style="fill: #11cc0b; stroke: #11cc0b; stroke-linejoin: miter"/>
   </g>
   <g id="matplotlib.axis_1"/>
   <g id="matplotlib.axis_2">
    <g id="ytick_1">
     <g id="line2d_1">
      <defs>
       <path id="m81d445af69" d="M 0 0 
L -3.5 0 
" style="stroke: #000000; stroke-width: 0.8"/>
      </defs>
      <g>
       <use xlink:href="#m81d445af69" x="339.24375" y="81.934793" style="stroke: #000000; stroke-width: 0.8"/>
      </g>
     </g>
     <g id="text_1">
      <!-- CVSampler -->
      <g style="fill: #586069" transform="translate(208.746875 89.533231)scale(0.2 -0.2)">
       <defs>
        <path id="DejaVuSans-Bold-43" d="M 4288 256 
Q 3956 84 3597 -3 
Q 3238 -91 2847 -91 
Q 1681 -91 1000 561 
Q 319 1213 319 2328 
Q 319 3447 1000 4098 
Q 1681 4750 2847 4750 
Q 3238 4750 3597 4662 
Q 3956 4575 4288 4403 
L 4288 3438 
Q 3953 3666 3628 3772 
Q 3303 3878 2944 3878 
Q 2300 3878 1931 3465 
Q 1563 3053 1563 2328 
Q 1563 1606 1931 1193 
Q 2300 781 2944 781 
Q 3303 781 3628 887 
Q 3953 994 4288 1222 
L 4288 256 
z
" transform="scale(0.015625)"/>
        <path id="DejaVuSans-Bold-56" d="M 31 4666 
L 1241 4666 
L 2478 1222 
L 3713 4666 
L 4922 4666 
L 3194 0 
L 1759 0 
L 31 4666 
z
" transform="scale(0.015625)"/>
        <path id="DejaVuSans-Bold-53" d="M 3834 4519 
L 3834 3531 
Q 3450 3703 3084 3790 
Q 2719 3878 2394 3878 
Q 1963 3878 1756 3759 
Q 1550 3641 1550 3391 
Q 1550 3203 1689 3098 
Q 1828 2994 2194 2919 
L 2706 2816 
Q 3484 2659 3812 2340 
Q 4141 2022 4141 1434 
Q 4141 663 3683 286 
Q 3225 -91 2284 -91 
Q 1841 -91 1394 -6 
Q 947 78 500 244 
L 500 1259 
Q 947 1022 1364 901 
Q 1781 781 2169 781 
Q 2563 781 2772 912 
Q 2981 1044 2981 1288 
Q 2981 1506 2839 1625 
Q 2697 1744 2272 1838 
L 1806 1941 
Q 1106 2091 782 2419 
Q 459 2747 459 3303 
Q 459 4000 909 4375 
Q 1359 4750 2203 4750 
Q 2588 4750 2994 4692 
Q 3400 4634 3834 4519 
z
" transform="scale(0.015625)"/>
        <path id="DejaVuSans-Bold-61" d="M 2106 1575 
Q 1756 1575 1579 1456 
Q 1403 1338 1403 1106 
Q 1403 894 1545 773 
Q 1688 653 1941 653 
Q 2256 653 2472 879 
Q 2688 1106 2688 1447 
L 2688 1575 
L 2106 1575 
z
M 3816 1997 
L 3816 0 
L 2688 0 
L 2688 519 
Q 2463 200 2181 54 
Q 1900 -91 1497 -91 
Q 953 -91 614 226 
Q 275 544 275 1050 
Q 275 1666 698 1953 
Q 1122 2241 2028 2241 
L 2688 2241 
L 2688 2328 
Q 2688 2594 2478 2717 
Q 2269 2841 1825 2841 
Q 1466 2841 1156 2769 
Q 847 2697 581 2553 
L 581 3406 
Q 941 3494 1303 3539 
Q 1666 3584 2028 3584 
Q 2975 3584 3395 3211 
Q 3816 2838 3816 1997 
z
" transform="scale(0.015625)"/>
        <path id="DejaVuSans-Bold-6d" d="M 3781 2919 
Q 3994 3244 4286 3414 
Q 4578 3584 4928 3584 
Q 5531 3584 5847 3212 
Q 6163 2841 6163 2131 
L 6163 0 
L 5038 0 
L 5038 1825 
Q 5041 1866 5042 1909 
Q 5044 1953 5044 2034 
Q 5044 2406 4934 2573 
Q 4825 2741 4581 2741 
Q 4263 2741 4089 2478 
Q 3916 2216 3909 1719 
L 3909 0 
L 2784 0 
L 2784 1825 
Q 2784 2406 2684 2573 
Q 2584 2741 2328 2741 
Q 2006 2741 1831 2477 
Q 1656 2213 1656 1722 
L 1656 0 
L 531 0 
L 531 3500 
L 1656 3500 
L 1656 2988 
Q 1863 3284 2130 3434 
Q 2397 3584 2719 3584 
Q 3081 3584 3359 3409 
Q 3638 3234 3781 2919 
z
" transform="scale(0.015625)"/>
        <path id="DejaVuSans-Bold-70" d="M 1656 506 
L 1656 -1331 
L 538 -1331 
L 538 3500 
L 1656 3500 
L 1656 2988 
Q 1888 3294 2169 3439 
Q 2450 3584 2816 3584 
Q 3463 3584 3878 3070 
Q 4294 2556 4294 1747 
Q 4294 938 3878 423 
Q 3463 -91 2816 -91 
Q 2450 -91 2169 54 
Q 1888 200 1656 506 
z
M 2400 2772 
Q 2041 2772 1848 2508 
Q 1656 2244 1656 1747 
Q 1656 1250 1848 986 
Q 2041 722 2400 722 
Q 2759 722 2948 984 
Q 3138 1247 3138 1747 
Q 3138 2247 2948 2509 
Q 2759 2772 2400 2772 
z
" transform="scale(0.015625)"/>
        <path id="DejaVuSans-Bold-6c" d="M 538 4863 
L 1656 4863 
L 1656 0 
L 538 0 
L 538 4863 
z
" transform="scale(0.015625)"/>
        <path id="DejaVuSans-Bold-65" d="M 4031 1759 
L 4031 1441 
L 1416 1441 
Q 1456 1047 1700 850 
Q 1944 653 2381 653 
Q 2734 653 3104 758 
Q 3475 863 3866 1075 
L 3866 213 
Q 3469 63 3072 -14 
Q 2675 -91 2278 -91 
Q 1328 -91 801 392 
Q 275 875 275 1747 
Q 275 2603 792 3093 
Q 1309 3584 2216 3584 
Q 3041 3584 3536 3087 
Q 4031 2591 4031 1759 
z
M 2881 2131 
Q 2881 2450 2695 2645 
Q 2509 2841 2209 2841 
Q 1884 2841 1681 2658 
Q 1478 2475 1428 2131 
L 2881 2131 
z
" transform="scale(0.015625)"/>
        <path id="DejaVuSans-Bold-72" d="M 3138 2547 
Q 2991 2616 2845 2648 
Q 2700 2681 2553 2681 
Q 2122 2681 1889 2404 
Q 1656 2128 1656 1613 
L 1656 0 
L 538 0 
L 538 3500 
L 1656 3500 
L 1656 2925 
Q 1872 3269 2151 3426 
Q 2431 3584 2822 3584 
Q 2878 3584 2943 3579 
Q 3009 3575 3134 3559 
L 3138 2547 
z
" transform="scale(0.015625)"/>
       </defs>
       <use xlink:href="#DejaVuSans-Bold-43"/>
       <use xlink:href="#DejaVuSans-Bold-56" x="73.388672"/>
       <use xlink:href="#DejaVuSans-Bold-53" x="150.78125"/>
       <use xlink:href="#DejaVuSans-Bold-61" x="222.802734"/>
       <use xlink:href="#DejaVuSans-Bold-6d" x="290.283203"/>
       <use xlink:href="#DejaVuSans-Bold-70" x="394.482422"/>
       <use xlink:href="#DejaVuSans-Bold-6c" x="466.064453"/>
       <use xlink:href="#DejaVuSans-Bold-65" x="500.341797"/>
       <use xlink:href="#DejaVuSans-Bold-72" x="568.164062"/>
      </g>
     </g>
    </g>
    <g id="ytick_2">
     <g id="line2d_2">
      <g>
       <use xlink:href="#m81d445af69" x="339.24375" y="130.724876" style="stroke: #000000; stroke-width: 0.8"/>
      </g>
     </g>
     <g id="text_2">
      <!-- NoteBooks -->
      <g style="fill: #586069" transform="translate(210.7125 138.323314)scale(0.2 -0.2)">
       <defs>
        <path id="DejaVuSans-Bold-4e" d="M 588 4666 
L 1931 4666 
L 3628 1466 
L 3628 4666 
L 4769 4666 
L 4769 0 
L 3425 0 
L 1728 3200 
L 1728 0 
L 588 0 
L 588 4666 
z
" transform="scale(0.015625)"/>
        <path id="DejaVuSans-Bold-6f" d="M 2203 2784 
Q 1831 2784 1636 2517 
Q 1441 2250 1441 1747 
Q 1441 1244 1636 976 
Q 1831 709 2203 709 
Q 2569 709 2762 976 
Q 2956 1244 2956 1747 
Q 2956 2250 2762 2517 
Q 2569 2784 2203 2784 
z
M 2203 3584 
Q 3106 3584 3614 3096 
Q 4122 2609 4122 1747 
Q 4122 884 3614 396 
Q 3106 -91 2203 -91 
Q 1297 -91 786 396 
Q 275 884 275 1747 
Q 275 2609 786 3096 
Q 1297 3584 2203 3584 
z
" transform="scale(0.015625)"/>
        <path id="DejaVuSans-Bold-74" d="M 1759 4494 
L 1759 3500 
L 2913 3500 
L 2913 2700 
L 1759 2700 
L 1759 1216 
Q 1759 972 1856 886 
Q 1953 800 2241 800 
L 2816 800 
L 2816 0 
L 1856 0 
Q 1194 0 917 276 
Q 641 553 641 1216 
L 641 2700 
L 84 2700 
L 84 3500 
L 641 3500 
L 641 4494 
L 1759 4494 
z
" transform="scale(0.015625)"/>
        <path id="DejaVuSans-Bold-42" d="M 2456 2859 
Q 2741 2859 2887 2984 
Q 3034 3109 3034 3353 
Q 3034 3594 2887 3720 
Q 2741 3847 2456 3847 
L 1791 3847 
L 1791 2859 
L 2456 2859 
z
M 2497 819 
Q 2859 819 3042 972 
Q 3225 1125 3225 1434 
Q 3225 1738 3044 1889 
Q 2863 2041 2497 2041 
L 1791 2041 
L 1791 819 
L 2497 819 
z
M 3616 2497 
Q 4003 2384 4215 2081 
Q 4428 1778 4428 1338 
Q 4428 663 3972 331 
Q 3516 0 2584 0 
L 588 0 
L 588 4666 
L 2394 4666 
Q 3366 4666 3802 4372 
Q 4238 4078 4238 3431 
Q 4238 3091 4078 2852 
Q 3919 2613 3616 2497 
z
" transform="scale(0.015625)"/>
        <path id="DejaVuSans-Bold-6b" d="M 538 4863 
L 1656 4863 
L 1656 2216 
L 2944 3500 
L 4244 3500 
L 2534 1894 
L 4378 0 
L 3022 0 
L 1656 1459 
L 1656 0 
L 538 0 
L 538 4863 
z
" transform="scale(0.015625)"/>
        <path id="DejaVuSans-Bold-73" d="M 3272 3391 
L 3272 2541 
Q 2913 2691 2578 2766 
Q 2244 2841 1947 2841 
Q 1628 2841 1473 2761 
Q 1319 2681 1319 2516 
Q 1319 2381 1436 2309 
Q 1553 2238 1856 2203 
L 2053 2175 
Q 2913 2066 3209 1816 
Q 3506 1566 3506 1031 
Q 3506 472 3093 190 
Q 2681 -91 1863 -91 
Q 1516 -91 1145 -36 
Q 775 19 384 128 
L 384 978 
Q 719 816 1070 734 
Q 1422 653 1784 653 
Q 2113 653 2278 743 
Q 2444 834 2444 1013 
Q 2444 1163 2330 1236 
Q 2216 1309 1875 1350 
L 1678 1375 
Q 931 1469 631 1722 
Q 331 1975 331 2491 
Q 331 3047 712 3315 
Q 1094 3584 1881 3584 
Q 2191 3584 2531 3537 
Q 2872 3491 3272 3391 
z
" transform="scale(0.015625)"/>
       </defs>
       <use xlink:href="#DejaVuSans-Bold-4e"/>
       <use xlink:href="#DejaVuSans-Bold-6f" x="83.691406"/>
       <use xlink:href="#DejaVuSans-Bold-74" x="152.392578"/>
       <use xlink:href="#DejaVuSans-Bold-65" x="200.195312"/>
       <use xlink:href="#DejaVuSans-Bold-42" x="268.017578"/>
       <use xlink:href="#DejaVuSans-Bold-6f" x="344.238281"/>
       <use xlink:href="#DejaVuSans-Bold-6f" x="412.939453"/>
       <use xlink:href="#DejaVuSans-Bold-6b" x="481.640625"/>
       <use xlink:href="#DejaVuSans-Bold-73" x="548.144531"/>
      </g>
     </g>
    </g>
    <g id="ytick_3">
     <g id="line2d_3">
      <g>
       <use xlink:href="#m81d445af69" x="339.24375" y="179.514959" style="stroke: #000000; stroke-width: 0.8"/>
      </g>
     </g>
     <g id="text_3">
      <!-- Unknown Project -->
      <g style="fill: #586069" transform="translate(140.709375 187.113396)scale(0.2 -0.2)">
       <defs>
        <path id="DejaVuSans-Bold-55" d="M 588 4666 
L 1791 4666 
L 1791 1869 
Q 1791 1291 1980 1042 
Q 2169 794 2597 794 
Q 3028 794 3217 1042 
Q 3406 1291 3406 1869 
L 3406 4666 
L 4609 4666 
L 4609 1869 
Q 4609 878 4112 393 
Q 3616 -91 2597 -91 
Q 1581 -91 1084 393 
Q 588 878 588 1869 
L 588 4666 
z
" transform="scale(0.015625)"/>
        <path id="DejaVuSans-Bold-6e" d="M 4056 2131 
L 4056 0 
L 2931 0 
L 2931 347 
L 2931 1631 
Q 2931 2084 2911 2256 
Q 2891 2428 2841 2509 
Q 2775 2619 2662 2680 
Q 2550 2741 2406 2741 
Q 2056 2741 1856 2470 
Q 1656 2200 1656 1722 
L 1656 0 
L 538 0 
L 538 3500 
L 1656 3500 
L 1656 2988 
Q 1909 3294 2193 3439 
Q 2478 3584 2822 3584 
Q 3428 3584 3742 3212 
Q 4056 2841 4056 2131 
z
" transform="scale(0.015625)"/>
        <path id="DejaVuSans-Bold-77" d="M 225 3500 
L 1313 3500 
L 1900 1088 
L 2491 3500 
L 3425 3500 
L 4013 1113 
L 4603 3500 
L 5691 3500 
L 4769 0 
L 3547 0 
L 2956 2406 
L 2369 0 
L 1147 0 
L 225 3500 
z
" transform="scale(0.015625)"/>
        <path id="DejaVuSans-Bold-20" transform="scale(0.015625)"/>
        <path id="DejaVuSans-Bold-50" d="M 588 4666 
L 2584 4666 
Q 3475 4666 3951 4270 
Q 4428 3875 4428 3144 
Q 4428 2409 3951 2014 
Q 3475 1619 2584 1619 
L 1791 1619 
L 1791 0 
L 588 0 
L 588 4666 
z
M 1791 3794 
L 1791 2491 
L 2456 2491 
Q 2806 2491 2997 2661 
Q 3188 2831 3188 3144 
Q 3188 3456 2997 3625 
Q 2806 3794 2456 3794 
L 1791 3794 
z
" transform="scale(0.015625)"/>
        <path id="DejaVuSans-Bold-6a" d="M 538 3500 
L 1656 3500 
L 1656 63 
Q 1656 -641 1318 -1011 
Q 981 -1381 341 -1381 
L -213 -1381 
L -213 -647 
L -19 -647 
Q 300 -647 419 -503 
Q 538 -359 538 63 
L 538 3500 
z
M 538 4863 
L 1656 4863 
L 1656 3950 
L 538 3950 
L 538 4863 
z
" transform="scale(0.015625)"/>
        <path id="DejaVuSans-Bold-63" d="M 3366 3391 
L 3366 2478 
Q 3138 2634 2908 2709 
Q 2678 2784 2431 2784 
Q 1963 2784 1702 2511 
Q 1441 2238 1441 1747 
Q 1441 1256 1702 982 
Q 1963 709 2431 709 
Q 2694 709 2930 787 
Q 3166 866 3366 1019 
L 3366 103 
Q 3103 6 2833 -42 
Q 2563 -91 2291 -91 
Q 1344 -91 809 395 
Q 275 881 275 1747 
Q 275 2613 809 3098 
Q 1344 3584 2291 3584 
Q 2566 3584 2833 3536 
Q 3100 3488 3366 3391 
z
" transform="scale(0.015625)"/>
       </defs>
       <use xlink:href="#DejaVuSans-Bold-55"/>
       <use xlink:href="#DejaVuSans-Bold-6e" x="81.201172"/>
       <use xlink:href="#DejaVuSans-Bold-6b" x="152.392578"/>
       <use xlink:href="#DejaVuSans-Bold-6e" x="218.896484"/>
       <use xlink:href="#DejaVuSans-Bold-6f" x="290.087891"/>
       <use xlink:href="#DejaVuSans-Bold-77" x="358.789062"/>
       <use xlink:href="#DejaVuSans-Bold-6e" x="451.171875"/>
       <use xlink:href="#DejaVuSans-Bold-20" x="522.363281"/>
       <use xlink:href="#DejaVuSans-Bold-50" x="557.177734"/>
       <use xlink:href="#DejaVuSans-Bold-72" x="630.46875"/>
       <use xlink:href="#DejaVuSans-Bold-6f" x="679.785156"/>
       <use xlink:href="#DejaVuSans-Bold-6a" x="748.486328"/>
       <use xlink:href="#DejaVuSans-Bold-65" x="782.763672"/>
       <use xlink:href="#DejaVuSans-Bold-63" x="850.585938"/>
       <use xlink:href="#DejaVuSans-Bold-74" x="909.863281"/>
      </g>
     </g>
    </g>
    <g id="ytick_4">
     <g id="line2d_4">
      <g>
       <use xlink:href="#m81d445af69" x="339.24375" y="228.305041" style="stroke: #000000; stroke-width: 0.8"/>
      </g>
     </g>
     <g id="text_4">
      <!-- ICE_AE -->
      <g style="fill: #586069" transform="translate(257.321875 235.726916)scale(0.2 -0.2)">
       <defs>
        <path id="DejaVuSans-Bold-49" d="M 588 4666 
L 1791 4666 
L 1791 0 
L 588 0 
L 588 4666 
z
" transform="scale(0.015625)"/>
        <path id="DejaVuSans-Bold-45" d="M 588 4666 
L 3834 4666 
L 3834 3756 
L 1791 3756 
L 1791 2888 
L 3713 2888 
L 3713 1978 
L 1791 1978 
L 1791 909 
L 3903 909 
L 3903 0 
L 588 0 
L 588 4666 
z
" transform="scale(0.015625)"/>
        <path id="DejaVuSans-Bold-5f" d="M 3200 -916 
L 3200 -1509 
L 0 -1509 
L 0 -916 
L 3200 -916 
z
" transform="scale(0.015625)"/>
        <path id="DejaVuSans-Bold-41" d="M 3419 850 
L 1538 850 
L 1241 0 
L 31 0 
L 1759 4666 
L 3194 4666 
L 4922 0 
L 3713 0 
L 3419 850 
z
M 1838 1716 
L 3116 1716 
L 2478 3572 
L 1838 1716 
z
" transform="scale(0.015625)"/>
       </defs>
       <use xlink:href="#DejaVuSans-Bold-49"/>
       <use xlink:href="#DejaVuSans-Bold-43" x="37.207031"/>
       <use xlink:href="#DejaVuSans-Bold-45" x="110.595703"/>
       <use xlink:href="#DejaVuSans-Bold-5f" x="178.90625"/>
       <use xlink:href="#DejaVuSans-Bold-41" x="228.90625"/>
       <use xlink:href="#DejaVuSans-Bold-45" x="306.298828"/>
      </g>
     </g>
    </g>
    <g id="ytick_5">
     <g id="line2d_5">
      <g>
       <use xlink:href="#m81d445af69" x="339.24375" y="277.095124" style="stroke: #000000; stroke-width: 0.8"/>
      </g>
     </g>
     <g id="text_5">
      <!-- Autoencoder_2_construct_CV -->
      <g style="fill: #586069" transform="translate(7.2 284.693561)scale(0.2 -0.2)">
       <defs>
        <path id="DejaVuSans-Bold-75" d="M 500 1363 
L 500 3500 
L 1625 3500 
L 1625 3150 
Q 1625 2866 1622 2436 
Q 1619 2006 1619 1863 
Q 1619 1441 1641 1255 
Q 1663 1069 1716 984 
Q 1784 875 1895 815 
Q 2006 756 2150 756 
Q 2500 756 2700 1025 
Q 2900 1294 2900 1772 
L 2900 3500 
L 4019 3500 
L 4019 0 
L 2900 0 
L 2900 506 
Q 2647 200 2364 54 
Q 2081 -91 1741 -91 
Q 1134 -91 817 281 
Q 500 653 500 1363 
z
" transform="scale(0.015625)"/>
        <path id="DejaVuSans-Bold-64" d="M 2919 2988 
L 2919 4863 
L 4044 4863 
L 4044 0 
L 2919 0 
L 2919 506 
Q 2688 197 2409 53 
Q 2131 -91 1766 -91 
Q 1119 -91 703 423 
Q 288 938 288 1747 
Q 288 2556 703 3070 
Q 1119 3584 1766 3584 
Q 2128 3584 2408 3439 
Q 2688 3294 2919 2988 
z
M 2181 722 
Q 2541 722 2730 984 
Q 2919 1247 2919 1747 
Q 2919 2247 2730 2509 
Q 2541 2772 2181 2772 
Q 1825 2772 1636 2509 
Q 1447 2247 1447 1747 
Q 1447 1247 1636 984 
Q 1825 722 2181 722 
z
" transform="scale(0.015625)"/>
        <path id="DejaVuSans-Bold-32" d="M 1844 884 
L 3897 884 
L 3897 0 
L 506 0 
L 506 884 
L 2209 2388 
Q 2438 2594 2547 2791 
Q 2656 2988 2656 3200 
Q 2656 3528 2436 3728 
Q 2216 3928 1850 3928 
Q 1569 3928 1234 3808 
Q 900 3688 519 3450 
L 519 4475 
Q 925 4609 1322 4679 
Q 1719 4750 2100 4750 
Q 2938 4750 3402 4381 
Q 3866 4013 3866 3353 
Q 3866 2972 3669 2642 
Q 3472 2313 2841 1759 
L 1844 884 
z
" transform="scale(0.015625)"/>
       </defs>
       <use xlink:href="#DejaVuSans-Bold-41"/>
       <use xlink:href="#DejaVuSans-Bold-75" x="77.392578"/>
       <use xlink:href="#DejaVuSans-Bold-74" x="148.583984"/>
       <use xlink:href="#DejaVuSans-Bold-6f" x="196.386719"/>
       <use xlink:href="#DejaVuSans-Bold-65" x="265.087891"/>
       <use xlink:href="#DejaVuSans-Bold-6e" x="332.910156"/>
       <use xlink:href="#DejaVuSans-Bold-63" x="404.101562"/>
       <use xlink:href="#DejaVuSans-Bold-6f" x="463.378906"/>
       <use xlink:href="#DejaVuSans-Bold-64" x="532.080078"/>
       <use xlink:href="#DejaVuSans-Bold-65" x="603.662109"/>
       <use xlink:href="#DejaVuSans-Bold-72" x="671.484375"/>
       <use xlink:href="#DejaVuSans-Bold-5f" x="720.800781"/>
       <use xlink:href="#DejaVuSans-Bold-32" x="770.800781"/>
       <use xlink:href="#DejaVuSans-Bold-5f" x="840.380859"/>
       <use xlink:href="#DejaVuSans-Bold-63" x="890.380859"/>
       <use xlink:href="#DejaVuSans-Bold-6f" x="949.658203"/>
       <use xlink:href="#DejaVuSans-Bold-6e" x="1018.359375"/>
       <use xlink:href="#DejaVuSans-Bold-73" x="1089.550781"/>
       <use xlink:href="#DejaVuSans-Bold-74" x="1149.072266"/>
       <use xlink:href="#DejaVuSans-Bold-72" x="1196.875"/>
       <use xlink:href="#DejaVuSans-Bold-75" x="1246.191406"/>
       <use xlink:href="#DejaVuSans-Bold-63" x="1317.382812"/>
       <use xlink:href="#DejaVuSans-Bold-74" x="1376.660156"/>
       <use xlink:href="#DejaVuSans-Bold-5f" x="1424.462891"/>
       <use xlink:href="#DejaVuSans-Bold-43" x="1474.462891"/>
       <use xlink:href="#DejaVuSans-Bold-56" x="1547.851562"/>
      </g>
     </g>
    </g>
    <g id="ytick_6">
     <g id="line2d_6">
      <g>
       <use xlink:href="#m81d445af69" x="339.24375" y="325.885207" style="stroke: #000000; stroke-width: 0.8"/>
      </g>
     </g>
     <g id="text_6">
      <!-- gitolite-admin -->
      <g style="fill: #586069" transform="translate(172.8875 333.483644)scale(0.2 -0.2)">
       <defs>
        <path id="DejaVuSans-Bold-67" d="M 2919 594 
Q 2688 288 2409 144 
Q 2131 0 1766 0 
Q 1125 0 706 504 
Q 288 1009 288 1791 
Q 288 2575 706 3076 
Q 1125 3578 1766 3578 
Q 2131 3578 2409 3434 
Q 2688 3291 2919 2981 
L 2919 3500 
L 4044 3500 
L 4044 353 
Q 4044 -491 3511 -936 
Q 2978 -1381 1966 -1381 
Q 1638 -1381 1331 -1331 
Q 1025 -1281 716 -1178 
L 716 -306 
Q 1009 -475 1290 -558 
Q 1572 -641 1856 -641 
Q 2406 -641 2662 -400 
Q 2919 -159 2919 353 
L 2919 594 
z
M 2181 2772 
Q 1834 2772 1640 2515 
Q 1447 2259 1447 1791 
Q 1447 1309 1634 1061 
Q 1822 813 2181 813 
Q 2531 813 2725 1069 
Q 2919 1325 2919 1791 
Q 2919 2259 2725 2515 
Q 2531 2772 2181 2772 
z
" transform="scale(0.015625)"/>
        <path id="DejaVuSans-Bold-69" d="M 538 3500 
L 1656 3500 
L 1656 0 
L 538 0 
L 538 3500 
z
M 538 4863 
L 1656 4863 
L 1656 3950 
L 538 3950 
L 538 4863 
z
" transform="scale(0.015625)"/>
        <path id="DejaVuSans-Bold-2d" d="M 347 2297 
L 2309 2297 
L 2309 1388 
L 347 1388 
L 347 2297 
z
" transform="scale(0.015625)"/>
       </defs>
       <use xlink:href="#DejaVuSans-Bold-67"/>
       <use xlink:href="#DejaVuSans-Bold-69" x="71.582031"/>
       <use xlink:href="#DejaVuSans-Bold-74" x="105.859375"/>
       <use xlink:href="#DejaVuSans-Bold-6f" x="153.662109"/>
       <use xlink:href="#DejaVuSans-Bold-6c" x="222.363281"/>
       <use xlink:href="#DejaVuSans-Bold-69" x="256.640625"/>
       <use xlink:href="#DejaVuSans-Bold-74" x="290.917969"/>
       <use xlink:href="#DejaVuSans-Bold-65" x="338.720703"/>
       <use xlink:href="#DejaVuSans-Bold-2d" x="406.542969"/>
       <use xlink:href="#DejaVuSans-Bold-61" x="448.046875"/>
       <use xlink:href="#DejaVuSans-Bold-64" x="515.527344"/>
       <use xlink:href="#DejaVuSans-Bold-6d" x="587.109375"/>
       <use xlink:href="#DejaVuSans-Bold-69" x="691.308594"/>
       <use xlink:href="#DejaVuSans-Bold-6e" x="725.585938"/>
      </g>
     </g>
    </g>
   </g>
   <g id="patch_9">
    <path d="M 339.24375 351.5 
L 339.24375 56.32 
" style="fill: none; stroke: #000000; stroke-width: 0.8; stroke-linejoin: miter; stroke-linecap: square"/>
   </g>
   <g id="patch_10">
    <path d="M 339.24375 351.5 
L 723.358815 351.5 
" style="fill: none; stroke: #000000; stroke-width: 0.8; stroke-linejoin: miter; stroke-linecap: square"/>
   </g>
   <g id="text_7">
    <!-- 15 hrs 55 mins -->
    <g style="fill: #586069" transform="translate(709.067621 86.073856)scale(0.15 -0.15)">
     <defs>
      <path id="DejaVuSans-Bold-31" d="M 750 831 
L 1813 831 
L 1813 3847 
L 722 3622 
L 722 4441 
L 1806 4666 
L 2950 4666 
L 2950 831 
L 4013 831 
L 4013 0 
L 750 0 
L 750 831 
z
" transform="scale(0.015625)"/>
      <path id="DejaVuSans-Bold-35" d="M 678 4666 
L 3669 4666 
L 3669 3781 
L 1638 3781 
L 1638 3059 
Q 1775 3097 1914 3117 
Q 2053 3138 2203 3138 
Q 3056 3138 3531 2711 
Q 4006 2284 4006 1522 
Q 4006 766 3489 337 
Q 2972 -91 2053 -91 
Q 1656 -91 1267 -14 
Q 878 63 494 219 
L 494 1166 
Q 875 947 1217 837 
Q 1559 728 1863 728 
Q 2300 728 2551 942 
Q 2803 1156 2803 1522 
Q 2803 1891 2551 2103 
Q 2300 2316 1863 2316 
Q 1603 2316 1309 2248 
Q 1016 2181 678 2041 
L 678 4666 
z
" transform="scale(0.015625)"/>
      <path id="DejaVuSans-Bold-68" d="M 4056 2131 
L 4056 0 
L 2931 0 
L 2931 347 
L 2931 1625 
Q 2931 2084 2911 2256 
Q 2891 2428 2841 2509 
Q 2775 2619 2662 2680 
Q 2550 2741 2406 2741 
Q 2056 2741 1856 2470 
Q 1656 2200 1656 1722 
L 1656 0 
L 538 0 
L 538 4863 
L 1656 4863 
L 1656 2988 
Q 1909 3294 2193 3439 
Q 2478 3584 2822 3584 
Q 3428 3584 3742 3212 
Q 4056 2841 4056 2131 
z
" transform="scale(0.015625)"/>
     </defs>
     <use xlink:href="#DejaVuSans-Bold-31"/>
     <use xlink:href="#DejaVuSans-Bold-35" x="69.580078"/>
     <use xlink:href="#DejaVuSans-Bold-20" x="139.160156"/>
     <use xlink:href="#DejaVuSans-Bold-68" x="173.974609"/>
     <use xlink:href="#DejaVuSans-Bold-72" x="245.166016"/>
     <use xlink:href="#DejaVuSans-Bold-73" x="294.482422"/>
     <use xlink:href="#DejaVuSans-Bold-20" x="354.003906"/>
     <use xlink:href="#DejaVuSans-Bold-35" x="388.818359"/>
     <use xlink:href="#DejaVuSans-Bold-35" x="458.398438"/>
     <use xlink:href="#DejaVuSans-Bold-20" x="527.978516"/>
     <use xlink:href="#DejaVuSans-Bold-6d" x="562.792969"/>
     <use xlink:href="#DejaVuSans-Bold-69" x="666.992188"/>
     <use xlink:href="#DejaVuSans-Bold-6e" x="701.269531"/>
     <use xlink:href="#DejaVuSans-Bold-73" x="772.460938"/>
    </g>
   </g>
   <g id="text_8">
    <!-- 1 hr 26 mins -->
    <g style="fill: #586069" transform="translate(376.512326 134.863939)scale(0.15 -0.15)">
     <defs>
      <path id="DejaVuSans-Bold-36" d="M 2316 2303 
Q 2000 2303 1842 2098 
Q 1684 1894 1684 1484 
Q 1684 1075 1842 870 
Q 2000 666 2316 666 
Q 2634 666 2792 870 
Q 2950 1075 2950 1484 
Q 2950 1894 2792 2098 
Q 2634 2303 2316 2303 
z
M 3803 4544 
L 3803 3681 
Q 3506 3822 3243 3889 
Q 2981 3956 2731 3956 
Q 2194 3956 1894 3657 
Q 1594 3359 1544 2772 
Q 1750 2925 1990 3001 
Q 2231 3078 2516 3078 
Q 3231 3078 3670 2659 
Q 4109 2241 4109 1563 
Q 4109 813 3618 361 
Q 3128 -91 2303 -91 
Q 1394 -91 895 523 
Q 397 1138 397 2266 
Q 397 3422 980 4083 
Q 1563 4744 2578 4744 
Q 2900 4744 3203 4694 
Q 3506 4644 3803 4544 
z
" transform="scale(0.015625)"/>
     </defs>
     <use xlink:href="#DejaVuSans-Bold-31"/>
     <use xlink:href="#DejaVuSans-Bold-20" x="69.580078"/>
     <use xlink:href="#DejaVuSans-Bold-68" x="104.394531"/>
     <use xlink:href="#DejaVuSans-Bold-72" x="175.585938"/>
     <use xlink:href="#DejaVuSans-Bold-20" x="224.902344"/>
     <use xlink:href="#DejaVuSans-Bold-32" x="259.716797"/>
     <use xlink:href="#DejaVuSans-Bold-36" x="329.296875"/>
     <use xlink:href="#DejaVuSans-Bold-20" x="398.876953"/>
     <use xlink:href="#DejaVuSans-Bold-6d" x="433.691406"/>
     <use xlink:href="#DejaVuSans-Bold-69" x="537.890625"/>
     <use xlink:href="#DejaVuSans-Bold-6e" x="572.167969"/>
     <use xlink:href="#DejaVuSans-Bold-73" x="643.359375"/>
    </g>
   </g>
   <g id="text_9">
    <!-- 41 mins -->
    <g style="fill: #586069" transform="translate(359.247457 183.654021)scale(0.15 -0.15)">
     <defs>
      <path id="DejaVuSans-Bold-34" d="M 2356 3675 
L 1038 1722 
L 2356 1722 
L 2356 3675 
z
M 2156 4666 
L 3494 4666 
L 3494 1722 
L 4159 1722 
L 4159 850 
L 3494 850 
L 3494 0 
L 2356 0 
L 2356 850 
L 288 850 
L 288 1881 
L 2156 4666 
z
" transform="scale(0.015625)"/>
     </defs>
     <use xlink:href="#DejaVuSans-Bold-34"/>
     <use xlink:href="#DejaVuSans-Bold-31" x="69.580078"/>
     <use xlink:href="#DejaVuSans-Bold-20" x="139.160156"/>
     <use xlink:href="#DejaVuSans-Bold-6d" x="173.974609"/>
     <use xlink:href="#DejaVuSans-Bold-69" x="278.173828"/>
     <use xlink:href="#DejaVuSans-Bold-6e" x="312.451172"/>
     <use xlink:href="#DejaVuSans-Bold-73" x="383.642578"/>
    </g>
   </g>
   <g id="text_10">
    <!-- 30 mins -->
    <g style="fill: #586069" transform="translate(354.811647 232.444104)scale(0.15 -0.15)">
     <defs>
      <path id="DejaVuSans-Bold-33" d="M 2981 2516 
Q 3453 2394 3698 2092 
Q 3944 1791 3944 1325 
Q 3944 631 3412 270 
Q 2881 -91 1863 -91 
Q 1503 -91 1142 -33 
Q 781 25 428 141 
L 428 1069 
Q 766 900 1098 814 
Q 1431 728 1753 728 
Q 2231 728 2486 893 
Q 2741 1059 2741 1369 
Q 2741 1688 2480 1852 
Q 2219 2016 1709 2016 
L 1228 2016 
L 1228 2791 
L 1734 2791 
Q 2188 2791 2409 2933 
Q 2631 3075 2631 3366 
Q 2631 3634 2415 3781 
Q 2200 3928 1806 3928 
Q 1516 3928 1219 3862 
Q 922 3797 628 3669 
L 628 4550 
Q 984 4650 1334 4700 
Q 1684 4750 2022 4750 
Q 2931 4750 3382 4451 
Q 3834 4153 3834 3553 
Q 3834 3144 3618 2883 
Q 3403 2622 2981 2516 
z
" transform="scale(0.015625)"/>
      <path id="DejaVuSans-Bold-30" d="M 2944 2338 
Q 2944 3213 2780 3570 
Q 2616 3928 2228 3928 
Q 1841 3928 1675 3570 
Q 1509 3213 1509 2338 
Q 1509 1453 1675 1090 
Q 1841 728 2228 728 
Q 2613 728 2778 1090 
Q 2944 1453 2944 2338 
z
M 4147 2328 
Q 4147 1169 3647 539 
Q 3147 -91 2228 -91 
Q 1306 -91 806 539 
Q 306 1169 306 2328 
Q 306 3491 806 4120 
Q 1306 4750 2228 4750 
Q 3147 4750 3647 4120 
Q 4147 3491 4147 2328 
z
" transform="scale(0.015625)"/>
     </defs>
     <use xlink:href="#DejaVuSans-Bold-33"/>
     <use xlink:href="#DejaVuSans-Bold-30" x="69.580078"/>
     <use xlink:href="#DejaVuSans-Bold-20" x="139.160156"/>
     <use xlink:href="#DejaVuSans-Bold-6d" x="173.974609"/>
     <use xlink:href="#DejaVuSans-Bold-69" x="278.173828"/>
     <use xlink:href="#DejaVuSans-Bold-6e" x="312.451172"/>
     <use xlink:href="#DejaVuSans-Bold-73" x="383.642578"/>
    </g>
   </g>
   <g id="text_11">
    <!-- 8 mins -->
    <g style="fill: #586069" transform="translate(346.418398 281.234186)scale(0.15 -0.15)">
     <defs>
      <path id="DejaVuSans-Bold-38" d="M 2228 2088 
Q 1891 2088 1709 1903 
Q 1528 1719 1528 1375 
Q 1528 1031 1709 848 
Q 1891 666 2228 666 
Q 2563 666 2741 848 
Q 2919 1031 2919 1375 
Q 2919 1722 2741 1905 
Q 2563 2088 2228 2088 
z
M 1350 2484 
Q 925 2613 709 2878 
Q 494 3144 494 3541 
Q 494 4131 934 4440 
Q 1375 4750 2228 4750 
Q 3075 4750 3515 4442 
Q 3956 4134 3956 3541 
Q 3956 3144 3739 2878 
Q 3522 2613 3097 2484 
Q 3572 2353 3814 2058 
Q 4056 1763 4056 1313 
Q 4056 619 3595 264 
Q 3134 -91 2228 -91 
Q 1319 -91 855 264 
Q 391 619 391 1313 
Q 391 1763 633 2058 
Q 875 2353 1350 2484 
z
M 1631 3419 
Q 1631 3141 1786 2991 
Q 1941 2841 2228 2841 
Q 2509 2841 2662 2991 
Q 2816 3141 2816 3419 
Q 2816 3697 2662 3845 
Q 2509 3994 2228 3994 
Q 1941 3994 1786 3844 
Q 1631 3694 1631 3419 
z
" transform="scale(0.015625)"/>
     </defs>
     <use xlink:href="#DejaVuSans-Bold-38"/>
     <use xlink:href="#DejaVuSans-Bold-20" x="69.580078"/>
     <use xlink:href="#DejaVuSans-Bold-6d" x="104.394531"/>
     <use xlink:href="#DejaVuSans-Bold-69" x="208.59375"/>
     <use xlink:href="#DejaVuSans-Bold-6e" x="242.871094"/>
     <use xlink:href="#DejaVuSans-Bold-73" x="314.0625"/>
    </g>
   </g>
   <g id="text_12">
    <!-- 5 mins -->
    <g style="fill: #586069" transform="translate(345.200725 330.024269)scale(0.15 -0.15)">
     <use xlink:href="#DejaVuSans-Bold-35"/>
     <use xlink:href="#DejaVuSans-Bold-20" x="69.580078"/>
     <use xlink:href="#DejaVuSans-Bold-6d" x="104.394531"/>
     <use xlink:href="#DejaVuSans-Bold-69" x="208.59375"/>
     <use xlink:href="#DejaVuSans-Bold-6e" x="242.871094"/>
     <use xlink:href="#DejaVuSans-Bold-73" x="314.0625"/>
    </g>
   </g>
   <g id="text_13">
    <!-- Projects touched : -->
    <g style="fill: #2a475e" transform="translate(469.670032 50.32)scale(0.12 -0.12)">
     <defs>
      <path id="DejaVuSans-Bold-3a" d="M 716 3500 
L 1844 3500 
L 1844 2291 
L 716 2291 
L 716 3500 
z
M 716 1209 
L 1844 1209 
L 1844 0 
L 716 0 
L 716 1209 
z
" transform="scale(0.015625)"/>
     </defs>
     <use xlink:href="#DejaVuSans-Bold-50"/>
     <use xlink:href="#DejaVuSans-Bold-72" x="73.291016"/>
     <use xlink:href="#DejaVuSans-Bold-6f" x="122.607422"/>
     <use xlink:href="#DejaVuSans-Bold-6a" x="191.308594"/>
     <use xlink:href="#DejaVuSans-Bold-65" x="225.585938"/>
     <use xlink:href="#DejaVuSans-Bold-63" x="293.408203"/>
     <use xlink:href="#DejaVuSans-Bold-74" x="352.685547"/>
     <use xlink:href="#DejaVuSans-Bold-73" x="400.488281"/>
     <use xlink:href="#DejaVuSans-Bold-20" x="460.009766"/>
     <use xlink:href="#DejaVuSans-Bold-74" x="494.824219"/>
     <use xlink:href="#DejaVuSans-Bold-6f" x="542.626953"/>
     <use xlink:href="#DejaVuSans-Bold-75" x="611.328125"/>
     <use xlink:href="#DejaVuSans-Bold-63" x="682.519531"/>
     <use xlink:href="#DejaVuSans-Bold-68" x="741.796875"/>
     <use xlink:href="#DejaVuSans-Bold-65" x="812.988281"/>
     <use xlink:href="#DejaVuSans-Bold-64" x="880.810547"/>
     <use xlink:href="#DejaVuSans-Bold-20" x="952.392578"/>
     <use xlink:href="#DejaVuSans-Bold-3a" x="987.207031"/>
    </g>
   </g>
  </g>
  <g id="axes_2">
   <g id="patch_11">
    <path d="M 888.683166 175.687731 
L 910.779911 182.062261 
" style="fill: none; stroke: #000000; stroke-linecap: round"/>
   </g>
   <g id="text_14">
    <g id="patch_12">
     <path d="M 831.293973 183.552482 
L 886.402098 183.552482 
L 886.402098 164.644982 
L 831.293973 164.644982 
z
" style="fill: #ffffff; stroke: #000000; stroke-width: 0.72; stroke-linejoin: miter"/>
    </g>
    <!-- Python -->
    <g style="fill: #2a475e" transform="translate(834.893973 177.363107)scale(0.12 -0.12)">
     <defs>
      <path id="DejaVuSans-Bold-79" d="M 78 3500 
L 1197 3500 
L 2138 1125 
L 2938 3500 
L 4056 3500 
L 2584 -331 
Q 2363 -916 2067 -1148 
Q 1772 -1381 1288 -1381 
L 641 -1381 
L 641 -647 
L 991 -647 
Q 1275 -647 1404 -556 
Q 1534 -466 1606 -231 
L 1638 -134 
L 78 3500 
z
" transform="scale(0.015625)"/>
     </defs>
     <use xlink:href="#DejaVuSans-Bold-50"/>
     <use xlink:href="#DejaVuSans-Bold-79" x="75.166016"/>
     <use xlink:href="#DejaVuSans-Bold-74" x="140.351562"/>
     <use xlink:href="#DejaVuSans-Bold-68" x="188.154297"/>
     <use xlink:href="#DejaVuSans-Bold-6f" x="259.345703"/>
     <use xlink:href="#DejaVuSans-Bold-6e" x="328.046875"/>
    </g>
   </g>
   <g id="patch_13">
    <path d="M 1084.265184 263.033509 
L 1076.356865 263.033509 
L 1052.357392 247.240158 
" style="fill: none; stroke: #000000; stroke-linecap: round"/>
   </g>
   <g id="text_15">
    <g id="patch_14">
     <path d="M 1086.624233 272.440384 
L 1132.361108 272.440384 
L 1132.361108 253.626634 
L 1086.624233 253.626634 
z
" style="fill: #ffffff; stroke: #000000; stroke-width: 0.72; stroke-linejoin: miter"/>
    </g>
    <!-- Other -->
    <g style="fill: #2a475e" transform="translate(1090.224233 266.344759)scale(0.12 -0.12)">
     <defs>
      <path id="DejaVuSans-Bold-4f" d="M 2719 3878 
Q 2169 3878 1866 3472 
Q 1563 3066 1563 2328 
Q 1563 1594 1866 1187 
Q 2169 781 2719 781 
Q 3272 781 3575 1187 
Q 3878 1594 3878 2328 
Q 3878 3066 3575 3472 
Q 3272 3878 2719 3878 
z
M 2719 4750 
Q 3844 4750 4481 4106 
Q 5119 3463 5119 2328 
Q 5119 1197 4481 553 
Q 3844 -91 2719 -91 
Q 1597 -91 958 553 
Q 319 1197 319 2328 
Q 319 3463 958 4106 
Q 1597 4750 2719 4750 
z
" transform="scale(0.015625)"/>
     </defs>
     <use xlink:href="#DejaVuSans-Bold-4f"/>
     <use xlink:href="#DejaVuSans-Bold-74" x="85.009766"/>
     <use xlink:href="#DejaVuSans-Bold-68" x="132.8125"/>
     <use xlink:href="#DejaVuSans-Bold-65" x="204.003906"/>
     <use xlink:href="#DejaVuSans-Bold-72" x="271.826172"/>
    </g>
   </g>
   <g id="patch_15">
    <path d="M 1084.367758 236.411431 
L 1061.317209 228.75542 
" style="fill: none; stroke: #000000; stroke-linecap: round"/>
   </g>
   <g id="text_16">
    <g id="patch_16">
     <path d="M 1086.624233 247.218237 
L 1122.944858 247.218237 
L 1122.944858 228.404487 
L 1086.624233 228.404487 
z
" style="fill: #ffffff; stroke: #000000; stroke-width: 0.72; stroke-linejoin: miter"/>
    </g>
    <!-- conf -->
    <g style="fill: #2a475e" transform="translate(1090.224233 241.122612)scale(0.12 -0.12)">
     <defs>
      <path id="DejaVuSans-Bold-66" d="M 2841 4863 
L 2841 4128 
L 2222 4128 
Q 1984 4128 1890 4042 
Q 1797 3956 1797 3744 
L 1797 3500 
L 2753 3500 
L 2753 2700 
L 1797 2700 
L 1797 0 
L 678 0 
L 678 2700 
L 122 2700 
L 122 3500 
L 678 3500 
L 678 3744 
Q 678 4316 997 4589 
Q 1316 4863 1984 4863 
L 2841 4863 
z
" transform="scale(0.015625)"/>
     </defs>
     <use xlink:href="#DejaVuSans-Bold-63"/>
     <use xlink:href="#DejaVuSans-Bold-6f" x="59.277344"/>
     <use xlink:href="#DejaVuSans-Bold-6e" x="127.978516"/>
     <use xlink:href="#DejaVuSans-Bold-66" x="199.169922"/>
    </g>
   </g>
   <g id="patch_17">
    <path d="M 1084.272594 215.22799 
L 1064.81346 212.97513 
" style="fill: none; stroke: #000000; stroke-linecap: round"/>
   </g>
   <g id="text_17">
    <g id="patch_18">
     <path d="M 1086.624233 225.685995 
L 1126.752983 225.685995 
L 1126.752983 206.872245 
L 1086.624233 206.872245 
z
" style="fill: #ffffff; stroke: #000000; stroke-width: 0.72; stroke-linejoin: miter"/>
    </g>
    <!-- Bash -->
    <g style="fill: #2a475e" transform="translate(1090.224233 219.59037)scale(0.12 -0.12)">
     <use xlink:href="#DejaVuSans-Bold-42"/>
     <use xlink:href="#DejaVuSans-Bold-61" x="76.220703"/>
     <use xlink:href="#DejaVuSans-Bold-73" x="143.701172"/>
     <use xlink:href="#DejaVuSans-Bold-68" x="203.222656"/>
    </g>
   </g>
   <g id="patch_19">
    <path d="M 1084.270395 196.192924 
L 1065.090595 197.707001 
" style="fill: none; stroke: #000000; stroke-linecap: round"/>
   </g>
   <g id="text_18">
    <g id="patch_20">
     <path d="M 1086.624233 204.852902 
L 1149.637358 204.852902 
L 1149.637358 186.039152 
L 1086.624233 186.039152 
z
" style="fill: #ffffff; stroke: #000000; stroke-width: 0.72; stroke-linejoin: miter"/>
    </g>
    <!-- Promela -->
    <g style="fill: #2a475e" transform="translate(1090.224233 198.757277)scale(0.12 -0.12)">
     <use xlink:href="#DejaVuSans-Bold-50"/>
     <use xlink:href="#DejaVuSans-Bold-72" x="73.291016"/>
     <use xlink:href="#DejaVuSans-Bold-6f" x="122.607422"/>
     <use xlink:href="#DejaVuSans-Bold-6d" x="191.308594"/>
     <use xlink:href="#DejaVuSans-Bold-65" x="295.507812"/>
     <use xlink:href="#DejaVuSans-Bold-6c" x="363.330078"/>
     <use xlink:href="#DejaVuSans-Bold-61" x="397.607422"/>
    </g>
   </g>
   <g id="patch_21">
    <path d="M 1060.632604 192.106284 
C 1059.136005 183.61865 1056.221713 175.443061 1052.012005 167.922549 
C 1047.802298 160.402038 1042.356887 153.643277 1035.904251 147.929851 
C 1029.451616 142.216425 1022.083283 137.629376 1014.108413 134.361167 
C 1006.133543 131.092958 997.665255 129.189947 989.058862 128.731981 
C 980.452469 128.274015 971.830047 129.267589 963.553376 131.671015 
C 955.276705 134.074442 947.463185 137.853629 940.440656 142.85001 
C 933.418127 147.84639 927.286199 153.989094 922.302156 161.020385 
C 917.318113 168.051676 913.55265 175.871819 911.163759 184.152697 
C 908.774869 192.433575 907.796435 201.057729 908.269512 209.663304 
C 908.742588 218.26888 910.660465 226.733814 913.94267 234.702933 
C 917.224876 242.672053 921.824855 250.03232 927.549602 256.474914 
C 933.274348 262.917508 940.04266 268.351044 947.570552 272.547541 
C 955.098443 276.744037 963.279136 279.643971 971.769385 281.125665 
C 980.259633 282.607359 988.939008 282.649797 997.44334 281.251199 
C 1005.947672 279.8526 1014.156332 277.032803 1021.7249 272.910121 
C 1029.293469 268.787439 1036.11459 263.420349 1041.902064 257.034045 
L 1013.439385 231.240252 
C 1010.545648 234.433405 1007.135087 237.116949 1003.350803 239.178291 
C 999.566519 241.239632 995.462189 242.64953 991.210023 243.348829 
C 986.957857 244.048129 982.618169 244.02691 978.373045 243.286063 
C 974.127921 242.545215 970.037574 241.095249 966.273628 238.997 
C 962.509683 236.898752 959.125527 234.181984 956.263154 230.960687 
C 953.40078 227.73939 951.100791 224.059256 949.459688 220.074697 
C 947.818585 216.090137 946.859647 211.85767 946.623109 207.554882 
C 946.38657 203.252094 946.875787 198.940018 948.070232 194.799579 
C 949.264678 190.65914 951.147409 186.749068 953.639431 183.233423 
C 956.131452 179.717777 959.197416 176.646425 962.708681 174.148235 
C 966.219945 171.650045 970.126705 169.760451 974.265041 168.558738 
C 978.403376 167.357025 982.714587 166.860238 987.017784 167.089221 
C 991.32098 167.318204 995.555124 168.269709 999.542559 169.903814 
C 1003.529994 171.537918 1007.214161 173.831443 1010.440478 176.688155 
C 1013.666796 179.544868 1016.389501 182.924249 1018.494355 186.684505 
C 1020.599209 190.444761 1022.056355 194.532555 1022.804655 198.776372 
L 1060.632604 192.106284 
z
" style="fill: #092436; opacity: 0.5; stroke: #092436; stroke-width: 4; stroke-linejoin: miter"/>
   </g>
   <g id="patch_22">
    <path d="M 1048.319471 261.257152 
C 1050.972724 258.329367 1053.396155 255.201247 1055.568183 251.900646 
C 1057.740212 248.600045 1059.654373 245.136789 1061.293622 241.541718 
L 1026.343867 225.605643 
C 1025.524243 227.403179 1024.567162 229.134807 1023.481148 230.785107 
C 1022.395133 232.435407 1021.183418 233.999468 1019.856792 235.46336 
L 1048.319471 261.257152 
z
" style="fill: #4c2604; opacity: 0.5; stroke: #4c2604; stroke-width: 4; stroke-linejoin: miter"/>
   </g>
   <g id="patch_23">
    <path d="M 1062.166891 239.740136 
C 1063.30534 237.243379 1064.309198 234.687418 1065.174148 232.083244 
C 1066.039099 229.479071 1066.7639 226.830424 1067.345434 224.148694 
L 1029.806408 216.00834 
C 1029.515641 217.349205 1029.15324 218.673529 1028.720765 219.975615 
C 1028.28829 221.277702 1027.786361 222.555683 1027.217137 223.804061 
L 1062.166891 239.740136 
z
" style="fill: #0d300d; opacity: 0.5; stroke: #0d300d; stroke-width: 4; stroke-linejoin: miter"/>
   </g>
   <g id="patch_24">
    <path d="M 1067.686085 222.610676 
C 1068.219567 220.150539 1068.631807 217.665667 1068.921312 215.165054 
C 1069.210818 212.664442 1069.37724 210.15111 1069.419975 207.634158 
L 1031.014004 206.982063 
C 1030.992637 208.240539 1030.909426 209.497205 1030.764673 210.747512 
C 1030.61992 211.997818 1030.4138 213.240254 1030.147059 214.470323 
L 1067.686085 222.610676 
z
" style="fill: #400c0c; opacity: 0.5; stroke: #400c0c; stroke-width: 4; stroke-linejoin: miter"/>
   </g>
   <g id="patch_25">
    <path d="M 1069.447123 206.14608 
C 1069.488758 203.693897 1069.412943 201.241126 1069.219937 198.796196 
C 1069.026931 196.351266 1068.716957 193.91698 1068.291078 191.501703 
L 1030.463129 198.171797 
C 1030.676069 199.379435 1030.831056 200.596578 1030.927559 201.819043 
C 1031.024062 203.041508 1031.06197 204.267894 1031.041152 205.493985 
L 1069.447123 206.14608 
z
" style="fill: #2c1f39; opacity: 0.5; stroke: #2c1f39; stroke-width: 4; stroke-linejoin: miter"/>
   </g>
   <g id="patch_26">
    <path d="M 1062.169064 190.569824 
C 1060.672466 182.08219 1057.758173 173.906601 1053.548466 166.386089 
C 1049.338758 158.865577 1043.893347 152.106816 1037.440712 146.39339 
C 1030.988076 140.679965 1023.619743 136.092915 1015.644873 132.824707 
C 1007.670004 129.556498 999.201716 127.653487 990.595322 127.195521 
C 981.988929 126.737554 973.366507 127.731129 965.089836 130.134555 
C 956.813165 132.537981 948.999645 136.317168 941.977116 141.313549 
C 934.954587 146.30993 928.822659 152.452634 923.838616 159.483925 
C 918.854573 166.515216 915.08911 174.335359 912.70022 182.616237 
C 910.311329 190.897115 909.332895 199.521268 909.805972 208.126844 
C 910.279049 216.73242 912.196925 225.197354 915.479131 233.166473 
C 918.761337 241.135592 923.361316 248.49586 929.086062 254.938454 
C 934.810809 261.381048 941.57912 266.814584 949.107012 271.01108 
C 956.634903 275.207577 964.815596 278.10751 973.305845 279.589205 
C 981.796094 281.070899 990.475469 281.113337 998.9798 279.714738 
C 1007.484132 278.31614 1015.692792 275.496343 1023.26136 271.373661 
C 1030.829929 267.250978 1037.651051 261.883889 1043.438524 255.497584 
L 1014.975845 229.703792 
C 1012.082108 232.896944 1008.671547 235.580489 1004.887263 237.64183 
C 1001.102979 239.703171 996.998649 241.11307 992.746483 241.812369 
C 988.494317 242.511668 984.15463 242.490449 979.909505 241.749602 
C 975.664381 241.008755 971.574035 239.558789 967.810089 237.46054 
C 964.046143 235.362292 960.661987 232.645524 957.799614 229.424227 
C 954.937241 226.20293 952.637251 222.522796 950.996148 218.538237 
C 949.355045 214.553677 948.396107 210.32121 948.159569 206.018422 
C 947.923031 201.715634 948.412247 197.403558 949.606693 193.263119 
C 950.801138 189.12268 952.683869 185.212608 955.175891 181.696962 
C 957.667912 178.181317 960.733876 175.109965 964.245141 172.611775 
C 967.756406 170.113584 971.663166 168.223991 975.801501 167.022277 
C 979.939836 165.820564 984.251047 165.323777 988.554244 165.55276 
C 992.857441 165.781744 997.091585 166.733249 1001.07902 168.367353 
C 1005.066454 170.001458 1008.750621 172.294982 1011.976939 175.151695 
C 1015.203256 178.008408 1017.925962 181.387789 1020.030816 185.148045 
C 1022.135669 188.908301 1023.592816 192.996095 1024.341115 197.239912 
L 1062.169064 190.569824 
z
" style="fill: #1f77b4; stroke: #ffffff; stroke-width: 4; stroke-linejoin: miter"/>
   </g>
   <g id="patch_27">
    <path d="M 1049.855931 259.720692 
C 1052.509184 256.792907 1054.932615 253.664787 1057.104644 250.364186 
C 1059.276673 247.063585 1061.190834 243.600329 1062.830082 240.005257 
L 1027.880327 224.069183 
C 1027.060703 225.866718 1026.103623 227.598346 1025.017608 229.248647 
C 1023.931594 230.898947 1022.719878 232.463007 1021.393252 233.9269 
L 1049.855931 259.720692 
z
" style="fill: #ff7f0e; stroke: #ffffff; stroke-width: 4; stroke-linejoin: miter"/>
   </g>
   <g id="patch_28">
    <path d="M 1063.703352 238.203675 
C 1064.8418 235.706919 1065.845658 233.150958 1066.710609 230.546784 
C 1067.575559 227.942611 1068.30036 225.293963 1068.881894 222.612233 
L 1031.342868 214.47188 
C 1031.052101 215.812745 1030.689701 217.137068 1030.257225 218.439155 
C 1029.82475 219.741242 1029.322821 221.019222 1028.753597 222.267601 
L 1063.703352 238.203675 
z
" style="fill: #2ca02c; stroke: #ffffff; stroke-width: 4; stroke-linejoin: miter"/>
   </g>
   <g id="patch_29">
    <path d="M 1069.222545 221.074216 
C 1069.756027 218.614079 1070.168267 216.129207 1070.457773 213.628594 
C 1070.747278 211.127982 1070.9137 208.61465 1070.956435 206.097697 
L 1032.550464 205.445603 
C 1032.529097 206.704079 1032.445886 207.960745 1032.301133 209.211051 
C 1032.15638 210.461358 1031.95026 211.703794 1031.683519 212.933862 
L 1069.222545 221.074216 
z
" style="fill: #d62728; stroke: #ffffff; stroke-width: 4; stroke-linejoin: miter"/>
   </g>
   <g id="patch_30">
    <path d="M 1070.983583 204.609619 
C 1071.025219 202.157436 1070.949403 199.704666 1070.756398 197.259736 
C 1070.563392 194.814805 1070.253417 192.38052 1069.827538 189.965243 
L 1031.99959 196.635337 
C 1032.212529 197.842975 1032.367516 199.060118 1032.464019 200.282583 
C 1032.560522 201.505048 1032.59843 202.731433 1032.577612 203.957525 
L 1070.983583 204.609619 
z
" style="fill: #9467bd; stroke: #ffffff; stroke-width: 4; stroke-linejoin: miter"/>
   </g>
   <g id="matplotlib.axis_3"/>
   <g id="matplotlib.axis_4"/>
   <g id="text_19">
    <!-- Languages -->
    <g style="fill: #2a475e" transform="translate(955.935041 206.59125)scale(0.1 -0.1)">
     <defs>
      <path id="DejaVuSans-Bold-4c" d="M 588 4666 
L 1791 4666 
L 1791 909 
L 3903 909 
L 3903 0 
L 588 0 
L 588 4666 
z
" transform="scale(0.015625)"/>
     </defs>
     <use xlink:href="#DejaVuSans-Bold-4c"/>
     <use xlink:href="#DejaVuSans-Bold-61" x="63.720703"/>
     <use xlink:href="#DejaVuSans-Bold-6e" x="131.201172"/>
     <use xlink:href="#DejaVuSans-Bold-67" x="202.392578"/>
     <use xlink:href="#DejaVuSans-Bold-75" x="273.974609"/>
     <use xlink:href="#DejaVuSans-Bold-61" x="345.166016"/>
     <use xlink:href="#DejaVuSans-Bold-67" x="412.646484"/>
     <use xlink:href="#DejaVuSans-Bold-65" x="484.228516"/>
     <use xlink:href="#DejaVuSans-Bold-73" x="552.050781"/>
    </g>
   </g>
   <g id="text_20">
    <!-- Languages exploited : -->
    <g style="fill: #2a475e" transform="translate(911.540353 101.881234)scale(0.12 -0.12)">
     <defs>
      <path id="DejaVuSans-Bold-78" d="M 1422 1791 
L 159 3500 
L 1344 3500 
L 2059 2463 
L 2784 3500 
L 3969 3500 
L 2706 1797 
L 4031 0 
L 2847 0 
L 2059 1106 
L 1281 0 
L 97 0 
L 1422 1791 
z
" transform="scale(0.015625)"/>
     </defs>
     <use xlink:href="#DejaVuSans-Bold-4c"/>
     <use xlink:href="#DejaVuSans-Bold-61" x="63.720703"/>
     <use xlink:href="#DejaVuSans-Bold-6e" x="131.201172"/>
     <use xlink:href="#DejaVuSans-Bold-67" x="202.392578"/>
     <use xlink:href="#DejaVuSans-Bold-75" x="273.974609"/>
     <use xlink:href="#DejaVuSans-Bold-61" x="345.166016"/>
     <use xlink:href="#DejaVuSans-Bold-67" x="412.646484"/>
     <use xlink:href="#DejaVuSans-Bold-65" x="484.228516"/>
     <use xlink:href="#DejaVuSans-Bold-73" x="552.050781"/>
     <use xlink:href="#DejaVuSans-Bold-20" x="611.572266"/>
     <use xlink:href="#DejaVuSans-Bold-65" x="646.386719"/>
     <use xlink:href="#DejaVuSans-Bold-78" x="714.208984"/>
     <use xlink:href="#DejaVuSans-Bold-70" x="778.710938"/>
     <use xlink:href="#DejaVuSans-Bold-6c" x="850.292969"/>
     <use xlink:href="#DejaVuSans-Bold-6f" x="884.570312"/>
     <use xlink:href="#DejaVuSans-Bold-69" x="953.271484"/>
     <use xlink:href="#DejaVuSans-Bold-74" x="987.548828"/>
     <use xlink:href="#DejaVuSans-Bold-65" x="1035.351562"/>
     <use xlink:href="#DejaVuSans-Bold-64" x="1103.173828"/>
     <use xlink:href="#DejaVuSans-Bold-20" x="1174.755859"/>
     <use xlink:href="#DejaVuSans-Bold-3a" x="1209.570312"/>
    </g>
   </g>
  </g>
  <g id="text_21">
   <!-- From 27 February, 2024 to 05 March, 2024: 18 hrs 56 mins -->
   <g transform="translate(81.988594 29.995312)scale(0.3 -0.3)">
    <defs>
     <path id="DejaVuSans-Bold-46" d="M 588 4666 
L 3834 4666 
L 3834 3756 
L 1791 3756 
L 1791 2888 
L 3713 2888 
L 3713 1978 
L 1791 1978 
L 1791 0 
L 588 0 
L 588 4666 
z
" transform="scale(0.015625)"/>
     <path id="DejaVuSans-Bold-37" d="M 428 4666 
L 3944 4666 
L 3944 3988 
L 2125 0 
L 953 0 
L 2675 3781 
L 428 3781 
L 428 4666 
z
" transform="scale(0.015625)"/>
     <path id="DejaVuSans-Bold-62" d="M 2400 722 
Q 2759 722 2948 984 
Q 3138 1247 3138 1747 
Q 3138 2247 2948 2509 
Q 2759 2772 2400 2772 
Q 2041 2772 1848 2508 
Q 1656 2244 1656 1747 
Q 1656 1250 1848 986 
Q 2041 722 2400 722 
z
M 1656 2988 
Q 1888 3294 2169 3439 
Q 2450 3584 2816 3584 
Q 3463 3584 3878 3070 
Q 4294 2556 4294 1747 
Q 4294 938 3878 423 
Q 3463 -91 2816 -91 
Q 2450 -91 2169 54 
Q 1888 200 1656 506 
L 1656 0 
L 538 0 
L 538 4863 
L 1656 4863 
L 1656 2988 
z
" transform="scale(0.015625)"/>
     <path id="DejaVuSans-Bold-2c" d="M 653 1209 
L 1778 1209 
L 1778 256 
L 1006 -909 
L 341 -909 
L 653 256 
L 653 1209 
z
" transform="scale(0.015625)"/>
     <path id="DejaVuSans-Bold-4d" d="M 588 4666 
L 2119 4666 
L 3181 2169 
L 4250 4666 
L 5778 4666 
L 5778 0 
L 4641 0 
L 4641 3413 
L 3566 897 
L 2803 897 
L 1728 3413 
L 1728 0 
L 588 0 
L 588 4666 
z
" transform="scale(0.015625)"/>
    </defs>
    <use xlink:href="#DejaVuSans-Bold-46"/>
    <use xlink:href="#DejaVuSans-Bold-72" x="61.935547"/>
    <use xlink:href="#DejaVuSans-Bold-6f" x="111.251953"/>
    <use xlink:href="#DejaVuSans-Bold-6d" x="179.953125"/>
    <use xlink:href="#DejaVuSans-Bold-20" x="284.152344"/>
    <use xlink:href="#DejaVuSans-Bold-32" x="318.966797"/>
    <use xlink:href="#DejaVuSans-Bold-37" x="388.546875"/>
    <use xlink:href="#DejaVuSans-Bold-20" x="458.126953"/>
    <use xlink:href="#DejaVuSans-Bold-46" x="492.941406"/>
    <use xlink:href="#DejaVuSans-Bold-65" x="557.251953"/>
    <use xlink:href="#DejaVuSans-Bold-62" x="625.074219"/>
    <use xlink:href="#DejaVuSans-Bold-72" x="696.65625"/>
    <use xlink:href="#DejaVuSans-Bold-75" x="745.972656"/>
    <use xlink:href="#DejaVuSans-Bold-61" x="817.164062"/>
    <use xlink:href="#DejaVuSans-Bold-72" x="884.644531"/>
    <use xlink:href="#DejaVuSans-Bold-79" x="933.960938"/>
    <use xlink:href="#DejaVuSans-Bold-2c" x="991.396484"/>
    <use xlink:href="#DejaVuSans-Bold-20" x="1029.384766"/>
    <use xlink:href="#DejaVuSans-Bold-32" x="1064.199219"/>
    <use xlink:href="#DejaVuSans-Bold-30" x="1133.779297"/>
    <use xlink:href="#DejaVuSans-Bold-32" x="1203.359375"/>
    <use xlink:href="#DejaVuSans-Bold-34" x="1272.939453"/>
    <use xlink:href="#DejaVuSans-Bold-20" x="1342.519531"/>
    <use xlink:href="#DejaVuSans-Bold-74" x="1377.333984"/>
    <use xlink:href="#DejaVuSans-Bold-6f" x="1425.136719"/>
    <use xlink:href="#DejaVuSans-Bold-20" x="1493.837891"/>
    <use xlink:href="#DejaVuSans-Bold-30" x="1528.652344"/>
    <use xlink:href="#DejaVuSans-Bold-35" x="1598.232422"/>
    <use xlink:href="#DejaVuSans-Bold-20" x="1667.8125"/>
    <use xlink:href="#DejaVuSans-Bold-4d" x="1702.626953"/>
    <use xlink:href="#DejaVuSans-Bold-61" x="1802.138672"/>
    <use xlink:href="#DejaVuSans-Bold-72" x="1869.619141"/>
    <use xlink:href="#DejaVuSans-Bold-63" x="1918.935547"/>
    <use xlink:href="#DejaVuSans-Bold-68" x="1978.212891"/>
    <use xlink:href="#DejaVuSans-Bold-2c" x="2049.404297"/>
    <use xlink:href="#DejaVuSans-Bold-20" x="2087.392578"/>
    <use xlink:href="#DejaVuSans-Bold-32" x="2122.207031"/>
    <use xlink:href="#DejaVuSans-Bold-30" x="2191.787109"/>
    <use xlink:href="#DejaVuSans-Bold-32" x="2261.367188"/>
    <use xlink:href="#DejaVuSans-Bold-34" x="2330.947266"/>
    <use xlink:href="#DejaVuSans-Bold-3a" x="2400.527344"/>
    <use xlink:href="#DejaVuSans-Bold-20" x="2440.517578"/>
    <use xlink:href="#DejaVuSans-Bold-31" x="2475.332031"/>
    <use xlink:href="#DejaVuSans-Bold-38" x="2544.912109"/>
    <use xlink:href="#DejaVuSans-Bold-20" x="2614.492188"/>
    <use xlink:href="#DejaVuSans-Bold-68" x="2649.306641"/>
    <use xlink:href="#DejaVuSans-Bold-72" x="2720.498047"/>
    <use xlink:href="#DejaVuSans-Bold-73" x="2769.814453"/>
    <use xlink:href="#DejaVuSans-Bold-20" x="2829.335938"/>
    <use xlink:href="#DejaVuSans-Bold-35" x="2864.150391"/>
    <use xlink:href="#DejaVuSans-Bold-36" x="2933.730469"/>
    <use xlink:href="#DejaVuSans-Bold-20" x="3003.310547"/>
    <use xlink:href="#DejaVuSans-Bold-6d" x="3038.125"/>
    <use xlink:href="#DejaVuSans-Bold-69" x="3142.324219"/>
    <use xlink:href="#DejaVuSans-Bold-6e" x="3176.601562"/>
    <use xlink:href="#DejaVuSans-Bold-73" x="3247.792969"/>
   </g>
  </g>
 </g>
 <defs>
  <clipPath id="p090fbe46ba">
   <rect x="339.24375" y="56.32" width="384.115065" height="295.18"/>
  </clipPath>
 </defs>
</svg>
