<?xml version="1.0" encoding="utf-8" standalone="no"?>
<!DOCTYPE svg PUBLIC "-//W3C//DTD SVG 1.1//EN"
  "http://www.w3.org/Graphics/SVG/1.1/DTD/svg11.dtd">
<svg xmlns:xlink="http://www.w3.org/1999/xlink" width="1156.056533pt" height="362.2pt" viewBox="0 0 1156.056533 362.2" xmlns="http://www.w3.org/2000/svg" version="1.1">
 <metadata>
  <rdf:RDF xmlns:dc="http://purl.org/dc/elements/1.1/" xmlns:cc="http://creativecommons.org/ns#" xmlns:rdf="http://www.w3.org/1999/02/22-rdf-syntax-ns#">
   <cc:Work>
    <dc:type rdf:resource="http://purl.org/dc/dcmitype/StillImage"/>
    <dc:date>2026-04-17T01:16:30.480671</dc:date>
    <dc:format>image/svg+xml</dc:format>
    <dc:creator>
     <cc:Agent>
      <dc:title>Matplotlib v3.9.1.post1, https://matplotlib.org/</dc:title>
     </cc:Agent>
    </dc:creator>
   </cc:Work>
  </rdf:RDF>
 </metadata>
 <defs>
  <style type="text/css">*{stroke-linejoin: round; stroke-linecap: butt}</style>
 </defs>
 <g id="figure_1">
  <g id="patch_1">
   <path d="M 0 362.2 
L 1156.056533 362.2 
L 1156.056533 0 
L 0 0 
L 0 362.2 
z
" style="fill: none"/>
  </g>
  <g id="axes_1">
   <g id="patch_2">
    <path d="M 144.50625 355 
L 650.361311 355 
L 650.361311 56.32 
L 144.50625 56.32 
L 144.50625 355 
z
" style="fill: none"/>
   </g>
   <g id="patch_3">
    <path d="M 144.50625 69.896364 
L 626.272975 69.896364 
L 626.272975 94.580661 
L 144.50625 94.580661 
z
" clip-path="url(#p3a6cd5f5f5)" style="fill: #b02dcd; stroke: #b02dcd; stroke-linejoin: miter"/>
   </g>
   <g id="patch_4">
    <path d="M 144.50625 119.264959 
L 411.323013 119.264959 
L 411.323013 143.949256 
L 144.50625 143.949256 
z
" clip-path="url(#p3a6cd5f5f5)" style="fill: #758948; stroke: #758948; stroke-linejoin: miter"/>
   </g>
   <g id="patch_5">
    <path d="M 144.50625 168.633554 
L 256.235129 168.633554 
L 256.235129 193.317851 
L 144.50625 193.317851 
z
" clip-path="url(#p3a6cd5f5f5)" style="fill: #b680ac; stroke: #b680ac; stroke-linejoin: miter"/>
   </g>
   <g id="patch_6">
    <path d="M 144.50625 218.002149 
L 208.16096 218.002149 
L 208.16096 242.686446 
L 144.50625 242.686446 
z
" clip-path="url(#p3a6cd5f5f5)" style="fill: #b0b655; stroke: #b0b655; stroke-linejoin: miter"/>
   </g>
   <g id="patch_7">
    <path d="M 144.50625 267.370744 
L 198.423122 267.370744 
L 198.423122 292.055041 
L 144.50625 292.055041 
z
" clip-path="url(#p3a6cd5f5f5)" style="fill: #c78287; stroke: #c78287; stroke-linejoin: miter"/>
   </g>
   <g id="patch_8">
    <path d="M 144.50625 316.739339 
L 158.959252 316.739339 
L 158.959252 341.423636 
L 144.50625 341.423636 
z
" clip-path="url(#p3a6cd5f5f5)" style="fill: #bd7d71; stroke: #bd7d71; stroke-linejoin: miter"/>
   </g>
   <g id="matplotlib.axis_1"/>
   <g id="matplotlib.axis_2">
    <g id="ytick_1">
     <g id="line2d_1">
      <defs>
       <path id="m2506c55cea" d="M 0 0 
L -3.5 0 
" style="stroke: #000000; stroke-width: 0.8"/>
      </defs>
      <g>
       <use xlink:href="#m2506c55cea" x="144.50625" y="82.238512" style="stroke: #000000; stroke-width: 0.8"/>
      </g>
     </g>
     <g id="text_1">
      <!-- Commitor -->
      <g style="fill: #586069" transform="translate(27.3875 89.83695) scale(0.2 -0.2)">
       <defs>
        <path id="DejaVuSans-Bold-43" d="M 4288 256 
Q 3956 84 3597 -3 
Q 3238 -91 2847 -91 
Q 1681 -91 1000 561 
Q 319 1213 319 2328 
Q 319 3447 1000 4098 
Q 1681 4750 2847 4750 
Q 3238 4750 3597 4662 
Q 3956 4575 4288 4403 
L 4288 3438 
Q 3953 3666 3628 3772 
Q 3303 3878 2944 3878 
Q 2300 3878 1931 3465 
Q 1563 3053 1563 2328 
Q 1563 1606 1931 1193 
Q 2300 781 2944 781 
Q 3303 781 3628 887 
Q 3953 994 4288 1222 
L 4288 256 
z
" transform="scale(0.015625)"/>
        <path id="DejaVuSans-Bold-6f" d="M 2203 2784 
Q 1831 2784 1636 2517 
Q 1441 2250 1441 1747 
Q 1441 1244 1636 976 
Q 1831 709 2203 709 
Q 2569 709 2762 976 
Q 2956 1244 2956 1747 
Q 2956 2250 2762 2517 
Q 2569 2784 2203 2784 
z
M 2203 3584 
Q 3106 3584 3614 3096 
Q 4122 2609 4122 1747 
Q 4122 884 3614 396 
Q 3106 -91 2203 -91 
Q 1297 -91 786 396 
Q 275 884 275 1747 
Q 275 2609 786 3096 
Q 1297 3584 2203 3584 
z
" transform="scale(0.015625)"/>
        <path id="DejaVuSans-Bold-6d" d="M 3781 2919 
Q 3994 3244 4286 3414 
Q 4578 3584 4928 3584 
Q 5531 3584 5847 3212 
Q 6163 2841 6163 2131 
L 6163 0 
L 5038 0 
L 5038 1825 
Q 5041 1866 5042 1909 
Q 5044 1953 5044 2034 
Q 5044 2406 4934 2573 
Q 4825 2741 4581 2741 
Q 4263 2741 4089 2478 
Q 3916 2216 3909 1719 
L 3909 0 
L 2784 0 
L 2784 1825 
Q 2784 2406 2684 2573 
Q 2584 2741 2328 2741 
Q 2006 2741 1831 2477 
Q 1656 2213 1656 1722 
L 1656 0 
L 531 0 
L 531 3500 
L 1656 3500 
L 1656 2988 
Q 1863 3284 2130 3434 
Q 2397 3584 2719 3584 
Q 3081 3584 3359 3409 
Q 3638 3234 3781 2919 
z
" transform="scale(0.015625)"/>
        <path id="DejaVuSans-Bold-69" d="M 538 3500 
L 1656 3500 
L 1656 0 
L 538 0 
L 538 3500 
z
M 538 4863 
L 1656 4863 
L 1656 3950 
L 538 3950 
L 538 4863 
z
" transform="scale(0.015625)"/>
        <path id="DejaVuSans-Bold-74" d="M 1759 4494 
L 1759 3500 
L 2913 3500 
L 2913 2700 
L 1759 2700 
L 1759 1216 
Q 1759 972 1856 886 
Q 1953 800 2241 800 
L 2816 800 
L 2816 0 
L 1856 0 
Q 1194 0 917 276 
Q 641 553 641 1216 
L 641 2700 
L 84 2700 
L 84 3500 
L 641 3500 
L 641 4494 
L 1759 4494 
z
" transform="scale(0.015625)"/>
        <path id="DejaVuSans-Bold-72" d="M 3138 2547 
Q 2991 2616 2845 2648 
Q 2700 2681 2553 2681 
Q 2122 2681 1889 2404 
Q 1656 2128 1656 1613 
L 1656 0 
L 538 0 
L 538 3500 
L 1656 3500 
L 1656 2925 
Q 1872 3269 2151 3426 
Q 2431 3584 2822 3584 
Q 2878 3584 2943 3579 
Q 3009 3575 3134 3559 
L 3138 2547 
z
" transform="scale(0.015625)"/>
       </defs>
       <use xlink:href="#DejaVuSans-Bold-43"/>
       <use xlink:href="#DejaVuSans-Bold-6f" x="73.388672"/>
       <use xlink:href="#DejaVuSans-Bold-6d" x="142.089844"/>
       <use xlink:href="#DejaVuSans-Bold-6d" x="246.289062"/>
       <use xlink:href="#DejaVuSans-Bold-69" x="350.488281"/>
       <use xlink:href="#DejaVuSans-Bold-74" x="384.765625"/>
       <use xlink:href="#DejaVuSans-Bold-6f" x="432.568359"/>
       <use xlink:href="#DejaVuSans-Bold-72" x="501.269531"/>
      </g>
     </g>
    </g>
    <g id="ytick_2">
     <g id="line2d_2">
      <g>
       <use xlink:href="#m2506c55cea" x="144.50625" y="131.607107" style="stroke: #000000; stroke-width: 0.8"/>
      </g>
     </g>
     <g id="text_2">
      <!-- PathGennie -->
      <g style="fill: #586069" transform="translate(7.2 139.205545) scale(0.2 -0.2)">
       <defs>
        <path id="DejaVuSans-Bold-50" d="M 588 4666 
L 2584 4666 
Q 3475 4666 3951 4270 
Q 4428 3875 4428 3144 
Q 4428 2409 3951 2014 
Q 3475 1619 2584 1619 
L 1791 1619 
L 1791 0 
L 588 0 
L 588 4666 
z
M 1791 3794 
L 1791 2491 
L 2456 2491 
Q 2806 2491 2997 2661 
Q 3188 2831 3188 3144 
Q 3188 3456 2997 3625 
Q 2806 3794 2456 3794 
L 1791 3794 
z
" transform="scale(0.015625)"/>
        <path id="DejaVuSans-Bold-61" d="M 2106 1575 
Q 1756 1575 1579 1456 
Q 1403 1338 1403 1106 
Q 1403 894 1545 773 
Q 1688 653 1941 653 
Q 2256 653 2472 879 
Q 2688 1106 2688 1447 
L 2688 1575 
L 2106 1575 
z
M 3816 1997 
L 3816 0 
L 2688 0 
L 2688 519 
Q 2463 200 2181 54 
Q 1900 -91 1497 -91 
Q 953 -91 614 226 
Q 275 544 275 1050 
Q 275 1666 698 1953 
Q 1122 2241 2028 2241 
L 2688 2241 
L 2688 2328 
Q 2688 2594 2478 2717 
Q 2269 2841 1825 2841 
Q 1466 2841 1156 2769 
Q 847 2697 581 2553 
L 581 3406 
Q 941 3494 1303 3539 
Q 1666 3584 2028 3584 
Q 2975 3584 3395 3211 
Q 3816 2838 3816 1997 
z
" transform="scale(0.015625)"/>
        <path id="DejaVuSans-Bold-68" d="M 4056 2131 
L 4056 0 
L 2931 0 
L 2931 347 
L 2931 1625 
Q 2931 2084 2911 2256 
Q 2891 2428 2841 2509 
Q 2775 2619 2662 2680 
Q 2550 2741 2406 2741 
Q 2056 2741 1856 2470 
Q 1656 2200 1656 1722 
L 1656 0 
L 538 0 
L 538 4863 
L 1656 4863 
L 1656 2988 
Q 1909 3294 2193 3439 
Q 2478 3584 2822 3584 
Q 3428 3584 3742 3212 
Q 4056 2841 4056 2131 
z
" transform="scale(0.015625)"/>
        <path id="DejaVuSans-Bold-47" d="M 4781 347 
Q 4331 128 3847 18 
Q 3363 -91 2847 -91 
Q 1681 -91 1000 561 
Q 319 1213 319 2328 
Q 319 3456 1012 4103 
Q 1706 4750 2913 4750 
Q 3378 4750 3804 4662 
Q 4231 4575 4609 4403 
L 4609 3438 
Q 4219 3659 3833 3768 
Q 3447 3878 3059 3878 
Q 2341 3878 1952 3476 
Q 1563 3075 1563 2328 
Q 1563 1588 1938 1184 
Q 2313 781 3003 781 
Q 3191 781 3352 804 
Q 3513 828 3641 878 
L 3641 1784 
L 2906 1784 
L 2906 2591 
L 4781 2591 
L 4781 347 
z
" transform="scale(0.015625)"/>
        <path id="DejaVuSans-Bold-65" d="M 4031 1759 
L 4031 1441 
L 1416 1441 
Q 1456 1047 1700 850 
Q 1944 653 2381 653 
Q 2734 653 3104 758 
Q 3475 863 3866 1075 
L 3866 213 
Q 3469 63 3072 -14 
Q 2675 -91 2278 -91 
Q 1328 -91 801 392 
Q 275 875 275 1747 
Q 275 2603 792 3093 
Q 1309 3584 2216 3584 
Q 3041 3584 3536 3087 
Q 4031 2591 4031 1759 
z
M 2881 2131 
Q 2881 2450 2695 2645 
Q 2509 2841 2209 2841 
Q 1884 2841 1681 2658 
Q 1478 2475 1428 2131 
L 2881 2131 
z
" transform="scale(0.015625)"/>
        <path id="DejaVuSans-Bold-6e" d="M 4056 2131 
L 4056 0 
L 2931 0 
L 2931 347 
L 2931 1631 
Q 2931 2084 2911 2256 
Q 2891 2428 2841 2509 
Q 2775 2619 2662 2680 
Q 2550 2741 2406 2741 
Q 2056 2741 1856 2470 
Q 1656 2200 1656 1722 
L 1656 0 
L 538 0 
L 538 3500 
L 1656 3500 
L 1656 2988 
Q 1909 3294 2193 3439 
Q 2478 3584 2822 3584 
Q 3428 3584 3742 3212 
Q 4056 2841 4056 2131 
z
" transform="scale(0.015625)"/>
       </defs>
       <use xlink:href="#DejaVuSans-Bold-50"/>
       <use xlink:href="#DejaVuSans-Bold-61" x="70.666016"/>
       <use xlink:href="#DejaVuSans-Bold-74" x="138.146484"/>
       <use xlink:href="#DejaVuSans-Bold-68" x="185.949219"/>
       <use xlink:href="#DejaVuSans-Bold-47" x="257.140625"/>
       <use xlink:href="#DejaVuSans-Bold-65" x="339.220703"/>
       <use xlink:href="#DejaVuSans-Bold-6e" x="407.042969"/>
       <use xlink:href="#DejaVuSans-Bold-6e" x="478.234375"/>
       <use xlink:href="#DejaVuSans-Bold-69" x="549.425781"/>
       <use xlink:href="#DejaVuSans-Bold-65" x="583.703125"/>
      </g>
     </g>
    </g>
    <g id="ytick_3">
     <g id="line2d_3">
      <g>
       <use xlink:href="#m2506c55cea" x="144.50625" y="180.975702" style="stroke: #000000; stroke-width: 0.8"/>
      </g>
     </g>
     <g id="text_3">
      <!-- Nucleation -->
      <g style="fill: #586069" transform="translate(16.3625 188.57414) scale(0.2 -0.2)">
       <defs>
        <path id="DejaVuSans-Bold-4e" d="M 588 4666 
L 1931 4666 
L 3628 1466 
L 3628 4666 
L 4769 4666 
L 4769 0 
L 3425 0 
L 1728 3200 
L 1728 0 
L 588 0 
L 588 4666 
z
" transform="scale(0.015625)"/>
        <path id="DejaVuSans-Bold-75" d="M 500 1363 
L 500 3500 
L 1625 3500 
L 1625 3150 
Q 1625 2866 1622 2436 
Q 1619 2006 1619 1863 
Q 1619 1441 1641 1255 
Q 1663 1069 1716 984 
Q 1784 875 1895 815 
Q 2006 756 2150 756 
Q 2500 756 2700 1025 
Q 2900 1294 2900 1772 
L 2900 3500 
L 4019 3500 
L 4019 0 
L 2900 0 
L 2900 506 
Q 2647 200 2364 54 
Q 2081 -91 1741 -91 
Q 1134 -91 817 281 
Q 500 653 500 1363 
z
" transform="scale(0.015625)"/>
        <path id="DejaVuSans-Bold-63" d="M 3366 3391 
L 3366 2478 
Q 3138 2634 2908 2709 
Q 2678 2784 2431 2784 
Q 1963 2784 1702 2511 
Q 1441 2238 1441 1747 
Q 1441 1256 1702 982 
Q 1963 709 2431 709 
Q 2694 709 2930 787 
Q 3166 866 3366 1019 
L 3366 103 
Q 3103 6 2833 -42 
Q 2563 -91 2291 -91 
Q 1344 -91 809 395 
Q 275 881 275 1747 
Q 275 2613 809 3098 
Q 1344 3584 2291 3584 
Q 2566 3584 2833 3536 
Q 3100 3488 3366 3391 
z
" transform="scale(0.015625)"/>
        <path id="DejaVuSans-Bold-6c" d="M 538 4863 
L 1656 4863 
L 1656 0 
L 538 0 
L 538 4863 
z
" transform="scale(0.015625)"/>
       </defs>
       <use xlink:href="#DejaVuSans-Bold-4e"/>
       <use xlink:href="#DejaVuSans-Bold-75" x="83.691406"/>
       <use xlink:href="#DejaVuSans-Bold-63" x="154.882812"/>
       <use xlink:href="#DejaVuSans-Bold-6c" x="214.160156"/>
       <use xlink:href="#DejaVuSans-Bold-65" x="248.4375"/>
       <use xlink:href="#DejaVuSans-Bold-61" x="316.259766"/>
       <use xlink:href="#DejaVuSans-Bold-74" x="383.740234"/>
       <use xlink:href="#DejaVuSans-Bold-69" x="431.542969"/>
       <use xlink:href="#DejaVuSans-Bold-6f" x="465.820312"/>
       <use xlink:href="#DejaVuSans-Bold-6e" x="534.521484"/>
      </g>
     </g>
    </g>
    <g id="ytick_4">
     <g id="line2d_4">
      <g>
       <use xlink:href="#m2506c55cea" x="144.50625" y="230.344298" style="stroke: #000000; stroke-width: 0.8"/>
      </g>
     </g>
     <g id="text_4">
      <!-- habit-forge -->
      <g style="fill: #586069" transform="translate(10.55625 237.942735) scale(0.2 -0.2)">
       <defs>
        <path id="DejaVuSans-Bold-62" d="M 2400 722 
Q 2759 722 2948 984 
Q 3138 1247 3138 1747 
Q 3138 2247 2948 2509 
Q 2759 2772 2400 2772 
Q 2041 2772 1848 2508 
Q 1656 2244 1656 1747 
Q 1656 1250 1848 986 
Q 2041 722 2400 722 
z
M 1656 2988 
Q 1888 3294 2169 3439 
Q 2450 3584 2816 3584 
Q 3463 3584 3878 3070 
Q 4294 2556 4294 1747 
Q 4294 938 3878 423 
Q 3463 -91 2816 -91 
Q 2450 -91 2169 54 
Q 1888 200 1656 506 
L 1656 0 
L 538 0 
L 538 4863 
L 1656 4863 
L 1656 2988 
z
" transform="scale(0.015625)"/>
        <path id="DejaVuSans-Bold-2d" d="M 347 2297 
L 2309 2297 
L 2309 1388 
L 347 1388 
L 347 2297 
z
" transform="scale(0.015625)"/>
        <path id="DejaVuSans-Bold-66" d="M 2841 4863 
L 2841 4128 
L 2222 4128 
Q 1984 4128 1890 4042 
Q 1797 3956 1797 3744 
L 1797 3500 
L 2753 3500 
L 2753 2700 
L 1797 2700 
L 1797 0 
L 678 0 
L 678 2700 
L 122 2700 
L 122 3500 
L 678 3500 
L 678 3744 
Q 678 4316 997 4589 
Q 1316 4863 1984 4863 
L 2841 4863 
z
" transform="scale(0.015625)"/>
        <path id="DejaVuSans-Bold-67" d="M 2919 594 
Q 2688 288 2409 144 
Q 2131 0 1766 0 
Q 1125 0 706 504 
Q 288 1009 288 1791 
Q 288 2575 706 3076 
Q 1125 3578 1766 3578 
Q 2131 3578 2409 3434 
Q 2688 3291 2919 2981 
L 2919 3500 
L 4044 3500 
L 4044 353 
Q 4044 -491 3511 -936 
Q 2978 -1381 1966 -1381 
Q 1638 -1381 1331 -1331 
Q 1025 -1281 716 -1178 
L 716 -306 
Q 1009 -475 1290 -558 
Q 1572 -641 1856 -641 
Q 2406 -641 2662 -400 
Q 2919 -159 2919 353 
L 2919 594 
z
M 2181 2772 
Q 1834 2772 1640 2515 
Q 1447 2259 1447 1791 
Q 1447 1309 1634 1061 
Q 1822 813 2181 813 
Q 2531 813 2725 1069 
Q 2919 1325 2919 1791 
Q 2919 2259 2725 2515 
Q 2531 2772 2181 2772 
z
" transform="scale(0.015625)"/>
       </defs>
       <use xlink:href="#DejaVuSans-Bold-68"/>
       <use xlink:href="#DejaVuSans-Bold-61" x="71.191406"/>
       <use xlink:href="#DejaVuSans-Bold-62" x="138.671875"/>
       <use xlink:href="#DejaVuSans-Bold-69" x="210.253906"/>
       <use xlink:href="#DejaVuSans-Bold-74" x="244.53125"/>
       <use xlink:href="#DejaVuSans-Bold-2d" x="292.333984"/>
       <use xlink:href="#DejaVuSans-Bold-66" x="333.837891"/>
       <use xlink:href="#DejaVuSans-Bold-6f" x="377.34375"/>
       <use xlink:href="#DejaVuSans-Bold-72" x="446.044922"/>
       <use xlink:href="#DejaVuSans-Bold-67" x="495.361328"/>
       <use xlink:href="#DejaVuSans-Bold-65" x="566.943359"/>
      </g>
     </g>
    </g>
    <g id="ytick_5">
     <g id="line2d_5">
      <g>
       <use xlink:href="#m2506c55cea" x="144.50625" y="279.712893" style="stroke: #000000; stroke-width: 0.8"/>
      </g>
     </g>
     <g id="text_5">
      <!-- Sanket -->
      <g style="fill: #586069" transform="translate(59.46875 287.31133) scale(0.2 -0.2)">
       <defs>
        <path id="DejaVuSans-Bold-53" d="M 3834 4519 
L 3834 3531 
Q 3450 3703 3084 3790 
Q 2719 3878 2394 3878 
Q 1963 3878 1756 3759 
Q 1550 3641 1550 3391 
Q 1550 3203 1689 3098 
Q 1828 2994 2194 2919 
L 2706 2816 
Q 3484 2659 3812 2340 
Q 4141 2022 4141 1434 
Q 4141 663 3683 286 
Q 3225 -91 2284 -91 
Q 1841 -91 1394 -6 
Q 947 78 500 244 
L 500 1259 
Q 947 1022 1364 901 
Q 1781 781 2169 781 
Q 2563 781 2772 912 
Q 2981 1044 2981 1288 
Q 2981 1506 2839 1625 
Q 2697 1744 2272 1838 
L 1806 1941 
Q 1106 2091 782 2419 
Q 459 2747 459 3303 
Q 459 4000 909 4375 
Q 1359 4750 2203 4750 
Q 2588 4750 2994 4692 
Q 3400 4634 3834 4519 
z
" transform="scale(0.015625)"/>
        <path id="DejaVuSans-Bold-6b" d="M 538 4863 
L 1656 4863 
L 1656 2216 
L 2944 3500 
L 4244 3500 
L 2534 1894 
L 4378 0 
L 3022 0 
L 1656 1459 
L 1656 0 
L 538 0 
L 538 4863 
z
" transform="scale(0.015625)"/>
       </defs>
       <use xlink:href="#DejaVuSans-Bold-53"/>
       <use xlink:href="#DejaVuSans-Bold-61" x="72.021484"/>
       <use xlink:href="#DejaVuSans-Bold-6e" x="139.501953"/>
       <use xlink:href="#DejaVuSans-Bold-6b" x="210.693359"/>
       <use xlink:href="#DejaVuSans-Bold-65" x="274.572266"/>
       <use xlink:href="#DejaVuSans-Bold-74" x="342.394531"/>
      </g>
     </g>
    </g>
    <g id="ytick_6">
     <g id="line2d_6">
      <g>
       <use xlink:href="#m2506c55cea" x="144.50625" y="329.081488" style="stroke: #000000; stroke-width: 0.8"/>
      </g>
     </g>
     <g id="text_6">
      <!-- CogniFlow -->
      <g style="fill: #586069" transform="translate(20.940625 336.679925) scale(0.2 -0.2)">
       <defs>
        <path id="DejaVuSans-Bold-46" d="M 588 4666 
L 3834 4666 
L 3834 3756 
L 1791 3756 
L 1791 2888 
L 3713 2888 
L 3713 1978 
L 1791 1978 
L 1791 0 
L 588 0 
L 588 4666 
z
" transform="scale(0.015625)"/>
        <path id="DejaVuSans-Bold-77" d="M 225 3500 
L 1313 3500 
L 1900 1088 
L 2491 3500 
L 3425 3500 
L 4013 1113 
L 4603 3500 
L 5691 3500 
L 4769 0 
L 3547 0 
L 2956 2406 
L 2369 0 
L 1147 0 
L 225 3500 
z
" transform="scale(0.015625)"/>
       </defs>
       <use xlink:href="#DejaVuSans-Bold-43"/>
       <use xlink:href="#DejaVuSans-Bold-6f" x="73.388672"/>
       <use xlink:href="#DejaVuSans-Bold-67" x="142.089844"/>
       <use xlink:href="#DejaVuSans-Bold-6e" x="213.671875"/>
       <use xlink:href="#DejaVuSans-Bold-69" x="284.863281"/>
       <use xlink:href="#DejaVuSans-Bold-46" x="319.140625"/>
       <use xlink:href="#DejaVuSans-Bold-6c" x="387.451172"/>
       <use xlink:href="#DejaVuSans-Bold-6f" x="421.728516"/>
       <use xlink:href="#DejaVuSans-Bold-77" x="490.429688"/>
      </g>
     </g>
    </g>
   </g>
   <g id="patch_9">
    <path d="M 144.50625 355 
L 144.50625 56.32 
" style="fill: none; stroke: #000000; stroke-width: 0.8; stroke-linejoin: miter; stroke-linecap: square"/>
   </g>
   <g id="patch_10">
    <path d="M 144.50625 355 
L 650.361311 355 
" style="fill: none; stroke: #000000; stroke-width: 0.8; stroke-linejoin: miter; stroke-linecap: square"/>
   </g>
   <g id="text_7">
    <!-- 28 hrs 12 mins -->
    <g style="fill: #586069" transform="translate(630.272975 86.377575) scale(0.15 -0.15)">
     <defs>
      <path id="DejaVuSans-Bold-32" d="M 1844 884 
L 3897 884 
L 3897 0 
L 506 0 
L 506 884 
L 2209 2388 
Q 2438 2594 2547 2791 
Q 2656 2988 2656 3200 
Q 2656 3528 2436 3728 
Q 2216 3928 1850 3928 
Q 1569 3928 1234 3808 
Q 900 3688 519 3450 
L 519 4475 
Q 925 4609 1322 4679 
Q 1719 4750 2100 4750 
Q 2938 4750 3402 4381 
Q 3866 4013 3866 3353 
Q 3866 2972 3669 2642 
Q 3472 2313 2841 1759 
L 1844 884 
z
" transform="scale(0.015625)"/>
      <path id="DejaVuSans-Bold-38" d="M 2228 2088 
Q 1891 2088 1709 1903 
Q 1528 1719 1528 1375 
Q 1528 1031 1709 848 
Q 1891 666 2228 666 
Q 2563 666 2741 848 
Q 2919 1031 2919 1375 
Q 2919 1722 2741 1905 
Q 2563 2088 2228 2088 
z
M 1350 2484 
Q 925 2613 709 2878 
Q 494 3144 494 3541 
Q 494 4131 934 4440 
Q 1375 4750 2228 4750 
Q 3075 4750 3515 4442 
Q 3956 4134 3956 3541 
Q 3956 3144 3739 2878 
Q 3522 2613 3097 2484 
Q 3572 2353 3814 2058 
Q 4056 1763 4056 1313 
Q 4056 619 3595 264 
Q 3134 -91 2228 -91 
Q 1319 -91 855 264 
Q 391 619 391 1313 
Q 391 1763 633 2058 
Q 875 2353 1350 2484 
z
M 1631 3419 
Q 1631 3141 1786 2991 
Q 1941 2841 2228 2841 
Q 2509 2841 2662 2991 
Q 2816 3141 2816 3419 
Q 2816 3697 2662 3845 
Q 2509 3994 2228 3994 
Q 1941 3994 1786 3844 
Q 1631 3694 1631 3419 
z
" transform="scale(0.015625)"/>
      <path id="DejaVuSans-Bold-20" transform="scale(0.015625)"/>
      <path id="DejaVuSans-Bold-73" d="M 3272 3391 
L 3272 2541 
Q 2913 2691 2578 2766 
Q 2244 2841 1947 2841 
Q 1628 2841 1473 2761 
Q 1319 2681 1319 2516 
Q 1319 2381 1436 2309 
Q 1553 2238 1856 2203 
L 2053 2175 
Q 2913 2066 3209 1816 
Q 3506 1566 3506 1031 
Q 3506 472 3093 190 
Q 2681 -91 1863 -91 
Q 1516 -91 1145 -36 
Q 775 19 384 128 
L 384 978 
Q 719 816 1070 734 
Q 1422 653 1784 653 
Q 2113 653 2278 743 
Q 2444 834 2444 1013 
Q 2444 1163 2330 1236 
Q 2216 1309 1875 1350 
L 1678 1375 
Q 931 1469 631 1722 
Q 331 1975 331 2491 
Q 331 3047 712 3315 
Q 1094 3584 1881 3584 
Q 2191 3584 2531 3537 
Q 2872 3491 3272 3391 
z
" transform="scale(0.015625)"/>
      <path id="DejaVuSans-Bold-31" d="M 750 831 
L 1813 831 
L 1813 3847 
L 722 3622 
L 722 4441 
L 1806 4666 
L 2950 4666 
L 2950 831 
L 4013 831 
L 4013 0 
L 750 0 
L 750 831 
z
" transform="scale(0.015625)"/>
     </defs>
     <use xlink:href="#DejaVuSans-Bold-32"/>
     <use xlink:href="#DejaVuSans-Bold-38" x="69.580078"/>
     <use xlink:href="#DejaVuSans-Bold-20" x="139.160156"/>
     <use xlink:href="#DejaVuSans-Bold-68" x="173.974609"/>
     <use xlink:href="#DejaVuSans-Bold-72" x="245.166016"/>
     <use xlink:href="#DejaVuSans-Bold-73" x="294.482422"/>
     <use xlink:href="#DejaVuSans-Bold-20" x="354.003906"/>
     <use xlink:href="#DejaVuSans-Bold-31" x="388.818359"/>
     <use xlink:href="#DejaVuSans-Bold-32" x="458.398438"/>
     <use xlink:href="#DejaVuSans-Bold-20" x="527.978516"/>
     <use xlink:href="#DejaVuSans-Bold-6d" x="562.792969"/>
     <use xlink:href="#DejaVuSans-Bold-69" x="666.992188"/>
     <use xlink:href="#DejaVuSans-Bold-6e" x="701.269531"/>
     <use xlink:href="#DejaVuSans-Bold-73" x="772.460938"/>
    </g>
   </g>
   <g id="text_8">
    <!-- 15 hrs 37 mins -->
    <g style="fill: #586069" transform="translate(415.323013 135.74617) scale(0.15 -0.15)">
     <defs>
      <path id="DejaVuSans-Bold-35" d="M 678 4666 
L 3669 4666 
L 3669 3781 
L 1638 3781 
L 1638 3059 
Q 1775 3097 1914 3117 
Q 2053 3138 2203 3138 
Q 3056 3138 3531 2711 
Q 4006 2284 4006 1522 
Q 4006 766 3489 337 
Q 2972 -91 2053 -91 
Q 1656 -91 1267 -14 
Q 878 63 494 219 
L 494 1166 
Q 875 947 1217 837 
Q 1559 728 1863 728 
Q 2300 728 2551 942 
Q 2803 1156 2803 1522 
Q 2803 1891 2551 2103 
Q 2300 2316 1863 2316 
Q 1603 2316 1309 2248 
Q 1016 2181 678 2041 
L 678 4666 
z
" transform="scale(0.015625)"/>
      <path id="DejaVuSans-Bold-33" d="M 2981 2516 
Q 3453 2394 3698 2092 
Q 3944 1791 3944 1325 
Q 3944 631 3412 270 
Q 2881 -91 1863 -91 
Q 1503 -91 1142 -33 
Q 781 25 428 141 
L 428 1069 
Q 766 900 1098 814 
Q 1431 728 1753 728 
Q 2231 728 2486 893 
Q 2741 1059 2741 1369 
Q 2741 1688 2480 1852 
Q 2219 2016 1709 2016 
L 1228 2016 
L 1228 2791 
L 1734 2791 
Q 2188 2791 2409 2933 
Q 2631 3075 2631 3366 
Q 2631 3634 2415 3781 
Q 2200 3928 1806 3928 
Q 1516 3928 1219 3862 
Q 922 3797 628 3669 
L 628 4550 
Q 984 4650 1334 4700 
Q 1684 4750 2022 4750 
Q 2931 4750 3382 4451 
Q 3834 4153 3834 3553 
Q 3834 3144 3618 2883 
Q 3403 2622 2981 2516 
z
" transform="scale(0.015625)"/>
      <path id="DejaVuSans-Bold-37" d="M 428 4666 
L 3944 4666 
L 3944 3988 
L 2125 0 
L 953 0 
L 2675 3781 
L 428 3781 
L 428 4666 
z
" transform="scale(0.015625)"/>
     </defs>
     <use xlink:href="#DejaVuSans-Bold-31"/>
     <use xlink:href="#DejaVuSans-Bold-35" x="69.580078"/>
     <use xlink:href="#DejaVuSans-Bold-20" x="139.160156"/>
     <use xlink:href="#DejaVuSans-Bold-68" x="173.974609"/>
     <use xlink:href="#DejaVuSans-Bold-72" x="245.166016"/>
     <use xlink:href="#DejaVuSans-Bold-73" x="294.482422"/>
     <use xlink:href="#DejaVuSans-Bold-20" x="354.003906"/>
     <use xlink:href="#DejaVuSans-Bold-33" x="388.818359"/>
     <use xlink:href="#DejaVuSans-Bold-37" x="458.398438"/>
     <use xlink:href="#DejaVuSans-Bold-20" x="527.978516"/>
     <use xlink:href="#DejaVuSans-Bold-6d" x="562.792969"/>
     <use xlink:href="#DejaVuSans-Bold-69" x="666.992188"/>
     <use xlink:href="#DejaVuSans-Bold-6e" x="701.269531"/>
     <use xlink:href="#DejaVuSans-Bold-73" x="772.460938"/>
    </g>
   </g>
   <g id="text_9">
    <!-- 6 hrs 32 mins -->
    <g style="fill: #586069" transform="translate(260.235129 185.114765) scale(0.15 -0.15)">
     <defs>
      <path id="DejaVuSans-Bold-36" d="M 2316 2303 
Q 2000 2303 1842 2098 
Q 1684 1894 1684 1484 
Q 1684 1075 1842 870 
Q 2000 666 2316 666 
Q 2634 666 2792 870 
Q 2950 1075 2950 1484 
Q 2950 1894 2792 2098 
Q 2634 2303 2316 2303 
z
M 3803 4544 
L 3803 3681 
Q 3506 3822 3243 3889 
Q 2981 3956 2731 3956 
Q 2194 3956 1894 3657 
Q 1594 3359 1544 2772 
Q 1750 2925 1990 3001 
Q 2231 3078 2516 3078 
Q 3231 3078 3670 2659 
Q 4109 2241 4109 1563 
Q 4109 813 3618 361 
Q 3128 -91 2303 -91 
Q 1394 -91 895 523 
Q 397 1138 397 2266 
Q 397 3422 980 4083 
Q 1563 4744 2578 4744 
Q 2900 4744 3203 4694 
Q 3506 4644 3803 4544 
z
" transform="scale(0.015625)"/>
     </defs>
     <use xlink:href="#DejaVuSans-Bold-36"/>
     <use xlink:href="#DejaVuSans-Bold-20" x="69.580078"/>
     <use xlink:href="#DejaVuSans-Bold-68" x="104.394531"/>
     <use xlink:href="#DejaVuSans-Bold-72" x="175.585938"/>
     <use xlink:href="#DejaVuSans-Bold-73" x="224.902344"/>
     <use xlink:href="#DejaVuSans-Bold-20" x="284.423828"/>
     <use xlink:href="#DejaVuSans-Bold-33" x="319.238281"/>
     <use xlink:href="#DejaVuSans-Bold-32" x="388.818359"/>
     <use xlink:href="#DejaVuSans-Bold-20" x="458.398438"/>
     <use xlink:href="#DejaVuSans-Bold-6d" x="493.212891"/>
     <use xlink:href="#DejaVuSans-Bold-69" x="597.412109"/>
     <use xlink:href="#DejaVuSans-Bold-6e" x="631.689453"/>
     <use xlink:href="#DejaVuSans-Bold-73" x="702.880859"/>
    </g>
   </g>
   <g id="text_10">
    <!-- 3 hrs 43 mins -->
    <g style="fill: #586069" transform="translate(212.16096 234.48336) scale(0.15 -0.15)">
     <defs>
      <path id="DejaVuSans-Bold-34" d="M 2356 3675 
L 1038 1722 
L 2356 1722 
L 2356 3675 
z
M 2156 4666 
L 3494 4666 
L 3494 1722 
L 4159 1722 
L 4159 850 
L 3494 850 
L 3494 0 
L 2356 0 
L 2356 850 
L 288 850 
L 288 1881 
L 2156 4666 
z
" transform="scale(0.015625)"/>
     </defs>
     <use xlink:href="#DejaVuSans-Bold-33"/>
     <use xlink:href="#DejaVuSans-Bold-20" x="69.580078"/>
     <use xlink:href="#DejaVuSans-Bold-68" x="104.394531"/>
     <use xlink:href="#DejaVuSans-Bold-72" x="175.585938"/>
     <use xlink:href="#DejaVuSans-Bold-73" x="224.902344"/>
     <use xlink:href="#DejaVuSans-Bold-20" x="284.423828"/>
     <use xlink:href="#DejaVuSans-Bold-34" x="319.238281"/>
     <use xlink:href="#DejaVuSans-Bold-33" x="388.818359"/>
     <use xlink:href="#DejaVuSans-Bold-20" x="458.398438"/>
     <use xlink:href="#DejaVuSans-Bold-6d" x="493.212891"/>
     <use xlink:href="#DejaVuSans-Bold-69" x="597.412109"/>
     <use xlink:href="#DejaVuSans-Bold-6e" x="631.689453"/>
     <use xlink:href="#DejaVuSans-Bold-73" x="702.880859"/>
    </g>
   </g>
   <g id="text_11">
    <!-- 3 hrs 9 mins -->
    <g style="fill: #586069" transform="translate(202.423122 283.851955) scale(0.15 -0.15)">
     <defs>
      <path id="DejaVuSans-Bold-39" d="M 641 103 
L 641 966 
Q 928 831 1190 764 
Q 1453 697 1709 697 
Q 2247 697 2547 995 
Q 2847 1294 2900 1881 
Q 2688 1725 2447 1647 
Q 2206 1569 1925 1569 
Q 1209 1569 770 1986 
Q 331 2403 331 3084 
Q 331 3838 820 4291 
Q 1309 4744 2131 4744 
Q 3044 4744 3544 4128 
Q 4044 3513 4044 2388 
Q 4044 1231 3459 570 
Q 2875 -91 1856 -91 
Q 1528 -91 1228 -42 
Q 928 6 641 103 
z
M 2125 2350 
Q 2441 2350 2600 2554 
Q 2759 2759 2759 3169 
Q 2759 3575 2600 3781 
Q 2441 3988 2125 3988 
Q 1809 3988 1650 3781 
Q 1491 3575 1491 3169 
Q 1491 2759 1650 2554 
Q 1809 2350 2125 2350 
z
" transform="scale(0.015625)"/>
     </defs>
     <use xlink:href="#DejaVuSans-Bold-33"/>
     <use xlink:href="#DejaVuSans-Bold-20" x="69.580078"/>
     <use xlink:href="#DejaVuSans-Bold-68" x="104.394531"/>
     <use xlink:href="#DejaVuSans-Bold-72" x="175.585938"/>
     <use xlink:href="#DejaVuSans-Bold-73" x="224.902344"/>
     <use xlink:href="#DejaVuSans-Bold-20" x="284.423828"/>
     <use xlink:href="#DejaVuSans-Bold-39" x="319.238281"/>
     <use xlink:href="#DejaVuSans-Bold-20" x="388.818359"/>
     <use xlink:href="#DejaVuSans-Bold-6d" x="423.632812"/>
     <use xlink:href="#DejaVuSans-Bold-69" x="527.832031"/>
     <use xlink:href="#DejaVuSans-Bold-6e" x="562.109375"/>
     <use xlink:href="#DejaVuSans-Bold-73" x="633.300781"/>
    </g>
   </g>
   <g id="text_12">
    <!-- 50 mins -->
    <g style="fill: #586069" transform="translate(162.959252 333.22055) scale(0.15 -0.15)">
     <defs>
      <path id="DejaVuSans-Bold-30" d="M 2944 2338 
Q 2944 3213 2780 3570 
Q 2616 3928 2228 3928 
Q 1841 3928 1675 3570 
Q 1509 3213 1509 2338 
Q 1509 1453 1675 1090 
Q 1841 728 2228 728 
Q 2613 728 2778 1090 
Q 2944 1453 2944 2338 
z
M 4147 2328 
Q 4147 1169 3647 539 
Q 3147 -91 2228 -91 
Q 1306 -91 806 539 
Q 306 1169 306 2328 
Q 306 3491 806 4120 
Q 1306 4750 2228 4750 
Q 3147 4750 3647 4120 
Q 4147 3491 4147 2328 
z
" transform="scale(0.015625)"/>
     </defs>
     <use xlink:href="#DejaVuSans-Bold-35"/>
     <use xlink:href="#DejaVuSans-Bold-30" x="69.580078"/>
     <use xlink:href="#DejaVuSans-Bold-20" x="139.160156"/>
     <use xlink:href="#DejaVuSans-Bold-6d" x="173.974609"/>
     <use xlink:href="#DejaVuSans-Bold-69" x="278.173828"/>
     <use xlink:href="#DejaVuSans-Bold-6e" x="312.451172"/>
     <use xlink:href="#DejaVuSans-Bold-73" x="383.642578"/>
    </g>
   </g>
   <g id="text_13">
    <!-- Projects touched : -->
    <g style="fill: #2a475e" transform="translate(335.802531 50.32) scale(0.12 -0.12)">
     <defs>
      <path id="DejaVuSans-Bold-6a" d="M 538 3500 
L 1656 3500 
L 1656 63 
Q 1656 -641 1318 -1011 
Q 981 -1381 341 -1381 
L -213 -1381 
L -213 -647 
L -19 -647 
Q 300 -647 419 -503 
Q 538 -359 538 63 
L 538 3500 
z
M 538 4863 
L 1656 4863 
L 1656 3950 
L 538 3950 
L 538 4863 
z
" transform="scale(0.015625)"/>
      <path id="DejaVuSans-Bold-64" d="M 2919 2988 
L 2919 4863 
L 4044 4863 
L 4044 0 
L 2919 0 
L 2919 506 
Q 2688 197 2409 53 
Q 2131 -91 1766 -91 
Q 1119 -91 703 423 
Q 288 938 288 1747 
Q 288 2556 703 3070 
Q 1119 3584 1766 3584 
Q 2128 3584 2408 3439 
Q 2688 3294 2919 2988 
z
M 2181 722 
Q 2541 722 2730 984 
Q 2919 1247 2919 1747 
Q 2919 2247 2730 2509 
Q 2541 2772 2181 2772 
Q 1825 2772 1636 2509 
Q 1447 2247 1447 1747 
Q 1447 1247 1636 984 
Q 1825 722 2181 722 
z
" transform="scale(0.015625)"/>
      <path id="DejaVuSans-Bold-3a" d="M 716 3500 
L 1844 3500 
L 1844 2291 
L 716 2291 
L 716 3500 
z
M 716 1209 
L 1844 1209 
L 1844 0 
L 716 0 
L 716 1209 
z
" transform="scale(0.015625)"/>
     </defs>
     <use xlink:href="#DejaVuSans-Bold-50"/>
     <use xlink:href="#DejaVuSans-Bold-72" x="73.291016"/>
     <use xlink:href="#DejaVuSans-Bold-6f" x="122.607422"/>
     <use xlink:href="#DejaVuSans-Bold-6a" x="191.308594"/>
     <use xlink:href="#DejaVuSans-Bold-65" x="225.585938"/>
     <use xlink:href="#DejaVuSans-Bold-63" x="293.408203"/>
     <use xlink:href="#DejaVuSans-Bold-74" x="352.685547"/>
     <use xlink:href="#DejaVuSans-Bold-73" x="400.488281"/>
     <use xlink:href="#DejaVuSans-Bold-20" x="460.009766"/>
     <use xlink:href="#DejaVuSans-Bold-74" x="494.824219"/>
     <use xlink:href="#DejaVuSans-Bold-6f" x="542.626953"/>
     <use xlink:href="#DejaVuSans-Bold-75" x="611.328125"/>
     <use xlink:href="#DejaVuSans-Bold-63" x="682.519531"/>
     <use xlink:href="#DejaVuSans-Bold-68" x="741.796875"/>
     <use xlink:href="#DejaVuSans-Bold-65" x="812.988281"/>
     <use xlink:href="#DejaVuSans-Bold-64" x="880.810547"/>
     <use xlink:href="#DejaVuSans-Bold-20" x="952.392578"/>
     <use xlink:href="#DejaVuSans-Bold-3a" x="987.207031"/>
    </g>
   </g>
  </g>
  <g id="axes_2">
   <g id="patch_11">
    <path d="M 812.986888 168.454535 
L 844.455996 177.413052 
" style="fill: none; stroke: #000000; stroke-linecap: round"/>
   </g>
   <g id="text_14">
    <g id="patch_12">
     <path d="M 755.59167 176.333112 
L 810.699795 176.333112 
L 810.699795 157.425612 
L 755.59167 157.425612 
z
" style="fill: #ffffff; stroke: #000000; stroke-width: 0.72; stroke-linejoin: miter"/>
    </g>
    <!-- Python -->
    <g style="fill: #2a475e" transform="translate(759.19167 170.143737) scale(0.12 -0.12)">
     <defs>
      <path id="DejaVuSans-Bold-79" d="M 78 3500 
L 1197 3500 
L 2138 1125 
L 2938 3500 
L 4056 3500 
L 2584 -331 
Q 2363 -916 2067 -1148 
Q 1772 -1381 1288 -1381 
L 641 -1381 
L 641 -647 
L 991 -647 
Q 1275 -647 1404 -556 
Q 1534 -466 1606 -231 
L 1638 -134 
L 78 3500 
z
" transform="scale(0.015625)"/>
     </defs>
     <use xlink:href="#DejaVuSans-Bold-50"/>
     <use xlink:href="#DejaVuSans-Bold-79" x="75.166016"/>
     <use xlink:href="#DejaVuSans-Bold-74" x="140.351562"/>
     <use xlink:href="#DejaVuSans-Bold-68" x="188.154297"/>
     <use xlink:href="#DejaVuSans-Bold-6f" x="259.345703"/>
     <use xlink:href="#DejaVuSans-Bold-6e" x="328.046875"/>
    </g>
   </g>
   <g id="patch_13">
    <path d="M 1074.296776 267.343498 
L 1071.183116 267.343498 
L 1036.554841 250.590937 
" style="fill: none; stroke: #000000; stroke-linecap: round"/>
   </g>
   <g id="text_15">
    <g id="patch_14">
     <path d="M 1076.661533 276.750373 
L 1122.398408 276.750373 
L 1122.398408 257.936623 
L 1076.661533 257.936623 
z
" style="fill: #ffffff; stroke: #000000; stroke-width: 0.72; stroke-linejoin: miter"/>
    </g>
    <!-- Other -->
    <g style="fill: #2a475e" transform="translate(1080.261533 270.654748) scale(0.12 -0.12)">
     <defs>
      <path id="DejaVuSans-Bold-4f" d="M 2719 3878 
Q 2169 3878 1866 3472 
Q 1563 3066 1563 2328 
Q 1563 1594 1866 1187 
Q 2169 781 2719 781 
Q 3272 781 3575 1187 
Q 3878 1594 3878 2328 
Q 3878 3066 3575 3472 
Q 3272 3878 2719 3878 
z
M 2719 4750 
Q 3844 4750 4481 4106 
Q 5119 3463 5119 2328 
Q 5119 1197 4481 553 
Q 3844 -91 2719 -91 
Q 1597 -91 958 553 
Q 319 1197 319 2328 
Q 319 3463 958 4106 
Q 1597 4750 2719 4750 
z
" transform="scale(0.015625)"/>
     </defs>
     <use xlink:href="#DejaVuSans-Bold-4f"/>
     <use xlink:href="#DejaVuSans-Bold-74" x="85.009766"/>
     <use xlink:href="#DejaVuSans-Bold-68" x="132.8125"/>
     <use xlink:href="#DejaVuSans-Bold-65" x="204.003906"/>
     <use xlink:href="#DejaVuSans-Bold-72" x="271.826172"/>
    </g>
   </g>
   <g id="patch_15">
    <path d="M 1074.317528 220.060039 
L 1046.228728 216.963828 
" style="fill: none; stroke: #000000; stroke-linecap: round"/>
   </g>
   <g id="text_16">
    <g id="patch_16">
     <path d="M 1076.661533 230.585729 
L 1152.456533 230.585729 
L 1152.456533 211.771979 
L 1076.661533 211.771979 
z
" style="fill: #ffffff; stroke: #000000; stroke-width: 0.72; stroke-linejoin: miter"/>
    </g>
    <!-- JavaScript -->
    <g style="fill: #2a475e" transform="translate(1080.261533 224.490104) scale(0.12 -0.12)">
     <defs>
      <path id="DejaVuSans-Bold-4a" d="M 588 4666 
L 1791 4666 
L 1791 453 
Q 1791 -419 1317 -850 
Q 844 -1281 -116 -1281 
L -359 -1281 
L -359 -372 
L -172 -372 
Q 203 -372 395 -162 
Q 588 47 588 453 
L 588 4666 
z
" transform="scale(0.015625)"/>
      <path id="DejaVuSans-Bold-76" d="M 97 3500 
L 1216 3500 
L 2088 1081 
L 2956 3500 
L 4078 3500 
L 2700 0 
L 1472 0 
L 97 3500 
z
" transform="scale(0.015625)"/>
      <path id="DejaVuSans-Bold-70" d="M 1656 506 
L 1656 -1331 
L 538 -1331 
L 538 3500 
L 1656 3500 
L 1656 2988 
Q 1888 3294 2169 3439 
Q 2450 3584 2816 3584 
Q 3463 3584 3878 3070 
Q 4294 2556 4294 1747 
Q 4294 938 3878 423 
Q 3463 -91 2816 -91 
Q 2450 -91 2169 54 
Q 1888 200 1656 506 
z
M 2400 2772 
Q 2041 2772 1848 2508 
Q 1656 2244 1656 1747 
Q 1656 1250 1848 986 
Q 2041 722 2400 722 
Q 2759 722 2948 984 
Q 3138 1247 3138 1747 
Q 3138 2247 2948 2509 
Q 2759 2772 2400 2772 
z
" transform="scale(0.015625)"/>
     </defs>
     <use xlink:href="#DejaVuSans-Bold-4a"/>
     <use xlink:href="#DejaVuSans-Bold-61" x="37.207031"/>
     <use xlink:href="#DejaVuSans-Bold-76" x="104.6875"/>
     <use xlink:href="#DejaVuSans-Bold-61" x="169.873047"/>
     <use xlink:href="#DejaVuSans-Bold-53" x="237.353516"/>
     <use xlink:href="#DejaVuSans-Bold-63" x="309.375"/>
     <use xlink:href="#DejaVuSans-Bold-72" x="368.652344"/>
     <use xlink:href="#DejaVuSans-Bold-69" x="417.96875"/>
     <use xlink:href="#DejaVuSans-Bold-70" x="452.246094"/>
     <use xlink:href="#DejaVuSans-Bold-74" x="523.828125"/>
    </g>
   </g>
   <g id="patch_17">
    <path d="M 1074.298357 204.417698 
L 1046.849583 204.678763 
" style="fill: none; stroke: #000000; stroke-linecap: round"/>
   </g>
   <g id="text_17">
    <g id="patch_18">
     <path d="M 1076.661533 213.719806 
L 1121.678408 213.719806 
L 1121.678408 194.906056 
L 1076.661533 194.906056 
z
" style="fill: #ffffff; stroke: #000000; stroke-width: 0.72; stroke-linejoin: miter"/>
    </g>
    <!-- HTML -->
    <g style="fill: #2a475e" transform="translate(1080.261533 207.624181) scale(0.12 -0.12)">
     <defs>
      <path id="DejaVuSans-Bold-48" d="M 588 4666 
L 1791 4666 
L 1791 2888 
L 3566 2888 
L 3566 4666 
L 4769 4666 
L 4769 0 
L 3566 0 
L 3566 1978 
L 1791 1978 
L 1791 0 
L 588 0 
L 588 4666 
z
" transform="scale(0.015625)"/>
      <path id="DejaVuSans-Bold-54" d="M 31 4666 
L 4331 4666 
L 4331 3756 
L 2784 3756 
L 2784 0 
L 1581 0 
L 1581 3756 
L 31 3756 
L 31 4666 
z
" transform="scale(0.015625)"/>
      <path id="DejaVuSans-Bold-4d" d="M 588 4666 
L 2119 4666 
L 3181 2169 
L 4250 4666 
L 5778 4666 
L 5778 0 
L 4641 0 
L 4641 3413 
L 3566 897 
L 2803 897 
L 1728 3413 
L 1728 0 
L 588 0 
L 588 4666 
z
" transform="scale(0.015625)"/>
      <path id="DejaVuSans-Bold-4c" d="M 588 4666 
L 1791 4666 
L 1791 909 
L 3903 909 
L 3903 0 
L 588 0 
L 588 4666 
z
" transform="scale(0.015625)"/>
     </defs>
     <use xlink:href="#DejaVuSans-Bold-48"/>
     <use xlink:href="#DejaVuSans-Bold-54" x="83.691406"/>
     <use xlink:href="#DejaVuSans-Bold-4d" x="151.904297"/>
     <use xlink:href="#DejaVuSans-Bold-4c" x="251.416016"/>
    </g>
   </g>
   <g id="patch_19">
    <path d="M 1074.318683 189.830825 
L 1046.104212 193.249524 
" style="fill: none; stroke: #000000; stroke-linecap: round"/>
   </g>
   <g id="text_18">
    <g id="patch_20">
     <path d="M 1076.661533 198.029299 
L 1112.072783 198.029299 
L 1112.072783 179.215549 
L 1076.661533 179.215549 
z
" style="fill: #ffffff; stroke: #000000; stroke-width: 0.72; stroke-linejoin: miter"/>
    </g>
    <!-- Text -->
    <g style="fill: #2a475e" transform="translate(1080.261533 191.933674) scale(0.12 -0.12)">
     <defs>
      <path id="DejaVuSans-Bold-78" d="M 1422 1791 
L 159 3500 
L 1344 3500 
L 2059 2463 
L 2784 3500 
L 3969 3500 
L 2706 1797 
L 4031 0 
L 2847 0 
L 2059 1106 
L 1281 0 
L 97 0 
L 1422 1791 
z
" transform="scale(0.015625)"/>
     </defs>
     <use xlink:href="#DejaVuSans-Bold-54"/>
     <use xlink:href="#DejaVuSans-Bold-65" x="54.962891"/>
     <use xlink:href="#DejaVuSans-Bold-78" x="122.785156"/>
     <use xlink:href="#DejaVuSans-Bold-74" x="187.287109"/>
    </g>
   </g>
   <g id="patch_21">
    <path d="M 1041.291241 190.115258 
C 1039.317723 178.922881 1035.472296 168.142634 1029.916726 158.228012 
C 1024.361157 148.313389 1017.174455 139.405396 1008.658945 131.878765 
C 1000.143435 124.352134 990.420222 118.313908 979.898335 114.018098 
C 969.376449 109.722288 958.205528 107.229988 946.855501 106.646042 
C 935.505475 106.062096 924.137762 107.394809 913.230568 110.588117 
C 902.323375 113.781426 892.031822 118.789915 882.788845 125.402892 
C 873.545868 132.015869 865.482919 140.139285 858.939185 149.431412 
C 852.39545 158.723539 847.463992 169.052225 844.352265 179.982973 
C 841.240537 190.91372 839.992794 202.291073 840.661523 213.63642 
C 841.330253 224.981766 843.905945 236.133755 848.280249 246.623252 
C 852.654552 257.11275 858.765255 266.790577 866.355298 275.249615 
C 873.945341 283.708654 882.906781 290.8286 892.862634 296.309939 
C 902.818487 301.791278 913.627164 305.556054 924.833974 307.445895 
C 936.040784 309.335735 947.486346 309.323764 958.689178 307.410483 
C 969.892009 305.497202 980.692787 301.709822 990.637151 296.207668 
C 1000.581516 290.705513 1009.528041 283.566835 1017.100371 275.091937 
L 979.378808 241.387679 
C 975.592642 245.625128 971.11938 249.194467 966.147197 251.945544 
C 961.175015 254.696621 955.774627 256.590311 950.173211 257.546951 
C 944.571795 258.503592 938.849014 258.509578 933.245609 257.564658 
C 927.642204 256.619737 922.237865 254.737349 917.259939 251.99668 
C 912.282012 249.25601 907.801293 245.696037 904.006271 241.466518 
C 900.211249 237.236999 897.155898 232.398085 894.968746 227.153336 
C 892.781595 221.908587 891.493748 216.332593 891.159383 210.65992 
C 890.825019 204.987247 891.44889 199.29857 893.004754 193.833196 
C 894.560618 188.367823 897.026347 183.20348 900.298214 178.557416 
C 903.570082 173.911353 907.601556 169.849645 912.223044 166.543156 
C 916.844533 163.236668 921.990309 160.732423 927.443906 159.135769 
C 932.897503 157.539115 938.581359 156.872758 944.256373 157.164731 
C 949.931386 157.456704 955.516846 158.702854 960.77779 160.850759 
C 966.038733 162.998664 970.900339 166.017777 975.158094 169.781093 
C 979.415849 173.544408 983.0092 177.998405 985.786985 182.955716 
C 988.56477 187.913027 990.487483 193.303151 991.474242 198.899339 
z
" style="fill: #092436; opacity: 0.5; stroke: #092436; stroke-width: 4; stroke-linejoin: miter"/>
   </g>
   <g id="patch_22">
    <path d="M 1026.207684 279.497907 
C 1032.478325 272.479857 1037.739131 264.621002 1041.83775 256.148975 
C 1045.936368 247.676948 1048.832848 238.674325 1050.44332 229.401768 
L 1000.603941 220.745574 
C 999.798705 225.381852 998.350465 229.883164 996.301156 234.119178 
C 994.251847 238.355191 991.621444 242.284619 988.486123 245.793643 
z
" style="fill: #4d2604; opacity: 0.5; stroke: #4d2604; stroke-width: 4; stroke-linejoin: miter"/>
   </g>
   <g id="patch_23">
    <path d="M 1051.392193 226.104293 
C 1051.751048 224.038118 1052.045578 221.961283 1052.275349 219.876801 
C 1052.50512 217.792319 1052.670024 215.701195 1052.769825 213.606463 
L 1002.24163 211.199184 
C 1002.19173 212.24655 1002.109278 213.292112 1001.994392 214.334353 
C 1001.879507 215.376594 1001.732242 216.415011 1001.552814 217.448099 
z
" style="fill: #0d300d; opacity: 0.5; stroke: #0d300d; stroke-width: 4; stroke-linejoin: miter"/>
   </g>
   <g id="patch_24">
    <path d="M 1052.830276 212.401754 
C 1052.921948 210.477603 1052.958649 208.551251 1052.940323 206.625004 
C 1052.922003 204.698758 1052.848669 202.773404 1052.720417 200.851345 
L 1002.247152 204.219271 
C 1002.311278 205.1803 1002.347945 206.142977 1002.357105 207.1061 
C 1002.366268 208.069224 1002.347918 209.032399 1002.302082 209.994475 
z
" style="fill: #400c0c; opacity: 0.5; stroke: #400c0c; stroke-width: 4; stroke-linejoin: miter"/>
   </g>
   <g id="patch_25">
    <path d="M 1052.647414 199.730595 
C 1052.526266 197.915047 1052.356164 196.103122 1052.13729 194.296749 
C 1051.918415 192.490375 1051.650846 190.690212 1051.334879 188.89827 
L 1001.517881 197.682358 
C 1001.675865 198.578329 1001.80965 199.47841 1001.919087 200.381597 
C 1002.028524 201.284784 1002.113575 202.190746 1002.174149 203.09852 
z
" style="fill: #2c1f39; opacity: 0.5; stroke: #2c1f39; stroke-width: 4; stroke-linejoin: miter"/>
   </g>
   <g id="patch_26">
    <path d="M 1043.314661 188.091838 
C 1041.341143 176.899461 1037.495716 166.119214 1031.940147 156.204591 
C 1026.384577 146.289969 1019.197875 137.381976 1010.682365 129.855345 
C 1002.166855 122.328714 992.443642 116.290488 981.921756 111.994678 
C 971.399869 107.698867 960.228948 105.206567 948.878922 104.622622 
C 937.528896 104.038676 926.161182 105.371389 915.253989 108.564697 
C 904.346795 111.758005 894.055242 116.766495 884.812265 123.379472 
C 875.569288 129.992449 867.50634 138.115865 860.962605 147.407992 
C 854.41887 156.700119 849.487413 167.028805 846.375685 177.959552 
C 843.263957 188.8903 842.016214 200.267653 842.684944 211.613 
C 843.353673 222.958346 845.929366 234.110334 850.303669 244.599832 
C 854.677972 255.08933 860.788675 264.767157 868.378718 273.226195 
C 875.968762 281.685233 884.930201 288.80518 894.886054 294.286519 
C 904.841907 299.767857 915.650584 303.532634 926.857394 305.422475 
C 938.064204 307.312315 949.509766 307.300343 960.712598 305.387062 
C 971.91543 303.473781 982.716207 299.686402 992.660571 294.184247 
C 1002.604936 288.682093 1011.551461 281.543415 1019.123792 273.068517 
L 981.402228 239.364259 
C 977.616062 243.601708 973.1428 247.171047 968.170618 249.922124 
C 963.198435 252.673201 957.798047 254.566891 952.196631 255.523531 
C 946.595215 256.480172 940.872434 256.486158 935.269029 255.541237 
C 929.665624 254.596317 924.261286 252.713929 919.283359 249.973259 
C 914.305432 247.23259 909.824713 243.672617 906.029691 239.443098 
C 902.234669 235.213578 899.179318 230.374665 896.992166 225.129916 
C 894.805015 219.885167 893.517169 214.309173 893.182804 208.6365 
C 892.848439 202.963827 893.472311 197.27515 895.028174 191.809776 
C 896.584038 186.344403 899.049767 181.180059 902.321634 176.533996 
C 905.593502 171.887933 909.624976 167.826224 914.246464 164.519736 
C 918.867953 161.213247 924.01373 158.709003 929.467326 157.112348 
C 934.920923 155.515694 940.60478 154.849338 946.279793 155.141311 
C 951.954806 155.433284 957.540266 156.679434 962.80121 158.827339 
C 968.062153 160.975244 972.923759 163.994357 977.181514 167.757672 
C 981.43927 171.520988 985.03262 175.974985 987.810405 180.932296 
C 990.58819 185.889607 992.510903 191.27973 993.497663 196.875919 
z
" style="fill: #1f77b4; stroke: #ffffff; stroke-width: 4; stroke-linejoin: miter"/>
   </g>
   <g id="patch_27">
    <path d="M 1028.231104 277.474486 
C 1034.501745 270.456437 1039.762552 262.597582 1043.86117 254.125555 
C 1047.959789 245.653528 1050.856268 236.650905 1052.46674 227.378348 
L 1002.627361 218.722154 
C 1001.822125 223.358432 1000.373886 227.859744 998.324576 232.095757 
C 996.275267 236.331771 993.644864 240.261198 990.509543 243.770223 
z
" style="fill: #ff7f0e; stroke: #ffffff; stroke-width: 4; stroke-linejoin: miter"/>
   </g>
   <g id="patch_28">
    <path d="M 1053.415614 224.080873 
C 1053.774468 222.014697 1054.068998 219.937863 1054.29877 217.853381 
C 1054.528541 215.768898 1054.693444 213.677775 1054.793245 211.583042 
L 1004.26505 209.175764 
C 1004.21515 210.22313 1004.132698 211.268692 1004.017813 212.310933 
C 1003.902927 213.353174 1003.755662 214.391591 1003.576235 215.424679 
z
" style="fill: #2ca02c; stroke: #ffffff; stroke-width: 4; stroke-linejoin: miter"/>
   </g>
   <g id="patch_29">
    <path d="M 1054.853697 210.378334 
C 1054.945369 208.454182 1054.982069 206.527831 1054.963743 204.601584 
C 1054.945423 202.675338 1054.872089 200.749984 1054.743837 198.827925 
L 1004.270572 202.19585 
C 1004.334698 203.15688 1004.371365 204.119557 1004.380525 205.08268 
C 1004.389688 206.045803 1004.371338 207.008979 1004.325502 207.971055 
z
" style="fill: #d62728; stroke: #ffffff; stroke-width: 4; stroke-linejoin: miter"/>
   </g>
   <g id="patch_30">
    <path d="M 1054.670834 197.707174 
C 1054.549686 195.891627 1054.379584 194.079702 1054.16071 192.273328 
C 1053.941836 190.466955 1053.674267 188.666792 1053.358299 186.87485 
L 1003.541302 195.658938 
C 1003.699285 196.554909 1003.83307 197.45499 1003.942507 198.358177 
C 1004.051944 199.261364 1004.136995 200.167326 1004.197569 201.0751 
z
" style="fill: #9467bd; stroke: #ffffff; stroke-width: 4; stroke-linejoin: miter"/>
   </g>
   <g id="matplotlib.axis_3"/>
   <g id="matplotlib.axis_4"/>
   <g id="text_19">
    <!-- Languages -->
    <g style="fill: #2a475e" transform="translate(913.102539 208.34125) scale(0.1 -0.1)">
     <use xlink:href="#DejaVuSans-Bold-4c"/>
     <use xlink:href="#DejaVuSans-Bold-61" x="63.720703"/>
     <use xlink:href="#DejaVuSans-Bold-6e" x="131.201172"/>
     <use xlink:href="#DejaVuSans-Bold-67" x="202.392578"/>
     <use xlink:href="#DejaVuSans-Bold-75" x="273.974609"/>
     <use xlink:href="#DejaVuSans-Bold-61" x="345.166016"/>
     <use xlink:href="#DejaVuSans-Bold-67" x="412.646484"/>
     <use xlink:href="#DejaVuSans-Bold-65" x="484.228516"/>
     <use xlink:href="#DejaVuSans-Bold-73" x="552.050781"/>
    </g>
   </g>
   <g id="text_20">
    <!-- Languages exploited : -->
    <g style="fill: #2a475e" transform="translate(868.707851 73.196235) scale(0.12 -0.12)">
     <use xlink:href="#DejaVuSans-Bold-4c"/>
     <use xlink:href="#DejaVuSans-Bold-61" x="63.720703"/>
     <use xlink:href="#DejaVuSans-Bold-6e" x="131.201172"/>
     <use xlink:href="#DejaVuSans-Bold-67" x="202.392578"/>
     <use xlink:href="#DejaVuSans-Bold-75" x="273.974609"/>
     <use xlink:href="#DejaVuSans-Bold-61" x="345.166016"/>
     <use xlink:href="#DejaVuSans-Bold-67" x="412.646484"/>
     <use xlink:href="#DejaVuSans-Bold-65" x="484.228516"/>
     <use xlink:href="#DejaVuSans-Bold-73" x="552.050781"/>
     <use xlink:href="#DejaVuSans-Bold-20" x="611.572266"/>
     <use xlink:href="#DejaVuSans-Bold-65" x="646.386719"/>
     <use xlink:href="#DejaVuSans-Bold-78" x="714.208984"/>
     <use xlink:href="#DejaVuSans-Bold-70" x="778.710938"/>
     <use xlink:href="#DejaVuSans-Bold-6c" x="850.292969"/>
     <use xlink:href="#DejaVuSans-Bold-6f" x="884.570312"/>
     <use xlink:href="#DejaVuSans-Bold-69" x="953.271484"/>
     <use xlink:href="#DejaVuSans-Bold-74" x="987.548828"/>
     <use xlink:href="#DejaVuSans-Bold-65" x="1035.351562"/>
     <use xlink:href="#DejaVuSans-Bold-64" x="1103.173828"/>
     <use xlink:href="#DejaVuSans-Bold-20" x="1174.755859"/>
     <use xlink:href="#DejaVuSans-Bold-3a" x="1209.570312"/>
    </g>
   </g>
  </g>
  <g id="text_21">
   <!-- From 16 March, 2026 to 15 April, 2026: 60 hrs 1 min -->
   <g transform="translate(136.296562 29.995312) scale(0.3 -0.3)">
    <defs>
     <path id="DejaVuSans-Bold-2c" d="M 653 1209 
L 1778 1209 
L 1778 256 
L 1006 -909 
L 341 -909 
L 653 256 
L 653 1209 
z
" transform="scale(0.015625)"/>
     <path id="DejaVuSans-Bold-41" d="M 3419 850 
L 1538 850 
L 1241 0 
L 31 0 
L 1759 4666 
L 3194 4666 
L 4922 0 
L 3713 0 
L 3419 850 
z
M 1838 1716 
L 3116 1716 
L 2478 3572 
L 1838 1716 
z
" transform="scale(0.015625)"/>
    </defs>
    <use xlink:href="#DejaVuSans-Bold-46"/>
    <use xlink:href="#DejaVuSans-Bold-72" x="61.935547"/>
    <use xlink:href="#DejaVuSans-Bold-6f" x="111.251953"/>
    <use xlink:href="#DejaVuSans-Bold-6d" x="179.953125"/>
    <use xlink:href="#DejaVuSans-Bold-20" x="284.152344"/>
    <use xlink:href="#DejaVuSans-Bold-31" x="318.966797"/>
    <use xlink:href="#DejaVuSans-Bold-36" x="388.546875"/>
    <use xlink:href="#DejaVuSans-Bold-20" x="458.126953"/>
    <use xlink:href="#DejaVuSans-Bold-4d" x="492.941406"/>
    <use xlink:href="#DejaVuSans-Bold-61" x="592.453125"/>
    <use xlink:href="#DejaVuSans-Bold-72" x="659.933594"/>
    <use xlink:href="#DejaVuSans-Bold-63" x="709.25"/>
    <use xlink:href="#DejaVuSans-Bold-68" x="768.527344"/>
    <use xlink:href="#DejaVuSans-Bold-2c" x="839.71875"/>
    <use xlink:href="#DejaVuSans-Bold-20" x="877.707031"/>
    <use xlink:href="#DejaVuSans-Bold-32" x="912.521484"/>
    <use xlink:href="#DejaVuSans-Bold-30" x="982.101562"/>
    <use xlink:href="#DejaVuSans-Bold-32" x="1051.681641"/>
    <use xlink:href="#DejaVuSans-Bold-36" x="1121.261719"/>
    <use xlink:href="#DejaVuSans-Bold-20" x="1190.841797"/>
    <use xlink:href="#DejaVuSans-Bold-74" x="1225.65625"/>
    <use xlink:href="#DejaVuSans-Bold-6f" x="1273.458984"/>
    <use xlink:href="#DejaVuSans-Bold-20" x="1342.160156"/>
    <use xlink:href="#DejaVuSans-Bold-31" x="1376.974609"/>
    <use xlink:href="#DejaVuSans-Bold-35" x="1446.554688"/>
    <use xlink:href="#DejaVuSans-Bold-20" x="1516.134766"/>
    <use xlink:href="#DejaVuSans-Bold-41" x="1550.949219"/>
    <use xlink:href="#DejaVuSans-Bold-70" x="1628.341797"/>
    <use xlink:href="#DejaVuSans-Bold-72" x="1699.923828"/>
    <use xlink:href="#DejaVuSans-Bold-69" x="1749.240234"/>
    <use xlink:href="#DejaVuSans-Bold-6c" x="1783.517578"/>
    <use xlink:href="#DejaVuSans-Bold-2c" x="1817.794922"/>
    <use xlink:href="#DejaVuSans-Bold-20" x="1855.783203"/>
    <use xlink:href="#DejaVuSans-Bold-32" x="1890.597656"/>
    <use xlink:href="#DejaVuSans-Bold-30" x="1960.177734"/>
    <use xlink:href="#DejaVuSans-Bold-32" x="2029.757812"/>
    <use xlink:href="#DejaVuSans-Bold-36" x="2099.337891"/>
    <use xlink:href="#DejaVuSans-Bold-3a" x="2168.917969"/>
    <use xlink:href="#DejaVuSans-Bold-20" x="2208.908203"/>
    <use xlink:href="#DejaVuSans-Bold-36" x="2243.722656"/>
    <use xlink:href="#DejaVuSans-Bold-30" x="2313.302734"/>
    <use xlink:href="#DejaVuSans-Bold-20" x="2382.882812"/>
    <use xlink:href="#DejaVuSans-Bold-68" x="2417.697266"/>
    <use xlink:href="#DejaVuSans-Bold-72" x="2488.888672"/>
    <use xlink:href="#DejaVuSans-Bold-73" x="2538.205078"/>
    <use xlink:href="#DejaVuSans-Bold-20" x="2597.726562"/>
    <use xlink:href="#DejaVuSans-Bold-31" x="2632.541016"/>
    <use xlink:href="#DejaVuSans-Bold-20" x="2702.121094"/>
    <use xlink:href="#DejaVuSans-Bold-6d" x="2736.935547"/>
    <use xlink:href="#DejaVuSans-Bold-69" x="2841.134766"/>
    <use xlink:href="#DejaVuSans-Bold-6e" x="2875.412109"/>
   </g>
  </g>
 </g>
 <defs>
  <clipPath id="p3a6cd5f5f5">
   <rect x="144.50625" y="56.32" width="505.855061" height="298.68"/>
  </clipPath>
 </defs>
</svg>
