<?xml version="1.0" encoding="utf-8" standalone="no"?>
<!DOCTYPE svg PUBLIC "-//W3C//DTD SVG 1.1//EN"
  "http://www.w3.org/Graphics/SVG/1.1/DTD/svg11.dtd">
<svg xmlns:xlink="http://www.w3.org/1999/xlink" width="1150.551932pt" height="362.2pt" viewBox="0 0 1150.551932 362.2" xmlns="http://www.w3.org/2000/svg" version="1.1">
 <metadata>
  <rdf:RDF xmlns:dc="http://purl.org/dc/elements/1.1/" xmlns:cc="http://creativecommons.org/ns#" xmlns:rdf="http://www.w3.org/1999/02/22-rdf-syntax-ns#">
   <cc:Work>
    <dc:type rdf:resource="http://purl.org/dc/dcmitype/StillImage"/>
    <dc:date>2026-06-23T17:42:23.880382</dc:date>
    <dc:format>image/svg+xml</dc:format>
    <dc:creator>
     <cc:Agent>
      <dc:title>Matplotlib v3.9.1.post1, https://matplotlib.org/</dc:title>
     </cc:Agent>
    </dc:creator>
   </cc:Work>
  </rdf:RDF>
 </metadata>
 <defs>
  <style type="text/css">*{stroke-linejoin: round; stroke-linecap: butt}</style>
 </defs>
 <g id="figure_1">
  <g id="patch_1">
   <path d="M 0 362.2 
L 1150.551932 362.2 
L 1150.551932 0 
L 0 0 
L 0 362.2 
z
" style="fill: none"/>
  </g>
  <g id="axes_1">
   <g id="patch_2">
    <path d="M 528.971875 355 
L 776.346936 355 
L 776.346936 56.32 
L 528.971875 56.32 
L 528.971875 355 
z
" style="fill: none"/>
   </g>
   <g id="patch_3">
    <path d="M 528.971875 69.896364 
L 764.567172 69.896364 
L 764.567172 94.580661 
L 528.971875 94.580661 
z
" clip-path="url(#pe4cf4e3372)" style="fill: #ea3291; stroke: #ea3291; stroke-linejoin: miter"/>
   </g>
   <g id="patch_4">
    <path d="M 528.971875 119.264959 
L 543.368382 119.264959 
L 543.368382 143.949256 
L 528.971875 143.949256 
z
" clip-path="url(#pe4cf4e3372)" style="fill: #d35755; stroke: #d35755; stroke-linejoin: miter"/>
   </g>
   <g id="patch_5">
    <path d="M 528.971875 168.633554 
L 542.276844 168.633554 
L 542.276844 193.317851 
L 528.971875 193.317851 
z
" clip-path="url(#pe4cf4e3372)" style="fill: #b78bda; stroke: #b78bda; stroke-linejoin: miter"/>
   </g>
   <g id="patch_6">
    <path d="M 528.971875 218.002149 
L 539.91676 218.002149 
L 539.91676 242.686446 
L 528.971875 242.686446 
z
" clip-path="url(#pe4cf4e3372)" style="fill: #444153; stroke: #444153; stroke-linejoin: miter"/>
   </g>
   <g id="patch_7">
    <path d="M 528.971875 267.370744 
L 537.438673 267.370744 
L 537.438673 292.055041 
L 528.971875 292.055041 
z
" clip-path="url(#pe4cf4e3372)" style="fill: #68b623; stroke: #68b623; stroke-linejoin: miter"/>
   </g>
   <g id="patch_8">
    <path d="M 528.971875 316.739339 
L 535.727613 316.739339 
L 535.727613 341.423636 
L 528.971875 341.423636 
z
" clip-path="url(#pe4cf4e3372)" style="fill: #22c477; stroke: #22c477; stroke-linejoin: miter"/>
   </g>
   <g id="matplotlib.axis_1"/>
   <g id="matplotlib.axis_2">
    <g id="ytick_1">
     <g id="line2d_1">
      <defs>
       <path id="mff52c1ed16" d="M 0 0 
L -3.5 0 
" style="stroke: #000000; stroke-width: 0.8"/>
      </defs>
      <g>
       <use xlink:href="#mff52c1ed16" x="528.971875" y="82.238512" style="stroke: #000000; stroke-width: 0.8"/>
      </g>
     </g>
     <g id="text_1">
      <!-- AutoSampler -->
      <g style="fill: #586069" transform="translate(375.615625 89.83695) scale(0.2 -0.2)">
       <defs>
        <path id="DejaVuSans-Bold-41" d="M 3419 850 
L 1538 850 
L 1241 0 
L 31 0 
L 1759 4666 
L 3194 4666 
L 4922 0 
L 3713 0 
L 3419 850 
z
M 1838 1716 
L 3116 1716 
L 2478 3572 
L 1838 1716 
z
" transform="scale(0.015625)"/>
        <path id="DejaVuSans-Bold-75" d="M 500 1363 
L 500 3500 
L 1625 3500 
L 1625 3150 
Q 1625 2866 1622 2436 
Q 1619 2006 1619 1863 
Q 1619 1441 1641 1255 
Q 1663 1069 1716 984 
Q 1784 875 1895 815 
Q 2006 756 2150 756 
Q 2500 756 2700 1025 
Q 2900 1294 2900 1772 
L 2900 3500 
L 4019 3500 
L 4019 0 
L 2900 0 
L 2900 506 
Q 2647 200 2364 54 
Q 2081 -91 1741 -91 
Q 1134 -91 817 281 
Q 500 653 500 1363 
z
" transform="scale(0.015625)"/>
        <path id="DejaVuSans-Bold-74" d="M 1759 4494 
L 1759 3500 
L 2913 3500 
L 2913 2700 
L 1759 2700 
L 1759 1216 
Q 1759 972 1856 886 
Q 1953 800 2241 800 
L 2816 800 
L 2816 0 
L 1856 0 
Q 1194 0 917 276 
Q 641 553 641 1216 
L 641 2700 
L 84 2700 
L 84 3500 
L 641 3500 
L 641 4494 
L 1759 4494 
z
" transform="scale(0.015625)"/>
        <path id="DejaVuSans-Bold-6f" d="M 2203 2784 
Q 1831 2784 1636 2517 
Q 1441 2250 1441 1747 
Q 1441 1244 1636 976 
Q 1831 709 2203 709 
Q 2569 709 2762 976 
Q 2956 1244 2956 1747 
Q 2956 2250 2762 2517 
Q 2569 2784 2203 2784 
z
M 2203 3584 
Q 3106 3584 3614 3096 
Q 4122 2609 4122 1747 
Q 4122 884 3614 396 
Q 3106 -91 2203 -91 
Q 1297 -91 786 396 
Q 275 884 275 1747 
Q 275 2609 786 3096 
Q 1297 3584 2203 3584 
z
" transform="scale(0.015625)"/>
        <path id="DejaVuSans-Bold-53" d="M 3834 4519 
L 3834 3531 
Q 3450 3703 3084 3790 
Q 2719 3878 2394 3878 
Q 1963 3878 1756 3759 
Q 1550 3641 1550 3391 
Q 1550 3203 1689 3098 
Q 1828 2994 2194 2919 
L 2706 2816 
Q 3484 2659 3812 2340 
Q 4141 2022 4141 1434 
Q 4141 663 3683 286 
Q 3225 -91 2284 -91 
Q 1841 -91 1394 -6 
Q 947 78 500 244 
L 500 1259 
Q 947 1022 1364 901 
Q 1781 781 2169 781 
Q 2563 781 2772 912 
Q 2981 1044 2981 1288 
Q 2981 1506 2839 1625 
Q 2697 1744 2272 1838 
L 1806 1941 
Q 1106 2091 782 2419 
Q 459 2747 459 3303 
Q 459 4000 909 4375 
Q 1359 4750 2203 4750 
Q 2588 4750 2994 4692 
Q 3400 4634 3834 4519 
z
" transform="scale(0.015625)"/>
        <path id="DejaVuSans-Bold-61" d="M 2106 1575 
Q 1756 1575 1579 1456 
Q 1403 1338 1403 1106 
Q 1403 894 1545 773 
Q 1688 653 1941 653 
Q 2256 653 2472 879 
Q 2688 1106 2688 1447 
L 2688 1575 
L 2106 1575 
z
M 3816 1997 
L 3816 0 
L 2688 0 
L 2688 519 
Q 2463 200 2181 54 
Q 1900 -91 1497 -91 
Q 953 -91 614 226 
Q 275 544 275 1050 
Q 275 1666 698 1953 
Q 1122 2241 2028 2241 
L 2688 2241 
L 2688 2328 
Q 2688 2594 2478 2717 
Q 2269 2841 1825 2841 
Q 1466 2841 1156 2769 
Q 847 2697 581 2553 
L 581 3406 
Q 941 3494 1303 3539 
Q 1666 3584 2028 3584 
Q 2975 3584 3395 3211 
Q 3816 2838 3816 1997 
z
" transform="scale(0.015625)"/>
        <path id="DejaVuSans-Bold-6d" d="M 3781 2919 
Q 3994 3244 4286 3414 
Q 4578 3584 4928 3584 
Q 5531 3584 5847 3212 
Q 6163 2841 6163 2131 
L 6163 0 
L 5038 0 
L 5038 1825 
Q 5041 1866 5042 1909 
Q 5044 1953 5044 2034 
Q 5044 2406 4934 2573 
Q 4825 2741 4581 2741 
Q 4263 2741 4089 2478 
Q 3916 2216 3909 1719 
L 3909 0 
L 2784 0 
L 2784 1825 
Q 2784 2406 2684 2573 
Q 2584 2741 2328 2741 
Q 2006 2741 1831 2477 
Q 1656 2213 1656 1722 
L 1656 0 
L 531 0 
L 531 3500 
L 1656 3500 
L 1656 2988 
Q 1863 3284 2130 3434 
Q 2397 3584 2719 3584 
Q 3081 3584 3359 3409 
Q 3638 3234 3781 2919 
z
" transform="scale(0.015625)"/>
        <path id="DejaVuSans-Bold-70" d="M 1656 506 
L 1656 -1331 
L 538 -1331 
L 538 3500 
L 1656 3500 
L 1656 2988 
Q 1888 3294 2169 3439 
Q 2450 3584 2816 3584 
Q 3463 3584 3878 3070 
Q 4294 2556 4294 1747 
Q 4294 938 3878 423 
Q 3463 -91 2816 -91 
Q 2450 -91 2169 54 
Q 1888 200 1656 506 
z
M 2400 2772 
Q 2041 2772 1848 2508 
Q 1656 2244 1656 1747 
Q 1656 1250 1848 986 
Q 2041 722 2400 722 
Q 2759 722 2948 984 
Q 3138 1247 3138 1747 
Q 3138 2247 2948 2509 
Q 2759 2772 2400 2772 
z
" transform="scale(0.015625)"/>
        <path id="DejaVuSans-Bold-6c" d="M 538 4863 
L 1656 4863 
L 1656 0 
L 538 0 
L 538 4863 
z
" transform="scale(0.015625)"/>
        <path id="DejaVuSans-Bold-65" d="M 4031 1759 
L 4031 1441 
L 1416 1441 
Q 1456 1047 1700 850 
Q 1944 653 2381 653 
Q 2734 653 3104 758 
Q 3475 863 3866 1075 
L 3866 213 
Q 3469 63 3072 -14 
Q 2675 -91 2278 -91 
Q 1328 -91 801 392 
Q 275 875 275 1747 
Q 275 2603 792 3093 
Q 1309 3584 2216 3584 
Q 3041 3584 3536 3087 
Q 4031 2591 4031 1759 
z
M 2881 2131 
Q 2881 2450 2695 2645 
Q 2509 2841 2209 2841 
Q 1884 2841 1681 2658 
Q 1478 2475 1428 2131 
L 2881 2131 
z
" transform="scale(0.015625)"/>
        <path id="DejaVuSans-Bold-72" d="M 3138 2547 
Q 2991 2616 2845 2648 
Q 2700 2681 2553 2681 
Q 2122 2681 1889 2404 
Q 1656 2128 1656 1613 
L 1656 0 
L 538 0 
L 538 3500 
L 1656 3500 
L 1656 2925 
Q 1872 3269 2151 3426 
Q 2431 3584 2822 3584 
Q 2878 3584 2943 3579 
Q 3009 3575 3134 3559 
L 3138 2547 
z
" transform="scale(0.015625)"/>
       </defs>
       <use xlink:href="#DejaVuSans-Bold-41"/>
       <use xlink:href="#DejaVuSans-Bold-75" x="77.392578"/>
       <use xlink:href="#DejaVuSans-Bold-74" x="148.583984"/>
       <use xlink:href="#DejaVuSans-Bold-6f" x="196.386719"/>
       <use xlink:href="#DejaVuSans-Bold-53" x="265.087891"/>
       <use xlink:href="#DejaVuSans-Bold-61" x="337.109375"/>
       <use xlink:href="#DejaVuSans-Bold-6d" x="404.589844"/>
       <use xlink:href="#DejaVuSans-Bold-70" x="508.789062"/>
       <use xlink:href="#DejaVuSans-Bold-6c" x="580.371094"/>
       <use xlink:href="#DejaVuSans-Bold-65" x="614.648438"/>
       <use xlink:href="#DejaVuSans-Bold-72" x="682.470703"/>
      </g>
     </g>
    </g>
    <g id="ytick_2">
     <g id="line2d_2">
      <g>
       <use xlink:href="#mff52c1ed16" x="528.971875" y="131.607107" style="stroke: #000000; stroke-width: 0.8"/>
      </g>
     </g>
     <g id="text_2">
      <!-- WEPath -->
      <g style="fill: #586069" transform="translate(434.821875 139.205545) scale(0.2 -0.2)">
       <defs>
        <path id="DejaVuSans-Bold-57" d="M 191 4666 
L 1344 4666 
L 2150 1275 
L 2950 4666 
L 4109 4666 
L 4909 1275 
L 5716 4666 
L 6859 4666 
L 5759 0 
L 4372 0 
L 3525 3547 
L 2688 0 
L 1300 0 
L 191 4666 
z
" transform="scale(0.015625)"/>
        <path id="DejaVuSans-Bold-45" d="M 588 4666 
L 3834 4666 
L 3834 3756 
L 1791 3756 
L 1791 2888 
L 3713 2888 
L 3713 1978 
L 1791 1978 
L 1791 909 
L 3903 909 
L 3903 0 
L 588 0 
L 588 4666 
z
" transform="scale(0.015625)"/>
        <path id="DejaVuSans-Bold-50" d="M 588 4666 
L 2584 4666 
Q 3475 4666 3951 4270 
Q 4428 3875 4428 3144 
Q 4428 2409 3951 2014 
Q 3475 1619 2584 1619 
L 1791 1619 
L 1791 0 
L 588 0 
L 588 4666 
z
M 1791 3794 
L 1791 2491 
L 2456 2491 
Q 2806 2491 2997 2661 
Q 3188 2831 3188 3144 
Q 3188 3456 2997 3625 
Q 2806 3794 2456 3794 
L 1791 3794 
z
" transform="scale(0.015625)"/>
        <path id="DejaVuSans-Bold-68" d="M 4056 2131 
L 4056 0 
L 2931 0 
L 2931 347 
L 2931 1625 
Q 2931 2084 2911 2256 
Q 2891 2428 2841 2509 
Q 2775 2619 2662 2680 
Q 2550 2741 2406 2741 
Q 2056 2741 1856 2470 
Q 1656 2200 1656 1722 
L 1656 0 
L 538 0 
L 538 4863 
L 1656 4863 
L 1656 2988 
Q 1909 3294 2193 3439 
Q 2478 3584 2822 3584 
Q 3428 3584 3742 3212 
Q 4056 2841 4056 2131 
z
" transform="scale(0.015625)"/>
       </defs>
       <use xlink:href="#DejaVuSans-Bold-57"/>
       <use xlink:href="#DejaVuSans-Bold-45" x="110.302734"/>
       <use xlink:href="#DejaVuSans-Bold-50" x="178.613281"/>
       <use xlink:href="#DejaVuSans-Bold-61" x="249.279297"/>
       <use xlink:href="#DejaVuSans-Bold-74" x="316.759766"/>
       <use xlink:href="#DejaVuSans-Bold-68" x="364.5625"/>
      </g>
     </g>
    </g>
    <g id="ytick_3">
     <g id="line2d_3">
      <g>
       <use xlink:href="#mff52c1ed16" x="528.971875" y="180.975702" style="stroke: #000000; stroke-width: 0.8"/>
      </g>
     </g>
     <g id="text_3">
      <!-- PathResolvedJCTC -->
      <g style="fill: #586069" transform="translate(317.71875 188.57414) scale(0.2 -0.2)">
       <defs>
        <path id="DejaVuSans-Bold-52" d="M 2297 2597 
Q 2675 2597 2839 2737 
Q 3003 2878 3003 3200 
Q 3003 3519 2839 3656 
Q 2675 3794 2297 3794 
L 1791 3794 
L 1791 2597 
L 2297 2597 
z
M 1791 1766 
L 1791 0 
L 588 0 
L 588 4666 
L 2425 4666 
Q 3347 4666 3776 4356 
Q 4206 4047 4206 3378 
Q 4206 2916 3982 2619 
Q 3759 2322 3309 2181 
Q 3556 2125 3751 1926 
Q 3947 1728 4147 1325 
L 4800 0 
L 3519 0 
L 2950 1159 
Q 2778 1509 2601 1637 
Q 2425 1766 2131 1766 
L 1791 1766 
z
" transform="scale(0.015625)"/>
        <path id="DejaVuSans-Bold-73" d="M 3272 3391 
L 3272 2541 
Q 2913 2691 2578 2766 
Q 2244 2841 1947 2841 
Q 1628 2841 1473 2761 
Q 1319 2681 1319 2516 
Q 1319 2381 1436 2309 
Q 1553 2238 1856 2203 
L 2053 2175 
Q 2913 2066 3209 1816 
Q 3506 1566 3506 1031 
Q 3506 472 3093 190 
Q 2681 -91 1863 -91 
Q 1516 -91 1145 -36 
Q 775 19 384 128 
L 384 978 
Q 719 816 1070 734 
Q 1422 653 1784 653 
Q 2113 653 2278 743 
Q 2444 834 2444 1013 
Q 2444 1163 2330 1236 
Q 2216 1309 1875 1350 
L 1678 1375 
Q 931 1469 631 1722 
Q 331 1975 331 2491 
Q 331 3047 712 3315 
Q 1094 3584 1881 3584 
Q 2191 3584 2531 3537 
Q 2872 3491 3272 3391 
z
" transform="scale(0.015625)"/>
        <path id="DejaVuSans-Bold-76" d="M 97 3500 
L 1216 3500 
L 2088 1081 
L 2956 3500 
L 4078 3500 
L 2700 0 
L 1472 0 
L 97 3500 
z
" transform="scale(0.015625)"/>
        <path id="DejaVuSans-Bold-64" d="M 2919 2988 
L 2919 4863 
L 4044 4863 
L 4044 0 
L 2919 0 
L 2919 506 
Q 2688 197 2409 53 
Q 2131 -91 1766 -91 
Q 1119 -91 703 423 
Q 288 938 288 1747 
Q 288 2556 703 3070 
Q 1119 3584 1766 3584 
Q 2128 3584 2408 3439 
Q 2688 3294 2919 2988 
z
M 2181 722 
Q 2541 722 2730 984 
Q 2919 1247 2919 1747 
Q 2919 2247 2730 2509 
Q 2541 2772 2181 2772 
Q 1825 2772 1636 2509 
Q 1447 2247 1447 1747 
Q 1447 1247 1636 984 
Q 1825 722 2181 722 
z
" transform="scale(0.015625)"/>
        <path id="DejaVuSans-Bold-4a" d="M 588 4666 
L 1791 4666 
L 1791 453 
Q 1791 -419 1317 -850 
Q 844 -1281 -116 -1281 
L -359 -1281 
L -359 -372 
L -172 -372 
Q 203 -372 395 -162 
Q 588 47 588 453 
L 588 4666 
z
" transform="scale(0.015625)"/>
        <path id="DejaVuSans-Bold-43" d="M 4288 256 
Q 3956 84 3597 -3 
Q 3238 -91 2847 -91 
Q 1681 -91 1000 561 
Q 319 1213 319 2328 
Q 319 3447 1000 4098 
Q 1681 4750 2847 4750 
Q 3238 4750 3597 4662 
Q 3956 4575 4288 4403 
L 4288 3438 
Q 3953 3666 3628 3772 
Q 3303 3878 2944 3878 
Q 2300 3878 1931 3465 
Q 1563 3053 1563 2328 
Q 1563 1606 1931 1193 
Q 2300 781 2944 781 
Q 3303 781 3628 887 
Q 3953 994 4288 1222 
L 4288 256 
z
" transform="scale(0.015625)"/>
        <path id="DejaVuSans-Bold-54" d="M 31 4666 
L 4331 4666 
L 4331 3756 
L 2784 3756 
L 2784 0 
L 1581 0 
L 1581 3756 
L 31 3756 
L 31 4666 
z
" transform="scale(0.015625)"/>
       </defs>
       <use xlink:href="#DejaVuSans-Bold-50"/>
       <use xlink:href="#DejaVuSans-Bold-61" x="70.666016"/>
       <use xlink:href="#DejaVuSans-Bold-74" x="138.146484"/>
       <use xlink:href="#DejaVuSans-Bold-68" x="185.949219"/>
       <use xlink:href="#DejaVuSans-Bold-52" x="257.140625"/>
       <use xlink:href="#DejaVuSans-Bold-65" x="334.142578"/>
       <use xlink:href="#DejaVuSans-Bold-73" x="401.964844"/>
       <use xlink:href="#DejaVuSans-Bold-6f" x="461.486328"/>
       <use xlink:href="#DejaVuSans-Bold-6c" x="530.1875"/>
       <use xlink:href="#DejaVuSans-Bold-76" x="564.464844"/>
       <use xlink:href="#DejaVuSans-Bold-65" x="629.650391"/>
       <use xlink:href="#DejaVuSans-Bold-64" x="697.472656"/>
       <use xlink:href="#DejaVuSans-Bold-4a" x="769.054688"/>
       <use xlink:href="#DejaVuSans-Bold-43" x="806.261719"/>
       <use xlink:href="#DejaVuSans-Bold-54" x="879.650391"/>
       <use xlink:href="#DejaVuSans-Bold-43" x="947.863281"/>
      </g>
     </g>
    </g>
    <g id="ytick_4">
     <g id="line2d_4">
      <g>
       <use xlink:href="#mff52c1ed16" x="528.971875" y="230.344298" style="stroke: #000000; stroke-width: 0.8"/>
      </g>
     </g>
     <g id="text_4">
      <!-- EVOLVE-Ecosystem-and-Civilization-Simulator -->
      <g style="fill: #586069" transform="translate(7.2 237.942735) scale(0.2 -0.2)">
       <defs>
        <path id="DejaVuSans-Bold-56" d="M 31 4666 
L 1241 4666 
L 2478 1222 
L 3713 4666 
L 4922 4666 
L 3194 0 
L 1759 0 
L 31 4666 
z
" transform="scale(0.015625)"/>
        <path id="DejaVuSans-Bold-4f" d="M 2719 3878 
Q 2169 3878 1866 3472 
Q 1563 3066 1563 2328 
Q 1563 1594 1866 1187 
Q 2169 781 2719 781 
Q 3272 781 3575 1187 
Q 3878 1594 3878 2328 
Q 3878 3066 3575 3472 
Q 3272 3878 2719 3878 
z
M 2719 4750 
Q 3844 4750 4481 4106 
Q 5119 3463 5119 2328 
Q 5119 1197 4481 553 
Q 3844 -91 2719 -91 
Q 1597 -91 958 553 
Q 319 1197 319 2328 
Q 319 3463 958 4106 
Q 1597 4750 2719 4750 
z
" transform="scale(0.015625)"/>
        <path id="DejaVuSans-Bold-4c" d="M 588 4666 
L 1791 4666 
L 1791 909 
L 3903 909 
L 3903 0 
L 588 0 
L 588 4666 
z
" transform="scale(0.015625)"/>
        <path id="DejaVuSans-Bold-2d" d="M 347 2297 
L 2309 2297 
L 2309 1388 
L 347 1388 
L 347 2297 
z
" transform="scale(0.015625)"/>
        <path id="DejaVuSans-Bold-63" d="M 3366 3391 
L 3366 2478 
Q 3138 2634 2908 2709 
Q 2678 2784 2431 2784 
Q 1963 2784 1702 2511 
Q 1441 2238 1441 1747 
Q 1441 1256 1702 982 
Q 1963 709 2431 709 
Q 2694 709 2930 787 
Q 3166 866 3366 1019 
L 3366 103 
Q 3103 6 2833 -42 
Q 2563 -91 2291 -91 
Q 1344 -91 809 395 
Q 275 881 275 1747 
Q 275 2613 809 3098 
Q 1344 3584 2291 3584 
Q 2566 3584 2833 3536 
Q 3100 3488 3366 3391 
z
" transform="scale(0.015625)"/>
        <path id="DejaVuSans-Bold-79" d="M 78 3500 
L 1197 3500 
L 2138 1125 
L 2938 3500 
L 4056 3500 
L 2584 -331 
Q 2363 -916 2067 -1148 
Q 1772 -1381 1288 -1381 
L 641 -1381 
L 641 -647 
L 991 -647 
Q 1275 -647 1404 -556 
Q 1534 -466 1606 -231 
L 1638 -134 
L 78 3500 
z
" transform="scale(0.015625)"/>
        <path id="DejaVuSans-Bold-6e" d="M 4056 2131 
L 4056 0 
L 2931 0 
L 2931 347 
L 2931 1631 
Q 2931 2084 2911 2256 
Q 2891 2428 2841 2509 
Q 2775 2619 2662 2680 
Q 2550 2741 2406 2741 
Q 2056 2741 1856 2470 
Q 1656 2200 1656 1722 
L 1656 0 
L 538 0 
L 538 3500 
L 1656 3500 
L 1656 2988 
Q 1909 3294 2193 3439 
Q 2478 3584 2822 3584 
Q 3428 3584 3742 3212 
Q 4056 2841 4056 2131 
z
" transform="scale(0.015625)"/>
        <path id="DejaVuSans-Bold-69" d="M 538 3500 
L 1656 3500 
L 1656 0 
L 538 0 
L 538 3500 
z
M 538 4863 
L 1656 4863 
L 1656 3950 
L 538 3950 
L 538 4863 
z
" transform="scale(0.015625)"/>
        <path id="DejaVuSans-Bold-7a" d="M 366 3500 
L 3419 3500 
L 3419 2719 
L 1575 800 
L 3419 800 
L 3419 0 
L 288 0 
L 288 781 
L 2131 2700 
L 366 2700 
L 366 3500 
z
" transform="scale(0.015625)"/>
       </defs>
       <use xlink:href="#DejaVuSans-Bold-45"/>
       <use xlink:href="#DejaVuSans-Bold-56" x="68.310547"/>
       <use xlink:href="#DejaVuSans-Bold-4f" x="143.953125"/>
       <use xlink:href="#DejaVuSans-Bold-4c" x="228.962891"/>
       <use xlink:href="#DejaVuSans-Bold-56" x="278.933594"/>
       <use xlink:href="#DejaVuSans-Bold-45" x="356.326172"/>
       <use xlink:href="#DejaVuSans-Bold-2d" x="424.636719"/>
       <use xlink:href="#DejaVuSans-Bold-45" x="466.140625"/>
       <use xlink:href="#DejaVuSans-Bold-63" x="534.451172"/>
       <use xlink:href="#DejaVuSans-Bold-6f" x="593.728516"/>
       <use xlink:href="#DejaVuSans-Bold-73" x="662.429688"/>
       <use xlink:href="#DejaVuSans-Bold-79" x="721.951172"/>
       <use xlink:href="#DejaVuSans-Bold-73" x="787.136719"/>
       <use xlink:href="#DejaVuSans-Bold-74" x="846.658203"/>
       <use xlink:href="#DejaVuSans-Bold-65" x="894.460938"/>
       <use xlink:href="#DejaVuSans-Bold-6d" x="962.283203"/>
       <use xlink:href="#DejaVuSans-Bold-2d" x="1066.482422"/>
       <use xlink:href="#DejaVuSans-Bold-61" x="1107.986328"/>
       <use xlink:href="#DejaVuSans-Bold-6e" x="1175.466797"/>
       <use xlink:href="#DejaVuSans-Bold-64" x="1246.658203"/>
       <use xlink:href="#DejaVuSans-Bold-2d" x="1318.240234"/>
       <use xlink:href="#DejaVuSans-Bold-43" x="1359.744141"/>
       <use xlink:href="#DejaVuSans-Bold-69" x="1433.132812"/>
       <use xlink:href="#DejaVuSans-Bold-76" x="1467.410156"/>
       <use xlink:href="#DejaVuSans-Bold-69" x="1532.595703"/>
       <use xlink:href="#DejaVuSans-Bold-6c" x="1566.873047"/>
       <use xlink:href="#DejaVuSans-Bold-69" x="1601.150391"/>
       <use xlink:href="#DejaVuSans-Bold-7a" x="1635.427734"/>
       <use xlink:href="#DejaVuSans-Bold-61" x="1693.630859"/>
       <use xlink:href="#DejaVuSans-Bold-74" x="1761.111328"/>
       <use xlink:href="#DejaVuSans-Bold-69" x="1808.914062"/>
       <use xlink:href="#DejaVuSans-Bold-6f" x="1843.191406"/>
       <use xlink:href="#DejaVuSans-Bold-6e" x="1911.892578"/>
       <use xlink:href="#DejaVuSans-Bold-2d" x="1983.083984"/>
       <use xlink:href="#DejaVuSans-Bold-53" x="2024.587891"/>
       <use xlink:href="#DejaVuSans-Bold-69" x="2096.609375"/>
       <use xlink:href="#DejaVuSans-Bold-6d" x="2130.886719"/>
       <use xlink:href="#DejaVuSans-Bold-75" x="2235.085938"/>
       <use xlink:href="#DejaVuSans-Bold-6c" x="2306.277344"/>
       <use xlink:href="#DejaVuSans-Bold-61" x="2340.554688"/>
       <use xlink:href="#DejaVuSans-Bold-74" x="2408.035156"/>
       <use xlink:href="#DejaVuSans-Bold-6f" x="2455.837891"/>
       <use xlink:href="#DejaVuSans-Bold-72" x="2524.539062"/>
      </g>
     </g>
    </g>
    <g id="ytick_5">
     <g id="line2d_5">
      <g>
       <use xlink:href="#mff52c1ed16" x="528.971875" y="279.712893" style="stroke: #000000; stroke-width: 0.8"/>
      </g>
     </g>
     <g id="text_5">
      <!-- SimGame -->
      <g style="fill: #586069" transform="translate(415.553125 287.31133) scale(0.2 -0.2)">
       <defs>
        <path id="DejaVuSans-Bold-47" d="M 4781 347 
Q 4331 128 3847 18 
Q 3363 -91 2847 -91 
Q 1681 -91 1000 561 
Q 319 1213 319 2328 
Q 319 3456 1012 4103 
Q 1706 4750 2913 4750 
Q 3378 4750 3804 4662 
Q 4231 4575 4609 4403 
L 4609 3438 
Q 4219 3659 3833 3768 
Q 3447 3878 3059 3878 
Q 2341 3878 1952 3476 
Q 1563 3075 1563 2328 
Q 1563 1588 1938 1184 
Q 2313 781 3003 781 
Q 3191 781 3352 804 
Q 3513 828 3641 878 
L 3641 1784 
L 2906 1784 
L 2906 2591 
L 4781 2591 
L 4781 347 
z
" transform="scale(0.015625)"/>
       </defs>
       <use xlink:href="#DejaVuSans-Bold-53"/>
       <use xlink:href="#DejaVuSans-Bold-69" x="72.021484"/>
       <use xlink:href="#DejaVuSans-Bold-6d" x="106.298828"/>
       <use xlink:href="#DejaVuSans-Bold-47" x="210.498047"/>
       <use xlink:href="#DejaVuSans-Bold-61" x="292.578125"/>
       <use xlink:href="#DejaVuSans-Bold-6d" x="360.058594"/>
       <use xlink:href="#DejaVuSans-Bold-65" x="464.257812"/>
      </g>
     </g>
    </g>
    <g id="ytick_6">
     <g id="line2d_6">
      <g>
       <use xlink:href="#mff52c1ed16" x="528.971875" y="329.081488" style="stroke: #000000; stroke-width: 0.8"/>
      </g>
     </g>
     <g id="text_6">
      <!-- WW_domain -->
      <g style="fill: #586069" transform="translate(384.365625 336.679925) scale(0.2 -0.2)">
       <defs>
        <path id="DejaVuSans-Bold-5f" d="M 3200 -916 
L 3200 -1509 
L 0 -1509 
L 0 -916 
L 3200 -916 
z
" transform="scale(0.015625)"/>
       </defs>
       <use xlink:href="#DejaVuSans-Bold-57"/>
       <use xlink:href="#DejaVuSans-Bold-57" x="110.302734"/>
       <use xlink:href="#DejaVuSans-Bold-5f" x="220.605469"/>
       <use xlink:href="#DejaVuSans-Bold-64" x="270.605469"/>
       <use xlink:href="#DejaVuSans-Bold-6f" x="342.1875"/>
       <use xlink:href="#DejaVuSans-Bold-6d" x="410.888672"/>
       <use xlink:href="#DejaVuSans-Bold-61" x="515.087891"/>
       <use xlink:href="#DejaVuSans-Bold-69" x="582.568359"/>
       <use xlink:href="#DejaVuSans-Bold-6e" x="616.845703"/>
      </g>
     </g>
    </g>
   </g>
   <g id="patch_9">
    <path d="M 528.971875 355 
L 528.971875 56.32 
" style="fill: none; stroke: #000000; stroke-width: 0.8; stroke-linejoin: miter; stroke-linecap: square"/>
   </g>
   <g id="patch_10">
    <path d="M 528.971875 355 
L 776.346936 355 
" style="fill: none; stroke: #000000; stroke-width: 0.8; stroke-linejoin: miter; stroke-linecap: square"/>
   </g>
   <g id="text_7">
    <!-- 25 hrs 22 mins -->
    <g style="fill: #586069" transform="translate(768.567172 86.377575) scale(0.15 -0.15)">
     <defs>
      <path id="DejaVuSans-Bold-32" d="M 1844 884 
L 3897 884 
L 3897 0 
L 506 0 
L 506 884 
L 2209 2388 
Q 2438 2594 2547 2791 
Q 2656 2988 2656 3200 
Q 2656 3528 2436 3728 
Q 2216 3928 1850 3928 
Q 1569 3928 1234 3808 
Q 900 3688 519 3450 
L 519 4475 
Q 925 4609 1322 4679 
Q 1719 4750 2100 4750 
Q 2938 4750 3402 4381 
Q 3866 4013 3866 3353 
Q 3866 2972 3669 2642 
Q 3472 2313 2841 1759 
L 1844 884 
z
" transform="scale(0.015625)"/>
      <path id="DejaVuSans-Bold-35" d="M 678 4666 
L 3669 4666 
L 3669 3781 
L 1638 3781 
L 1638 3059 
Q 1775 3097 1914 3117 
Q 2053 3138 2203 3138 
Q 3056 3138 3531 2711 
Q 4006 2284 4006 1522 
Q 4006 766 3489 337 
Q 2972 -91 2053 -91 
Q 1656 -91 1267 -14 
Q 878 63 494 219 
L 494 1166 
Q 875 947 1217 837 
Q 1559 728 1863 728 
Q 2300 728 2551 942 
Q 2803 1156 2803 1522 
Q 2803 1891 2551 2103 
Q 2300 2316 1863 2316 
Q 1603 2316 1309 2248 
Q 1016 2181 678 2041 
L 678 4666 
z
" transform="scale(0.015625)"/>
      <path id="DejaVuSans-Bold-20" transform="scale(0.015625)"/>
     </defs>
     <use xlink:href="#DejaVuSans-Bold-32"/>
     <use xlink:href="#DejaVuSans-Bold-35" x="69.580078"/>
     <use xlink:href="#DejaVuSans-Bold-20" x="139.160156"/>
     <use xlink:href="#DejaVuSans-Bold-68" x="173.974609"/>
     <use xlink:href="#DejaVuSans-Bold-72" x="245.166016"/>
     <use xlink:href="#DejaVuSans-Bold-73" x="294.482422"/>
     <use xlink:href="#DejaVuSans-Bold-20" x="354.003906"/>
     <use xlink:href="#DejaVuSans-Bold-32" x="388.818359"/>
     <use xlink:href="#DejaVuSans-Bold-32" x="458.398438"/>
     <use xlink:href="#DejaVuSans-Bold-20" x="527.978516"/>
     <use xlink:href="#DejaVuSans-Bold-6d" x="562.792969"/>
     <use xlink:href="#DejaVuSans-Bold-69" x="666.992188"/>
     <use xlink:href="#DejaVuSans-Bold-6e" x="701.269531"/>
     <use xlink:href="#DejaVuSans-Bold-73" x="772.460938"/>
    </g>
   </g>
   <g id="text_8">
    <!-- 1 hr 32 mins -->
    <g style="fill: #586069" transform="translate(547.368382 135.74617) scale(0.15 -0.15)">
     <defs>
      <path id="DejaVuSans-Bold-31" d="M 750 831 
L 1813 831 
L 1813 3847 
L 722 3622 
L 722 4441 
L 1806 4666 
L 2950 4666 
L 2950 831 
L 4013 831 
L 4013 0 
L 750 0 
L 750 831 
z
" transform="scale(0.015625)"/>
      <path id="DejaVuSans-Bold-33" d="M 2981 2516 
Q 3453 2394 3698 2092 
Q 3944 1791 3944 1325 
Q 3944 631 3412 270 
Q 2881 -91 1863 -91 
Q 1503 -91 1142 -33 
Q 781 25 428 141 
L 428 1069 
Q 766 900 1098 814 
Q 1431 728 1753 728 
Q 2231 728 2486 893 
Q 2741 1059 2741 1369 
Q 2741 1688 2480 1852 
Q 2219 2016 1709 2016 
L 1228 2016 
L 1228 2791 
L 1734 2791 
Q 2188 2791 2409 2933 
Q 2631 3075 2631 3366 
Q 2631 3634 2415 3781 
Q 2200 3928 1806 3928 
Q 1516 3928 1219 3862 
Q 922 3797 628 3669 
L 628 4550 
Q 984 4650 1334 4700 
Q 1684 4750 2022 4750 
Q 2931 4750 3382 4451 
Q 3834 4153 3834 3553 
Q 3834 3144 3618 2883 
Q 3403 2622 2981 2516 
z
" transform="scale(0.015625)"/>
     </defs>
     <use xlink:href="#DejaVuSans-Bold-31"/>
     <use xlink:href="#DejaVuSans-Bold-20" x="69.580078"/>
     <use xlink:href="#DejaVuSans-Bold-68" x="104.394531"/>
     <use xlink:href="#DejaVuSans-Bold-72" x="175.585938"/>
     <use xlink:href="#DejaVuSans-Bold-20" x="224.902344"/>
     <use xlink:href="#DejaVuSans-Bold-33" x="259.716797"/>
     <use xlink:href="#DejaVuSans-Bold-32" x="329.296875"/>
     <use xlink:href="#DejaVuSans-Bold-20" x="398.876953"/>
     <use xlink:href="#DejaVuSans-Bold-6d" x="433.691406"/>
     <use xlink:href="#DejaVuSans-Bold-69" x="537.890625"/>
     <use xlink:href="#DejaVuSans-Bold-6e" x="572.167969"/>
     <use xlink:href="#DejaVuSans-Bold-73" x="643.359375"/>
    </g>
   </g>
   <g id="text_9">
    <!-- 1 hr 26 mins -->
    <g style="fill: #586069" transform="translate(546.276844 185.114765) scale(0.15 -0.15)">
     <defs>
      <path id="DejaVuSans-Bold-36" d="M 2316 2303 
Q 2000 2303 1842 2098 
Q 1684 1894 1684 1484 
Q 1684 1075 1842 870 
Q 2000 666 2316 666 
Q 2634 666 2792 870 
Q 2950 1075 2950 1484 
Q 2950 1894 2792 2098 
Q 2634 2303 2316 2303 
z
M 3803 4544 
L 3803 3681 
Q 3506 3822 3243 3889 
Q 2981 3956 2731 3956 
Q 2194 3956 1894 3657 
Q 1594 3359 1544 2772 
Q 1750 2925 1990 3001 
Q 2231 3078 2516 3078 
Q 3231 3078 3670 2659 
Q 4109 2241 4109 1563 
Q 4109 813 3618 361 
Q 3128 -91 2303 -91 
Q 1394 -91 895 523 
Q 397 1138 397 2266 
Q 397 3422 980 4083 
Q 1563 4744 2578 4744 
Q 2900 4744 3203 4694 
Q 3506 4644 3803 4544 
z
" transform="scale(0.015625)"/>
     </defs>
     <use xlink:href="#DejaVuSans-Bold-31"/>
     <use xlink:href="#DejaVuSans-Bold-20" x="69.580078"/>
     <use xlink:href="#DejaVuSans-Bold-68" x="104.394531"/>
     <use xlink:href="#DejaVuSans-Bold-72" x="175.585938"/>
     <use xlink:href="#DejaVuSans-Bold-20" x="224.902344"/>
     <use xlink:href="#DejaVuSans-Bold-32" x="259.716797"/>
     <use xlink:href="#DejaVuSans-Bold-36" x="329.296875"/>
     <use xlink:href="#DejaVuSans-Bold-20" x="398.876953"/>
     <use xlink:href="#DejaVuSans-Bold-6d" x="433.691406"/>
     <use xlink:href="#DejaVuSans-Bold-69" x="537.890625"/>
     <use xlink:href="#DejaVuSans-Bold-6e" x="572.167969"/>
     <use xlink:href="#DejaVuSans-Bold-73" x="643.359375"/>
    </g>
   </g>
   <g id="text_10">
    <!-- 1 hr 10 mins -->
    <g style="fill: #586069" transform="translate(543.91676 234.48336) scale(0.15 -0.15)">
     <defs>
      <path id="DejaVuSans-Bold-30" d="M 2944 2338 
Q 2944 3213 2780 3570 
Q 2616 3928 2228 3928 
Q 1841 3928 1675 3570 
Q 1509 3213 1509 2338 
Q 1509 1453 1675 1090 
Q 1841 728 2228 728 
Q 2613 728 2778 1090 
Q 2944 1453 2944 2338 
z
M 4147 2328 
Q 4147 1169 3647 539 
Q 3147 -91 2228 -91 
Q 1306 -91 806 539 
Q 306 1169 306 2328 
Q 306 3491 806 4120 
Q 1306 4750 2228 4750 
Q 3147 4750 3647 4120 
Q 4147 3491 4147 2328 
z
" transform="scale(0.015625)"/>
     </defs>
     <use xlink:href="#DejaVuSans-Bold-31"/>
     <use xlink:href="#DejaVuSans-Bold-20" x="69.580078"/>
     <use xlink:href="#DejaVuSans-Bold-68" x="104.394531"/>
     <use xlink:href="#DejaVuSans-Bold-72" x="175.585938"/>
     <use xlink:href="#DejaVuSans-Bold-20" x="224.902344"/>
     <use xlink:href="#DejaVuSans-Bold-31" x="259.716797"/>
     <use xlink:href="#DejaVuSans-Bold-30" x="329.296875"/>
     <use xlink:href="#DejaVuSans-Bold-20" x="398.876953"/>
     <use xlink:href="#DejaVuSans-Bold-6d" x="433.691406"/>
     <use xlink:href="#DejaVuSans-Bold-69" x="537.890625"/>
     <use xlink:href="#DejaVuSans-Bold-6e" x="572.167969"/>
     <use xlink:href="#DejaVuSans-Bold-73" x="643.359375"/>
    </g>
   </g>
   <g id="text_11">
    <!-- 54 mins -->
    <g style="fill: #586069" transform="translate(541.438673 283.851955) scale(0.15 -0.15)">
     <defs>
      <path id="DejaVuSans-Bold-34" d="M 2356 3675 
L 1038 1722 
L 2356 1722 
L 2356 3675 
z
M 2156 4666 
L 3494 4666 
L 3494 1722 
L 4159 1722 
L 4159 850 
L 3494 850 
L 3494 0 
L 2356 0 
L 2356 850 
L 288 850 
L 288 1881 
L 2156 4666 
z
" transform="scale(0.015625)"/>
     </defs>
     <use xlink:href="#DejaVuSans-Bold-35"/>
     <use xlink:href="#DejaVuSans-Bold-34" x="69.580078"/>
     <use xlink:href="#DejaVuSans-Bold-20" x="139.160156"/>
     <use xlink:href="#DejaVuSans-Bold-6d" x="173.974609"/>
     <use xlink:href="#DejaVuSans-Bold-69" x="278.173828"/>
     <use xlink:href="#DejaVuSans-Bold-6e" x="312.451172"/>
     <use xlink:href="#DejaVuSans-Bold-73" x="383.642578"/>
    </g>
   </g>
   <g id="text_12">
    <!-- 43 mins -->
    <g style="fill: #586069" transform="translate(539.727613 333.22055) scale(0.15 -0.15)">
     <use xlink:href="#DejaVuSans-Bold-34"/>
     <use xlink:href="#DejaVuSans-Bold-33" x="69.580078"/>
     <use xlink:href="#DejaVuSans-Bold-20" x="139.160156"/>
     <use xlink:href="#DejaVuSans-Bold-6d" x="173.974609"/>
     <use xlink:href="#DejaVuSans-Bold-69" x="278.173828"/>
     <use xlink:href="#DejaVuSans-Bold-6e" x="312.451172"/>
     <use xlink:href="#DejaVuSans-Bold-73" x="383.642578"/>
    </g>
   </g>
   <g id="text_13">
    <!-- Projects touched : -->
    <g style="fill: #2a475e" transform="translate(591.028156 50.32) scale(0.12 -0.12)">
     <defs>
      <path id="DejaVuSans-Bold-6a" d="M 538 3500 
L 1656 3500 
L 1656 63 
Q 1656 -641 1318 -1011 
Q 981 -1381 341 -1381 
L -213 -1381 
L -213 -647 
L -19 -647 
Q 300 -647 419 -503 
Q 538 -359 538 63 
L 538 3500 
z
M 538 4863 
L 1656 4863 
L 1656 3950 
L 538 3950 
L 538 4863 
z
" transform="scale(0.015625)"/>
      <path id="DejaVuSans-Bold-3a" d="M 716 3500 
L 1844 3500 
L 1844 2291 
L 716 2291 
L 716 3500 
z
M 716 1209 
L 1844 1209 
L 1844 0 
L 716 0 
L 716 1209 
z
" transform="scale(0.015625)"/>
     </defs>
     <use xlink:href="#DejaVuSans-Bold-50"/>
     <use xlink:href="#DejaVuSans-Bold-72" x="73.291016"/>
     <use xlink:href="#DejaVuSans-Bold-6f" x="122.607422"/>
     <use xlink:href="#DejaVuSans-Bold-6a" x="191.308594"/>
     <use xlink:href="#DejaVuSans-Bold-65" x="225.585938"/>
     <use xlink:href="#DejaVuSans-Bold-63" x="293.408203"/>
     <use xlink:href="#DejaVuSans-Bold-74" x="352.685547"/>
     <use xlink:href="#DejaVuSans-Bold-73" x="400.488281"/>
     <use xlink:href="#DejaVuSans-Bold-20" x="460.009766"/>
     <use xlink:href="#DejaVuSans-Bold-74" x="494.824219"/>
     <use xlink:href="#DejaVuSans-Bold-6f" x="542.626953"/>
     <use xlink:href="#DejaVuSans-Bold-75" x="611.328125"/>
     <use xlink:href="#DejaVuSans-Bold-63" x="682.519531"/>
     <use xlink:href="#DejaVuSans-Bold-68" x="741.796875"/>
     <use xlink:href="#DejaVuSans-Bold-65" x="812.988281"/>
     <use xlink:href="#DejaVuSans-Bold-64" x="880.810547"/>
     <use xlink:href="#DejaVuSans-Bold-20" x="952.392578"/>
     <use xlink:href="#DejaVuSans-Bold-3a" x="987.207031"/>
    </g>
   </g>
  </g>
  <g id="axes_2">
   <g id="patch_11">
    <path d="M 944.268118 174.477841 
L 959.323408 182.190515 
" style="fill: none; stroke: #000000; stroke-linecap: round"/>
   </g>
   <g id="text_14">
    <g id="patch_12">
     <path d="M 886.836896 183.532865 
L 941.945021 183.532865 
L 941.945021 164.625365 
L 886.836896 164.625365 
z
" style="fill: #ffffff; stroke: #000000; stroke-width: 0.72; stroke-linejoin: miter"/>
    </g>
    <!-- Python -->
    <g style="fill: #2a475e" transform="translate(890.436896 177.34349) scale(0.12 -0.12)">
     <use xlink:href="#DejaVuSans-Bold-50"/>
     <use xlink:href="#DejaVuSans-Bold-79" x="75.166016"/>
     <use xlink:href="#DejaVuSans-Bold-74" x="140.351562"/>
     <use xlink:href="#DejaVuSans-Bold-68" x="188.154297"/>
     <use xlink:href="#DejaVuSans-Bold-6f" x="259.345703"/>
     <use xlink:href="#DejaVuSans-Bold-6e" x="328.046875"/>
    </g>
   </g>
   <g id="patch_13">
    <path d="M 1065.964334 260.129161 
L 1047.923586 260.129161 
L 1036.931287 246.135726 
" style="fill: none; stroke: #000000; stroke-linecap: round"/>
   </g>
   <g id="text_15">
    <g id="patch_14">
     <path d="M 1068.327557 269.536036 
L 1099.514432 269.536036 
L 1099.514432 250.722286 
L 1068.327557 250.722286 
z
" style="fill: #ffffff; stroke: #000000; stroke-width: 0.72; stroke-linejoin: miter"/>
    </g>
    <!-- TeX -->
    <g style="fill: #2a475e" transform="translate(1071.927557 263.440411) scale(0.12 -0.12)">
     <defs>
      <path id="DejaVuSans-Bold-58" d="M 3188 2381 
L 4806 0 
L 3553 0 
L 2463 1594 
L 1381 0 
L 122 0 
L 1741 2381 
L 184 4666 
L 1441 4666 
L 2463 3163 
L 3481 4666 
L 4744 4666 
L 3188 2381 
z
" transform="scale(0.015625)"/>
     </defs>
     <use xlink:href="#DejaVuSans-Bold-54"/>
     <use xlink:href="#DejaVuSans-Bold-65" x="54.962891"/>
     <use xlink:href="#DejaVuSans-Bold-58" x="122.785156"/>
    </g>
   </g>
   <g id="patch_15">
    <path d="M 1065.976513 238.187444 
L 1050.527506 229.927832 
" style="fill: none; stroke: #000000; stroke-linecap: round"/>
   </g>
   <g id="text_16">
    <g id="patch_16">
     <path d="M 1068.327557 247.724165 
L 1145.928182 247.724165 
L 1145.928182 228.910415 
L 1068.327557 228.910415 
z
" style="fill: #ffffff; stroke: #000000; stroke-width: 0.72; stroke-linejoin: miter"/>
    </g>
    <!-- Markdown -->
    <g style="fill: #2a475e" transform="translate(1071.927557 241.62854) scale(0.12 -0.12)">
     <defs>
      <path id="DejaVuSans-Bold-4d" d="M 588 4666 
L 2119 4666 
L 3181 2169 
L 4250 4666 
L 5778 4666 
L 5778 0 
L 4641 0 
L 4641 3413 
L 3566 897 
L 2803 897 
L 1728 3413 
L 1728 0 
L 588 0 
L 588 4666 
z
" transform="scale(0.015625)"/>
      <path id="DejaVuSans-Bold-6b" d="M 538 4863 
L 1656 4863 
L 1656 2216 
L 2944 3500 
L 4244 3500 
L 2534 1894 
L 4378 0 
L 3022 0 
L 1656 1459 
L 1656 0 
L 538 0 
L 538 4863 
z
" transform="scale(0.015625)"/>
      <path id="DejaVuSans-Bold-77" d="M 225 3500 
L 1313 3500 
L 1900 1088 
L 2491 3500 
L 3425 3500 
L 4013 1113 
L 4603 3500 
L 5691 3500 
L 4769 0 
L 3547 0 
L 2956 2406 
L 2369 0 
L 1147 0 
L 225 3500 
z
" transform="scale(0.015625)"/>
     </defs>
     <use xlink:href="#DejaVuSans-Bold-4d"/>
     <use xlink:href="#DejaVuSans-Bold-61" x="99.511719"/>
     <use xlink:href="#DejaVuSans-Bold-72" x="166.992188"/>
     <use xlink:href="#DejaVuSans-Bold-6b" x="216.308594"/>
     <use xlink:href="#DejaVuSans-Bold-64" x="282.8125"/>
     <use xlink:href="#DejaVuSans-Bold-6f" x="354.394531"/>
     <use xlink:href="#DejaVuSans-Bold-77" x="423.095703"/>
     <use xlink:href="#DejaVuSans-Bold-6e" x="515.478516"/>
    </g>
   </g>
   <g id="patch_17">
    <path d="M 1065.993571 216.060831 
L 1055.872861 214.331147 
" style="fill: none; stroke: #000000; stroke-linecap: round"/>
   </g>
   <g id="text_17">
    <g id="patch_18">
     <path d="M 1068.327557 226.735446 
L 1113.344432 226.735446 
L 1113.344432 207.921696 
L 1068.327557 207.921696 
z
" style="fill: #ffffff; stroke: #000000; stroke-width: 0.72; stroke-linejoin: miter"/>
    </g>
    <!-- HTML -->
    <g style="fill: #2a475e" transform="translate(1071.927557 220.639821) scale(0.12 -0.12)">
     <defs>
      <path id="DejaVuSans-Bold-48" d="M 588 4666 
L 1791 4666 
L 1791 2888 
L 3566 2888 
L 3566 4666 
L 4769 4666 
L 4769 0 
L 3566 0 
L 3566 1978 
L 1791 1978 
L 1791 0 
L 588 0 
L 588 4666 
z
" transform="scale(0.015625)"/>
     </defs>
     <use xlink:href="#DejaVuSans-Bold-48"/>
     <use xlink:href="#DejaVuSans-Bold-54" x="83.691406"/>
     <use xlink:href="#DejaVuSans-Bold-4d" x="151.904297"/>
     <use xlink:href="#DejaVuSans-Bold-4c" x="251.416016"/>
    </g>
   </g>
   <g id="patch_19">
    <path d="M 1065.970106 201.7169 
L 1056.502984 202.330537 
" style="fill: none; stroke: #000000; stroke-linecap: round"/>
   </g>
   <g id="text_18">
    <g id="patch_20">
     <path d="M 1068.327557 210.633563 
L 1146.951932 210.633563 
L 1146.951932 191.726063 
L 1068.327557 191.726063 
z
" style="fill: #ffffff; stroke: #000000; stroke-width: 0.72; stroke-linejoin: miter"/>
    </g>
    <!-- TypeScript -->
    <g style="fill: #2a475e" transform="translate(1071.927557 204.444188) scale(0.12 -0.12)">
     <use xlink:href="#DejaVuSans-Bold-54"/>
     <use xlink:href="#DejaVuSans-Bold-79" x="56.337891"/>
     <use xlink:href="#DejaVuSans-Bold-70" x="121.523438"/>
     <use xlink:href="#DejaVuSans-Bold-65" x="193.105469"/>
     <use xlink:href="#DejaVuSans-Bold-53" x="260.927734"/>
     <use xlink:href="#DejaVuSans-Bold-63" x="332.949219"/>
     <use xlink:href="#DejaVuSans-Bold-72" x="392.226562"/>
     <use xlink:href="#DejaVuSans-Bold-69" x="441.542969"/>
     <use xlink:href="#DejaVuSans-Bold-70" x="475.820312"/>
     <use xlink:href="#DejaVuSans-Bold-74" x="547.402344"/>
    </g>
   </g>
   <g id="patch_21">
    <path d="M 1052.870164 198.058255 
C 1051.975721 192.985613 1050.294562 188.083629 1047.887539 183.529733 
C 1045.480516 178.975838 1042.377024 174.825647 1038.689398 171.22938 
C 1035.001773 167.633112 1030.775048 164.634689 1026.162214 162.34264 
C 1021.549381 160.050591 1016.606773 158.492908 1011.513293 157.725974 
C 1006.419814 156.959039 1001.237667 156.992219 996.154426 157.824312 
C 991.071184 158.656406 986.148928 160.27725 981.565822 162.628178 
C 976.982716 164.979106 972.794732 168.031407 969.153459 171.674599 
C 965.512185 175.317791 962.462091 179.507382 960.113578 184.091726 
C 957.765064 188.67607 956.146813 193.599179 955.317397 198.682858 
C 954.487982 203.766537 954.457532 208.948701 955.227149 214.041776 
C 955.996767 219.13485 957.557053 224.076637 959.851531 228.688262 
C 962.14601 233.299888 965.14666 237.525033 968.744869 241.210764 
C 972.343078 244.896495 976.494904 247.997799 981.050066 250.402423 
C 985.605229 252.807047 990.508098 254.485623 995.58121 255.377395 
C 1000.654322 256.269166 1005.835721 256.363242 1010.937862 255.656216 
C 1016.040002 254.94919 1021.000574 253.449698 1025.640024 251.212015 
L 1014.893406 228.930757 
C 1012.573681 230.049599 1010.093395 230.799345 1007.542325 231.152858 
C 1004.991255 231.506371 1002.400555 231.459333 999.863999 231.013448 
C 997.327443 230.567562 994.876009 229.728274 992.598427 228.525962 
C 990.320846 227.32365 988.244933 225.772997 986.445829 223.930132 
C 984.646724 222.087266 983.146399 219.974694 981.99916 217.668881 
C 980.851921 215.363069 980.071778 212.892175 979.686969 210.345638 
C 979.30216 207.7991 979.317385 205.208019 979.732093 202.666179 
C 980.146801 200.12434 980.955926 197.662785 982.130183 195.370613 
C 983.30444 193.078441 984.829487 190.983646 986.650124 189.16205 
C 988.47076 187.340454 990.564752 185.814303 992.856305 184.638839 
C 995.147858 183.463375 997.608986 182.652953 1000.150607 182.236906 
C 1002.692228 181.82086 1005.283301 181.80427 1007.830041 182.187737 
C 1010.376781 182.571204 1012.848085 183.350046 1015.154501 184.49607 
C 1017.460918 185.642095 1019.574281 187.141306 1021.418094 188.93944 
C 1023.261906 190.737574 1024.813652 192.812669 1026.017164 195.089617 
C 1027.220675 197.366564 1028.061255 199.817557 1028.508476 202.353877 
z
" style="fill: #092436; opacity: 0.5; stroke: #092436; stroke-width: 4; stroke-linejoin: miter"/>
   </g>
   <g id="patch_22">
    <path d="M 1028.696258 255.10267 
C 1031.914667 253.550377 1034.955461 251.653984 1037.765383 249.446699 
C 1040.575304 247.239414 1043.137851 244.734201 1045.408146 241.974936 
L 1026.305586 226.257545 
C 1025.170439 227.637177 1023.889165 228.889784 1022.484204 229.993426 
C 1021.079244 231.097069 1019.558847 232.045265 1017.949642 232.821412 
z
" style="fill: #4d2604; opacity: 0.5; stroke: #4d2604; stroke-width: 4; stroke-linejoin: miter"/>
   </g>
   <g id="patch_23">
    <path d="M 1046.714987 240.416947 
C 1048.786246 237.899587 1050.603636 235.18366 1052.140645 232.3088 
C 1053.677653 229.433938 1054.926766 226.414187 1055.869757 223.293613 
L 1032.189812 216.137888 
C 1031.718316 217.698176 1031.09376 219.208051 1030.325256 220.645482 
C 1029.556751 222.082912 1028.648056 223.440875 1027.612427 224.699555 
z
" style="fill: #0d300d; opacity: 0.5; stroke: #0d300d; stroke-width: 4; stroke-linejoin: miter"/>
   </g>
   <g id="patch_24">
    <path d="M 1056.383471 221.794418 
C 1056.976108 219.833245 1057.446358 217.837143 1057.791499 215.817663 
C 1058.13664 213.798184 1058.356002 211.759227 1058.448328 209.712548 
L 1033.735954 208.597759 
C 1033.689791 209.621098 1033.58011 210.640577 1033.407539 211.650317 
C 1033.234969 212.660056 1032.999844 213.658108 1032.703526 214.638694 
z
" style="fill: #400c0c; opacity: 0.5; stroke: #400c0c; stroke-width: 4; stroke-linejoin: miter"/>
   </g>
   <g id="patch_25">
    <path d="M 1058.508677 208.559066 
C 1058.590307 206.74955 1058.572501 204.936916 1058.455337 203.129353 
C 1058.338175 201.321791 1058.121835 199.522025 1057.807295 197.738188 
L 1033.445612 202.033837 
C 1033.602882 202.925756 1033.711052 203.825639 1033.769633 204.72942 
C 1033.828215 205.633201 1033.837118 206.539519 1033.796303 207.444276 
z
" style="fill: #2c1f39; opacity: 0.5; stroke: #2c1f39; stroke-width: 4; stroke-linejoin: miter"/>
   </g>
   <g id="patch_26">
    <path d="M 1053.859665 197.068754 
C 1052.965221 191.996113 1051.284062 187.094128 1048.877039 182.540233 
C 1046.470016 177.986338 1043.366524 173.836147 1039.678899 170.239879 
C 1035.991273 166.643612 1031.764548 163.645189 1027.151714 161.35314 
C 1022.538881 159.061091 1017.596273 157.503408 1012.502794 156.736473 
C 1007.409314 155.969539 1002.227167 156.002719 997.143926 156.834812 
C 992.060684 157.666905 987.138428 159.28775 982.555322 161.638678 
C 977.972216 163.989606 973.784233 167.041907 970.142959 170.685099 
C 966.501685 174.328291 963.451591 178.517882 961.103078 183.102226 
C 958.754564 187.686569 957.136313 192.609679 956.306898 197.693358 
C 955.477482 202.777037 955.447032 207.9592 956.21665 213.052275 
C 956.986267 218.14535 958.546553 223.087137 960.841032 227.698762 
C 963.13551 232.310388 966.13616 236.535532 969.734369 240.221263 
C 973.332578 243.906994 977.484404 247.008299 982.039567 249.412923 
C 986.594729 251.817547 991.497598 253.496123 996.570711 254.387895 
C 1001.643823 255.279666 1006.825222 255.373741 1011.927362 254.666716 
C 1017.029502 253.95969 1021.990074 252.460198 1026.629524 250.222514 
L 1015.882906 227.941257 
C 1013.563181 229.060099 1011.082896 229.809845 1008.531825 230.163358 
C 1005.980755 230.516871 1003.390056 230.469833 1000.8535 230.023947 
C 998.316944 229.578062 995.865509 228.738773 993.587928 227.536461 
C 991.310346 226.334149 989.234434 224.783497 987.435329 222.940632 
C 985.636224 221.097766 984.1359 218.985194 982.98866 216.679381 
C 981.841421 214.373568 981.061278 211.902675 980.676469 209.356138 
C 980.29166 206.8096 980.306885 204.218518 980.721593 201.676679 
C 981.136301 199.134839 981.945427 196.673285 983.119683 194.381113 
C 984.29394 192.088941 985.818987 189.994146 987.639624 188.172549 
C 989.460261 186.350953 991.554253 184.824803 993.845806 183.649339 
C 996.137358 182.473875 998.598487 181.663453 1001.140107 181.247406 
C 1003.681728 180.831359 1006.272801 180.814769 1008.819541 181.198237 
C 1011.366281 181.581704 1013.837585 182.360545 1016.144002 183.50657 
C 1018.450418 184.652594 1020.563781 186.151806 1022.407594 187.94994 
C 1024.251407 189.748073 1025.803152 191.823169 1027.006664 194.100117 
C 1028.210175 196.377064 1029.050755 198.828056 1029.497977 201.364377 
z
" style="fill: #1f77b4; stroke: #ffffff; stroke-width: 4; stroke-linejoin: miter"/>
   </g>
   <g id="patch_27">
    <path d="M 1029.685759 254.11317 
C 1032.904167 252.560877 1035.944961 250.664484 1038.754883 248.457199 
C 1041.564805 246.249914 1044.127351 243.744701 1046.397646 240.985436 
L 1027.295086 225.268045 
C 1026.159939 226.647677 1024.878666 227.900284 1023.473705 229.003926 
C 1022.068744 230.107569 1020.548347 231.055765 1018.939142 231.831911 
z
" style="fill: #ff7f0e; stroke: #ffffff; stroke-width: 4; stroke-linejoin: miter"/>
   </g>
   <g id="patch_28">
    <path d="M 1047.704487 239.427447 
C 1049.775746 236.910087 1051.593137 234.194159 1053.130145 231.319299 
C 1054.667154 228.444438 1055.916266 225.424687 1056.859257 222.304112 
L 1033.179312 215.148388 
C 1032.707816 216.708675 1032.08326 218.218551 1031.314756 219.655981 
C 1030.546252 221.093412 1029.637556 222.451375 1028.601927 223.710055 
z
" style="fill: #2ca02c; stroke: #ffffff; stroke-width: 4; stroke-linejoin: miter"/>
   </g>
   <g id="patch_29">
    <path d="M 1057.372971 220.804918 
C 1057.965608 218.843745 1058.435858 216.847643 1058.780999 214.828163 
C 1059.12614 212.808684 1059.345503 210.769727 1059.437828 208.723048 
L 1034.725454 207.608259 
C 1034.679292 208.631598 1034.56961 209.651077 1034.39704 210.660816 
C 1034.224469 211.670556 1033.989344 212.668607 1033.693026 213.649194 
z
" style="fill: #d62728; stroke: #ffffff; stroke-width: 4; stroke-linejoin: miter"/>
   </g>
   <g id="patch_30">
    <path d="M 1059.498177 207.569565 
C 1059.579807 205.76005 1059.562001 203.947416 1059.444837 202.139853 
C 1059.327675 200.33229 1059.111335 198.532525 1058.796795 196.748688 
L 1034.435113 201.044337 
C 1034.592383 201.936256 1034.700553 202.836139 1034.759133 203.73992 
C 1034.817715 204.643701 1034.826618 205.550018 1034.785804 206.454776 
z
" style="fill: #9467bd; stroke: #ffffff; stroke-width: 4; stroke-linejoin: miter"/>
   </g>
   <g id="matplotlib.axis_3"/>
   <g id="matplotlib.axis_4"/>
   <g id="text_19">
    <!-- Languages -->
    <g style="fill: #2a475e" transform="translate(974.558164 208.34125) scale(0.1 -0.1)">
     <defs>
      <path id="DejaVuSans-Bold-67" d="M 2919 594 
Q 2688 288 2409 144 
Q 2131 0 1766 0 
Q 1125 0 706 504 
Q 288 1009 288 1791 
Q 288 2575 706 3076 
Q 1125 3578 1766 3578 
Q 2131 3578 2409 3434 
Q 2688 3291 2919 2981 
L 2919 3500 
L 4044 3500 
L 4044 353 
Q 4044 -491 3511 -936 
Q 2978 -1381 1966 -1381 
Q 1638 -1381 1331 -1331 
Q 1025 -1281 716 -1178 
L 716 -306 
Q 1009 -475 1290 -558 
Q 1572 -641 1856 -641 
Q 2406 -641 2662 -400 
Q 2919 -159 2919 353 
L 2919 594 
z
M 2181 2772 
Q 1834 2772 1640 2515 
Q 1447 2259 1447 1791 
Q 1447 1309 1634 1061 
Q 1822 813 2181 813 
Q 2531 813 2725 1069 
Q 2919 1325 2919 1791 
Q 2919 2259 2725 2515 
Q 2531 2772 2181 2772 
z
" transform="scale(0.015625)"/>
     </defs>
     <use xlink:href="#DejaVuSans-Bold-4c"/>
     <use xlink:href="#DejaVuSans-Bold-61" x="63.720703"/>
     <use xlink:href="#DejaVuSans-Bold-6e" x="131.201172"/>
     <use xlink:href="#DejaVuSans-Bold-67" x="202.392578"/>
     <use xlink:href="#DejaVuSans-Bold-75" x="273.974609"/>
     <use xlink:href="#DejaVuSans-Bold-61" x="345.166016"/>
     <use xlink:href="#DejaVuSans-Bold-67" x="412.646484"/>
     <use xlink:href="#DejaVuSans-Bold-65" x="484.228516"/>
     <use xlink:href="#DejaVuSans-Bold-73" x="552.050781"/>
    </g>
   </g>
   <g id="text_20">
    <!-- Languages exploited : -->
    <g style="fill: #2a475e" transform="translate(930.163476 137.816235) scale(0.12 -0.12)">
     <defs>
      <path id="DejaVuSans-Bold-78" d="M 1422 1791 
L 159 3500 
L 1344 3500 
L 2059 2463 
L 2784 3500 
L 3969 3500 
L 2706 1797 
L 4031 0 
L 2847 0 
L 2059 1106 
L 1281 0 
L 97 0 
L 1422 1791 
z
" transform="scale(0.015625)"/>
     </defs>
     <use xlink:href="#DejaVuSans-Bold-4c"/>
     <use xlink:href="#DejaVuSans-Bold-61" x="63.720703"/>
     <use xlink:href="#DejaVuSans-Bold-6e" x="131.201172"/>
     <use xlink:href="#DejaVuSans-Bold-67" x="202.392578"/>
     <use xlink:href="#DejaVuSans-Bold-75" x="273.974609"/>
     <use xlink:href="#DejaVuSans-Bold-61" x="345.166016"/>
     <use xlink:href="#DejaVuSans-Bold-67" x="412.646484"/>
     <use xlink:href="#DejaVuSans-Bold-65" x="484.228516"/>
     <use xlink:href="#DejaVuSans-Bold-73" x="552.050781"/>
     <use xlink:href="#DejaVuSans-Bold-20" x="611.572266"/>
     <use xlink:href="#DejaVuSans-Bold-65" x="646.386719"/>
     <use xlink:href="#DejaVuSans-Bold-78" x="714.208984"/>
     <use xlink:href="#DejaVuSans-Bold-70" x="778.710938"/>
     <use xlink:href="#DejaVuSans-Bold-6c" x="850.292969"/>
     <use xlink:href="#DejaVuSans-Bold-6f" x="884.570312"/>
     <use xlink:href="#DejaVuSans-Bold-69" x="953.271484"/>
     <use xlink:href="#DejaVuSans-Bold-74" x="987.548828"/>
     <use xlink:href="#DejaVuSans-Bold-65" x="1035.351562"/>
     <use xlink:href="#DejaVuSans-Bold-64" x="1103.173828"/>
     <use xlink:href="#DejaVuSans-Bold-20" x="1174.755859"/>
     <use xlink:href="#DejaVuSans-Bold-3a" x="1209.570312"/>
    </g>
   </g>
  </g>
  <g id="text_21">
   <!-- From 15 June, 2026 to 22 June, 2026: 31 hrs 46 mins -->
   <g transform="translate(134.65 29.995312) scale(0.3 -0.3)">
    <defs>
     <path id="DejaVuSans-Bold-46" d="M 588 4666 
L 3834 4666 
L 3834 3756 
L 1791 3756 
L 1791 2888 
L 3713 2888 
L 3713 1978 
L 1791 1978 
L 1791 0 
L 588 0 
L 588 4666 
z
" transform="scale(0.015625)"/>
     <path id="DejaVuSans-Bold-2c" d="M 653 1209 
L 1778 1209 
L 1778 256 
L 1006 -909 
L 341 -909 
L 653 256 
L 653 1209 
z
" transform="scale(0.015625)"/>
    </defs>
    <use xlink:href="#DejaVuSans-Bold-46"/>
    <use xlink:href="#DejaVuSans-Bold-72" x="61.935547"/>
    <use xlink:href="#DejaVuSans-Bold-6f" x="111.251953"/>
    <use xlink:href="#DejaVuSans-Bold-6d" x="179.953125"/>
    <use xlink:href="#DejaVuSans-Bold-20" x="284.152344"/>
    <use xlink:href="#DejaVuSans-Bold-31" x="318.966797"/>
    <use xlink:href="#DejaVuSans-Bold-35" x="388.546875"/>
    <use xlink:href="#DejaVuSans-Bold-20" x="458.126953"/>
    <use xlink:href="#DejaVuSans-Bold-4a" x="492.941406"/>
    <use xlink:href="#DejaVuSans-Bold-75" x="530.148438"/>
    <use xlink:href="#DejaVuSans-Bold-6e" x="601.339844"/>
    <use xlink:href="#DejaVuSans-Bold-65" x="672.53125"/>
    <use xlink:href="#DejaVuSans-Bold-2c" x="740.353516"/>
    <use xlink:href="#DejaVuSans-Bold-20" x="778.341797"/>
    <use xlink:href="#DejaVuSans-Bold-32" x="813.15625"/>
    <use xlink:href="#DejaVuSans-Bold-30" x="882.736328"/>
    <use xlink:href="#DejaVuSans-Bold-32" x="952.316406"/>
    <use xlink:href="#DejaVuSans-Bold-36" x="1021.896484"/>
    <use xlink:href="#DejaVuSans-Bold-20" x="1091.476562"/>
    <use xlink:href="#DejaVuSans-Bold-74" x="1126.291016"/>
    <use xlink:href="#DejaVuSans-Bold-6f" x="1174.09375"/>
    <use xlink:href="#DejaVuSans-Bold-20" x="1242.794922"/>
    <use xlink:href="#DejaVuSans-Bold-32" x="1277.609375"/>
    <use xlink:href="#DejaVuSans-Bold-32" x="1347.189453"/>
    <use xlink:href="#DejaVuSans-Bold-20" x="1416.769531"/>
    <use xlink:href="#DejaVuSans-Bold-4a" x="1451.583984"/>
    <use xlink:href="#DejaVuSans-Bold-75" x="1488.791016"/>
    <use xlink:href="#DejaVuSans-Bold-6e" x="1559.982422"/>
    <use xlink:href="#DejaVuSans-Bold-65" x="1631.173828"/>
    <use xlink:href="#DejaVuSans-Bold-2c" x="1698.996094"/>
    <use xlink:href="#DejaVuSans-Bold-20" x="1736.984375"/>
    <use xlink:href="#DejaVuSans-Bold-32" x="1771.798828"/>
    <use xlink:href="#DejaVuSans-Bold-30" x="1841.378906"/>
    <use xlink:href="#DejaVuSans-Bold-32" x="1910.958984"/>
    <use xlink:href="#DejaVuSans-Bold-36" x="1980.539062"/>
    <use xlink:href="#DejaVuSans-Bold-3a" x="2050.119141"/>
    <use xlink:href="#DejaVuSans-Bold-20" x="2090.109375"/>
    <use xlink:href="#DejaVuSans-Bold-33" x="2124.923828"/>
    <use xlink:href="#DejaVuSans-Bold-31" x="2194.503906"/>
    <use xlink:href="#DejaVuSans-Bold-20" x="2264.083984"/>
    <use xlink:href="#DejaVuSans-Bold-68" x="2298.898438"/>
    <use xlink:href="#DejaVuSans-Bold-72" x="2370.089844"/>
    <use xlink:href="#DejaVuSans-Bold-73" x="2419.40625"/>
    <use xlink:href="#DejaVuSans-Bold-20" x="2478.927734"/>
    <use xlink:href="#DejaVuSans-Bold-34" x="2513.742188"/>
    <use xlink:href="#DejaVuSans-Bold-36" x="2583.322266"/>
    <use xlink:href="#DejaVuSans-Bold-20" x="2652.902344"/>
    <use xlink:href="#DejaVuSans-Bold-6d" x="2687.716797"/>
    <use xlink:href="#DejaVuSans-Bold-69" x="2791.916016"/>
    <use xlink:href="#DejaVuSans-Bold-6e" x="2826.193359"/>
    <use xlink:href="#DejaVuSans-Bold-73" x="2897.384766"/>
   </g>
  </g>
 </g>
 <defs>
  <clipPath id="pe4cf4e3372">
   <rect x="528.971875" y="56.32" width="247.375061" height="298.68"/>
  </clipPath>
 </defs>
</svg>
