<?xml version="1.0" encoding="utf-8" standalone="no"?>
<!DOCTYPE svg PUBLIC "-//W3C//DTD SVG 1.1//EN"
  "http://www.w3.org/Graphics/SVG/1.1/DTD/svg11.dtd">
<svg xmlns:xlink="http://www.w3.org/1999/xlink" width="1154.719208pt" height="362.2pt" viewBox="0 0 1154.719208 362.2" xmlns="http://www.w3.org/2000/svg" version="1.1">
 <metadata>
  <rdf:RDF xmlns:dc="http://purl.org/dc/elements/1.1/" xmlns:cc="http://creativecommons.org/ns#" xmlns:rdf="http://www.w3.org/1999/02/22-rdf-syntax-ns#">
   <cc:Work>
    <dc:type rdf:resource="http://purl.org/dc/dcmitype/StillImage"/>
    <dc:date>2023-07-10T16:07:36.547817</dc:date>
    <dc:format>image/svg+xml</dc:format>
    <dc:creator>
     <cc:Agent>
      <dc:title>Matplotlib v3.5.1, https://matplotlib.org/</dc:title>
     </cc:Agent>
    </dc:creator>
   </cc:Work>
  </rdf:RDF>
 </metadata>
 <defs>
  <style type="text/css">*{stroke-linejoin: round; stroke-linecap: butt}</style>
 </defs>
 <g id="figure_1">
  <g id="patch_1">
   <path d="M 0 362.2 
L 1154.719208 362.2 
L 1154.719208 0 
L 0 0 
L 0 362.2 
z
" style="fill: none"/>
  </g>
  <g id="axes_1">
   <g id="patch_2">
    <path d="M 205.734375 351.5 
L 659.62944 351.5 
L 659.62944 56.32 
L 205.734375 56.32 
L 205.734375 351.5 
z
" style="fill: none"/>
   </g>
   <g id="patch_3">
    <path d="M 205.734375 69.737273 
L 638.015389 69.737273 
L 638.015389 94.132314 
L 205.734375 94.132314 
z
" clip-path="url(#p0308e0c62e)" style="fill: #9da42e; stroke: #9da42e; stroke-linejoin: miter"/>
   </g>
   <g id="patch_4">
    <path d="M 205.734375 118.527355 
L 266.507757 118.527355 
L 266.507757 142.922397 
L 205.734375 142.922397 
z
" clip-path="url(#p0308e0c62e)" style="fill: #d2e6eb; stroke: #d2e6eb; stroke-linejoin: miter"/>
   </g>
   <g id="patch_5">
    <path d="M 205.734375 167.317438 
L 213.634398 167.317438 
L 213.634398 191.712479 
L 205.734375 191.712479 
z
" clip-path="url(#p0308e0c62e)" style="fill: #8fd290; stroke: #8fd290; stroke-linejoin: miter"/>
   </g>
   <g id="patch_6">
    <path d="M 205.734375 216.107521 
L 213.066423 216.107521 
L 213.066423 240.502562 
L 205.734375 240.502562 
z
" clip-path="url(#p0308e0c62e)" style="fill: #d79e01; stroke: #d79e01; stroke-linejoin: miter"/>
   </g>
   <g id="patch_7">
    <path d="M 205.734375 264.897603 
L 209.968374 264.897603 
L 209.968374 289.292645 
L 205.734375 289.292645 
z
" clip-path="url(#p0308e0c62e)" style="fill: #88a639; stroke: #88a639; stroke-linejoin: miter"/>
   </g>
   <g id="patch_8">
    <path d="M 205.734375 313.687686 
L 207.283399 313.687686 
L 207.283399 338.082727 
L 205.734375 338.082727 
z
" clip-path="url(#p0308e0c62e)" style="fill: #393b92; stroke: #393b92; stroke-linejoin: miter"/>
   </g>
   <g id="matplotlib.axis_1"/>
   <g id="matplotlib.axis_2">
    <g id="ytick_1">
     <g id="line2d_1">
      <defs>
       <path id="m674a246fce" d="M 0 0 
L -3.5 0 
" style="stroke: #000000; stroke-width: 0.8"/>
      </defs>
      <g>
       <use xlink:href="#m674a246fce" x="205.734375" y="81.934793" style="stroke: #000000; stroke-width: 0.8"/>
      </g>
     </g>
     <g id="text_1">
      <!-- DM_Projects -->
      <g style="fill: #586069" transform="translate(60.225 89.533231)scale(0.2 -0.2)">
       <defs>
        <path id="DejaVuSans-Bold-44" d="M 1791 3756 
L 1791 909 
L 2222 909 
Q 2959 909 3348 1275 
Q 3738 1641 3738 2338 
Q 3738 3031 3350 3393 
Q 2963 3756 2222 3756 
L 1791 3756 
z
M 588 4666 
L 1856 4666 
Q 2919 4666 3439 4514 
Q 3959 4363 4331 4000 
Q 4659 3684 4818 3271 
Q 4978 2859 4978 2338 
Q 4978 1809 4818 1395 
Q 4659 981 4331 666 
Q 3956 303 3431 151 
Q 2906 0 1856 0 
L 588 0 
L 588 4666 
z
" transform="scale(0.015625)"/>
        <path id="DejaVuSans-Bold-4d" d="M 588 4666 
L 2119 4666 
L 3181 2169 
L 4250 4666 
L 5778 4666 
L 5778 0 
L 4641 0 
L 4641 3413 
L 3566 897 
L 2803 897 
L 1728 3413 
L 1728 0 
L 588 0 
L 588 4666 
z
" transform="scale(0.015625)"/>
        <path id="DejaVuSans-Bold-5f" d="M 3200 -916 
L 3200 -1509 
L 0 -1509 
L 0 -916 
L 3200 -916 
z
" transform="scale(0.015625)"/>
        <path id="DejaVuSans-Bold-50" d="M 588 4666 
L 2584 4666 
Q 3475 4666 3951 4270 
Q 4428 3875 4428 3144 
Q 4428 2409 3951 2014 
Q 3475 1619 2584 1619 
L 1791 1619 
L 1791 0 
L 588 0 
L 588 4666 
z
M 1791 3794 
L 1791 2491 
L 2456 2491 
Q 2806 2491 2997 2661 
Q 3188 2831 3188 3144 
Q 3188 3456 2997 3625 
Q 2806 3794 2456 3794 
L 1791 3794 
z
" transform="scale(0.015625)"/>
        <path id="DejaVuSans-Bold-72" d="M 3138 2547 
Q 2991 2616 2845 2648 
Q 2700 2681 2553 2681 
Q 2122 2681 1889 2404 
Q 1656 2128 1656 1613 
L 1656 0 
L 538 0 
L 538 3500 
L 1656 3500 
L 1656 2925 
Q 1872 3269 2151 3426 
Q 2431 3584 2822 3584 
Q 2878 3584 2943 3579 
Q 3009 3575 3134 3559 
L 3138 2547 
z
" transform="scale(0.015625)"/>
        <path id="DejaVuSans-Bold-6f" d="M 2203 2784 
Q 1831 2784 1636 2517 
Q 1441 2250 1441 1747 
Q 1441 1244 1636 976 
Q 1831 709 2203 709 
Q 2569 709 2762 976 
Q 2956 1244 2956 1747 
Q 2956 2250 2762 2517 
Q 2569 2784 2203 2784 
z
M 2203 3584 
Q 3106 3584 3614 3096 
Q 4122 2609 4122 1747 
Q 4122 884 3614 396 
Q 3106 -91 2203 -91 
Q 1297 -91 786 396 
Q 275 884 275 1747 
Q 275 2609 786 3096 
Q 1297 3584 2203 3584 
z
" transform="scale(0.015625)"/>
        <path id="DejaVuSans-Bold-6a" d="M 538 3500 
L 1656 3500 
L 1656 63 
Q 1656 -641 1318 -1011 
Q 981 -1381 341 -1381 
L -213 -1381 
L -213 -647 
L -19 -647 
Q 300 -647 419 -503 
Q 538 -359 538 63 
L 538 3500 
z
M 538 4863 
L 1656 4863 
L 1656 3950 
L 538 3950 
L 538 4863 
z
" transform="scale(0.015625)"/>
        <path id="DejaVuSans-Bold-65" d="M 4031 1759 
L 4031 1441 
L 1416 1441 
Q 1456 1047 1700 850 
Q 1944 653 2381 653 
Q 2734 653 3104 758 
Q 3475 863 3866 1075 
L 3866 213 
Q 3469 63 3072 -14 
Q 2675 -91 2278 -91 
Q 1328 -91 801 392 
Q 275 875 275 1747 
Q 275 2603 792 3093 
Q 1309 3584 2216 3584 
Q 3041 3584 3536 3087 
Q 4031 2591 4031 1759 
z
M 2881 2131 
Q 2881 2450 2695 2645 
Q 2509 2841 2209 2841 
Q 1884 2841 1681 2658 
Q 1478 2475 1428 2131 
L 2881 2131 
z
" transform="scale(0.015625)"/>
        <path id="DejaVuSans-Bold-63" d="M 3366 3391 
L 3366 2478 
Q 3138 2634 2908 2709 
Q 2678 2784 2431 2784 
Q 1963 2784 1702 2511 
Q 1441 2238 1441 1747 
Q 1441 1256 1702 982 
Q 1963 709 2431 709 
Q 2694 709 2930 787 
Q 3166 866 3366 1019 
L 3366 103 
Q 3103 6 2833 -42 
Q 2563 -91 2291 -91 
Q 1344 -91 809 395 
Q 275 881 275 1747 
Q 275 2613 809 3098 
Q 1344 3584 2291 3584 
Q 2566 3584 2833 3536 
Q 3100 3488 3366 3391 
z
" transform="scale(0.015625)"/>
        <path id="DejaVuSans-Bold-74" d="M 1759 4494 
L 1759 3500 
L 2913 3500 
L 2913 2700 
L 1759 2700 
L 1759 1216 
Q 1759 972 1856 886 
Q 1953 800 2241 800 
L 2816 800 
L 2816 0 
L 1856 0 
Q 1194 0 917 276 
Q 641 553 641 1216 
L 641 2700 
L 84 2700 
L 84 3500 
L 641 3500 
L 641 4494 
L 1759 4494 
z
" transform="scale(0.015625)"/>
        <path id="DejaVuSans-Bold-73" d="M 3272 3391 
L 3272 2541 
Q 2913 2691 2578 2766 
Q 2244 2841 1947 2841 
Q 1628 2841 1473 2761 
Q 1319 2681 1319 2516 
Q 1319 2381 1436 2309 
Q 1553 2238 1856 2203 
L 2053 2175 
Q 2913 2066 3209 1816 
Q 3506 1566 3506 1031 
Q 3506 472 3093 190 
Q 2681 -91 1863 -91 
Q 1516 -91 1145 -36 
Q 775 19 384 128 
L 384 978 
Q 719 816 1070 734 
Q 1422 653 1784 653 
Q 2113 653 2278 743 
Q 2444 834 2444 1013 
Q 2444 1163 2330 1236 
Q 2216 1309 1875 1350 
L 1678 1375 
Q 931 1469 631 1722 
Q 331 1975 331 2491 
Q 331 3047 712 3315 
Q 1094 3584 1881 3584 
Q 2191 3584 2531 3537 
Q 2872 3491 3272 3391 
z
" transform="scale(0.015625)"/>
       </defs>
       <use xlink:href="#DejaVuSans-Bold-44"/>
       <use xlink:href="#DejaVuSans-Bold-4d" x="83.007812"/>
       <use xlink:href="#DejaVuSans-Bold-5f" x="182.519531"/>
       <use xlink:href="#DejaVuSans-Bold-50" x="232.519531"/>
       <use xlink:href="#DejaVuSans-Bold-72" x="305.810547"/>
       <use xlink:href="#DejaVuSans-Bold-6f" x="355.126953"/>
       <use xlink:href="#DejaVuSans-Bold-6a" x="423.828125"/>
       <use xlink:href="#DejaVuSans-Bold-65" x="458.105469"/>
       <use xlink:href="#DejaVuSans-Bold-63" x="525.927734"/>
       <use xlink:href="#DejaVuSans-Bold-74" x="585.205078"/>
       <use xlink:href="#DejaVuSans-Bold-73" x="633.007812"/>
      </g>
     </g>
    </g>
    <g id="ytick_2">
     <g id="line2d_2">
      <g>
       <use xlink:href="#m674a246fce" x="205.734375" y="130.724876" style="stroke: #000000; stroke-width: 0.8"/>
      </g>
     </g>
     <g id="text_2">
      <!-- ICE_ENCODER -->
      <g style="fill: #586069" transform="translate(45.20625 138.146751)scale(0.2 -0.2)">
       <defs>
        <path id="DejaVuSans-Bold-49" d="M 588 4666 
L 1791 4666 
L 1791 0 
L 588 0 
L 588 4666 
z
" transform="scale(0.015625)"/>
        <path id="DejaVuSans-Bold-43" d="M 4288 256 
Q 3956 84 3597 -3 
Q 3238 -91 2847 -91 
Q 1681 -91 1000 561 
Q 319 1213 319 2328 
Q 319 3447 1000 4098 
Q 1681 4750 2847 4750 
Q 3238 4750 3597 4662 
Q 3956 4575 4288 4403 
L 4288 3438 
Q 3953 3666 3628 3772 
Q 3303 3878 2944 3878 
Q 2300 3878 1931 3465 
Q 1563 3053 1563 2328 
Q 1563 1606 1931 1193 
Q 2300 781 2944 781 
Q 3303 781 3628 887 
Q 3953 994 4288 1222 
L 4288 256 
z
" transform="scale(0.015625)"/>
        <path id="DejaVuSans-Bold-45" d="M 588 4666 
L 3834 4666 
L 3834 3756 
L 1791 3756 
L 1791 2888 
L 3713 2888 
L 3713 1978 
L 1791 1978 
L 1791 909 
L 3903 909 
L 3903 0 
L 588 0 
L 588 4666 
z
" transform="scale(0.015625)"/>
        <path id="DejaVuSans-Bold-4e" d="M 588 4666 
L 1931 4666 
L 3628 1466 
L 3628 4666 
L 4769 4666 
L 4769 0 
L 3425 0 
L 1728 3200 
L 1728 0 
L 588 0 
L 588 4666 
z
" transform="scale(0.015625)"/>
        <path id="DejaVuSans-Bold-4f" d="M 2719 3878 
Q 2169 3878 1866 3472 
Q 1563 3066 1563 2328 
Q 1563 1594 1866 1187 
Q 2169 781 2719 781 
Q 3272 781 3575 1187 
Q 3878 1594 3878 2328 
Q 3878 3066 3575 3472 
Q 3272 3878 2719 3878 
z
M 2719 4750 
Q 3844 4750 4481 4106 
Q 5119 3463 5119 2328 
Q 5119 1197 4481 553 
Q 3844 -91 2719 -91 
Q 1597 -91 958 553 
Q 319 1197 319 2328 
Q 319 3463 958 4106 
Q 1597 4750 2719 4750 
z
" transform="scale(0.015625)"/>
        <path id="DejaVuSans-Bold-52" d="M 2297 2597 
Q 2675 2597 2839 2737 
Q 3003 2878 3003 3200 
Q 3003 3519 2839 3656 
Q 2675 3794 2297 3794 
L 1791 3794 
L 1791 2597 
L 2297 2597 
z
M 1791 1766 
L 1791 0 
L 588 0 
L 588 4666 
L 2425 4666 
Q 3347 4666 3776 4356 
Q 4206 4047 4206 3378 
Q 4206 2916 3982 2619 
Q 3759 2322 3309 2181 
Q 3556 2125 3751 1926 
Q 3947 1728 4147 1325 
L 4800 0 
L 3519 0 
L 2950 1159 
Q 2778 1509 2601 1637 
Q 2425 1766 2131 1766 
L 1791 1766 
z
" transform="scale(0.015625)"/>
       </defs>
       <use xlink:href="#DejaVuSans-Bold-49"/>
       <use xlink:href="#DejaVuSans-Bold-43" x="37.207031"/>
       <use xlink:href="#DejaVuSans-Bold-45" x="110.595703"/>
       <use xlink:href="#DejaVuSans-Bold-5f" x="178.90625"/>
       <use xlink:href="#DejaVuSans-Bold-45" x="228.90625"/>
       <use xlink:href="#DejaVuSans-Bold-4e" x="297.216797"/>
       <use xlink:href="#DejaVuSans-Bold-43" x="380.908203"/>
       <use xlink:href="#DejaVuSans-Bold-4f" x="454.296875"/>
       <use xlink:href="#DejaVuSans-Bold-44" x="539.306641"/>
       <use xlink:href="#DejaVuSans-Bold-45" x="622.314453"/>
       <use xlink:href="#DejaVuSans-Bold-52" x="690.625"/>
      </g>
     </g>
    </g>
    <g id="ytick_3">
     <g id="line2d_3">
      <g>
       <use xlink:href="#m674a246fce" x="205.734375" y="179.514959" style="stroke: #000000; stroke-width: 0.8"/>
      </g>
     </g>
     <g id="text_3">
      <!-- Unknown Project -->
      <g style="fill: #586069" transform="translate(7.2 187.113396)scale(0.2 -0.2)">
       <defs>
        <path id="DejaVuSans-Bold-55" d="M 588 4666 
L 1791 4666 
L 1791 1869 
Q 1791 1291 1980 1042 
Q 2169 794 2597 794 
Q 3028 794 3217 1042 
Q 3406 1291 3406 1869 
L 3406 4666 
L 4609 4666 
L 4609 1869 
Q 4609 878 4112 393 
Q 3616 -91 2597 -91 
Q 1581 -91 1084 393 
Q 588 878 588 1869 
L 588 4666 
z
" transform="scale(0.015625)"/>
        <path id="DejaVuSans-Bold-6e" d="M 4056 2131 
L 4056 0 
L 2931 0 
L 2931 347 
L 2931 1631 
Q 2931 2084 2911 2256 
Q 2891 2428 2841 2509 
Q 2775 2619 2662 2680 
Q 2550 2741 2406 2741 
Q 2056 2741 1856 2470 
Q 1656 2200 1656 1722 
L 1656 0 
L 538 0 
L 538 3500 
L 1656 3500 
L 1656 2988 
Q 1909 3294 2193 3439 
Q 2478 3584 2822 3584 
Q 3428 3584 3742 3212 
Q 4056 2841 4056 2131 
z
" transform="scale(0.015625)"/>
        <path id="DejaVuSans-Bold-6b" d="M 538 4863 
L 1656 4863 
L 1656 2216 
L 2944 3500 
L 4244 3500 
L 2534 1894 
L 4378 0 
L 3022 0 
L 1656 1459 
L 1656 0 
L 538 0 
L 538 4863 
z
" transform="scale(0.015625)"/>
        <path id="DejaVuSans-Bold-77" d="M 225 3500 
L 1313 3500 
L 1900 1088 
L 2491 3500 
L 3425 3500 
L 4013 1113 
L 4603 3500 
L 5691 3500 
L 4769 0 
L 3547 0 
L 2956 2406 
L 2369 0 
L 1147 0 
L 225 3500 
z
" transform="scale(0.015625)"/>
        <path id="DejaVuSans-Bold-20" transform="scale(0.015625)"/>
       </defs>
       <use xlink:href="#DejaVuSans-Bold-55"/>
       <use xlink:href="#DejaVuSans-Bold-6e" x="81.201172"/>
       <use xlink:href="#DejaVuSans-Bold-6b" x="152.392578"/>
       <use xlink:href="#DejaVuSans-Bold-6e" x="218.896484"/>
       <use xlink:href="#DejaVuSans-Bold-6f" x="290.087891"/>
       <use xlink:href="#DejaVuSans-Bold-77" x="358.789062"/>
       <use xlink:href="#DejaVuSans-Bold-6e" x="451.171875"/>
       <use xlink:href="#DejaVuSans-Bold-20" x="522.363281"/>
       <use xlink:href="#DejaVuSans-Bold-50" x="557.177734"/>
       <use xlink:href="#DejaVuSans-Bold-72" x="630.46875"/>
       <use xlink:href="#DejaVuSans-Bold-6f" x="679.785156"/>
       <use xlink:href="#DejaVuSans-Bold-6a" x="748.486328"/>
       <use xlink:href="#DejaVuSans-Bold-65" x="782.763672"/>
       <use xlink:href="#DejaVuSans-Bold-63" x="850.585938"/>
       <use xlink:href="#DejaVuSans-Bold-74" x="909.863281"/>
      </g>
     </g>
    </g>
    <g id="ytick_4">
     <g id="line2d_4">
      <g>
       <use xlink:href="#m674a246fce" x="205.734375" y="228.305041" style="stroke: #000000; stroke-width: 0.8"/>
      </g>
     </g>
     <g id="text_4">
      <!-- Test -->
      <g style="fill: #586069" transform="translate(152.7125 235.903479)scale(0.2 -0.2)">
       <defs>
        <path id="DejaVuSans-Bold-54" d="M 31 4666 
L 4331 4666 
L 4331 3756 
L 2784 3756 
L 2784 0 
L 1581 0 
L 1581 3756 
L 31 3756 
L 31 4666 
z
" transform="scale(0.015625)"/>
       </defs>
       <use xlink:href="#DejaVuSans-Bold-54"/>
       <use xlink:href="#DejaVuSans-Bold-65" x="54.962891"/>
       <use xlink:href="#DejaVuSans-Bold-73" x="122.785156"/>
       <use xlink:href="#DejaVuSans-Bold-74" x="182.306641"/>
      </g>
     </g>
    </g>
    <g id="ytick_5">
     <g id="line2d_5">
      <g>
       <use xlink:href="#m674a246fce" x="205.734375" y="277.095124" style="stroke: #000000; stroke-width: 0.8"/>
      </g>
     </g>
     <g id="text_5">
      <!-- Downloads -->
      <g style="fill: #586069" transform="translate(75.3625 284.693561)scale(0.2 -0.2)">
       <defs>
        <path id="DejaVuSans-Bold-6c" d="M 538 4863 
L 1656 4863 
L 1656 0 
L 538 0 
L 538 4863 
z
" transform="scale(0.015625)"/>
        <path id="DejaVuSans-Bold-61" d="M 2106 1575 
Q 1756 1575 1579 1456 
Q 1403 1338 1403 1106 
Q 1403 894 1545 773 
Q 1688 653 1941 653 
Q 2256 653 2472 879 
Q 2688 1106 2688 1447 
L 2688 1575 
L 2106 1575 
z
M 3816 1997 
L 3816 0 
L 2688 0 
L 2688 519 
Q 2463 200 2181 54 
Q 1900 -91 1497 -91 
Q 953 -91 614 226 
Q 275 544 275 1050 
Q 275 1666 698 1953 
Q 1122 2241 2028 2241 
L 2688 2241 
L 2688 2328 
Q 2688 2594 2478 2717 
Q 2269 2841 1825 2841 
Q 1466 2841 1156 2769 
Q 847 2697 581 2553 
L 581 3406 
Q 941 3494 1303 3539 
Q 1666 3584 2028 3584 
Q 2975 3584 3395 3211 
Q 3816 2838 3816 1997 
z
" transform="scale(0.015625)"/>
        <path id="DejaVuSans-Bold-64" d="M 2919 2988 
L 2919 4863 
L 4044 4863 
L 4044 0 
L 2919 0 
L 2919 506 
Q 2688 197 2409 53 
Q 2131 -91 1766 -91 
Q 1119 -91 703 423 
Q 288 938 288 1747 
Q 288 2556 703 3070 
Q 1119 3584 1766 3584 
Q 2128 3584 2408 3439 
Q 2688 3294 2919 2988 
z
M 2181 722 
Q 2541 722 2730 984 
Q 2919 1247 2919 1747 
Q 2919 2247 2730 2509 
Q 2541 2772 2181 2772 
Q 1825 2772 1636 2509 
Q 1447 2247 1447 1747 
Q 1447 1247 1636 984 
Q 1825 722 2181 722 
z
" transform="scale(0.015625)"/>
       </defs>
       <use xlink:href="#DejaVuSans-Bold-44"/>
       <use xlink:href="#DejaVuSans-Bold-6f" x="83.007812"/>
       <use xlink:href="#DejaVuSans-Bold-77" x="151.708984"/>
       <use xlink:href="#DejaVuSans-Bold-6e" x="244.091797"/>
       <use xlink:href="#DejaVuSans-Bold-6c" x="315.283203"/>
       <use xlink:href="#DejaVuSans-Bold-6f" x="349.560547"/>
       <use xlink:href="#DejaVuSans-Bold-61" x="418.261719"/>
       <use xlink:href="#DejaVuSans-Bold-64" x="485.742188"/>
       <use xlink:href="#DejaVuSans-Bold-73" x="557.324219"/>
      </g>
     </g>
    </g>
    <g id="ytick_6">
     <g id="line2d_6">
      <g>
       <use xlink:href="#m674a246fce" x="205.734375" y="325.885207" style="stroke: #000000; stroke-width: 0.8"/>
      </g>
     </g>
     <g id="text_6">
      <!-- rbc -->
      <g style="fill: #586069" transform="translate(162.7 333.483644)scale(0.2 -0.2)">
       <defs>
        <path id="DejaVuSans-Bold-62" d="M 2400 722 
Q 2759 722 2948 984 
Q 3138 1247 3138 1747 
Q 3138 2247 2948 2509 
Q 2759 2772 2400 2772 
Q 2041 2772 1848 2508 
Q 1656 2244 1656 1747 
Q 1656 1250 1848 986 
Q 2041 722 2400 722 
z
M 1656 2988 
Q 1888 3294 2169 3439 
Q 2450 3584 2816 3584 
Q 3463 3584 3878 3070 
Q 4294 2556 4294 1747 
Q 4294 938 3878 423 
Q 3463 -91 2816 -91 
Q 2450 -91 2169 54 
Q 1888 200 1656 506 
L 1656 0 
L 538 0 
L 538 4863 
L 1656 4863 
L 1656 2988 
z
" transform="scale(0.015625)"/>
       </defs>
       <use xlink:href="#DejaVuSans-Bold-72"/>
       <use xlink:href="#DejaVuSans-Bold-62" x="49.316406"/>
       <use xlink:href="#DejaVuSans-Bold-63" x="120.898438"/>
      </g>
     </g>
    </g>
   </g>
   <g id="patch_9">
    <path d="M 205.734375 351.5 
L 205.734375 56.32 
" style="fill: none; stroke: #000000; stroke-width: 0.8; stroke-linejoin: miter; stroke-linecap: square"/>
   </g>
   <g id="patch_10">
    <path d="M 205.734375 351.5 
L 659.62944 351.5 
" style="fill: none; stroke: #000000; stroke-width: 0.8; stroke-linejoin: miter; stroke-linecap: square"/>
   </g>
   <g id="text_7">
    <!-- 52 hrs 36 mins -->
    <g style="fill: #586069" transform="translate(642.015389 86.073856)scale(0.15 -0.15)">
     <defs>
      <path id="DejaVuSans-Bold-35" d="M 678 4666 
L 3669 4666 
L 3669 3781 
L 1638 3781 
L 1638 3059 
Q 1775 3097 1914 3117 
Q 2053 3138 2203 3138 
Q 3056 3138 3531 2711 
Q 4006 2284 4006 1522 
Q 4006 766 3489 337 
Q 2972 -91 2053 -91 
Q 1656 -91 1267 -14 
Q 878 63 494 219 
L 494 1166 
Q 875 947 1217 837 
Q 1559 728 1863 728 
Q 2300 728 2551 942 
Q 2803 1156 2803 1522 
Q 2803 1891 2551 2103 
Q 2300 2316 1863 2316 
Q 1603 2316 1309 2248 
Q 1016 2181 678 2041 
L 678 4666 
z
" transform="scale(0.015625)"/>
      <path id="DejaVuSans-Bold-32" d="M 1844 884 
L 3897 884 
L 3897 0 
L 506 0 
L 506 884 
L 2209 2388 
Q 2438 2594 2547 2791 
Q 2656 2988 2656 3200 
Q 2656 3528 2436 3728 
Q 2216 3928 1850 3928 
Q 1569 3928 1234 3808 
Q 900 3688 519 3450 
L 519 4475 
Q 925 4609 1322 4679 
Q 1719 4750 2100 4750 
Q 2938 4750 3402 4381 
Q 3866 4013 3866 3353 
Q 3866 2972 3669 2642 
Q 3472 2313 2841 1759 
L 1844 884 
z
" transform="scale(0.015625)"/>
      <path id="DejaVuSans-Bold-68" d="M 4056 2131 
L 4056 0 
L 2931 0 
L 2931 347 
L 2931 1625 
Q 2931 2084 2911 2256 
Q 2891 2428 2841 2509 
Q 2775 2619 2662 2680 
Q 2550 2741 2406 2741 
Q 2056 2741 1856 2470 
Q 1656 2200 1656 1722 
L 1656 0 
L 538 0 
L 538 4863 
L 1656 4863 
L 1656 2988 
Q 1909 3294 2193 3439 
Q 2478 3584 2822 3584 
Q 3428 3584 3742 3212 
Q 4056 2841 4056 2131 
z
" transform="scale(0.015625)"/>
      <path id="DejaVuSans-Bold-33" d="M 2981 2516 
Q 3453 2394 3698 2092 
Q 3944 1791 3944 1325 
Q 3944 631 3412 270 
Q 2881 -91 1863 -91 
Q 1503 -91 1142 -33 
Q 781 25 428 141 
L 428 1069 
Q 766 900 1098 814 
Q 1431 728 1753 728 
Q 2231 728 2486 893 
Q 2741 1059 2741 1369 
Q 2741 1688 2480 1852 
Q 2219 2016 1709 2016 
L 1228 2016 
L 1228 2791 
L 1734 2791 
Q 2188 2791 2409 2933 
Q 2631 3075 2631 3366 
Q 2631 3634 2415 3781 
Q 2200 3928 1806 3928 
Q 1516 3928 1219 3862 
Q 922 3797 628 3669 
L 628 4550 
Q 984 4650 1334 4700 
Q 1684 4750 2022 4750 
Q 2931 4750 3382 4451 
Q 3834 4153 3834 3553 
Q 3834 3144 3618 2883 
Q 3403 2622 2981 2516 
z
" transform="scale(0.015625)"/>
      <path id="DejaVuSans-Bold-36" d="M 2316 2303 
Q 2000 2303 1842 2098 
Q 1684 1894 1684 1484 
Q 1684 1075 1842 870 
Q 2000 666 2316 666 
Q 2634 666 2792 870 
Q 2950 1075 2950 1484 
Q 2950 1894 2792 2098 
Q 2634 2303 2316 2303 
z
M 3803 4544 
L 3803 3681 
Q 3506 3822 3243 3889 
Q 2981 3956 2731 3956 
Q 2194 3956 1894 3657 
Q 1594 3359 1544 2772 
Q 1750 2925 1990 3001 
Q 2231 3078 2516 3078 
Q 3231 3078 3670 2659 
Q 4109 2241 4109 1563 
Q 4109 813 3618 361 
Q 3128 -91 2303 -91 
Q 1394 -91 895 523 
Q 397 1138 397 2266 
Q 397 3422 980 4083 
Q 1563 4744 2578 4744 
Q 2900 4744 3203 4694 
Q 3506 4644 3803 4544 
z
" transform="scale(0.015625)"/>
      <path id="DejaVuSans-Bold-6d" d="M 3781 2919 
Q 3994 3244 4286 3414 
Q 4578 3584 4928 3584 
Q 5531 3584 5847 3212 
Q 6163 2841 6163 2131 
L 6163 0 
L 5038 0 
L 5038 1825 
Q 5041 1866 5042 1909 
Q 5044 1953 5044 2034 
Q 5044 2406 4934 2573 
Q 4825 2741 4581 2741 
Q 4263 2741 4089 2478 
Q 3916 2216 3909 1719 
L 3909 0 
L 2784 0 
L 2784 1825 
Q 2784 2406 2684 2573 
Q 2584 2741 2328 2741 
Q 2006 2741 1831 2477 
Q 1656 2213 1656 1722 
L 1656 0 
L 531 0 
L 531 3500 
L 1656 3500 
L 1656 2988 
Q 1863 3284 2130 3434 
Q 2397 3584 2719 3584 
Q 3081 3584 3359 3409 
Q 3638 3234 3781 2919 
z
" transform="scale(0.015625)"/>
      <path id="DejaVuSans-Bold-69" d="M 538 3500 
L 1656 3500 
L 1656 0 
L 538 0 
L 538 3500 
z
M 538 4863 
L 1656 4863 
L 1656 3950 
L 538 3950 
L 538 4863 
z
" transform="scale(0.015625)"/>
     </defs>
     <use xlink:href="#DejaVuSans-Bold-35"/>
     <use xlink:href="#DejaVuSans-Bold-32" x="69.580078"/>
     <use xlink:href="#DejaVuSans-Bold-20" x="139.160156"/>
     <use xlink:href="#DejaVuSans-Bold-68" x="173.974609"/>
     <use xlink:href="#DejaVuSans-Bold-72" x="245.166016"/>
     <use xlink:href="#DejaVuSans-Bold-73" x="294.482422"/>
     <use xlink:href="#DejaVuSans-Bold-20" x="354.003906"/>
     <use xlink:href="#DejaVuSans-Bold-33" x="388.818359"/>
     <use xlink:href="#DejaVuSans-Bold-36" x="458.398438"/>
     <use xlink:href="#DejaVuSans-Bold-20" x="527.978516"/>
     <use xlink:href="#DejaVuSans-Bold-6d" x="562.792969"/>
     <use xlink:href="#DejaVuSans-Bold-69" x="666.992188"/>
     <use xlink:href="#DejaVuSans-Bold-6e" x="701.269531"/>
     <use xlink:href="#DejaVuSans-Bold-73" x="772.460938"/>
    </g>
   </g>
   <g id="text_8">
    <!-- 7 hrs 23 mins -->
    <g style="fill: #586069" transform="translate(270.507757 134.863939)scale(0.15 -0.15)">
     <defs>
      <path id="DejaVuSans-Bold-37" d="M 428 4666 
L 3944 4666 
L 3944 3988 
L 2125 0 
L 953 0 
L 2675 3781 
L 428 3781 
L 428 4666 
z
" transform="scale(0.015625)"/>
     </defs>
     <use xlink:href="#DejaVuSans-Bold-37"/>
     <use xlink:href="#DejaVuSans-Bold-20" x="69.580078"/>
     <use xlink:href="#DejaVuSans-Bold-68" x="104.394531"/>
     <use xlink:href="#DejaVuSans-Bold-72" x="175.585938"/>
     <use xlink:href="#DejaVuSans-Bold-73" x="224.902344"/>
     <use xlink:href="#DejaVuSans-Bold-20" x="284.423828"/>
     <use xlink:href="#DejaVuSans-Bold-32" x="319.238281"/>
     <use xlink:href="#DejaVuSans-Bold-33" x="388.818359"/>
     <use xlink:href="#DejaVuSans-Bold-20" x="458.398438"/>
     <use xlink:href="#DejaVuSans-Bold-6d" x="493.212891"/>
     <use xlink:href="#DejaVuSans-Bold-69" x="597.412109"/>
     <use xlink:href="#DejaVuSans-Bold-6e" x="631.689453"/>
     <use xlink:href="#DejaVuSans-Bold-73" x="702.880859"/>
    </g>
   </g>
   <g id="text_9">
    <!-- 57 mins -->
    <g style="fill: #586069" transform="translate(217.634398 183.654021)scale(0.15 -0.15)">
     <use xlink:href="#DejaVuSans-Bold-35"/>
     <use xlink:href="#DejaVuSans-Bold-37" x="69.580078"/>
     <use xlink:href="#DejaVuSans-Bold-20" x="139.160156"/>
     <use xlink:href="#DejaVuSans-Bold-6d" x="173.974609"/>
     <use xlink:href="#DejaVuSans-Bold-69" x="278.173828"/>
     <use xlink:href="#DejaVuSans-Bold-6e" x="312.451172"/>
     <use xlink:href="#DejaVuSans-Bold-73" x="383.642578"/>
    </g>
   </g>
   <g id="text_10">
    <!-- 53 mins -->
    <g style="fill: #586069" transform="translate(217.066423 232.444104)scale(0.15 -0.15)">
     <use xlink:href="#DejaVuSans-Bold-35"/>
     <use xlink:href="#DejaVuSans-Bold-33" x="69.580078"/>
     <use xlink:href="#DejaVuSans-Bold-20" x="139.160156"/>
     <use xlink:href="#DejaVuSans-Bold-6d" x="173.974609"/>
     <use xlink:href="#DejaVuSans-Bold-69" x="278.173828"/>
     <use xlink:href="#DejaVuSans-Bold-6e" x="312.451172"/>
     <use xlink:href="#DejaVuSans-Bold-73" x="383.642578"/>
    </g>
   </g>
   <g id="text_11">
    <!-- 30 mins -->
    <g style="fill: #586069" transform="translate(213.968374 281.234186)scale(0.15 -0.15)">
     <defs>
      <path id="DejaVuSans-Bold-30" d="M 2944 2338 
Q 2944 3213 2780 3570 
Q 2616 3928 2228 3928 
Q 1841 3928 1675 3570 
Q 1509 3213 1509 2338 
Q 1509 1453 1675 1090 
Q 1841 728 2228 728 
Q 2613 728 2778 1090 
Q 2944 1453 2944 2338 
z
M 4147 2328 
Q 4147 1169 3647 539 
Q 3147 -91 2228 -91 
Q 1306 -91 806 539 
Q 306 1169 306 2328 
Q 306 3491 806 4120 
Q 1306 4750 2228 4750 
Q 3147 4750 3647 4120 
Q 4147 3491 4147 2328 
z
" transform="scale(0.015625)"/>
     </defs>
     <use xlink:href="#DejaVuSans-Bold-33"/>
     <use xlink:href="#DejaVuSans-Bold-30" x="69.580078"/>
     <use xlink:href="#DejaVuSans-Bold-20" x="139.160156"/>
     <use xlink:href="#DejaVuSans-Bold-6d" x="173.974609"/>
     <use xlink:href="#DejaVuSans-Bold-69" x="278.173828"/>
     <use xlink:href="#DejaVuSans-Bold-6e" x="312.451172"/>
     <use xlink:href="#DejaVuSans-Bold-73" x="383.642578"/>
    </g>
   </g>
   <g id="text_12">
    <!-- 11 mins -->
    <g style="fill: #586069" transform="translate(211.283399 330.024269)scale(0.15 -0.15)">
     <defs>
      <path id="DejaVuSans-Bold-31" d="M 750 831 
L 1813 831 
L 1813 3847 
L 722 3622 
L 722 4441 
L 1806 4666 
L 2950 4666 
L 2950 831 
L 4013 831 
L 4013 0 
L 750 0 
L 750 831 
z
" transform="scale(0.015625)"/>
     </defs>
     <use xlink:href="#DejaVuSans-Bold-31"/>
     <use xlink:href="#DejaVuSans-Bold-31" x="69.580078"/>
     <use xlink:href="#DejaVuSans-Bold-20" x="139.160156"/>
     <use xlink:href="#DejaVuSans-Bold-6d" x="173.974609"/>
     <use xlink:href="#DejaVuSans-Bold-69" x="278.173828"/>
     <use xlink:href="#DejaVuSans-Bold-6e" x="312.451172"/>
     <use xlink:href="#DejaVuSans-Bold-73" x="383.642578"/>
    </g>
   </g>
   <g id="text_13">
    <!-- Projects touched : -->
    <g style="fill: #2a475e" transform="translate(371.050657 50.32)scale(0.12 -0.12)">
     <defs>
      <path id="DejaVuSans-Bold-75" d="M 500 1363 
L 500 3500 
L 1625 3500 
L 1625 3150 
Q 1625 2866 1622 2436 
Q 1619 2006 1619 1863 
Q 1619 1441 1641 1255 
Q 1663 1069 1716 984 
Q 1784 875 1895 815 
Q 2006 756 2150 756 
Q 2500 756 2700 1025 
Q 2900 1294 2900 1772 
L 2900 3500 
L 4019 3500 
L 4019 0 
L 2900 0 
L 2900 506 
Q 2647 200 2364 54 
Q 2081 -91 1741 -91 
Q 1134 -91 817 281 
Q 500 653 500 1363 
z
" transform="scale(0.015625)"/>
      <path id="DejaVuSans-Bold-3a" d="M 716 3500 
L 1844 3500 
L 1844 2291 
L 716 2291 
L 716 3500 
z
M 716 1209 
L 1844 1209 
L 1844 0 
L 716 0 
L 716 1209 
z
" transform="scale(0.015625)"/>
     </defs>
     <use xlink:href="#DejaVuSans-Bold-50"/>
     <use xlink:href="#DejaVuSans-Bold-72" x="73.291016"/>
     <use xlink:href="#DejaVuSans-Bold-6f" x="122.607422"/>
     <use xlink:href="#DejaVuSans-Bold-6a" x="191.308594"/>
     <use xlink:href="#DejaVuSans-Bold-65" x="225.585938"/>
     <use xlink:href="#DejaVuSans-Bold-63" x="293.408203"/>
     <use xlink:href="#DejaVuSans-Bold-74" x="352.685547"/>
     <use xlink:href="#DejaVuSans-Bold-73" x="400.488281"/>
     <use xlink:href="#DejaVuSans-Bold-20" x="460.009766"/>
     <use xlink:href="#DejaVuSans-Bold-74" x="494.824219"/>
     <use xlink:href="#DejaVuSans-Bold-6f" x="542.626953"/>
     <use xlink:href="#DejaVuSans-Bold-75" x="611.328125"/>
     <use xlink:href="#DejaVuSans-Bold-63" x="682.519531"/>
     <use xlink:href="#DejaVuSans-Bold-68" x="741.796875"/>
     <use xlink:href="#DejaVuSans-Bold-65" x="812.988281"/>
     <use xlink:href="#DejaVuSans-Bold-64" x="880.810547"/>
     <use xlink:href="#DejaVuSans-Bold-20" x="952.392578"/>
     <use xlink:href="#DejaVuSans-Bold-3a" x="987.207031"/>
    </g>
   </g>
  </g>
  <g id="axes_2">
   <g id="patch_11">
    <path d="M 823.374367 169.671113 
L 851.026351 177.785772 
" style="fill: none; stroke: #000000; stroke-linecap: round"/>
   </g>
   <g id="text_14">
    <g id="patch_12">
     <path d="M 765.988998 177.577252 
L 821.097123 177.577252 
L 821.097123 158.669752 
L 765.988998 158.669752 
z
" style="fill: #ffffff; stroke: #000000; stroke-width: 0.72; stroke-linejoin: miter"/>
    </g>
    <!-- Python -->
    <g style="fill: #2a475e" transform="translate(769.588998 171.387877)scale(0.12 -0.12)">
     <defs>
      <path id="DejaVuSans-Bold-79" d="M 78 3500 
L 1197 3500 
L 2138 1125 
L 2938 3500 
L 4056 3500 
L 2584 -331 
Q 2363 -916 2067 -1148 
Q 1772 -1381 1288 -1381 
L 641 -1381 
L 641 -647 
L 991 -647 
Q 1275 -647 1404 -556 
Q 1534 -466 1606 -231 
L 1638 -134 
L 78 3500 
z
" transform="scale(0.015625)"/>
     </defs>
     <use xlink:href="#DejaVuSans-Bold-50"/>
     <use xlink:href="#DejaVuSans-Bold-79" x="75.166016"/>
     <use xlink:href="#DejaVuSans-Bold-74" x="140.351562"/>
     <use xlink:href="#DejaVuSans-Bold-68" x="188.154297"/>
     <use xlink:href="#DejaVuSans-Bold-6f" x="259.345703"/>
     <use xlink:href="#DejaVuSans-Bold-6e" x="328.046875"/>
    </g>
   </g>
   <g id="patch_13">
    <path d="M 1056.647339 278.422962 
L 1043.004333 278.422962 
L 1015.207917 258.305606 
" style="fill: none; stroke: #000000; stroke-linecap: round"/>
   </g>
   <g id="text_15">
    <g id="patch_14">
     <path d="M 1059.000458 287.829837 
L 1099.129208 287.829837 
L 1099.129208 269.016087 
L 1059.000458 269.016087 
z
" style="fill: #ffffff; stroke: #000000; stroke-width: 0.72; stroke-linejoin: miter"/>
    </g>
    <!-- Bash -->
    <g style="fill: #2a475e" transform="translate(1062.600458 281.734212)scale(0.12 -0.12)">
     <defs>
      <path id="DejaVuSans-Bold-42" d="M 2456 2859 
Q 2741 2859 2887 2984 
Q 3034 3109 3034 3353 
Q 3034 3594 2887 3720 
Q 2741 3847 2456 3847 
L 1791 3847 
L 1791 2859 
L 2456 2859 
z
M 2497 819 
Q 2859 819 3042 972 
Q 3225 1125 3225 1434 
Q 3225 1738 3044 1889 
Q 2863 2041 2497 2041 
L 1791 2041 
L 1791 819 
L 2497 819 
z
M 3616 2497 
Q 4003 2384 4215 2081 
Q 4428 1778 4428 1338 
Q 4428 663 3972 331 
Q 3516 0 2584 0 
L 588 0 
L 588 4666 
L 2394 4666 
Q 3366 4666 3802 4372 
Q 4238 4078 4238 3431 
Q 4238 3091 4078 2852 
Q 3919 2613 3616 2497 
z
" transform="scale(0.015625)"/>
     </defs>
     <use xlink:href="#DejaVuSans-Bold-42"/>
     <use xlink:href="#DejaVuSans-Bold-61" x="76.220703"/>
     <use xlink:href="#DejaVuSans-Bold-73" x="143.701172"/>
     <use xlink:href="#DejaVuSans-Bold-68" x="203.222656"/>
    </g>
   </g>
   <g id="patch_15">
    <path d="M 1056.677952 252.048174 
L 1025.810254 239.307667 
" style="fill: none; stroke: #000000; stroke-linecap: round"/>
   </g>
   <g id="text_16">
    <g id="patch_16">
     <path d="M 1059.000458 261.805115 
L 1151.119208 261.805115 
L 1151.119208 242.991365 
L 1059.000458 242.991365 
z
" style="fill: #ffffff; stroke: #000000; stroke-width: 0.72; stroke-linejoin: miter"/>
    </g>
    <!-- gro.gromacs -->
    <g style="fill: #2a475e" transform="translate(1062.600458 255.61574)scale(0.12 -0.12)">
     <defs>
      <path id="DejaVuSans-Bold-67" d="M 2919 594 
Q 2688 288 2409 144 
Q 2131 0 1766 0 
Q 1125 0 706 504 
Q 288 1009 288 1791 
Q 288 2575 706 3076 
Q 1125 3578 1766 3578 
Q 2131 3578 2409 3434 
Q 2688 3291 2919 2981 
L 2919 3500 
L 4044 3500 
L 4044 353 
Q 4044 -491 3511 -936 
Q 2978 -1381 1966 -1381 
Q 1638 -1381 1331 -1331 
Q 1025 -1281 716 -1178 
L 716 -306 
Q 1009 -475 1290 -558 
Q 1572 -641 1856 -641 
Q 2406 -641 2662 -400 
Q 2919 -159 2919 353 
L 2919 594 
z
M 2181 2772 
Q 1834 2772 1640 2515 
Q 1447 2259 1447 1791 
Q 1447 1309 1634 1061 
Q 1822 813 2181 813 
Q 2531 813 2725 1069 
Q 2919 1325 2919 1791 
Q 2919 2259 2725 2515 
Q 2531 2772 2181 2772 
z
" transform="scale(0.015625)"/>
      <path id="DejaVuSans-Bold-2e" d="M 653 1209 
L 1778 1209 
L 1778 0 
L 653 0 
L 653 1209 
z
" transform="scale(0.015625)"/>
     </defs>
     <use xlink:href="#DejaVuSans-Bold-67"/>
     <use xlink:href="#DejaVuSans-Bold-72" x="71.582031"/>
     <use xlink:href="#DejaVuSans-Bold-6f" x="120.898438"/>
     <use xlink:href="#DejaVuSans-Bold-2e" x="189.599609"/>
     <use xlink:href="#DejaVuSans-Bold-67" x="227.587891"/>
     <use xlink:href="#DejaVuSans-Bold-72" x="299.169922"/>
     <use xlink:href="#DejaVuSans-Bold-6f" x="348.486328"/>
     <use xlink:href="#DejaVuSans-Bold-6d" x="417.1875"/>
     <use xlink:href="#DejaVuSans-Bold-61" x="521.386719"/>
     <use xlink:href="#DejaVuSans-Bold-63" x="588.867188"/>
     <use xlink:href="#DejaVuSans-Bold-73" x="648.144531"/>
    </g>
   </g>
   <g id="patch_17">
    <path d="M 1056.672234 222.829531 
L 1031.631732 218.767273 
" style="fill: none; stroke: #000000; stroke-linecap: round"/>
   </g>
   <g id="text_17">
    <g id="patch_18">
     <path d="M 1059.000458 233.668406 
L 1090.487333 233.668406 
L 1090.487333 214.854656 
L 1059.000458 214.854656 
z
" style="fill: #ffffff; stroke: #000000; stroke-width: 0.72; stroke-linejoin: miter"/>
    </g>
    <!-- Lua -->
    <g style="fill: #2a475e" transform="translate(1062.600458 227.572781)scale(0.12 -0.12)">
     <defs>
      <path id="DejaVuSans-Bold-4c" d="M 588 4666 
L 1791 4666 
L 1791 909 
L 3903 909 
L 3903 0 
L 588 0 
L 588 4666 
z
" transform="scale(0.015625)"/>
     </defs>
     <use xlink:href="#DejaVuSans-Bold-4c"/>
     <use xlink:href="#DejaVuSans-Bold-75" x="63.720703"/>
     <use xlink:href="#DejaVuSans-Bold-61" x="134.912109"/>
    </g>
   </g>
   <g id="patch_19">
    <path d="M 1056.638147 196.424742 
L 1032.637386 197.965636 
" style="fill: none; stroke: #000000; stroke-linecap: round"/>
   </g>
   <g id="text_18">
    <g id="patch_20">
     <path d="M 1059.000458 205.17418 
L 1104.737333 205.17418 
L 1104.737333 186.36043 
L 1059.000458 186.36043 
z
" style="fill: #ffffff; stroke: #000000; stroke-width: 0.72; stroke-linejoin: miter"/>
    </g>
    <!-- Other -->
    <g style="fill: #2a475e" transform="translate(1062.600458 199.078555)scale(0.12 -0.12)">
     <use xlink:href="#DejaVuSans-Bold-4f"/>
     <use xlink:href="#DejaVuSans-Bold-74" x="85.009766"/>
     <use xlink:href="#DejaVuSans-Bold-68" x="132.8125"/>
     <use xlink:href="#DejaVuSans-Bold-65" x="204.003906"/>
     <use xlink:href="#DejaVuSans-Bold-72" x="271.826172"/>
    </g>
   </g>
   <g id="patch_21">
    <path d="M 1027.633086 189.96197 
C 1025.867642 179.949637 1022.432679 170.304651 1017.471835 161.430327 
C 1012.510992 152.556002 1006.094391 144.577784 998.490351 137.82929 
C 990.886311 131.080796 982.202319 125.65742 972.801505 121.785946 
C 963.400692 117.914472 953.415943 115.649627 943.264783 115.086116 
C 933.113622 114.522605 922.939543 115.668395 913.167985 118.475574 
C 903.396426 121.282752 894.165516 125.711637 885.861254 131.57703 
C 877.556993 137.442424 870.296766 144.661415 864.384167 152.932133 
C 858.471569 161.202852 853.990178 170.408386 851.127387 180.163796 
C 848.264597 189.919207 847.060875 200.086595 847.566557 210.2408 
C 848.072239 220.395006 850.280176 230.392492 854.098041 239.815205 
C 857.915906 249.237917 863.289731 257.952659 869.994805 265.595015 
C 876.699878 273.23737 884.641418 279.699309 893.487342 284.71062 
C 902.333266 289.72193 911.958531 293.211774 921.960646 295.034218 
C 931.96276 296.856663 942.200339 296.985948 952.245286 295.416666 
C 962.290233 293.847385 972.000556 290.60172 980.970209 285.815393 
C 989.939862 281.029066 998.042053 274.769734 1004.937979 267.299138 
L 971.585595 236.512359 
C 968.137631 240.247657 964.086536 243.377323 959.60171 245.770487 
C 955.116883 248.16365 950.261721 249.786483 945.239248 250.571123 
C 940.216774 251.355764 935.097985 251.291122 930.096928 250.379899 
C 925.095871 249.468677 920.283238 247.723755 915.860276 245.2181 
C 911.437314 242.712445 907.466544 239.481475 904.114007 235.660297 
C 900.761471 231.83912 898.074558 227.481749 896.165626 222.770393 
C 894.256693 218.059036 893.152725 213.060293 892.899884 207.98319 
C 892.647043 202.906088 893.248904 197.822394 894.680299 192.944688 
C 896.111694 188.066983 898.35239 183.464216 901.308689 179.328857 
C 904.264988 175.193498 907.895102 171.584002 912.047232 168.651305 
C 916.199363 165.718609 920.814818 163.504166 925.700597 162.100577 
C 930.586377 160.696988 935.673416 160.124093 940.748997 160.405848 
C 945.824577 160.687603 950.816951 161.820026 955.517358 163.755763 
C 960.217765 165.6915 964.55976 168.403188 968.361781 171.777435 
C 972.163801 175.151682 975.372101 179.140791 977.852523 183.577954 
C 980.332945 188.015116 982.050426 192.837609 982.933148 197.843775 
L 1027.633086 189.96197 
z
" style="fill: #092436; opacity: 0.5; stroke: #092436; stroke-width: 4; stroke-linejoin: miter"/>
   </g>
   <g id="patch_22">
    <path d="M 1012.291946 272.621493 
C 1014.733802 269.976145 1017.016136 267.187882 1019.126851 264.271479 
C 1021.237566 261.355076 1023.172927 258.315695 1024.922678 255.169444 
L 985.254928 233.108689 
C 984.380053 234.681815 983.412372 236.201505 982.357014 237.659707 
C 981.301657 239.117908 980.16049 240.51204 978.939562 241.834714 
L 1012.291946 272.621493 
z
" style="fill: #4c2604; opacity: 0.5; stroke: #4c2604; stroke-width: 4; stroke-linejoin: miter"/>
   </g>
   <g id="patch_23">
    <path d="M 1025.959946 253.310535 
C 1027.667902 250.239436 1029.196093 247.071753 1030.536803 243.823483 
C 1031.877512 240.575212 1033.028479 237.251832 1033.983891 233.870124 
L 990.304168 221.529575 
C 989.826462 223.220429 989.250979 224.882119 988.580624 226.506254 
C 987.91027 228.13039 987.146174 229.714231 986.292196 231.249781 
L 1025.959946 253.310535 
z
" style="fill: #0d300d; opacity: 0.5; stroke: #0d300d; stroke-width: 4; stroke-linejoin: miter"/>
   </g>
   <g id="patch_24">
    <path d="M 1034.553409 231.860359 
C 1035.495833 228.524623 1036.246426 225.137645 1036.801499 221.716069 
C 1037.356573 218.294492 1037.715217 214.843929 1037.87567 211.381336 
L 992.534817 209.280299 
C 992.454591 211.011595 992.275269 212.736876 991.997732 214.447665 
C 991.720195 216.158453 991.344898 217.851942 990.873686 219.51981 
L 1034.553409 231.860359 
z
" style="fill: #400c0c; opacity: 0.5; stroke: #400c0c; stroke-width: 4; stroke-linejoin: miter"/>
   </g>
   <g id="patch_25">
    <path d="M 1037.974166 209.346034 
C 1038.128869 206.00751 1038.099088 202.662989 1037.884959 199.327749 
C 1037.670831 195.992509 1037.272681 192.671637 1036.692328 189.380305 
L 991.992394 197.262132 
C 992.28257 198.907798 992.481645 200.568234 992.58871 202.235854 
C 992.695774 203.903474 992.710665 205.575735 992.633313 207.244997 
L 1037.974166 209.346034 
z
" style="fill: #2c1f39; opacity: 0.5; stroke: #2c1f39; stroke-width: 4; stroke-linejoin: miter"/>
   </g>
   <g id="patch_26">
    <path d="M 1029.448666 188.14639 
C 1027.683222 178.134057 1024.24826 168.489071 1019.287416 159.614746 
C 1014.326572 150.740422 1007.909971 142.762204 1000.305931 136.01371 
C 992.701891 129.265216 984.017899 123.84184 974.617085 119.970366 
C 965.216272 116.098892 955.231524 113.834046 945.080363 113.270536 
C 934.929203 112.707025 924.755123 113.852815 914.983565 116.659993 
C 905.212006 119.467172 895.981096 123.896057 887.676835 129.76145 
C 879.372573 135.626844 872.112346 142.845835 866.199748 151.116553 
C 860.287149 159.387271 855.805758 168.592805 852.942968 178.348216 
C 850.080177 188.103627 848.876456 198.271015 849.382137 208.42522 
C 849.887819 218.579426 852.095756 228.576912 855.913621 237.999625 
C 859.731487 247.422337 865.105312 256.137079 871.810385 263.779434 
C 878.515458 271.42179 886.456998 277.883729 895.302923 282.89504 
C 904.148847 287.90635 913.774111 291.396193 923.776226 293.218638 
C 933.778341 295.041083 944.015919 295.170368 954.060866 293.601086 
C 964.105813 292.031805 973.816136 288.78614 982.785789 283.999813 
C 991.755442 279.213486 999.857633 272.954154 1006.753559 265.483558 
L 973.401175 234.696779 
C 969.953212 238.432077 965.902117 241.561743 961.41729 243.954906 
C 956.932463 246.34807 952.077302 247.970902 947.054828 248.755543 
C 942.032355 249.540184 936.913566 249.475541 931.912508 248.564319 
C 926.911451 247.653097 922.098819 245.908175 917.675857 243.40252 
C 913.252895 240.896865 909.282124 237.665895 905.929588 233.844717 
C 902.577051 230.023539 899.890139 225.666169 897.981206 220.954812 
C 896.072273 216.243456 894.968305 211.244713 894.715464 206.16761 
C 894.462623 201.090507 895.064484 196.006813 896.495879 191.129108 
C 897.927274 186.251403 900.16797 181.648636 903.124269 177.513276 
C 906.080568 173.377917 909.710682 169.768422 913.862813 166.835725 
C 918.014944 163.903028 922.630398 161.688586 927.516178 160.284997 
C 932.401957 158.881408 937.488997 158.308513 942.564577 158.590268 
C 947.640157 158.872023 952.632531 160.004446 957.332938 161.940183 
C 962.033345 163.87592 966.375341 166.587608 970.177361 169.961855 
C 973.979381 173.336102 977.187681 177.325211 979.668103 181.762373 
C 982.148525 186.199535 983.866006 191.022028 984.748728 196.028195 
L 1029.448666 188.14639 
z
" style="fill: #1f77b4; stroke: #ffffff; stroke-width: 4; stroke-linejoin: miter"/>
   </g>
   <g id="patch_27">
    <path d="M 1014.107527 270.805912 
C 1016.549383 268.160565 1018.831716 265.372301 1020.942431 262.455899 
C 1023.053146 259.539496 1024.988508 256.500115 1026.738258 253.353864 
L 987.070508 231.293109 
C 986.195633 232.866235 985.227952 234.385925 984.172595 235.844126 
C 983.117237 237.302328 981.97607 238.69646 980.755142 240.019133 
L 1014.107527 270.805912 
z
" style="fill: #ff7f0e; stroke: #ffffff; stroke-width: 4; stroke-linejoin: miter"/>
   </g>
   <g id="patch_28">
    <path d="M 1027.775527 251.494955 
C 1029.483482 248.423856 1031.011674 245.256173 1032.352383 242.007903 
C 1033.693092 238.759632 1034.844059 235.436251 1035.799471 232.054543 
L 992.119749 219.713995 
C 991.642043 221.404849 991.066559 223.066539 990.396205 224.690674 
C 989.72585 226.314809 988.961754 227.898651 988.107776 229.4342 
L 1027.775527 251.494955 
z
" style="fill: #2ca02c; stroke: #ffffff; stroke-width: 4; stroke-linejoin: miter"/>
   </g>
   <g id="patch_29">
    <path d="M 1036.368989 230.044778 
C 1037.311413 226.709043 1038.062006 223.322065 1038.61708 219.900488 
C 1039.172154 216.478911 1039.530798 213.028349 1039.69125 209.565756 
L 994.350397 207.464718 
C 994.270171 209.196015 994.090849 210.921296 993.813312 212.632085 
C 993.535775 214.342873 993.160478 216.036362 992.689267 217.70423 
L 1036.368989 230.044778 
z
" style="fill: #d62728; stroke: #ffffff; stroke-width: 4; stroke-linejoin: miter"/>
   </g>
   <g id="patch_30">
    <path d="M 1039.789746 207.530454 
C 1039.944449 204.19193 1039.914668 200.847408 1039.70054 197.512169 
C 1039.486411 194.176929 1039.088261 190.856057 1038.507909 187.564725 
L 993.807975 195.446552 
C 994.098151 197.092218 994.297226 198.752654 994.40429 200.420274 
C 994.511354 202.087894 994.526245 203.760154 994.448893 205.429417 
L 1039.789746 207.530454 
z
" style="fill: #9467bd; stroke: #ffffff; stroke-width: 4; stroke-linejoin: miter"/>
   </g>
   <g id="matplotlib.axis_3"/>
   <g id="matplotlib.axis_4"/>
   <g id="text_19">
    <!-- Languages -->
    <g style="fill: #2a475e" transform="translate(909.470666 206.59125)scale(0.1 -0.1)">
     <use xlink:href="#DejaVuSans-Bold-4c"/>
     <use xlink:href="#DejaVuSans-Bold-61" x="63.720703"/>
     <use xlink:href="#DejaVuSans-Bold-6e" x="131.201172"/>
     <use xlink:href="#DejaVuSans-Bold-67" x="202.392578"/>
     <use xlink:href="#DejaVuSans-Bold-75" x="273.974609"/>
     <use xlink:href="#DejaVuSans-Bold-61" x="345.166016"/>
     <use xlink:href="#DejaVuSans-Bold-67" x="412.646484"/>
     <use xlink:href="#DejaVuSans-Bold-65" x="484.228516"/>
     <use xlink:href="#DejaVuSans-Bold-73" x="552.050781"/>
    </g>
   </g>
   <g id="text_20">
    <!-- Languages exploited : -->
    <g style="fill: #2a475e" transform="translate(865.075978 84.436234)scale(0.12 -0.12)">
     <defs>
      <path id="DejaVuSans-Bold-78" d="M 1422 1791 
L 159 3500 
L 1344 3500 
L 2059 2463 
L 2784 3500 
L 3969 3500 
L 2706 1797 
L 4031 0 
L 2847 0 
L 2059 1106 
L 1281 0 
L 97 0 
L 1422 1791 
z
" transform="scale(0.015625)"/>
      <path id="DejaVuSans-Bold-70" d="M 1656 506 
L 1656 -1331 
L 538 -1331 
L 538 3500 
L 1656 3500 
L 1656 2988 
Q 1888 3294 2169 3439 
Q 2450 3584 2816 3584 
Q 3463 3584 3878 3070 
Q 4294 2556 4294 1747 
Q 4294 938 3878 423 
Q 3463 -91 2816 -91 
Q 2450 -91 2169 54 
Q 1888 200 1656 506 
z
M 2400 2772 
Q 2041 2772 1848 2508 
Q 1656 2244 1656 1747 
Q 1656 1250 1848 986 
Q 2041 722 2400 722 
Q 2759 722 2948 984 
Q 3138 1247 3138 1747 
Q 3138 2247 2948 2509 
Q 2759 2772 2400 2772 
z
" transform="scale(0.015625)"/>
     </defs>
     <use xlink:href="#DejaVuSans-Bold-4c"/>
     <use xlink:href="#DejaVuSans-Bold-61" x="63.720703"/>
     <use xlink:href="#DejaVuSans-Bold-6e" x="131.201172"/>
     <use xlink:href="#DejaVuSans-Bold-67" x="202.392578"/>
     <use xlink:href="#DejaVuSans-Bold-75" x="273.974609"/>
     <use xlink:href="#DejaVuSans-Bold-61" x="345.166016"/>
     <use xlink:href="#DejaVuSans-Bold-67" x="412.646484"/>
     <use xlink:href="#DejaVuSans-Bold-65" x="484.228516"/>
     <use xlink:href="#DejaVuSans-Bold-73" x="552.050781"/>
     <use xlink:href="#DejaVuSans-Bold-20" x="611.572266"/>
     <use xlink:href="#DejaVuSans-Bold-65" x="646.386719"/>
     <use xlink:href="#DejaVuSans-Bold-78" x="714.208984"/>
     <use xlink:href="#DejaVuSans-Bold-70" x="778.710938"/>
     <use xlink:href="#DejaVuSans-Bold-6c" x="850.292969"/>
     <use xlink:href="#DejaVuSans-Bold-6f" x="884.570312"/>
     <use xlink:href="#DejaVuSans-Bold-69" x="953.271484"/>
     <use xlink:href="#DejaVuSans-Bold-74" x="987.548828"/>
     <use xlink:href="#DejaVuSans-Bold-65" x="1035.351562"/>
     <use xlink:href="#DejaVuSans-Bold-64" x="1103.173828"/>
     <use xlink:href="#DejaVuSans-Bold-20" x="1174.755859"/>
     <use xlink:href="#DejaVuSans-Bold-3a" x="1209.570312"/>
    </g>
   </g>
  </g>
  <g id="text_21">
   <!-- From 09 June, 2023 to 09 July, 2023: 62 hrs 50 mins -->
   <g transform="translate(141.787031 29.995312)scale(0.3 -0.3)">
    <defs>
     <path id="DejaVuSans-Bold-46" d="M 588 4666 
L 3834 4666 
L 3834 3756 
L 1791 3756 
L 1791 2888 
L 3713 2888 
L 3713 1978 
L 1791 1978 
L 1791 0 
L 588 0 
L 588 4666 
z
" transform="scale(0.015625)"/>
     <path id="DejaVuSans-Bold-39" d="M 641 103 
L 641 966 
Q 928 831 1190 764 
Q 1453 697 1709 697 
Q 2247 697 2547 995 
Q 2847 1294 2900 1881 
Q 2688 1725 2447 1647 
Q 2206 1569 1925 1569 
Q 1209 1569 770 1986 
Q 331 2403 331 3084 
Q 331 3838 820 4291 
Q 1309 4744 2131 4744 
Q 3044 4744 3544 4128 
Q 4044 3513 4044 2388 
Q 4044 1231 3459 570 
Q 2875 -91 1856 -91 
Q 1528 -91 1228 -42 
Q 928 6 641 103 
z
M 2125 2350 
Q 2441 2350 2600 2554 
Q 2759 2759 2759 3169 
Q 2759 3575 2600 3781 
Q 2441 3988 2125 3988 
Q 1809 3988 1650 3781 
Q 1491 3575 1491 3169 
Q 1491 2759 1650 2554 
Q 1809 2350 2125 2350 
z
" transform="scale(0.015625)"/>
     <path id="DejaVuSans-Bold-4a" d="M 588 4666 
L 1791 4666 
L 1791 453 
Q 1791 -419 1317 -850 
Q 844 -1281 -116 -1281 
L -359 -1281 
L -359 -372 
L -172 -372 
Q 203 -372 395 -162 
Q 588 47 588 453 
L 588 4666 
z
" transform="scale(0.015625)"/>
     <path id="DejaVuSans-Bold-2c" d="M 653 1209 
L 1778 1209 
L 1778 256 
L 1006 -909 
L 341 -909 
L 653 256 
L 653 1209 
z
" transform="scale(0.015625)"/>
    </defs>
    <use xlink:href="#DejaVuSans-Bold-46"/>
    <use xlink:href="#DejaVuSans-Bold-72" x="61.935547"/>
    <use xlink:href="#DejaVuSans-Bold-6f" x="111.251953"/>
    <use xlink:href="#DejaVuSans-Bold-6d" x="179.953125"/>
    <use xlink:href="#DejaVuSans-Bold-20" x="284.152344"/>
    <use xlink:href="#DejaVuSans-Bold-30" x="318.966797"/>
    <use xlink:href="#DejaVuSans-Bold-39" x="388.546875"/>
    <use xlink:href="#DejaVuSans-Bold-20" x="458.126953"/>
    <use xlink:href="#DejaVuSans-Bold-4a" x="492.941406"/>
    <use xlink:href="#DejaVuSans-Bold-75" x="530.148438"/>
    <use xlink:href="#DejaVuSans-Bold-6e" x="601.339844"/>
    <use xlink:href="#DejaVuSans-Bold-65" x="672.53125"/>
    <use xlink:href="#DejaVuSans-Bold-2c" x="740.353516"/>
    <use xlink:href="#DejaVuSans-Bold-20" x="778.341797"/>
    <use xlink:href="#DejaVuSans-Bold-32" x="813.15625"/>
    <use xlink:href="#DejaVuSans-Bold-30" x="882.736328"/>
    <use xlink:href="#DejaVuSans-Bold-32" x="952.316406"/>
    <use xlink:href="#DejaVuSans-Bold-33" x="1021.896484"/>
    <use xlink:href="#DejaVuSans-Bold-20" x="1091.476562"/>
    <use xlink:href="#DejaVuSans-Bold-74" x="1126.291016"/>
    <use xlink:href="#DejaVuSans-Bold-6f" x="1174.09375"/>
    <use xlink:href="#DejaVuSans-Bold-20" x="1242.794922"/>
    <use xlink:href="#DejaVuSans-Bold-30" x="1277.609375"/>
    <use xlink:href="#DejaVuSans-Bold-39" x="1347.189453"/>
    <use xlink:href="#DejaVuSans-Bold-20" x="1416.769531"/>
    <use xlink:href="#DejaVuSans-Bold-4a" x="1451.583984"/>
    <use xlink:href="#DejaVuSans-Bold-75" x="1488.791016"/>
    <use xlink:href="#DejaVuSans-Bold-6c" x="1559.982422"/>
    <use xlink:href="#DejaVuSans-Bold-79" x="1594.259766"/>
    <use xlink:href="#DejaVuSans-Bold-2c" x="1651.695312"/>
    <use xlink:href="#DejaVuSans-Bold-20" x="1689.683594"/>
    <use xlink:href="#DejaVuSans-Bold-32" x="1724.498047"/>
    <use xlink:href="#DejaVuSans-Bold-30" x="1794.078125"/>
    <use xlink:href="#DejaVuSans-Bold-32" x="1863.658203"/>
    <use xlink:href="#DejaVuSans-Bold-33" x="1933.238281"/>
    <use xlink:href="#DejaVuSans-Bold-3a" x="2002.818359"/>
    <use xlink:href="#DejaVuSans-Bold-20" x="2042.808594"/>
    <use xlink:href="#DejaVuSans-Bold-36" x="2077.623047"/>
    <use xlink:href="#DejaVuSans-Bold-32" x="2147.203125"/>
    <use xlink:href="#DejaVuSans-Bold-20" x="2216.783203"/>
    <use xlink:href="#DejaVuSans-Bold-68" x="2251.597656"/>
    <use xlink:href="#DejaVuSans-Bold-72" x="2322.789062"/>
    <use xlink:href="#DejaVuSans-Bold-73" x="2372.105469"/>
    <use xlink:href="#DejaVuSans-Bold-20" x="2431.626953"/>
    <use xlink:href="#DejaVuSans-Bold-35" x="2466.441406"/>
    <use xlink:href="#DejaVuSans-Bold-30" x="2536.021484"/>
    <use xlink:href="#DejaVuSans-Bold-20" x="2605.601562"/>
    <use xlink:href="#DejaVuSans-Bold-6d" x="2640.416016"/>
    <use xlink:href="#DejaVuSans-Bold-69" x="2744.615234"/>
    <use xlink:href="#DejaVuSans-Bold-6e" x="2778.892578"/>
    <use xlink:href="#DejaVuSans-Bold-73" x="2850.083984"/>
   </g>
  </g>
 </g>
 <defs>
  <clipPath id="p0308e0c62e">
   <rect x="205.734375" y="56.32" width="453.895065" height="295.18"/>
  </clipPath>
 </defs>
</svg>
