<?xml version="1.0" encoding="utf-8" standalone="no"?>
<!DOCTYPE svg PUBLIC "-//W3C//DTD SVG 1.1//EN"
  "http://www.w3.org/Graphics/SVG/1.1/DTD/svg11.dtd">
<svg xmlns:xlink="http://www.w3.org/1999/xlink" width="1153.617157pt" height="362.2pt" viewBox="0 0 1153.617157 362.2" xmlns="http://www.w3.org/2000/svg" version="1.1">
 <metadata>
  <rdf:RDF xmlns:dc="http://purl.org/dc/elements/1.1/" xmlns:cc="http://creativecommons.org/ns#" xmlns:rdf="http://www.w3.org/1999/02/22-rdf-syntax-ns#">
   <cc:Work>
    <dc:type rdf:resource="http://purl.org/dc/dcmitype/StillImage"/>
    <dc:date>2026-09-24T12:56:48.602498</dc:date>
    <dc:format>image/svg+xml</dc:format>
    <dc:creator>
     <cc:Agent>
      <dc:title>Matplotlib v3.9.1.post1, https://matplotlib.org/</dc:title>
     </cc:Agent>
    </dc:creator>
   </cc:Work>
  </rdf:RDF>
 </metadata>
 <defs>
  <style type="text/css">*{stroke-linejoin: round; stroke-linecap: butt}</style>
 </defs>
 <g id="figure_1">
  <g id="patch_1">
   <path d="M 0 362.2 
L 1153.617157 362.2 
L 1153.617157 0 
L 0 0 
L 0 362.2 
z
" style="fill: none"/>
  </g>
  <g id="axes_1">
   <g id="patch_2">
    <path d="M 305.5875 355 
L 701.942561 355 
L 701.942561 56.32 
L 305.5875 56.32 
L 305.5875 355 
z
" style="fill: none"/>
   </g>
   <g id="patch_3">
    <path d="M 305.5875 69.896364 
L 683.068511 69.896364 
L 683.068511 94.580661 
L 305.5875 94.580661 
z
" clip-path="url(#pfb86baa44c)" style="fill: #139fdc; stroke: #139fdc; stroke-linejoin: miter"/>
   </g>
   <g id="patch_4">
    <path d="M 305.5875 119.264959 
L 359.521173 119.264959 
L 359.521173 143.949256 
L 305.5875 143.949256 
z
" clip-path="url(#pfb86baa44c)" style="fill: #2d4a92; stroke: #2d4a92; stroke-linejoin: miter"/>
   </g>
   <g id="patch_5">
    <path d="M 305.5875 168.633554 
L 335.070512 168.633554 
L 335.070512 193.317851 
L 305.5875 193.317851 
z
" clip-path="url(#pfb86baa44c)" style="fill: #01f7c8; stroke: #01f7c8; stroke-linejoin: miter"/>
   </g>
   <g id="patch_6">
    <path d="M 305.5875 218.002149 
L 320.95805 218.002149 
L 320.95805 242.686446 
L 305.5875 242.686446 
z
" clip-path="url(#pfb86baa44c)" style="fill: #c86c4a; stroke: #c86c4a; stroke-linejoin: miter"/>
   </g>
   <g id="patch_7">
    <path d="M 305.5875 267.370744 
L 316.636792 267.370744 
L 316.636792 292.055041 
L 305.5875 292.055041 
z
" clip-path="url(#pfb86baa44c)" style="fill: #08bc38; stroke: #08bc38; stroke-linejoin: miter"/>
   </g>
   <g id="patch_8">
    <path d="M 305.5875 316.739339 
L 315.433404 316.739339 
L 315.433404 341.423636 
L 305.5875 341.423636 
z
" clip-path="url(#pfb86baa44c)" style="fill: #ea2703; stroke: #ea2703; stroke-linejoin: miter"/>
   </g>
   <g id="matplotlib.axis_1"/>
   <g id="matplotlib.axis_2">
    <g id="ytick_1">
     <g id="line2d_1">
      <defs>
       <path id="m96cc682cac" d="M 0 0 
L -3.5 0 
" style="stroke: #000000; stroke-width: 0.8"/>
      </defs>
      <g>
       <use xlink:href="#m96cc682cac" x="305.5875" y="82.238512" style="stroke: #000000; stroke-width: 0.8"/>
      </g>
     </g>
     <g id="text_1">
      <!-- Fold_Switching -->
      <g style="fill: #586069" transform="translate(130.0125 89.83695) scale(0.2 -0.2)">
       <defs>
        <path id="DejaVuSans-Bold-46" d="M 588 4666 
L 3834 4666 
L 3834 3756 
L 1791 3756 
L 1791 2888 
L 3713 2888 
L 3713 1978 
L 1791 1978 
L 1791 0 
L 588 0 
L 588 4666 
z
" transform="scale(0.015625)"/>
        <path id="DejaVuSans-Bold-6f" d="M 2203 2784 
Q 1831 2784 1636 2517 
Q 1441 2250 1441 1747 
Q 1441 1244 1636 976 
Q 1831 709 2203 709 
Q 2569 709 2762 976 
Q 2956 1244 2956 1747 
Q 2956 2250 2762 2517 
Q 2569 2784 2203 2784 
z
M 2203 3584 
Q 3106 3584 3614 3096 
Q 4122 2609 4122 1747 
Q 4122 884 3614 396 
Q 3106 -91 2203 -91 
Q 1297 -91 786 396 
Q 275 884 275 1747 
Q 275 2609 786 3096 
Q 1297 3584 2203 3584 
z
" transform="scale(0.015625)"/>
        <path id="DejaVuSans-Bold-6c" d="M 538 4863 
L 1656 4863 
L 1656 0 
L 538 0 
L 538 4863 
z
" transform="scale(0.015625)"/>
        <path id="DejaVuSans-Bold-64" d="M 2919 2988 
L 2919 4863 
L 4044 4863 
L 4044 0 
L 2919 0 
L 2919 506 
Q 2688 197 2409 53 
Q 2131 -91 1766 -91 
Q 1119 -91 703 423 
Q 288 938 288 1747 
Q 288 2556 703 3070 
Q 1119 3584 1766 3584 
Q 2128 3584 2408 3439 
Q 2688 3294 2919 2988 
z
M 2181 722 
Q 2541 722 2730 984 
Q 2919 1247 2919 1747 
Q 2919 2247 2730 2509 
Q 2541 2772 2181 2772 
Q 1825 2772 1636 2509 
Q 1447 2247 1447 1747 
Q 1447 1247 1636 984 
Q 1825 722 2181 722 
z
" transform="scale(0.015625)"/>
        <path id="DejaVuSans-Bold-5f" d="M 3200 -916 
L 3200 -1509 
L 0 -1509 
L 0 -916 
L 3200 -916 
z
" transform="scale(0.015625)"/>
        <path id="DejaVuSans-Bold-53" d="M 3834 4519 
L 3834 3531 
Q 3450 3703 3084 3790 
Q 2719 3878 2394 3878 
Q 1963 3878 1756 3759 
Q 1550 3641 1550 3391 
Q 1550 3203 1689 3098 
Q 1828 2994 2194 2919 
L 2706 2816 
Q 3484 2659 3812 2340 
Q 4141 2022 4141 1434 
Q 4141 663 3683 286 
Q 3225 -91 2284 -91 
Q 1841 -91 1394 -6 
Q 947 78 500 244 
L 500 1259 
Q 947 1022 1364 901 
Q 1781 781 2169 781 
Q 2563 781 2772 912 
Q 2981 1044 2981 1288 
Q 2981 1506 2839 1625 
Q 2697 1744 2272 1838 
L 1806 1941 
Q 1106 2091 782 2419 
Q 459 2747 459 3303 
Q 459 4000 909 4375 
Q 1359 4750 2203 4750 
Q 2588 4750 2994 4692 
Q 3400 4634 3834 4519 
z
" transform="scale(0.015625)"/>
        <path id="DejaVuSans-Bold-77" d="M 225 3500 
L 1313 3500 
L 1900 1088 
L 2491 3500 
L 3425 3500 
L 4013 1113 
L 4603 3500 
L 5691 3500 
L 4769 0 
L 3547 0 
L 2956 2406 
L 2369 0 
L 1147 0 
L 225 3500 
z
" transform="scale(0.015625)"/>
        <path id="DejaVuSans-Bold-69" d="M 538 3500 
L 1656 3500 
L 1656 0 
L 538 0 
L 538 3500 
z
M 538 4863 
L 1656 4863 
L 1656 3950 
L 538 3950 
L 538 4863 
z
" transform="scale(0.015625)"/>
        <path id="DejaVuSans-Bold-74" d="M 1759 4494 
L 1759 3500 
L 2913 3500 
L 2913 2700 
L 1759 2700 
L 1759 1216 
Q 1759 972 1856 886 
Q 1953 800 2241 800 
L 2816 800 
L 2816 0 
L 1856 0 
Q 1194 0 917 276 
Q 641 553 641 1216 
L 641 2700 
L 84 2700 
L 84 3500 
L 641 3500 
L 641 4494 
L 1759 4494 
z
" transform="scale(0.015625)"/>
        <path id="DejaVuSans-Bold-63" d="M 3366 3391 
L 3366 2478 
Q 3138 2634 2908 2709 
Q 2678 2784 2431 2784 
Q 1963 2784 1702 2511 
Q 1441 2238 1441 1747 
Q 1441 1256 1702 982 
Q 1963 709 2431 709 
Q 2694 709 2930 787 
Q 3166 866 3366 1019 
L 3366 103 
Q 3103 6 2833 -42 
Q 2563 -91 2291 -91 
Q 1344 -91 809 395 
Q 275 881 275 1747 
Q 275 2613 809 3098 
Q 1344 3584 2291 3584 
Q 2566 3584 2833 3536 
Q 3100 3488 3366 3391 
z
" transform="scale(0.015625)"/>
        <path id="DejaVuSans-Bold-68" d="M 4056 2131 
L 4056 0 
L 2931 0 
L 2931 347 
L 2931 1625 
Q 2931 2084 2911 2256 
Q 2891 2428 2841 2509 
Q 2775 2619 2662 2680 
Q 2550 2741 2406 2741 
Q 2056 2741 1856 2470 
Q 1656 2200 1656 1722 
L 1656 0 
L 538 0 
L 538 4863 
L 1656 4863 
L 1656 2988 
Q 1909 3294 2193 3439 
Q 2478 3584 2822 3584 
Q 3428 3584 3742 3212 
Q 4056 2841 4056 2131 
z
" transform="scale(0.015625)"/>
        <path id="DejaVuSans-Bold-6e" d="M 4056 2131 
L 4056 0 
L 2931 0 
L 2931 347 
L 2931 1631 
Q 2931 2084 2911 2256 
Q 2891 2428 2841 2509 
Q 2775 2619 2662 2680 
Q 2550 2741 2406 2741 
Q 2056 2741 1856 2470 
Q 1656 2200 1656 1722 
L 1656 0 
L 538 0 
L 538 3500 
L 1656 3500 
L 1656 2988 
Q 1909 3294 2193 3439 
Q 2478 3584 2822 3584 
Q 3428 3584 3742 3212 
Q 4056 2841 4056 2131 
z
" transform="scale(0.015625)"/>
        <path id="DejaVuSans-Bold-67" d="M 2919 594 
Q 2688 288 2409 144 
Q 2131 0 1766 0 
Q 1125 0 706 504 
Q 288 1009 288 1791 
Q 288 2575 706 3076 
Q 1125 3578 1766 3578 
Q 2131 3578 2409 3434 
Q 2688 3291 2919 2981 
L 2919 3500 
L 4044 3500 
L 4044 353 
Q 4044 -491 3511 -936 
Q 2978 -1381 1966 -1381 
Q 1638 -1381 1331 -1331 
Q 1025 -1281 716 -1178 
L 716 -306 
Q 1009 -475 1290 -558 
Q 1572 -641 1856 -641 
Q 2406 -641 2662 -400 
Q 2919 -159 2919 353 
L 2919 594 
z
M 2181 2772 
Q 1834 2772 1640 2515 
Q 1447 2259 1447 1791 
Q 1447 1309 1634 1061 
Q 1822 813 2181 813 
Q 2531 813 2725 1069 
Q 2919 1325 2919 1791 
Q 2919 2259 2725 2515 
Q 2531 2772 2181 2772 
z
" transform="scale(0.015625)"/>
       </defs>
       <use xlink:href="#DejaVuSans-Bold-46"/>
       <use xlink:href="#DejaVuSans-Bold-6f" x="64.310547"/>
       <use xlink:href="#DejaVuSans-Bold-6c" x="133.011719"/>
       <use xlink:href="#DejaVuSans-Bold-64" x="167.289062"/>
       <use xlink:href="#DejaVuSans-Bold-5f" x="238.871094"/>
       <use xlink:href="#DejaVuSans-Bold-53" x="288.871094"/>
       <use xlink:href="#DejaVuSans-Bold-77" x="360.892578"/>
       <use xlink:href="#DejaVuSans-Bold-69" x="453.275391"/>
       <use xlink:href="#DejaVuSans-Bold-74" x="487.552734"/>
       <use xlink:href="#DejaVuSans-Bold-63" x="535.355469"/>
       <use xlink:href="#DejaVuSans-Bold-68" x="594.632812"/>
       <use xlink:href="#DejaVuSans-Bold-69" x="665.824219"/>
       <use xlink:href="#DejaVuSans-Bold-6e" x="700.101562"/>
       <use xlink:href="#DejaVuSans-Bold-67" x="771.292969"/>
      </g>
     </g>
    </g>
    <g id="ytick_2">
     <g id="line2d_2">
      <g>
       <use xlink:href="#m96cc682cac" x="305.5875" y="131.607107" style="stroke: #000000; stroke-width: 0.8"/>
      </g>
     </g>
     <g id="text_2">
      <!-- PathGennie_manuscript_2 -->
      <g style="fill: #586069" transform="translate(7.2 139.205545) scale(0.2 -0.2)">
       <defs>
        <path id="DejaVuSans-Bold-50" d="M 588 4666 
L 2584 4666 
Q 3475 4666 3951 4270 
Q 4428 3875 4428 3144 
Q 4428 2409 3951 2014 
Q 3475 1619 2584 1619 
L 1791 1619 
L 1791 0 
L 588 0 
L 588 4666 
z
M 1791 3794 
L 1791 2491 
L 2456 2491 
Q 2806 2491 2997 2661 
Q 3188 2831 3188 3144 
Q 3188 3456 2997 3625 
Q 2806 3794 2456 3794 
L 1791 3794 
z
" transform="scale(0.015625)"/>
        <path id="DejaVuSans-Bold-61" d="M 2106 1575 
Q 1756 1575 1579 1456 
Q 1403 1338 1403 1106 
Q 1403 894 1545 773 
Q 1688 653 1941 653 
Q 2256 653 2472 879 
Q 2688 1106 2688 1447 
L 2688 1575 
L 2106 1575 
z
M 3816 1997 
L 3816 0 
L 2688 0 
L 2688 519 
Q 2463 200 2181 54 
Q 1900 -91 1497 -91 
Q 953 -91 614 226 
Q 275 544 275 1050 
Q 275 1666 698 1953 
Q 1122 2241 2028 2241 
L 2688 2241 
L 2688 2328 
Q 2688 2594 2478 2717 
Q 2269 2841 1825 2841 
Q 1466 2841 1156 2769 
Q 847 2697 581 2553 
L 581 3406 
Q 941 3494 1303 3539 
Q 1666 3584 2028 3584 
Q 2975 3584 3395 3211 
Q 3816 2838 3816 1997 
z
" transform="scale(0.015625)"/>
        <path id="DejaVuSans-Bold-47" d="M 4781 347 
Q 4331 128 3847 18 
Q 3363 -91 2847 -91 
Q 1681 -91 1000 561 
Q 319 1213 319 2328 
Q 319 3456 1012 4103 
Q 1706 4750 2913 4750 
Q 3378 4750 3804 4662 
Q 4231 4575 4609 4403 
L 4609 3438 
Q 4219 3659 3833 3768 
Q 3447 3878 3059 3878 
Q 2341 3878 1952 3476 
Q 1563 3075 1563 2328 
Q 1563 1588 1938 1184 
Q 2313 781 3003 781 
Q 3191 781 3352 804 
Q 3513 828 3641 878 
L 3641 1784 
L 2906 1784 
L 2906 2591 
L 4781 2591 
L 4781 347 
z
" transform="scale(0.015625)"/>
        <path id="DejaVuSans-Bold-65" d="M 4031 1759 
L 4031 1441 
L 1416 1441 
Q 1456 1047 1700 850 
Q 1944 653 2381 653 
Q 2734 653 3104 758 
Q 3475 863 3866 1075 
L 3866 213 
Q 3469 63 3072 -14 
Q 2675 -91 2278 -91 
Q 1328 -91 801 392 
Q 275 875 275 1747 
Q 275 2603 792 3093 
Q 1309 3584 2216 3584 
Q 3041 3584 3536 3087 
Q 4031 2591 4031 1759 
z
M 2881 2131 
Q 2881 2450 2695 2645 
Q 2509 2841 2209 2841 
Q 1884 2841 1681 2658 
Q 1478 2475 1428 2131 
L 2881 2131 
z
" transform="scale(0.015625)"/>
        <path id="DejaVuSans-Bold-6d" d="M 3781 2919 
Q 3994 3244 4286 3414 
Q 4578 3584 4928 3584 
Q 5531 3584 5847 3212 
Q 6163 2841 6163 2131 
L 6163 0 
L 5038 0 
L 5038 1825 
Q 5041 1866 5042 1909 
Q 5044 1953 5044 2034 
Q 5044 2406 4934 2573 
Q 4825 2741 4581 2741 
Q 4263 2741 4089 2478 
Q 3916 2216 3909 1719 
L 3909 0 
L 2784 0 
L 2784 1825 
Q 2784 2406 2684 2573 
Q 2584 2741 2328 2741 
Q 2006 2741 1831 2477 
Q 1656 2213 1656 1722 
L 1656 0 
L 531 0 
L 531 3500 
L 1656 3500 
L 1656 2988 
Q 1863 3284 2130 3434 
Q 2397 3584 2719 3584 
Q 3081 3584 3359 3409 
Q 3638 3234 3781 2919 
z
" transform="scale(0.015625)"/>
        <path id="DejaVuSans-Bold-75" d="M 500 1363 
L 500 3500 
L 1625 3500 
L 1625 3150 
Q 1625 2866 1622 2436 
Q 1619 2006 1619 1863 
Q 1619 1441 1641 1255 
Q 1663 1069 1716 984 
Q 1784 875 1895 815 
Q 2006 756 2150 756 
Q 2500 756 2700 1025 
Q 2900 1294 2900 1772 
L 2900 3500 
L 4019 3500 
L 4019 0 
L 2900 0 
L 2900 506 
Q 2647 200 2364 54 
Q 2081 -91 1741 -91 
Q 1134 -91 817 281 
Q 500 653 500 1363 
z
" transform="scale(0.015625)"/>
        <path id="DejaVuSans-Bold-73" d="M 3272 3391 
L 3272 2541 
Q 2913 2691 2578 2766 
Q 2244 2841 1947 2841 
Q 1628 2841 1473 2761 
Q 1319 2681 1319 2516 
Q 1319 2381 1436 2309 
Q 1553 2238 1856 2203 
L 2053 2175 
Q 2913 2066 3209 1816 
Q 3506 1566 3506 1031 
Q 3506 472 3093 190 
Q 2681 -91 1863 -91 
Q 1516 -91 1145 -36 
Q 775 19 384 128 
L 384 978 
Q 719 816 1070 734 
Q 1422 653 1784 653 
Q 2113 653 2278 743 
Q 2444 834 2444 1013 
Q 2444 1163 2330 1236 
Q 2216 1309 1875 1350 
L 1678 1375 
Q 931 1469 631 1722 
Q 331 1975 331 2491 
Q 331 3047 712 3315 
Q 1094 3584 1881 3584 
Q 2191 3584 2531 3537 
Q 2872 3491 3272 3391 
z
" transform="scale(0.015625)"/>
        <path id="DejaVuSans-Bold-72" d="M 3138 2547 
Q 2991 2616 2845 2648 
Q 2700 2681 2553 2681 
Q 2122 2681 1889 2404 
Q 1656 2128 1656 1613 
L 1656 0 
L 538 0 
L 538 3500 
L 1656 3500 
L 1656 2925 
Q 1872 3269 2151 3426 
Q 2431 3584 2822 3584 
Q 2878 3584 2943 3579 
Q 3009 3575 3134 3559 
L 3138 2547 
z
" transform="scale(0.015625)"/>
        <path id="DejaVuSans-Bold-70" d="M 1656 506 
L 1656 -1331 
L 538 -1331 
L 538 3500 
L 1656 3500 
L 1656 2988 
Q 1888 3294 2169 3439 
Q 2450 3584 2816 3584 
Q 3463 3584 3878 3070 
Q 4294 2556 4294 1747 
Q 4294 938 3878 423 
Q 3463 -91 2816 -91 
Q 2450 -91 2169 54 
Q 1888 200 1656 506 
z
M 2400 2772 
Q 2041 2772 1848 2508 
Q 1656 2244 1656 1747 
Q 1656 1250 1848 986 
Q 2041 722 2400 722 
Q 2759 722 2948 984 
Q 3138 1247 3138 1747 
Q 3138 2247 2948 2509 
Q 2759 2772 2400 2772 
z
" transform="scale(0.015625)"/>
        <path id="DejaVuSans-Bold-32" d="M 1844 884 
L 3897 884 
L 3897 0 
L 506 0 
L 506 884 
L 2209 2388 
Q 2438 2594 2547 2791 
Q 2656 2988 2656 3200 
Q 2656 3528 2436 3728 
Q 2216 3928 1850 3928 
Q 1569 3928 1234 3808 
Q 900 3688 519 3450 
L 519 4475 
Q 925 4609 1322 4679 
Q 1719 4750 2100 4750 
Q 2938 4750 3402 4381 
Q 3866 4013 3866 3353 
Q 3866 2972 3669 2642 
Q 3472 2313 2841 1759 
L 1844 884 
z
" transform="scale(0.015625)"/>
       </defs>
       <use xlink:href="#DejaVuSans-Bold-50"/>
       <use xlink:href="#DejaVuSans-Bold-61" x="70.666016"/>
       <use xlink:href="#DejaVuSans-Bold-74" x="138.146484"/>
       <use xlink:href="#DejaVuSans-Bold-68" x="185.949219"/>
       <use xlink:href="#DejaVuSans-Bold-47" x="257.140625"/>
       <use xlink:href="#DejaVuSans-Bold-65" x="339.220703"/>
       <use xlink:href="#DejaVuSans-Bold-6e" x="407.042969"/>
       <use xlink:href="#DejaVuSans-Bold-6e" x="478.234375"/>
       <use xlink:href="#DejaVuSans-Bold-69" x="549.425781"/>
       <use xlink:href="#DejaVuSans-Bold-65" x="583.703125"/>
       <use xlink:href="#DejaVuSans-Bold-5f" x="651.525391"/>
       <use xlink:href="#DejaVuSans-Bold-6d" x="701.525391"/>
       <use xlink:href="#DejaVuSans-Bold-61" x="805.724609"/>
       <use xlink:href="#DejaVuSans-Bold-6e" x="873.205078"/>
       <use xlink:href="#DejaVuSans-Bold-75" x="944.396484"/>
       <use xlink:href="#DejaVuSans-Bold-73" x="1015.587891"/>
       <use xlink:href="#DejaVuSans-Bold-63" x="1075.109375"/>
       <use xlink:href="#DejaVuSans-Bold-72" x="1134.386719"/>
       <use xlink:href="#DejaVuSans-Bold-69" x="1183.703125"/>
       <use xlink:href="#DejaVuSans-Bold-70" x="1217.980469"/>
       <use xlink:href="#DejaVuSans-Bold-74" x="1289.5625"/>
       <use xlink:href="#DejaVuSans-Bold-5f" x="1337.365234"/>
       <use xlink:href="#DejaVuSans-Bold-32" x="1387.365234"/>
      </g>
     </g>
    </g>
    <g id="ytick_3">
     <g id="line2d_3">
      <g>
       <use xlink:href="#m96cc682cac" x="305.5875" y="180.975702" style="stroke: #000000; stroke-width: 0.8"/>
      </g>
     </g>
     <g id="text_3">
      <!-- AcaFolio -->
      <g style="fill: #586069" transform="translate(203.7 188.57414) scale(0.2 -0.2)">
       <defs>
        <path id="DejaVuSans-Bold-41" d="M 3419 850 
L 1538 850 
L 1241 0 
L 31 0 
L 1759 4666 
L 3194 4666 
L 4922 0 
L 3713 0 
L 3419 850 
z
M 1838 1716 
L 3116 1716 
L 2478 3572 
L 1838 1716 
z
" transform="scale(0.015625)"/>
       </defs>
       <use xlink:href="#DejaVuSans-Bold-41"/>
       <use xlink:href="#DejaVuSans-Bold-63" x="77.392578"/>
       <use xlink:href="#DejaVuSans-Bold-61" x="136.669922"/>
       <use xlink:href="#DejaVuSans-Bold-46" x="204.150391"/>
       <use xlink:href="#DejaVuSans-Bold-6f" x="268.460938"/>
       <use xlink:href="#DejaVuSans-Bold-6c" x="337.162109"/>
       <use xlink:href="#DejaVuSans-Bold-69" x="371.439453"/>
       <use xlink:href="#DejaVuSans-Bold-6f" x="405.716797"/>
      </g>
     </g>
    </g>
    <g id="ytick_4">
     <g id="line2d_4">
      <g>
       <use xlink:href="#m96cc682cac" x="305.5875" y="230.344298" style="stroke: #000000; stroke-width: 0.8"/>
      </g>
     </g>
     <g id="text_4">
      <!-- MD_Movie -->
      <g style="fill: #586069" transform="translate(184.978125 237.942735) scale(0.2 -0.2)">
       <defs>
        <path id="DejaVuSans-Bold-4d" d="M 588 4666 
L 2119 4666 
L 3181 2169 
L 4250 4666 
L 5778 4666 
L 5778 0 
L 4641 0 
L 4641 3413 
L 3566 897 
L 2803 897 
L 1728 3413 
L 1728 0 
L 588 0 
L 588 4666 
z
" transform="scale(0.015625)"/>
        <path id="DejaVuSans-Bold-44" d="M 1791 3756 
L 1791 909 
L 2222 909 
Q 2959 909 3348 1275 
Q 3738 1641 3738 2338 
Q 3738 3031 3350 3393 
Q 2963 3756 2222 3756 
L 1791 3756 
z
M 588 4666 
L 1856 4666 
Q 2919 4666 3439 4514 
Q 3959 4363 4331 4000 
Q 4659 3684 4818 3271 
Q 4978 2859 4978 2338 
Q 4978 1809 4818 1395 
Q 4659 981 4331 666 
Q 3956 303 3431 151 
Q 2906 0 1856 0 
L 588 0 
L 588 4666 
z
" transform="scale(0.015625)"/>
        <path id="DejaVuSans-Bold-76" d="M 97 3500 
L 1216 3500 
L 2088 1081 
L 2956 3500 
L 4078 3500 
L 2700 0 
L 1472 0 
L 97 3500 
z
" transform="scale(0.015625)"/>
       </defs>
       <use xlink:href="#DejaVuSans-Bold-4d"/>
       <use xlink:href="#DejaVuSans-Bold-44" x="99.511719"/>
       <use xlink:href="#DejaVuSans-Bold-5f" x="182.519531"/>
       <use xlink:href="#DejaVuSans-Bold-4d" x="232.519531"/>
       <use xlink:href="#DejaVuSans-Bold-6f" x="332.03125"/>
       <use xlink:href="#DejaVuSans-Bold-76" x="400.732422"/>
       <use xlink:href="#DejaVuSans-Bold-69" x="465.917969"/>
       <use xlink:href="#DejaVuSans-Bold-65" x="500.195312"/>
      </g>
     </g>
    </g>
    <g id="ytick_5">
     <g id="line2d_5">
      <g>
       <use xlink:href="#m96cc682cac" x="305.5875" y="279.712893" style="stroke: #000000; stroke-width: 0.8"/>
      </g>
     </g>
     <g id="text_5">
      <!-- Scripts -->
      <g style="fill: #586069" transform="translate(219.83125 287.31133) scale(0.2 -0.2)">
       <use xlink:href="#DejaVuSans-Bold-53"/>
       <use xlink:href="#DejaVuSans-Bold-63" x="72.021484"/>
       <use xlink:href="#DejaVuSans-Bold-72" x="131.298828"/>
       <use xlink:href="#DejaVuSans-Bold-69" x="180.615234"/>
       <use xlink:href="#DejaVuSans-Bold-70" x="214.892578"/>
       <use xlink:href="#DejaVuSans-Bold-74" x="286.474609"/>
       <use xlink:href="#DejaVuSans-Bold-73" x="334.277344"/>
      </g>
     </g>
    </g>
    <g id="ytick_6">
     <g id="line2d_6">
      <g>
       <use xlink:href="#m96cc682cac" x="305.5875" y="329.081488" style="stroke: #000000; stroke-width: 0.8"/>
      </g>
     </g>
     <g id="text_6">
      <!-- RNA_Project -->
      <g style="fill: #586069" transform="translate(160.871875 336.679925) scale(0.2 -0.2)">
       <defs>
        <path id="DejaVuSans-Bold-52" d="M 2297 2597 
Q 2675 2597 2839 2737 
Q 3003 2878 3003 3200 
Q 3003 3519 2839 3656 
Q 2675 3794 2297 3794 
L 1791 3794 
L 1791 2597 
L 2297 2597 
z
M 1791 1766 
L 1791 0 
L 588 0 
L 588 4666 
L 2425 4666 
Q 3347 4666 3776 4356 
Q 4206 4047 4206 3378 
Q 4206 2916 3982 2619 
Q 3759 2322 3309 2181 
Q 3556 2125 3751 1926 
Q 3947 1728 4147 1325 
L 4800 0 
L 3519 0 
L 2950 1159 
Q 2778 1509 2601 1637 
Q 2425 1766 2131 1766 
L 1791 1766 
z
" transform="scale(0.015625)"/>
        <path id="DejaVuSans-Bold-4e" d="M 588 4666 
L 1931 4666 
L 3628 1466 
L 3628 4666 
L 4769 4666 
L 4769 0 
L 3425 0 
L 1728 3200 
L 1728 0 
L 588 0 
L 588 4666 
z
" transform="scale(0.015625)"/>
        <path id="DejaVuSans-Bold-6a" d="M 538 3500 
L 1656 3500 
L 1656 63 
Q 1656 -641 1318 -1011 
Q 981 -1381 341 -1381 
L -213 -1381 
L -213 -647 
L -19 -647 
Q 300 -647 419 -503 
Q 538 -359 538 63 
L 538 3500 
z
M 538 4863 
L 1656 4863 
L 1656 3950 
L 538 3950 
L 538 4863 
z
" transform="scale(0.015625)"/>
       </defs>
       <use xlink:href="#DejaVuSans-Bold-52"/>
       <use xlink:href="#DejaVuSans-Bold-4e" x="77.001953"/>
       <use xlink:href="#DejaVuSans-Bold-41" x="160.693359"/>
       <use xlink:href="#DejaVuSans-Bold-5f" x="238.085938"/>
       <use xlink:href="#DejaVuSans-Bold-50" x="288.085938"/>
       <use xlink:href="#DejaVuSans-Bold-72" x="361.376953"/>
       <use xlink:href="#DejaVuSans-Bold-6f" x="410.693359"/>
       <use xlink:href="#DejaVuSans-Bold-6a" x="479.394531"/>
       <use xlink:href="#DejaVuSans-Bold-65" x="513.671875"/>
       <use xlink:href="#DejaVuSans-Bold-63" x="581.494141"/>
       <use xlink:href="#DejaVuSans-Bold-74" x="640.771484"/>
      </g>
     </g>
    </g>
   </g>
   <g id="patch_9">
    <path d="M 305.5875 355 
L 305.5875 56.32 
" style="fill: none; stroke: #000000; stroke-width: 0.8; stroke-linejoin: miter; stroke-linecap: square"/>
   </g>
   <g id="patch_10">
    <path d="M 305.5875 355 
L 701.942561 355 
" style="fill: none; stroke: #000000; stroke-width: 0.8; stroke-linejoin: miter; stroke-linecap: square"/>
   </g>
   <g id="text_7">
    <!-- 25 hrs 47 mins -->
    <g style="fill: #586069" transform="translate(687.068511 86.377575) scale(0.15 -0.15)">
     <defs>
      <path id="DejaVuSans-Bold-35" d="M 678 4666 
L 3669 4666 
L 3669 3781 
L 1638 3781 
L 1638 3059 
Q 1775 3097 1914 3117 
Q 2053 3138 2203 3138 
Q 3056 3138 3531 2711 
Q 4006 2284 4006 1522 
Q 4006 766 3489 337 
Q 2972 -91 2053 -91 
Q 1656 -91 1267 -14 
Q 878 63 494 219 
L 494 1166 
Q 875 947 1217 837 
Q 1559 728 1863 728 
Q 2300 728 2551 942 
Q 2803 1156 2803 1522 
Q 2803 1891 2551 2103 
Q 2300 2316 1863 2316 
Q 1603 2316 1309 2248 
Q 1016 2181 678 2041 
L 678 4666 
z
" transform="scale(0.015625)"/>
      <path id="DejaVuSans-Bold-20" transform="scale(0.015625)"/>
      <path id="DejaVuSans-Bold-34" d="M 2356 3675 
L 1038 1722 
L 2356 1722 
L 2356 3675 
z
M 2156 4666 
L 3494 4666 
L 3494 1722 
L 4159 1722 
L 4159 850 
L 3494 850 
L 3494 0 
L 2356 0 
L 2356 850 
L 288 850 
L 288 1881 
L 2156 4666 
z
" transform="scale(0.015625)"/>
      <path id="DejaVuSans-Bold-37" d="M 428 4666 
L 3944 4666 
L 3944 3988 
L 2125 0 
L 953 0 
L 2675 3781 
L 428 3781 
L 428 4666 
z
" transform="scale(0.015625)"/>
     </defs>
     <use xlink:href="#DejaVuSans-Bold-32"/>
     <use xlink:href="#DejaVuSans-Bold-35" x="69.580078"/>
     <use xlink:href="#DejaVuSans-Bold-20" x="139.160156"/>
     <use xlink:href="#DejaVuSans-Bold-68" x="173.974609"/>
     <use xlink:href="#DejaVuSans-Bold-72" x="245.166016"/>
     <use xlink:href="#DejaVuSans-Bold-73" x="294.482422"/>
     <use xlink:href="#DejaVuSans-Bold-20" x="354.003906"/>
     <use xlink:href="#DejaVuSans-Bold-34" x="388.818359"/>
     <use xlink:href="#DejaVuSans-Bold-37" x="458.398438"/>
     <use xlink:href="#DejaVuSans-Bold-20" x="527.978516"/>
     <use xlink:href="#DejaVuSans-Bold-6d" x="562.792969"/>
     <use xlink:href="#DejaVuSans-Bold-69" x="666.992188"/>
     <use xlink:href="#DejaVuSans-Bold-6e" x="701.269531"/>
     <use xlink:href="#DejaVuSans-Bold-73" x="772.460938"/>
    </g>
   </g>
   <g id="text_8">
    <!-- 3 hrs 41 mins -->
    <g style="fill: #586069" transform="translate(363.521173 135.74617) scale(0.15 -0.15)">
     <defs>
      <path id="DejaVuSans-Bold-33" d="M 2981 2516 
Q 3453 2394 3698 2092 
Q 3944 1791 3944 1325 
Q 3944 631 3412 270 
Q 2881 -91 1863 -91 
Q 1503 -91 1142 -33 
Q 781 25 428 141 
L 428 1069 
Q 766 900 1098 814 
Q 1431 728 1753 728 
Q 2231 728 2486 893 
Q 2741 1059 2741 1369 
Q 2741 1688 2480 1852 
Q 2219 2016 1709 2016 
L 1228 2016 
L 1228 2791 
L 1734 2791 
Q 2188 2791 2409 2933 
Q 2631 3075 2631 3366 
Q 2631 3634 2415 3781 
Q 2200 3928 1806 3928 
Q 1516 3928 1219 3862 
Q 922 3797 628 3669 
L 628 4550 
Q 984 4650 1334 4700 
Q 1684 4750 2022 4750 
Q 2931 4750 3382 4451 
Q 3834 4153 3834 3553 
Q 3834 3144 3618 2883 
Q 3403 2622 2981 2516 
z
" transform="scale(0.015625)"/>
      <path id="DejaVuSans-Bold-31" d="M 750 831 
L 1813 831 
L 1813 3847 
L 722 3622 
L 722 4441 
L 1806 4666 
L 2950 4666 
L 2950 831 
L 4013 831 
L 4013 0 
L 750 0 
L 750 831 
z
" transform="scale(0.015625)"/>
     </defs>
     <use xlink:href="#DejaVuSans-Bold-33"/>
     <use xlink:href="#DejaVuSans-Bold-20" x="69.580078"/>
     <use xlink:href="#DejaVuSans-Bold-68" x="104.394531"/>
     <use xlink:href="#DejaVuSans-Bold-72" x="175.585938"/>
     <use xlink:href="#DejaVuSans-Bold-73" x="224.902344"/>
     <use xlink:href="#DejaVuSans-Bold-20" x="284.423828"/>
     <use xlink:href="#DejaVuSans-Bold-34" x="319.238281"/>
     <use xlink:href="#DejaVuSans-Bold-31" x="388.818359"/>
     <use xlink:href="#DejaVuSans-Bold-20" x="458.398438"/>
     <use xlink:href="#DejaVuSans-Bold-6d" x="493.212891"/>
     <use xlink:href="#DejaVuSans-Bold-69" x="597.412109"/>
     <use xlink:href="#DejaVuSans-Bold-6e" x="631.689453"/>
     <use xlink:href="#DejaVuSans-Bold-73" x="702.880859"/>
    </g>
   </g>
   <g id="text_9">
    <!-- 2 hrs -->
    <g style="fill: #586069" transform="translate(339.070512 185.114765) scale(0.15 -0.15)">
     <use xlink:href="#DejaVuSans-Bold-32"/>
     <use xlink:href="#DejaVuSans-Bold-20" x="69.580078"/>
     <use xlink:href="#DejaVuSans-Bold-68" x="104.394531"/>
     <use xlink:href="#DejaVuSans-Bold-72" x="175.585938"/>
     <use xlink:href="#DejaVuSans-Bold-73" x="224.902344"/>
    </g>
   </g>
   <g id="text_10">
    <!-- 1 hr 2 mins -->
    <g style="fill: #586069" transform="translate(324.95805 234.48336) scale(0.15 -0.15)">
     <use xlink:href="#DejaVuSans-Bold-31"/>
     <use xlink:href="#DejaVuSans-Bold-20" x="69.580078"/>
     <use xlink:href="#DejaVuSans-Bold-68" x="104.394531"/>
     <use xlink:href="#DejaVuSans-Bold-72" x="175.585938"/>
     <use xlink:href="#DejaVuSans-Bold-20" x="224.902344"/>
     <use xlink:href="#DejaVuSans-Bold-32" x="259.716797"/>
     <use xlink:href="#DejaVuSans-Bold-20" x="329.296875"/>
     <use xlink:href="#DejaVuSans-Bold-6d" x="364.111328"/>
     <use xlink:href="#DejaVuSans-Bold-69" x="468.310547"/>
     <use xlink:href="#DejaVuSans-Bold-6e" x="502.587891"/>
     <use xlink:href="#DejaVuSans-Bold-73" x="573.779297"/>
    </g>
   </g>
   <g id="text_11">
    <!-- 45 mins -->
    <g style="fill: #586069" transform="translate(320.636792 283.851955) scale(0.15 -0.15)">
     <use xlink:href="#DejaVuSans-Bold-34"/>
     <use xlink:href="#DejaVuSans-Bold-35" x="69.580078"/>
     <use xlink:href="#DejaVuSans-Bold-20" x="139.160156"/>
     <use xlink:href="#DejaVuSans-Bold-6d" x="173.974609"/>
     <use xlink:href="#DejaVuSans-Bold-69" x="278.173828"/>
     <use xlink:href="#DejaVuSans-Bold-6e" x="312.451172"/>
     <use xlink:href="#DejaVuSans-Bold-73" x="383.642578"/>
    </g>
   </g>
   <g id="text_12">
    <!-- 40 mins -->
    <g style="fill: #586069" transform="translate(319.433404 333.22055) scale(0.15 -0.15)">
     <defs>
      <path id="DejaVuSans-Bold-30" d="M 2944 2338 
Q 2944 3213 2780 3570 
Q 2616 3928 2228 3928 
Q 1841 3928 1675 3570 
Q 1509 3213 1509 2338 
Q 1509 1453 1675 1090 
Q 1841 728 2228 728 
Q 2613 728 2778 1090 
Q 2944 1453 2944 2338 
z
M 4147 2328 
Q 4147 1169 3647 539 
Q 3147 -91 2228 -91 
Q 1306 -91 806 539 
Q 306 1169 306 2328 
Q 306 3491 806 4120 
Q 1306 4750 2228 4750 
Q 3147 4750 3647 4120 
Q 4147 3491 4147 2328 
z
" transform="scale(0.015625)"/>
     </defs>
     <use xlink:href="#DejaVuSans-Bold-34"/>
     <use xlink:href="#DejaVuSans-Bold-30" x="69.580078"/>
     <use xlink:href="#DejaVuSans-Bold-20" x="139.160156"/>
     <use xlink:href="#DejaVuSans-Bold-6d" x="173.974609"/>
     <use xlink:href="#DejaVuSans-Bold-69" x="278.173828"/>
     <use xlink:href="#DejaVuSans-Bold-6e" x="312.451172"/>
     <use xlink:href="#DejaVuSans-Bold-73" x="383.642578"/>
    </g>
   </g>
   <g id="text_13">
    <!-- Projects touched : -->
    <g style="fill: #2a475e" transform="translate(442.133781 50.32) scale(0.12 -0.12)">
     <defs>
      <path id="DejaVuSans-Bold-3a" d="M 716 3500 
L 1844 3500 
L 1844 2291 
L 716 2291 
L 716 3500 
z
M 716 1209 
L 1844 1209 
L 1844 0 
L 716 0 
L 716 1209 
z
" transform="scale(0.015625)"/>
     </defs>
     <use xlink:href="#DejaVuSans-Bold-50"/>
     <use xlink:href="#DejaVuSans-Bold-72" x="73.291016"/>
     <use xlink:href="#DejaVuSans-Bold-6f" x="122.607422"/>
     <use xlink:href="#DejaVuSans-Bold-6a" x="191.308594"/>
     <use xlink:href="#DejaVuSans-Bold-65" x="225.585938"/>
     <use xlink:href="#DejaVuSans-Bold-63" x="293.408203"/>
     <use xlink:href="#DejaVuSans-Bold-74" x="352.685547"/>
     <use xlink:href="#DejaVuSans-Bold-73" x="400.488281"/>
     <use xlink:href="#DejaVuSans-Bold-20" x="460.009766"/>
     <use xlink:href="#DejaVuSans-Bold-74" x="494.824219"/>
     <use xlink:href="#DejaVuSans-Bold-6f" x="542.626953"/>
     <use xlink:href="#DejaVuSans-Bold-75" x="611.328125"/>
     <use xlink:href="#DejaVuSans-Bold-63" x="682.519531"/>
     <use xlink:href="#DejaVuSans-Bold-68" x="741.796875"/>
     <use xlink:href="#DejaVuSans-Bold-65" x="812.988281"/>
     <use xlink:href="#DejaVuSans-Bold-64" x="880.810547"/>
     <use xlink:href="#DejaVuSans-Bold-20" x="952.392578"/>
     <use xlink:href="#DejaVuSans-Bold-3a" x="987.207031"/>
    </g>
   </g>
  </g>
  <g id="axes_2">
   <g id="patch_11">
    <path d="M 866.916633 149.796419 
L 872.082742 149.796419 
L 897.751959 164.750136 
" style="fill: none; stroke: #000000; stroke-linecap: round"/>
   </g>
   <g id="text_14">
    <g id="patch_12">
     <path d="M 809.45292 159.250169 
L 864.561045 159.250169 
L 864.561045 140.342669 
L 809.45292 140.342669 
z
" style="fill: #ffffff; stroke: #000000; stroke-width: 0.72; stroke-linejoin: miter"/>
    </g>
    <!-- Python -->
    <g style="fill: #2a475e" transform="translate(813.05292 153.060794) scale(0.12 -0.12)">
     <defs>
      <path id="DejaVuSans-Bold-79" d="M 78 3500 
L 1197 3500 
L 2138 1125 
L 2938 3500 
L 4056 3500 
L 2584 -331 
Q 2363 -916 2067 -1148 
Q 1772 -1381 1288 -1381 
L 641 -1381 
L 641 -647 
L 991 -647 
Q 1275 -647 1404 -556 
Q 1534 -466 1606 -231 
L 1638 -134 
L 78 3500 
z
" transform="scale(0.015625)"/>
     </defs>
     <use xlink:href="#DejaVuSans-Bold-50"/>
     <use xlink:href="#DejaVuSans-Bold-79" x="75.166016"/>
     <use xlink:href="#DejaVuSans-Bold-74" x="140.351562"/>
     <use xlink:href="#DejaVuSans-Bold-68" x="188.154297"/>
     <use xlink:href="#DejaVuSans-Bold-6f" x="259.345703"/>
     <use xlink:href="#DejaVuSans-Bold-6e" x="328.046875"/>
    </g>
   </g>
   <g id="patch_13">
    <path d="M 1069.03186 289.242436 
L 1040.986544 289.242436 
L 1021.443126 266.868862 
" style="fill: none; stroke: #000000; stroke-linecap: round"/>
   </g>
   <g id="text_15">
    <g id="patch_14">
     <path d="M 1071.392782 298.649311 
L 1102.579657 298.649311 
L 1102.579657 279.835561 
L 1071.392782 279.835561 
z
" style="fill: #ffffff; stroke: #000000; stroke-width: 0.72; stroke-linejoin: miter"/>
    </g>
    <!-- TeX -->
    <g style="fill: #2a475e" transform="translate(1074.992782 292.553686) scale(0.12 -0.12)">
     <defs>
      <path id="DejaVuSans-Bold-54" d="M 31 4666 
L 4331 4666 
L 4331 3756 
L 2784 3756 
L 2784 0 
L 1581 0 
L 1581 3756 
L 31 3756 
L 31 4666 
z
" transform="scale(0.015625)"/>
      <path id="DejaVuSans-Bold-58" d="M 3188 2381 
L 4806 0 
L 3553 0 
L 2463 1594 
L 1381 0 
L 122 0 
L 1741 2381 
L 184 4666 
L 1441 4666 
L 2463 3163 
L 3481 4666 
L 4744 4666 
L 3188 2381 
z
" transform="scale(0.015625)"/>
     </defs>
     <use xlink:href="#DejaVuSans-Bold-54"/>
     <use xlink:href="#DejaVuSans-Bold-65" x="54.962891"/>
     <use xlink:href="#DejaVuSans-Bold-58" x="122.785156"/>
    </g>
   </g>
   <g id="patch_15">
    <path d="M 1069.152663 242.458978 
L 1044.352585 233.43886 
" style="fill: none; stroke: #000000; stroke-linecap: round"/>
   </g>
   <g id="text_16">
    <g id="patch_16">
     <path d="M 1071.392782 253.000425 
L 1148.993407 253.000425 
L 1148.993407 234.186675 
L 1071.392782 234.186675 
z
" style="fill: #ffffff; stroke: #000000; stroke-width: 0.72; stroke-linejoin: miter"/>
    </g>
    <!-- Markdown -->
    <g style="fill: #2a475e" transform="translate(1074.992782 246.9048) scale(0.12 -0.12)">
     <defs>
      <path id="DejaVuSans-Bold-6b" d="M 538 4863 
L 1656 4863 
L 1656 2216 
L 2944 3500 
L 4244 3500 
L 2534 1894 
L 4378 0 
L 3022 0 
L 1656 1459 
L 1656 0 
L 538 0 
L 538 4863 
z
" transform="scale(0.015625)"/>
     </defs>
     <use xlink:href="#DejaVuSans-Bold-4d"/>
     <use xlink:href="#DejaVuSans-Bold-61" x="99.511719"/>
     <use xlink:href="#DejaVuSans-Bold-72" x="166.992188"/>
     <use xlink:href="#DejaVuSans-Bold-6b" x="216.308594"/>
     <use xlink:href="#DejaVuSans-Bold-64" x="282.8125"/>
     <use xlink:href="#DejaVuSans-Bold-6f" x="354.394531"/>
     <use xlink:href="#DejaVuSans-Bold-77" x="423.095703"/>
     <use xlink:href="#DejaVuSans-Bold-6e" x="515.478516"/>
    </g>
   </g>
   <g id="patch_17">
    <path d="M 1069.049555 218.003445 
L 1048.649986 215.512158 
" style="fill: none; stroke: #000000; stroke-linecap: round"/>
   </g>
   <g id="text_17">
    <g id="patch_18">
     <path d="M 1071.392782 228.567102 
L 1150.017157 228.567102 
L 1150.017157 209.659602 
L 1071.392782 209.659602 
z
" style="fill: #ffffff; stroke: #000000; stroke-width: 0.72; stroke-linejoin: miter"/>
    </g>
    <!-- TypeScript -->
    <g style="fill: #2a475e" transform="translate(1074.992782 222.377727) scale(0.12 -0.12)">
     <use xlink:href="#DejaVuSans-Bold-54"/>
     <use xlink:href="#DejaVuSans-Bold-79" x="56.337891"/>
     <use xlink:href="#DejaVuSans-Bold-70" x="121.523438"/>
     <use xlink:href="#DejaVuSans-Bold-65" x="193.105469"/>
     <use xlink:href="#DejaVuSans-Bold-53" x="260.927734"/>
     <use xlink:href="#DejaVuSans-Bold-63" x="332.949219"/>
     <use xlink:href="#DejaVuSans-Bold-72" x="392.226562"/>
     <use xlink:href="#DejaVuSans-Bold-69" x="441.542969"/>
     <use xlink:href="#DejaVuSans-Bold-70" x="475.820312"/>
     <use xlink:href="#DejaVuSans-Bold-74" x="547.402344"/>
    </g>
   </g>
   <g id="patch_19">
    <path d="M 1069.036033 197.910944 
L 1049.007719 199.446682 
" style="fill: none; stroke: #000000; stroke-linecap: round"/>
   </g>
   <g id="text_18">
    <g id="patch_20">
     <path d="M 1071.392782 206.58205 
L 1117.129657 206.58205 
L 1117.129657 187.7683 
L 1071.392782 187.7683 
z
" style="fill: #ffffff; stroke: #000000; stroke-width: 0.72; stroke-linejoin: miter"/>
    </g>
    <!-- Other -->
    <g style="fill: #2a475e" transform="translate(1074.992782 200.486425) scale(0.12 -0.12)">
     <defs>
      <path id="DejaVuSans-Bold-4f" d="M 2719 3878 
Q 2169 3878 1866 3472 
Q 1563 3066 1563 2328 
Q 1563 1594 1866 1187 
Q 2169 781 2719 781 
Q 3272 781 3575 1187 
Q 3878 1594 3878 2328 
Q 3878 3066 3575 3472 
Q 3272 3878 2719 3878 
z
M 2719 4750 
Q 3844 4750 4481 4106 
Q 5119 3463 5119 2328 
Q 5119 1197 4481 553 
Q 3844 -91 2719 -91 
Q 1597 -91 958 553 
Q 319 1197 319 2328 
Q 319 3463 958 4106 
Q 1597 4750 2719 4750 
z
" transform="scale(0.015625)"/>
     </defs>
     <use xlink:href="#DejaVuSans-Bold-4f"/>
     <use xlink:href="#DejaVuSans-Bold-74" x="85.009766"/>
     <use xlink:href="#DejaVuSans-Bold-68" x="132.8125"/>
     <use xlink:href="#DejaVuSans-Bold-65" x="204.003906"/>
     <use xlink:href="#DejaVuSans-Bold-72" x="271.826172"/>
    </g>
   </g>
   <g id="patch_21">
    <path d="M 1044.458201 193.480153 
C 1043.056276 185.529439 1040.44793 177.839351 1036.72355 170.676373 
C 1032.999171 163.513396 1028.202281 156.961236 1022.49911 151.246949 
C 1016.795938 145.532661 1010.253132 140.723023 1003.09742 136.984703 
C 995.941708 133.246383 988.256713 130.623068 980.308743 129.205664 
C 972.360774 127.78826 964.242712 127.593331 956.235873 128.627631 
C 948.229034 129.661932 940.426987 131.913375 933.100097 135.303942 
C 925.773208 138.694508 919.007099 143.184576 913.036238 148.618549 
C 907.065376 154.052522 901.959538 160.366899 897.895658 167.342866 
C 893.831777 174.318833 890.857344 181.87487 889.075432 189.749134 
C 887.293521 197.623399 886.724954 205.723872 887.389435 213.769847 
C 888.053916 221.815822 889.94368 229.713273 892.993239 237.188528 
C 896.042799 244.663782 900.216518 251.629485 905.369762 257.844251 
C 910.523007 264.059017 916.595556 269.450221 923.376977 273.83104 
C 930.158398 278.211859 937.569443 281.531099 945.353295 283.673737 
C 953.137147 285.816375 961.202843 286.757372 969.270882 286.464121 
C 977.338921 286.170869 985.315019 284.646795 992.922778 281.944713 
L 979.657136 244.595067 
C 975.853256 245.946108 971.865207 246.708145 967.831188 246.854771 
C 963.797169 247.001396 959.76432 246.530898 955.872394 245.459579 
C 951.980468 244.38826 948.274946 242.72864 944.884235 240.53823 
C 941.493525 238.347821 938.45725 235.652219 935.880628 232.544836 
C 933.304006 229.437453 931.217146 225.954601 929.692367 222.216974 
C 928.167587 218.479346 927.222705 214.530621 926.890464 210.507634 
C 926.558224 206.484646 926.842507 202.434409 927.733463 198.497277 
C 928.624419 194.560145 930.111635 190.782127 932.143576 187.294143 
C 934.175516 183.806159 936.728435 180.648971 939.713866 177.931985 
C 942.699296 175.214998 946.082351 172.969964 949.745795 171.274681 
C 953.40924 169.579398 957.310264 168.453676 961.313683 167.936526 
C 965.317103 167.419375 969.376134 167.51684 973.350119 168.225542 
C 977.324103 168.934244 981.166601 170.245902 984.744457 172.115062 
C 988.322313 173.984222 991.593716 176.389041 994.445302 179.246185 
C 997.296888 182.103328 999.695332 185.379408 1001.557522 188.960897 
C 1003.419712 192.542385 1004.723885 196.38743 1005.424847 200.362787 
z
" style="fill: #092436; opacity: 0.5; stroke: #092436; stroke-width: 4; stroke-linejoin: miter"/>
   </g>
   <g id="patch_22">
    <path d="M 998.137752 287.914885 
C 1007.545265 284.573577 1016.237465 279.484993 1023.756207 272.917335 
C 1031.274949 266.349677 1037.485787 258.4204 1042.061362 249.54742 
L 1006.833916 231.381506 
C 1004.546128 235.817996 1001.44071 239.782634 997.681339 243.066464 
C 993.921967 246.350293 989.575867 248.894585 984.872111 250.565239 
z
" style="fill: #4d2604; opacity: 0.5; stroke: #4d2604; stroke-width: 4; stroke-linejoin: miter"/>
   </g>
   <g id="patch_23">
    <path d="M 1044.296038 246.286787 
C 1045.837875 243.296853 1047.187817 240.211803 1048.337679 237.050352 
C 1049.48754 233.8889 1050.434991 230.657459 1051.17428 227.375628 
L 1012.507713 218.665294 
C 1012.138069 220.306209 1011.664343 221.92193 1011.089413 223.502656 
C 1010.514482 225.083381 1009.839511 226.625906 1009.068593 228.120873 
z
" style="fill: #0d300d; opacity: 0.5; stroke: #0d300d; stroke-width: 4; stroke-linejoin: miter"/>
   </g>
   <g id="patch_24">
    <path d="M 1051.593267 225.627043 
C 1052.174348 223.047531 1052.626003 220.440561 1052.946537 217.815911 
C 1053.267071 215.191261 1053.456086 212.552215 1053.512866 209.908675 
L 1013.8865 209.057524 
C 1013.85811 210.379295 1013.763602 211.698818 1013.603335 213.011143 
C 1013.443068 214.323468 1013.217241 215.626953 1012.926701 216.916708 
z
" style="fill: #400c0c; opacity: 0.5; stroke: #400c0c; stroke-width: 4; stroke-linejoin: miter"/>
   </g>
   <g id="patch_25">
    <path d="M 1053.548125 208.341666 
C 1053.603751 205.752105 1053.532415 203.161391 1053.334388 200.578813 
C 1053.136362 197.996236 1052.811874 195.424896 1052.362099 192.874088 
L 1013.328746 199.756726 
C 1013.553633 201.032131 1013.715878 202.3178 1013.814891 203.609089 
C 1013.913904 204.900378 1013.949572 206.195735 1013.921759 207.490515 
z
" style="fill: #2c1f39; opacity: 0.5; stroke: #2c1f39; stroke-width: 4; stroke-linejoin: miter"/>
   </g>
   <g id="patch_26">
    <path d="M 1046.043621 191.894733 
C 1044.641696 183.944019 1042.03335 176.25393 1038.30897 169.090953 
C 1034.584591 161.927975 1029.787702 155.375816 1024.08453 149.661529 
C 1018.381358 143.947241 1011.838552 139.137603 1004.68284 135.399283 
C 997.527128 131.660963 989.842133 129.037648 981.894164 127.620244 
C 973.946195 126.20284 965.828132 126.00791 957.821293 127.042211 
C 949.814454 128.076511 942.012407 130.327955 934.685518 133.718522 
C 927.358628 137.109088 920.592519 141.599156 914.621658 147.033129 
C 908.650797 152.467102 903.544959 158.781478 899.481078 165.757446 
C 895.417197 172.733413 892.442764 180.28945 890.660852 188.163714 
C 888.878941 196.037978 888.310374 204.138452 888.974855 212.184427 
C 889.639336 220.230402 891.5291 228.127852 894.57866 235.603107 
C 897.628219 243.078362 901.801938 250.044065 906.955182 256.258831 
C 912.108427 262.473597 918.180976 267.864801 924.962398 272.24562 
C 931.743819 276.626439 939.154863 279.945679 946.938715 282.088317 
C 954.722567 284.230955 962.788264 285.171952 970.856303 284.878701 
C 978.924342 284.585449 986.900439 283.061375 994.508199 280.359293 
L 981.242556 243.009646 
C 977.438677 244.360687 973.450628 245.122724 969.416608 245.26935 
C 965.382589 245.415976 961.349741 244.945477 957.457815 243.874158 
C 953.565889 242.802839 949.860366 241.143219 946.469656 238.95281 
C 943.078945 236.7624 940.04267 234.066798 937.466048 230.959415 
C 934.889426 227.852032 932.802567 224.369181 931.277787 220.631554 
C 929.753007 216.893926 928.808125 212.945201 928.475885 208.922213 
C 928.143644 204.899226 928.427927 200.848989 929.318883 196.911857 
C 930.209839 192.974725 931.697055 189.196707 933.728996 185.708723 
C 935.760936 182.220739 938.313855 179.063551 941.299286 176.346564 
C 944.284717 173.629578 947.667771 171.384544 951.331216 169.689261 
C 954.99466 167.993977 958.895684 166.868256 962.899103 166.351105 
C 966.902523 165.833955 970.961554 165.93142 974.935539 166.640122 
C 978.909523 167.348824 982.752021 168.660482 986.329877 170.529641 
C 989.907733 172.398801 993.179136 174.803621 996.030722 177.660764 
C 998.882308 180.517908 1001.280752 183.793988 1003.142942 187.375476 
C 1005.005132 190.956965 1006.309305 194.80201 1007.010268 198.777367 
z
" style="fill: #1f77b4; stroke: #ffffff; stroke-width: 4; stroke-linejoin: miter"/>
   </g>
   <g id="patch_27">
    <path d="M 999.723172 286.329465 
C 1009.130685 282.988157 1017.822885 277.899573 1025.341627 271.331915 
C 1032.86037 264.764256 1039.071207 256.83498 1043.646782 247.962 
L 1008.419336 229.796086 
C 1006.131549 234.232576 1003.02613 238.197214 999.266759 241.481043 
C 995.507388 244.764873 991.161288 247.309164 986.457531 248.979818 
z
" style="fill: #ff7f0e; stroke: #ffffff; stroke-width: 4; stroke-linejoin: miter"/>
   </g>
   <g id="patch_28">
    <path d="M 1045.881459 244.701367 
C 1047.423295 241.711432 1048.773238 238.626383 1049.923099 235.464931 
C 1051.07296 232.30348 1052.020411 229.072038 1052.7597 225.790208 
L 1014.093134 217.079874 
C 1013.723489 218.720789 1013.249764 220.33651 1012.674833 221.917235 
C 1012.099902 223.497961 1011.424931 225.040486 1010.654013 226.535453 
z
" style="fill: #2ca02c; stroke: #ffffff; stroke-width: 4; stroke-linejoin: miter"/>
   </g>
   <g id="patch_29">
    <path d="M 1053.178688 224.041622 
C 1053.759768 221.462111 1054.211423 218.855141 1054.531957 216.230491 
C 1054.852491 213.605841 1055.041506 210.966795 1055.098286 208.323255 
L 1015.47192 207.472104 
C 1015.44353 208.793874 1015.349023 210.113397 1015.188756 211.425722 
C 1015.028489 212.738047 1014.802661 214.041532 1014.512121 215.331288 
z
" style="fill: #d62728; stroke: #ffffff; stroke-width: 4; stroke-linejoin: miter"/>
   </g>
   <g id="patch_30">
    <path d="M 1055.133545 206.756246 
C 1055.189172 204.166684 1055.117835 201.575971 1054.919809 198.993393 
C 1054.721783 196.410815 1054.397294 193.839476 1053.947519 191.288667 
L 1014.914166 198.171306 
C 1015.139054 199.44671 1015.301298 200.73238 1015.400311 202.023669 
C 1015.499324 203.314958 1015.534993 204.610315 1015.507179 205.905095 
z
" style="fill: #9467bd; stroke: #ffffff; stroke-width: 4; stroke-linejoin: miter"/>
   </g>
   <g id="matplotlib.axis_3"/>
   <g id="matplotlib.axis_4"/>
   <g id="text_19">
    <!-- Languages -->
    <g style="fill: #2a475e" transform="translate(937.398789 208.34125) scale(0.1 -0.1)">
     <defs>
      <path id="DejaVuSans-Bold-4c" d="M 588 4666 
L 1791 4666 
L 1791 909 
L 3903 909 
L 3903 0 
L 588 0 
L 588 4666 
z
" transform="scale(0.015625)"/>
     </defs>
     <use xlink:href="#DejaVuSans-Bold-4c"/>
     <use xlink:href="#DejaVuSans-Bold-61" x="63.720703"/>
     <use xlink:href="#DejaVuSans-Bold-6e" x="131.201172"/>
     <use xlink:href="#DejaVuSans-Bold-67" x="202.392578"/>
     <use xlink:href="#DejaVuSans-Bold-75" x="273.974609"/>
     <use xlink:href="#DejaVuSans-Bold-61" x="345.166016"/>
     <use xlink:href="#DejaVuSans-Bold-67" x="412.646484"/>
     <use xlink:href="#DejaVuSans-Bold-65" x="484.228516"/>
     <use xlink:href="#DejaVuSans-Bold-73" x="552.050781"/>
    </g>
   </g>
   <g id="text_20">
    <!-- Languages exploited : -->
    <g style="fill: #2a475e" transform="translate(893.004101 100.571235) scale(0.12 -0.12)">
     <defs>
      <path id="DejaVuSans-Bold-78" d="M 1422 1791 
L 159 3500 
L 1344 3500 
L 2059 2463 
L 2784 3500 
L 3969 3500 
L 2706 1797 
L 4031 0 
L 2847 0 
L 2059 1106 
L 1281 0 
L 97 0 
L 1422 1791 
z
" transform="scale(0.015625)"/>
     </defs>
     <use xlink:href="#DejaVuSans-Bold-4c"/>
     <use xlink:href="#DejaVuSans-Bold-61" x="63.720703"/>
     <use xlink:href="#DejaVuSans-Bold-6e" x="131.201172"/>
     <use xlink:href="#DejaVuSans-Bold-67" x="202.392578"/>
     <use xlink:href="#DejaVuSans-Bold-75" x="273.974609"/>
     <use xlink:href="#DejaVuSans-Bold-61" x="345.166016"/>
     <use xlink:href="#DejaVuSans-Bold-67" x="412.646484"/>
     <use xlink:href="#DejaVuSans-Bold-65" x="484.228516"/>
     <use xlink:href="#DejaVuSans-Bold-73" x="552.050781"/>
     <use xlink:href="#DejaVuSans-Bold-20" x="611.572266"/>
     <use xlink:href="#DejaVuSans-Bold-65" x="646.386719"/>
     <use xlink:href="#DejaVuSans-Bold-78" x="714.208984"/>
     <use xlink:href="#DejaVuSans-Bold-70" x="778.710938"/>
     <use xlink:href="#DejaVuSans-Bold-6c" x="850.292969"/>
     <use xlink:href="#DejaVuSans-Bold-6f" x="884.570312"/>
     <use xlink:href="#DejaVuSans-Bold-69" x="953.271484"/>
     <use xlink:href="#DejaVuSans-Bold-74" x="987.548828"/>
     <use xlink:href="#DejaVuSans-Bold-65" x="1035.351562"/>
     <use xlink:href="#DejaVuSans-Bold-64" x="1103.173828"/>
     <use xlink:href="#DejaVuSans-Bold-20" x="1174.755859"/>
     <use xlink:href="#DejaVuSans-Bold-3a" x="1209.570312"/>
    </g>
   </g>
  </g>
  <g id="text_21">
   <!-- From 16 September, 2026 to 23 September, 2026: 37 hrs 22 mins -->
   <g transform="translate(27.391875 29.995312) scale(0.3 -0.3)">
    <defs>
     <path id="DejaVuSans-Bold-36" d="M 2316 2303 
Q 2000 2303 1842 2098 
Q 1684 1894 1684 1484 
Q 1684 1075 1842 870 
Q 2000 666 2316 666 
Q 2634 666 2792 870 
Q 2950 1075 2950 1484 
Q 2950 1894 2792 2098 
Q 2634 2303 2316 2303 
z
M 3803 4544 
L 3803 3681 
Q 3506 3822 3243 3889 
Q 2981 3956 2731 3956 
Q 2194 3956 1894 3657 
Q 1594 3359 1544 2772 
Q 1750 2925 1990 3001 
Q 2231 3078 2516 3078 
Q 3231 3078 3670 2659 
Q 4109 2241 4109 1563 
Q 4109 813 3618 361 
Q 3128 -91 2303 -91 
Q 1394 -91 895 523 
Q 397 1138 397 2266 
Q 397 3422 980 4083 
Q 1563 4744 2578 4744 
Q 2900 4744 3203 4694 
Q 3506 4644 3803 4544 
z
" transform="scale(0.015625)"/>
     <path id="DejaVuSans-Bold-62" d="M 2400 722 
Q 2759 722 2948 984 
Q 3138 1247 3138 1747 
Q 3138 2247 2948 2509 
Q 2759 2772 2400 2772 
Q 2041 2772 1848 2508 
Q 1656 2244 1656 1747 
Q 1656 1250 1848 986 
Q 2041 722 2400 722 
z
M 1656 2988 
Q 1888 3294 2169 3439 
Q 2450 3584 2816 3584 
Q 3463 3584 3878 3070 
Q 4294 2556 4294 1747 
Q 4294 938 3878 423 
Q 3463 -91 2816 -91 
Q 2450 -91 2169 54 
Q 1888 200 1656 506 
L 1656 0 
L 538 0 
L 538 4863 
L 1656 4863 
L 1656 2988 
z
" transform="scale(0.015625)"/>
     <path id="DejaVuSans-Bold-2c" d="M 653 1209 
L 1778 1209 
L 1778 256 
L 1006 -909 
L 341 -909 
L 653 256 
L 653 1209 
z
" transform="scale(0.015625)"/>
    </defs>
    <use xlink:href="#DejaVuSans-Bold-46"/>
    <use xlink:href="#DejaVuSans-Bold-72" x="61.935547"/>
    <use xlink:href="#DejaVuSans-Bold-6f" x="111.251953"/>
    <use xlink:href="#DejaVuSans-Bold-6d" x="179.953125"/>
    <use xlink:href="#DejaVuSans-Bold-20" x="284.152344"/>
    <use xlink:href="#DejaVuSans-Bold-31" x="318.966797"/>
    <use xlink:href="#DejaVuSans-Bold-36" x="388.546875"/>
    <use xlink:href="#DejaVuSans-Bold-20" x="458.126953"/>
    <use xlink:href="#DejaVuSans-Bold-53" x="492.941406"/>
    <use xlink:href="#DejaVuSans-Bold-65" x="564.962891"/>
    <use xlink:href="#DejaVuSans-Bold-70" x="632.785156"/>
    <use xlink:href="#DejaVuSans-Bold-74" x="704.367188"/>
    <use xlink:href="#DejaVuSans-Bold-65" x="752.169922"/>
    <use xlink:href="#DejaVuSans-Bold-6d" x="819.992188"/>
    <use xlink:href="#DejaVuSans-Bold-62" x="924.191406"/>
    <use xlink:href="#DejaVuSans-Bold-65" x="995.773438"/>
    <use xlink:href="#DejaVuSans-Bold-72" x="1063.595703"/>
    <use xlink:href="#DejaVuSans-Bold-2c" x="1098.162109"/>
    <use xlink:href="#DejaVuSans-Bold-20" x="1136.150391"/>
    <use xlink:href="#DejaVuSans-Bold-32" x="1170.964844"/>
    <use xlink:href="#DejaVuSans-Bold-30" x="1240.544922"/>
    <use xlink:href="#DejaVuSans-Bold-32" x="1310.125"/>
    <use xlink:href="#DejaVuSans-Bold-36" x="1379.705078"/>
    <use xlink:href="#DejaVuSans-Bold-20" x="1449.285156"/>
    <use xlink:href="#DejaVuSans-Bold-74" x="1484.099609"/>
    <use xlink:href="#DejaVuSans-Bold-6f" x="1531.902344"/>
    <use xlink:href="#DejaVuSans-Bold-20" x="1600.603516"/>
    <use xlink:href="#DejaVuSans-Bold-32" x="1635.417969"/>
    <use xlink:href="#DejaVuSans-Bold-33" x="1704.998047"/>
    <use xlink:href="#DejaVuSans-Bold-20" x="1774.578125"/>
    <use xlink:href="#DejaVuSans-Bold-53" x="1809.392578"/>
    <use xlink:href="#DejaVuSans-Bold-65" x="1881.414062"/>
    <use xlink:href="#DejaVuSans-Bold-70" x="1949.236328"/>
    <use xlink:href="#DejaVuSans-Bold-74" x="2020.818359"/>
    <use xlink:href="#DejaVuSans-Bold-65" x="2068.621094"/>
    <use xlink:href="#DejaVuSans-Bold-6d" x="2136.443359"/>
    <use xlink:href="#DejaVuSans-Bold-62" x="2240.642578"/>
    <use xlink:href="#DejaVuSans-Bold-65" x="2312.224609"/>
    <use xlink:href="#DejaVuSans-Bold-72" x="2380.046875"/>
    <use xlink:href="#DejaVuSans-Bold-2c" x="2414.613281"/>
    <use xlink:href="#DejaVuSans-Bold-20" x="2452.601562"/>
    <use xlink:href="#DejaVuSans-Bold-32" x="2487.416016"/>
    <use xlink:href="#DejaVuSans-Bold-30" x="2556.996094"/>
    <use xlink:href="#DejaVuSans-Bold-32" x="2626.576172"/>
    <use xlink:href="#DejaVuSans-Bold-36" x="2696.15625"/>
    <use xlink:href="#DejaVuSans-Bold-3a" x="2765.736328"/>
    <use xlink:href="#DejaVuSans-Bold-20" x="2805.726562"/>
    <use xlink:href="#DejaVuSans-Bold-33" x="2840.541016"/>
    <use xlink:href="#DejaVuSans-Bold-37" x="2910.121094"/>
    <use xlink:href="#DejaVuSans-Bold-20" x="2979.701172"/>
    <use xlink:href="#DejaVuSans-Bold-68" x="3014.515625"/>
    <use xlink:href="#DejaVuSans-Bold-72" x="3085.707031"/>
    <use xlink:href="#DejaVuSans-Bold-73" x="3135.023438"/>
    <use xlink:href="#DejaVuSans-Bold-20" x="3194.544922"/>
    <use xlink:href="#DejaVuSans-Bold-32" x="3229.359375"/>
    <use xlink:href="#DejaVuSans-Bold-32" x="3298.939453"/>
    <use xlink:href="#DejaVuSans-Bold-20" x="3368.519531"/>
    <use xlink:href="#DejaVuSans-Bold-6d" x="3403.333984"/>
    <use xlink:href="#DejaVuSans-Bold-69" x="3507.533203"/>
    <use xlink:href="#DejaVuSans-Bold-6e" x="3541.810547"/>
    <use xlink:href="#DejaVuSans-Bold-73" x="3613.001953"/>
   </g>
  </g>
 </g>
 <defs>
  <clipPath id="pfb86baa44c">
   <rect x="305.5875" y="56.32" width="396.355061" height="298.68"/>
  </clipPath>
 </defs>
</svg>
