<?xml version="1.0" encoding="utf-8" standalone="no"?>
<!DOCTYPE svg PUBLIC "-//W3C//DTD SVG 1.1//EN"
  "http://www.w3.org/Graphics/SVG/1.1/DTD/svg11.dtd">
<svg xmlns:xlink="http://www.w3.org/1999/xlink" width="1155.199033pt" height="362.2pt" viewBox="0 0 1155.199033 362.2" xmlns="http://www.w3.org/2000/svg" version="1.1">
 <metadata>
  <rdf:RDF xmlns:dc="http://purl.org/dc/elements/1.1/" xmlns:cc="http://creativecommons.org/ns#" xmlns:rdf="http://www.w3.org/1999/02/22-rdf-syntax-ns#">
   <cc:Work>
    <dc:type rdf:resource="http://purl.org/dc/dcmitype/StillImage"/>
    <dc:date>2025-07-22T00:48:07.239056</dc:date>
    <dc:format>image/svg+xml</dc:format>
    <dc:creator>
     <cc:Agent>
      <dc:title>Matplotlib v3.9.1.post1, https://matplotlib.org/</dc:title>
     </cc:Agent>
    </dc:creator>
   </cc:Work>
  </rdf:RDF>
 </metadata>
 <defs>
  <style type="text/css">*{stroke-linejoin: round; stroke-linecap: butt}</style>
 </defs>
 <g id="figure_1">
  <g id="patch_1">
   <path d="M 0 362.2 
L 1155.199033 362.2 
L 1155.199033 0 
L 0 0 
L 0 362.2 
z
" style="fill: none"/>
  </g>
  <g id="axes_1">
   <g id="patch_2">
    <path d="M 215.778125 355 
L 679.633186 355 
L 679.633186 56.32 
L 215.778125 56.32 
L 215.778125 355 
z
" style="fill: none"/>
   </g>
   <g id="patch_3">
    <path d="M 215.778125 69.896364 
L 657.54485 69.896364 
L 657.54485 94.580661 
L 215.778125 94.580661 
z
" clip-path="url(#p14130f8e7e)" style="fill: #0f9e19; stroke: #0f9e19; stroke-linejoin: miter"/>
   </g>
   <g id="patch_4">
    <path d="M 215.778125 119.264959 
L 456.341743 119.264959 
L 456.341743 143.949256 
L 215.778125 143.949256 
z
" clip-path="url(#p14130f8e7e)" style="fill: #d69117; stroke: #d69117; stroke-linejoin: miter"/>
   </g>
   <g id="patch_5">
    <path d="M 215.778125 168.633554 
L 345.716705 168.633554 
L 345.716705 193.317851 
L 215.778125 193.317851 
z
" clip-path="url(#p14130f8e7e)" style="fill: #0a82ca; stroke: #0a82ca; stroke-linejoin: miter"/>
   </g>
   <g id="patch_6">
    <path d="M 215.778125 218.002149 
L 318.457718 218.002149 
L 318.457718 242.686446 
L 215.778125 242.686446 
z
" clip-path="url(#p14130f8e7e)" style="fill: #89a9e5; stroke: #89a9e5; stroke-linejoin: miter"/>
   </g>
   <g id="patch_7">
    <path d="M 215.778125 267.370744 
L 276.163505 267.370744 
L 276.163505 292.055041 
L 215.778125 292.055041 
z
" clip-path="url(#p14130f8e7e)" style="fill: #6f8bac; stroke: #6f8bac; stroke-linejoin: miter"/>
   </g>
   <g id="patch_8">
    <path d="M 215.778125 316.739339 
L 269.440436 316.739339 
L 269.440436 341.423636 
L 215.778125 341.423636 
z
" clip-path="url(#p14130f8e7e)" style="fill: #5f92f7; stroke: #5f92f7; stroke-linejoin: miter"/>
   </g>
   <g id="matplotlib.axis_1"/>
   <g id="matplotlib.axis_2">
    <g id="ytick_1">
     <g id="line2d_1">
      <defs>
       <path id="m4053dd2214" d="M 0 0 
L -3.5 0 
" style="stroke: #000000; stroke-width: 0.8"/>
      </defs>
      <g>
       <use xlink:href="#m4053dd2214" x="215.778125" y="82.238512" style="stroke: #000000; stroke-width: 0.8"/>
      </g>
     </g>
     <g id="text_1">
      <!-- WE -->
      <g style="fill: #586069" transform="translate(173.05625 89.83695) scale(0.2 -0.2)">
       <defs>
        <path id="DejaVuSans-Bold-57" d="M 191 4666 
L 1344 4666 
L 2150 1275 
L 2950 4666 
L 4109 4666 
L 4909 1275 
L 5716 4666 
L 6859 4666 
L 5759 0 
L 4372 0 
L 3525 3547 
L 2688 0 
L 1300 0 
L 191 4666 
z
" transform="scale(0.015625)"/>
        <path id="DejaVuSans-Bold-45" d="M 588 4666 
L 3834 4666 
L 3834 3756 
L 1791 3756 
L 1791 2888 
L 3713 2888 
L 3713 1978 
L 1791 1978 
L 1791 909 
L 3903 909 
L 3903 0 
L 588 0 
L 588 4666 
z
" transform="scale(0.015625)"/>
       </defs>
       <use xlink:href="#DejaVuSans-Bold-57"/>
       <use xlink:href="#DejaVuSans-Bold-45" x="110.302734"/>
      </g>
     </g>
    </g>
    <g id="ytick_2">
     <g id="line2d_2">
      <g>
       <use xlink:href="#m4053dd2214" x="215.778125" y="131.607107" style="stroke: #000000; stroke-width: 0.8"/>
      </g>
     </g>
     <g id="text_2">
      <!-- velocvpath -->
      <g style="fill: #586069" transform="translate(85.075 139.205545) scale(0.2 -0.2)">
       <defs>
        <path id="DejaVuSans-Bold-76" d="M 97 3500 
L 1216 3500 
L 2088 1081 
L 2956 3500 
L 4078 3500 
L 2700 0 
L 1472 0 
L 97 3500 
z
" transform="scale(0.015625)"/>
        <path id="DejaVuSans-Bold-65" d="M 4031 1759 
L 4031 1441 
L 1416 1441 
Q 1456 1047 1700 850 
Q 1944 653 2381 653 
Q 2734 653 3104 758 
Q 3475 863 3866 1075 
L 3866 213 
Q 3469 63 3072 -14 
Q 2675 -91 2278 -91 
Q 1328 -91 801 392 
Q 275 875 275 1747 
Q 275 2603 792 3093 
Q 1309 3584 2216 3584 
Q 3041 3584 3536 3087 
Q 4031 2591 4031 1759 
z
M 2881 2131 
Q 2881 2450 2695 2645 
Q 2509 2841 2209 2841 
Q 1884 2841 1681 2658 
Q 1478 2475 1428 2131 
L 2881 2131 
z
" transform="scale(0.015625)"/>
        <path id="DejaVuSans-Bold-6c" d="M 538 4863 
L 1656 4863 
L 1656 0 
L 538 0 
L 538 4863 
z
" transform="scale(0.015625)"/>
        <path id="DejaVuSans-Bold-6f" d="M 2203 2784 
Q 1831 2784 1636 2517 
Q 1441 2250 1441 1747 
Q 1441 1244 1636 976 
Q 1831 709 2203 709 
Q 2569 709 2762 976 
Q 2956 1244 2956 1747 
Q 2956 2250 2762 2517 
Q 2569 2784 2203 2784 
z
M 2203 3584 
Q 3106 3584 3614 3096 
Q 4122 2609 4122 1747 
Q 4122 884 3614 396 
Q 3106 -91 2203 -91 
Q 1297 -91 786 396 
Q 275 884 275 1747 
Q 275 2609 786 3096 
Q 1297 3584 2203 3584 
z
" transform="scale(0.015625)"/>
        <path id="DejaVuSans-Bold-63" d="M 3366 3391 
L 3366 2478 
Q 3138 2634 2908 2709 
Q 2678 2784 2431 2784 
Q 1963 2784 1702 2511 
Q 1441 2238 1441 1747 
Q 1441 1256 1702 982 
Q 1963 709 2431 709 
Q 2694 709 2930 787 
Q 3166 866 3366 1019 
L 3366 103 
Q 3103 6 2833 -42 
Q 2563 -91 2291 -91 
Q 1344 -91 809 395 
Q 275 881 275 1747 
Q 275 2613 809 3098 
Q 1344 3584 2291 3584 
Q 2566 3584 2833 3536 
Q 3100 3488 3366 3391 
z
" transform="scale(0.015625)"/>
        <path id="DejaVuSans-Bold-70" d="M 1656 506 
L 1656 -1331 
L 538 -1331 
L 538 3500 
L 1656 3500 
L 1656 2988 
Q 1888 3294 2169 3439 
Q 2450 3584 2816 3584 
Q 3463 3584 3878 3070 
Q 4294 2556 4294 1747 
Q 4294 938 3878 423 
Q 3463 -91 2816 -91 
Q 2450 -91 2169 54 
Q 1888 200 1656 506 
z
M 2400 2772 
Q 2041 2772 1848 2508 
Q 1656 2244 1656 1747 
Q 1656 1250 1848 986 
Q 2041 722 2400 722 
Q 2759 722 2948 984 
Q 3138 1247 3138 1747 
Q 3138 2247 2948 2509 
Q 2759 2772 2400 2772 
z
" transform="scale(0.015625)"/>
        <path id="DejaVuSans-Bold-61" d="M 2106 1575 
Q 1756 1575 1579 1456 
Q 1403 1338 1403 1106 
Q 1403 894 1545 773 
Q 1688 653 1941 653 
Q 2256 653 2472 879 
Q 2688 1106 2688 1447 
L 2688 1575 
L 2106 1575 
z
M 3816 1997 
L 3816 0 
L 2688 0 
L 2688 519 
Q 2463 200 2181 54 
Q 1900 -91 1497 -91 
Q 953 -91 614 226 
Q 275 544 275 1050 
Q 275 1666 698 1953 
Q 1122 2241 2028 2241 
L 2688 2241 
L 2688 2328 
Q 2688 2594 2478 2717 
Q 2269 2841 1825 2841 
Q 1466 2841 1156 2769 
Q 847 2697 581 2553 
L 581 3406 
Q 941 3494 1303 3539 
Q 1666 3584 2028 3584 
Q 2975 3584 3395 3211 
Q 3816 2838 3816 1997 
z
" transform="scale(0.015625)"/>
        <path id="DejaVuSans-Bold-74" d="M 1759 4494 
L 1759 3500 
L 2913 3500 
L 2913 2700 
L 1759 2700 
L 1759 1216 
Q 1759 972 1856 886 
Q 1953 800 2241 800 
L 2816 800 
L 2816 0 
L 1856 0 
Q 1194 0 917 276 
Q 641 553 641 1216 
L 641 2700 
L 84 2700 
L 84 3500 
L 641 3500 
L 641 4494 
L 1759 4494 
z
" transform="scale(0.015625)"/>
        <path id="DejaVuSans-Bold-68" d="M 4056 2131 
L 4056 0 
L 2931 0 
L 2931 347 
L 2931 1625 
Q 2931 2084 2911 2256 
Q 2891 2428 2841 2509 
Q 2775 2619 2662 2680 
Q 2550 2741 2406 2741 
Q 2056 2741 1856 2470 
Q 1656 2200 1656 1722 
L 1656 0 
L 538 0 
L 538 4863 
L 1656 4863 
L 1656 2988 
Q 1909 3294 2193 3439 
Q 2478 3584 2822 3584 
Q 3428 3584 3742 3212 
Q 4056 2841 4056 2131 
z
" transform="scale(0.015625)"/>
       </defs>
       <use xlink:href="#DejaVuSans-Bold-76"/>
       <use xlink:href="#DejaVuSans-Bold-65" x="65.185547"/>
       <use xlink:href="#DejaVuSans-Bold-6c" x="133.007812"/>
       <use xlink:href="#DejaVuSans-Bold-6f" x="167.285156"/>
       <use xlink:href="#DejaVuSans-Bold-63" x="235.986328"/>
       <use xlink:href="#DejaVuSans-Bold-76" x="295.263672"/>
       <use xlink:href="#DejaVuSans-Bold-70" x="360.449219"/>
       <use xlink:href="#DejaVuSans-Bold-61" x="432.03125"/>
       <use xlink:href="#DejaVuSans-Bold-74" x="499.511719"/>
       <use xlink:href="#DejaVuSans-Bold-68" x="547.314453"/>
      </g>
     </g>
    </g>
    <g id="ytick_3">
     <g id="line2d_3">
      <g>
       <use xlink:href="#m4053dd2214" x="215.778125" y="180.975702" style="stroke: #000000; stroke-width: 0.8"/>
      </g>
     </g>
     <g id="text_3">
      <!-- Publication_Data -->
      <g style="fill: #586069" transform="translate(18.95 188.57414) scale(0.2 -0.2)">
       <defs>
        <path id="DejaVuSans-Bold-50" d="M 588 4666 
L 2584 4666 
Q 3475 4666 3951 4270 
Q 4428 3875 4428 3144 
Q 4428 2409 3951 2014 
Q 3475 1619 2584 1619 
L 1791 1619 
L 1791 0 
L 588 0 
L 588 4666 
z
M 1791 3794 
L 1791 2491 
L 2456 2491 
Q 2806 2491 2997 2661 
Q 3188 2831 3188 3144 
Q 3188 3456 2997 3625 
Q 2806 3794 2456 3794 
L 1791 3794 
z
" transform="scale(0.015625)"/>
        <path id="DejaVuSans-Bold-75" d="M 500 1363 
L 500 3500 
L 1625 3500 
L 1625 3150 
Q 1625 2866 1622 2436 
Q 1619 2006 1619 1863 
Q 1619 1441 1641 1255 
Q 1663 1069 1716 984 
Q 1784 875 1895 815 
Q 2006 756 2150 756 
Q 2500 756 2700 1025 
Q 2900 1294 2900 1772 
L 2900 3500 
L 4019 3500 
L 4019 0 
L 2900 0 
L 2900 506 
Q 2647 200 2364 54 
Q 2081 -91 1741 -91 
Q 1134 -91 817 281 
Q 500 653 500 1363 
z
" transform="scale(0.015625)"/>
        <path id="DejaVuSans-Bold-62" d="M 2400 722 
Q 2759 722 2948 984 
Q 3138 1247 3138 1747 
Q 3138 2247 2948 2509 
Q 2759 2772 2400 2772 
Q 2041 2772 1848 2508 
Q 1656 2244 1656 1747 
Q 1656 1250 1848 986 
Q 2041 722 2400 722 
z
M 1656 2988 
Q 1888 3294 2169 3439 
Q 2450 3584 2816 3584 
Q 3463 3584 3878 3070 
Q 4294 2556 4294 1747 
Q 4294 938 3878 423 
Q 3463 -91 2816 -91 
Q 2450 -91 2169 54 
Q 1888 200 1656 506 
L 1656 0 
L 538 0 
L 538 4863 
L 1656 4863 
L 1656 2988 
z
" transform="scale(0.015625)"/>
        <path id="DejaVuSans-Bold-69" d="M 538 3500 
L 1656 3500 
L 1656 0 
L 538 0 
L 538 3500 
z
M 538 4863 
L 1656 4863 
L 1656 3950 
L 538 3950 
L 538 4863 
z
" transform="scale(0.015625)"/>
        <path id="DejaVuSans-Bold-6e" d="M 4056 2131 
L 4056 0 
L 2931 0 
L 2931 347 
L 2931 1631 
Q 2931 2084 2911 2256 
Q 2891 2428 2841 2509 
Q 2775 2619 2662 2680 
Q 2550 2741 2406 2741 
Q 2056 2741 1856 2470 
Q 1656 2200 1656 1722 
L 1656 0 
L 538 0 
L 538 3500 
L 1656 3500 
L 1656 2988 
Q 1909 3294 2193 3439 
Q 2478 3584 2822 3584 
Q 3428 3584 3742 3212 
Q 4056 2841 4056 2131 
z
" transform="scale(0.015625)"/>
        <path id="DejaVuSans-Bold-5f" d="M 3200 -916 
L 3200 -1509 
L 0 -1509 
L 0 -916 
L 3200 -916 
z
" transform="scale(0.015625)"/>
        <path id="DejaVuSans-Bold-44" d="M 1791 3756 
L 1791 909 
L 2222 909 
Q 2959 909 3348 1275 
Q 3738 1641 3738 2338 
Q 3738 3031 3350 3393 
Q 2963 3756 2222 3756 
L 1791 3756 
z
M 588 4666 
L 1856 4666 
Q 2919 4666 3439 4514 
Q 3959 4363 4331 4000 
Q 4659 3684 4818 3271 
Q 4978 2859 4978 2338 
Q 4978 1809 4818 1395 
Q 4659 981 4331 666 
Q 3956 303 3431 151 
Q 2906 0 1856 0 
L 588 0 
L 588 4666 
z
" transform="scale(0.015625)"/>
       </defs>
       <use xlink:href="#DejaVuSans-Bold-50"/>
       <use xlink:href="#DejaVuSans-Bold-75" x="73.291016"/>
       <use xlink:href="#DejaVuSans-Bold-62" x="144.482422"/>
       <use xlink:href="#DejaVuSans-Bold-6c" x="216.064453"/>
       <use xlink:href="#DejaVuSans-Bold-69" x="250.341797"/>
       <use xlink:href="#DejaVuSans-Bold-63" x="284.619141"/>
       <use xlink:href="#DejaVuSans-Bold-61" x="343.896484"/>
       <use xlink:href="#DejaVuSans-Bold-74" x="411.376953"/>
       <use xlink:href="#DejaVuSans-Bold-69" x="459.179688"/>
       <use xlink:href="#DejaVuSans-Bold-6f" x="493.457031"/>
       <use xlink:href="#DejaVuSans-Bold-6e" x="562.158203"/>
       <use xlink:href="#DejaVuSans-Bold-5f" x="633.349609"/>
       <use xlink:href="#DejaVuSans-Bold-44" x="683.349609"/>
       <use xlink:href="#DejaVuSans-Bold-61" x="766.357422"/>
       <use xlink:href="#DejaVuSans-Bold-74" x="833.837891"/>
       <use xlink:href="#DejaVuSans-Bold-61" x="881.640625"/>
      </g>
     </g>
    </g>
    <g id="ytick_4">
     <g id="line2d_4">
      <g>
       <use xlink:href="#m4053dd2214" x="215.778125" y="230.344298" style="stroke: #000000; stroke-width: 0.8"/>
      </g>
     </g>
     <g id="text_4">
      <!-- NoteBooks -->
      <g style="fill: #586069" transform="translate(87.246875 237.942735) scale(0.2 -0.2)">
       <defs>
        <path id="DejaVuSans-Bold-4e" d="M 588 4666 
L 1931 4666 
L 3628 1466 
L 3628 4666 
L 4769 4666 
L 4769 0 
L 3425 0 
L 1728 3200 
L 1728 0 
L 588 0 
L 588 4666 
z
" transform="scale(0.015625)"/>
        <path id="DejaVuSans-Bold-42" d="M 2456 2859 
Q 2741 2859 2887 2984 
Q 3034 3109 3034 3353 
Q 3034 3594 2887 3720 
Q 2741 3847 2456 3847 
L 1791 3847 
L 1791 2859 
L 2456 2859 
z
M 2497 819 
Q 2859 819 3042 972 
Q 3225 1125 3225 1434 
Q 3225 1738 3044 1889 
Q 2863 2041 2497 2041 
L 1791 2041 
L 1791 819 
L 2497 819 
z
M 3616 2497 
Q 4003 2384 4215 2081 
Q 4428 1778 4428 1338 
Q 4428 663 3972 331 
Q 3516 0 2584 0 
L 588 0 
L 588 4666 
L 2394 4666 
Q 3366 4666 3802 4372 
Q 4238 4078 4238 3431 
Q 4238 3091 4078 2852 
Q 3919 2613 3616 2497 
z
" transform="scale(0.015625)"/>
        <path id="DejaVuSans-Bold-6b" d="M 538 4863 
L 1656 4863 
L 1656 2216 
L 2944 3500 
L 4244 3500 
L 2534 1894 
L 4378 0 
L 3022 0 
L 1656 1459 
L 1656 0 
L 538 0 
L 538 4863 
z
" transform="scale(0.015625)"/>
        <path id="DejaVuSans-Bold-73" d="M 3272 3391 
L 3272 2541 
Q 2913 2691 2578 2766 
Q 2244 2841 1947 2841 
Q 1628 2841 1473 2761 
Q 1319 2681 1319 2516 
Q 1319 2381 1436 2309 
Q 1553 2238 1856 2203 
L 2053 2175 
Q 2913 2066 3209 1816 
Q 3506 1566 3506 1031 
Q 3506 472 3093 190 
Q 2681 -91 1863 -91 
Q 1516 -91 1145 -36 
Q 775 19 384 128 
L 384 978 
Q 719 816 1070 734 
Q 1422 653 1784 653 
Q 2113 653 2278 743 
Q 2444 834 2444 1013 
Q 2444 1163 2330 1236 
Q 2216 1309 1875 1350 
L 1678 1375 
Q 931 1469 631 1722 
Q 331 1975 331 2491 
Q 331 3047 712 3315 
Q 1094 3584 1881 3584 
Q 2191 3584 2531 3537 
Q 2872 3491 3272 3391 
z
" transform="scale(0.015625)"/>
       </defs>
       <use xlink:href="#DejaVuSans-Bold-4e"/>
       <use xlink:href="#DejaVuSans-Bold-6f" x="83.691406"/>
       <use xlink:href="#DejaVuSans-Bold-74" x="152.392578"/>
       <use xlink:href="#DejaVuSans-Bold-65" x="200.195312"/>
       <use xlink:href="#DejaVuSans-Bold-42" x="268.017578"/>
       <use xlink:href="#DejaVuSans-Bold-6f" x="344.238281"/>
       <use xlink:href="#DejaVuSans-Bold-6f" x="412.939453"/>
       <use xlink:href="#DejaVuSans-Bold-6b" x="481.640625"/>
       <use xlink:href="#DejaVuSans-Bold-73" x="548.144531"/>
      </g>
     </g>
    </g>
    <g id="ytick_5">
     <g id="line2d_5">
      <g>
       <use xlink:href="#m4053dd2214" x="215.778125" y="279.712893" style="stroke: #000000; stroke-width: 0.8"/>
      </g>
     </g>
     <g id="text_5">
      <!-- pharmocast -->
      <g style="fill: #586069" transform="translate(75.46875 287.31133) scale(0.2 -0.2)">
       <defs>
        <path id="DejaVuSans-Bold-72" d="M 3138 2547 
Q 2991 2616 2845 2648 
Q 2700 2681 2553 2681 
Q 2122 2681 1889 2404 
Q 1656 2128 1656 1613 
L 1656 0 
L 538 0 
L 538 3500 
L 1656 3500 
L 1656 2925 
Q 1872 3269 2151 3426 
Q 2431 3584 2822 3584 
Q 2878 3584 2943 3579 
Q 3009 3575 3134 3559 
L 3138 2547 
z
" transform="scale(0.015625)"/>
        <path id="DejaVuSans-Bold-6d" d="M 3781 2919 
Q 3994 3244 4286 3414 
Q 4578 3584 4928 3584 
Q 5531 3584 5847 3212 
Q 6163 2841 6163 2131 
L 6163 0 
L 5038 0 
L 5038 1825 
Q 5041 1866 5042 1909 
Q 5044 1953 5044 2034 
Q 5044 2406 4934 2573 
Q 4825 2741 4581 2741 
Q 4263 2741 4089 2478 
Q 3916 2216 3909 1719 
L 3909 0 
L 2784 0 
L 2784 1825 
Q 2784 2406 2684 2573 
Q 2584 2741 2328 2741 
Q 2006 2741 1831 2477 
Q 1656 2213 1656 1722 
L 1656 0 
L 531 0 
L 531 3500 
L 1656 3500 
L 1656 2988 
Q 1863 3284 2130 3434 
Q 2397 3584 2719 3584 
Q 3081 3584 3359 3409 
Q 3638 3234 3781 2919 
z
" transform="scale(0.015625)"/>
       </defs>
       <use xlink:href="#DejaVuSans-Bold-70"/>
       <use xlink:href="#DejaVuSans-Bold-68" x="71.582031"/>
       <use xlink:href="#DejaVuSans-Bold-61" x="142.773438"/>
       <use xlink:href="#DejaVuSans-Bold-72" x="210.253906"/>
       <use xlink:href="#DejaVuSans-Bold-6d" x="259.570312"/>
       <use xlink:href="#DejaVuSans-Bold-6f" x="363.769531"/>
       <use xlink:href="#DejaVuSans-Bold-63" x="432.470703"/>
       <use xlink:href="#DejaVuSans-Bold-61" x="491.748047"/>
       <use xlink:href="#DejaVuSans-Bold-73" x="559.228516"/>
       <use xlink:href="#DejaVuSans-Bold-74" x="618.75"/>
      </g>
     </g>
    </g>
    <g id="ytick_6">
     <g id="line2d_6">
      <g>
       <use xlink:href="#m4053dd2214" x="215.778125" y="329.081488" style="stroke: #000000; stroke-width: 0.8"/>
      </g>
     </g>
     <g id="text_6">
      <!-- Ligand_Unbinding -->
      <g style="fill: #586069" transform="translate(7.2 336.679925) scale(0.2 -0.2)">
       <defs>
        <path id="DejaVuSans-Bold-4c" d="M 588 4666 
L 1791 4666 
L 1791 909 
L 3903 909 
L 3903 0 
L 588 0 
L 588 4666 
z
" transform="scale(0.015625)"/>
        <path id="DejaVuSans-Bold-67" d="M 2919 594 
Q 2688 288 2409 144 
Q 2131 0 1766 0 
Q 1125 0 706 504 
Q 288 1009 288 1791 
Q 288 2575 706 3076 
Q 1125 3578 1766 3578 
Q 2131 3578 2409 3434 
Q 2688 3291 2919 2981 
L 2919 3500 
L 4044 3500 
L 4044 353 
Q 4044 -491 3511 -936 
Q 2978 -1381 1966 -1381 
Q 1638 -1381 1331 -1331 
Q 1025 -1281 716 -1178 
L 716 -306 
Q 1009 -475 1290 -558 
Q 1572 -641 1856 -641 
Q 2406 -641 2662 -400 
Q 2919 -159 2919 353 
L 2919 594 
z
M 2181 2772 
Q 1834 2772 1640 2515 
Q 1447 2259 1447 1791 
Q 1447 1309 1634 1061 
Q 1822 813 2181 813 
Q 2531 813 2725 1069 
Q 2919 1325 2919 1791 
Q 2919 2259 2725 2515 
Q 2531 2772 2181 2772 
z
" transform="scale(0.015625)"/>
        <path id="DejaVuSans-Bold-64" d="M 2919 2988 
L 2919 4863 
L 4044 4863 
L 4044 0 
L 2919 0 
L 2919 506 
Q 2688 197 2409 53 
Q 2131 -91 1766 -91 
Q 1119 -91 703 423 
Q 288 938 288 1747 
Q 288 2556 703 3070 
Q 1119 3584 1766 3584 
Q 2128 3584 2408 3439 
Q 2688 3294 2919 2988 
z
M 2181 722 
Q 2541 722 2730 984 
Q 2919 1247 2919 1747 
Q 2919 2247 2730 2509 
Q 2541 2772 2181 2772 
Q 1825 2772 1636 2509 
Q 1447 2247 1447 1747 
Q 1447 1247 1636 984 
Q 1825 722 2181 722 
z
" transform="scale(0.015625)"/>
        <path id="DejaVuSans-Bold-55" d="M 588 4666 
L 1791 4666 
L 1791 1869 
Q 1791 1291 1980 1042 
Q 2169 794 2597 794 
Q 3028 794 3217 1042 
Q 3406 1291 3406 1869 
L 3406 4666 
L 4609 4666 
L 4609 1869 
Q 4609 878 4112 393 
Q 3616 -91 2597 -91 
Q 1581 -91 1084 393 
Q 588 878 588 1869 
L 588 4666 
z
" transform="scale(0.015625)"/>
       </defs>
       <use xlink:href="#DejaVuSans-Bold-4c"/>
       <use xlink:href="#DejaVuSans-Bold-69" x="63.720703"/>
       <use xlink:href="#DejaVuSans-Bold-67" x="97.998047"/>
       <use xlink:href="#DejaVuSans-Bold-61" x="169.580078"/>
       <use xlink:href="#DejaVuSans-Bold-6e" x="237.060547"/>
       <use xlink:href="#DejaVuSans-Bold-64" x="308.251953"/>
       <use xlink:href="#DejaVuSans-Bold-5f" x="379.833984"/>
       <use xlink:href="#DejaVuSans-Bold-55" x="429.833984"/>
       <use xlink:href="#DejaVuSans-Bold-6e" x="511.035156"/>
       <use xlink:href="#DejaVuSans-Bold-62" x="582.226562"/>
       <use xlink:href="#DejaVuSans-Bold-69" x="653.808594"/>
       <use xlink:href="#DejaVuSans-Bold-6e" x="688.085938"/>
       <use xlink:href="#DejaVuSans-Bold-64" x="759.277344"/>
       <use xlink:href="#DejaVuSans-Bold-69" x="830.859375"/>
       <use xlink:href="#DejaVuSans-Bold-6e" x="865.136719"/>
       <use xlink:href="#DejaVuSans-Bold-67" x="936.328125"/>
      </g>
     </g>
    </g>
   </g>
   <g id="patch_9">
    <path d="M 215.778125 355 
L 215.778125 56.32 
" style="fill: none; stroke: #000000; stroke-width: 0.8; stroke-linejoin: miter; stroke-linecap: square"/>
   </g>
   <g id="patch_10">
    <path d="M 215.778125 355 
L 679.633186 355 
" style="fill: none; stroke: #000000; stroke-width: 0.8; stroke-linejoin: miter; stroke-linecap: square"/>
   </g>
   <g id="text_7">
    <!-- 28 hrs 19 mins -->
    <g style="fill: #586069" transform="translate(661.54485 86.377575) scale(0.15 -0.15)">
     <defs>
      <path id="DejaVuSans-Bold-32" d="M 1844 884 
L 3897 884 
L 3897 0 
L 506 0 
L 506 884 
L 2209 2388 
Q 2438 2594 2547 2791 
Q 2656 2988 2656 3200 
Q 2656 3528 2436 3728 
Q 2216 3928 1850 3928 
Q 1569 3928 1234 3808 
Q 900 3688 519 3450 
L 519 4475 
Q 925 4609 1322 4679 
Q 1719 4750 2100 4750 
Q 2938 4750 3402 4381 
Q 3866 4013 3866 3353 
Q 3866 2972 3669 2642 
Q 3472 2313 2841 1759 
L 1844 884 
z
" transform="scale(0.015625)"/>
      <path id="DejaVuSans-Bold-38" d="M 2228 2088 
Q 1891 2088 1709 1903 
Q 1528 1719 1528 1375 
Q 1528 1031 1709 848 
Q 1891 666 2228 666 
Q 2563 666 2741 848 
Q 2919 1031 2919 1375 
Q 2919 1722 2741 1905 
Q 2563 2088 2228 2088 
z
M 1350 2484 
Q 925 2613 709 2878 
Q 494 3144 494 3541 
Q 494 4131 934 4440 
Q 1375 4750 2228 4750 
Q 3075 4750 3515 4442 
Q 3956 4134 3956 3541 
Q 3956 3144 3739 2878 
Q 3522 2613 3097 2484 
Q 3572 2353 3814 2058 
Q 4056 1763 4056 1313 
Q 4056 619 3595 264 
Q 3134 -91 2228 -91 
Q 1319 -91 855 264 
Q 391 619 391 1313 
Q 391 1763 633 2058 
Q 875 2353 1350 2484 
z
M 1631 3419 
Q 1631 3141 1786 2991 
Q 1941 2841 2228 2841 
Q 2509 2841 2662 2991 
Q 2816 3141 2816 3419 
Q 2816 3697 2662 3845 
Q 2509 3994 2228 3994 
Q 1941 3994 1786 3844 
Q 1631 3694 1631 3419 
z
" transform="scale(0.015625)"/>
      <path id="DejaVuSans-Bold-20" transform="scale(0.015625)"/>
      <path id="DejaVuSans-Bold-31" d="M 750 831 
L 1813 831 
L 1813 3847 
L 722 3622 
L 722 4441 
L 1806 4666 
L 2950 4666 
L 2950 831 
L 4013 831 
L 4013 0 
L 750 0 
L 750 831 
z
" transform="scale(0.015625)"/>
      <path id="DejaVuSans-Bold-39" d="M 641 103 
L 641 966 
Q 928 831 1190 764 
Q 1453 697 1709 697 
Q 2247 697 2547 995 
Q 2847 1294 2900 1881 
Q 2688 1725 2447 1647 
Q 2206 1569 1925 1569 
Q 1209 1569 770 1986 
Q 331 2403 331 3084 
Q 331 3838 820 4291 
Q 1309 4744 2131 4744 
Q 3044 4744 3544 4128 
Q 4044 3513 4044 2388 
Q 4044 1231 3459 570 
Q 2875 -91 1856 -91 
Q 1528 -91 1228 -42 
Q 928 6 641 103 
z
M 2125 2350 
Q 2441 2350 2600 2554 
Q 2759 2759 2759 3169 
Q 2759 3575 2600 3781 
Q 2441 3988 2125 3988 
Q 1809 3988 1650 3781 
Q 1491 3575 1491 3169 
Q 1491 2759 1650 2554 
Q 1809 2350 2125 2350 
z
" transform="scale(0.015625)"/>
     </defs>
     <use xlink:href="#DejaVuSans-Bold-32"/>
     <use xlink:href="#DejaVuSans-Bold-38" x="69.580078"/>
     <use xlink:href="#DejaVuSans-Bold-20" x="139.160156"/>
     <use xlink:href="#DejaVuSans-Bold-68" x="173.974609"/>
     <use xlink:href="#DejaVuSans-Bold-72" x="245.166016"/>
     <use xlink:href="#DejaVuSans-Bold-73" x="294.482422"/>
     <use xlink:href="#DejaVuSans-Bold-20" x="354.003906"/>
     <use xlink:href="#DejaVuSans-Bold-31" x="388.818359"/>
     <use xlink:href="#DejaVuSans-Bold-39" x="458.398438"/>
     <use xlink:href="#DejaVuSans-Bold-20" x="527.978516"/>
     <use xlink:href="#DejaVuSans-Bold-6d" x="562.792969"/>
     <use xlink:href="#DejaVuSans-Bold-69" x="666.992188"/>
     <use xlink:href="#DejaVuSans-Bold-6e" x="701.269531"/>
     <use xlink:href="#DejaVuSans-Bold-73" x="772.460938"/>
    </g>
   </g>
   <g id="text_8">
    <!-- 15 hrs 25 mins -->
    <g style="fill: #586069" transform="translate(460.341743 135.74617) scale(0.15 -0.15)">
     <defs>
      <path id="DejaVuSans-Bold-35" d="M 678 4666 
L 3669 4666 
L 3669 3781 
L 1638 3781 
L 1638 3059 
Q 1775 3097 1914 3117 
Q 2053 3138 2203 3138 
Q 3056 3138 3531 2711 
Q 4006 2284 4006 1522 
Q 4006 766 3489 337 
Q 2972 -91 2053 -91 
Q 1656 -91 1267 -14 
Q 878 63 494 219 
L 494 1166 
Q 875 947 1217 837 
Q 1559 728 1863 728 
Q 2300 728 2551 942 
Q 2803 1156 2803 1522 
Q 2803 1891 2551 2103 
Q 2300 2316 1863 2316 
Q 1603 2316 1309 2248 
Q 1016 2181 678 2041 
L 678 4666 
z
" transform="scale(0.015625)"/>
     </defs>
     <use xlink:href="#DejaVuSans-Bold-31"/>
     <use xlink:href="#DejaVuSans-Bold-35" x="69.580078"/>
     <use xlink:href="#DejaVuSans-Bold-20" x="139.160156"/>
     <use xlink:href="#DejaVuSans-Bold-68" x="173.974609"/>
     <use xlink:href="#DejaVuSans-Bold-72" x="245.166016"/>
     <use xlink:href="#DejaVuSans-Bold-73" x="294.482422"/>
     <use xlink:href="#DejaVuSans-Bold-20" x="354.003906"/>
     <use xlink:href="#DejaVuSans-Bold-32" x="388.818359"/>
     <use xlink:href="#DejaVuSans-Bold-35" x="458.398438"/>
     <use xlink:href="#DejaVuSans-Bold-20" x="527.978516"/>
     <use xlink:href="#DejaVuSans-Bold-6d" x="562.792969"/>
     <use xlink:href="#DejaVuSans-Bold-69" x="666.992188"/>
     <use xlink:href="#DejaVuSans-Bold-6e" x="701.269531"/>
     <use xlink:href="#DejaVuSans-Bold-73" x="772.460938"/>
    </g>
   </g>
   <g id="text_9">
    <!-- 8 hrs 20 mins -->
    <g style="fill: #586069" transform="translate(349.716705 185.114765) scale(0.15 -0.15)">
     <defs>
      <path id="DejaVuSans-Bold-30" d="M 2944 2338 
Q 2944 3213 2780 3570 
Q 2616 3928 2228 3928 
Q 1841 3928 1675 3570 
Q 1509 3213 1509 2338 
Q 1509 1453 1675 1090 
Q 1841 728 2228 728 
Q 2613 728 2778 1090 
Q 2944 1453 2944 2338 
z
M 4147 2328 
Q 4147 1169 3647 539 
Q 3147 -91 2228 -91 
Q 1306 -91 806 539 
Q 306 1169 306 2328 
Q 306 3491 806 4120 
Q 1306 4750 2228 4750 
Q 3147 4750 3647 4120 
Q 4147 3491 4147 2328 
z
" transform="scale(0.015625)"/>
     </defs>
     <use xlink:href="#DejaVuSans-Bold-38"/>
     <use xlink:href="#DejaVuSans-Bold-20" x="69.580078"/>
     <use xlink:href="#DejaVuSans-Bold-68" x="104.394531"/>
     <use xlink:href="#DejaVuSans-Bold-72" x="175.585938"/>
     <use xlink:href="#DejaVuSans-Bold-73" x="224.902344"/>
     <use xlink:href="#DejaVuSans-Bold-20" x="284.423828"/>
     <use xlink:href="#DejaVuSans-Bold-32" x="319.238281"/>
     <use xlink:href="#DejaVuSans-Bold-30" x="388.818359"/>
     <use xlink:href="#DejaVuSans-Bold-20" x="458.398438"/>
     <use xlink:href="#DejaVuSans-Bold-6d" x="493.212891"/>
     <use xlink:href="#DejaVuSans-Bold-69" x="597.412109"/>
     <use xlink:href="#DejaVuSans-Bold-6e" x="631.689453"/>
     <use xlink:href="#DejaVuSans-Bold-73" x="702.880859"/>
    </g>
   </g>
   <g id="text_10">
    <!-- 6 hrs 35 mins -->
    <g style="fill: #586069" transform="translate(322.457718 234.48336) scale(0.15 -0.15)">
     <defs>
      <path id="DejaVuSans-Bold-36" d="M 2316 2303 
Q 2000 2303 1842 2098 
Q 1684 1894 1684 1484 
Q 1684 1075 1842 870 
Q 2000 666 2316 666 
Q 2634 666 2792 870 
Q 2950 1075 2950 1484 
Q 2950 1894 2792 2098 
Q 2634 2303 2316 2303 
z
M 3803 4544 
L 3803 3681 
Q 3506 3822 3243 3889 
Q 2981 3956 2731 3956 
Q 2194 3956 1894 3657 
Q 1594 3359 1544 2772 
Q 1750 2925 1990 3001 
Q 2231 3078 2516 3078 
Q 3231 3078 3670 2659 
Q 4109 2241 4109 1563 
Q 4109 813 3618 361 
Q 3128 -91 2303 -91 
Q 1394 -91 895 523 
Q 397 1138 397 2266 
Q 397 3422 980 4083 
Q 1563 4744 2578 4744 
Q 2900 4744 3203 4694 
Q 3506 4644 3803 4544 
z
" transform="scale(0.015625)"/>
      <path id="DejaVuSans-Bold-33" d="M 2981 2516 
Q 3453 2394 3698 2092 
Q 3944 1791 3944 1325 
Q 3944 631 3412 270 
Q 2881 -91 1863 -91 
Q 1503 -91 1142 -33 
Q 781 25 428 141 
L 428 1069 
Q 766 900 1098 814 
Q 1431 728 1753 728 
Q 2231 728 2486 893 
Q 2741 1059 2741 1369 
Q 2741 1688 2480 1852 
Q 2219 2016 1709 2016 
L 1228 2016 
L 1228 2791 
L 1734 2791 
Q 2188 2791 2409 2933 
Q 2631 3075 2631 3366 
Q 2631 3634 2415 3781 
Q 2200 3928 1806 3928 
Q 1516 3928 1219 3862 
Q 922 3797 628 3669 
L 628 4550 
Q 984 4650 1334 4700 
Q 1684 4750 2022 4750 
Q 2931 4750 3382 4451 
Q 3834 4153 3834 3553 
Q 3834 3144 3618 2883 
Q 3403 2622 2981 2516 
z
" transform="scale(0.015625)"/>
     </defs>
     <use xlink:href="#DejaVuSans-Bold-36"/>
     <use xlink:href="#DejaVuSans-Bold-20" x="69.580078"/>
     <use xlink:href="#DejaVuSans-Bold-68" x="104.394531"/>
     <use xlink:href="#DejaVuSans-Bold-72" x="175.585938"/>
     <use xlink:href="#DejaVuSans-Bold-73" x="224.902344"/>
     <use xlink:href="#DejaVuSans-Bold-20" x="284.423828"/>
     <use xlink:href="#DejaVuSans-Bold-33" x="319.238281"/>
     <use xlink:href="#DejaVuSans-Bold-35" x="388.818359"/>
     <use xlink:href="#DejaVuSans-Bold-20" x="458.398438"/>
     <use xlink:href="#DejaVuSans-Bold-6d" x="493.212891"/>
     <use xlink:href="#DejaVuSans-Bold-69" x="597.412109"/>
     <use xlink:href="#DejaVuSans-Bold-6e" x="631.689453"/>
     <use xlink:href="#DejaVuSans-Bold-73" x="702.880859"/>
    </g>
   </g>
   <g id="text_11">
    <!-- 3 hrs 52 mins -->
    <g style="fill: #586069" transform="translate(280.163505 283.851955) scale(0.15 -0.15)">
     <use xlink:href="#DejaVuSans-Bold-33"/>
     <use xlink:href="#DejaVuSans-Bold-20" x="69.580078"/>
     <use xlink:href="#DejaVuSans-Bold-68" x="104.394531"/>
     <use xlink:href="#DejaVuSans-Bold-72" x="175.585938"/>
     <use xlink:href="#DejaVuSans-Bold-73" x="224.902344"/>
     <use xlink:href="#DejaVuSans-Bold-20" x="284.423828"/>
     <use xlink:href="#DejaVuSans-Bold-35" x="319.238281"/>
     <use xlink:href="#DejaVuSans-Bold-32" x="388.818359"/>
     <use xlink:href="#DejaVuSans-Bold-20" x="458.398438"/>
     <use xlink:href="#DejaVuSans-Bold-6d" x="493.212891"/>
     <use xlink:href="#DejaVuSans-Bold-69" x="597.412109"/>
     <use xlink:href="#DejaVuSans-Bold-6e" x="631.689453"/>
     <use xlink:href="#DejaVuSans-Bold-73" x="702.880859"/>
    </g>
   </g>
   <g id="text_12">
    <!-- 3 hrs 26 mins -->
    <g style="fill: #586069" transform="translate(273.440436 333.22055) scale(0.15 -0.15)">
     <use xlink:href="#DejaVuSans-Bold-33"/>
     <use xlink:href="#DejaVuSans-Bold-20" x="69.580078"/>
     <use xlink:href="#DejaVuSans-Bold-68" x="104.394531"/>
     <use xlink:href="#DejaVuSans-Bold-72" x="175.585938"/>
     <use xlink:href="#DejaVuSans-Bold-73" x="224.902344"/>
     <use xlink:href="#DejaVuSans-Bold-20" x="284.423828"/>
     <use xlink:href="#DejaVuSans-Bold-32" x="319.238281"/>
     <use xlink:href="#DejaVuSans-Bold-36" x="388.818359"/>
     <use xlink:href="#DejaVuSans-Bold-20" x="458.398438"/>
     <use xlink:href="#DejaVuSans-Bold-6d" x="493.212891"/>
     <use xlink:href="#DejaVuSans-Bold-69" x="597.412109"/>
     <use xlink:href="#DejaVuSans-Bold-6e" x="631.689453"/>
     <use xlink:href="#DejaVuSans-Bold-73" x="702.880859"/>
    </g>
   </g>
   <g id="text_13">
    <!-- Projects touched : -->
    <g style="fill: #2a475e" transform="translate(386.074406 50.32) scale(0.12 -0.12)">
     <defs>
      <path id="DejaVuSans-Bold-6a" d="M 538 3500 
L 1656 3500 
L 1656 63 
Q 1656 -641 1318 -1011 
Q 981 -1381 341 -1381 
L -213 -1381 
L -213 -647 
L -19 -647 
Q 300 -647 419 -503 
Q 538 -359 538 63 
L 538 3500 
z
M 538 4863 
L 1656 4863 
L 1656 3950 
L 538 3950 
L 538 4863 
z
" transform="scale(0.015625)"/>
      <path id="DejaVuSans-Bold-3a" d="M 716 3500 
L 1844 3500 
L 1844 2291 
L 716 2291 
L 716 3500 
z
M 716 1209 
L 1844 1209 
L 1844 0 
L 716 0 
L 716 1209 
z
" transform="scale(0.015625)"/>
     </defs>
     <use xlink:href="#DejaVuSans-Bold-50"/>
     <use xlink:href="#DejaVuSans-Bold-72" x="73.291016"/>
     <use xlink:href="#DejaVuSans-Bold-6f" x="122.607422"/>
     <use xlink:href="#DejaVuSans-Bold-6a" x="191.308594"/>
     <use xlink:href="#DejaVuSans-Bold-65" x="225.585938"/>
     <use xlink:href="#DejaVuSans-Bold-63" x="293.408203"/>
     <use xlink:href="#DejaVuSans-Bold-74" x="352.685547"/>
     <use xlink:href="#DejaVuSans-Bold-73" x="400.488281"/>
     <use xlink:href="#DejaVuSans-Bold-20" x="460.009766"/>
     <use xlink:href="#DejaVuSans-Bold-74" x="494.824219"/>
     <use xlink:href="#DejaVuSans-Bold-6f" x="542.626953"/>
     <use xlink:href="#DejaVuSans-Bold-75" x="611.328125"/>
     <use xlink:href="#DejaVuSans-Bold-63" x="682.519531"/>
     <use xlink:href="#DejaVuSans-Bold-68" x="741.796875"/>
     <use xlink:href="#DejaVuSans-Bold-65" x="812.988281"/>
     <use xlink:href="#DejaVuSans-Bold-64" x="880.810547"/>
     <use xlink:href="#DejaVuSans-Bold-20" x="952.392578"/>
     <use xlink:href="#DejaVuSans-Bold-3a" x="987.207031"/>
    </g>
   </g>
  </g>
  <g id="axes_2">
   <g id="patch_11">
    <path d="M 843.182922 169.900304 
L 871.757289 178.46108 
" style="fill: none; stroke: #000000; stroke-linecap: round"/>
   </g>
   <g id="text_14">
    <g id="patch_12">
     <path d="M 785.793545 177.839263 
L 840.90167 177.839263 
L 840.90167 158.931763 
L 785.793545 158.931763 
z
" style="fill: #ffffff; stroke: #000000; stroke-width: 0.72; stroke-linejoin: miter"/>
    </g>
    <!-- Python -->
    <g style="fill: #2a475e" transform="translate(789.393545 171.649888) scale(0.12 -0.12)">
     <defs>
      <path id="DejaVuSans-Bold-79" d="M 78 3500 
L 1197 3500 
L 2138 1125 
L 2938 3500 
L 4056 3500 
L 2584 -331 
Q 2363 -916 2067 -1148 
Q 1772 -1381 1288 -1381 
L 641 -1381 
L 641 -647 
L 991 -647 
Q 1275 -647 1404 -556 
Q 1534 -466 1606 -231 
L 1638 -134 
L 78 3500 
z
" transform="scale(0.015625)"/>
     </defs>
     <use xlink:href="#DejaVuSans-Bold-50"/>
     <use xlink:href="#DejaVuSans-Bold-79" x="75.166016"/>
     <use xlink:href="#DejaVuSans-Bold-74" x="140.351562"/>
     <use xlink:href="#DejaVuSans-Bold-68" x="188.154297"/>
     <use xlink:href="#DejaVuSans-Bold-6f" x="259.345703"/>
     <use xlink:href="#DejaVuSans-Bold-6e" x="328.046875"/>
    </g>
   </g>
   <g id="patch_13">
    <path d="M 1081.818546 279.046461 
L 1069.701709 279.046461 
L 1040.73301 259.207648 
" style="fill: none; stroke: #000000; stroke-linecap: round"/>
   </g>
   <g id="text_15">
    <g id="patch_14">
     <path d="M 1084.183408 288.453336 
L 1129.200283 288.453336 
L 1129.200283 269.639586 
L 1084.183408 269.639586 
z
" style="fill: #ffffff; stroke: #000000; stroke-width: 0.72; stroke-linejoin: miter"/>
    </g>
    <!-- HTML -->
    <g style="fill: #2a475e" transform="translate(1087.783408 282.357711) scale(0.12 -0.12)">
     <defs>
      <path id="DejaVuSans-Bold-48" d="M 588 4666 
L 1791 4666 
L 1791 2888 
L 3566 2888 
L 3566 4666 
L 4769 4666 
L 4769 0 
L 3566 0 
L 3566 1978 
L 1791 1978 
L 1791 0 
L 588 0 
L 588 4666 
z
" transform="scale(0.015625)"/>
      <path id="DejaVuSans-Bold-54" d="M 31 4666 
L 4331 4666 
L 4331 3756 
L 2784 3756 
L 2784 0 
L 1581 0 
L 1581 3756 
L 31 3756 
L 31 4666 
z
" transform="scale(0.015625)"/>
      <path id="DejaVuSans-Bold-4d" d="M 588 4666 
L 2119 4666 
L 3181 2169 
L 4250 4666 
L 5778 4666 
L 5778 0 
L 4641 0 
L 4641 3413 
L 3566 897 
L 2803 897 
L 1728 3413 
L 1728 0 
L 588 0 
L 588 4666 
z
" transform="scale(0.015625)"/>
     </defs>
     <use xlink:href="#DejaVuSans-Bold-48"/>
     <use xlink:href="#DejaVuSans-Bold-54" x="83.691406"/>
     <use xlink:href="#DejaVuSans-Bold-4d" x="151.904297"/>
     <use xlink:href="#DejaVuSans-Bold-4c" x="251.416016"/>
    </g>
   </g>
   <g id="patch_15">
    <path d="M 1081.936221 246.666431 
L 1052.17225 236.443828 
" style="fill: none; stroke: #000000; stroke-linecap: round"/>
   </g>
   <g id="text_16">
    <g id="patch_16">
     <path d="M 1084.183408 257.255707 
L 1129.920283 257.255707 
L 1129.920283 238.441957 
L 1084.183408 238.441957 
z
" style="fill: #ffffff; stroke: #000000; stroke-width: 0.72; stroke-linejoin: miter"/>
    </g>
    <!-- Other -->
    <g style="fill: #2a475e" transform="translate(1087.783408 251.160082) scale(0.12 -0.12)">
     <defs>
      <path id="DejaVuSans-Bold-4f" d="M 2719 3878 
Q 2169 3878 1866 3472 
Q 1563 3066 1563 2328 
Q 1563 1594 1866 1187 
Q 2169 781 2719 781 
Q 3272 781 3575 1187 
Q 3878 1594 3878 2328 
Q 3878 3066 3575 3472 
Q 3272 3878 2719 3878 
z
M 2719 4750 
Q 3844 4750 4481 4106 
Q 5119 3463 5119 2328 
Q 5119 1197 4481 553 
Q 3844 -91 2719 -91 
Q 1597 -91 958 553 
Q 319 1197 319 2328 
Q 319 3463 958 4106 
Q 1597 4750 2719 4750 
z
" transform="scale(0.015625)"/>
     </defs>
     <use xlink:href="#DejaVuSans-Bold-4f"/>
     <use xlink:href="#DejaVuSans-Bold-74" x="85.009766"/>
     <use xlink:href="#DejaVuSans-Bold-68" x="132.8125"/>
     <use xlink:href="#DejaVuSans-Bold-65" x="204.003906"/>
     <use xlink:href="#DejaVuSans-Bold-72" x="271.826172"/>
    </g>
   </g>
   <g id="patch_17">
    <path d="M 1081.834831 219.784863 
L 1056.656287 216.803589 
" style="fill: none; stroke: #000000; stroke-linecap: round"/>
   </g>
   <g id="text_17">
    <g id="patch_18">
     <path d="M 1084.183408 230.338636 
L 1147.196533 230.338636 
L 1147.196533 211.524886 
L 1084.183408 211.524886 
z
" style="fill: #ffffff; stroke: #000000; stroke-width: 0.72; stroke-linejoin: miter"/>
    </g>
    <!-- Promela -->
    <g style="fill: #2a475e" transform="translate(1087.783408 224.243011) scale(0.12 -0.12)">
     <use xlink:href="#DejaVuSans-Bold-50"/>
     <use xlink:href="#DejaVuSans-Bold-72" x="73.291016"/>
     <use xlink:href="#DejaVuSans-Bold-6f" x="122.607422"/>
     <use xlink:href="#DejaVuSans-Bold-6d" x="191.308594"/>
     <use xlink:href="#DejaVuSans-Bold-65" x="295.507812"/>
     <use xlink:href="#DejaVuSans-Bold-6c" x="363.330078"/>
     <use xlink:href="#DejaVuSans-Bold-61" x="397.607422"/>
    </g>
   </g>
   <g id="patch_19">
    <path d="M 1081.827587 196.322571 
L 1057.022733 198.264254 
" style="fill: none; stroke: #000000; stroke-linecap: round"/>
   </g>
   <g id="text_18">
    <g id="patch_20">
     <path d="M 1084.183408 204.97802 
L 1151.599033 204.97802 
L 1151.599033 186.07052 
L 1084.183408 186.07052 
z
" style="fill: #ffffff; stroke: #000000; stroke-width: 0.72; stroke-linejoin: miter"/>
    </g>
    <!-- hyprlang -->
    <g style="fill: #2a475e" transform="translate(1087.783408 198.788645) scale(0.12 -0.12)">
     <use xlink:href="#DejaVuSans-Bold-68"/>
     <use xlink:href="#DejaVuSans-Bold-79" x="71.191406"/>
     <use xlink:href="#DejaVuSans-Bold-70" x="136.376953"/>
     <use xlink:href="#DejaVuSans-Bold-72" x="207.958984"/>
     <use xlink:href="#DejaVuSans-Bold-6c" x="257.275391"/>
     <use xlink:href="#DejaVuSans-Bold-61" x="291.552734"/>
     <use xlink:href="#DejaVuSans-Bold-6e" x="359.033203"/>
     <use xlink:href="#DejaVuSans-Bold-67" x="430.224609"/>
    </g>
   </g>
   <g id="patch_21">
    <path d="M 1052.048731 191.405903 
C 1050.248361 181.195499 1046.749018 171.358763 1041.696421 162.305314 
C 1036.643823 153.251865 1030.10909 145.109136 1022.364338 138.216205 
C 1014.619587 131.323273 1005.77383 125.777162 996.195419 121.80882 
C 986.617008 117.840478 976.440768 115.505763 966.090453 114.901897 
C 955.740137 114.29803 945.361436 115.433512 935.386534 118.261058 
C 925.411632 121.088605 915.980934 125.568416 907.487151 131.513946 
C 898.993367 137.459476 891.556054 144.787035 885.484912 153.191494 
C 879.413771 161.595954 874.794259 170.959012 871.818738 180.890777 
C 868.843217 190.822543 867.553571 201.183217 868.003504 211.541366 
C 868.453436 221.899515 870.636613 232.109339 874.462124 241.745684 
C 878.287634 251.38203 883.701632 260.309257 890.478668 268.155623 
C 897.255705 276.00199 905.300388 282.65705 914.277725 287.843678 
C 923.255063 293.030305 933.03869 296.675494 943.221201 298.627453 
C 953.403713 300.579411 963.841782 300.810664 974.100751 299.311581 
C 984.35972 297.812499 994.295184 294.604182 1003.493417 289.820229 
C 1012.69165 285.036276 1021.023178 278.744027 1028.141063 271.205499 
L 994.414091 239.36046 
C 990.855148 243.129724 986.689384 246.275848 982.090268 248.667825 
C 977.491151 251.059801 972.523419 252.663959 967.393935 253.413501 
C 962.26445 254.163042 957.045416 254.047416 951.95416 253.071436 
C 946.862904 252.095457 941.971091 250.272863 937.482422 247.679549 
C 932.993753 245.086235 928.971412 241.758705 925.582893 237.835522 
C 922.194375 233.912339 919.487377 229.448725 917.574621 224.630552 
C 915.661866 219.812379 914.570277 214.707468 914.345311 209.528393 
C 914.120345 204.349319 914.765168 199.168982 916.252928 194.203099 
C 917.740689 189.237216 920.050445 184.555687 923.086016 180.353457 
C 926.121586 176.151228 929.840243 172.487448 934.087135 169.514683 
C 938.334027 166.541918 943.049375 164.302013 948.036826 162.888239 
C 953.024277 161.474466 958.213628 160.906725 963.388786 161.208659 
C 968.563943 161.510592 973.652064 162.677949 978.441269 164.66212 
C 983.230474 166.646291 987.653353 169.419347 991.525728 172.865812 
C 995.398104 176.312278 998.665471 180.383642 1001.19177 184.910367 
C 1003.718068 189.437092 1005.46774 194.355459 1006.367925 199.460662 
z
" style="fill: #092436; opacity: 0.5; stroke: #092436; stroke-width: 4; stroke-linejoin: miter"/>
   </g>
   <g id="patch_22">
    <path d="M 1035.795272 276.447409 
C 1039.113719 272.932856 1042.152407 269.164335 1044.883595 265.17625 
C 1047.614784 261.188165 1050.030117 256.992696 1052.107515 252.628224 
L 1010.22443 232.692767 
C 1009.185731 234.875003 1007.978065 236.972738 1006.612471 238.96678 
C 1005.246877 240.960822 1003.727532 242.845083 1002.068309 244.60236 
z
" style="fill: #4d2604; opacity: 0.5; stroke: #4d2604; stroke-width: 4; stroke-linejoin: miter"/>
   </g>
   <g id="patch_23">
    <path d="M 1053.227312 250.399822 
C 1054.735024 247.232219 1056.061842 243.981667 1057.201384 240.663788 
C 1058.340926 237.345908 1059.291362 233.966036 1060.048097 230.540507 
L 1014.75462 220.534708 
C 1014.376252 222.247472 1013.901035 223.937408 1013.331264 225.596348 
C 1012.761493 227.255288 1012.098084 228.880564 1011.344227 230.464365 
z
" style="fill: #0d300d; opacity: 0.5; stroke: #0d300d; stroke-width: 4; stroke-linejoin: miter"/>
   </g>
   <g id="patch_24">
    <path d="M 1060.486818 228.617855 
C 1061.151087 225.610904 1061.665222 222.572743 1062.027316 219.514657 
C 1062.38941 216.456571 1062.599014 213.382351 1062.65535 210.303417 
L 1016.277607 209.454837 
C 1016.249439 210.994303 1016.144637 212.531413 1015.96359 214.060456 
C 1015.782543 215.5895 1015.525476 217.10858 1015.193341 218.612055 
z
" style="fill: #400c0c; opacity: 0.5; stroke: #400c0c; stroke-width: 4; stroke-linejoin: miter"/>
   </g>
   <g id="patch_25">
    <path d="M 1062.691412 208.488597 
C 1062.745967 205.50704 1062.65673 202.524589 1062.424012 199.551628 
C 1062.191294 196.578667 1061.815366 193.618656 1061.297537 190.681905 
L 1015.616732 198.73667 
C 1015.875646 200.205045 1016.063611 201.685051 1016.17997 203.171531 
C 1016.296329 204.658012 1016.340947 206.149238 1016.313669 207.640016 
z
" style="fill: #2c1f39; opacity: 0.5; stroke: #2c1f39; stroke-width: 4; stroke-linejoin: miter"/>
   </g>
   <g id="patch_26">
    <path d="M 1053.904151 189.550483 
C 1052.103781 179.340078 1048.604439 169.503343 1043.551841 160.449894 
C 1038.499243 151.396444 1031.96451 143.253716 1024.219759 136.360784 
C 1016.475007 129.467853 1007.62925 123.921742 998.050839 119.9534 
C 988.472429 115.985058 978.296188 113.650343 967.945873 113.046477 
C 957.595557 112.44261 947.216856 113.578092 937.241954 116.405638 
C 927.267052 119.233185 917.836355 123.712996 909.342571 129.658525 
C 900.848787 135.604055 893.411474 142.931615 887.340333 151.336074 
C 881.269191 159.740533 876.649679 169.103592 873.674158 179.035357 
C 870.698637 188.967123 869.408992 199.327797 869.858924 209.685946 
C 870.308856 220.044095 872.492033 230.253918 876.317544 239.890264 
C 880.143055 249.526609 885.557052 258.453837 892.334089 266.300203 
C 899.111125 274.146569 907.155809 280.80163 916.133146 285.988257 
C 925.110483 291.174885 934.89411 294.820074 945.076622 296.772032 
C 955.259133 298.723991 965.697202 298.955244 975.956171 297.456161 
C 986.21514 295.957078 996.150604 292.748761 1005.348837 287.964809 
C 1014.54707 283.180856 1022.878598 276.888607 1029.996483 269.350079 
L 996.269511 237.505039 
C 992.710568 241.274303 988.544804 244.420428 983.945688 246.812404 
C 979.346572 249.204381 974.378839 250.808539 969.249355 251.558081 
C 964.119871 252.307622 958.900836 252.191995 953.80958 251.216016 
C 948.718324 250.240037 943.826511 248.417443 939.337842 245.824129 
C 934.849174 243.230815 930.826832 239.903285 927.438314 235.980102 
C 924.049795 232.056918 921.342797 227.593305 919.430041 222.775132 
C 917.517286 217.956959 916.425697 212.852047 916.200731 207.672973 
C 915.975765 202.493898 916.620588 197.313561 918.108348 192.347679 
C 919.596109 187.381796 921.905865 182.700267 924.941436 178.498037 
C 927.977006 174.295808 931.695663 170.632028 935.942555 167.659263 
C 940.189447 164.686498 944.904795 162.446592 949.892246 161.032819 
C 954.879697 159.619046 960.069048 159.051305 965.244206 159.353238 
C 970.419364 159.655172 975.507484 160.822529 980.296689 162.8067 
C 985.085895 164.790871 989.508773 167.563926 993.381149 171.010392 
C 997.253525 174.456858 1000.520891 178.528222 1003.04719 183.054947 
C 1005.573489 187.581672 1007.32316 192.500039 1008.223345 197.605241 
z
" style="fill: #1f77b4; stroke: #ffffff; stroke-width: 4; stroke-linejoin: miter"/>
   </g>
   <g id="patch_27">
    <path d="M 1037.650692 274.591989 
C 1040.969139 271.077436 1044.007827 267.308914 1046.739016 263.32083 
C 1049.470204 259.332745 1051.885537 255.137276 1053.962935 250.772803 
L 1012.079851 230.837347 
C 1011.041152 233.019583 1009.833485 235.117317 1008.467891 237.11136 
C 1007.102297 239.105402 1005.582953 240.989663 1003.923729 242.74694 
z
" style="fill: #ff7f0e; stroke: #ffffff; stroke-width: 4; stroke-linejoin: miter"/>
   </g>
   <g id="patch_28">
    <path d="M 1055.082732 248.544401 
C 1056.590445 245.376799 1057.917263 242.126247 1059.056805 238.808367 
C 1060.196347 235.490487 1061.146782 232.110615 1061.903517 228.685087 
L 1016.61004 218.679287 
C 1016.231673 220.392052 1015.756455 222.081988 1015.186684 223.740928 
C 1014.616913 225.399868 1013.953504 227.025143 1013.199647 228.608945 
z
" style="fill: #2ca02c; stroke: #ffffff; stroke-width: 4; stroke-linejoin: miter"/>
   </g>
   <g id="patch_29">
    <path d="M 1062.342239 226.762435 
C 1063.006508 223.755483 1063.520643 220.717323 1063.882736 217.659237 
C 1064.24483 214.60115 1064.454434 211.526931 1064.51077 208.447997 
L 1018.133027 207.599416 
C 1018.10486 209.138883 1018.000057 210.675993 1017.819011 212.205036 
C 1017.637964 213.734079 1017.380896 215.253159 1017.048762 216.756635 
z
" style="fill: #d62728; stroke: #ffffff; stroke-width: 4; stroke-linejoin: miter"/>
   </g>
   <g id="patch_30">
    <path d="M 1064.546832 206.633176 
C 1064.601387 203.65162 1064.512151 200.669168 1064.279433 197.696208 
C 1064.046715 194.723246 1063.670786 191.763236 1063.152957 188.826485 
L 1017.472152 196.88125 
C 1017.731066 198.349625 1017.919031 199.829631 1018.03539 201.316111 
C 1018.151749 202.802592 1018.196367 204.293817 1018.16909 205.784596 
z
" style="fill: #9467bd; stroke: #ffffff; stroke-width: 4; stroke-linejoin: miter"/>
   </g>
   <g id="matplotlib.axis_3"/>
   <g id="matplotlib.axis_4"/>
   <g id="text_19">
    <!-- Languages -->
    <g style="fill: #2a475e" transform="translate(931.964414 208.34125) scale(0.1 -0.1)">
     <use xlink:href="#DejaVuSans-Bold-4c"/>
     <use xlink:href="#DejaVuSans-Bold-61" x="63.720703"/>
     <use xlink:href="#DejaVuSans-Bold-6e" x="131.201172"/>
     <use xlink:href="#DejaVuSans-Bold-67" x="202.392578"/>
     <use xlink:href="#DejaVuSans-Bold-75" x="273.974609"/>
     <use xlink:href="#DejaVuSans-Bold-61" x="345.166016"/>
     <use xlink:href="#DejaVuSans-Bold-67" x="412.646484"/>
     <use xlink:href="#DejaVuSans-Bold-65" x="484.228516"/>
     <use xlink:href="#DejaVuSans-Bold-73" x="552.050781"/>
    </g>
   </g>
   <g id="text_20">
    <!-- Languages exploited : -->
    <g style="fill: #2a475e" transform="translate(887.569726 83.696235) scale(0.12 -0.12)">
     <defs>
      <path id="DejaVuSans-Bold-78" d="M 1422 1791 
L 159 3500 
L 1344 3500 
L 2059 2463 
L 2784 3500 
L 3969 3500 
L 2706 1797 
L 4031 0 
L 2847 0 
L 2059 1106 
L 1281 0 
L 97 0 
L 1422 1791 
z
" transform="scale(0.015625)"/>
     </defs>
     <use xlink:href="#DejaVuSans-Bold-4c"/>
     <use xlink:href="#DejaVuSans-Bold-61" x="63.720703"/>
     <use xlink:href="#DejaVuSans-Bold-6e" x="131.201172"/>
     <use xlink:href="#DejaVuSans-Bold-67" x="202.392578"/>
     <use xlink:href="#DejaVuSans-Bold-75" x="273.974609"/>
     <use xlink:href="#DejaVuSans-Bold-61" x="345.166016"/>
     <use xlink:href="#DejaVuSans-Bold-67" x="412.646484"/>
     <use xlink:href="#DejaVuSans-Bold-65" x="484.228516"/>
     <use xlink:href="#DejaVuSans-Bold-73" x="552.050781"/>
     <use xlink:href="#DejaVuSans-Bold-20" x="611.572266"/>
     <use xlink:href="#DejaVuSans-Bold-65" x="646.386719"/>
     <use xlink:href="#DejaVuSans-Bold-78" x="714.208984"/>
     <use xlink:href="#DejaVuSans-Bold-70" x="778.710938"/>
     <use xlink:href="#DejaVuSans-Bold-6c" x="850.292969"/>
     <use xlink:href="#DejaVuSans-Bold-6f" x="884.570312"/>
     <use xlink:href="#DejaVuSans-Bold-69" x="953.271484"/>
     <use xlink:href="#DejaVuSans-Bold-74" x="987.548828"/>
     <use xlink:href="#DejaVuSans-Bold-65" x="1035.351562"/>
     <use xlink:href="#DejaVuSans-Bold-64" x="1103.173828"/>
     <use xlink:href="#DejaVuSans-Bold-20" x="1174.755859"/>
     <use xlink:href="#DejaVuSans-Bold-3a" x="1209.570312"/>
    </g>
   </g>
  </g>
  <g id="text_21">
   <!-- From 20 June, 2025 to 20 July, 2025: 78 hrs 23 mins -->
   <g transform="translate(141.750781 29.995312) scale(0.3 -0.3)">
    <defs>
     <path id="DejaVuSans-Bold-46" d="M 588 4666 
L 3834 4666 
L 3834 3756 
L 1791 3756 
L 1791 2888 
L 3713 2888 
L 3713 1978 
L 1791 1978 
L 1791 0 
L 588 0 
L 588 4666 
z
" transform="scale(0.015625)"/>
     <path id="DejaVuSans-Bold-4a" d="M 588 4666 
L 1791 4666 
L 1791 453 
Q 1791 -419 1317 -850 
Q 844 -1281 -116 -1281 
L -359 -1281 
L -359 -372 
L -172 -372 
Q 203 -372 395 -162 
Q 588 47 588 453 
L 588 4666 
z
" transform="scale(0.015625)"/>
     <path id="DejaVuSans-Bold-2c" d="M 653 1209 
L 1778 1209 
L 1778 256 
L 1006 -909 
L 341 -909 
L 653 256 
L 653 1209 
z
" transform="scale(0.015625)"/>
     <path id="DejaVuSans-Bold-37" d="M 428 4666 
L 3944 4666 
L 3944 3988 
L 2125 0 
L 953 0 
L 2675 3781 
L 428 3781 
L 428 4666 
z
" transform="scale(0.015625)"/>
    </defs>
    <use xlink:href="#DejaVuSans-Bold-46"/>
    <use xlink:href="#DejaVuSans-Bold-72" x="61.935547"/>
    <use xlink:href="#DejaVuSans-Bold-6f" x="111.251953"/>
    <use xlink:href="#DejaVuSans-Bold-6d" x="179.953125"/>
    <use xlink:href="#DejaVuSans-Bold-20" x="284.152344"/>
    <use xlink:href="#DejaVuSans-Bold-32" x="318.966797"/>
    <use xlink:href="#DejaVuSans-Bold-30" x="388.546875"/>
    <use xlink:href="#DejaVuSans-Bold-20" x="458.126953"/>
    <use xlink:href="#DejaVuSans-Bold-4a" x="492.941406"/>
    <use xlink:href="#DejaVuSans-Bold-75" x="530.148438"/>
    <use xlink:href="#DejaVuSans-Bold-6e" x="601.339844"/>
    <use xlink:href="#DejaVuSans-Bold-65" x="672.53125"/>
    <use xlink:href="#DejaVuSans-Bold-2c" x="740.353516"/>
    <use xlink:href="#DejaVuSans-Bold-20" x="778.341797"/>
    <use xlink:href="#DejaVuSans-Bold-32" x="813.15625"/>
    <use xlink:href="#DejaVuSans-Bold-30" x="882.736328"/>
    <use xlink:href="#DejaVuSans-Bold-32" x="952.316406"/>
    <use xlink:href="#DejaVuSans-Bold-35" x="1021.896484"/>
    <use xlink:href="#DejaVuSans-Bold-20" x="1091.476562"/>
    <use xlink:href="#DejaVuSans-Bold-74" x="1126.291016"/>
    <use xlink:href="#DejaVuSans-Bold-6f" x="1174.09375"/>
    <use xlink:href="#DejaVuSans-Bold-20" x="1242.794922"/>
    <use xlink:href="#DejaVuSans-Bold-32" x="1277.609375"/>
    <use xlink:href="#DejaVuSans-Bold-30" x="1347.189453"/>
    <use xlink:href="#DejaVuSans-Bold-20" x="1416.769531"/>
    <use xlink:href="#DejaVuSans-Bold-4a" x="1451.583984"/>
    <use xlink:href="#DejaVuSans-Bold-75" x="1488.791016"/>
    <use xlink:href="#DejaVuSans-Bold-6c" x="1559.982422"/>
    <use xlink:href="#DejaVuSans-Bold-79" x="1594.259766"/>
    <use xlink:href="#DejaVuSans-Bold-2c" x="1651.695312"/>
    <use xlink:href="#DejaVuSans-Bold-20" x="1689.683594"/>
    <use xlink:href="#DejaVuSans-Bold-32" x="1724.498047"/>
    <use xlink:href="#DejaVuSans-Bold-30" x="1794.078125"/>
    <use xlink:href="#DejaVuSans-Bold-32" x="1863.658203"/>
    <use xlink:href="#DejaVuSans-Bold-35" x="1933.238281"/>
    <use xlink:href="#DejaVuSans-Bold-3a" x="2002.818359"/>
    <use xlink:href="#DejaVuSans-Bold-20" x="2042.808594"/>
    <use xlink:href="#DejaVuSans-Bold-37" x="2077.623047"/>
    <use xlink:href="#DejaVuSans-Bold-38" x="2147.203125"/>
    <use xlink:href="#DejaVuSans-Bold-20" x="2216.783203"/>
    <use xlink:href="#DejaVuSans-Bold-68" x="2251.597656"/>
    <use xlink:href="#DejaVuSans-Bold-72" x="2322.789062"/>
    <use xlink:href="#DejaVuSans-Bold-73" x="2372.105469"/>
    <use xlink:href="#DejaVuSans-Bold-20" x="2431.626953"/>
    <use xlink:href="#DejaVuSans-Bold-32" x="2466.441406"/>
    <use xlink:href="#DejaVuSans-Bold-33" x="2536.021484"/>
    <use xlink:href="#DejaVuSans-Bold-20" x="2605.601562"/>
    <use xlink:href="#DejaVuSans-Bold-6d" x="2640.416016"/>
    <use xlink:href="#DejaVuSans-Bold-69" x="2744.615234"/>
    <use xlink:href="#DejaVuSans-Bold-6e" x="2778.892578"/>
    <use xlink:href="#DejaVuSans-Bold-73" x="2850.083984"/>
   </g>
  </g>
 </g>
 <defs>
  <clipPath id="p14130f8e7e">
   <rect x="215.778125" y="56.32" width="463.855061" height="298.68"/>
  </clipPath>
 </defs>
</svg>
