<?xml version="1.0" encoding="utf-8" standalone="no"?>
<!DOCTYPE svg PUBLIC "-//W3C//DTD SVG 1.1//EN"
  "http://www.w3.org/Graphics/SVG/1.1/DTD/svg11.dtd">
<svg xmlns:xlink="http://www.w3.org/1999/xlink" width="1156.093208pt" height="362.2pt" viewBox="0 0 1156.093208 362.2" xmlns="http://www.w3.org/2000/svg" version="1.1">
 <metadata>
  <rdf:RDF xmlns:dc="http://purl.org/dc/elements/1.1/" xmlns:cc="http://creativecommons.org/ns#" xmlns:rdf="http://www.w3.org/1999/02/22-rdf-syntax-ns#">
   <cc:Work>
    <dc:type rdf:resource="http://purl.org/dc/dcmitype/StillImage"/>
    <dc:date>2026-03-28T01:02:11.307056</dc:date>
    <dc:format>image/svg+xml</dc:format>
    <dc:creator>
     <cc:Agent>
      <dc:title>Matplotlib v3.9.1.post1, https://matplotlib.org/</dc:title>
     </cc:Agent>
    </dc:creator>
   </cc:Work>
  </rdf:RDF>
 </metadata>
 <defs>
  <style type="text/css">*{stroke-linejoin: round; stroke-linecap: butt}</style>
 </defs>
 <g id="figure_1">
  <g id="patch_1">
   <path d="M 0 362.2 
L 1156.093208 362.2 
L 1156.093208 0 
L 0 0 
L 0 362.2 
z
" style="fill: none"/>
  </g>
  <g id="axes_1">
   <g id="patch_2">
    <path d="M 144.50625 355 
L 670.101311 355 
L 670.101311 56.32 
L 144.50625 56.32 
L 144.50625 355 
z
" style="fill: none"/>
   </g>
   <g id="patch_3">
    <path d="M 144.50625 69.896364 
L 645.072975 69.896364 
L 645.072975 94.580661 
L 144.50625 94.580661 
z
" clip-path="url(#p7064fb814c)" style="fill: #28d482; stroke: #28d482; stroke-linejoin: miter"/>
   </g>
   <g id="patch_4">
    <path d="M 144.50625 119.264959 
L 327.939269 119.264959 
L 327.939269 143.949256 
L 144.50625 143.949256 
z
" clip-path="url(#p7064fb814c)" style="fill: #5b2b2b; stroke: #5b2b2b; stroke-linejoin: miter"/>
   </g>
   <g id="patch_5">
    <path d="M 144.50625 168.633554 
L 312.352868 168.633554 
L 312.352868 193.317851 
L 144.50625 193.317851 
z
" clip-path="url(#p7064fb814c)" style="fill: #ac6a9b; stroke: #ac6a9b; stroke-linejoin: miter"/>
   </g>
   <g id="patch_6">
    <path d="M 144.50625 218.002149 
L 184.688532 218.002149 
L 184.688532 242.686446 
L 144.50625 242.686446 
z
" clip-path="url(#p7064fb814c)" style="fill: #330209; stroke: #330209; stroke-linejoin: miter"/>
   </g>
   <g id="patch_7">
    <path d="M 144.50625 267.370744 
L 149.461464 267.370744 
L 149.461464 292.055041 
L 144.50625 292.055041 
z
" clip-path="url(#p7064fb814c)" style="fill: #c60932; stroke: #c60932; stroke-linejoin: miter"/>
   </g>
   <g id="patch_8">
    <path d="M 144.50625 316.739339 
L 146.668525 316.739339 
L 146.668525 341.423636 
L 144.50625 341.423636 
z
" clip-path="url(#p7064fb814c)" style="fill: #d990af; stroke: #d990af; stroke-linejoin: miter"/>
   </g>
   <g id="matplotlib.axis_1"/>
   <g id="matplotlib.axis_2">
    <g id="ytick_1">
     <g id="line2d_1">
      <defs>
       <path id="m5d21d499e1" d="M 0 0 
L -3.5 0 
" style="stroke: #000000; stroke-width: 0.8"/>
      </defs>
      <g>
       <use xlink:href="#m5d21d499e1" x="144.50625" y="82.238512" style="stroke: #000000; stroke-width: 0.8"/>
      </g>
     </g>
     <g id="text_1">
      <!-- Commitor -->
      <g style="fill: #586069" transform="translate(27.3875 89.83695) scale(0.2 -0.2)">
       <defs>
        <path id="DejaVuSans-Bold-43" d="M 4288 256 
Q 3956 84 3597 -3 
Q 3238 -91 2847 -91 
Q 1681 -91 1000 561 
Q 319 1213 319 2328 
Q 319 3447 1000 4098 
Q 1681 4750 2847 4750 
Q 3238 4750 3597 4662 
Q 3956 4575 4288 4403 
L 4288 3438 
Q 3953 3666 3628 3772 
Q 3303 3878 2944 3878 
Q 2300 3878 1931 3465 
Q 1563 3053 1563 2328 
Q 1563 1606 1931 1193 
Q 2300 781 2944 781 
Q 3303 781 3628 887 
Q 3953 994 4288 1222 
L 4288 256 
z
" transform="scale(0.015625)"/>
        <path id="DejaVuSans-Bold-6f" d="M 2203 2784 
Q 1831 2784 1636 2517 
Q 1441 2250 1441 1747 
Q 1441 1244 1636 976 
Q 1831 709 2203 709 
Q 2569 709 2762 976 
Q 2956 1244 2956 1747 
Q 2956 2250 2762 2517 
Q 2569 2784 2203 2784 
z
M 2203 3584 
Q 3106 3584 3614 3096 
Q 4122 2609 4122 1747 
Q 4122 884 3614 396 
Q 3106 -91 2203 -91 
Q 1297 -91 786 396 
Q 275 884 275 1747 
Q 275 2609 786 3096 
Q 1297 3584 2203 3584 
z
" transform="scale(0.015625)"/>
        <path id="DejaVuSans-Bold-6d" d="M 3781 2919 
Q 3994 3244 4286 3414 
Q 4578 3584 4928 3584 
Q 5531 3584 5847 3212 
Q 6163 2841 6163 2131 
L 6163 0 
L 5038 0 
L 5038 1825 
Q 5041 1866 5042 1909 
Q 5044 1953 5044 2034 
Q 5044 2406 4934 2573 
Q 4825 2741 4581 2741 
Q 4263 2741 4089 2478 
Q 3916 2216 3909 1719 
L 3909 0 
L 2784 0 
L 2784 1825 
Q 2784 2406 2684 2573 
Q 2584 2741 2328 2741 
Q 2006 2741 1831 2477 
Q 1656 2213 1656 1722 
L 1656 0 
L 531 0 
L 531 3500 
L 1656 3500 
L 1656 2988 
Q 1863 3284 2130 3434 
Q 2397 3584 2719 3584 
Q 3081 3584 3359 3409 
Q 3638 3234 3781 2919 
z
" transform="scale(0.015625)"/>
        <path id="DejaVuSans-Bold-69" d="M 538 3500 
L 1656 3500 
L 1656 0 
L 538 0 
L 538 3500 
z
M 538 4863 
L 1656 4863 
L 1656 3950 
L 538 3950 
L 538 4863 
z
" transform="scale(0.015625)"/>
        <path id="DejaVuSans-Bold-74" d="M 1759 4494 
L 1759 3500 
L 2913 3500 
L 2913 2700 
L 1759 2700 
L 1759 1216 
Q 1759 972 1856 886 
Q 1953 800 2241 800 
L 2816 800 
L 2816 0 
L 1856 0 
Q 1194 0 917 276 
Q 641 553 641 1216 
L 641 2700 
L 84 2700 
L 84 3500 
L 641 3500 
L 641 4494 
L 1759 4494 
z
" transform="scale(0.015625)"/>
        <path id="DejaVuSans-Bold-72" d="M 3138 2547 
Q 2991 2616 2845 2648 
Q 2700 2681 2553 2681 
Q 2122 2681 1889 2404 
Q 1656 2128 1656 1613 
L 1656 0 
L 538 0 
L 538 3500 
L 1656 3500 
L 1656 2925 
Q 1872 3269 2151 3426 
Q 2431 3584 2822 3584 
Q 2878 3584 2943 3579 
Q 3009 3575 3134 3559 
L 3138 2547 
z
" transform="scale(0.015625)"/>
       </defs>
       <use xlink:href="#DejaVuSans-Bold-43"/>
       <use xlink:href="#DejaVuSans-Bold-6f" x="73.388672"/>
       <use xlink:href="#DejaVuSans-Bold-6d" x="142.089844"/>
       <use xlink:href="#DejaVuSans-Bold-6d" x="246.289062"/>
       <use xlink:href="#DejaVuSans-Bold-69" x="350.488281"/>
       <use xlink:href="#DejaVuSans-Bold-74" x="384.765625"/>
       <use xlink:href="#DejaVuSans-Bold-6f" x="432.568359"/>
       <use xlink:href="#DejaVuSans-Bold-72" x="501.269531"/>
      </g>
     </g>
    </g>
    <g id="ytick_2">
     <g id="line2d_2">
      <g>
       <use xlink:href="#m5d21d499e1" x="144.50625" y="131.607107" style="stroke: #000000; stroke-width: 0.8"/>
      </g>
     </g>
     <g id="text_2">
      <!-- Nucleation -->
      <g style="fill: #586069" transform="translate(16.3625 139.205545) scale(0.2 -0.2)">
       <defs>
        <path id="DejaVuSans-Bold-4e" d="M 588 4666 
L 1931 4666 
L 3628 1466 
L 3628 4666 
L 4769 4666 
L 4769 0 
L 3425 0 
L 1728 3200 
L 1728 0 
L 588 0 
L 588 4666 
z
" transform="scale(0.015625)"/>
        <path id="DejaVuSans-Bold-75" d="M 500 1363 
L 500 3500 
L 1625 3500 
L 1625 3150 
Q 1625 2866 1622 2436 
Q 1619 2006 1619 1863 
Q 1619 1441 1641 1255 
Q 1663 1069 1716 984 
Q 1784 875 1895 815 
Q 2006 756 2150 756 
Q 2500 756 2700 1025 
Q 2900 1294 2900 1772 
L 2900 3500 
L 4019 3500 
L 4019 0 
L 2900 0 
L 2900 506 
Q 2647 200 2364 54 
Q 2081 -91 1741 -91 
Q 1134 -91 817 281 
Q 500 653 500 1363 
z
" transform="scale(0.015625)"/>
        <path id="DejaVuSans-Bold-63" d="M 3366 3391 
L 3366 2478 
Q 3138 2634 2908 2709 
Q 2678 2784 2431 2784 
Q 1963 2784 1702 2511 
Q 1441 2238 1441 1747 
Q 1441 1256 1702 982 
Q 1963 709 2431 709 
Q 2694 709 2930 787 
Q 3166 866 3366 1019 
L 3366 103 
Q 3103 6 2833 -42 
Q 2563 -91 2291 -91 
Q 1344 -91 809 395 
Q 275 881 275 1747 
Q 275 2613 809 3098 
Q 1344 3584 2291 3584 
Q 2566 3584 2833 3536 
Q 3100 3488 3366 3391 
z
" transform="scale(0.015625)"/>
        <path id="DejaVuSans-Bold-6c" d="M 538 4863 
L 1656 4863 
L 1656 0 
L 538 0 
L 538 4863 
z
" transform="scale(0.015625)"/>
        <path id="DejaVuSans-Bold-65" d="M 4031 1759 
L 4031 1441 
L 1416 1441 
Q 1456 1047 1700 850 
Q 1944 653 2381 653 
Q 2734 653 3104 758 
Q 3475 863 3866 1075 
L 3866 213 
Q 3469 63 3072 -14 
Q 2675 -91 2278 -91 
Q 1328 -91 801 392 
Q 275 875 275 1747 
Q 275 2603 792 3093 
Q 1309 3584 2216 3584 
Q 3041 3584 3536 3087 
Q 4031 2591 4031 1759 
z
M 2881 2131 
Q 2881 2450 2695 2645 
Q 2509 2841 2209 2841 
Q 1884 2841 1681 2658 
Q 1478 2475 1428 2131 
L 2881 2131 
z
" transform="scale(0.015625)"/>
        <path id="DejaVuSans-Bold-61" d="M 2106 1575 
Q 1756 1575 1579 1456 
Q 1403 1338 1403 1106 
Q 1403 894 1545 773 
Q 1688 653 1941 653 
Q 2256 653 2472 879 
Q 2688 1106 2688 1447 
L 2688 1575 
L 2106 1575 
z
M 3816 1997 
L 3816 0 
L 2688 0 
L 2688 519 
Q 2463 200 2181 54 
Q 1900 -91 1497 -91 
Q 953 -91 614 226 
Q 275 544 275 1050 
Q 275 1666 698 1953 
Q 1122 2241 2028 2241 
L 2688 2241 
L 2688 2328 
Q 2688 2594 2478 2717 
Q 2269 2841 1825 2841 
Q 1466 2841 1156 2769 
Q 847 2697 581 2553 
L 581 3406 
Q 941 3494 1303 3539 
Q 1666 3584 2028 3584 
Q 2975 3584 3395 3211 
Q 3816 2838 3816 1997 
z
" transform="scale(0.015625)"/>
        <path id="DejaVuSans-Bold-6e" d="M 4056 2131 
L 4056 0 
L 2931 0 
L 2931 347 
L 2931 1631 
Q 2931 2084 2911 2256 
Q 2891 2428 2841 2509 
Q 2775 2619 2662 2680 
Q 2550 2741 2406 2741 
Q 2056 2741 1856 2470 
Q 1656 2200 1656 1722 
L 1656 0 
L 538 0 
L 538 3500 
L 1656 3500 
L 1656 2988 
Q 1909 3294 2193 3439 
Q 2478 3584 2822 3584 
Q 3428 3584 3742 3212 
Q 4056 2841 4056 2131 
z
" transform="scale(0.015625)"/>
       </defs>
       <use xlink:href="#DejaVuSans-Bold-4e"/>
       <use xlink:href="#DejaVuSans-Bold-75" x="83.691406"/>
       <use xlink:href="#DejaVuSans-Bold-63" x="154.882812"/>
       <use xlink:href="#DejaVuSans-Bold-6c" x="214.160156"/>
       <use xlink:href="#DejaVuSans-Bold-65" x="248.4375"/>
       <use xlink:href="#DejaVuSans-Bold-61" x="316.259766"/>
       <use xlink:href="#DejaVuSans-Bold-74" x="383.740234"/>
       <use xlink:href="#DejaVuSans-Bold-69" x="431.542969"/>
       <use xlink:href="#DejaVuSans-Bold-6f" x="465.820312"/>
       <use xlink:href="#DejaVuSans-Bold-6e" x="534.521484"/>
      </g>
     </g>
    </g>
    <g id="ytick_3">
     <g id="line2d_3">
      <g>
       <use xlink:href="#m5d21d499e1" x="144.50625" y="180.975702" style="stroke: #000000; stroke-width: 0.8"/>
      </g>
     </g>
     <g id="text_3">
      <!-- PathGennie -->
      <g style="fill: #586069" transform="translate(7.2 188.57414) scale(0.2 -0.2)">
       <defs>
        <path id="DejaVuSans-Bold-50" d="M 588 4666 
L 2584 4666 
Q 3475 4666 3951 4270 
Q 4428 3875 4428 3144 
Q 4428 2409 3951 2014 
Q 3475 1619 2584 1619 
L 1791 1619 
L 1791 0 
L 588 0 
L 588 4666 
z
M 1791 3794 
L 1791 2491 
L 2456 2491 
Q 2806 2491 2997 2661 
Q 3188 2831 3188 3144 
Q 3188 3456 2997 3625 
Q 2806 3794 2456 3794 
L 1791 3794 
z
" transform="scale(0.015625)"/>
        <path id="DejaVuSans-Bold-68" d="M 4056 2131 
L 4056 0 
L 2931 0 
L 2931 347 
L 2931 1625 
Q 2931 2084 2911 2256 
Q 2891 2428 2841 2509 
Q 2775 2619 2662 2680 
Q 2550 2741 2406 2741 
Q 2056 2741 1856 2470 
Q 1656 2200 1656 1722 
L 1656 0 
L 538 0 
L 538 4863 
L 1656 4863 
L 1656 2988 
Q 1909 3294 2193 3439 
Q 2478 3584 2822 3584 
Q 3428 3584 3742 3212 
Q 4056 2841 4056 2131 
z
" transform="scale(0.015625)"/>
        <path id="DejaVuSans-Bold-47" d="M 4781 347 
Q 4331 128 3847 18 
Q 3363 -91 2847 -91 
Q 1681 -91 1000 561 
Q 319 1213 319 2328 
Q 319 3456 1012 4103 
Q 1706 4750 2913 4750 
Q 3378 4750 3804 4662 
Q 4231 4575 4609 4403 
L 4609 3438 
Q 4219 3659 3833 3768 
Q 3447 3878 3059 3878 
Q 2341 3878 1952 3476 
Q 1563 3075 1563 2328 
Q 1563 1588 1938 1184 
Q 2313 781 3003 781 
Q 3191 781 3352 804 
Q 3513 828 3641 878 
L 3641 1784 
L 2906 1784 
L 2906 2591 
L 4781 2591 
L 4781 347 
z
" transform="scale(0.015625)"/>
       </defs>
       <use xlink:href="#DejaVuSans-Bold-50"/>
       <use xlink:href="#DejaVuSans-Bold-61" x="70.666016"/>
       <use xlink:href="#DejaVuSans-Bold-74" x="138.146484"/>
       <use xlink:href="#DejaVuSans-Bold-68" x="185.949219"/>
       <use xlink:href="#DejaVuSans-Bold-47" x="257.140625"/>
       <use xlink:href="#DejaVuSans-Bold-65" x="339.220703"/>
       <use xlink:href="#DejaVuSans-Bold-6e" x="407.042969"/>
       <use xlink:href="#DejaVuSans-Bold-6e" x="478.234375"/>
       <use xlink:href="#DejaVuSans-Bold-69" x="549.425781"/>
       <use xlink:href="#DejaVuSans-Bold-65" x="583.703125"/>
      </g>
     </g>
    </g>
    <g id="ytick_4">
     <g id="line2d_4">
      <g>
       <use xlink:href="#m5d21d499e1" x="144.50625" y="230.344298" style="stroke: #000000; stroke-width: 0.8"/>
      </g>
     </g>
     <g id="text_4">
      <!-- Sanket -->
      <g style="fill: #586069" transform="translate(59.46875 237.942735) scale(0.2 -0.2)">
       <defs>
        <path id="DejaVuSans-Bold-53" d="M 3834 4519 
L 3834 3531 
Q 3450 3703 3084 3790 
Q 2719 3878 2394 3878 
Q 1963 3878 1756 3759 
Q 1550 3641 1550 3391 
Q 1550 3203 1689 3098 
Q 1828 2994 2194 2919 
L 2706 2816 
Q 3484 2659 3812 2340 
Q 4141 2022 4141 1434 
Q 4141 663 3683 286 
Q 3225 -91 2284 -91 
Q 1841 -91 1394 -6 
Q 947 78 500 244 
L 500 1259 
Q 947 1022 1364 901 
Q 1781 781 2169 781 
Q 2563 781 2772 912 
Q 2981 1044 2981 1288 
Q 2981 1506 2839 1625 
Q 2697 1744 2272 1838 
L 1806 1941 
Q 1106 2091 782 2419 
Q 459 2747 459 3303 
Q 459 4000 909 4375 
Q 1359 4750 2203 4750 
Q 2588 4750 2994 4692 
Q 3400 4634 3834 4519 
z
" transform="scale(0.015625)"/>
        <path id="DejaVuSans-Bold-6b" d="M 538 4863 
L 1656 4863 
L 1656 2216 
L 2944 3500 
L 4244 3500 
L 2534 1894 
L 4378 0 
L 3022 0 
L 1656 1459 
L 1656 0 
L 538 0 
L 538 4863 
z
" transform="scale(0.015625)"/>
       </defs>
       <use xlink:href="#DejaVuSans-Bold-53"/>
       <use xlink:href="#DejaVuSans-Bold-61" x="72.021484"/>
       <use xlink:href="#DejaVuSans-Bold-6e" x="139.501953"/>
       <use xlink:href="#DejaVuSans-Bold-6b" x="210.693359"/>
       <use xlink:href="#DejaVuSans-Bold-65" x="274.572266"/>
       <use xlink:href="#DejaVuSans-Bold-74" x="342.394531"/>
      </g>
     </g>
    </g>
    <g id="ytick_5">
     <g id="line2d_5">
      <g>
       <use xlink:href="#m5d21d499e1" x="144.50625" y="279.712893" style="stroke: #000000; stroke-width: 0.8"/>
      </g>
     </g>
     <g id="text_5">
      <!-- Crystals -->
      <g style="fill: #586069" transform="translate(46.209375 287.31133) scale(0.2 -0.2)">
       <defs>
        <path id="DejaVuSans-Bold-79" d="M 78 3500 
L 1197 3500 
L 2138 1125 
L 2938 3500 
L 4056 3500 
L 2584 -331 
Q 2363 -916 2067 -1148 
Q 1772 -1381 1288 -1381 
L 641 -1381 
L 641 -647 
L 991 -647 
Q 1275 -647 1404 -556 
Q 1534 -466 1606 -231 
L 1638 -134 
L 78 3500 
z
" transform="scale(0.015625)"/>
        <path id="DejaVuSans-Bold-73" d="M 3272 3391 
L 3272 2541 
Q 2913 2691 2578 2766 
Q 2244 2841 1947 2841 
Q 1628 2841 1473 2761 
Q 1319 2681 1319 2516 
Q 1319 2381 1436 2309 
Q 1553 2238 1856 2203 
L 2053 2175 
Q 2913 2066 3209 1816 
Q 3506 1566 3506 1031 
Q 3506 472 3093 190 
Q 2681 -91 1863 -91 
Q 1516 -91 1145 -36 
Q 775 19 384 128 
L 384 978 
Q 719 816 1070 734 
Q 1422 653 1784 653 
Q 2113 653 2278 743 
Q 2444 834 2444 1013 
Q 2444 1163 2330 1236 
Q 2216 1309 1875 1350 
L 1678 1375 
Q 931 1469 631 1722 
Q 331 1975 331 2491 
Q 331 3047 712 3315 
Q 1094 3584 1881 3584 
Q 2191 3584 2531 3537 
Q 2872 3491 3272 3391 
z
" transform="scale(0.015625)"/>
       </defs>
       <use xlink:href="#DejaVuSans-Bold-43"/>
       <use xlink:href="#DejaVuSans-Bold-72" x="73.388672"/>
       <use xlink:href="#DejaVuSans-Bold-79" x="122.705078"/>
       <use xlink:href="#DejaVuSans-Bold-73" x="187.890625"/>
       <use xlink:href="#DejaVuSans-Bold-74" x="247.412109"/>
       <use xlink:href="#DejaVuSans-Bold-61" x="295.214844"/>
       <use xlink:href="#DejaVuSans-Bold-6c" x="362.695312"/>
       <use xlink:href="#DejaVuSans-Bold-73" x="396.972656"/>
      </g>
     </g>
    </g>
    <g id="ytick_6">
     <g id="line2d_6">
      <g>
       <use xlink:href="#m5d21d499e1" x="144.50625" y="329.081488" style="stroke: #000000; stroke-width: 0.8"/>
      </g>
     </g>
     <g id="text_6">
      <!-- WEPath -->
      <g style="fill: #586069" transform="translate(50.35625 336.679925) scale(0.2 -0.2)">
       <defs>
        <path id="DejaVuSans-Bold-57" d="M 191 4666 
L 1344 4666 
L 2150 1275 
L 2950 4666 
L 4109 4666 
L 4909 1275 
L 5716 4666 
L 6859 4666 
L 5759 0 
L 4372 0 
L 3525 3547 
L 2688 0 
L 1300 0 
L 191 4666 
z
" transform="scale(0.015625)"/>
        <path id="DejaVuSans-Bold-45" d="M 588 4666 
L 3834 4666 
L 3834 3756 
L 1791 3756 
L 1791 2888 
L 3713 2888 
L 3713 1978 
L 1791 1978 
L 1791 909 
L 3903 909 
L 3903 0 
L 588 0 
L 588 4666 
z
" transform="scale(0.015625)"/>
       </defs>
       <use xlink:href="#DejaVuSans-Bold-57"/>
       <use xlink:href="#DejaVuSans-Bold-45" x="110.302734"/>
       <use xlink:href="#DejaVuSans-Bold-50" x="178.613281"/>
       <use xlink:href="#DejaVuSans-Bold-61" x="249.279297"/>
       <use xlink:href="#DejaVuSans-Bold-74" x="316.759766"/>
       <use xlink:href="#DejaVuSans-Bold-68" x="364.5625"/>
      </g>
     </g>
    </g>
   </g>
   <g id="patch_9">
    <path d="M 144.50625 355 
L 144.50625 56.32 
" style="fill: none; stroke: #000000; stroke-width: 0.8; stroke-linejoin: miter; stroke-linecap: square"/>
   </g>
   <g id="patch_10">
    <path d="M 144.50625 355 
L 670.101311 355 
" style="fill: none; stroke: #000000; stroke-width: 0.8; stroke-linejoin: miter; stroke-linecap: square"/>
   </g>
   <g id="text_7">
    <!-- 39 hrs 22 mins -->
    <g style="fill: #586069" transform="translate(649.072975 86.377575) scale(0.15 -0.15)">
     <defs>
      <path id="DejaVuSans-Bold-33" d="M 2981 2516 
Q 3453 2394 3698 2092 
Q 3944 1791 3944 1325 
Q 3944 631 3412 270 
Q 2881 -91 1863 -91 
Q 1503 -91 1142 -33 
Q 781 25 428 141 
L 428 1069 
Q 766 900 1098 814 
Q 1431 728 1753 728 
Q 2231 728 2486 893 
Q 2741 1059 2741 1369 
Q 2741 1688 2480 1852 
Q 2219 2016 1709 2016 
L 1228 2016 
L 1228 2791 
L 1734 2791 
Q 2188 2791 2409 2933 
Q 2631 3075 2631 3366 
Q 2631 3634 2415 3781 
Q 2200 3928 1806 3928 
Q 1516 3928 1219 3862 
Q 922 3797 628 3669 
L 628 4550 
Q 984 4650 1334 4700 
Q 1684 4750 2022 4750 
Q 2931 4750 3382 4451 
Q 3834 4153 3834 3553 
Q 3834 3144 3618 2883 
Q 3403 2622 2981 2516 
z
" transform="scale(0.015625)"/>
      <path id="DejaVuSans-Bold-39" d="M 641 103 
L 641 966 
Q 928 831 1190 764 
Q 1453 697 1709 697 
Q 2247 697 2547 995 
Q 2847 1294 2900 1881 
Q 2688 1725 2447 1647 
Q 2206 1569 1925 1569 
Q 1209 1569 770 1986 
Q 331 2403 331 3084 
Q 331 3838 820 4291 
Q 1309 4744 2131 4744 
Q 3044 4744 3544 4128 
Q 4044 3513 4044 2388 
Q 4044 1231 3459 570 
Q 2875 -91 1856 -91 
Q 1528 -91 1228 -42 
Q 928 6 641 103 
z
M 2125 2350 
Q 2441 2350 2600 2554 
Q 2759 2759 2759 3169 
Q 2759 3575 2600 3781 
Q 2441 3988 2125 3988 
Q 1809 3988 1650 3781 
Q 1491 3575 1491 3169 
Q 1491 2759 1650 2554 
Q 1809 2350 2125 2350 
z
" transform="scale(0.015625)"/>
      <path id="DejaVuSans-Bold-20" transform="scale(0.015625)"/>
      <path id="DejaVuSans-Bold-32" d="M 1844 884 
L 3897 884 
L 3897 0 
L 506 0 
L 506 884 
L 2209 2388 
Q 2438 2594 2547 2791 
Q 2656 2988 2656 3200 
Q 2656 3528 2436 3728 
Q 2216 3928 1850 3928 
Q 1569 3928 1234 3808 
Q 900 3688 519 3450 
L 519 4475 
Q 925 4609 1322 4679 
Q 1719 4750 2100 4750 
Q 2938 4750 3402 4381 
Q 3866 4013 3866 3353 
Q 3866 2972 3669 2642 
Q 3472 2313 2841 1759 
L 1844 884 
z
" transform="scale(0.015625)"/>
     </defs>
     <use xlink:href="#DejaVuSans-Bold-33"/>
     <use xlink:href="#DejaVuSans-Bold-39" x="69.580078"/>
     <use xlink:href="#DejaVuSans-Bold-20" x="139.160156"/>
     <use xlink:href="#DejaVuSans-Bold-68" x="173.974609"/>
     <use xlink:href="#DejaVuSans-Bold-72" x="245.166016"/>
     <use xlink:href="#DejaVuSans-Bold-73" x="294.482422"/>
     <use xlink:href="#DejaVuSans-Bold-20" x="354.003906"/>
     <use xlink:href="#DejaVuSans-Bold-32" x="388.818359"/>
     <use xlink:href="#DejaVuSans-Bold-32" x="458.398438"/>
     <use xlink:href="#DejaVuSans-Bold-20" x="527.978516"/>
     <use xlink:href="#DejaVuSans-Bold-6d" x="562.792969"/>
     <use xlink:href="#DejaVuSans-Bold-69" x="666.992188"/>
     <use xlink:href="#DejaVuSans-Bold-6e" x="701.269531"/>
     <use xlink:href="#DejaVuSans-Bold-73" x="772.460938"/>
    </g>
   </g>
   <g id="text_8">
    <!-- 14 hrs 25 mins -->
    <g style="fill: #586069" transform="translate(331.939269 135.74617) scale(0.15 -0.15)">
     <defs>
      <path id="DejaVuSans-Bold-31" d="M 750 831 
L 1813 831 
L 1813 3847 
L 722 3622 
L 722 4441 
L 1806 4666 
L 2950 4666 
L 2950 831 
L 4013 831 
L 4013 0 
L 750 0 
L 750 831 
z
" transform="scale(0.015625)"/>
      <path id="DejaVuSans-Bold-34" d="M 2356 3675 
L 1038 1722 
L 2356 1722 
L 2356 3675 
z
M 2156 4666 
L 3494 4666 
L 3494 1722 
L 4159 1722 
L 4159 850 
L 3494 850 
L 3494 0 
L 2356 0 
L 2356 850 
L 288 850 
L 288 1881 
L 2156 4666 
z
" transform="scale(0.015625)"/>
      <path id="DejaVuSans-Bold-35" d="M 678 4666 
L 3669 4666 
L 3669 3781 
L 1638 3781 
L 1638 3059 
Q 1775 3097 1914 3117 
Q 2053 3138 2203 3138 
Q 3056 3138 3531 2711 
Q 4006 2284 4006 1522 
Q 4006 766 3489 337 
Q 2972 -91 2053 -91 
Q 1656 -91 1267 -14 
Q 878 63 494 219 
L 494 1166 
Q 875 947 1217 837 
Q 1559 728 1863 728 
Q 2300 728 2551 942 
Q 2803 1156 2803 1522 
Q 2803 1891 2551 2103 
Q 2300 2316 1863 2316 
Q 1603 2316 1309 2248 
Q 1016 2181 678 2041 
L 678 4666 
z
" transform="scale(0.015625)"/>
     </defs>
     <use xlink:href="#DejaVuSans-Bold-31"/>
     <use xlink:href="#DejaVuSans-Bold-34" x="69.580078"/>
     <use xlink:href="#DejaVuSans-Bold-20" x="139.160156"/>
     <use xlink:href="#DejaVuSans-Bold-68" x="173.974609"/>
     <use xlink:href="#DejaVuSans-Bold-72" x="245.166016"/>
     <use xlink:href="#DejaVuSans-Bold-73" x="294.482422"/>
     <use xlink:href="#DejaVuSans-Bold-20" x="354.003906"/>
     <use xlink:href="#DejaVuSans-Bold-32" x="388.818359"/>
     <use xlink:href="#DejaVuSans-Bold-35" x="458.398438"/>
     <use xlink:href="#DejaVuSans-Bold-20" x="527.978516"/>
     <use xlink:href="#DejaVuSans-Bold-6d" x="562.792969"/>
     <use xlink:href="#DejaVuSans-Bold-69" x="666.992188"/>
     <use xlink:href="#DejaVuSans-Bold-6e" x="701.269531"/>
     <use xlink:href="#DejaVuSans-Bold-73" x="772.460938"/>
    </g>
   </g>
   <g id="text_9">
    <!-- 13 hrs 12 mins -->
    <g style="fill: #586069" transform="translate(316.352868 185.114765) scale(0.15 -0.15)">
     <use xlink:href="#DejaVuSans-Bold-31"/>
     <use xlink:href="#DejaVuSans-Bold-33" x="69.580078"/>
     <use xlink:href="#DejaVuSans-Bold-20" x="139.160156"/>
     <use xlink:href="#DejaVuSans-Bold-68" x="173.974609"/>
     <use xlink:href="#DejaVuSans-Bold-72" x="245.166016"/>
     <use xlink:href="#DejaVuSans-Bold-73" x="294.482422"/>
     <use xlink:href="#DejaVuSans-Bold-20" x="354.003906"/>
     <use xlink:href="#DejaVuSans-Bold-31" x="388.818359"/>
     <use xlink:href="#DejaVuSans-Bold-32" x="458.398438"/>
     <use xlink:href="#DejaVuSans-Bold-20" x="527.978516"/>
     <use xlink:href="#DejaVuSans-Bold-6d" x="562.792969"/>
     <use xlink:href="#DejaVuSans-Bold-69" x="666.992188"/>
     <use xlink:href="#DejaVuSans-Bold-6e" x="701.269531"/>
     <use xlink:href="#DejaVuSans-Bold-73" x="772.460938"/>
    </g>
   </g>
   <g id="text_10">
    <!-- 3 hrs 9 mins -->
    <g style="fill: #586069" transform="translate(188.688532 234.48336) scale(0.15 -0.15)">
     <use xlink:href="#DejaVuSans-Bold-33"/>
     <use xlink:href="#DejaVuSans-Bold-20" x="69.580078"/>
     <use xlink:href="#DejaVuSans-Bold-68" x="104.394531"/>
     <use xlink:href="#DejaVuSans-Bold-72" x="175.585938"/>
     <use xlink:href="#DejaVuSans-Bold-73" x="224.902344"/>
     <use xlink:href="#DejaVuSans-Bold-20" x="284.423828"/>
     <use xlink:href="#DejaVuSans-Bold-39" x="319.238281"/>
     <use xlink:href="#DejaVuSans-Bold-20" x="388.818359"/>
     <use xlink:href="#DejaVuSans-Bold-6d" x="423.632812"/>
     <use xlink:href="#DejaVuSans-Bold-69" x="527.832031"/>
     <use xlink:href="#DejaVuSans-Bold-6e" x="562.109375"/>
     <use xlink:href="#DejaVuSans-Bold-73" x="633.300781"/>
    </g>
   </g>
   <g id="text_11">
    <!-- 23 mins -->
    <g style="fill: #586069" transform="translate(153.461464 283.851955) scale(0.15 -0.15)">
     <use xlink:href="#DejaVuSans-Bold-32"/>
     <use xlink:href="#DejaVuSans-Bold-33" x="69.580078"/>
     <use xlink:href="#DejaVuSans-Bold-20" x="139.160156"/>
     <use xlink:href="#DejaVuSans-Bold-6d" x="173.974609"/>
     <use xlink:href="#DejaVuSans-Bold-69" x="278.173828"/>
     <use xlink:href="#DejaVuSans-Bold-6e" x="312.451172"/>
     <use xlink:href="#DejaVuSans-Bold-73" x="383.642578"/>
    </g>
   </g>
   <g id="text_12">
    <!-- 10 mins -->
    <g style="fill: #586069" transform="translate(150.668525 333.22055) scale(0.15 -0.15)">
     <defs>
      <path id="DejaVuSans-Bold-30" d="M 2944 2338 
Q 2944 3213 2780 3570 
Q 2616 3928 2228 3928 
Q 1841 3928 1675 3570 
Q 1509 3213 1509 2338 
Q 1509 1453 1675 1090 
Q 1841 728 2228 728 
Q 2613 728 2778 1090 
Q 2944 1453 2944 2338 
z
M 4147 2328 
Q 4147 1169 3647 539 
Q 3147 -91 2228 -91 
Q 1306 -91 806 539 
Q 306 1169 306 2328 
Q 306 3491 806 4120 
Q 1306 4750 2228 4750 
Q 3147 4750 3647 4120 
Q 4147 3491 4147 2328 
z
" transform="scale(0.015625)"/>
     </defs>
     <use xlink:href="#DejaVuSans-Bold-31"/>
     <use xlink:href="#DejaVuSans-Bold-30" x="69.580078"/>
     <use xlink:href="#DejaVuSans-Bold-20" x="139.160156"/>
     <use xlink:href="#DejaVuSans-Bold-6d" x="173.974609"/>
     <use xlink:href="#DejaVuSans-Bold-69" x="278.173828"/>
     <use xlink:href="#DejaVuSans-Bold-6e" x="312.451172"/>
     <use xlink:href="#DejaVuSans-Bold-73" x="383.642578"/>
    </g>
   </g>
   <g id="text_13">
    <!-- Projects touched : -->
    <g style="fill: #2a475e" transform="translate(345.672531 50.32) scale(0.12 -0.12)">
     <defs>
      <path id="DejaVuSans-Bold-6a" d="M 538 3500 
L 1656 3500 
L 1656 63 
Q 1656 -641 1318 -1011 
Q 981 -1381 341 -1381 
L -213 -1381 
L -213 -647 
L -19 -647 
Q 300 -647 419 -503 
Q 538 -359 538 63 
L 538 3500 
z
M 538 4863 
L 1656 4863 
L 1656 3950 
L 538 3950 
L 538 4863 
z
" transform="scale(0.015625)"/>
      <path id="DejaVuSans-Bold-64" d="M 2919 2988 
L 2919 4863 
L 4044 4863 
L 4044 0 
L 2919 0 
L 2919 506 
Q 2688 197 2409 53 
Q 2131 -91 1766 -91 
Q 1119 -91 703 423 
Q 288 938 288 1747 
Q 288 2556 703 3070 
Q 1119 3584 1766 3584 
Q 2128 3584 2408 3439 
Q 2688 3294 2919 2988 
z
M 2181 722 
Q 2541 722 2730 984 
Q 2919 1247 2919 1747 
Q 2919 2247 2730 2509 
Q 2541 2772 2181 2772 
Q 1825 2772 1636 2509 
Q 1447 2247 1447 1747 
Q 1447 1247 1636 984 
Q 1825 722 2181 722 
z
" transform="scale(0.015625)"/>
      <path id="DejaVuSans-Bold-3a" d="M 716 3500 
L 1844 3500 
L 1844 2291 
L 716 2291 
L 716 3500 
z
M 716 1209 
L 1844 1209 
L 1844 0 
L 716 0 
L 716 1209 
z
" transform="scale(0.015625)"/>
     </defs>
     <use xlink:href="#DejaVuSans-Bold-50"/>
     <use xlink:href="#DejaVuSans-Bold-72" x="73.291016"/>
     <use xlink:href="#DejaVuSans-Bold-6f" x="122.607422"/>
     <use xlink:href="#DejaVuSans-Bold-6a" x="191.308594"/>
     <use xlink:href="#DejaVuSans-Bold-65" x="225.585938"/>
     <use xlink:href="#DejaVuSans-Bold-63" x="293.408203"/>
     <use xlink:href="#DejaVuSans-Bold-74" x="352.685547"/>
     <use xlink:href="#DejaVuSans-Bold-73" x="400.488281"/>
     <use xlink:href="#DejaVuSans-Bold-20" x="460.009766"/>
     <use xlink:href="#DejaVuSans-Bold-74" x="494.824219"/>
     <use xlink:href="#DejaVuSans-Bold-6f" x="542.626953"/>
     <use xlink:href="#DejaVuSans-Bold-75" x="611.328125"/>
     <use xlink:href="#DejaVuSans-Bold-63" x="682.519531"/>
     <use xlink:href="#DejaVuSans-Bold-68" x="741.796875"/>
     <use xlink:href="#DejaVuSans-Bold-65" x="812.988281"/>
     <use xlink:href="#DejaVuSans-Bold-64" x="880.810547"/>
     <use xlink:href="#DejaVuSans-Bold-20" x="952.392578"/>
     <use xlink:href="#DejaVuSans-Bold-3a" x="987.207031"/>
    </g>
   </g>
  </g>
  <g id="axes_2">
   <g id="patch_11">
    <path d="M 832.409266 164.069484 
L 866.008213 174.341713 
" style="fill: none; stroke: #000000; stroke-linecap: round"/>
   </g>
   <g id="text_14">
    <g id="patch_12">
     <path d="M 775.02687 172.086377 
L 830.134995 172.086377 
L 830.134995 153.178877 
L 775.02687 153.178877 
z
" style="fill: #ffffff; stroke: #000000; stroke-width: 0.72; stroke-linejoin: miter"/>
    </g>
    <!-- Python -->
    <g style="fill: #2a475e" transform="translate(778.62687 165.897002) scale(0.12 -0.12)">
     <use xlink:href="#DejaVuSans-Bold-50"/>
     <use xlink:href="#DejaVuSans-Bold-79" x="75.166016"/>
     <use xlink:href="#DejaVuSans-Bold-74" x="140.351562"/>
     <use xlink:href="#DejaVuSans-Bold-68" x="188.154297"/>
     <use xlink:href="#DejaVuSans-Bold-6f" x="259.345703"/>
     <use xlink:href="#DejaVuSans-Bold-6e" x="328.046875"/>
    </g>
   </g>
   <g id="patch_13">
    <path d="M 1104.482053 247.250504 
L 1070.883114 236.978277 
" style="fill: none; stroke: #000000; stroke-linecap: round"/>
   </g>
   <g id="text_15">
    <g id="patch_14">
     <path d="M 1106.756333 258.094236 
L 1152.493208 258.094236 
L 1152.493208 239.280486 
L 1106.756333 239.280486 
z
" style="fill: #ffffff; stroke: #000000; stroke-width: 0.72; stroke-linejoin: miter"/>
    </g>
    <!-- Other -->
    <g style="fill: #2a475e" transform="translate(1110.356333 251.998611) scale(0.12 -0.12)">
     <defs>
      <path id="DejaVuSans-Bold-4f" d="M 2719 3878 
Q 2169 3878 1866 3472 
Q 1563 3066 1563 2328 
Q 1563 1594 1866 1187 
Q 2169 781 2719 781 
Q 3272 781 3575 1187 
Q 3878 1594 3878 2328 
Q 3878 3066 3575 3472 
Q 3272 3878 2719 3878 
z
M 2719 4750 
Q 3844 4750 4481 4106 
Q 5119 3463 5119 2328 
Q 5119 1197 4481 553 
Q 3844 -91 2719 -91 
Q 1597 -91 958 553 
Q 319 1197 319 2328 
Q 319 3463 958 4106 
Q 1597 4750 2719 4750 
z
" transform="scale(0.015625)"/>
     </defs>
     <use xlink:href="#DejaVuSans-Bold-4f"/>
     <use xlink:href="#DejaVuSans-Bold-74" x="85.009766"/>
     <use xlink:href="#DejaVuSans-Bold-68" x="132.8125"/>
     <use xlink:href="#DejaVuSans-Bold-65" x="204.003906"/>
     <use xlink:href="#DejaVuSans-Bold-72" x="271.826172"/>
    </g>
   </g>
   <g id="patch_15">
    <path d="M 1069.865302 189.508655 
C 1067.829603 177.963634 1063.876879 166.840062 1058.171041 156.599213 
C 1052.465204 146.358364 1045.086228 137.143778 1036.340107 129.337566 
C 1027.593985 121.531354 1017.603308 115.242932 1006.782369 110.73307 
C 995.96143 106.223207 984.461901 103.555116 972.760646 102.839436 
C 961.05939 102.123757 949.320418 103.37052 938.030523 106.528027 
C 926.740628 109.685533 916.058054 114.709524 906.425787 121.391666 
C 896.79352 128.073807 888.346571 136.320438 881.435218 145.789587 
C 874.523865 155.258736 869.244981 165.817679 865.817472 177.028555 
C 862.389963 188.239432 860.86187 199.945107 861.296561 211.660166 
C 861.731251 223.375226 864.122632 234.935467 868.371537 245.861509 
C 872.620442 256.78755 878.667317 266.926248 886.261409 275.857168 
C 893.855502 284.788089 902.890369 292.386053 912.991352 298.335987 
C 923.092336 304.28592 934.117855 308.504427 945.610703 310.816574 
C 957.103551 313.128721 968.902639 313.502099 980.51868 311.921225 
C 992.134722 310.340351 1003.404901 306.827383 1013.861865 301.527999 
C 1024.318829 296.228614 1033.816008 289.21709 1041.959573 280.784182 
L 1004.151428 244.273281 
C 1000.079646 248.489735 995.331056 251.995497 990.102574 254.645189 
C 984.874092 257.294882 979.239003 259.051366 973.430982 259.841802 
C 967.622961 260.632239 961.723417 260.44555 955.976993 259.289477 
C 950.230569 258.133404 944.71781 256.02415 939.667318 253.049183 
C 934.616826 250.074216 930.099393 246.275235 926.302346 241.809774 
C 922.5053 237.344314 919.481863 232.274965 917.35741 226.811945 
C 915.232958 221.348924 914.037267 215.568803 913.819922 209.711273 
C 913.602577 203.853743 914.366623 198.000906 916.080378 192.395468 
C 917.794132 186.790029 920.433574 181.510558 923.889251 176.775984 
C 927.344927 172.041409 931.568402 167.918094 936.384535 164.577023 
C 941.200669 161.235952 946.541956 158.723957 952.186903 157.145203 
C 957.831851 155.56645 963.701337 154.943068 969.551965 155.300908 
C 975.402592 155.658748 981.152357 156.992794 986.562826 159.247725 
C 991.973296 161.502656 996.968635 164.646867 1001.341695 168.549973 
C 1005.714756 172.453079 1009.404244 177.060372 1012.257162 182.180797 
C 1015.110081 187.301221 1017.086443 192.863007 1018.104293 198.635518 
z
" style="fill: #092436; opacity: 0.5; stroke: #092436; stroke-width: 4; stroke-linejoin: miter"/>
   </g>
   <g id="patch_16">
    <path d="M 1052.012135 283.857576 
C 1063.535179 271.925121 1072.071789 257.43284 1076.921675 241.569588 
C 1081.771554 225.706336 1082.79837 208.91808 1079.917882 192.582019 
L 1028.156874 201.708889 
C 1029.597118 209.876919 1029.08371 218.271047 1026.65877 226.202673 
C 1024.233827 234.134299 1019.965522 241.38044 1014.204001 247.346667 
z
" style="fill: #4d2604; opacity: 0.5; stroke: #4d2604; stroke-width: 4; stroke-linejoin: miter"/>
   </g>
   <g id="patch_17">
    <path d="M 1071.967682 187.406275 
C 1069.931983 175.861254 1065.979259 164.737682 1060.273422 154.496833 
C 1054.567584 144.255984 1047.188608 135.041397 1038.442487 127.235186 
C 1029.696366 119.428974 1019.705688 113.140552 1008.884749 108.630689 
C 998.063811 104.120827 986.564282 101.452735 974.863026 100.737056 
C 963.16177 100.021376 951.422799 101.26814 940.132903 104.425646 
C 928.843008 107.583153 918.160434 112.607144 908.528167 119.289285 
C 898.8959 125.971427 890.448951 134.218058 883.537598 143.687207 
C 876.626245 153.156356 871.347361 163.715298 867.919852 174.926175 
C 864.492343 186.137052 862.964251 197.842726 863.398941 209.557786 
C 863.833631 221.272846 866.225012 232.833087 870.473917 243.759129 
C 874.722822 254.68517 880.769697 264.823867 888.36379 273.754788 
C 895.957882 282.685709 904.992749 290.283672 915.093732 296.233606 
C 925.194716 302.18354 936.220235 306.402047 947.713083 308.714194 
C 959.205931 311.02634 971.005019 311.399718 982.62106 309.818844 
C 994.237102 308.237971 1005.507281 304.725003 1015.964245 299.425618 
C 1026.421209 294.126233 1035.918389 287.11471 1044.061953 278.681802 
L 1006.253809 242.170901 
C 1002.182026 246.387355 997.433437 249.893117 992.204955 252.542809 
C 986.976472 255.192502 981.341383 256.948985 975.533362 257.739422 
C 969.725341 258.529859 963.825798 258.34317 958.079374 257.187097 
C 952.33295 256.031024 946.82019 253.92177 941.769698 250.946803 
C 936.719206 247.971836 932.201773 244.172854 928.404727 239.707394 
C 924.607681 235.241934 921.584243 230.172585 919.459791 224.709564 
C 917.335338 219.246544 916.139648 213.466423 915.922302 207.608893 
C 915.704957 201.751363 916.469004 195.898526 918.182758 190.293088 
C 919.896513 184.687649 922.535954 179.408178 925.991631 174.673603 
C 929.447307 169.939029 933.670782 165.815713 938.486916 162.474643 
C 943.303049 159.133572 948.644336 156.621576 954.289284 155.042823 
C 959.934231 153.46407 965.803717 152.840688 971.654345 153.198528 
C 977.504973 153.556368 983.254737 154.890413 988.665207 157.145345 
C 994.075676 159.400276 999.071015 162.544487 1003.444075 166.447593 
C 1007.817136 170.350699 1011.506624 174.957992 1014.359543 180.078416 
C 1017.212462 185.198841 1019.188824 190.760627 1020.206673 196.533138 
z
" style="fill: #1f77b4; stroke: #ffffff; stroke-width: 4; stroke-linejoin: miter"/>
   </g>
   <g id="patch_18">
    <path d="M 1054.114516 281.755195 
C 1065.637559 269.82274 1074.174169 255.33046 1079.024055 239.467208 
C 1083.873934 223.603956 1084.90075 206.8157 1082.020262 190.479639 
L 1030.259254 199.606509 
C 1031.699498 207.774539 1031.18609 216.168667 1028.761151 224.100293 
C 1026.336208 232.031919 1022.067903 239.278059 1016.306381 245.244287 
z
" style="fill: #ff7f0e; stroke: #ffffff; stroke-width: 4; stroke-linejoin: miter"/>
   </g>
   <g id="matplotlib.axis_3"/>
   <g id="matplotlib.axis_4"/>
   <g id="text_16">
    <!-- Languages -->
    <g style="fill: #2a475e" transform="translate(937.867539 208.34125) scale(0.1 -0.1)">
     <defs>
      <path id="DejaVuSans-Bold-4c" d="M 588 4666 
L 1791 4666 
L 1791 909 
L 3903 909 
L 3903 0 
L 588 0 
L 588 4666 
z
" transform="scale(0.015625)"/>
      <path id="DejaVuSans-Bold-67" d="M 2919 594 
Q 2688 288 2409 144 
Q 2131 0 1766 0 
Q 1125 0 706 504 
Q 288 1009 288 1791 
Q 288 2575 706 3076 
Q 1125 3578 1766 3578 
Q 2131 3578 2409 3434 
Q 2688 3291 2919 2981 
L 2919 3500 
L 4044 3500 
L 4044 353 
Q 4044 -491 3511 -936 
Q 2978 -1381 1966 -1381 
Q 1638 -1381 1331 -1331 
Q 1025 -1281 716 -1178 
L 716 -306 
Q 1009 -475 1290 -558 
Q 1572 -641 1856 -641 
Q 2406 -641 2662 -400 
Q 2919 -159 2919 353 
L 2919 594 
z
M 2181 2772 
Q 1834 2772 1640 2515 
Q 1447 2259 1447 1791 
Q 1447 1309 1634 1061 
Q 1822 813 2181 813 
Q 2531 813 2725 1069 
Q 2919 1325 2919 1791 
Q 2919 2259 2725 2515 
Q 2531 2772 2181 2772 
z
" transform="scale(0.015625)"/>
     </defs>
     <use xlink:href="#DejaVuSans-Bold-4c"/>
     <use xlink:href="#DejaVuSans-Bold-61" x="63.720703"/>
     <use xlink:href="#DejaVuSans-Bold-6e" x="131.201172"/>
     <use xlink:href="#DejaVuSans-Bold-67" x="202.392578"/>
     <use xlink:href="#DejaVuSans-Bold-75" x="273.974609"/>
     <use xlink:href="#DejaVuSans-Bold-61" x="345.166016"/>
     <use xlink:href="#DejaVuSans-Bold-67" x="412.646484"/>
     <use xlink:href="#DejaVuSans-Bold-65" x="484.228516"/>
     <use xlink:href="#DejaVuSans-Bold-73" x="552.050781"/>
    </g>
   </g>
   <g id="text_17">
    <!-- Languages exploited : -->
    <g style="fill: #2a475e" transform="translate(893.472851 68.261235) scale(0.12 -0.12)">
     <defs>
      <path id="DejaVuSans-Bold-78" d="M 1422 1791 
L 159 3500 
L 1344 3500 
L 2059 2463 
L 2784 3500 
L 3969 3500 
L 2706 1797 
L 4031 0 
L 2847 0 
L 2059 1106 
L 1281 0 
L 97 0 
L 1422 1791 
z
" transform="scale(0.015625)"/>
      <path id="DejaVuSans-Bold-70" d="M 1656 506 
L 1656 -1331 
L 538 -1331 
L 538 3500 
L 1656 3500 
L 1656 2988 
Q 1888 3294 2169 3439 
Q 2450 3584 2816 3584 
Q 3463 3584 3878 3070 
Q 4294 2556 4294 1747 
Q 4294 938 3878 423 
Q 3463 -91 2816 -91 
Q 2450 -91 2169 54 
Q 1888 200 1656 506 
z
M 2400 2772 
Q 2041 2772 1848 2508 
Q 1656 2244 1656 1747 
Q 1656 1250 1848 986 
Q 2041 722 2400 722 
Q 2759 722 2948 984 
Q 3138 1247 3138 1747 
Q 3138 2247 2948 2509 
Q 2759 2772 2400 2772 
z
" transform="scale(0.015625)"/>
     </defs>
     <use xlink:href="#DejaVuSans-Bold-4c"/>
     <use xlink:href="#DejaVuSans-Bold-61" x="63.720703"/>
     <use xlink:href="#DejaVuSans-Bold-6e" x="131.201172"/>
     <use xlink:href="#DejaVuSans-Bold-67" x="202.392578"/>
     <use xlink:href="#DejaVuSans-Bold-75" x="273.974609"/>
     <use xlink:href="#DejaVuSans-Bold-61" x="345.166016"/>
     <use xlink:href="#DejaVuSans-Bold-67" x="412.646484"/>
     <use xlink:href="#DejaVuSans-Bold-65" x="484.228516"/>
     <use xlink:href="#DejaVuSans-Bold-73" x="552.050781"/>
     <use xlink:href="#DejaVuSans-Bold-20" x="611.572266"/>
     <use xlink:href="#DejaVuSans-Bold-65" x="646.386719"/>
     <use xlink:href="#DejaVuSans-Bold-78" x="714.208984"/>
     <use xlink:href="#DejaVuSans-Bold-70" x="778.710938"/>
     <use xlink:href="#DejaVuSans-Bold-6c" x="850.292969"/>
     <use xlink:href="#DejaVuSans-Bold-6f" x="884.570312"/>
     <use xlink:href="#DejaVuSans-Bold-69" x="953.271484"/>
     <use xlink:href="#DejaVuSans-Bold-74" x="987.548828"/>
     <use xlink:href="#DejaVuSans-Bold-65" x="1035.351562"/>
     <use xlink:href="#DejaVuSans-Bold-64" x="1103.173828"/>
     <use xlink:href="#DejaVuSans-Bold-20" x="1174.755859"/>
     <use xlink:href="#DejaVuSans-Bold-3a" x="1209.570312"/>
    </g>
   </g>
  </g>
  <g id="text_18">
   <!-- From 24 February, 2026 to 26 March, 2026: 70 hrs 51 mins -->
   <g transform="translate(82.191094 29.995312) scale(0.3 -0.3)">
    <defs>
     <path id="DejaVuSans-Bold-46" d="M 588 4666 
L 3834 4666 
L 3834 3756 
L 1791 3756 
L 1791 2888 
L 3713 2888 
L 3713 1978 
L 1791 1978 
L 1791 0 
L 588 0 
L 588 4666 
z
" transform="scale(0.015625)"/>
     <path id="DejaVuSans-Bold-62" d="M 2400 722 
Q 2759 722 2948 984 
Q 3138 1247 3138 1747 
Q 3138 2247 2948 2509 
Q 2759 2772 2400 2772 
Q 2041 2772 1848 2508 
Q 1656 2244 1656 1747 
Q 1656 1250 1848 986 
Q 2041 722 2400 722 
z
M 1656 2988 
Q 1888 3294 2169 3439 
Q 2450 3584 2816 3584 
Q 3463 3584 3878 3070 
Q 4294 2556 4294 1747 
Q 4294 938 3878 423 
Q 3463 -91 2816 -91 
Q 2450 -91 2169 54 
Q 1888 200 1656 506 
L 1656 0 
L 538 0 
L 538 4863 
L 1656 4863 
L 1656 2988 
z
" transform="scale(0.015625)"/>
     <path id="DejaVuSans-Bold-2c" d="M 653 1209 
L 1778 1209 
L 1778 256 
L 1006 -909 
L 341 -909 
L 653 256 
L 653 1209 
z
" transform="scale(0.015625)"/>
     <path id="DejaVuSans-Bold-36" d="M 2316 2303 
Q 2000 2303 1842 2098 
Q 1684 1894 1684 1484 
Q 1684 1075 1842 870 
Q 2000 666 2316 666 
Q 2634 666 2792 870 
Q 2950 1075 2950 1484 
Q 2950 1894 2792 2098 
Q 2634 2303 2316 2303 
z
M 3803 4544 
L 3803 3681 
Q 3506 3822 3243 3889 
Q 2981 3956 2731 3956 
Q 2194 3956 1894 3657 
Q 1594 3359 1544 2772 
Q 1750 2925 1990 3001 
Q 2231 3078 2516 3078 
Q 3231 3078 3670 2659 
Q 4109 2241 4109 1563 
Q 4109 813 3618 361 
Q 3128 -91 2303 -91 
Q 1394 -91 895 523 
Q 397 1138 397 2266 
Q 397 3422 980 4083 
Q 1563 4744 2578 4744 
Q 2900 4744 3203 4694 
Q 3506 4644 3803 4544 
z
" transform="scale(0.015625)"/>
     <path id="DejaVuSans-Bold-4d" d="M 588 4666 
L 2119 4666 
L 3181 2169 
L 4250 4666 
L 5778 4666 
L 5778 0 
L 4641 0 
L 4641 3413 
L 3566 897 
L 2803 897 
L 1728 3413 
L 1728 0 
L 588 0 
L 588 4666 
z
" transform="scale(0.015625)"/>
     <path id="DejaVuSans-Bold-37" d="M 428 4666 
L 3944 4666 
L 3944 3988 
L 2125 0 
L 953 0 
L 2675 3781 
L 428 3781 
L 428 4666 
z
" transform="scale(0.015625)"/>
    </defs>
    <use xlink:href="#DejaVuSans-Bold-46"/>
    <use xlink:href="#DejaVuSans-Bold-72" x="61.935547"/>
    <use xlink:href="#DejaVuSans-Bold-6f" x="111.251953"/>
    <use xlink:href="#DejaVuSans-Bold-6d" x="179.953125"/>
    <use xlink:href="#DejaVuSans-Bold-20" x="284.152344"/>
    <use xlink:href="#DejaVuSans-Bold-32" x="318.966797"/>
    <use xlink:href="#DejaVuSans-Bold-34" x="388.546875"/>
    <use xlink:href="#DejaVuSans-Bold-20" x="458.126953"/>
    <use xlink:href="#DejaVuSans-Bold-46" x="492.941406"/>
    <use xlink:href="#DejaVuSans-Bold-65" x="557.251953"/>
    <use xlink:href="#DejaVuSans-Bold-62" x="625.074219"/>
    <use xlink:href="#DejaVuSans-Bold-72" x="696.65625"/>
    <use xlink:href="#DejaVuSans-Bold-75" x="745.972656"/>
    <use xlink:href="#DejaVuSans-Bold-61" x="817.164062"/>
    <use xlink:href="#DejaVuSans-Bold-72" x="884.644531"/>
    <use xlink:href="#DejaVuSans-Bold-79" x="933.960938"/>
    <use xlink:href="#DejaVuSans-Bold-2c" x="991.396484"/>
    <use xlink:href="#DejaVuSans-Bold-20" x="1029.384766"/>
    <use xlink:href="#DejaVuSans-Bold-32" x="1064.199219"/>
    <use xlink:href="#DejaVuSans-Bold-30" x="1133.779297"/>
    <use xlink:href="#DejaVuSans-Bold-32" x="1203.359375"/>
    <use xlink:href="#DejaVuSans-Bold-36" x="1272.939453"/>
    <use xlink:href="#DejaVuSans-Bold-20" x="1342.519531"/>
    <use xlink:href="#DejaVuSans-Bold-74" x="1377.333984"/>
    <use xlink:href="#DejaVuSans-Bold-6f" x="1425.136719"/>
    <use xlink:href="#DejaVuSans-Bold-20" x="1493.837891"/>
    <use xlink:href="#DejaVuSans-Bold-32" x="1528.652344"/>
    <use xlink:href="#DejaVuSans-Bold-36" x="1598.232422"/>
    <use xlink:href="#DejaVuSans-Bold-20" x="1667.8125"/>
    <use xlink:href="#DejaVuSans-Bold-4d" x="1702.626953"/>
    <use xlink:href="#DejaVuSans-Bold-61" x="1802.138672"/>
    <use xlink:href="#DejaVuSans-Bold-72" x="1869.619141"/>
    <use xlink:href="#DejaVuSans-Bold-63" x="1918.935547"/>
    <use xlink:href="#DejaVuSans-Bold-68" x="1978.212891"/>
    <use xlink:href="#DejaVuSans-Bold-2c" x="2049.404297"/>
    <use xlink:href="#DejaVuSans-Bold-20" x="2087.392578"/>
    <use xlink:href="#DejaVuSans-Bold-32" x="2122.207031"/>
    <use xlink:href="#DejaVuSans-Bold-30" x="2191.787109"/>
    <use xlink:href="#DejaVuSans-Bold-32" x="2261.367188"/>
    <use xlink:href="#DejaVuSans-Bold-36" x="2330.947266"/>
    <use xlink:href="#DejaVuSans-Bold-3a" x="2400.527344"/>
    <use xlink:href="#DejaVuSans-Bold-20" x="2440.517578"/>
    <use xlink:href="#DejaVuSans-Bold-37" x="2475.332031"/>
    <use xlink:href="#DejaVuSans-Bold-30" x="2544.912109"/>
    <use xlink:href="#DejaVuSans-Bold-20" x="2614.492188"/>
    <use xlink:href="#DejaVuSans-Bold-68" x="2649.306641"/>
    <use xlink:href="#DejaVuSans-Bold-72" x="2720.498047"/>
    <use xlink:href="#DejaVuSans-Bold-73" x="2769.814453"/>
    <use xlink:href="#DejaVuSans-Bold-20" x="2829.335938"/>
    <use xlink:href="#DejaVuSans-Bold-35" x="2864.150391"/>
    <use xlink:href="#DejaVuSans-Bold-31" x="2933.730469"/>
    <use xlink:href="#DejaVuSans-Bold-20" x="3003.310547"/>
    <use xlink:href="#DejaVuSans-Bold-6d" x="3038.125"/>
    <use xlink:href="#DejaVuSans-Bold-69" x="3142.324219"/>
    <use xlink:href="#DejaVuSans-Bold-6e" x="3176.601562"/>
    <use xlink:href="#DejaVuSans-Bold-73" x="3247.792969"/>
   </g>
  </g>
 </g>
 <defs>
  <clipPath id="p7064fb814c">
   <rect x="144.50625" y="56.32" width="525.595061" height="298.68"/>
  </clipPath>
 </defs>
</svg>
