<?xml version="1.0" encoding="utf-8" standalone="no"?>
<!DOCTYPE svg PUBLIC "-//W3C//DTD SVG 1.1//EN"
  "http://www.w3.org/Graphics/SVG/1.1/DTD/svg11.dtd">
<svg xmlns:xlink="http://www.w3.org/1999/xlink" width="1155.625208pt" height="362.2pt" viewBox="0 0 1155.625208 362.2" xmlns="http://www.w3.org/2000/svg" version="1.1">
 <metadata>
  <rdf:RDF xmlns:dc="http://purl.org/dc/elements/1.1/" xmlns:cc="http://creativecommons.org/ns#" xmlns:rdf="http://www.w3.org/1999/02/22-rdf-syntax-ns#">
   <cc:Work>
    <dc:type rdf:resource="http://purl.org/dc/dcmitype/StillImage"/>
    <dc:date>2024-03-29T08:07:46.624600</dc:date>
    <dc:format>image/svg+xml</dc:format>
    <dc:creator>
     <cc:Agent>
      <dc:title>Matplotlib v3.5.1, https://matplotlib.org/</dc:title>
     </cc:Agent>
    </dc:creator>
   </cc:Work>
  </rdf:RDF>
 </metadata>
 <defs>
  <style type="text/css">*{stroke-linejoin: round; stroke-linecap: butt}</style>
 </defs>
 <g id="figure_1">
  <g id="patch_1">
   <path d="M 0 362.2 
L 1155.625208 362.2 
L 1155.625208 0 
L 0 0 
L 0 362.2 
z
" style="fill: none"/>
  </g>
  <g id="axes_1">
   <g id="patch_2">
    <path d="M 205.734375 351.5 
L 694.42944 351.5 
L 694.42944 56.32 
L 205.734375 56.32 
L 205.734375 351.5 
z
" style="fill: none"/>
   </g>
   <g id="patch_3">
    <path d="M 205.734375 69.737273 
L 671.158246 69.737273 
L 671.158246 94.132314 
L 205.734375 94.132314 
z
" clip-path="url(#p248399dfb3)" style="fill: #6bb2c2; stroke: #6bb2c2; stroke-linejoin: miter"/>
   </g>
   <g id="patch_4">
    <path d="M 205.734375 118.527355 
L 469.821253 118.527355 
L 469.821253 142.922397 
L 205.734375 142.922397 
z
" clip-path="url(#p248399dfb3)" style="fill: #d7bf0a; stroke: #d7bf0a; stroke-linejoin: miter"/>
   </g>
   <g id="patch_5">
    <path d="M 205.734375 167.317438 
L 292.405487 167.317438 
L 292.405487 191.712479 
L 205.734375 191.712479 
z
" clip-path="url(#p248399dfb3)" style="fill: #021917; stroke: #021917; stroke-linejoin: miter"/>
   </g>
   <g id="patch_6">
    <path d="M 205.734375 216.107521 
L 248.463233 216.107521 
L 248.463233 240.502562 
L 205.734375 240.502562 
z
" clip-path="url(#p248399dfb3)" style="fill: #9abc79; stroke: #9abc79; stroke-linejoin: miter"/>
   </g>
   <g id="patch_7">
    <path d="M 205.734375 264.897603 
L 210.154602 264.897603 
L 210.154602 289.292645 
L 205.734375 289.292645 
z
" clip-path="url(#p248399dfb3)" style="fill: #61c461; stroke: #61c461; stroke-linejoin: miter"/>
   </g>
   <g id="patch_8">
    <path d="M 205.734375 313.687686 
L 208.941206 313.687686 
L 208.941206 338.082727 
L 205.734375 338.082727 
z
" clip-path="url(#p248399dfb3)" style="fill: #a6916a; stroke: #a6916a; stroke-linejoin: miter"/>
   </g>
   <g id="matplotlib.axis_1"/>
   <g id="matplotlib.axis_2">
    <g id="ytick_1">
     <g id="line2d_1">
      <defs>
       <path id="m7f085903f6" d="M 0 0 
L -3.5 0 
" style="stroke: #000000; stroke-width: 0.8"/>
      </defs>
      <g>
       <use xlink:href="#m7f085903f6" x="205.734375" y="81.934793" style="stroke: #000000; stroke-width: 0.8"/>
      </g>
     </g>
     <g id="text_1">
      <!-- CVSampler -->
      <g style="fill: #586069" transform="translate(75.2375 89.533231)scale(0.2 -0.2)">
       <defs>
        <path id="DejaVuSans-Bold-43" d="M 4288 256 
Q 3956 84 3597 -3 
Q 3238 -91 2847 -91 
Q 1681 -91 1000 561 
Q 319 1213 319 2328 
Q 319 3447 1000 4098 
Q 1681 4750 2847 4750 
Q 3238 4750 3597 4662 
Q 3956 4575 4288 4403 
L 4288 3438 
Q 3953 3666 3628 3772 
Q 3303 3878 2944 3878 
Q 2300 3878 1931 3465 
Q 1563 3053 1563 2328 
Q 1563 1606 1931 1193 
Q 2300 781 2944 781 
Q 3303 781 3628 887 
Q 3953 994 4288 1222 
L 4288 256 
z
" transform="scale(0.015625)"/>
        <path id="DejaVuSans-Bold-56" d="M 31 4666 
L 1241 4666 
L 2478 1222 
L 3713 4666 
L 4922 4666 
L 3194 0 
L 1759 0 
L 31 4666 
z
" transform="scale(0.015625)"/>
        <path id="DejaVuSans-Bold-53" d="M 3834 4519 
L 3834 3531 
Q 3450 3703 3084 3790 
Q 2719 3878 2394 3878 
Q 1963 3878 1756 3759 
Q 1550 3641 1550 3391 
Q 1550 3203 1689 3098 
Q 1828 2994 2194 2919 
L 2706 2816 
Q 3484 2659 3812 2340 
Q 4141 2022 4141 1434 
Q 4141 663 3683 286 
Q 3225 -91 2284 -91 
Q 1841 -91 1394 -6 
Q 947 78 500 244 
L 500 1259 
Q 947 1022 1364 901 
Q 1781 781 2169 781 
Q 2563 781 2772 912 
Q 2981 1044 2981 1288 
Q 2981 1506 2839 1625 
Q 2697 1744 2272 1838 
L 1806 1941 
Q 1106 2091 782 2419 
Q 459 2747 459 3303 
Q 459 4000 909 4375 
Q 1359 4750 2203 4750 
Q 2588 4750 2994 4692 
Q 3400 4634 3834 4519 
z
" transform="scale(0.015625)"/>
        <path id="DejaVuSans-Bold-61" d="M 2106 1575 
Q 1756 1575 1579 1456 
Q 1403 1338 1403 1106 
Q 1403 894 1545 773 
Q 1688 653 1941 653 
Q 2256 653 2472 879 
Q 2688 1106 2688 1447 
L 2688 1575 
L 2106 1575 
z
M 3816 1997 
L 3816 0 
L 2688 0 
L 2688 519 
Q 2463 200 2181 54 
Q 1900 -91 1497 -91 
Q 953 -91 614 226 
Q 275 544 275 1050 
Q 275 1666 698 1953 
Q 1122 2241 2028 2241 
L 2688 2241 
L 2688 2328 
Q 2688 2594 2478 2717 
Q 2269 2841 1825 2841 
Q 1466 2841 1156 2769 
Q 847 2697 581 2553 
L 581 3406 
Q 941 3494 1303 3539 
Q 1666 3584 2028 3584 
Q 2975 3584 3395 3211 
Q 3816 2838 3816 1997 
z
" transform="scale(0.015625)"/>
        <path id="DejaVuSans-Bold-6d" d="M 3781 2919 
Q 3994 3244 4286 3414 
Q 4578 3584 4928 3584 
Q 5531 3584 5847 3212 
Q 6163 2841 6163 2131 
L 6163 0 
L 5038 0 
L 5038 1825 
Q 5041 1866 5042 1909 
Q 5044 1953 5044 2034 
Q 5044 2406 4934 2573 
Q 4825 2741 4581 2741 
Q 4263 2741 4089 2478 
Q 3916 2216 3909 1719 
L 3909 0 
L 2784 0 
L 2784 1825 
Q 2784 2406 2684 2573 
Q 2584 2741 2328 2741 
Q 2006 2741 1831 2477 
Q 1656 2213 1656 1722 
L 1656 0 
L 531 0 
L 531 3500 
L 1656 3500 
L 1656 2988 
Q 1863 3284 2130 3434 
Q 2397 3584 2719 3584 
Q 3081 3584 3359 3409 
Q 3638 3234 3781 2919 
z
" transform="scale(0.015625)"/>
        <path id="DejaVuSans-Bold-70" d="M 1656 506 
L 1656 -1331 
L 538 -1331 
L 538 3500 
L 1656 3500 
L 1656 2988 
Q 1888 3294 2169 3439 
Q 2450 3584 2816 3584 
Q 3463 3584 3878 3070 
Q 4294 2556 4294 1747 
Q 4294 938 3878 423 
Q 3463 -91 2816 -91 
Q 2450 -91 2169 54 
Q 1888 200 1656 506 
z
M 2400 2772 
Q 2041 2772 1848 2508 
Q 1656 2244 1656 1747 
Q 1656 1250 1848 986 
Q 2041 722 2400 722 
Q 2759 722 2948 984 
Q 3138 1247 3138 1747 
Q 3138 2247 2948 2509 
Q 2759 2772 2400 2772 
z
" transform="scale(0.015625)"/>
        <path id="DejaVuSans-Bold-6c" d="M 538 4863 
L 1656 4863 
L 1656 0 
L 538 0 
L 538 4863 
z
" transform="scale(0.015625)"/>
        <path id="DejaVuSans-Bold-65" d="M 4031 1759 
L 4031 1441 
L 1416 1441 
Q 1456 1047 1700 850 
Q 1944 653 2381 653 
Q 2734 653 3104 758 
Q 3475 863 3866 1075 
L 3866 213 
Q 3469 63 3072 -14 
Q 2675 -91 2278 -91 
Q 1328 -91 801 392 
Q 275 875 275 1747 
Q 275 2603 792 3093 
Q 1309 3584 2216 3584 
Q 3041 3584 3536 3087 
Q 4031 2591 4031 1759 
z
M 2881 2131 
Q 2881 2450 2695 2645 
Q 2509 2841 2209 2841 
Q 1884 2841 1681 2658 
Q 1478 2475 1428 2131 
L 2881 2131 
z
" transform="scale(0.015625)"/>
        <path id="DejaVuSans-Bold-72" d="M 3138 2547 
Q 2991 2616 2845 2648 
Q 2700 2681 2553 2681 
Q 2122 2681 1889 2404 
Q 1656 2128 1656 1613 
L 1656 0 
L 538 0 
L 538 3500 
L 1656 3500 
L 1656 2925 
Q 1872 3269 2151 3426 
Q 2431 3584 2822 3584 
Q 2878 3584 2943 3579 
Q 3009 3575 3134 3559 
L 3138 2547 
z
" transform="scale(0.015625)"/>
       </defs>
       <use xlink:href="#DejaVuSans-Bold-43"/>
       <use xlink:href="#DejaVuSans-Bold-56" x="73.388672"/>
       <use xlink:href="#DejaVuSans-Bold-53" x="150.78125"/>
       <use xlink:href="#DejaVuSans-Bold-61" x="222.802734"/>
       <use xlink:href="#DejaVuSans-Bold-6d" x="290.283203"/>
       <use xlink:href="#DejaVuSans-Bold-70" x="394.482422"/>
       <use xlink:href="#DejaVuSans-Bold-6c" x="466.064453"/>
       <use xlink:href="#DejaVuSans-Bold-65" x="500.341797"/>
       <use xlink:href="#DejaVuSans-Bold-72" x="568.164062"/>
      </g>
     </g>
    </g>
    <g id="ytick_2">
     <g id="line2d_2">
      <g>
       <use xlink:href="#m7f085903f6" x="205.734375" y="130.724876" style="stroke: #000000; stroke-width: 0.8"/>
      </g>
     </g>
     <g id="text_2">
      <!-- Project_SERB -->
      <g style="fill: #586069" transform="translate(49.925 138.323314)scale(0.2 -0.2)">
       <defs>
        <path id="DejaVuSans-Bold-50" d="M 588 4666 
L 2584 4666 
Q 3475 4666 3951 4270 
Q 4428 3875 4428 3144 
Q 4428 2409 3951 2014 
Q 3475 1619 2584 1619 
L 1791 1619 
L 1791 0 
L 588 0 
L 588 4666 
z
M 1791 3794 
L 1791 2491 
L 2456 2491 
Q 2806 2491 2997 2661 
Q 3188 2831 3188 3144 
Q 3188 3456 2997 3625 
Q 2806 3794 2456 3794 
L 1791 3794 
z
" transform="scale(0.015625)"/>
        <path id="DejaVuSans-Bold-6f" d="M 2203 2784 
Q 1831 2784 1636 2517 
Q 1441 2250 1441 1747 
Q 1441 1244 1636 976 
Q 1831 709 2203 709 
Q 2569 709 2762 976 
Q 2956 1244 2956 1747 
Q 2956 2250 2762 2517 
Q 2569 2784 2203 2784 
z
M 2203 3584 
Q 3106 3584 3614 3096 
Q 4122 2609 4122 1747 
Q 4122 884 3614 396 
Q 3106 -91 2203 -91 
Q 1297 -91 786 396 
Q 275 884 275 1747 
Q 275 2609 786 3096 
Q 1297 3584 2203 3584 
z
" transform="scale(0.015625)"/>
        <path id="DejaVuSans-Bold-6a" d="M 538 3500 
L 1656 3500 
L 1656 63 
Q 1656 -641 1318 -1011 
Q 981 -1381 341 -1381 
L -213 -1381 
L -213 -647 
L -19 -647 
Q 300 -647 419 -503 
Q 538 -359 538 63 
L 538 3500 
z
M 538 4863 
L 1656 4863 
L 1656 3950 
L 538 3950 
L 538 4863 
z
" transform="scale(0.015625)"/>
        <path id="DejaVuSans-Bold-63" d="M 3366 3391 
L 3366 2478 
Q 3138 2634 2908 2709 
Q 2678 2784 2431 2784 
Q 1963 2784 1702 2511 
Q 1441 2238 1441 1747 
Q 1441 1256 1702 982 
Q 1963 709 2431 709 
Q 2694 709 2930 787 
Q 3166 866 3366 1019 
L 3366 103 
Q 3103 6 2833 -42 
Q 2563 -91 2291 -91 
Q 1344 -91 809 395 
Q 275 881 275 1747 
Q 275 2613 809 3098 
Q 1344 3584 2291 3584 
Q 2566 3584 2833 3536 
Q 3100 3488 3366 3391 
z
" transform="scale(0.015625)"/>
        <path id="DejaVuSans-Bold-74" d="M 1759 4494 
L 1759 3500 
L 2913 3500 
L 2913 2700 
L 1759 2700 
L 1759 1216 
Q 1759 972 1856 886 
Q 1953 800 2241 800 
L 2816 800 
L 2816 0 
L 1856 0 
Q 1194 0 917 276 
Q 641 553 641 1216 
L 641 2700 
L 84 2700 
L 84 3500 
L 641 3500 
L 641 4494 
L 1759 4494 
z
" transform="scale(0.015625)"/>
        <path id="DejaVuSans-Bold-5f" d="M 3200 -916 
L 3200 -1509 
L 0 -1509 
L 0 -916 
L 3200 -916 
z
" transform="scale(0.015625)"/>
        <path id="DejaVuSans-Bold-45" d="M 588 4666 
L 3834 4666 
L 3834 3756 
L 1791 3756 
L 1791 2888 
L 3713 2888 
L 3713 1978 
L 1791 1978 
L 1791 909 
L 3903 909 
L 3903 0 
L 588 0 
L 588 4666 
z
" transform="scale(0.015625)"/>
        <path id="DejaVuSans-Bold-52" d="M 2297 2597 
Q 2675 2597 2839 2737 
Q 3003 2878 3003 3200 
Q 3003 3519 2839 3656 
Q 2675 3794 2297 3794 
L 1791 3794 
L 1791 2597 
L 2297 2597 
z
M 1791 1766 
L 1791 0 
L 588 0 
L 588 4666 
L 2425 4666 
Q 3347 4666 3776 4356 
Q 4206 4047 4206 3378 
Q 4206 2916 3982 2619 
Q 3759 2322 3309 2181 
Q 3556 2125 3751 1926 
Q 3947 1728 4147 1325 
L 4800 0 
L 3519 0 
L 2950 1159 
Q 2778 1509 2601 1637 
Q 2425 1766 2131 1766 
L 1791 1766 
z
" transform="scale(0.015625)"/>
        <path id="DejaVuSans-Bold-42" d="M 2456 2859 
Q 2741 2859 2887 2984 
Q 3034 3109 3034 3353 
Q 3034 3594 2887 3720 
Q 2741 3847 2456 3847 
L 1791 3847 
L 1791 2859 
L 2456 2859 
z
M 2497 819 
Q 2859 819 3042 972 
Q 3225 1125 3225 1434 
Q 3225 1738 3044 1889 
Q 2863 2041 2497 2041 
L 1791 2041 
L 1791 819 
L 2497 819 
z
M 3616 2497 
Q 4003 2384 4215 2081 
Q 4428 1778 4428 1338 
Q 4428 663 3972 331 
Q 3516 0 2584 0 
L 588 0 
L 588 4666 
L 2394 4666 
Q 3366 4666 3802 4372 
Q 4238 4078 4238 3431 
Q 4238 3091 4078 2852 
Q 3919 2613 3616 2497 
z
" transform="scale(0.015625)"/>
       </defs>
       <use xlink:href="#DejaVuSans-Bold-50"/>
       <use xlink:href="#DejaVuSans-Bold-72" x="73.291016"/>
       <use xlink:href="#DejaVuSans-Bold-6f" x="122.607422"/>
       <use xlink:href="#DejaVuSans-Bold-6a" x="191.308594"/>
       <use xlink:href="#DejaVuSans-Bold-65" x="225.585938"/>
       <use xlink:href="#DejaVuSans-Bold-63" x="293.408203"/>
       <use xlink:href="#DejaVuSans-Bold-74" x="352.685547"/>
       <use xlink:href="#DejaVuSans-Bold-5f" x="400.488281"/>
       <use xlink:href="#DejaVuSans-Bold-53" x="450.488281"/>
       <use xlink:href="#DejaVuSans-Bold-45" x="522.509766"/>
       <use xlink:href="#DejaVuSans-Bold-52" x="590.820312"/>
       <use xlink:href="#DejaVuSans-Bold-42" x="667.822266"/>
      </g>
     </g>
    </g>
    <g id="ytick_3">
     <g id="line2d_3">
      <g>
       <use xlink:href="#m7f085903f6" x="205.734375" y="179.514959" style="stroke: #000000; stroke-width: 0.8"/>
      </g>
     </g>
     <g id="text_3">
      <!-- Unknown Project -->
      <g style="fill: #586069" transform="translate(7.2 187.113396)scale(0.2 -0.2)">
       <defs>
        <path id="DejaVuSans-Bold-55" d="M 588 4666 
L 1791 4666 
L 1791 1869 
Q 1791 1291 1980 1042 
Q 2169 794 2597 794 
Q 3028 794 3217 1042 
Q 3406 1291 3406 1869 
L 3406 4666 
L 4609 4666 
L 4609 1869 
Q 4609 878 4112 393 
Q 3616 -91 2597 -91 
Q 1581 -91 1084 393 
Q 588 878 588 1869 
L 588 4666 
z
" transform="scale(0.015625)"/>
        <path id="DejaVuSans-Bold-6e" d="M 4056 2131 
L 4056 0 
L 2931 0 
L 2931 347 
L 2931 1631 
Q 2931 2084 2911 2256 
Q 2891 2428 2841 2509 
Q 2775 2619 2662 2680 
Q 2550 2741 2406 2741 
Q 2056 2741 1856 2470 
Q 1656 2200 1656 1722 
L 1656 0 
L 538 0 
L 538 3500 
L 1656 3500 
L 1656 2988 
Q 1909 3294 2193 3439 
Q 2478 3584 2822 3584 
Q 3428 3584 3742 3212 
Q 4056 2841 4056 2131 
z
" transform="scale(0.015625)"/>
        <path id="DejaVuSans-Bold-6b" d="M 538 4863 
L 1656 4863 
L 1656 2216 
L 2944 3500 
L 4244 3500 
L 2534 1894 
L 4378 0 
L 3022 0 
L 1656 1459 
L 1656 0 
L 538 0 
L 538 4863 
z
" transform="scale(0.015625)"/>
        <path id="DejaVuSans-Bold-77" d="M 225 3500 
L 1313 3500 
L 1900 1088 
L 2491 3500 
L 3425 3500 
L 4013 1113 
L 4603 3500 
L 5691 3500 
L 4769 0 
L 3547 0 
L 2956 2406 
L 2369 0 
L 1147 0 
L 225 3500 
z
" transform="scale(0.015625)"/>
        <path id="DejaVuSans-Bold-20" transform="scale(0.015625)"/>
       </defs>
       <use xlink:href="#DejaVuSans-Bold-55"/>
       <use xlink:href="#DejaVuSans-Bold-6e" x="81.201172"/>
       <use xlink:href="#DejaVuSans-Bold-6b" x="152.392578"/>
       <use xlink:href="#DejaVuSans-Bold-6e" x="218.896484"/>
       <use xlink:href="#DejaVuSans-Bold-6f" x="290.087891"/>
       <use xlink:href="#DejaVuSans-Bold-77" x="358.789062"/>
       <use xlink:href="#DejaVuSans-Bold-6e" x="451.171875"/>
       <use xlink:href="#DejaVuSans-Bold-20" x="522.363281"/>
       <use xlink:href="#DejaVuSans-Bold-50" x="557.177734"/>
       <use xlink:href="#DejaVuSans-Bold-72" x="630.46875"/>
       <use xlink:href="#DejaVuSans-Bold-6f" x="679.785156"/>
       <use xlink:href="#DejaVuSans-Bold-6a" x="748.486328"/>
       <use xlink:href="#DejaVuSans-Bold-65" x="782.763672"/>
       <use xlink:href="#DejaVuSans-Bold-63" x="850.585938"/>
       <use xlink:href="#DejaVuSans-Bold-74" x="909.863281"/>
      </g>
     </g>
    </g>
    <g id="ytick_4">
     <g id="line2d_4">
      <g>
       <use xlink:href="#m7f085903f6" x="205.734375" y="228.305041" style="stroke: #000000; stroke-width: 0.8"/>
      </g>
     </g>
     <g id="text_4">
      <!-- CIGIN -->
      <g style="fill: #586069" transform="translate(136.021875 235.903479)scale(0.2 -0.2)">
       <defs>
        <path id="DejaVuSans-Bold-49" d="M 588 4666 
L 1791 4666 
L 1791 0 
L 588 0 
L 588 4666 
z
" transform="scale(0.015625)"/>
        <path id="DejaVuSans-Bold-47" d="M 4781 347 
Q 4331 128 3847 18 
Q 3363 -91 2847 -91 
Q 1681 -91 1000 561 
Q 319 1213 319 2328 
Q 319 3456 1012 4103 
Q 1706 4750 2913 4750 
Q 3378 4750 3804 4662 
Q 4231 4575 4609 4403 
L 4609 3438 
Q 4219 3659 3833 3768 
Q 3447 3878 3059 3878 
Q 2341 3878 1952 3476 
Q 1563 3075 1563 2328 
Q 1563 1588 1938 1184 
Q 2313 781 3003 781 
Q 3191 781 3352 804 
Q 3513 828 3641 878 
L 3641 1784 
L 2906 1784 
L 2906 2591 
L 4781 2591 
L 4781 347 
z
" transform="scale(0.015625)"/>
        <path id="DejaVuSans-Bold-4e" d="M 588 4666 
L 1931 4666 
L 3628 1466 
L 3628 4666 
L 4769 4666 
L 4769 0 
L 3425 0 
L 1728 3200 
L 1728 0 
L 588 0 
L 588 4666 
z
" transform="scale(0.015625)"/>
       </defs>
       <use xlink:href="#DejaVuSans-Bold-43"/>
       <use xlink:href="#DejaVuSans-Bold-49" x="73.388672"/>
       <use xlink:href="#DejaVuSans-Bold-47" x="110.595703"/>
       <use xlink:href="#DejaVuSans-Bold-49" x="192.675781"/>
       <use xlink:href="#DejaVuSans-Bold-4e" x="229.882812"/>
      </g>
     </g>
    </g>
    <g id="ytick_5">
     <g id="line2d_5">
      <g>
       <use xlink:href="#m7f085903f6" x="205.734375" y="277.095124" style="stroke: #000000; stroke-width: 0.8"/>
      </g>
     </g>
     <g id="text_5">
      <!-- fabric -->
      <g style="fill: #586069" transform="translate(133.646875 284.693561)scale(0.2 -0.2)">
       <defs>
        <path id="DejaVuSans-Bold-66" d="M 2841 4863 
L 2841 4128 
L 2222 4128 
Q 1984 4128 1890 4042 
Q 1797 3956 1797 3744 
L 1797 3500 
L 2753 3500 
L 2753 2700 
L 1797 2700 
L 1797 0 
L 678 0 
L 678 2700 
L 122 2700 
L 122 3500 
L 678 3500 
L 678 3744 
Q 678 4316 997 4589 
Q 1316 4863 1984 4863 
L 2841 4863 
z
" transform="scale(0.015625)"/>
        <path id="DejaVuSans-Bold-62" d="M 2400 722 
Q 2759 722 2948 984 
Q 3138 1247 3138 1747 
Q 3138 2247 2948 2509 
Q 2759 2772 2400 2772 
Q 2041 2772 1848 2508 
Q 1656 2244 1656 1747 
Q 1656 1250 1848 986 
Q 2041 722 2400 722 
z
M 1656 2988 
Q 1888 3294 2169 3439 
Q 2450 3584 2816 3584 
Q 3463 3584 3878 3070 
Q 4294 2556 4294 1747 
Q 4294 938 3878 423 
Q 3463 -91 2816 -91 
Q 2450 -91 2169 54 
Q 1888 200 1656 506 
L 1656 0 
L 538 0 
L 538 4863 
L 1656 4863 
L 1656 2988 
z
" transform="scale(0.015625)"/>
        <path id="DejaVuSans-Bold-69" d="M 538 3500 
L 1656 3500 
L 1656 0 
L 538 0 
L 538 3500 
z
M 538 4863 
L 1656 4863 
L 1656 3950 
L 538 3950 
L 538 4863 
z
" transform="scale(0.015625)"/>
       </defs>
       <use xlink:href="#DejaVuSans-Bold-66"/>
       <use xlink:href="#DejaVuSans-Bold-61" x="43.505859"/>
       <use xlink:href="#DejaVuSans-Bold-62" x="110.986328"/>
       <use xlink:href="#DejaVuSans-Bold-72" x="182.568359"/>
       <use xlink:href="#DejaVuSans-Bold-69" x="231.884766"/>
       <use xlink:href="#DejaVuSans-Bold-63" x="266.162109"/>
      </g>
     </g>
    </g>
    <g id="ytick_6">
     <g id="line2d_6">
      <g>
       <use xlink:href="#m7f085903f6" x="205.734375" y="325.885207" style="stroke: #000000; stroke-width: 0.8"/>
      </g>
     </g>
     <g id="text_6">
      <!-- dotfiles-sway -->
      <g style="fill: #586069" transform="translate(48.646875 333.483644)scale(0.2 -0.2)">
       <defs>
        <path id="DejaVuSans-Bold-64" d="M 2919 2988 
L 2919 4863 
L 4044 4863 
L 4044 0 
L 2919 0 
L 2919 506 
Q 2688 197 2409 53 
Q 2131 -91 1766 -91 
Q 1119 -91 703 423 
Q 288 938 288 1747 
Q 288 2556 703 3070 
Q 1119 3584 1766 3584 
Q 2128 3584 2408 3439 
Q 2688 3294 2919 2988 
z
M 2181 722 
Q 2541 722 2730 984 
Q 2919 1247 2919 1747 
Q 2919 2247 2730 2509 
Q 2541 2772 2181 2772 
Q 1825 2772 1636 2509 
Q 1447 2247 1447 1747 
Q 1447 1247 1636 984 
Q 1825 722 2181 722 
z
" transform="scale(0.015625)"/>
        <path id="DejaVuSans-Bold-73" d="M 3272 3391 
L 3272 2541 
Q 2913 2691 2578 2766 
Q 2244 2841 1947 2841 
Q 1628 2841 1473 2761 
Q 1319 2681 1319 2516 
Q 1319 2381 1436 2309 
Q 1553 2238 1856 2203 
L 2053 2175 
Q 2913 2066 3209 1816 
Q 3506 1566 3506 1031 
Q 3506 472 3093 190 
Q 2681 -91 1863 -91 
Q 1516 -91 1145 -36 
Q 775 19 384 128 
L 384 978 
Q 719 816 1070 734 
Q 1422 653 1784 653 
Q 2113 653 2278 743 
Q 2444 834 2444 1013 
Q 2444 1163 2330 1236 
Q 2216 1309 1875 1350 
L 1678 1375 
Q 931 1469 631 1722 
Q 331 1975 331 2491 
Q 331 3047 712 3315 
Q 1094 3584 1881 3584 
Q 2191 3584 2531 3537 
Q 2872 3491 3272 3391 
z
" transform="scale(0.015625)"/>
        <path id="DejaVuSans-Bold-2d" d="M 347 2297 
L 2309 2297 
L 2309 1388 
L 347 1388 
L 347 2297 
z
" transform="scale(0.015625)"/>
        <path id="DejaVuSans-Bold-79" d="M 78 3500 
L 1197 3500 
L 2138 1125 
L 2938 3500 
L 4056 3500 
L 2584 -331 
Q 2363 -916 2067 -1148 
Q 1772 -1381 1288 -1381 
L 641 -1381 
L 641 -647 
L 991 -647 
Q 1275 -647 1404 -556 
Q 1534 -466 1606 -231 
L 1638 -134 
L 78 3500 
z
" transform="scale(0.015625)"/>
       </defs>
       <use xlink:href="#DejaVuSans-Bold-64"/>
       <use xlink:href="#DejaVuSans-Bold-6f" x="71.582031"/>
       <use xlink:href="#DejaVuSans-Bold-74" x="140.283203"/>
       <use xlink:href="#DejaVuSans-Bold-66" x="188.085938"/>
       <use xlink:href="#DejaVuSans-Bold-69" x="231.591797"/>
       <use xlink:href="#DejaVuSans-Bold-6c" x="265.869141"/>
       <use xlink:href="#DejaVuSans-Bold-65" x="300.146484"/>
       <use xlink:href="#DejaVuSans-Bold-73" x="367.96875"/>
       <use xlink:href="#DejaVuSans-Bold-2d" x="427.490234"/>
       <use xlink:href="#DejaVuSans-Bold-73" x="468.994141"/>
       <use xlink:href="#DejaVuSans-Bold-77" x="528.515625"/>
       <use xlink:href="#DejaVuSans-Bold-61" x="620.898438"/>
       <use xlink:href="#DejaVuSans-Bold-79" x="685.253906"/>
      </g>
     </g>
    </g>
   </g>
   <g id="patch_9">
    <path d="M 205.734375 351.5 
L 205.734375 56.32 
" style="fill: none; stroke: #000000; stroke-width: 0.8; stroke-linejoin: miter; stroke-linecap: square"/>
   </g>
   <g id="patch_10">
    <path d="M 205.734375 351.5 
L 694.42944 351.5 
" style="fill: none; stroke: #000000; stroke-width: 0.8; stroke-linejoin: miter; stroke-linecap: square"/>
   </g>
   <g id="text_7">
    <!-- 16 hrs 56 mins -->
    <g style="fill: #586069" transform="translate(675.158246 86.073856)scale(0.15 -0.15)">
     <defs>
      <path id="DejaVuSans-Bold-31" d="M 750 831 
L 1813 831 
L 1813 3847 
L 722 3622 
L 722 4441 
L 1806 4666 
L 2950 4666 
L 2950 831 
L 4013 831 
L 4013 0 
L 750 0 
L 750 831 
z
" transform="scale(0.015625)"/>
      <path id="DejaVuSans-Bold-36" d="M 2316 2303 
Q 2000 2303 1842 2098 
Q 1684 1894 1684 1484 
Q 1684 1075 1842 870 
Q 2000 666 2316 666 
Q 2634 666 2792 870 
Q 2950 1075 2950 1484 
Q 2950 1894 2792 2098 
Q 2634 2303 2316 2303 
z
M 3803 4544 
L 3803 3681 
Q 3506 3822 3243 3889 
Q 2981 3956 2731 3956 
Q 2194 3956 1894 3657 
Q 1594 3359 1544 2772 
Q 1750 2925 1990 3001 
Q 2231 3078 2516 3078 
Q 3231 3078 3670 2659 
Q 4109 2241 4109 1563 
Q 4109 813 3618 361 
Q 3128 -91 2303 -91 
Q 1394 -91 895 523 
Q 397 1138 397 2266 
Q 397 3422 980 4083 
Q 1563 4744 2578 4744 
Q 2900 4744 3203 4694 
Q 3506 4644 3803 4544 
z
" transform="scale(0.015625)"/>
      <path id="DejaVuSans-Bold-68" d="M 4056 2131 
L 4056 0 
L 2931 0 
L 2931 347 
L 2931 1625 
Q 2931 2084 2911 2256 
Q 2891 2428 2841 2509 
Q 2775 2619 2662 2680 
Q 2550 2741 2406 2741 
Q 2056 2741 1856 2470 
Q 1656 2200 1656 1722 
L 1656 0 
L 538 0 
L 538 4863 
L 1656 4863 
L 1656 2988 
Q 1909 3294 2193 3439 
Q 2478 3584 2822 3584 
Q 3428 3584 3742 3212 
Q 4056 2841 4056 2131 
z
" transform="scale(0.015625)"/>
      <path id="DejaVuSans-Bold-35" d="M 678 4666 
L 3669 4666 
L 3669 3781 
L 1638 3781 
L 1638 3059 
Q 1775 3097 1914 3117 
Q 2053 3138 2203 3138 
Q 3056 3138 3531 2711 
Q 4006 2284 4006 1522 
Q 4006 766 3489 337 
Q 2972 -91 2053 -91 
Q 1656 -91 1267 -14 
Q 878 63 494 219 
L 494 1166 
Q 875 947 1217 837 
Q 1559 728 1863 728 
Q 2300 728 2551 942 
Q 2803 1156 2803 1522 
Q 2803 1891 2551 2103 
Q 2300 2316 1863 2316 
Q 1603 2316 1309 2248 
Q 1016 2181 678 2041 
L 678 4666 
z
" transform="scale(0.015625)"/>
     </defs>
     <use xlink:href="#DejaVuSans-Bold-31"/>
     <use xlink:href="#DejaVuSans-Bold-36" x="69.580078"/>
     <use xlink:href="#DejaVuSans-Bold-20" x="139.160156"/>
     <use xlink:href="#DejaVuSans-Bold-68" x="173.974609"/>
     <use xlink:href="#DejaVuSans-Bold-72" x="245.166016"/>
     <use xlink:href="#DejaVuSans-Bold-73" x="294.482422"/>
     <use xlink:href="#DejaVuSans-Bold-20" x="354.003906"/>
     <use xlink:href="#DejaVuSans-Bold-35" x="388.818359"/>
     <use xlink:href="#DejaVuSans-Bold-36" x="458.398438"/>
     <use xlink:href="#DejaVuSans-Bold-20" x="527.978516"/>
     <use xlink:href="#DejaVuSans-Bold-6d" x="562.792969"/>
     <use xlink:href="#DejaVuSans-Bold-69" x="666.992188"/>
     <use xlink:href="#DejaVuSans-Bold-6e" x="701.269531"/>
     <use xlink:href="#DejaVuSans-Bold-73" x="772.460938"/>
    </g>
   </g>
   <g id="text_8">
    <!-- 9 hrs 36 mins -->
    <g style="fill: #586069" transform="translate(473.821253 134.863939)scale(0.15 -0.15)">
     <defs>
      <path id="DejaVuSans-Bold-39" d="M 641 103 
L 641 966 
Q 928 831 1190 764 
Q 1453 697 1709 697 
Q 2247 697 2547 995 
Q 2847 1294 2900 1881 
Q 2688 1725 2447 1647 
Q 2206 1569 1925 1569 
Q 1209 1569 770 1986 
Q 331 2403 331 3084 
Q 331 3838 820 4291 
Q 1309 4744 2131 4744 
Q 3044 4744 3544 4128 
Q 4044 3513 4044 2388 
Q 4044 1231 3459 570 
Q 2875 -91 1856 -91 
Q 1528 -91 1228 -42 
Q 928 6 641 103 
z
M 2125 2350 
Q 2441 2350 2600 2554 
Q 2759 2759 2759 3169 
Q 2759 3575 2600 3781 
Q 2441 3988 2125 3988 
Q 1809 3988 1650 3781 
Q 1491 3575 1491 3169 
Q 1491 2759 1650 2554 
Q 1809 2350 2125 2350 
z
" transform="scale(0.015625)"/>
      <path id="DejaVuSans-Bold-33" d="M 2981 2516 
Q 3453 2394 3698 2092 
Q 3944 1791 3944 1325 
Q 3944 631 3412 270 
Q 2881 -91 1863 -91 
Q 1503 -91 1142 -33 
Q 781 25 428 141 
L 428 1069 
Q 766 900 1098 814 
Q 1431 728 1753 728 
Q 2231 728 2486 893 
Q 2741 1059 2741 1369 
Q 2741 1688 2480 1852 
Q 2219 2016 1709 2016 
L 1228 2016 
L 1228 2791 
L 1734 2791 
Q 2188 2791 2409 2933 
Q 2631 3075 2631 3366 
Q 2631 3634 2415 3781 
Q 2200 3928 1806 3928 
Q 1516 3928 1219 3862 
Q 922 3797 628 3669 
L 628 4550 
Q 984 4650 1334 4700 
Q 1684 4750 2022 4750 
Q 2931 4750 3382 4451 
Q 3834 4153 3834 3553 
Q 3834 3144 3618 2883 
Q 3403 2622 2981 2516 
z
" transform="scale(0.015625)"/>
     </defs>
     <use xlink:href="#DejaVuSans-Bold-39"/>
     <use xlink:href="#DejaVuSans-Bold-20" x="69.580078"/>
     <use xlink:href="#DejaVuSans-Bold-68" x="104.394531"/>
     <use xlink:href="#DejaVuSans-Bold-72" x="175.585938"/>
     <use xlink:href="#DejaVuSans-Bold-73" x="224.902344"/>
     <use xlink:href="#DejaVuSans-Bold-20" x="284.423828"/>
     <use xlink:href="#DejaVuSans-Bold-33" x="319.238281"/>
     <use xlink:href="#DejaVuSans-Bold-36" x="388.818359"/>
     <use xlink:href="#DejaVuSans-Bold-20" x="458.398438"/>
     <use xlink:href="#DejaVuSans-Bold-6d" x="493.212891"/>
     <use xlink:href="#DejaVuSans-Bold-69" x="597.412109"/>
     <use xlink:href="#DejaVuSans-Bold-6e" x="631.689453"/>
     <use xlink:href="#DejaVuSans-Bold-73" x="702.880859"/>
    </g>
   </g>
   <g id="text_9">
    <!-- 3 hrs 9 mins -->
    <g style="fill: #586069" transform="translate(296.405487 183.654021)scale(0.15 -0.15)">
     <use xlink:href="#DejaVuSans-Bold-33"/>
     <use xlink:href="#DejaVuSans-Bold-20" x="69.580078"/>
     <use xlink:href="#DejaVuSans-Bold-68" x="104.394531"/>
     <use xlink:href="#DejaVuSans-Bold-72" x="175.585938"/>
     <use xlink:href="#DejaVuSans-Bold-73" x="224.902344"/>
     <use xlink:href="#DejaVuSans-Bold-20" x="284.423828"/>
     <use xlink:href="#DejaVuSans-Bold-39" x="319.238281"/>
     <use xlink:href="#DejaVuSans-Bold-20" x="388.818359"/>
     <use xlink:href="#DejaVuSans-Bold-6d" x="423.632812"/>
     <use xlink:href="#DejaVuSans-Bold-69" x="527.832031"/>
     <use xlink:href="#DejaVuSans-Bold-6e" x="562.109375"/>
     <use xlink:href="#DejaVuSans-Bold-73" x="633.300781"/>
    </g>
   </g>
   <g id="text_10">
    <!-- 1 hr 33 mins -->
    <g style="fill: #586069" transform="translate(252.463233 232.444104)scale(0.15 -0.15)">
     <use xlink:href="#DejaVuSans-Bold-31"/>
     <use xlink:href="#DejaVuSans-Bold-20" x="69.580078"/>
     <use xlink:href="#DejaVuSans-Bold-68" x="104.394531"/>
     <use xlink:href="#DejaVuSans-Bold-72" x="175.585938"/>
     <use xlink:href="#DejaVuSans-Bold-20" x="224.902344"/>
     <use xlink:href="#DejaVuSans-Bold-33" x="259.716797"/>
     <use xlink:href="#DejaVuSans-Bold-33" x="329.296875"/>
     <use xlink:href="#DejaVuSans-Bold-20" x="398.876953"/>
     <use xlink:href="#DejaVuSans-Bold-6d" x="433.691406"/>
     <use xlink:href="#DejaVuSans-Bold-69" x="537.890625"/>
     <use xlink:href="#DejaVuSans-Bold-6e" x="572.167969"/>
     <use xlink:href="#DejaVuSans-Bold-73" x="643.359375"/>
    </g>
   </g>
   <g id="text_11">
    <!-- 9 mins -->
    <g style="fill: #586069" transform="translate(214.154602 281.234186)scale(0.15 -0.15)">
     <use xlink:href="#DejaVuSans-Bold-39"/>
     <use xlink:href="#DejaVuSans-Bold-20" x="69.580078"/>
     <use xlink:href="#DejaVuSans-Bold-6d" x="104.394531"/>
     <use xlink:href="#DejaVuSans-Bold-69" x="208.59375"/>
     <use xlink:href="#DejaVuSans-Bold-6e" x="242.871094"/>
     <use xlink:href="#DejaVuSans-Bold-73" x="314.0625"/>
    </g>
   </g>
   <g id="text_12">
    <!-- 6 mins -->
    <g style="fill: #586069" transform="translate(212.941206 330.024269)scale(0.15 -0.15)">
     <use xlink:href="#DejaVuSans-Bold-36"/>
     <use xlink:href="#DejaVuSans-Bold-20" x="69.580078"/>
     <use xlink:href="#DejaVuSans-Bold-6d" x="104.394531"/>
     <use xlink:href="#DejaVuSans-Bold-69" x="208.59375"/>
     <use xlink:href="#DejaVuSans-Bold-6e" x="242.871094"/>
     <use xlink:href="#DejaVuSans-Bold-73" x="314.0625"/>
    </g>
   </g>
   <g id="text_13">
    <!-- Projects touched : -->
    <g style="fill: #2a475e" transform="translate(388.450657 50.32)scale(0.12 -0.12)">
     <defs>
      <path id="DejaVuSans-Bold-75" d="M 500 1363 
L 500 3500 
L 1625 3500 
L 1625 3150 
Q 1625 2866 1622 2436 
Q 1619 2006 1619 1863 
Q 1619 1441 1641 1255 
Q 1663 1069 1716 984 
Q 1784 875 1895 815 
Q 2006 756 2150 756 
Q 2500 756 2700 1025 
Q 2900 1294 2900 1772 
L 2900 3500 
L 4019 3500 
L 4019 0 
L 2900 0 
L 2900 506 
Q 2647 200 2364 54 
Q 2081 -91 1741 -91 
Q 1134 -91 817 281 
Q 500 653 500 1363 
z
" transform="scale(0.015625)"/>
      <path id="DejaVuSans-Bold-3a" d="M 716 3500 
L 1844 3500 
L 1844 2291 
L 716 2291 
L 716 3500 
z
M 716 1209 
L 1844 1209 
L 1844 0 
L 716 0 
L 716 1209 
z
" transform="scale(0.015625)"/>
     </defs>
     <use xlink:href="#DejaVuSans-Bold-50"/>
     <use xlink:href="#DejaVuSans-Bold-72" x="73.291016"/>
     <use xlink:href="#DejaVuSans-Bold-6f" x="122.607422"/>
     <use xlink:href="#DejaVuSans-Bold-6a" x="191.308594"/>
     <use xlink:href="#DejaVuSans-Bold-65" x="225.585938"/>
     <use xlink:href="#DejaVuSans-Bold-63" x="293.408203"/>
     <use xlink:href="#DejaVuSans-Bold-74" x="352.685547"/>
     <use xlink:href="#DejaVuSans-Bold-73" x="400.488281"/>
     <use xlink:href="#DejaVuSans-Bold-20" x="460.009766"/>
     <use xlink:href="#DejaVuSans-Bold-74" x="494.824219"/>
     <use xlink:href="#DejaVuSans-Bold-6f" x="542.626953"/>
     <use xlink:href="#DejaVuSans-Bold-75" x="611.328125"/>
     <use xlink:href="#DejaVuSans-Bold-63" x="682.519531"/>
     <use xlink:href="#DejaVuSans-Bold-68" x="741.796875"/>
     <use xlink:href="#DejaVuSans-Bold-65" x="812.988281"/>
     <use xlink:href="#DejaVuSans-Bold-64" x="880.810547"/>
     <use xlink:href="#DejaVuSans-Bold-20" x="952.392578"/>
     <use xlink:href="#DejaVuSans-Bold-3a" x="987.207031"/>
    </g>
   </g>
  </g>
  <g id="axes_2">
   <g id="patch_11">
    <path d="M 857.525806 179.550995 
L 885.622819 184.981871 
" style="fill: none; stroke: #000000; stroke-linecap: round"/>
   </g>
   <g id="text_14">
    <g id="patch_12">
     <path d="M 800.092998 187.395613 
L 855.201123 187.395613 
L 855.201123 168.488113 
L 800.092998 168.488113 
z
" style="fill: #ffffff; stroke: #000000; stroke-width: 0.72; stroke-linejoin: miter"/>
    </g>
    <!-- Python -->
    <g style="fill: #2a475e" transform="translate(803.692998 181.206238)scale(0.12 -0.12)">
     <use xlink:href="#DejaVuSans-Bold-50"/>
     <use xlink:href="#DejaVuSans-Bold-79" x="75.166016"/>
     <use xlink:href="#DejaVuSans-Bold-74" x="140.351562"/>
     <use xlink:href="#DejaVuSans-Bold-68" x="188.154297"/>
     <use xlink:href="#DejaVuSans-Bold-6f" x="259.345703"/>
     <use xlink:href="#DejaVuSans-Bold-6e" x="328.046875"/>
    </g>
   </g>
   <g id="patch_13">
    <path d="M 1109.531767 262.795381 
L 1107.064881 262.795381 
L 1073.579579 246.831512 
" style="fill: none; stroke: #000000; stroke-linecap: round"/>
   </g>
   <g id="text_15">
    <g id="patch_14">
     <path d="M 1111.896458 272.202256 
L 1148.217083 272.202256 
L 1148.217083 253.388506 
L 1111.896458 253.388506 
z
" style="fill: #ffffff; stroke: #000000; stroke-width: 0.72; stroke-linejoin: miter"/>
    </g>
    <!-- conf -->
    <g style="fill: #2a475e" transform="translate(1115.496458 266.106631)scale(0.12 -0.12)">
     <use xlink:href="#DejaVuSans-Bold-63"/>
     <use xlink:href="#DejaVuSans-Bold-6f" x="59.277344"/>
     <use xlink:href="#DejaVuSans-Bold-6e" x="127.978516"/>
     <use xlink:href="#DejaVuSans-Bold-66" x="199.169922"/>
    </g>
   </g>
   <g id="patch_15">
    <path d="M 1109.588174 233.590301 
L 1080.635861 226.772485 
" style="fill: none; stroke: #000000; stroke-linecap: round"/>
   </g>
   <g id="text_16">
    <g id="patch_16">
     <path d="M 1111.896458 244.681392 
L 1134.780833 244.681392 
L 1134.780833 225.867642 
L 1111.896458 225.867642 
z
" style="fill: #ffffff; stroke: #000000; stroke-width: 0.72; stroke-linejoin: miter"/>
    </g>
    <!-- sh -->
    <g style="fill: #2a475e" transform="translate(1115.496458 238.585767)scale(0.12 -0.12)">
     <use xlink:href="#DejaVuSans-Bold-73"/>
     <use xlink:href="#DejaVuSans-Bold-68" x="59.521484"/>
    </g>
   </g>
   <g id="patch_17">
    <path d="M 1109.537298 210.339239 
L 1083.159478 208.993169 
" style="fill: none; stroke: #000000; stroke-linecap: round"/>
   </g>
   <g id="text_17">
    <g id="patch_18">
     <path d="M 1111.896458 220.29052 
L 1152.025208 220.29052 
L 1152.025208 201.47677 
L 1111.896458 201.47677 
z
" style="fill: #ffffff; stroke: #000000; stroke-width: 0.72; stroke-linejoin: miter"/>
    </g>
    <!-- Bash -->
    <g style="fill: #2a475e" transform="translate(1115.496458 214.194895)scale(0.12 -0.12)">
     <use xlink:href="#DejaVuSans-Bold-42"/>
     <use xlink:href="#DejaVuSans-Bold-61" x="76.220703"/>
     <use xlink:href="#DejaVuSans-Bold-73" x="143.701172"/>
     <use xlink:href="#DejaVuSans-Bold-68" x="203.222656"/>
    </g>
   </g>
   <g id="patch_19">
    <path d="M 1109.542282 191.15595 
L 1082.780848 193.864952 
" style="fill: none; stroke: #000000; stroke-linecap: round"/>
   </g>
   <g id="text_18">
    <g id="patch_20">
     <path d="M 1111.896458 199.582703 
L 1150.555208 199.582703 
L 1150.555208 180.675203 
L 1111.896458 180.675203 
z
" style="fill: #ffffff; stroke: #000000; stroke-width: 0.72; stroke-linejoin: miter"/>
    </g>
    <!-- yuck -->
    <g style="fill: #2a475e" transform="translate(1115.496458 193.393328)scale(0.12 -0.12)">
     <use xlink:href="#DejaVuSans-Bold-79"/>
     <use xlink:href="#DejaVuSans-Bold-75" x="65.185547"/>
     <use xlink:href="#DejaVuSans-Bold-63" x="136.376953"/>
     <use xlink:href="#DejaVuSans-Bold-6b" x="195.654297"/>
    </g>
   </g>
   <g id="patch_21">
    <path d="M 1077.848148 188.892579 
C 1075.88003 177.730828 1071.985332 166.996003 1066.338499 157.168925 
C 1060.691667 147.341848 1053.378287 138.571464 1044.725934 131.250607 
C 1036.073581 123.92975 1026.213394 118.169379 1015.587021 114.227507 
C 1004.960648 110.285635 993.729148 108.222007 982.39559 108.129054 
C 971.062033 108.036102 959.798196 109.915235 949.108598 113.682284 
C 938.419 117.449333 928.465659 123.047203 919.694393 130.22516 
C 910.923128 137.403118 903.466882 146.052369 897.659626 155.785505 
C 891.85237 165.518642 887.782124 176.188143 885.631197 187.316111 
C 883.48027 198.444079 883.281263 209.861853 885.04309 221.058019 
C 886.804917 232.254184 890.500875 243.059047 895.965417 252.988646 
C 901.42996 262.918245 908.580264 271.822082 917.09606 279.301345 
C 925.611856 286.780608 935.364074 292.721938 945.915903 296.859216 
C 956.467732 300.996494 967.659242 303.267014 978.989155 303.569076 
C 990.319068 303.871138 1001.61566 302.200165 1012.372948 298.631001 
C 1023.130235 295.061837 1033.185173 289.648578 1042.087392 282.633689 
C 1050.989611 275.618801 1058.604184 267.108604 1064.590046 257.48428 
L 1023.092028 231.67453 
C 1020.099097 236.486692 1016.291811 240.74179 1011.840701 244.249235 
C 1007.389592 247.756679 1002.362123 250.463308 996.983479 252.247891 
C 991.604835 254.032473 985.956539 254.867959 980.291583 254.716928 
C 974.626626 254.565897 969.030871 253.430637 963.754957 251.361998 
C 958.479042 249.293359 953.602933 246.322694 949.345035 242.583063 
C 945.087137 238.843431 941.511985 234.391513 938.779714 229.426713 
C 936.047443 224.461914 934.199464 219.059482 933.31855 213.461399 
C 932.437637 207.863316 932.53714 202.15443 933.612604 196.590446 
C 934.688067 191.026461 936.72319 185.691711 939.626818 180.825143 
C 942.530446 175.958574 946.258569 171.633949 950.644202 168.04497 
C 955.029835 164.455992 960.006505 161.657057 965.351304 159.773532 
C 970.696103 157.890007 976.328022 156.950441 981.9948 156.996917 
C 987.661579 157.043393 993.277329 158.075207 998.590516 160.046144 
C 1003.903702 162.01708 1008.833796 164.897265 1013.159972 168.557694 
C 1017.486149 172.218122 1021.142839 176.603314 1023.966255 181.516853 
C 1026.789671 186.430391 1028.73702 191.797804 1029.721079 197.37868 
L 1077.848148 188.892579 
z
" style="fill: #092436; opacity: 0.5; stroke: #092436; stroke-width: 4; stroke-linejoin: miter"/>
   </g>
   <g id="patch_22">
    <path d="M 1073.412624 261.690379 
C 1075.332246 258.603928 1077.078206 255.412799 1078.642367 252.131866 
C 1080.206528 248.850932 1081.586455 245.485299 1082.775717 242.050655 
L 1036.596152 226.060767 
C 1036.001522 227.778089 1035.311558 229.460905 1034.529478 231.101372 
C 1033.747397 232.741839 1032.874417 234.337404 1031.914606 235.880629 
L 1073.412624 261.690379 
z
" style="fill: #4c2604; opacity: 0.5; stroke: #4c2604; stroke-width: 4; stroke-linejoin: miter"/>
   </g>
   <g id="patch_23">
    <path d="M 1083.466818 240.084879 
C 1084.555043 236.942035 1085.482138 233.745693 1086.244487 230.508329 
C 1087.006835 227.270965 1087.603443 223.996798 1088.031981 220.698609 
L 1039.569836 214.401856 
C 1039.355567 216.050951 1039.057263 217.688034 1038.676088 219.306716 
C 1038.294914 220.925398 1037.831366 222.523569 1037.287254 224.094991 
L 1083.466818 240.084879 
z
" style="fill: #0d300d; opacity: 0.5; stroke: #0d300d; stroke-width: 4; stroke-linejoin: miter"/>
   </g>
   <g id="patch_24">
    <path d="M 1088.279502 218.956404 
C 1088.607904 216.428898 1088.837316 213.889513 1088.96721 211.344073 
C 1089.097105 208.798634 1089.127383 206.249087 1089.057976 203.70128 
L 1040.206593 205.032089 
C 1040.241297 206.305992 1040.226158 207.580766 1040.16121 208.853485 
C 1040.096263 210.126205 1039.981557 211.395898 1039.817356 212.659651 
L 1088.279502 218.956404 
z
" style="fill: #400c0c; opacity: 0.5; stroke: #400c0c; stroke-width: 4; stroke-linejoin: miter"/>
   </g>
   <g id="patch_25">
    <path d="M 1089.020982 202.218802 
C 1088.955633 199.819963 1088.80196 197.424343 1088.560276 195.036815 
C 1088.318591 192.649287 1087.989059 190.271469 1087.57235 187.908197 
L 1039.445283 196.394308 
C 1039.653638 197.575944 1039.818404 198.764853 1039.939246 199.958617 
C 1040.060088 201.152382 1040.136925 202.350191 1040.169599 203.549611 
L 1089.020982 202.218802 
z
" style="fill: #2c1f39; opacity: 0.5; stroke: #2c1f39; stroke-width: 4; stroke-linejoin: miter"/>
   </g>
   <g id="patch_26">
    <path d="M 1079.802928 186.937799 
C 1077.834811 175.776048 1073.940112 165.041222 1068.293279 155.214145 
C 1062.646447 145.387068 1055.333068 136.616684 1046.680714 129.295827 
C 1038.028361 121.97497 1028.168174 116.214599 1017.541801 112.272727 
C 1006.915428 108.330854 995.683928 106.267226 984.35037 106.174274 
C 973.016813 106.081322 961.752976 107.960454 951.063378 111.727504 
C 940.37378 115.494553 930.420439 121.092423 921.649174 128.27038 
C 912.877908 135.448337 905.421662 144.097588 899.614406 153.830725 
C 893.807151 163.563861 889.736904 174.233362 887.585977 185.361331 
C 885.43505 196.489299 885.236044 207.907072 886.99787 219.103238 
C 888.759697 230.299404 892.455655 241.104267 897.920198 251.033866 
C 903.38474 260.963465 910.535044 269.867302 919.05084 277.346565 
C 927.566637 284.825828 937.318855 290.767158 947.870684 294.904436 
C 958.422513 299.041714 969.614023 301.312233 980.943935 301.614296 
C 992.273848 301.916358 1003.570441 300.245385 1014.327728 296.676221 
C 1025.085015 293.107056 1035.139954 287.693797 1044.042173 280.678909 
C 1052.944392 273.66402 1060.558964 265.153824 1066.544826 255.5295 
L 1025.046808 229.71975 
C 1022.053877 234.531912 1018.246591 238.78701 1013.795482 242.294454 
C 1009.344372 245.801899 1004.316903 248.508528 998.938259 250.29311 
C 993.559616 252.077692 987.911319 252.913179 982.246363 252.762148 
C 976.581407 252.611117 970.985652 251.475857 965.709737 249.407218 
C 960.433823 247.338579 955.557714 244.367914 951.299815 240.628282 
C 947.041917 236.888651 943.466765 232.436732 940.734494 227.471933 
C 938.002223 222.507133 936.154244 217.104702 935.273331 211.506619 
C 934.392417 205.908536 934.49192 200.199649 935.567384 194.635665 
C 936.642847 189.071681 938.677971 183.736931 941.581598 178.870362 
C 944.485226 174.003794 948.21335 169.679169 952.598982 166.09019 
C 956.984615 162.501211 961.961285 159.702276 967.306084 157.818752 
C 972.650883 155.935227 978.282802 154.995661 983.949581 155.042137 
C 989.616359 155.088613 995.232109 156.120427 1000.545296 158.091363 
C 1005.858483 160.062299 1010.788576 162.942485 1015.114752 166.602913 
C 1019.440929 170.263342 1023.097619 174.648534 1025.921035 179.562073 
C 1028.744451 184.475611 1030.691801 189.843024 1031.675859 195.423899 
L 1079.802928 186.937799 
z
" style="fill: #1f77b4; stroke: #ffffff; stroke-width: 4; stroke-linejoin: miter"/>
   </g>
   <g id="patch_27">
    <path d="M 1075.367404 259.735598 
C 1077.287026 256.649148 1079.032987 253.458019 1080.597147 250.177085 
C 1082.161308 246.896152 1083.541235 243.530519 1084.730497 240.095875 
L 1038.550933 224.105987 
C 1037.956302 225.823309 1037.266338 227.506125 1036.484258 229.146592 
C 1035.702178 230.787059 1034.829197 232.382623 1033.869386 233.925848 
L 1075.367404 259.735598 
z
" style="fill: #ff7f0e; stroke: #ffffff; stroke-width: 4; stroke-linejoin: miter"/>
   </g>
   <g id="patch_28">
    <path d="M 1085.421599 238.130099 
C 1086.509823 234.987255 1087.436919 231.790912 1088.199267 228.553549 
C 1088.961616 225.316185 1089.558223 222.042018 1089.986762 218.743828 
L 1041.524616 212.447076 
C 1041.310347 214.09617 1041.012043 215.733254 1040.630869 217.351936 
C 1040.249694 218.970618 1039.786147 220.568789 1039.242034 222.140211 
L 1085.421599 238.130099 
z
" style="fill: #2ca02c; stroke: #ffffff; stroke-width: 4; stroke-linejoin: miter"/>
   </g>
   <g id="patch_29">
    <path d="M 1090.234282 217.001623 
C 1090.562684 214.474117 1090.792096 211.934732 1090.921991 209.389293 
C 1091.051885 206.843853 1091.082164 204.294307 1091.012756 201.7465 
L 1042.161374 203.077309 
C 1042.196077 204.351212 1042.180938 205.625985 1042.115991 206.898705 
C 1042.051043 208.171425 1041.936337 209.441117 1041.772136 210.70487 
L 1090.234282 217.001623 
z
" style="fill: #d62728; stroke: #ffffff; stroke-width: 4; stroke-linejoin: miter"/>
   </g>
   <g id="patch_30">
    <path d="M 1090.975762 200.264022 
C 1090.910413 197.865182 1090.75674 195.469563 1090.515056 193.082035 
C 1090.273372 190.694507 1089.94384 188.316689 1089.527131 185.953417 
L 1041.400064 194.439528 
C 1041.608418 195.621164 1041.773184 196.810073 1041.894026 198.003837 
C 1042.014868 199.197601 1042.091705 200.395411 1042.124379 201.594831 
L 1090.975762 200.264022 
z
" style="fill: #9467bd; stroke: #ffffff; stroke-width: 4; stroke-linejoin: miter"/>
   </g>
   <g id="matplotlib.axis_3"/>
   <g id="matplotlib.axis_4"/>
   <g id="text_19">
    <!-- Languages -->
    <g style="fill: #2a475e" transform="translate(952.970666 206.59125)scale(0.1 -0.1)">
     <defs>
      <path id="DejaVuSans-Bold-4c" d="M 588 4666 
L 1791 4666 
L 1791 909 
L 3903 909 
L 3903 0 
L 588 0 
L 588 4666 
z
" transform="scale(0.015625)"/>
      <path id="DejaVuSans-Bold-67" d="M 2919 594 
Q 2688 288 2409 144 
Q 2131 0 1766 0 
Q 1125 0 706 504 
Q 288 1009 288 1791 
Q 288 2575 706 3076 
Q 1125 3578 1766 3578 
Q 2131 3578 2409 3434 
Q 2688 3291 2919 2981 
L 2919 3500 
L 4044 3500 
L 4044 353 
Q 4044 -491 3511 -936 
Q 2978 -1381 1966 -1381 
Q 1638 -1381 1331 -1331 
Q 1025 -1281 716 -1178 
L 716 -306 
Q 1009 -475 1290 -558 
Q 1572 -641 1856 -641 
Q 2406 -641 2662 -400 
Q 2919 -159 2919 353 
L 2919 594 
z
M 2181 2772 
Q 1834 2772 1640 2515 
Q 1447 2259 1447 1791 
Q 1447 1309 1634 1061 
Q 1822 813 2181 813 
Q 2531 813 2725 1069 
Q 2919 1325 2919 1791 
Q 2919 2259 2725 2515 
Q 2531 2772 2181 2772 
z
" transform="scale(0.015625)"/>
     </defs>
     <use xlink:href="#DejaVuSans-Bold-4c"/>
     <use xlink:href="#DejaVuSans-Bold-61" x="63.720703"/>
     <use xlink:href="#DejaVuSans-Bold-6e" x="131.201172"/>
     <use xlink:href="#DejaVuSans-Bold-67" x="202.392578"/>
     <use xlink:href="#DejaVuSans-Bold-75" x="273.974609"/>
     <use xlink:href="#DejaVuSans-Bold-61" x="345.166016"/>
     <use xlink:href="#DejaVuSans-Bold-67" x="412.646484"/>
     <use xlink:href="#DejaVuSans-Bold-65" x="484.228516"/>
     <use xlink:href="#DejaVuSans-Bold-73" x="552.050781"/>
    </g>
   </g>
   <g id="text_20">
    <!-- Languages exploited : -->
    <g style="fill: #2a475e" transform="translate(908.575978 75.736234)scale(0.12 -0.12)">
     <defs>
      <path id="DejaVuSans-Bold-78" d="M 1422 1791 
L 159 3500 
L 1344 3500 
L 2059 2463 
L 2784 3500 
L 3969 3500 
L 2706 1797 
L 4031 0 
L 2847 0 
L 2059 1106 
L 1281 0 
L 97 0 
L 1422 1791 
z
" transform="scale(0.015625)"/>
     </defs>
     <use xlink:href="#DejaVuSans-Bold-4c"/>
     <use xlink:href="#DejaVuSans-Bold-61" x="63.720703"/>
     <use xlink:href="#DejaVuSans-Bold-6e" x="131.201172"/>
     <use xlink:href="#DejaVuSans-Bold-67" x="202.392578"/>
     <use xlink:href="#DejaVuSans-Bold-75" x="273.974609"/>
     <use xlink:href="#DejaVuSans-Bold-61" x="345.166016"/>
     <use xlink:href="#DejaVuSans-Bold-67" x="412.646484"/>
     <use xlink:href="#DejaVuSans-Bold-65" x="484.228516"/>
     <use xlink:href="#DejaVuSans-Bold-73" x="552.050781"/>
     <use xlink:href="#DejaVuSans-Bold-20" x="611.572266"/>
     <use xlink:href="#DejaVuSans-Bold-65" x="646.386719"/>
     <use xlink:href="#DejaVuSans-Bold-78" x="714.208984"/>
     <use xlink:href="#DejaVuSans-Bold-70" x="778.710938"/>
     <use xlink:href="#DejaVuSans-Bold-6c" x="850.292969"/>
     <use xlink:href="#DejaVuSans-Bold-6f" x="884.570312"/>
     <use xlink:href="#DejaVuSans-Bold-69" x="953.271484"/>
     <use xlink:href="#DejaVuSans-Bold-74" x="987.548828"/>
     <use xlink:href="#DejaVuSans-Bold-65" x="1035.351562"/>
     <use xlink:href="#DejaVuSans-Bold-64" x="1103.173828"/>
     <use xlink:href="#DejaVuSans-Bold-20" x="1174.755859"/>
     <use xlink:href="#DejaVuSans-Bold-3a" x="1209.570312"/>
    </g>
   </g>
  </g>
  <g id="text_21">
   <!-- From 21 March, 2024 to 28 March, 2024: 31 hrs 32 mins -->
   <g transform="translate(104.88 29.995312)scale(0.3 -0.3)">
    <defs>
     <path id="DejaVuSans-Bold-46" d="M 588 4666 
L 3834 4666 
L 3834 3756 
L 1791 3756 
L 1791 2888 
L 3713 2888 
L 3713 1978 
L 1791 1978 
L 1791 0 
L 588 0 
L 588 4666 
z
" transform="scale(0.015625)"/>
     <path id="DejaVuSans-Bold-32" d="M 1844 884 
L 3897 884 
L 3897 0 
L 506 0 
L 506 884 
L 2209 2388 
Q 2438 2594 2547 2791 
Q 2656 2988 2656 3200 
Q 2656 3528 2436 3728 
Q 2216 3928 1850 3928 
Q 1569 3928 1234 3808 
Q 900 3688 519 3450 
L 519 4475 
Q 925 4609 1322 4679 
Q 1719 4750 2100 4750 
Q 2938 4750 3402 4381 
Q 3866 4013 3866 3353 
Q 3866 2972 3669 2642 
Q 3472 2313 2841 1759 
L 1844 884 
z
" transform="scale(0.015625)"/>
     <path id="DejaVuSans-Bold-4d" d="M 588 4666 
L 2119 4666 
L 3181 2169 
L 4250 4666 
L 5778 4666 
L 5778 0 
L 4641 0 
L 4641 3413 
L 3566 897 
L 2803 897 
L 1728 3413 
L 1728 0 
L 588 0 
L 588 4666 
z
" transform="scale(0.015625)"/>
     <path id="DejaVuSans-Bold-2c" d="M 653 1209 
L 1778 1209 
L 1778 256 
L 1006 -909 
L 341 -909 
L 653 256 
L 653 1209 
z
" transform="scale(0.015625)"/>
     <path id="DejaVuSans-Bold-30" d="M 2944 2338 
Q 2944 3213 2780 3570 
Q 2616 3928 2228 3928 
Q 1841 3928 1675 3570 
Q 1509 3213 1509 2338 
Q 1509 1453 1675 1090 
Q 1841 728 2228 728 
Q 2613 728 2778 1090 
Q 2944 1453 2944 2338 
z
M 4147 2328 
Q 4147 1169 3647 539 
Q 3147 -91 2228 -91 
Q 1306 -91 806 539 
Q 306 1169 306 2328 
Q 306 3491 806 4120 
Q 1306 4750 2228 4750 
Q 3147 4750 3647 4120 
Q 4147 3491 4147 2328 
z
" transform="scale(0.015625)"/>
     <path id="DejaVuSans-Bold-34" d="M 2356 3675 
L 1038 1722 
L 2356 1722 
L 2356 3675 
z
M 2156 4666 
L 3494 4666 
L 3494 1722 
L 4159 1722 
L 4159 850 
L 3494 850 
L 3494 0 
L 2356 0 
L 2356 850 
L 288 850 
L 288 1881 
L 2156 4666 
z
" transform="scale(0.015625)"/>
     <path id="DejaVuSans-Bold-38" d="M 2228 2088 
Q 1891 2088 1709 1903 
Q 1528 1719 1528 1375 
Q 1528 1031 1709 848 
Q 1891 666 2228 666 
Q 2563 666 2741 848 
Q 2919 1031 2919 1375 
Q 2919 1722 2741 1905 
Q 2563 2088 2228 2088 
z
M 1350 2484 
Q 925 2613 709 2878 
Q 494 3144 494 3541 
Q 494 4131 934 4440 
Q 1375 4750 2228 4750 
Q 3075 4750 3515 4442 
Q 3956 4134 3956 3541 
Q 3956 3144 3739 2878 
Q 3522 2613 3097 2484 
Q 3572 2353 3814 2058 
Q 4056 1763 4056 1313 
Q 4056 619 3595 264 
Q 3134 -91 2228 -91 
Q 1319 -91 855 264 
Q 391 619 391 1313 
Q 391 1763 633 2058 
Q 875 2353 1350 2484 
z
M 1631 3419 
Q 1631 3141 1786 2991 
Q 1941 2841 2228 2841 
Q 2509 2841 2662 2991 
Q 2816 3141 2816 3419 
Q 2816 3697 2662 3845 
Q 2509 3994 2228 3994 
Q 1941 3994 1786 3844 
Q 1631 3694 1631 3419 
z
" transform="scale(0.015625)"/>
    </defs>
    <use xlink:href="#DejaVuSans-Bold-46"/>
    <use xlink:href="#DejaVuSans-Bold-72" x="61.935547"/>
    <use xlink:href="#DejaVuSans-Bold-6f" x="111.251953"/>
    <use xlink:href="#DejaVuSans-Bold-6d" x="179.953125"/>
    <use xlink:href="#DejaVuSans-Bold-20" x="284.152344"/>
    <use xlink:href="#DejaVuSans-Bold-32" x="318.966797"/>
    <use xlink:href="#DejaVuSans-Bold-31" x="388.546875"/>
    <use xlink:href="#DejaVuSans-Bold-20" x="458.126953"/>
    <use xlink:href="#DejaVuSans-Bold-4d" x="492.941406"/>
    <use xlink:href="#DejaVuSans-Bold-61" x="592.453125"/>
    <use xlink:href="#DejaVuSans-Bold-72" x="659.933594"/>
    <use xlink:href="#DejaVuSans-Bold-63" x="709.25"/>
    <use xlink:href="#DejaVuSans-Bold-68" x="768.527344"/>
    <use xlink:href="#DejaVuSans-Bold-2c" x="839.71875"/>
    <use xlink:href="#DejaVuSans-Bold-20" x="877.707031"/>
    <use xlink:href="#DejaVuSans-Bold-32" x="912.521484"/>
    <use xlink:href="#DejaVuSans-Bold-30" x="982.101562"/>
    <use xlink:href="#DejaVuSans-Bold-32" x="1051.681641"/>
    <use xlink:href="#DejaVuSans-Bold-34" x="1121.261719"/>
    <use xlink:href="#DejaVuSans-Bold-20" x="1190.841797"/>
    <use xlink:href="#DejaVuSans-Bold-74" x="1225.65625"/>
    <use xlink:href="#DejaVuSans-Bold-6f" x="1273.458984"/>
    <use xlink:href="#DejaVuSans-Bold-20" x="1342.160156"/>
    <use xlink:href="#DejaVuSans-Bold-32" x="1376.974609"/>
    <use xlink:href="#DejaVuSans-Bold-38" x="1446.554688"/>
    <use xlink:href="#DejaVuSans-Bold-20" x="1516.134766"/>
    <use xlink:href="#DejaVuSans-Bold-4d" x="1550.949219"/>
    <use xlink:href="#DejaVuSans-Bold-61" x="1650.460938"/>
    <use xlink:href="#DejaVuSans-Bold-72" x="1717.941406"/>
    <use xlink:href="#DejaVuSans-Bold-63" x="1767.257812"/>
    <use xlink:href="#DejaVuSans-Bold-68" x="1826.535156"/>
    <use xlink:href="#DejaVuSans-Bold-2c" x="1897.726562"/>
    <use xlink:href="#DejaVuSans-Bold-20" x="1935.714844"/>
    <use xlink:href="#DejaVuSans-Bold-32" x="1970.529297"/>
    <use xlink:href="#DejaVuSans-Bold-30" x="2040.109375"/>
    <use xlink:href="#DejaVuSans-Bold-32" x="2109.689453"/>
    <use xlink:href="#DejaVuSans-Bold-34" x="2179.269531"/>
    <use xlink:href="#DejaVuSans-Bold-3a" x="2248.849609"/>
    <use xlink:href="#DejaVuSans-Bold-20" x="2288.839844"/>
    <use xlink:href="#DejaVuSans-Bold-33" x="2323.654297"/>
    <use xlink:href="#DejaVuSans-Bold-31" x="2393.234375"/>
    <use xlink:href="#DejaVuSans-Bold-20" x="2462.814453"/>
    <use xlink:href="#DejaVuSans-Bold-68" x="2497.628906"/>
    <use xlink:href="#DejaVuSans-Bold-72" x="2568.820312"/>
    <use xlink:href="#DejaVuSans-Bold-73" x="2618.136719"/>
    <use xlink:href="#DejaVuSans-Bold-20" x="2677.658203"/>
    <use xlink:href="#DejaVuSans-Bold-33" x="2712.472656"/>
    <use xlink:href="#DejaVuSans-Bold-32" x="2782.052734"/>
    <use xlink:href="#DejaVuSans-Bold-20" x="2851.632812"/>
    <use xlink:href="#DejaVuSans-Bold-6d" x="2886.447266"/>
    <use xlink:href="#DejaVuSans-Bold-69" x="2990.646484"/>
    <use xlink:href="#DejaVuSans-Bold-6e" x="3024.923828"/>
    <use xlink:href="#DejaVuSans-Bold-73" x="3096.115234"/>
   </g>
  </g>
 </g>
 <defs>
  <clipPath id="p248399dfb3">
   <rect x="205.734375" y="56.32" width="488.695065" height="295.18"/>
  </clipPath>
 </defs>
</svg>
