<?xml version="1.0" encoding="utf-8" standalone="no"?>
<!DOCTYPE svg PUBLIC "-//W3C//DTD SVG 1.1//EN"
  "http://www.w3.org/Graphics/SVG/1.1/DTD/svg11.dtd">
<svg xmlns:xlink="http://www.w3.org/1999/xlink" width="1153.753958pt" height="362.2pt" viewBox="0 0 1153.753958 362.2" xmlns="http://www.w3.org/2000/svg" version="1.1">
 <metadata>
  <rdf:RDF xmlns:dc="http://purl.org/dc/elements/1.1/" xmlns:cc="http://creativecommons.org/ns#" xmlns:rdf="http://www.w3.org/1999/02/22-rdf-syntax-ns#">
   <cc:Work>
    <dc:type rdf:resource="http://purl.org/dc/dcmitype/StillImage"/>
    <dc:date>2023-11-03T00:26:56.741022</dc:date>
    <dc:format>image/svg+xml</dc:format>
    <dc:creator>
     <cc:Agent>
      <dc:title>Matplotlib v3.5.1, https://matplotlib.org/</dc:title>
     </cc:Agent>
    </dc:creator>
   </cc:Work>
  </rdf:RDF>
 </metadata>
 <defs>
  <style type="text/css">*{stroke-linejoin: round; stroke-linecap: butt}</style>
 </defs>
 <g id="figure_1">
  <g id="patch_1">
   <path d="M 0 362.2 
L 1153.753958 362.2 
L 1153.753958 0 
L 0 0 
L 0 362.2 
z
" style="fill: none"/>
  </g>
  <g id="axes_1">
   <g id="patch_2">
    <path d="M 339.24375 351.5 
L 748.438815 351.5 
L 748.438815 56.32 
L 339.24375 56.32 
L 339.24375 351.5 
z
" style="fill: none"/>
   </g>
   <g id="patch_3">
    <path d="M 339.24375 69.737273 
L 728.953336 69.737273 
L 728.953336 94.132314 
L 339.24375 94.132314 
z
" clip-path="url(#p4587f61fb6)" style="fill: #f6cfb2; stroke: #f6cfb2; stroke-linejoin: miter"/>
   </g>
   <g id="patch_4">
    <path d="M 339.24375 118.527355 
L 496.344651 118.527355 
L 496.344651 142.922397 
L 339.24375 142.922397 
z
" clip-path="url(#p4587f61fb6)" style="fill: #cccb6c; stroke: #cccb6c; stroke-linejoin: miter"/>
   </g>
   <g id="patch_5">
    <path d="M 339.24375 167.317438 
L 370.601835 167.317438 
L 370.601835 191.712479 
L 339.24375 191.712479 
z
" clip-path="url(#p4587f61fb6)" style="fill: #842570; stroke: #842570; stroke-linejoin: miter"/>
   </g>
   <g id="patch_6">
    <path d="M 339.24375 216.107521 
L 359.424696 216.107521 
L 359.424696 240.502562 
L 339.24375 240.502562 
z
" clip-path="url(#p4587f61fb6)" style="fill: #4b99b8; stroke: #4b99b8; stroke-linejoin: miter"/>
   </g>
   <g id="patch_7">
    <path d="M 339.24375 264.897603 
L 358.679553 264.897603 
L 358.679553 289.292645 
L 339.24375 289.292645 
z
" clip-path="url(#p4587f61fb6)" style="fill: #972a7f; stroke: #972a7f; stroke-linejoin: miter"/>
   </g>
   <g id="patch_8">
    <path d="M 339.24375 313.687686 
L 342.162225 313.687686 
L 342.162225 338.082727 
L 339.24375 338.082727 
z
" clip-path="url(#p4587f61fb6)" style="fill: #d3fb00; stroke: #d3fb00; stroke-linejoin: miter"/>
   </g>
   <g id="matplotlib.axis_1"/>
   <g id="matplotlib.axis_2">
    <g id="ytick_1">
     <g id="line2d_1">
      <defs>
       <path id="m73db3c6076" d="M 0 0 
L -3.5 0 
" style="stroke: #000000; stroke-width: 0.8"/>
      </defs>
      <g>
       <use xlink:href="#m73db3c6076" x="339.24375" y="81.934793" style="stroke: #000000; stroke-width: 0.8"/>
      </g>
     </g>
     <g id="text_1">
      <!-- Autoencoder_2_construct_CV -->
      <g style="fill: #586069" transform="translate(7.2 89.533231)scale(0.2 -0.2)">
       <defs>
        <path id="DejaVuSans-Bold-41" d="M 3419 850 
L 1538 850 
L 1241 0 
L 31 0 
L 1759 4666 
L 3194 4666 
L 4922 0 
L 3713 0 
L 3419 850 
z
M 1838 1716 
L 3116 1716 
L 2478 3572 
L 1838 1716 
z
" transform="scale(0.015625)"/>
        <path id="DejaVuSans-Bold-75" d="M 500 1363 
L 500 3500 
L 1625 3500 
L 1625 3150 
Q 1625 2866 1622 2436 
Q 1619 2006 1619 1863 
Q 1619 1441 1641 1255 
Q 1663 1069 1716 984 
Q 1784 875 1895 815 
Q 2006 756 2150 756 
Q 2500 756 2700 1025 
Q 2900 1294 2900 1772 
L 2900 3500 
L 4019 3500 
L 4019 0 
L 2900 0 
L 2900 506 
Q 2647 200 2364 54 
Q 2081 -91 1741 -91 
Q 1134 -91 817 281 
Q 500 653 500 1363 
z
" transform="scale(0.015625)"/>
        <path id="DejaVuSans-Bold-74" d="M 1759 4494 
L 1759 3500 
L 2913 3500 
L 2913 2700 
L 1759 2700 
L 1759 1216 
Q 1759 972 1856 886 
Q 1953 800 2241 800 
L 2816 800 
L 2816 0 
L 1856 0 
Q 1194 0 917 276 
Q 641 553 641 1216 
L 641 2700 
L 84 2700 
L 84 3500 
L 641 3500 
L 641 4494 
L 1759 4494 
z
" transform="scale(0.015625)"/>
        <path id="DejaVuSans-Bold-6f" d="M 2203 2784 
Q 1831 2784 1636 2517 
Q 1441 2250 1441 1747 
Q 1441 1244 1636 976 
Q 1831 709 2203 709 
Q 2569 709 2762 976 
Q 2956 1244 2956 1747 
Q 2956 2250 2762 2517 
Q 2569 2784 2203 2784 
z
M 2203 3584 
Q 3106 3584 3614 3096 
Q 4122 2609 4122 1747 
Q 4122 884 3614 396 
Q 3106 -91 2203 -91 
Q 1297 -91 786 396 
Q 275 884 275 1747 
Q 275 2609 786 3096 
Q 1297 3584 2203 3584 
z
" transform="scale(0.015625)"/>
        <path id="DejaVuSans-Bold-65" d="M 4031 1759 
L 4031 1441 
L 1416 1441 
Q 1456 1047 1700 850 
Q 1944 653 2381 653 
Q 2734 653 3104 758 
Q 3475 863 3866 1075 
L 3866 213 
Q 3469 63 3072 -14 
Q 2675 -91 2278 -91 
Q 1328 -91 801 392 
Q 275 875 275 1747 
Q 275 2603 792 3093 
Q 1309 3584 2216 3584 
Q 3041 3584 3536 3087 
Q 4031 2591 4031 1759 
z
M 2881 2131 
Q 2881 2450 2695 2645 
Q 2509 2841 2209 2841 
Q 1884 2841 1681 2658 
Q 1478 2475 1428 2131 
L 2881 2131 
z
" transform="scale(0.015625)"/>
        <path id="DejaVuSans-Bold-6e" d="M 4056 2131 
L 4056 0 
L 2931 0 
L 2931 347 
L 2931 1631 
Q 2931 2084 2911 2256 
Q 2891 2428 2841 2509 
Q 2775 2619 2662 2680 
Q 2550 2741 2406 2741 
Q 2056 2741 1856 2470 
Q 1656 2200 1656 1722 
L 1656 0 
L 538 0 
L 538 3500 
L 1656 3500 
L 1656 2988 
Q 1909 3294 2193 3439 
Q 2478 3584 2822 3584 
Q 3428 3584 3742 3212 
Q 4056 2841 4056 2131 
z
" transform="scale(0.015625)"/>
        <path id="DejaVuSans-Bold-63" d="M 3366 3391 
L 3366 2478 
Q 3138 2634 2908 2709 
Q 2678 2784 2431 2784 
Q 1963 2784 1702 2511 
Q 1441 2238 1441 1747 
Q 1441 1256 1702 982 
Q 1963 709 2431 709 
Q 2694 709 2930 787 
Q 3166 866 3366 1019 
L 3366 103 
Q 3103 6 2833 -42 
Q 2563 -91 2291 -91 
Q 1344 -91 809 395 
Q 275 881 275 1747 
Q 275 2613 809 3098 
Q 1344 3584 2291 3584 
Q 2566 3584 2833 3536 
Q 3100 3488 3366 3391 
z
" transform="scale(0.015625)"/>
        <path id="DejaVuSans-Bold-64" d="M 2919 2988 
L 2919 4863 
L 4044 4863 
L 4044 0 
L 2919 0 
L 2919 506 
Q 2688 197 2409 53 
Q 2131 -91 1766 -91 
Q 1119 -91 703 423 
Q 288 938 288 1747 
Q 288 2556 703 3070 
Q 1119 3584 1766 3584 
Q 2128 3584 2408 3439 
Q 2688 3294 2919 2988 
z
M 2181 722 
Q 2541 722 2730 984 
Q 2919 1247 2919 1747 
Q 2919 2247 2730 2509 
Q 2541 2772 2181 2772 
Q 1825 2772 1636 2509 
Q 1447 2247 1447 1747 
Q 1447 1247 1636 984 
Q 1825 722 2181 722 
z
" transform="scale(0.015625)"/>
        <path id="DejaVuSans-Bold-72" d="M 3138 2547 
Q 2991 2616 2845 2648 
Q 2700 2681 2553 2681 
Q 2122 2681 1889 2404 
Q 1656 2128 1656 1613 
L 1656 0 
L 538 0 
L 538 3500 
L 1656 3500 
L 1656 2925 
Q 1872 3269 2151 3426 
Q 2431 3584 2822 3584 
Q 2878 3584 2943 3579 
Q 3009 3575 3134 3559 
L 3138 2547 
z
" transform="scale(0.015625)"/>
        <path id="DejaVuSans-Bold-5f" d="M 3200 -916 
L 3200 -1509 
L 0 -1509 
L 0 -916 
L 3200 -916 
z
" transform="scale(0.015625)"/>
        <path id="DejaVuSans-Bold-32" d="M 1844 884 
L 3897 884 
L 3897 0 
L 506 0 
L 506 884 
L 2209 2388 
Q 2438 2594 2547 2791 
Q 2656 2988 2656 3200 
Q 2656 3528 2436 3728 
Q 2216 3928 1850 3928 
Q 1569 3928 1234 3808 
Q 900 3688 519 3450 
L 519 4475 
Q 925 4609 1322 4679 
Q 1719 4750 2100 4750 
Q 2938 4750 3402 4381 
Q 3866 4013 3866 3353 
Q 3866 2972 3669 2642 
Q 3472 2313 2841 1759 
L 1844 884 
z
" transform="scale(0.015625)"/>
        <path id="DejaVuSans-Bold-73" d="M 3272 3391 
L 3272 2541 
Q 2913 2691 2578 2766 
Q 2244 2841 1947 2841 
Q 1628 2841 1473 2761 
Q 1319 2681 1319 2516 
Q 1319 2381 1436 2309 
Q 1553 2238 1856 2203 
L 2053 2175 
Q 2913 2066 3209 1816 
Q 3506 1566 3506 1031 
Q 3506 472 3093 190 
Q 2681 -91 1863 -91 
Q 1516 -91 1145 -36 
Q 775 19 384 128 
L 384 978 
Q 719 816 1070 734 
Q 1422 653 1784 653 
Q 2113 653 2278 743 
Q 2444 834 2444 1013 
Q 2444 1163 2330 1236 
Q 2216 1309 1875 1350 
L 1678 1375 
Q 931 1469 631 1722 
Q 331 1975 331 2491 
Q 331 3047 712 3315 
Q 1094 3584 1881 3584 
Q 2191 3584 2531 3537 
Q 2872 3491 3272 3391 
z
" transform="scale(0.015625)"/>
        <path id="DejaVuSans-Bold-43" d="M 4288 256 
Q 3956 84 3597 -3 
Q 3238 -91 2847 -91 
Q 1681 -91 1000 561 
Q 319 1213 319 2328 
Q 319 3447 1000 4098 
Q 1681 4750 2847 4750 
Q 3238 4750 3597 4662 
Q 3956 4575 4288 4403 
L 4288 3438 
Q 3953 3666 3628 3772 
Q 3303 3878 2944 3878 
Q 2300 3878 1931 3465 
Q 1563 3053 1563 2328 
Q 1563 1606 1931 1193 
Q 2300 781 2944 781 
Q 3303 781 3628 887 
Q 3953 994 4288 1222 
L 4288 256 
z
" transform="scale(0.015625)"/>
        <path id="DejaVuSans-Bold-56" d="M 31 4666 
L 1241 4666 
L 2478 1222 
L 3713 4666 
L 4922 4666 
L 3194 0 
L 1759 0 
L 31 4666 
z
" transform="scale(0.015625)"/>
       </defs>
       <use xlink:href="#DejaVuSans-Bold-41"/>
       <use xlink:href="#DejaVuSans-Bold-75" x="77.392578"/>
       <use xlink:href="#DejaVuSans-Bold-74" x="148.583984"/>
       <use xlink:href="#DejaVuSans-Bold-6f" x="196.386719"/>
       <use xlink:href="#DejaVuSans-Bold-65" x="265.087891"/>
       <use xlink:href="#DejaVuSans-Bold-6e" x="332.910156"/>
       <use xlink:href="#DejaVuSans-Bold-63" x="404.101562"/>
       <use xlink:href="#DejaVuSans-Bold-6f" x="463.378906"/>
       <use xlink:href="#DejaVuSans-Bold-64" x="532.080078"/>
       <use xlink:href="#DejaVuSans-Bold-65" x="603.662109"/>
       <use xlink:href="#DejaVuSans-Bold-72" x="671.484375"/>
       <use xlink:href="#DejaVuSans-Bold-5f" x="720.800781"/>
       <use xlink:href="#DejaVuSans-Bold-32" x="770.800781"/>
       <use xlink:href="#DejaVuSans-Bold-5f" x="840.380859"/>
       <use xlink:href="#DejaVuSans-Bold-63" x="890.380859"/>
       <use xlink:href="#DejaVuSans-Bold-6f" x="949.658203"/>
       <use xlink:href="#DejaVuSans-Bold-6e" x="1018.359375"/>
       <use xlink:href="#DejaVuSans-Bold-73" x="1089.550781"/>
       <use xlink:href="#DejaVuSans-Bold-74" x="1149.072266"/>
       <use xlink:href="#DejaVuSans-Bold-72" x="1196.875"/>
       <use xlink:href="#DejaVuSans-Bold-75" x="1246.191406"/>
       <use xlink:href="#DejaVuSans-Bold-63" x="1317.382812"/>
       <use xlink:href="#DejaVuSans-Bold-74" x="1376.660156"/>
       <use xlink:href="#DejaVuSans-Bold-5f" x="1424.462891"/>
       <use xlink:href="#DejaVuSans-Bold-43" x="1474.462891"/>
       <use xlink:href="#DejaVuSans-Bold-56" x="1547.851562"/>
      </g>
     </g>
    </g>
    <g id="ytick_2">
     <g id="line2d_2">
      <g>
       <use xlink:href="#m73db3c6076" x="339.24375" y="130.724876" style="stroke: #000000; stroke-width: 0.8"/>
      </g>
     </g>
     <g id="text_2">
      <!-- Trp-Cage-AE -->
      <g style="fill: #586069" transform="translate(194.825 138.245189)scale(0.2 -0.2)">
       <defs>
        <path id="DejaVuSans-Bold-54" d="M 31 4666 
L 4331 4666 
L 4331 3756 
L 2784 3756 
L 2784 0 
L 1581 0 
L 1581 3756 
L 31 3756 
L 31 4666 
z
" transform="scale(0.015625)"/>
        <path id="DejaVuSans-Bold-70" d="M 1656 506 
L 1656 -1331 
L 538 -1331 
L 538 3500 
L 1656 3500 
L 1656 2988 
Q 1888 3294 2169 3439 
Q 2450 3584 2816 3584 
Q 3463 3584 3878 3070 
Q 4294 2556 4294 1747 
Q 4294 938 3878 423 
Q 3463 -91 2816 -91 
Q 2450 -91 2169 54 
Q 1888 200 1656 506 
z
M 2400 2772 
Q 2041 2772 1848 2508 
Q 1656 2244 1656 1747 
Q 1656 1250 1848 986 
Q 2041 722 2400 722 
Q 2759 722 2948 984 
Q 3138 1247 3138 1747 
Q 3138 2247 2948 2509 
Q 2759 2772 2400 2772 
z
" transform="scale(0.015625)"/>
        <path id="DejaVuSans-Bold-2d" d="M 347 2297 
L 2309 2297 
L 2309 1388 
L 347 1388 
L 347 2297 
z
" transform="scale(0.015625)"/>
        <path id="DejaVuSans-Bold-61" d="M 2106 1575 
Q 1756 1575 1579 1456 
Q 1403 1338 1403 1106 
Q 1403 894 1545 773 
Q 1688 653 1941 653 
Q 2256 653 2472 879 
Q 2688 1106 2688 1447 
L 2688 1575 
L 2106 1575 
z
M 3816 1997 
L 3816 0 
L 2688 0 
L 2688 519 
Q 2463 200 2181 54 
Q 1900 -91 1497 -91 
Q 953 -91 614 226 
Q 275 544 275 1050 
Q 275 1666 698 1953 
Q 1122 2241 2028 2241 
L 2688 2241 
L 2688 2328 
Q 2688 2594 2478 2717 
Q 2269 2841 1825 2841 
Q 1466 2841 1156 2769 
Q 847 2697 581 2553 
L 581 3406 
Q 941 3494 1303 3539 
Q 1666 3584 2028 3584 
Q 2975 3584 3395 3211 
Q 3816 2838 3816 1997 
z
" transform="scale(0.015625)"/>
        <path id="DejaVuSans-Bold-67" d="M 2919 594 
Q 2688 288 2409 144 
Q 2131 0 1766 0 
Q 1125 0 706 504 
Q 288 1009 288 1791 
Q 288 2575 706 3076 
Q 1125 3578 1766 3578 
Q 2131 3578 2409 3434 
Q 2688 3291 2919 2981 
L 2919 3500 
L 4044 3500 
L 4044 353 
Q 4044 -491 3511 -936 
Q 2978 -1381 1966 -1381 
Q 1638 -1381 1331 -1331 
Q 1025 -1281 716 -1178 
L 716 -306 
Q 1009 -475 1290 -558 
Q 1572 -641 1856 -641 
Q 2406 -641 2662 -400 
Q 2919 -159 2919 353 
L 2919 594 
z
M 2181 2772 
Q 1834 2772 1640 2515 
Q 1447 2259 1447 1791 
Q 1447 1309 1634 1061 
Q 1822 813 2181 813 
Q 2531 813 2725 1069 
Q 2919 1325 2919 1791 
Q 2919 2259 2725 2515 
Q 2531 2772 2181 2772 
z
" transform="scale(0.015625)"/>
        <path id="DejaVuSans-Bold-45" d="M 588 4666 
L 3834 4666 
L 3834 3756 
L 1791 3756 
L 1791 2888 
L 3713 2888 
L 3713 1978 
L 1791 1978 
L 1791 909 
L 3903 909 
L 3903 0 
L 588 0 
L 588 4666 
z
" transform="scale(0.015625)"/>
       </defs>
       <use xlink:href="#DejaVuSans-Bold-54"/>
       <use xlink:href="#DejaVuSans-Bold-72" x="57.212891"/>
       <use xlink:href="#DejaVuSans-Bold-70" x="106.529297"/>
       <use xlink:href="#DejaVuSans-Bold-2d" x="178.111328"/>
       <use xlink:href="#DejaVuSans-Bold-43" x="219.615234"/>
       <use xlink:href="#DejaVuSans-Bold-61" x="293.003906"/>
       <use xlink:href="#DejaVuSans-Bold-67" x="360.484375"/>
       <use xlink:href="#DejaVuSans-Bold-65" x="432.066406"/>
       <use xlink:href="#DejaVuSans-Bold-2d" x="499.888672"/>
       <use xlink:href="#DejaVuSans-Bold-41" x="541.392578"/>
       <use xlink:href="#DejaVuSans-Bold-45" x="618.785156"/>
      </g>
     </g>
    </g>
    <g id="ytick_3">
     <g id="line2d_3">
      <g>
       <use xlink:href="#m73db3c6076" x="339.24375" y="179.514959" style="stroke: #000000; stroke-width: 0.8"/>
      </g>
     </g>
     <g id="text_3">
      <!-- dibyendu -->
      <g style="fill: #586069" transform="translate(227.3625 187.113396)scale(0.2 -0.2)">
       <defs>
        <path id="DejaVuSans-Bold-69" d="M 538 3500 
L 1656 3500 
L 1656 0 
L 538 0 
L 538 3500 
z
M 538 4863 
L 1656 4863 
L 1656 3950 
L 538 3950 
L 538 4863 
z
" transform="scale(0.015625)"/>
        <path id="DejaVuSans-Bold-62" d="M 2400 722 
Q 2759 722 2948 984 
Q 3138 1247 3138 1747 
Q 3138 2247 2948 2509 
Q 2759 2772 2400 2772 
Q 2041 2772 1848 2508 
Q 1656 2244 1656 1747 
Q 1656 1250 1848 986 
Q 2041 722 2400 722 
z
M 1656 2988 
Q 1888 3294 2169 3439 
Q 2450 3584 2816 3584 
Q 3463 3584 3878 3070 
Q 4294 2556 4294 1747 
Q 4294 938 3878 423 
Q 3463 -91 2816 -91 
Q 2450 -91 2169 54 
Q 1888 200 1656 506 
L 1656 0 
L 538 0 
L 538 4863 
L 1656 4863 
L 1656 2988 
z
" transform="scale(0.015625)"/>
        <path id="DejaVuSans-Bold-79" d="M 78 3500 
L 1197 3500 
L 2138 1125 
L 2938 3500 
L 4056 3500 
L 2584 -331 
Q 2363 -916 2067 -1148 
Q 1772 -1381 1288 -1381 
L 641 -1381 
L 641 -647 
L 991 -647 
Q 1275 -647 1404 -556 
Q 1534 -466 1606 -231 
L 1638 -134 
L 78 3500 
z
" transform="scale(0.015625)"/>
       </defs>
       <use xlink:href="#DejaVuSans-Bold-64"/>
       <use xlink:href="#DejaVuSans-Bold-69" x="71.582031"/>
       <use xlink:href="#DejaVuSans-Bold-62" x="105.859375"/>
       <use xlink:href="#DejaVuSans-Bold-79" x="177.441406"/>
       <use xlink:href="#DejaVuSans-Bold-65" x="242.626953"/>
       <use xlink:href="#DejaVuSans-Bold-6e" x="310.449219"/>
       <use xlink:href="#DejaVuSans-Bold-64" x="381.640625"/>
       <use xlink:href="#DejaVuSans-Bold-75" x="453.222656"/>
      </g>
     </g>
    </g>
    <g id="ytick_4">
     <g id="line2d_4">
      <g>
       <use xlink:href="#m73db3c6076" x="339.24375" y="228.305041" style="stroke: #000000; stroke-width: 0.8"/>
      </g>
     </g>
     <g id="text_4">
      <!-- Test -->
      <g style="fill: #586069" transform="translate(286.221875 235.903479)scale(0.2 -0.2)">
       <use xlink:href="#DejaVuSans-Bold-54"/>
       <use xlink:href="#DejaVuSans-Bold-65" x="54.962891"/>
       <use xlink:href="#DejaVuSans-Bold-73" x="122.785156"/>
       <use xlink:href="#DejaVuSans-Bold-74" x="182.306641"/>
      </g>
     </g>
    </g>
    <g id="ytick_5">
     <g id="line2d_5">
      <g>
       <use xlink:href="#m73db3c6076" x="339.24375" y="277.095124" style="stroke: #000000; stroke-width: 0.8"/>
      </g>
     </g>
     <g id="text_5">
      <!-- Project_DD -->
      <g style="fill: #586069" transform="translate(208.9375 284.693561)scale(0.2 -0.2)">
       <defs>
        <path id="DejaVuSans-Bold-50" d="M 588 4666 
L 2584 4666 
Q 3475 4666 3951 4270 
Q 4428 3875 4428 3144 
Q 4428 2409 3951 2014 
Q 3475 1619 2584 1619 
L 1791 1619 
L 1791 0 
L 588 0 
L 588 4666 
z
M 1791 3794 
L 1791 2491 
L 2456 2491 
Q 2806 2491 2997 2661 
Q 3188 2831 3188 3144 
Q 3188 3456 2997 3625 
Q 2806 3794 2456 3794 
L 1791 3794 
z
" transform="scale(0.015625)"/>
        <path id="DejaVuSans-Bold-6a" d="M 538 3500 
L 1656 3500 
L 1656 63 
Q 1656 -641 1318 -1011 
Q 981 -1381 341 -1381 
L -213 -1381 
L -213 -647 
L -19 -647 
Q 300 -647 419 -503 
Q 538 -359 538 63 
L 538 3500 
z
M 538 4863 
L 1656 4863 
L 1656 3950 
L 538 3950 
L 538 4863 
z
" transform="scale(0.015625)"/>
        <path id="DejaVuSans-Bold-44" d="M 1791 3756 
L 1791 909 
L 2222 909 
Q 2959 909 3348 1275 
Q 3738 1641 3738 2338 
Q 3738 3031 3350 3393 
Q 2963 3756 2222 3756 
L 1791 3756 
z
M 588 4666 
L 1856 4666 
Q 2919 4666 3439 4514 
Q 3959 4363 4331 4000 
Q 4659 3684 4818 3271 
Q 4978 2859 4978 2338 
Q 4978 1809 4818 1395 
Q 4659 981 4331 666 
Q 3956 303 3431 151 
Q 2906 0 1856 0 
L 588 0 
L 588 4666 
z
" transform="scale(0.015625)"/>
       </defs>
       <use xlink:href="#DejaVuSans-Bold-50"/>
       <use xlink:href="#DejaVuSans-Bold-72" x="73.291016"/>
       <use xlink:href="#DejaVuSans-Bold-6f" x="122.607422"/>
       <use xlink:href="#DejaVuSans-Bold-6a" x="191.308594"/>
       <use xlink:href="#DejaVuSans-Bold-65" x="225.585938"/>
       <use xlink:href="#DejaVuSans-Bold-63" x="293.408203"/>
       <use xlink:href="#DejaVuSans-Bold-74" x="352.685547"/>
       <use xlink:href="#DejaVuSans-Bold-5f" x="400.488281"/>
       <use xlink:href="#DejaVuSans-Bold-44" x="450.488281"/>
       <use xlink:href="#DejaVuSans-Bold-44" x="533.496094"/>
      </g>
     </g>
    </g>
    <g id="ytick_6">
     <g id="line2d_6">
      <g>
       <use xlink:href="#m73db3c6076" x="339.24375" y="325.885207" style="stroke: #000000; stroke-width: 0.8"/>
      </g>
     </g>
     <g id="text_6">
      <!-- Unknown Project -->
      <g style="fill: #586069" transform="translate(140.709375 333.483644)scale(0.2 -0.2)">
       <defs>
        <path id="DejaVuSans-Bold-55" d="M 588 4666 
L 1791 4666 
L 1791 1869 
Q 1791 1291 1980 1042 
Q 2169 794 2597 794 
Q 3028 794 3217 1042 
Q 3406 1291 3406 1869 
L 3406 4666 
L 4609 4666 
L 4609 1869 
Q 4609 878 4112 393 
Q 3616 -91 2597 -91 
Q 1581 -91 1084 393 
Q 588 878 588 1869 
L 588 4666 
z
" transform="scale(0.015625)"/>
        <path id="DejaVuSans-Bold-6b" d="M 538 4863 
L 1656 4863 
L 1656 2216 
L 2944 3500 
L 4244 3500 
L 2534 1894 
L 4378 0 
L 3022 0 
L 1656 1459 
L 1656 0 
L 538 0 
L 538 4863 
z
" transform="scale(0.015625)"/>
        <path id="DejaVuSans-Bold-77" d="M 225 3500 
L 1313 3500 
L 1900 1088 
L 2491 3500 
L 3425 3500 
L 4013 1113 
L 4603 3500 
L 5691 3500 
L 4769 0 
L 3547 0 
L 2956 2406 
L 2369 0 
L 1147 0 
L 225 3500 
z
" transform="scale(0.015625)"/>
        <path id="DejaVuSans-Bold-20" transform="scale(0.015625)"/>
       </defs>
       <use xlink:href="#DejaVuSans-Bold-55"/>
       <use xlink:href="#DejaVuSans-Bold-6e" x="81.201172"/>
       <use xlink:href="#DejaVuSans-Bold-6b" x="152.392578"/>
       <use xlink:href="#DejaVuSans-Bold-6e" x="218.896484"/>
       <use xlink:href="#DejaVuSans-Bold-6f" x="290.087891"/>
       <use xlink:href="#DejaVuSans-Bold-77" x="358.789062"/>
       <use xlink:href="#DejaVuSans-Bold-6e" x="451.171875"/>
       <use xlink:href="#DejaVuSans-Bold-20" x="522.363281"/>
       <use xlink:href="#DejaVuSans-Bold-50" x="557.177734"/>
       <use xlink:href="#DejaVuSans-Bold-72" x="630.46875"/>
       <use xlink:href="#DejaVuSans-Bold-6f" x="679.785156"/>
       <use xlink:href="#DejaVuSans-Bold-6a" x="748.486328"/>
       <use xlink:href="#DejaVuSans-Bold-65" x="782.763672"/>
       <use xlink:href="#DejaVuSans-Bold-63" x="850.585938"/>
       <use xlink:href="#DejaVuSans-Bold-74" x="909.863281"/>
      </g>
     </g>
    </g>
   </g>
   <g id="patch_9">
    <path d="M 339.24375 351.5 
L 339.24375 56.32 
" style="fill: none; stroke: #000000; stroke-width: 0.8; stroke-linejoin: miter; stroke-linecap: square"/>
   </g>
   <g id="patch_10">
    <path d="M 339.24375 351.5 
L 748.438815 351.5 
" style="fill: none; stroke: #000000; stroke-width: 0.8; stroke-linejoin: miter; stroke-linecap: square"/>
   </g>
   <g id="text_7">
    <!-- 3 hrs 27 mins -->
    <g style="fill: #586069" transform="translate(732.953336 86.073856)scale(0.15 -0.15)">
     <defs>
      <path id="DejaVuSans-Bold-33" d="M 2981 2516 
Q 3453 2394 3698 2092 
Q 3944 1791 3944 1325 
Q 3944 631 3412 270 
Q 2881 -91 1863 -91 
Q 1503 -91 1142 -33 
Q 781 25 428 141 
L 428 1069 
Q 766 900 1098 814 
Q 1431 728 1753 728 
Q 2231 728 2486 893 
Q 2741 1059 2741 1369 
Q 2741 1688 2480 1852 
Q 2219 2016 1709 2016 
L 1228 2016 
L 1228 2791 
L 1734 2791 
Q 2188 2791 2409 2933 
Q 2631 3075 2631 3366 
Q 2631 3634 2415 3781 
Q 2200 3928 1806 3928 
Q 1516 3928 1219 3862 
Q 922 3797 628 3669 
L 628 4550 
Q 984 4650 1334 4700 
Q 1684 4750 2022 4750 
Q 2931 4750 3382 4451 
Q 3834 4153 3834 3553 
Q 3834 3144 3618 2883 
Q 3403 2622 2981 2516 
z
" transform="scale(0.015625)"/>
      <path id="DejaVuSans-Bold-68" d="M 4056 2131 
L 4056 0 
L 2931 0 
L 2931 347 
L 2931 1625 
Q 2931 2084 2911 2256 
Q 2891 2428 2841 2509 
Q 2775 2619 2662 2680 
Q 2550 2741 2406 2741 
Q 2056 2741 1856 2470 
Q 1656 2200 1656 1722 
L 1656 0 
L 538 0 
L 538 4863 
L 1656 4863 
L 1656 2988 
Q 1909 3294 2193 3439 
Q 2478 3584 2822 3584 
Q 3428 3584 3742 3212 
Q 4056 2841 4056 2131 
z
" transform="scale(0.015625)"/>
      <path id="DejaVuSans-Bold-37" d="M 428 4666 
L 3944 4666 
L 3944 3988 
L 2125 0 
L 953 0 
L 2675 3781 
L 428 3781 
L 428 4666 
z
" transform="scale(0.015625)"/>
      <path id="DejaVuSans-Bold-6d" d="M 3781 2919 
Q 3994 3244 4286 3414 
Q 4578 3584 4928 3584 
Q 5531 3584 5847 3212 
Q 6163 2841 6163 2131 
L 6163 0 
L 5038 0 
L 5038 1825 
Q 5041 1866 5042 1909 
Q 5044 1953 5044 2034 
Q 5044 2406 4934 2573 
Q 4825 2741 4581 2741 
Q 4263 2741 4089 2478 
Q 3916 2216 3909 1719 
L 3909 0 
L 2784 0 
L 2784 1825 
Q 2784 2406 2684 2573 
Q 2584 2741 2328 2741 
Q 2006 2741 1831 2477 
Q 1656 2213 1656 1722 
L 1656 0 
L 531 0 
L 531 3500 
L 1656 3500 
L 1656 2988 
Q 1863 3284 2130 3434 
Q 2397 3584 2719 3584 
Q 3081 3584 3359 3409 
Q 3638 3234 3781 2919 
z
" transform="scale(0.015625)"/>
     </defs>
     <use xlink:href="#DejaVuSans-Bold-33"/>
     <use xlink:href="#DejaVuSans-Bold-20" x="69.580078"/>
     <use xlink:href="#DejaVuSans-Bold-68" x="104.394531"/>
     <use xlink:href="#DejaVuSans-Bold-72" x="175.585938"/>
     <use xlink:href="#DejaVuSans-Bold-73" x="224.902344"/>
     <use xlink:href="#DejaVuSans-Bold-20" x="284.423828"/>
     <use xlink:href="#DejaVuSans-Bold-32" x="319.238281"/>
     <use xlink:href="#DejaVuSans-Bold-37" x="388.818359"/>
     <use xlink:href="#DejaVuSans-Bold-20" x="458.398438"/>
     <use xlink:href="#DejaVuSans-Bold-6d" x="493.212891"/>
     <use xlink:href="#DejaVuSans-Bold-69" x="597.412109"/>
     <use xlink:href="#DejaVuSans-Bold-6e" x="631.689453"/>
     <use xlink:href="#DejaVuSans-Bold-73" x="702.880859"/>
    </g>
   </g>
   <g id="text_8">
    <!-- 1 hr 23 mins -->
    <g style="fill: #586069" transform="translate(500.344651 134.863939)scale(0.15 -0.15)">
     <defs>
      <path id="DejaVuSans-Bold-31" d="M 750 831 
L 1813 831 
L 1813 3847 
L 722 3622 
L 722 4441 
L 1806 4666 
L 2950 4666 
L 2950 831 
L 4013 831 
L 4013 0 
L 750 0 
L 750 831 
z
" transform="scale(0.015625)"/>
     </defs>
     <use xlink:href="#DejaVuSans-Bold-31"/>
     <use xlink:href="#DejaVuSans-Bold-20" x="69.580078"/>
     <use xlink:href="#DejaVuSans-Bold-68" x="104.394531"/>
     <use xlink:href="#DejaVuSans-Bold-72" x="175.585938"/>
     <use xlink:href="#DejaVuSans-Bold-20" x="224.902344"/>
     <use xlink:href="#DejaVuSans-Bold-32" x="259.716797"/>
     <use xlink:href="#DejaVuSans-Bold-33" x="329.296875"/>
     <use xlink:href="#DejaVuSans-Bold-20" x="398.876953"/>
     <use xlink:href="#DejaVuSans-Bold-6d" x="433.691406"/>
     <use xlink:href="#DejaVuSans-Bold-69" x="537.890625"/>
     <use xlink:href="#DejaVuSans-Bold-6e" x="572.167969"/>
     <use xlink:href="#DejaVuSans-Bold-73" x="643.359375"/>
    </g>
   </g>
   <g id="text_9">
    <!-- 16 mins -->
    <g style="fill: #586069" transform="translate(374.601835 183.654021)scale(0.15 -0.15)">
     <defs>
      <path id="DejaVuSans-Bold-36" d="M 2316 2303 
Q 2000 2303 1842 2098 
Q 1684 1894 1684 1484 
Q 1684 1075 1842 870 
Q 2000 666 2316 666 
Q 2634 666 2792 870 
Q 2950 1075 2950 1484 
Q 2950 1894 2792 2098 
Q 2634 2303 2316 2303 
z
M 3803 4544 
L 3803 3681 
Q 3506 3822 3243 3889 
Q 2981 3956 2731 3956 
Q 2194 3956 1894 3657 
Q 1594 3359 1544 2772 
Q 1750 2925 1990 3001 
Q 2231 3078 2516 3078 
Q 3231 3078 3670 2659 
Q 4109 2241 4109 1563 
Q 4109 813 3618 361 
Q 3128 -91 2303 -91 
Q 1394 -91 895 523 
Q 397 1138 397 2266 
Q 397 3422 980 4083 
Q 1563 4744 2578 4744 
Q 2900 4744 3203 4694 
Q 3506 4644 3803 4544 
z
" transform="scale(0.015625)"/>
     </defs>
     <use xlink:href="#DejaVuSans-Bold-31"/>
     <use xlink:href="#DejaVuSans-Bold-36" x="69.580078"/>
     <use xlink:href="#DejaVuSans-Bold-20" x="139.160156"/>
     <use xlink:href="#DejaVuSans-Bold-6d" x="173.974609"/>
     <use xlink:href="#DejaVuSans-Bold-69" x="278.173828"/>
     <use xlink:href="#DejaVuSans-Bold-6e" x="312.451172"/>
     <use xlink:href="#DejaVuSans-Bold-73" x="383.642578"/>
    </g>
   </g>
   <g id="text_10">
    <!-- 10 mins -->
    <g style="fill: #586069" transform="translate(363.424696 232.444104)scale(0.15 -0.15)">
     <defs>
      <path id="DejaVuSans-Bold-30" d="M 2944 2338 
Q 2944 3213 2780 3570 
Q 2616 3928 2228 3928 
Q 1841 3928 1675 3570 
Q 1509 3213 1509 2338 
Q 1509 1453 1675 1090 
Q 1841 728 2228 728 
Q 2613 728 2778 1090 
Q 2944 1453 2944 2338 
z
M 4147 2328 
Q 4147 1169 3647 539 
Q 3147 -91 2228 -91 
Q 1306 -91 806 539 
Q 306 1169 306 2328 
Q 306 3491 806 4120 
Q 1306 4750 2228 4750 
Q 3147 4750 3647 4120 
Q 4147 3491 4147 2328 
z
" transform="scale(0.015625)"/>
     </defs>
     <use xlink:href="#DejaVuSans-Bold-31"/>
     <use xlink:href="#DejaVuSans-Bold-30" x="69.580078"/>
     <use xlink:href="#DejaVuSans-Bold-20" x="139.160156"/>
     <use xlink:href="#DejaVuSans-Bold-6d" x="173.974609"/>
     <use xlink:href="#DejaVuSans-Bold-69" x="278.173828"/>
     <use xlink:href="#DejaVuSans-Bold-6e" x="312.451172"/>
     <use xlink:href="#DejaVuSans-Bold-73" x="383.642578"/>
    </g>
   </g>
   <g id="text_11">
    <!-- 10 mins -->
    <g style="fill: #586069" transform="translate(362.679553 281.234186)scale(0.15 -0.15)">
     <use xlink:href="#DejaVuSans-Bold-31"/>
     <use xlink:href="#DejaVuSans-Bold-30" x="69.580078"/>
     <use xlink:href="#DejaVuSans-Bold-20" x="139.160156"/>
     <use xlink:href="#DejaVuSans-Bold-6d" x="173.974609"/>
     <use xlink:href="#DejaVuSans-Bold-69" x="278.173828"/>
     <use xlink:href="#DejaVuSans-Bold-6e" x="312.451172"/>
     <use xlink:href="#DejaVuSans-Bold-73" x="383.642578"/>
    </g>
   </g>
   <g id="text_12">
    <!-- 1 min -->
    <g style="fill: #586069" transform="translate(346.162225 330.024269)scale(0.15 -0.15)">
     <use xlink:href="#DejaVuSans-Bold-31"/>
     <use xlink:href="#DejaVuSans-Bold-20" x="69.580078"/>
     <use xlink:href="#DejaVuSans-Bold-6d" x="104.394531"/>
     <use xlink:href="#DejaVuSans-Bold-69" x="208.59375"/>
     <use xlink:href="#DejaVuSans-Bold-6e" x="242.871094"/>
    </g>
   </g>
   <g id="text_13">
    <!-- Projects touched : -->
    <g style="fill: #2a475e" transform="translate(482.210032 50.32)scale(0.12 -0.12)">
     <defs>
      <path id="DejaVuSans-Bold-3a" d="M 716 3500 
L 1844 3500 
L 1844 2291 
L 716 2291 
L 716 3500 
z
M 716 1209 
L 1844 1209 
L 1844 0 
L 716 0 
L 716 1209 
z
" transform="scale(0.015625)"/>
     </defs>
     <use xlink:href="#DejaVuSans-Bold-50"/>
     <use xlink:href="#DejaVuSans-Bold-72" x="73.291016"/>
     <use xlink:href="#DejaVuSans-Bold-6f" x="122.607422"/>
     <use xlink:href="#DejaVuSans-Bold-6a" x="191.308594"/>
     <use xlink:href="#DejaVuSans-Bold-65" x="225.585938"/>
     <use xlink:href="#DejaVuSans-Bold-63" x="293.408203"/>
     <use xlink:href="#DejaVuSans-Bold-74" x="352.685547"/>
     <use xlink:href="#DejaVuSans-Bold-73" x="400.488281"/>
     <use xlink:href="#DejaVuSans-Bold-20" x="460.009766"/>
     <use xlink:href="#DejaVuSans-Bold-74" x="494.824219"/>
     <use xlink:href="#DejaVuSans-Bold-6f" x="542.626953"/>
     <use xlink:href="#DejaVuSans-Bold-75" x="611.328125"/>
     <use xlink:href="#DejaVuSans-Bold-63" x="682.519531"/>
     <use xlink:href="#DejaVuSans-Bold-68" x="741.796875"/>
     <use xlink:href="#DejaVuSans-Bold-65" x="812.988281"/>
     <use xlink:href="#DejaVuSans-Bold-64" x="880.810547"/>
     <use xlink:href="#DejaVuSans-Bold-20" x="952.392578"/>
     <use xlink:href="#DejaVuSans-Bold-3a" x="987.207031"/>
    </g>
   </g>
  </g>
  <g id="axes_2">
   <g id="patch_11">
    <path d="M 902.545152 171.928129 
L 926.976643 179.397584 
" style="fill: none; stroke: #000000; stroke-linecap: round"/>
   </g>
   <g id="text_14">
    <g id="patch_12">
     <path d="M 845.162373 179.865382 
L 900.270498 179.865382 
L 900.270498 160.957882 
L 845.162373 160.957882 
z
" style="fill: #ffffff; stroke: #000000; stroke-width: 0.72; stroke-linejoin: miter"/>
    </g>
    <!-- Python -->
    <g style="fill: #2a475e" transform="translate(848.762373 173.676007)scale(0.12 -0.12)">
     <use xlink:href="#DejaVuSans-Bold-50"/>
     <use xlink:href="#DejaVuSans-Bold-79" x="75.166016"/>
     <use xlink:href="#DejaVuSans-Bold-74" x="140.351562"/>
     <use xlink:href="#DejaVuSans-Bold-68" x="188.154297"/>
     <use xlink:href="#DejaVuSans-Bold-6f" x="259.345703"/>
     <use xlink:href="#DejaVuSans-Bold-6e" x="328.046875"/>
    </g>
   </g>
   <g id="patch_13">
    <path d="M 1111.673499 269.401043 
L 1101.16522 269.401043 
L 1075.947352 251.833674 
" style="fill: none; stroke: #000000; stroke-linecap: round"/>
   </g>
   <g id="text_15">
    <g id="patch_14">
     <path d="M 1114.035833 278.807918 
L 1150.153958 278.807918 
L 1150.153958 259.994168 
L 1114.035833 259.994168 
z
" style="fill: #ffffff; stroke: #000000; stroke-width: 0.72; stroke-linejoin: miter"/>
    </g>
    <!-- C++ -->
    <g style="fill: #2a475e" transform="translate(1117.635833 272.712293)scale(0.12 -0.12)">
     <defs>
      <path id="DejaVuSans-Bold-2b" d="M 3053 4013 
L 3053 2375 
L 4684 2375 
L 4684 1638 
L 3053 1638 
L 3053 0 
L 2309 0 
L 2309 1638 
L 678 1638 
L 678 2375 
L 2309 2375 
L 2309 4013 
L 3053 4013 
z
" transform="scale(0.015625)"/>
     </defs>
     <use xlink:href="#DejaVuSans-Bold-43"/>
     <use xlink:href="#DejaVuSans-Bold-2b" x="73.388672"/>
     <use xlink:href="#DejaVuSans-Bold-2b" x="157.177734"/>
    </g>
   </g>
   <g id="patch_15">
    <path d="M 1111.755335 235.244382 
L 1087.466379 227.968439 
" style="fill: none; stroke: #000000; stroke-linecap: round"/>
   </g>
   <g id="text_16">
    <g id="patch_16">
     <path d="M 1114.035833 246.195107 
L 1143.987083 246.195107 
L 1143.987083 227.381357 
L 1114.035833 227.381357 
z
" style="fill: #ffffff; stroke: #000000; stroke-width: 0.72; stroke-linejoin: miter"/>
    </g>
    <!-- gro -->
    <g style="fill: #2a475e" transform="translate(1117.635833 240.005732)scale(0.12 -0.12)">
     <use xlink:href="#DejaVuSans-Bold-67"/>
     <use xlink:href="#DejaVuSans-Bold-72" x="71.582031"/>
     <use xlink:href="#DejaVuSans-Bold-6f" x="120.898438"/>
    </g>
   </g>
   <g id="patch_17">
    <path d="M 1111.677684 201.746057 
L 1090.972802 202.174705 
" style="fill: none; stroke: #000000; stroke-linecap: round"/>
   </g>
   <g id="text_17">
    <g id="patch_18">
     <path d="M 1114.035833 210.945376 
L 1148.196458 210.945376 
L 1148.196458 192.131626 
L 1114.035833 192.131626 
z
" style="fill: #ffffff; stroke: #000000; stroke-width: 0.72; stroke-linejoin: miter"/>
    </g>
    <!-- CSV -->
    <g style="fill: #2a475e" transform="translate(1117.635833 204.849751)scale(0.12 -0.12)">
     <defs>
      <path id="DejaVuSans-Bold-53" d="M 3834 4519 
L 3834 3531 
Q 3450 3703 3084 3790 
Q 2719 3878 2394 3878 
Q 1963 3878 1756 3759 
Q 1550 3641 1550 3391 
Q 1550 3203 1689 3098 
Q 1828 2994 2194 2919 
L 2706 2816 
Q 3484 2659 3812 2340 
Q 4141 2022 4141 1434 
Q 4141 663 3683 286 
Q 3225 -91 2284 -91 
Q 1841 -91 1394 -6 
Q 947 78 500 244 
L 500 1259 
Q 947 1022 1364 901 
Q 1781 781 2169 781 
Q 2563 781 2772 912 
Q 2981 1044 2981 1288 
Q 2981 1506 2839 1625 
Q 2697 1744 2272 1838 
L 1806 1941 
Q 1106 2091 782 2419 
Q 459 2747 459 3303 
Q 459 4000 909 4375 
Q 1359 4750 2203 4750 
Q 2588 4750 2994 4692 
Q 3400 4634 3834 4519 
z
" transform="scale(0.015625)"/>
     </defs>
     <use xlink:href="#DejaVuSans-Bold-43"/>
     <use xlink:href="#DejaVuSans-Bold-53" x="75.263672"/>
     <use xlink:href="#DejaVuSans-Bold-56" x="147.285156"/>
    </g>
   </g>
   <g id="patch_19">
    <path d="M 1086.11208 191.335585 
C 1084.527214 182.347362 1081.449872 173.687252 1077.007668 165.714374 
C 1072.565463 157.741497 1066.82066 150.567603 1060.011482 144.49018 
C 1053.202305 138.412757 1045.424196 133.51699 1036.999697 130.005896 
C 1028.575198 126.494803 1019.622392 124.417596 1010.512534 123.860413 
C 1001.402677 123.303231 992.263456 124.273883 983.473857 126.732118 
C 974.684259 129.190353 966.367483 133.101715 958.868409 138.304008 
C 951.369336 143.506302 944.793075 149.926607 939.412333 157.298688 
C 934.031592 164.670769 929.921787 172.891294 927.253346 181.619374 
C 924.584905 190.347454 923.395229 199.460752 923.733652 208.581357 
C 924.072076 217.701961 925.933854 226.702034 929.241784 235.208359 
C 932.549714 243.714683 937.257429 251.608032 943.16971 258.561081 
C 949.08199 265.51413 956.115967 271.429424 963.979955 276.061665 
C 971.843942 280.693906 980.427715 283.978168 989.375319 285.778258 
C 998.322924 287.578348 1007.508948 287.869035 1016.552463 286.638266 
C 1025.595978 285.407496 1034.370227 282.672521 1042.511357 278.546754 
C 1050.652487 274.420987 1058.04639 268.962257 1064.386453 262.396927 
L 1034.951419 233.971854 
C 1031.781388 237.254518 1028.084436 239.983883 1024.013871 242.046767 
C 1019.943306 244.109651 1015.556182 245.477138 1011.034424 246.092523 
C 1006.512667 246.707908 1001.919655 246.562564 997.445852 245.662519 
C 992.97205 244.762474 988.680164 243.120343 984.74817 240.804223 
C 980.816176 238.488102 977.299188 235.530455 974.343047 232.053931 
C 971.386907 228.577406 969.033049 224.630732 967.379085 220.377569 
C 965.72512 216.124407 964.79423 211.624371 964.625019 207.064069 
C 964.455807 202.503766 965.050645 197.947117 966.384866 193.583077 
C 967.719086 189.219037 969.773989 185.108775 972.464359 181.422734 
C 975.15473 177.736694 978.44286 174.526541 982.192397 171.925394 
C 985.941934 169.324248 990.100322 167.368567 994.495121 166.139449 
C 998.889921 164.910332 1003.459531 164.425006 1008.01446 164.703597 
C 1012.569389 164.982188 1017.045792 166.020792 1021.258041 167.776338 
C 1025.470291 169.531885 1029.359345 171.979769 1032.763934 175.01848 
C 1036.168522 178.057191 1039.040924 181.644138 1041.262027 185.630577 
C 1043.483129 189.617016 1045.021799 193.947071 1045.814233 198.441183 
L 1086.11208 191.335585 
z
" style="fill: #092436; opacity: 0.5; stroke: #092436; stroke-width: 4; stroke-linejoin: miter"/>
   </g>
   <g id="patch_20">
    <path d="M 1071.1016 267.074859 
C 1074.12551 263.943507 1076.894766 260.575875 1079.382999 257.004029 
C 1081.871233 253.432182 1084.07052 249.667496 1085.959919 245.745818 
L 1049.095726 227.985265 
C 1048.151026 229.946104 1047.051382 231.828447 1045.807266 233.61437 
C 1044.563149 235.400293 1043.178521 237.08411 1041.666566 238.649785 
L 1071.1016 267.074859 
z
" style="fill: #4c2604; opacity: 0.5; stroke: #4c2604; stroke-width: 4; stroke-linejoin: miter"/>
   </g>
   <g id="patch_21">
    <path d="M 1087.084482 243.416331 
C 1088.955253 239.533317 1090.516347 235.508574 1091.753191 231.379676 
C 1092.990034 227.250779 1093.898764 223.030615 1094.470899 218.758585 
L 1053.913497 213.326905 
C 1053.62743 215.46292 1053.173064 217.573002 1052.554643 219.637451 
C 1051.936221 221.7019 1051.155674 223.714271 1050.220289 225.655778 
L 1087.084482 243.416331 
z
" style="fill: #0d300d; opacity: 0.5; stroke: #0d300d; stroke-width: 4; stroke-linejoin: miter"/>
   </g>
   <g id="patch_22">
    <path d="M 1094.813338 216.240747 
C 1095.370661 212.079311 1095.606917 207.88115 1095.520014 203.683459 
C 1095.43311 199.485769 1095.023304 195.300983 1094.294226 191.166179 
L 1053.996379 198.271783 
C 1054.360919 200.339185 1054.565822 202.431578 1054.609274 204.530423 
C 1054.652725 206.629269 1054.534597 208.728349 1054.255935 210.809067 
L 1094.813338 216.240747 
z
" style="fill: #400c0c; opacity: 0.5; stroke: #400c0c; stroke-width: 4; stroke-linejoin: miter"/>
   </g>
   <g id="patch_23">
    <path d="M 1087.74886 189.698805 
C 1086.163994 180.710581 1083.086653 172.050472 1078.644448 164.077594 
C 1074.202244 156.104716 1068.45744 148.930822 1061.648263 142.8534 
C 1054.839086 136.775977 1047.060976 131.88021 1038.636477 128.369116 
C 1030.211979 124.858022 1021.259172 122.780815 1012.149315 122.223633 
C 1003.039457 121.666451 993.900236 122.637103 985.110638 125.095338 
C 976.321039 127.553573 968.004263 131.464935 960.505189 136.667228 
C 953.006116 141.869521 946.429856 148.289827 941.049114 155.661908 
C 935.668372 163.033989 931.558568 171.254514 928.890126 179.982594 
C 926.221685 188.710674 925.03201 197.823972 925.370433 206.944577 
C 925.708856 216.065181 927.570635 225.065254 930.878564 233.571578 
C 934.186494 242.077903 938.894209 249.971251 944.80649 256.924301 
C 950.718771 263.87735 957.752747 269.792643 965.616735 274.424885 
C 973.480722 279.057126 982.064495 282.341388 991.0121 284.141478 
C 999.959705 285.941568 1009.145728 286.232255 1018.189243 285.001486 
C 1027.232758 283.770716 1036.007007 281.035741 1044.148137 276.909973 
C 1052.289268 272.784206 1059.68317 267.325476 1066.023233 260.760147 
L 1036.588199 232.335073 
C 1033.418168 235.617738 1029.721217 238.347103 1025.650651 240.409987 
C 1021.580086 242.47287 1017.192962 243.840358 1012.671204 244.455743 
C 1008.149447 245.071128 1003.556435 244.925784 999.082633 244.025739 
C 994.60883 243.125694 990.316944 241.483563 986.38495 239.167442 
C 982.452957 236.851322 978.935968 233.893675 975.979828 230.41715 
C 973.023687 226.940626 970.66983 222.993952 969.015865 218.740789 
C 967.3619 214.487627 966.431011 209.987591 966.261799 205.427288 
C 966.092588 200.866986 966.687425 196.310337 968.021646 191.946297 
C 969.355867 187.582257 971.410769 183.471994 974.10114 179.785954 
C 976.791511 176.099914 980.079641 172.889761 983.829177 170.288614 
C 987.578714 167.687468 991.737103 165.731786 996.131902 164.502669 
C 1000.526701 163.273551 1005.096311 162.788225 1009.65124 163.066817 
C 1014.206169 163.345408 1018.682572 164.384011 1022.894821 166.139558 
C 1027.107071 167.895105 1030.996126 170.342989 1034.400714 173.3817 
C 1037.805303 176.420411 1040.677705 180.007358 1042.898807 183.993797 
C 1045.119909 187.980236 1046.65858 192.310291 1047.451013 196.804402 
L 1087.74886 189.698805 
z
" style="fill: #1f77b4; stroke: #ffffff; stroke-width: 4; stroke-linejoin: miter"/>
   </g>
   <g id="patch_24">
    <path d="M 1072.73838 265.438078 
C 1075.76229 262.306727 1078.531546 258.939095 1081.01978 255.367248 
C 1083.508013 251.795402 1085.707301 248.030716 1087.5967 244.109037 
L 1050.732506 226.348484 
C 1049.787806 228.309324 1048.688163 230.191667 1047.444046 231.97759 
C 1046.199929 233.763513 1044.815301 235.447329 1043.303346 237.013005 
L 1072.73838 265.438078 
z
" style="fill: #ff7f0e; stroke: #ffffff; stroke-width: 4; stroke-linejoin: miter"/>
   </g>
   <g id="patch_25">
    <path d="M 1088.721263 241.779551 
C 1090.592034 237.896537 1092.153128 233.871794 1093.389971 229.742896 
C 1094.626814 225.613998 1095.535545 221.393835 1096.107679 217.121805 
L 1055.550277 211.690125 
C 1055.26421 213.82614 1054.809844 215.936222 1054.191423 218.000671 
C 1053.573001 220.06512 1052.792454 222.077491 1051.857069 224.018998 
L 1088.721263 241.779551 
z
" style="fill: #2ca02c; stroke: #ffffff; stroke-width: 4; stroke-linejoin: miter"/>
   </g>
   <g id="patch_26">
    <path d="M 1096.450118 214.603967 
C 1097.007441 210.442531 1097.243698 206.24437 1097.156794 202.046679 
C 1097.06989 197.848988 1096.660084 193.664202 1095.931006 189.529399 
L 1055.63316 196.635003 
C 1055.997699 198.702405 1056.202602 200.794798 1056.246054 202.893643 
C 1056.289506 204.992488 1056.171377 207.091569 1055.892716 209.172287 
L 1096.450118 214.603967 
z
" style="fill: #d62728; stroke: #ffffff; stroke-width: 4; stroke-linejoin: miter"/>
   </g>
   <g id="matplotlib.axis_3"/>
   <g id="matplotlib.axis_4"/>
   <g id="text_18">
    <!-- Languages -->
    <g style="fill: #2a475e" transform="translate(976.575041 206.59125)scale(0.1 -0.1)">
     <defs>
      <path id="DejaVuSans-Bold-4c" d="M 588 4666 
L 1791 4666 
L 1791 909 
L 3903 909 
L 3903 0 
L 588 0 
L 588 4666 
z
" transform="scale(0.015625)"/>
     </defs>
     <use xlink:href="#DejaVuSans-Bold-4c"/>
     <use xlink:href="#DejaVuSans-Bold-61" x="63.720703"/>
     <use xlink:href="#DejaVuSans-Bold-6e" x="131.201172"/>
     <use xlink:href="#DejaVuSans-Bold-67" x="202.392578"/>
     <use xlink:href="#DejaVuSans-Bold-75" x="273.974609"/>
     <use xlink:href="#DejaVuSans-Bold-61" x="345.166016"/>
     <use xlink:href="#DejaVuSans-Bold-67" x="412.646484"/>
     <use xlink:href="#DejaVuSans-Bold-65" x="484.228516"/>
     <use xlink:href="#DejaVuSans-Bold-73" x="552.050781"/>
    </g>
   </g>
   <g id="text_19">
    <!-- Languages exploited : -->
    <g style="fill: #2a475e" transform="translate(932.180353 95.611234)scale(0.12 -0.12)">
     <defs>
      <path id="DejaVuSans-Bold-78" d="M 1422 1791 
L 159 3500 
L 1344 3500 
L 2059 2463 
L 2784 3500 
L 3969 3500 
L 2706 1797 
L 4031 0 
L 2847 0 
L 2059 1106 
L 1281 0 
L 97 0 
L 1422 1791 
z
" transform="scale(0.015625)"/>
      <path id="DejaVuSans-Bold-6c" d="M 538 4863 
L 1656 4863 
L 1656 0 
L 538 0 
L 538 4863 
z
" transform="scale(0.015625)"/>
     </defs>
     <use xlink:href="#DejaVuSans-Bold-4c"/>
     <use xlink:href="#DejaVuSans-Bold-61" x="63.720703"/>
     <use xlink:href="#DejaVuSans-Bold-6e" x="131.201172"/>
     <use xlink:href="#DejaVuSans-Bold-67" x="202.392578"/>
     <use xlink:href="#DejaVuSans-Bold-75" x="273.974609"/>
     <use xlink:href="#DejaVuSans-Bold-61" x="345.166016"/>
     <use xlink:href="#DejaVuSans-Bold-67" x="412.646484"/>
     <use xlink:href="#DejaVuSans-Bold-65" x="484.228516"/>
     <use xlink:href="#DejaVuSans-Bold-73" x="552.050781"/>
     <use xlink:href="#DejaVuSans-Bold-20" x="611.572266"/>
     <use xlink:href="#DejaVuSans-Bold-65" x="646.386719"/>
     <use xlink:href="#DejaVuSans-Bold-78" x="714.208984"/>
     <use xlink:href="#DejaVuSans-Bold-70" x="778.710938"/>
     <use xlink:href="#DejaVuSans-Bold-6c" x="850.292969"/>
     <use xlink:href="#DejaVuSans-Bold-6f" x="884.570312"/>
     <use xlink:href="#DejaVuSans-Bold-69" x="953.271484"/>
     <use xlink:href="#DejaVuSans-Bold-74" x="987.548828"/>
     <use xlink:href="#DejaVuSans-Bold-65" x="1035.351562"/>
     <use xlink:href="#DejaVuSans-Bold-64" x="1103.173828"/>
     <use xlink:href="#DejaVuSans-Bold-20" x="1174.755859"/>
     <use xlink:href="#DejaVuSans-Bold-3a" x="1209.570312"/>
    </g>
   </g>
  </g>
  <g id="text_20">
   <!-- From 26 October, 2023 to 02 November, 2023: 5 hrs 30 mins -->
   <g transform="translate(69.458906 29.995312)scale(0.3 -0.3)">
    <defs>
     <path id="DejaVuSans-Bold-46" d="M 588 4666 
L 3834 4666 
L 3834 3756 
L 1791 3756 
L 1791 2888 
L 3713 2888 
L 3713 1978 
L 1791 1978 
L 1791 0 
L 588 0 
L 588 4666 
z
" transform="scale(0.015625)"/>
     <path id="DejaVuSans-Bold-4f" d="M 2719 3878 
Q 2169 3878 1866 3472 
Q 1563 3066 1563 2328 
Q 1563 1594 1866 1187 
Q 2169 781 2719 781 
Q 3272 781 3575 1187 
Q 3878 1594 3878 2328 
Q 3878 3066 3575 3472 
Q 3272 3878 2719 3878 
z
M 2719 4750 
Q 3844 4750 4481 4106 
Q 5119 3463 5119 2328 
Q 5119 1197 4481 553 
Q 3844 -91 2719 -91 
Q 1597 -91 958 553 
Q 319 1197 319 2328 
Q 319 3463 958 4106 
Q 1597 4750 2719 4750 
z
" transform="scale(0.015625)"/>
     <path id="DejaVuSans-Bold-2c" d="M 653 1209 
L 1778 1209 
L 1778 256 
L 1006 -909 
L 341 -909 
L 653 256 
L 653 1209 
z
" transform="scale(0.015625)"/>
     <path id="DejaVuSans-Bold-4e" d="M 588 4666 
L 1931 4666 
L 3628 1466 
L 3628 4666 
L 4769 4666 
L 4769 0 
L 3425 0 
L 1728 3200 
L 1728 0 
L 588 0 
L 588 4666 
z
" transform="scale(0.015625)"/>
     <path id="DejaVuSans-Bold-76" d="M 97 3500 
L 1216 3500 
L 2088 1081 
L 2956 3500 
L 4078 3500 
L 2700 0 
L 1472 0 
L 97 3500 
z
" transform="scale(0.015625)"/>
     <path id="DejaVuSans-Bold-35" d="M 678 4666 
L 3669 4666 
L 3669 3781 
L 1638 3781 
L 1638 3059 
Q 1775 3097 1914 3117 
Q 2053 3138 2203 3138 
Q 3056 3138 3531 2711 
Q 4006 2284 4006 1522 
Q 4006 766 3489 337 
Q 2972 -91 2053 -91 
Q 1656 -91 1267 -14 
Q 878 63 494 219 
L 494 1166 
Q 875 947 1217 837 
Q 1559 728 1863 728 
Q 2300 728 2551 942 
Q 2803 1156 2803 1522 
Q 2803 1891 2551 2103 
Q 2300 2316 1863 2316 
Q 1603 2316 1309 2248 
Q 1016 2181 678 2041 
L 678 4666 
z
" transform="scale(0.015625)"/>
    </defs>
    <use xlink:href="#DejaVuSans-Bold-46"/>
    <use xlink:href="#DejaVuSans-Bold-72" x="61.935547"/>
    <use xlink:href="#DejaVuSans-Bold-6f" x="111.251953"/>
    <use xlink:href="#DejaVuSans-Bold-6d" x="179.953125"/>
    <use xlink:href="#DejaVuSans-Bold-20" x="284.152344"/>
    <use xlink:href="#DejaVuSans-Bold-32" x="318.966797"/>
    <use xlink:href="#DejaVuSans-Bold-36" x="388.546875"/>
    <use xlink:href="#DejaVuSans-Bold-20" x="458.126953"/>
    <use xlink:href="#DejaVuSans-Bold-4f" x="492.941406"/>
    <use xlink:href="#DejaVuSans-Bold-63" x="577.951172"/>
    <use xlink:href="#DejaVuSans-Bold-74" x="637.228516"/>
    <use xlink:href="#DejaVuSans-Bold-6f" x="685.03125"/>
    <use xlink:href="#DejaVuSans-Bold-62" x="753.732422"/>
    <use xlink:href="#DejaVuSans-Bold-65" x="825.314453"/>
    <use xlink:href="#DejaVuSans-Bold-72" x="893.136719"/>
    <use xlink:href="#DejaVuSans-Bold-2c" x="927.703125"/>
    <use xlink:href="#DejaVuSans-Bold-20" x="965.691406"/>
    <use xlink:href="#DejaVuSans-Bold-32" x="1000.505859"/>
    <use xlink:href="#DejaVuSans-Bold-30" x="1070.085938"/>
    <use xlink:href="#DejaVuSans-Bold-32" x="1139.666016"/>
    <use xlink:href="#DejaVuSans-Bold-33" x="1209.246094"/>
    <use xlink:href="#DejaVuSans-Bold-20" x="1278.826172"/>
    <use xlink:href="#DejaVuSans-Bold-74" x="1313.640625"/>
    <use xlink:href="#DejaVuSans-Bold-6f" x="1361.443359"/>
    <use xlink:href="#DejaVuSans-Bold-20" x="1430.144531"/>
    <use xlink:href="#DejaVuSans-Bold-30" x="1464.958984"/>
    <use xlink:href="#DejaVuSans-Bold-32" x="1534.539062"/>
    <use xlink:href="#DejaVuSans-Bold-20" x="1604.119141"/>
    <use xlink:href="#DejaVuSans-Bold-4e" x="1638.933594"/>
    <use xlink:href="#DejaVuSans-Bold-6f" x="1722.625"/>
    <use xlink:href="#DejaVuSans-Bold-76" x="1791.326172"/>
    <use xlink:href="#DejaVuSans-Bold-65" x="1856.511719"/>
    <use xlink:href="#DejaVuSans-Bold-6d" x="1924.333984"/>
    <use xlink:href="#DejaVuSans-Bold-62" x="2028.533203"/>
    <use xlink:href="#DejaVuSans-Bold-65" x="2100.115234"/>
    <use xlink:href="#DejaVuSans-Bold-72" x="2167.9375"/>
    <use xlink:href="#DejaVuSans-Bold-2c" x="2202.503906"/>
    <use xlink:href="#DejaVuSans-Bold-20" x="2240.492188"/>
    <use xlink:href="#DejaVuSans-Bold-32" x="2275.306641"/>
    <use xlink:href="#DejaVuSans-Bold-30" x="2344.886719"/>
    <use xlink:href="#DejaVuSans-Bold-32" x="2414.466797"/>
    <use xlink:href="#DejaVuSans-Bold-33" x="2484.046875"/>
    <use xlink:href="#DejaVuSans-Bold-3a" x="2553.626953"/>
    <use xlink:href="#DejaVuSans-Bold-20" x="2593.617188"/>
    <use xlink:href="#DejaVuSans-Bold-35" x="2628.431641"/>
    <use xlink:href="#DejaVuSans-Bold-20" x="2698.011719"/>
    <use xlink:href="#DejaVuSans-Bold-68" x="2732.826172"/>
    <use xlink:href="#DejaVuSans-Bold-72" x="2804.017578"/>
    <use xlink:href="#DejaVuSans-Bold-73" x="2853.333984"/>
    <use xlink:href="#DejaVuSans-Bold-20" x="2912.855469"/>
    <use xlink:href="#DejaVuSans-Bold-33" x="2947.669922"/>
    <use xlink:href="#DejaVuSans-Bold-30" x="3017.25"/>
    <use xlink:href="#DejaVuSans-Bold-20" x="3086.830078"/>
    <use xlink:href="#DejaVuSans-Bold-6d" x="3121.644531"/>
    <use xlink:href="#DejaVuSans-Bold-69" x="3225.84375"/>
    <use xlink:href="#DejaVuSans-Bold-6e" x="3260.121094"/>
    <use xlink:href="#DejaVuSans-Bold-73" x="3331.3125"/>
   </g>
  </g>
 </g>
 <defs>
  <clipPath id="p4587f61fb6">
   <rect x="339.24375" y="56.32" width="409.195065" height="295.18"/>
  </clipPath>
 </defs>
</svg>
