<?xml version="1.0" encoding="utf-8" standalone="no"?>
<!DOCTYPE svg PUBLIC "-//W3C//DTD SVG 1.1//EN"
  "http://www.w3.org/Graphics/SVG/1.1/DTD/svg11.dtd">
<svg xmlns:xlink="http://www.w3.org/1999/xlink" width="1155.133858pt" height="362.2pt" viewBox="0 0 1155.133858 362.2" xmlns="http://www.w3.org/2000/svg" version="1.1">
 <metadata>
  <rdf:RDF xmlns:dc="http://purl.org/dc/elements/1.1/" xmlns:cc="http://creativecommons.org/ns#" xmlns:rdf="http://www.w3.org/1999/02/22-rdf-syntax-ns#">
   <cc:Work>
    <dc:type rdf:resource="http://purl.org/dc/dcmitype/StillImage"/>
    <dc:date>2025-01-27T00:38:13.782359</dc:date>
    <dc:format>image/svg+xml</dc:format>
    <dc:creator>
     <cc:Agent>
      <dc:title>Matplotlib v3.9.1.post1, https://matplotlib.org/</dc:title>
     </cc:Agent>
    </dc:creator>
   </cc:Work>
  </rdf:RDF>
 </metadata>
 <defs>
  <style type="text/css">*{stroke-linejoin: round; stroke-linecap: butt}</style>
 </defs>
 <g id="figure_1">
  <g id="patch_1">
   <path d="M 0 362.2 
L 1155.133858 362.2 
L 1155.133858 0 
L 0 0 
L 0 362.2 
z
" style="fill: none"/>
  </g>
  <g id="axes_1">
   <g id="patch_2">
    <path d="M 236.09375 355 
L 699.408811 355 
L 699.408811 56.32 
L 236.09375 56.32 
L 236.09375 355 
z
" style="fill: none"/>
   </g>
   <g id="patch_3">
    <path d="M 236.09375 69.896364 
L 677.34619 69.896364 
L 677.34619 94.580661 
L 236.09375 94.580661 
z
" clip-path="url(#p5ded330730)" style="fill: #c5f075; stroke: #c5f075; stroke-linejoin: miter"/>
   </g>
   <g id="patch_4">
    <path d="M 236.09375 119.264959 
L 310.175384 119.264959 
L 310.175384 143.949256 
L 236.09375 143.949256 
z
" clip-path="url(#p5ded330730)" style="fill: #462b18; stroke: #462b18; stroke-linejoin: miter"/>
   </g>
   <g id="patch_5">
    <path d="M 236.09375 168.633554 
L 244.726715 168.633554 
L 244.726715 193.317851 
L 236.09375 193.317851 
z
" clip-path="url(#p5ded330730)" style="fill: #3f2edc; stroke: #3f2edc; stroke-linejoin: miter"/>
   </g>
   <g id="patch_6">
    <path d="M 236.09375 218.002149 
L 241.705177 218.002149 
L 241.705177 242.686446 
L 236.09375 242.686446 
z
" clip-path="url(#p5ded330730)" style="fill: #a062a4; stroke: #a062a4; stroke-linejoin: miter"/>
   </g>
   <g id="patch_7">
    <path d="M 236.09375 267.370744 
L 241.435397 267.370744 
L 241.435397 292.055041 
L 236.09375 292.055041 
z
" clip-path="url(#p5ded330730)" style="fill: #9d715a; stroke: #9d715a; stroke-linejoin: miter"/>
   </g>
   <g id="patch_8">
    <path d="M 236.09375 316.739339 
L 240.194409 316.739339 
L 240.194409 341.423636 
L 236.09375 341.423636 
z
" clip-path="url(#p5ded330730)" style="fill: #7a0ae3; stroke: #7a0ae3; stroke-linejoin: miter"/>
   </g>
   <g id="matplotlib.axis_1"/>
   <g id="matplotlib.axis_2">
    <g id="ytick_1">
     <g id="line2d_1">
      <defs>
       <path id="m7388699068" d="M 0 0 
L -3.5 0 
" style="stroke: #000000; stroke-width: 0.8"/>
      </defs>
      <g>
       <use xlink:href="#m7388699068" x="236.09375" y="82.238512" style="stroke: #000000; stroke-width: 0.8"/>
      </g>
     </g>
     <g id="text_1">
      <!-- CVSampler -->
      <g style="fill: #586069" transform="translate(105.596875 89.83695) scale(0.2 -0.2)">
       <defs>
        <path id="DejaVuSans-Bold-43" d="M 4288 256 
Q 3956 84 3597 -3 
Q 3238 -91 2847 -91 
Q 1681 -91 1000 561 
Q 319 1213 319 2328 
Q 319 3447 1000 4098 
Q 1681 4750 2847 4750 
Q 3238 4750 3597 4662 
Q 3956 4575 4288 4403 
L 4288 3438 
Q 3953 3666 3628 3772 
Q 3303 3878 2944 3878 
Q 2300 3878 1931 3465 
Q 1563 3053 1563 2328 
Q 1563 1606 1931 1193 
Q 2300 781 2944 781 
Q 3303 781 3628 887 
Q 3953 994 4288 1222 
L 4288 256 
z
" transform="scale(0.015625)"/>
        <path id="DejaVuSans-Bold-56" d="M 31 4666 
L 1241 4666 
L 2478 1222 
L 3713 4666 
L 4922 4666 
L 3194 0 
L 1759 0 
L 31 4666 
z
" transform="scale(0.015625)"/>
        <path id="DejaVuSans-Bold-53" d="M 3834 4519 
L 3834 3531 
Q 3450 3703 3084 3790 
Q 2719 3878 2394 3878 
Q 1963 3878 1756 3759 
Q 1550 3641 1550 3391 
Q 1550 3203 1689 3098 
Q 1828 2994 2194 2919 
L 2706 2816 
Q 3484 2659 3812 2340 
Q 4141 2022 4141 1434 
Q 4141 663 3683 286 
Q 3225 -91 2284 -91 
Q 1841 -91 1394 -6 
Q 947 78 500 244 
L 500 1259 
Q 947 1022 1364 901 
Q 1781 781 2169 781 
Q 2563 781 2772 912 
Q 2981 1044 2981 1288 
Q 2981 1506 2839 1625 
Q 2697 1744 2272 1838 
L 1806 1941 
Q 1106 2091 782 2419 
Q 459 2747 459 3303 
Q 459 4000 909 4375 
Q 1359 4750 2203 4750 
Q 2588 4750 2994 4692 
Q 3400 4634 3834 4519 
z
" transform="scale(0.015625)"/>
        <path id="DejaVuSans-Bold-61" d="M 2106 1575 
Q 1756 1575 1579 1456 
Q 1403 1338 1403 1106 
Q 1403 894 1545 773 
Q 1688 653 1941 653 
Q 2256 653 2472 879 
Q 2688 1106 2688 1447 
L 2688 1575 
L 2106 1575 
z
M 3816 1997 
L 3816 0 
L 2688 0 
L 2688 519 
Q 2463 200 2181 54 
Q 1900 -91 1497 -91 
Q 953 -91 614 226 
Q 275 544 275 1050 
Q 275 1666 698 1953 
Q 1122 2241 2028 2241 
L 2688 2241 
L 2688 2328 
Q 2688 2594 2478 2717 
Q 2269 2841 1825 2841 
Q 1466 2841 1156 2769 
Q 847 2697 581 2553 
L 581 3406 
Q 941 3494 1303 3539 
Q 1666 3584 2028 3584 
Q 2975 3584 3395 3211 
Q 3816 2838 3816 1997 
z
" transform="scale(0.015625)"/>
        <path id="DejaVuSans-Bold-6d" d="M 3781 2919 
Q 3994 3244 4286 3414 
Q 4578 3584 4928 3584 
Q 5531 3584 5847 3212 
Q 6163 2841 6163 2131 
L 6163 0 
L 5038 0 
L 5038 1825 
Q 5041 1866 5042 1909 
Q 5044 1953 5044 2034 
Q 5044 2406 4934 2573 
Q 4825 2741 4581 2741 
Q 4263 2741 4089 2478 
Q 3916 2216 3909 1719 
L 3909 0 
L 2784 0 
L 2784 1825 
Q 2784 2406 2684 2573 
Q 2584 2741 2328 2741 
Q 2006 2741 1831 2477 
Q 1656 2213 1656 1722 
L 1656 0 
L 531 0 
L 531 3500 
L 1656 3500 
L 1656 2988 
Q 1863 3284 2130 3434 
Q 2397 3584 2719 3584 
Q 3081 3584 3359 3409 
Q 3638 3234 3781 2919 
z
" transform="scale(0.015625)"/>
        <path id="DejaVuSans-Bold-70" d="M 1656 506 
L 1656 -1331 
L 538 -1331 
L 538 3500 
L 1656 3500 
L 1656 2988 
Q 1888 3294 2169 3439 
Q 2450 3584 2816 3584 
Q 3463 3584 3878 3070 
Q 4294 2556 4294 1747 
Q 4294 938 3878 423 
Q 3463 -91 2816 -91 
Q 2450 -91 2169 54 
Q 1888 200 1656 506 
z
M 2400 2772 
Q 2041 2772 1848 2508 
Q 1656 2244 1656 1747 
Q 1656 1250 1848 986 
Q 2041 722 2400 722 
Q 2759 722 2948 984 
Q 3138 1247 3138 1747 
Q 3138 2247 2948 2509 
Q 2759 2772 2400 2772 
z
" transform="scale(0.015625)"/>
        <path id="DejaVuSans-Bold-6c" d="M 538 4863 
L 1656 4863 
L 1656 0 
L 538 0 
L 538 4863 
z
" transform="scale(0.015625)"/>
        <path id="DejaVuSans-Bold-65" d="M 4031 1759 
L 4031 1441 
L 1416 1441 
Q 1456 1047 1700 850 
Q 1944 653 2381 653 
Q 2734 653 3104 758 
Q 3475 863 3866 1075 
L 3866 213 
Q 3469 63 3072 -14 
Q 2675 -91 2278 -91 
Q 1328 -91 801 392 
Q 275 875 275 1747 
Q 275 2603 792 3093 
Q 1309 3584 2216 3584 
Q 3041 3584 3536 3087 
Q 4031 2591 4031 1759 
z
M 2881 2131 
Q 2881 2450 2695 2645 
Q 2509 2841 2209 2841 
Q 1884 2841 1681 2658 
Q 1478 2475 1428 2131 
L 2881 2131 
z
" transform="scale(0.015625)"/>
        <path id="DejaVuSans-Bold-72" d="M 3138 2547 
Q 2991 2616 2845 2648 
Q 2700 2681 2553 2681 
Q 2122 2681 1889 2404 
Q 1656 2128 1656 1613 
L 1656 0 
L 538 0 
L 538 3500 
L 1656 3500 
L 1656 2925 
Q 1872 3269 2151 3426 
Q 2431 3584 2822 3584 
Q 2878 3584 2943 3579 
Q 3009 3575 3134 3559 
L 3138 2547 
z
" transform="scale(0.015625)"/>
       </defs>
       <use xlink:href="#DejaVuSans-Bold-43"/>
       <use xlink:href="#DejaVuSans-Bold-56" x="73.388672"/>
       <use xlink:href="#DejaVuSans-Bold-53" x="150.78125"/>
       <use xlink:href="#DejaVuSans-Bold-61" x="222.802734"/>
       <use xlink:href="#DejaVuSans-Bold-6d" x="290.283203"/>
       <use xlink:href="#DejaVuSans-Bold-70" x="394.482422"/>
       <use xlink:href="#DejaVuSans-Bold-6c" x="466.064453"/>
       <use xlink:href="#DejaVuSans-Bold-65" x="500.341797"/>
       <use xlink:href="#DejaVuSans-Bold-72" x="568.164062"/>
      </g>
     </g>
    </g>
    <g id="ytick_2">
     <g id="line2d_2">
      <g>
       <use xlink:href="#m7388699068" x="236.09375" y="131.607107" style="stroke: #000000; stroke-width: 0.8"/>
      </g>
     </g>
     <g id="text_2">
      <!-- DeltaG_Prediction -->
      <g style="fill: #586069" transform="translate(27.0875 139.205545) scale(0.2 -0.2)">
       <defs>
        <path id="DejaVuSans-Bold-44" d="M 1791 3756 
L 1791 909 
L 2222 909 
Q 2959 909 3348 1275 
Q 3738 1641 3738 2338 
Q 3738 3031 3350 3393 
Q 2963 3756 2222 3756 
L 1791 3756 
z
M 588 4666 
L 1856 4666 
Q 2919 4666 3439 4514 
Q 3959 4363 4331 4000 
Q 4659 3684 4818 3271 
Q 4978 2859 4978 2338 
Q 4978 1809 4818 1395 
Q 4659 981 4331 666 
Q 3956 303 3431 151 
Q 2906 0 1856 0 
L 588 0 
L 588 4666 
z
" transform="scale(0.015625)"/>
        <path id="DejaVuSans-Bold-74" d="M 1759 4494 
L 1759 3500 
L 2913 3500 
L 2913 2700 
L 1759 2700 
L 1759 1216 
Q 1759 972 1856 886 
Q 1953 800 2241 800 
L 2816 800 
L 2816 0 
L 1856 0 
Q 1194 0 917 276 
Q 641 553 641 1216 
L 641 2700 
L 84 2700 
L 84 3500 
L 641 3500 
L 641 4494 
L 1759 4494 
z
" transform="scale(0.015625)"/>
        <path id="DejaVuSans-Bold-47" d="M 4781 347 
Q 4331 128 3847 18 
Q 3363 -91 2847 -91 
Q 1681 -91 1000 561 
Q 319 1213 319 2328 
Q 319 3456 1012 4103 
Q 1706 4750 2913 4750 
Q 3378 4750 3804 4662 
Q 4231 4575 4609 4403 
L 4609 3438 
Q 4219 3659 3833 3768 
Q 3447 3878 3059 3878 
Q 2341 3878 1952 3476 
Q 1563 3075 1563 2328 
Q 1563 1588 1938 1184 
Q 2313 781 3003 781 
Q 3191 781 3352 804 
Q 3513 828 3641 878 
L 3641 1784 
L 2906 1784 
L 2906 2591 
L 4781 2591 
L 4781 347 
z
" transform="scale(0.015625)"/>
        <path id="DejaVuSans-Bold-5f" d="M 3200 -916 
L 3200 -1509 
L 0 -1509 
L 0 -916 
L 3200 -916 
z
" transform="scale(0.015625)"/>
        <path id="DejaVuSans-Bold-50" d="M 588 4666 
L 2584 4666 
Q 3475 4666 3951 4270 
Q 4428 3875 4428 3144 
Q 4428 2409 3951 2014 
Q 3475 1619 2584 1619 
L 1791 1619 
L 1791 0 
L 588 0 
L 588 4666 
z
M 1791 3794 
L 1791 2491 
L 2456 2491 
Q 2806 2491 2997 2661 
Q 3188 2831 3188 3144 
Q 3188 3456 2997 3625 
Q 2806 3794 2456 3794 
L 1791 3794 
z
" transform="scale(0.015625)"/>
        <path id="DejaVuSans-Bold-64" d="M 2919 2988 
L 2919 4863 
L 4044 4863 
L 4044 0 
L 2919 0 
L 2919 506 
Q 2688 197 2409 53 
Q 2131 -91 1766 -91 
Q 1119 -91 703 423 
Q 288 938 288 1747 
Q 288 2556 703 3070 
Q 1119 3584 1766 3584 
Q 2128 3584 2408 3439 
Q 2688 3294 2919 2988 
z
M 2181 722 
Q 2541 722 2730 984 
Q 2919 1247 2919 1747 
Q 2919 2247 2730 2509 
Q 2541 2772 2181 2772 
Q 1825 2772 1636 2509 
Q 1447 2247 1447 1747 
Q 1447 1247 1636 984 
Q 1825 722 2181 722 
z
" transform="scale(0.015625)"/>
        <path id="DejaVuSans-Bold-69" d="M 538 3500 
L 1656 3500 
L 1656 0 
L 538 0 
L 538 3500 
z
M 538 4863 
L 1656 4863 
L 1656 3950 
L 538 3950 
L 538 4863 
z
" transform="scale(0.015625)"/>
        <path id="DejaVuSans-Bold-63" d="M 3366 3391 
L 3366 2478 
Q 3138 2634 2908 2709 
Q 2678 2784 2431 2784 
Q 1963 2784 1702 2511 
Q 1441 2238 1441 1747 
Q 1441 1256 1702 982 
Q 1963 709 2431 709 
Q 2694 709 2930 787 
Q 3166 866 3366 1019 
L 3366 103 
Q 3103 6 2833 -42 
Q 2563 -91 2291 -91 
Q 1344 -91 809 395 
Q 275 881 275 1747 
Q 275 2613 809 3098 
Q 1344 3584 2291 3584 
Q 2566 3584 2833 3536 
Q 3100 3488 3366 3391 
z
" transform="scale(0.015625)"/>
        <path id="DejaVuSans-Bold-6f" d="M 2203 2784 
Q 1831 2784 1636 2517 
Q 1441 2250 1441 1747 
Q 1441 1244 1636 976 
Q 1831 709 2203 709 
Q 2569 709 2762 976 
Q 2956 1244 2956 1747 
Q 2956 2250 2762 2517 
Q 2569 2784 2203 2784 
z
M 2203 3584 
Q 3106 3584 3614 3096 
Q 4122 2609 4122 1747 
Q 4122 884 3614 396 
Q 3106 -91 2203 -91 
Q 1297 -91 786 396 
Q 275 884 275 1747 
Q 275 2609 786 3096 
Q 1297 3584 2203 3584 
z
" transform="scale(0.015625)"/>
        <path id="DejaVuSans-Bold-6e" d="M 4056 2131 
L 4056 0 
L 2931 0 
L 2931 347 
L 2931 1631 
Q 2931 2084 2911 2256 
Q 2891 2428 2841 2509 
Q 2775 2619 2662 2680 
Q 2550 2741 2406 2741 
Q 2056 2741 1856 2470 
Q 1656 2200 1656 1722 
L 1656 0 
L 538 0 
L 538 3500 
L 1656 3500 
L 1656 2988 
Q 1909 3294 2193 3439 
Q 2478 3584 2822 3584 
Q 3428 3584 3742 3212 
Q 4056 2841 4056 2131 
z
" transform="scale(0.015625)"/>
       </defs>
       <use xlink:href="#DejaVuSans-Bold-44"/>
       <use xlink:href="#DejaVuSans-Bold-65" x="83.007812"/>
       <use xlink:href="#DejaVuSans-Bold-6c" x="150.830078"/>
       <use xlink:href="#DejaVuSans-Bold-74" x="185.107422"/>
       <use xlink:href="#DejaVuSans-Bold-61" x="232.910156"/>
       <use xlink:href="#DejaVuSans-Bold-47" x="300.390625"/>
       <use xlink:href="#DejaVuSans-Bold-5f" x="382.470703"/>
       <use xlink:href="#DejaVuSans-Bold-50" x="432.470703"/>
       <use xlink:href="#DejaVuSans-Bold-72" x="505.761719"/>
       <use xlink:href="#DejaVuSans-Bold-65" x="555.078125"/>
       <use xlink:href="#DejaVuSans-Bold-64" x="622.900391"/>
       <use xlink:href="#DejaVuSans-Bold-69" x="694.482422"/>
       <use xlink:href="#DejaVuSans-Bold-63" x="728.759766"/>
       <use xlink:href="#DejaVuSans-Bold-74" x="788.037109"/>
       <use xlink:href="#DejaVuSans-Bold-69" x="835.839844"/>
       <use xlink:href="#DejaVuSans-Bold-6f" x="870.117188"/>
       <use xlink:href="#DejaVuSans-Bold-6e" x="938.818359"/>
      </g>
     </g>
    </g>
    <g id="ytick_3">
     <g id="line2d_3">
      <g>
       <use xlink:href="#m7388699068" x="236.09375" y="180.975702" style="stroke: #000000; stroke-width: 0.8"/>
      </g>
     </g>
     <g id="text_3">
      <!-- Cancer_Detection -->
      <g style="fill: #586069" transform="translate(31.853125 188.57414) scale(0.2 -0.2)">
       <use xlink:href="#DejaVuSans-Bold-43"/>
       <use xlink:href="#DejaVuSans-Bold-61" x="73.388672"/>
       <use xlink:href="#DejaVuSans-Bold-6e" x="140.869141"/>
       <use xlink:href="#DejaVuSans-Bold-63" x="212.060547"/>
       <use xlink:href="#DejaVuSans-Bold-65" x="271.337891"/>
       <use xlink:href="#DejaVuSans-Bold-72" x="339.160156"/>
       <use xlink:href="#DejaVuSans-Bold-5f" x="388.476562"/>
       <use xlink:href="#DejaVuSans-Bold-44" x="438.476562"/>
       <use xlink:href="#DejaVuSans-Bold-65" x="521.484375"/>
       <use xlink:href="#DejaVuSans-Bold-74" x="589.306641"/>
       <use xlink:href="#DejaVuSans-Bold-65" x="637.109375"/>
       <use xlink:href="#DejaVuSans-Bold-63" x="704.931641"/>
       <use xlink:href="#DejaVuSans-Bold-74" x="764.208984"/>
       <use xlink:href="#DejaVuSans-Bold-69" x="812.011719"/>
       <use xlink:href="#DejaVuSans-Bold-6f" x="846.289062"/>
       <use xlink:href="#DejaVuSans-Bold-6e" x="914.990234"/>
      </g>
     </g>
    </g>
    <g id="ytick_4">
     <g id="line2d_4">
      <g>
       <use xlink:href="#m7388699068" x="236.09375" y="230.344298" style="stroke: #000000; stroke-width: 0.8"/>
      </g>
     </g>
     <g id="text_4">
      <!-- Enhanced Sampling -->
      <g style="fill: #586069" transform="translate(7.2 237.942735) scale(0.2 -0.2)">
       <defs>
        <path id="DejaVuSans-Bold-45" d="M 588 4666 
L 3834 4666 
L 3834 3756 
L 1791 3756 
L 1791 2888 
L 3713 2888 
L 3713 1978 
L 1791 1978 
L 1791 909 
L 3903 909 
L 3903 0 
L 588 0 
L 588 4666 
z
" transform="scale(0.015625)"/>
        <path id="DejaVuSans-Bold-68" d="M 4056 2131 
L 4056 0 
L 2931 0 
L 2931 347 
L 2931 1625 
Q 2931 2084 2911 2256 
Q 2891 2428 2841 2509 
Q 2775 2619 2662 2680 
Q 2550 2741 2406 2741 
Q 2056 2741 1856 2470 
Q 1656 2200 1656 1722 
L 1656 0 
L 538 0 
L 538 4863 
L 1656 4863 
L 1656 2988 
Q 1909 3294 2193 3439 
Q 2478 3584 2822 3584 
Q 3428 3584 3742 3212 
Q 4056 2841 4056 2131 
z
" transform="scale(0.015625)"/>
        <path id="DejaVuSans-Bold-20" transform="scale(0.015625)"/>
        <path id="DejaVuSans-Bold-67" d="M 2919 594 
Q 2688 288 2409 144 
Q 2131 0 1766 0 
Q 1125 0 706 504 
Q 288 1009 288 1791 
Q 288 2575 706 3076 
Q 1125 3578 1766 3578 
Q 2131 3578 2409 3434 
Q 2688 3291 2919 2981 
L 2919 3500 
L 4044 3500 
L 4044 353 
Q 4044 -491 3511 -936 
Q 2978 -1381 1966 -1381 
Q 1638 -1381 1331 -1331 
Q 1025 -1281 716 -1178 
L 716 -306 
Q 1009 -475 1290 -558 
Q 1572 -641 1856 -641 
Q 2406 -641 2662 -400 
Q 2919 -159 2919 353 
L 2919 594 
z
M 2181 2772 
Q 1834 2772 1640 2515 
Q 1447 2259 1447 1791 
Q 1447 1309 1634 1061 
Q 1822 813 2181 813 
Q 2531 813 2725 1069 
Q 2919 1325 2919 1791 
Q 2919 2259 2725 2515 
Q 2531 2772 2181 2772 
z
" transform="scale(0.015625)"/>
       </defs>
       <use xlink:href="#DejaVuSans-Bold-45"/>
       <use xlink:href="#DejaVuSans-Bold-6e" x="68.310547"/>
       <use xlink:href="#DejaVuSans-Bold-68" x="139.501953"/>
       <use xlink:href="#DejaVuSans-Bold-61" x="210.693359"/>
       <use xlink:href="#DejaVuSans-Bold-6e" x="278.173828"/>
       <use xlink:href="#DejaVuSans-Bold-63" x="349.365234"/>
       <use xlink:href="#DejaVuSans-Bold-65" x="408.642578"/>
       <use xlink:href="#DejaVuSans-Bold-64" x="476.464844"/>
       <use xlink:href="#DejaVuSans-Bold-20" x="548.046875"/>
       <use xlink:href="#DejaVuSans-Bold-53" x="582.861328"/>
       <use xlink:href="#DejaVuSans-Bold-61" x="654.882812"/>
       <use xlink:href="#DejaVuSans-Bold-6d" x="722.363281"/>
       <use xlink:href="#DejaVuSans-Bold-70" x="826.5625"/>
       <use xlink:href="#DejaVuSans-Bold-6c" x="898.144531"/>
       <use xlink:href="#DejaVuSans-Bold-69" x="932.421875"/>
       <use xlink:href="#DejaVuSans-Bold-6e" x="966.699219"/>
       <use xlink:href="#DejaVuSans-Bold-67" x="1037.890625"/>
      </g>
     </g>
    </g>
    <g id="ytick_5">
     <g id="line2d_5">
      <g>
       <use xlink:href="#m7388699068" x="236.09375" y="279.712893" style="stroke: #000000; stroke-width: 0.8"/>
      </g>
     </g>
     <g id="text_5">
      <!-- masterclass-21-4 -->
      <g style="fill: #586069" transform="translate(35.503125 287.31133) scale(0.2 -0.2)">
       <defs>
        <path id="DejaVuSans-Bold-73" d="M 3272 3391 
L 3272 2541 
Q 2913 2691 2578 2766 
Q 2244 2841 1947 2841 
Q 1628 2841 1473 2761 
Q 1319 2681 1319 2516 
Q 1319 2381 1436 2309 
Q 1553 2238 1856 2203 
L 2053 2175 
Q 2913 2066 3209 1816 
Q 3506 1566 3506 1031 
Q 3506 472 3093 190 
Q 2681 -91 1863 -91 
Q 1516 -91 1145 -36 
Q 775 19 384 128 
L 384 978 
Q 719 816 1070 734 
Q 1422 653 1784 653 
Q 2113 653 2278 743 
Q 2444 834 2444 1013 
Q 2444 1163 2330 1236 
Q 2216 1309 1875 1350 
L 1678 1375 
Q 931 1469 631 1722 
Q 331 1975 331 2491 
Q 331 3047 712 3315 
Q 1094 3584 1881 3584 
Q 2191 3584 2531 3537 
Q 2872 3491 3272 3391 
z
" transform="scale(0.015625)"/>
        <path id="DejaVuSans-Bold-2d" d="M 347 2297 
L 2309 2297 
L 2309 1388 
L 347 1388 
L 347 2297 
z
" transform="scale(0.015625)"/>
        <path id="DejaVuSans-Bold-32" d="M 1844 884 
L 3897 884 
L 3897 0 
L 506 0 
L 506 884 
L 2209 2388 
Q 2438 2594 2547 2791 
Q 2656 2988 2656 3200 
Q 2656 3528 2436 3728 
Q 2216 3928 1850 3928 
Q 1569 3928 1234 3808 
Q 900 3688 519 3450 
L 519 4475 
Q 925 4609 1322 4679 
Q 1719 4750 2100 4750 
Q 2938 4750 3402 4381 
Q 3866 4013 3866 3353 
Q 3866 2972 3669 2642 
Q 3472 2313 2841 1759 
L 1844 884 
z
" transform="scale(0.015625)"/>
        <path id="DejaVuSans-Bold-31" d="M 750 831 
L 1813 831 
L 1813 3847 
L 722 3622 
L 722 4441 
L 1806 4666 
L 2950 4666 
L 2950 831 
L 4013 831 
L 4013 0 
L 750 0 
L 750 831 
z
" transform="scale(0.015625)"/>
        <path id="DejaVuSans-Bold-34" d="M 2356 3675 
L 1038 1722 
L 2356 1722 
L 2356 3675 
z
M 2156 4666 
L 3494 4666 
L 3494 1722 
L 4159 1722 
L 4159 850 
L 3494 850 
L 3494 0 
L 2356 0 
L 2356 850 
L 288 850 
L 288 1881 
L 2156 4666 
z
" transform="scale(0.015625)"/>
       </defs>
       <use xlink:href="#DejaVuSans-Bold-6d"/>
       <use xlink:href="#DejaVuSans-Bold-61" x="104.199219"/>
       <use xlink:href="#DejaVuSans-Bold-73" x="171.679688"/>
       <use xlink:href="#DejaVuSans-Bold-74" x="231.201172"/>
       <use xlink:href="#DejaVuSans-Bold-65" x="279.003906"/>
       <use xlink:href="#DejaVuSans-Bold-72" x="346.826172"/>
       <use xlink:href="#DejaVuSans-Bold-63" x="396.142578"/>
       <use xlink:href="#DejaVuSans-Bold-6c" x="455.419922"/>
       <use xlink:href="#DejaVuSans-Bold-61" x="489.697266"/>
       <use xlink:href="#DejaVuSans-Bold-73" x="557.177734"/>
       <use xlink:href="#DejaVuSans-Bold-73" x="616.699219"/>
       <use xlink:href="#DejaVuSans-Bold-2d" x="676.220703"/>
       <use xlink:href="#DejaVuSans-Bold-32" x="717.724609"/>
       <use xlink:href="#DejaVuSans-Bold-31" x="787.304688"/>
       <use xlink:href="#DejaVuSans-Bold-2d" x="856.884766"/>
       <use xlink:href="#DejaVuSans-Bold-34" x="898.388672"/>
      </g>
     </g>
    </g>
    <g id="ytick_6">
     <g id="line2d_6">
      <g>
       <use xlink:href="#m7388699068" x="236.09375" y="329.081488" style="stroke: #000000; stroke-width: 0.8"/>
      </g>
     </g>
     <g id="text_6">
      <!-- Nord -->
      <g style="fill: #586069" transform="translate(174.4375 336.679925) scale(0.2 -0.2)">
       <defs>
        <path id="DejaVuSans-Bold-4e" d="M 588 4666 
L 1931 4666 
L 3628 1466 
L 3628 4666 
L 4769 4666 
L 4769 0 
L 3425 0 
L 1728 3200 
L 1728 0 
L 588 0 
L 588 4666 
z
" transform="scale(0.015625)"/>
       </defs>
       <use xlink:href="#DejaVuSans-Bold-4e"/>
       <use xlink:href="#DejaVuSans-Bold-6f" x="83.691406"/>
       <use xlink:href="#DejaVuSans-Bold-72" x="152.392578"/>
       <use xlink:href="#DejaVuSans-Bold-64" x="201.708984"/>
      </g>
     </g>
    </g>
   </g>
   <g id="patch_9">
    <path d="M 236.09375 355 
L 236.09375 56.32 
" style="fill: none; stroke: #000000; stroke-width: 0.8; stroke-linejoin: miter; stroke-linecap: square"/>
   </g>
   <g id="patch_10">
    <path d="M 236.09375 355 
L 699.408811 355 
" style="fill: none; stroke: #000000; stroke-width: 0.8; stroke-linejoin: miter; stroke-linecap: square"/>
   </g>
   <g id="text_7">
    <!-- 14 hrs 28 mins -->
    <g style="fill: #586069" transform="translate(681.34619 86.377575) scale(0.15 -0.15)">
     <defs>
      <path id="DejaVuSans-Bold-38" d="M 2228 2088 
Q 1891 2088 1709 1903 
Q 1528 1719 1528 1375 
Q 1528 1031 1709 848 
Q 1891 666 2228 666 
Q 2563 666 2741 848 
Q 2919 1031 2919 1375 
Q 2919 1722 2741 1905 
Q 2563 2088 2228 2088 
z
M 1350 2484 
Q 925 2613 709 2878 
Q 494 3144 494 3541 
Q 494 4131 934 4440 
Q 1375 4750 2228 4750 
Q 3075 4750 3515 4442 
Q 3956 4134 3956 3541 
Q 3956 3144 3739 2878 
Q 3522 2613 3097 2484 
Q 3572 2353 3814 2058 
Q 4056 1763 4056 1313 
Q 4056 619 3595 264 
Q 3134 -91 2228 -91 
Q 1319 -91 855 264 
Q 391 619 391 1313 
Q 391 1763 633 2058 
Q 875 2353 1350 2484 
z
M 1631 3419 
Q 1631 3141 1786 2991 
Q 1941 2841 2228 2841 
Q 2509 2841 2662 2991 
Q 2816 3141 2816 3419 
Q 2816 3697 2662 3845 
Q 2509 3994 2228 3994 
Q 1941 3994 1786 3844 
Q 1631 3694 1631 3419 
z
" transform="scale(0.015625)"/>
     </defs>
     <use xlink:href="#DejaVuSans-Bold-31"/>
     <use xlink:href="#DejaVuSans-Bold-34" x="69.580078"/>
     <use xlink:href="#DejaVuSans-Bold-20" x="139.160156"/>
     <use xlink:href="#DejaVuSans-Bold-68" x="173.974609"/>
     <use xlink:href="#DejaVuSans-Bold-72" x="245.166016"/>
     <use xlink:href="#DejaVuSans-Bold-73" x="294.482422"/>
     <use xlink:href="#DejaVuSans-Bold-20" x="354.003906"/>
     <use xlink:href="#DejaVuSans-Bold-32" x="388.818359"/>
     <use xlink:href="#DejaVuSans-Bold-38" x="458.398438"/>
     <use xlink:href="#DejaVuSans-Bold-20" x="527.978516"/>
     <use xlink:href="#DejaVuSans-Bold-6d" x="562.792969"/>
     <use xlink:href="#DejaVuSans-Bold-69" x="666.992188"/>
     <use xlink:href="#DejaVuSans-Bold-6e" x="701.269531"/>
     <use xlink:href="#DejaVuSans-Bold-73" x="772.460938"/>
    </g>
   </g>
   <g id="text_8">
    <!-- 2 hrs 25 mins -->
    <g style="fill: #586069" transform="translate(314.175384 135.74617) scale(0.15 -0.15)">
     <defs>
      <path id="DejaVuSans-Bold-35" d="M 678 4666 
L 3669 4666 
L 3669 3781 
L 1638 3781 
L 1638 3059 
Q 1775 3097 1914 3117 
Q 2053 3138 2203 3138 
Q 3056 3138 3531 2711 
Q 4006 2284 4006 1522 
Q 4006 766 3489 337 
Q 2972 -91 2053 -91 
Q 1656 -91 1267 -14 
Q 878 63 494 219 
L 494 1166 
Q 875 947 1217 837 
Q 1559 728 1863 728 
Q 2300 728 2551 942 
Q 2803 1156 2803 1522 
Q 2803 1891 2551 2103 
Q 2300 2316 1863 2316 
Q 1603 2316 1309 2248 
Q 1016 2181 678 2041 
L 678 4666 
z
" transform="scale(0.015625)"/>
     </defs>
     <use xlink:href="#DejaVuSans-Bold-32"/>
     <use xlink:href="#DejaVuSans-Bold-20" x="69.580078"/>
     <use xlink:href="#DejaVuSans-Bold-68" x="104.394531"/>
     <use xlink:href="#DejaVuSans-Bold-72" x="175.585938"/>
     <use xlink:href="#DejaVuSans-Bold-73" x="224.902344"/>
     <use xlink:href="#DejaVuSans-Bold-20" x="284.423828"/>
     <use xlink:href="#DejaVuSans-Bold-32" x="319.238281"/>
     <use xlink:href="#DejaVuSans-Bold-35" x="388.818359"/>
     <use xlink:href="#DejaVuSans-Bold-20" x="458.398438"/>
     <use xlink:href="#DejaVuSans-Bold-6d" x="493.212891"/>
     <use xlink:href="#DejaVuSans-Bold-69" x="597.412109"/>
     <use xlink:href="#DejaVuSans-Bold-6e" x="631.689453"/>
     <use xlink:href="#DejaVuSans-Bold-73" x="702.880859"/>
    </g>
   </g>
   <g id="text_9">
    <!-- 17 mins -->
    <g style="fill: #586069" transform="translate(248.726715 185.114765) scale(0.15 -0.15)">
     <defs>
      <path id="DejaVuSans-Bold-37" d="M 428 4666 
L 3944 4666 
L 3944 3988 
L 2125 0 
L 953 0 
L 2675 3781 
L 428 3781 
L 428 4666 
z
" transform="scale(0.015625)"/>
     </defs>
     <use xlink:href="#DejaVuSans-Bold-31"/>
     <use xlink:href="#DejaVuSans-Bold-37" x="69.580078"/>
     <use xlink:href="#DejaVuSans-Bold-20" x="139.160156"/>
     <use xlink:href="#DejaVuSans-Bold-6d" x="173.974609"/>
     <use xlink:href="#DejaVuSans-Bold-69" x="278.173828"/>
     <use xlink:href="#DejaVuSans-Bold-6e" x="312.451172"/>
     <use xlink:href="#DejaVuSans-Bold-73" x="383.642578"/>
    </g>
   </g>
   <g id="text_10">
    <!-- 11 mins -->
    <g style="fill: #586069" transform="translate(245.705177 234.48336) scale(0.15 -0.15)">
     <use xlink:href="#DejaVuSans-Bold-31"/>
     <use xlink:href="#DejaVuSans-Bold-31" x="69.580078"/>
     <use xlink:href="#DejaVuSans-Bold-20" x="139.160156"/>
     <use xlink:href="#DejaVuSans-Bold-6d" x="173.974609"/>
     <use xlink:href="#DejaVuSans-Bold-69" x="278.173828"/>
     <use xlink:href="#DejaVuSans-Bold-6e" x="312.451172"/>
     <use xlink:href="#DejaVuSans-Bold-73" x="383.642578"/>
    </g>
   </g>
   <g id="text_11">
    <!-- 10 mins -->
    <g style="fill: #586069" transform="translate(245.435397 283.851955) scale(0.15 -0.15)">
     <defs>
      <path id="DejaVuSans-Bold-30" d="M 2944 2338 
Q 2944 3213 2780 3570 
Q 2616 3928 2228 3928 
Q 1841 3928 1675 3570 
Q 1509 3213 1509 2338 
Q 1509 1453 1675 1090 
Q 1841 728 2228 728 
Q 2613 728 2778 1090 
Q 2944 1453 2944 2338 
z
M 4147 2328 
Q 4147 1169 3647 539 
Q 3147 -91 2228 -91 
Q 1306 -91 806 539 
Q 306 1169 306 2328 
Q 306 3491 806 4120 
Q 1306 4750 2228 4750 
Q 3147 4750 3647 4120 
Q 4147 3491 4147 2328 
z
" transform="scale(0.015625)"/>
     </defs>
     <use xlink:href="#DejaVuSans-Bold-31"/>
     <use xlink:href="#DejaVuSans-Bold-30" x="69.580078"/>
     <use xlink:href="#DejaVuSans-Bold-20" x="139.160156"/>
     <use xlink:href="#DejaVuSans-Bold-6d" x="173.974609"/>
     <use xlink:href="#DejaVuSans-Bold-69" x="278.173828"/>
     <use xlink:href="#DejaVuSans-Bold-6e" x="312.451172"/>
     <use xlink:href="#DejaVuSans-Bold-73" x="383.642578"/>
    </g>
   </g>
   <g id="text_12">
    <!-- 8 mins -->
    <g style="fill: #586069" transform="translate(244.194409 333.22055) scale(0.15 -0.15)">
     <use xlink:href="#DejaVuSans-Bold-38"/>
     <use xlink:href="#DejaVuSans-Bold-20" x="69.580078"/>
     <use xlink:href="#DejaVuSans-Bold-6d" x="104.394531"/>
     <use xlink:href="#DejaVuSans-Bold-69" x="208.59375"/>
     <use xlink:href="#DejaVuSans-Bold-6e" x="242.871094"/>
     <use xlink:href="#DejaVuSans-Bold-73" x="314.0625"/>
    </g>
   </g>
   <g id="text_13">
    <!-- Projects touched : -->
    <g style="fill: #2a475e" transform="translate(406.120031 50.32) scale(0.12 -0.12)">
     <defs>
      <path id="DejaVuSans-Bold-6a" d="M 538 3500 
L 1656 3500 
L 1656 63 
Q 1656 -641 1318 -1011 
Q 981 -1381 341 -1381 
L -213 -1381 
L -213 -647 
L -19 -647 
Q 300 -647 419 -503 
Q 538 -359 538 63 
L 538 3500 
z
M 538 4863 
L 1656 4863 
L 1656 3950 
L 538 3950 
L 538 4863 
z
" transform="scale(0.015625)"/>
      <path id="DejaVuSans-Bold-75" d="M 500 1363 
L 500 3500 
L 1625 3500 
L 1625 3150 
Q 1625 2866 1622 2436 
Q 1619 2006 1619 1863 
Q 1619 1441 1641 1255 
Q 1663 1069 1716 984 
Q 1784 875 1895 815 
Q 2006 756 2150 756 
Q 2500 756 2700 1025 
Q 2900 1294 2900 1772 
L 2900 3500 
L 4019 3500 
L 4019 0 
L 2900 0 
L 2900 506 
Q 2647 200 2364 54 
Q 2081 -91 1741 -91 
Q 1134 -91 817 281 
Q 500 653 500 1363 
z
" transform="scale(0.015625)"/>
      <path id="DejaVuSans-Bold-3a" d="M 716 3500 
L 1844 3500 
L 1844 2291 
L 716 2291 
L 716 3500 
z
M 716 1209 
L 1844 1209 
L 1844 0 
L 716 0 
L 716 1209 
z
" transform="scale(0.015625)"/>
     </defs>
     <use xlink:href="#DejaVuSans-Bold-50"/>
     <use xlink:href="#DejaVuSans-Bold-72" x="73.291016"/>
     <use xlink:href="#DejaVuSans-Bold-6f" x="122.607422"/>
     <use xlink:href="#DejaVuSans-Bold-6a" x="191.308594"/>
     <use xlink:href="#DejaVuSans-Bold-65" x="225.585938"/>
     <use xlink:href="#DejaVuSans-Bold-63" x="293.408203"/>
     <use xlink:href="#DejaVuSans-Bold-74" x="352.685547"/>
     <use xlink:href="#DejaVuSans-Bold-73" x="400.488281"/>
     <use xlink:href="#DejaVuSans-Bold-20" x="460.009766"/>
     <use xlink:href="#DejaVuSans-Bold-74" x="494.824219"/>
     <use xlink:href="#DejaVuSans-Bold-6f" x="542.626953"/>
     <use xlink:href="#DejaVuSans-Bold-75" x="611.328125"/>
     <use xlink:href="#DejaVuSans-Bold-63" x="682.519531"/>
     <use xlink:href="#DejaVuSans-Bold-68" x="741.796875"/>
     <use xlink:href="#DejaVuSans-Bold-65" x="812.988281"/>
     <use xlink:href="#DejaVuSans-Bold-64" x="880.810547"/>
     <use xlink:href="#DejaVuSans-Bold-20" x="952.392578"/>
     <use xlink:href="#DejaVuSans-Bold-3a" x="987.207031"/>
    </g>
   </g>
  </g>
  <g id="axes_2">
   <g id="patch_11">
    <path d="M 862.870383 169.24476 
L 891.555524 178.00631 
" style="fill: none; stroke: #000000; stroke-linecap: round"/>
   </g>
   <g id="text_14">
    <g id="patch_12">
     <path d="M 805.48997 177.218035 
L 860.598095 177.218035 
L 860.598095 158.310535 
L 805.48997 158.310535 
z
" style="fill: #ffffff; stroke: #000000; stroke-width: 0.72; stroke-linejoin: miter"/>
    </g>
    <!-- Python -->
    <g style="fill: #2a475e" transform="translate(809.08997 171.02866) scale(0.12 -0.12)">
     <defs>
      <path id="DejaVuSans-Bold-79" d="M 78 3500 
L 1197 3500 
L 2138 1125 
L 2938 3500 
L 4056 3500 
L 2584 -331 
Q 2363 -916 2067 -1148 
Q 1772 -1381 1288 -1381 
L 641 -1381 
L 641 -647 
L 991 -647 
Q 1275 -647 1404 -556 
Q 1534 -466 1606 -231 
L 1638 -134 
L 78 3500 
z
" transform="scale(0.015625)"/>
     </defs>
     <use xlink:href="#DejaVuSans-Bold-50"/>
     <use xlink:href="#DejaVuSans-Bold-79" x="75.166016"/>
     <use xlink:href="#DejaVuSans-Bold-74" x="140.351562"/>
     <use xlink:href="#DejaVuSans-Bold-68" x="188.154297"/>
     <use xlink:href="#DejaVuSans-Bold-6f" x="259.345703"/>
     <use xlink:href="#DejaVuSans-Bold-6e" x="328.046875"/>
    </g>
   </g>
   <g id="patch_13">
    <path d="M 1101.230821 268.26392 
L 1095.716048 268.26392 
L 1065.007912 251.344354 
" style="fill: none; stroke: #000000; stroke-linecap: round"/>
   </g>
   <g id="text_15">
    <g id="patch_14">
     <path d="M 1103.588233 277.670795 
L 1144.138858 277.670795 
L 1144.138858 258.857045 
L 1103.588233 258.857045 
z
" style="fill: #ffffff; stroke: #000000; stroke-width: 0.72; stroke-linejoin: miter"/>
    </g>
    <!-- JSON -->
    <g style="fill: #2a475e" transform="translate(1107.188233 271.57517) scale(0.12 -0.12)">
     <defs>
      <path id="DejaVuSans-Bold-4a" d="M 588 4666 
L 1791 4666 
L 1791 453 
Q 1791 -419 1317 -850 
Q 844 -1281 -116 -1281 
L -359 -1281 
L -359 -372 
L -172 -372 
Q 203 -372 395 -162 
Q 588 47 588 453 
L 588 4666 
z
" transform="scale(0.015625)"/>
      <path id="DejaVuSans-Bold-4f" d="M 2719 3878 
Q 2169 3878 1866 3472 
Q 1563 3066 1563 2328 
Q 1563 1594 1866 1187 
Q 2169 781 2719 781 
Q 3272 781 3575 1187 
Q 3878 1594 3878 2328 
Q 3878 3066 3575 3472 
Q 3272 3878 2719 3878 
z
M 2719 4750 
Q 3844 4750 4481 4106 
Q 5119 3463 5119 2328 
Q 5119 1197 4481 553 
Q 3844 -91 2719 -91 
Q 1597 -91 958 553 
Q 319 1197 319 2328 
Q 319 3463 958 4106 
Q 1597 4750 2719 4750 
z
" transform="scale(0.015625)"/>
     </defs>
     <use xlink:href="#DejaVuSans-Bold-4a"/>
     <use xlink:href="#DejaVuSans-Bold-53" x="37.207031"/>
     <use xlink:href="#DejaVuSans-Bold-4f" x="109.228516"/>
     <use xlink:href="#DejaVuSans-Bold-4e" x="194.238281"/>
    </g>
   </g>
   <g id="patch_15">
    <path d="M 1101.243492 220.276564 
L 1076.053885 217.186474 
" style="fill: none; stroke: #000000; stroke-linecap: round"/>
   </g>
   <g id="text_16">
    <g id="patch_16">
     <path d="M 1103.588233 230.862657 
L 1149.325108 230.862657 
L 1149.325108 212.048907 
L 1103.588233 212.048907 
z
" style="fill: #ffffff; stroke: #000000; stroke-width: 0.72; stroke-linejoin: miter"/>
    </g>
    <!-- Other -->
    <g style="fill: #2a475e" transform="translate(1107.188233 224.767032) scale(0.12 -0.12)">
     <use xlink:href="#DejaVuSans-Bold-4f"/>
     <use xlink:href="#DejaVuSans-Bold-74" x="85.009766"/>
     <use xlink:href="#DejaVuSans-Bold-68" x="132.8125"/>
     <use xlink:href="#DejaVuSans-Bold-65" x="204.003906"/>
     <use xlink:href="#DejaVuSans-Bold-72" x="271.826172"/>
    </g>
   </g>
   <g id="patch_17">
    <path d="M 1101.238523 195.496996 
L 1076.414543 197.614464 
" style="fill: none; stroke: #000000; stroke-linecap: round"/>
   </g>
   <g id="text_17">
    <g id="patch_18">
     <path d="M 1103.588233 204.041204 
L 1151.533858 204.041204 
L 1151.533858 185.227454 
L 1103.588233 185.227454 
z
" style="fill: #ffffff; stroke: #000000; stroke-width: 0.72; stroke-linejoin: miter"/>
    </g>
    <!-- dosini -->
    <g style="fill: #2a475e" transform="translate(1107.188233 197.945579) scale(0.12 -0.12)">
     <use xlink:href="#DejaVuSans-Bold-64"/>
     <use xlink:href="#DejaVuSans-Bold-6f" x="71.582031"/>
     <use xlink:href="#DejaVuSans-Bold-73" x="140.283203"/>
     <use xlink:href="#DejaVuSans-Bold-69" x="199.804688"/>
     <use xlink:href="#DejaVuSans-Bold-6e" x="234.082031"/>
     <use xlink:href="#DejaVuSans-Bold-69" x="305.273438"/>
    </g>
   </g>
   <g id="patch_19">
    <path d="M 1071.495157 191.422497 
C 1069.700496 181.244472 1066.215628 171.438039 1061.185093 162.409932 
C 1056.154557 153.381826 1049.648878 145.258613 1041.937888 138.377216 
C 1034.226898 131.495819 1025.418698 125.95271 1015.878622 121.977796 
C 1006.338545 118.002882 996.200337 115.65189 985.884492 115.022328 
C 975.568648 114.392767 965.219788 115.493464 955.267145 118.278765 
C 945.314503 121.064066 935.897606 125.494924 927.407035 131.387563 
C 918.916463 137.280202 911.471248 144.552011 905.38019 152.901383 
C 899.289132 161.250754 894.637623 170.560636 891.618591 180.444888 
C 888.599558 190.329141 887.255327 200.649193 887.641651 210.977007 
C 888.027976 221.304822 890.139439 231.49561 893.888465 241.126695 
C 897.637492 250.75778 902.971523 259.694141 909.669323 267.56513 
C 916.367123 275.436119 924.334793 282.131391 933.241864 287.373251 
C 942.148935 292.615111 951.870535 296.33007 962.003448 298.364047 
C 972.136362 300.398025 982.538532 300.722504 992.778515 299.324028 
C 1003.018499 297.925552 1012.952738 294.823725 1022.169197 290.147201 
C 1031.385656 285.470677 1039.755127 279.285016 1046.930475 271.846778 
L 1013.585189 239.680019 
C 1009.997515 243.399138 1005.81278 246.491969 1001.20455 248.830231 
C 996.596321 251.168493 991.629201 252.719406 986.50921 253.418644 
C 981.389218 254.117882 976.188133 253.955642 971.121676 252.938654 
C 966.055219 251.921665 961.194419 250.064185 956.740884 247.443256 
C 952.287349 244.822326 948.303513 241.47469 944.954613 237.539195 
C 941.605714 233.6037 938.938698 229.13552 937.064185 224.319977 
C 935.189671 219.504435 934.13394 214.409041 933.940778 209.245134 
C 933.747615 204.081227 934.419731 198.9212 935.929247 193.979074 
C 937.438763 189.036948 939.764518 184.382007 942.810047 180.207321 
C 945.855576 176.032636 949.578183 172.396731 953.823469 169.450411 
C 958.068755 166.504092 962.777203 164.288663 967.753524 162.896013 
C 972.729846 161.503362 977.904276 160.953014 983.062198 161.267794 
C 988.22012 161.582575 993.289225 162.758071 998.059263 164.745528 
C 1002.829301 166.732985 1007.233401 169.50454 1011.088896 172.945238 
C 1014.944391 176.385937 1018.19723 180.447543 1020.712498 184.961596 
C 1023.227766 189.47565 1024.9702 194.378866 1025.86753 199.467879 
z
" style="fill: #092436; opacity: 0.5; stroke: #092436; stroke-width: 4; stroke-linejoin: miter"/>
   </g>
   <g id="patch_20">
    <path d="M 1055.046397 276.318484 
C 1060.711979 270.445325 1065.576982 263.849402 1069.515029 256.702054 
C 1073.453076 249.554705 1076.429765 241.91836 1078.367776 233.991387 
L 1033.3618 222.988178 
C 1032.392794 226.951664 1030.90445 230.769837 1028.935426 234.343511 
C 1026.966403 237.917185 1024.533902 241.215147 1021.70111 244.151726 
z
" style="fill: #4d2604; opacity: 0.5; stroke: #4d2604; stroke-width: 4; stroke-linejoin: miter"/>
   </g>
   <g id="patch_21">
    <path d="M 1079.449211 230.647945 
C 1080.312971 227.114952 1080.967972 223.53417 1081.410817 219.924184 
C 1081.853663 216.314199 1082.083592 212.681269 1082.099399 209.044256 
L 1035.768329 208.842891 
C 1035.760426 210.661397 1035.645461 212.477862 1035.424038 214.282855 
C 1035.202616 216.087848 1034.875115 217.878239 1034.443235 219.644735 
z
" style="fill: #0d300d; opacity: 0.5; stroke: #0d300d; stroke-width: 4; stroke-linejoin: miter"/>
   </g>
   <g id="patch_22">
    <path d="M 1082.134817 207.128443 
C 1082.146824 204.365427 1082.035245 201.603277 1081.800412 198.850233 
C 1081.565579 196.097188 1081.207724 193.356001 1080.727928 190.634937 
L 1035.100303 198.680324 
C 1035.3402 200.040857 1035.519128 201.41145 1035.636545 202.787973 
C 1035.753961 204.164495 1035.809751 205.545569 1035.803747 206.927077 
z
" style="fill: #400c0c; opacity: 0.5; stroke: #400c0c; stroke-width: 4; stroke-linejoin: miter"/>
   </g>
   <g id="patch_23">
    <path d="M 1073.348417 189.569237 
C 1071.553756 179.391212 1068.068889 169.584779 1063.038353 160.556672 
C 1058.007817 151.528565 1051.502139 143.405353 1043.791148 136.523956 
C 1036.080158 129.642559 1027.271958 124.09945 1017.731882 120.124536 
C 1008.191806 116.149622 998.053597 113.798629 987.737753 113.169068 
C 977.421908 112.539507 967.073048 113.640203 957.120405 116.425505 
C 947.167763 119.210806 937.750866 123.641664 929.260295 129.534302 
C 920.769724 135.426941 913.324509 142.698751 907.233451 151.048122 
C 901.142392 159.397494 896.490883 168.707376 893.471851 178.591628 
C 890.452819 188.47588 889.108588 198.795933 889.494912 209.123747 
C 889.881236 219.451562 891.992699 229.64235 895.741726 239.273434 
C 899.490752 248.904519 904.824784 257.84088 911.522584 265.71187 
C 918.220384 273.582859 926.188054 280.278131 935.095124 285.519991 
C 944.002195 290.76185 953.723795 294.47681 963.856708 296.510787 
C 973.989622 298.544764 984.391792 298.869244 994.631776 297.470768 
C 1004.871759 296.072291 1014.805998 292.970465 1024.022458 288.293941 
C 1033.238917 283.617417 1041.608388 277.431756 1048.783735 269.993518 
L 1015.438449 237.826759 
C 1011.850776 241.545878 1007.66604 244.638708 1003.057811 246.97697 
C 998.449581 249.315232 993.482462 250.866146 988.36247 251.565384 
C 983.242478 252.264622 978.041393 252.102382 972.974936 251.085394 
C 967.908479 250.068405 963.047679 248.210925 958.594144 245.589995 
C 954.140609 242.969066 950.156774 239.62143 946.807874 235.685935 
C 943.458974 231.75044 940.791958 227.28226 938.917445 222.466717 
C 937.042931 217.651175 935.9872 212.555781 935.794038 207.391874 
C 935.600876 202.227966 936.272991 197.06794 937.782507 192.125814 
C 939.292024 187.183688 941.617778 182.528747 944.663307 178.354061 
C 947.708836 174.179375 951.431444 170.543471 955.676729 167.597151 
C 959.922015 164.650832 964.630463 162.435403 969.606785 161.042752 
C 974.583106 159.650102 979.757536 159.099754 984.915458 159.414534 
C 990.073381 159.729315 995.142485 160.904811 999.912523 162.892268 
C 1004.682561 164.879725 1009.086661 167.65128 1012.942156 171.091978 
C 1016.797651 174.532676 1020.050491 178.594283 1022.565758 183.108336 
C 1025.081026 187.622389 1026.82346 192.525606 1027.72079 197.614618 
z
" style="fill: #1f77b4; stroke: #ffffff; stroke-width: 4; stroke-linejoin: miter"/>
   </g>
   <g id="patch_24">
    <path d="M 1056.899657 274.465224 
C 1062.56524 268.592065 1067.430242 261.996142 1071.368289 254.848794 
C 1075.306336 247.701445 1078.283025 240.065099 1080.221036 232.138127 
L 1035.21506 221.134918 
C 1034.246055 225.098404 1032.75771 228.916577 1030.788687 232.490251 
C 1028.819663 236.063925 1026.387162 239.361887 1023.554371 242.298466 
z
" style="fill: #ff7f0e; stroke: #ffffff; stroke-width: 4; stroke-linejoin: miter"/>
   </g>
   <g id="patch_25">
    <path d="M 1081.302472 228.794684 
C 1082.166231 225.261692 1082.821232 221.68091 1083.264078 218.070924 
C 1083.706924 214.460939 1083.936852 210.828009 1083.952659 207.190996 
L 1037.62159 206.989631 
C 1037.613686 208.808137 1037.498722 210.624602 1037.277299 212.429595 
C 1037.055876 214.234588 1036.728375 216.024979 1036.296496 217.791475 
z
" style="fill: #2ca02c; stroke: #ffffff; stroke-width: 4; stroke-linejoin: miter"/>
   </g>
   <g id="patch_26">
    <path d="M 1083.988077 205.275182 
C 1084.000084 202.512166 1083.888506 199.750017 1083.653673 196.996973 
C 1083.41884 194.243928 1083.060984 191.502741 1082.581188 188.781676 
L 1036.953563 196.827064 
C 1037.193461 198.187597 1037.372388 199.55819 1037.489805 200.934712 
C 1037.607222 202.311235 1037.663011 203.692309 1037.657007 205.073817 
z
" style="fill: #d62728; stroke: #ffffff; stroke-width: 4; stroke-linejoin: miter"/>
   </g>
   <g id="matplotlib.axis_3"/>
   <g id="matplotlib.axis_4"/>
   <g id="text_18">
    <!-- Languages -->
    <g style="fill: #2a475e" transform="translate(951.515039 208.34125) scale(0.1 -0.1)">
     <defs>
      <path id="DejaVuSans-Bold-4c" d="M 588 4666 
L 1791 4666 
L 1791 909 
L 3903 909 
L 3903 0 
L 588 0 
L 588 4666 
z
" transform="scale(0.015625)"/>
     </defs>
     <use xlink:href="#DejaVuSans-Bold-4c"/>
     <use xlink:href="#DejaVuSans-Bold-61" x="63.720703"/>
     <use xlink:href="#DejaVuSans-Bold-6e" x="131.201172"/>
     <use xlink:href="#DejaVuSans-Bold-67" x="202.392578"/>
     <use xlink:href="#DejaVuSans-Bold-75" x="273.974609"/>
     <use xlink:href="#DejaVuSans-Bold-61" x="345.166016"/>
     <use xlink:href="#DejaVuSans-Bold-67" x="412.646484"/>
     <use xlink:href="#DejaVuSans-Bold-65" x="484.228516"/>
     <use xlink:href="#DejaVuSans-Bold-73" x="552.050781"/>
    </g>
   </g>
   <g id="text_19">
    <!-- Languages exploited : -->
    <g style="fill: #2a475e" transform="translate(907.120351 83.831235) scale(0.12 -0.12)">
     <defs>
      <path id="DejaVuSans-Bold-78" d="M 1422 1791 
L 159 3500 
L 1344 3500 
L 2059 2463 
L 2784 3500 
L 3969 3500 
L 2706 1797 
L 4031 0 
L 2847 0 
L 2059 1106 
L 1281 0 
L 97 0 
L 1422 1791 
z
" transform="scale(0.015625)"/>
     </defs>
     <use xlink:href="#DejaVuSans-Bold-4c"/>
     <use xlink:href="#DejaVuSans-Bold-61" x="63.720703"/>
     <use xlink:href="#DejaVuSans-Bold-6e" x="131.201172"/>
     <use xlink:href="#DejaVuSans-Bold-67" x="202.392578"/>
     <use xlink:href="#DejaVuSans-Bold-75" x="273.974609"/>
     <use xlink:href="#DejaVuSans-Bold-61" x="345.166016"/>
     <use xlink:href="#DejaVuSans-Bold-67" x="412.646484"/>
     <use xlink:href="#DejaVuSans-Bold-65" x="484.228516"/>
     <use xlink:href="#DejaVuSans-Bold-73" x="552.050781"/>
     <use xlink:href="#DejaVuSans-Bold-20" x="611.572266"/>
     <use xlink:href="#DejaVuSans-Bold-65" x="646.386719"/>
     <use xlink:href="#DejaVuSans-Bold-78" x="714.208984"/>
     <use xlink:href="#DejaVuSans-Bold-70" x="778.710938"/>
     <use xlink:href="#DejaVuSans-Bold-6c" x="850.292969"/>
     <use xlink:href="#DejaVuSans-Bold-6f" x="884.570312"/>
     <use xlink:href="#DejaVuSans-Bold-69" x="953.271484"/>
     <use xlink:href="#DejaVuSans-Bold-74" x="987.548828"/>
     <use xlink:href="#DejaVuSans-Bold-65" x="1035.351562"/>
     <use xlink:href="#DejaVuSans-Bold-64" x="1103.173828"/>
     <use xlink:href="#DejaVuSans-Bold-20" x="1174.755859"/>
     <use xlink:href="#DejaVuSans-Bold-3a" x="1209.570312"/>
    </g>
   </g>
  </g>
  <g id="text_20">
   <!-- From 19 January, 2025 to 26 January, 2025: 17 hrs 41 mins -->
   <g transform="translate(82.554688 29.995312) scale(0.3 -0.3)">
    <defs>
     <path id="DejaVuSans-Bold-46" d="M 588 4666 
L 3834 4666 
L 3834 3756 
L 1791 3756 
L 1791 2888 
L 3713 2888 
L 3713 1978 
L 1791 1978 
L 1791 0 
L 588 0 
L 588 4666 
z
" transform="scale(0.015625)"/>
     <path id="DejaVuSans-Bold-39" d="M 641 103 
L 641 966 
Q 928 831 1190 764 
Q 1453 697 1709 697 
Q 2247 697 2547 995 
Q 2847 1294 2900 1881 
Q 2688 1725 2447 1647 
Q 2206 1569 1925 1569 
Q 1209 1569 770 1986 
Q 331 2403 331 3084 
Q 331 3838 820 4291 
Q 1309 4744 2131 4744 
Q 3044 4744 3544 4128 
Q 4044 3513 4044 2388 
Q 4044 1231 3459 570 
Q 2875 -91 1856 -91 
Q 1528 -91 1228 -42 
Q 928 6 641 103 
z
M 2125 2350 
Q 2441 2350 2600 2554 
Q 2759 2759 2759 3169 
Q 2759 3575 2600 3781 
Q 2441 3988 2125 3988 
Q 1809 3988 1650 3781 
Q 1491 3575 1491 3169 
Q 1491 2759 1650 2554 
Q 1809 2350 2125 2350 
z
" transform="scale(0.015625)"/>
     <path id="DejaVuSans-Bold-2c" d="M 653 1209 
L 1778 1209 
L 1778 256 
L 1006 -909 
L 341 -909 
L 653 256 
L 653 1209 
z
" transform="scale(0.015625)"/>
     <path id="DejaVuSans-Bold-36" d="M 2316 2303 
Q 2000 2303 1842 2098 
Q 1684 1894 1684 1484 
Q 1684 1075 1842 870 
Q 2000 666 2316 666 
Q 2634 666 2792 870 
Q 2950 1075 2950 1484 
Q 2950 1894 2792 2098 
Q 2634 2303 2316 2303 
z
M 3803 4544 
L 3803 3681 
Q 3506 3822 3243 3889 
Q 2981 3956 2731 3956 
Q 2194 3956 1894 3657 
Q 1594 3359 1544 2772 
Q 1750 2925 1990 3001 
Q 2231 3078 2516 3078 
Q 3231 3078 3670 2659 
Q 4109 2241 4109 1563 
Q 4109 813 3618 361 
Q 3128 -91 2303 -91 
Q 1394 -91 895 523 
Q 397 1138 397 2266 
Q 397 3422 980 4083 
Q 1563 4744 2578 4744 
Q 2900 4744 3203 4694 
Q 3506 4644 3803 4544 
z
" transform="scale(0.015625)"/>
    </defs>
    <use xlink:href="#DejaVuSans-Bold-46"/>
    <use xlink:href="#DejaVuSans-Bold-72" x="61.935547"/>
    <use xlink:href="#DejaVuSans-Bold-6f" x="111.251953"/>
    <use xlink:href="#DejaVuSans-Bold-6d" x="179.953125"/>
    <use xlink:href="#DejaVuSans-Bold-20" x="284.152344"/>
    <use xlink:href="#DejaVuSans-Bold-31" x="318.966797"/>
    <use xlink:href="#DejaVuSans-Bold-39" x="388.546875"/>
    <use xlink:href="#DejaVuSans-Bold-20" x="458.126953"/>
    <use xlink:href="#DejaVuSans-Bold-4a" x="492.941406"/>
    <use xlink:href="#DejaVuSans-Bold-61" x="530.148438"/>
    <use xlink:href="#DejaVuSans-Bold-6e" x="597.628906"/>
    <use xlink:href="#DejaVuSans-Bold-75" x="668.820312"/>
    <use xlink:href="#DejaVuSans-Bold-61" x="740.011719"/>
    <use xlink:href="#DejaVuSans-Bold-72" x="807.492188"/>
    <use xlink:href="#DejaVuSans-Bold-79" x="856.808594"/>
    <use xlink:href="#DejaVuSans-Bold-2c" x="914.244141"/>
    <use xlink:href="#DejaVuSans-Bold-20" x="952.232422"/>
    <use xlink:href="#DejaVuSans-Bold-32" x="987.046875"/>
    <use xlink:href="#DejaVuSans-Bold-30" x="1056.626953"/>
    <use xlink:href="#DejaVuSans-Bold-32" x="1126.207031"/>
    <use xlink:href="#DejaVuSans-Bold-35" x="1195.787109"/>
    <use xlink:href="#DejaVuSans-Bold-20" x="1265.367188"/>
    <use xlink:href="#DejaVuSans-Bold-74" x="1300.181641"/>
    <use xlink:href="#DejaVuSans-Bold-6f" x="1347.984375"/>
    <use xlink:href="#DejaVuSans-Bold-20" x="1416.685547"/>
    <use xlink:href="#DejaVuSans-Bold-32" x="1451.5"/>
    <use xlink:href="#DejaVuSans-Bold-36" x="1521.080078"/>
    <use xlink:href="#DejaVuSans-Bold-20" x="1590.660156"/>
    <use xlink:href="#DejaVuSans-Bold-4a" x="1625.474609"/>
    <use xlink:href="#DejaVuSans-Bold-61" x="1662.681641"/>
    <use xlink:href="#DejaVuSans-Bold-6e" x="1730.162109"/>
    <use xlink:href="#DejaVuSans-Bold-75" x="1801.353516"/>
    <use xlink:href="#DejaVuSans-Bold-61" x="1872.544922"/>
    <use xlink:href="#DejaVuSans-Bold-72" x="1940.025391"/>
    <use xlink:href="#DejaVuSans-Bold-79" x="1989.341797"/>
    <use xlink:href="#DejaVuSans-Bold-2c" x="2046.777344"/>
    <use xlink:href="#DejaVuSans-Bold-20" x="2084.765625"/>
    <use xlink:href="#DejaVuSans-Bold-32" x="2119.580078"/>
    <use xlink:href="#DejaVuSans-Bold-30" x="2189.160156"/>
    <use xlink:href="#DejaVuSans-Bold-32" x="2258.740234"/>
    <use xlink:href="#DejaVuSans-Bold-35" x="2328.320312"/>
    <use xlink:href="#DejaVuSans-Bold-3a" x="2397.900391"/>
    <use xlink:href="#DejaVuSans-Bold-20" x="2437.890625"/>
    <use xlink:href="#DejaVuSans-Bold-31" x="2472.705078"/>
    <use xlink:href="#DejaVuSans-Bold-37" x="2542.285156"/>
    <use xlink:href="#DejaVuSans-Bold-20" x="2611.865234"/>
    <use xlink:href="#DejaVuSans-Bold-68" x="2646.679688"/>
    <use xlink:href="#DejaVuSans-Bold-72" x="2717.871094"/>
    <use xlink:href="#DejaVuSans-Bold-73" x="2767.1875"/>
    <use xlink:href="#DejaVuSans-Bold-20" x="2826.708984"/>
    <use xlink:href="#DejaVuSans-Bold-34" x="2861.523438"/>
    <use xlink:href="#DejaVuSans-Bold-31" x="2931.103516"/>
    <use xlink:href="#DejaVuSans-Bold-20" x="3000.683594"/>
    <use xlink:href="#DejaVuSans-Bold-6d" x="3035.498047"/>
    <use xlink:href="#DejaVuSans-Bold-69" x="3139.697266"/>
    <use xlink:href="#DejaVuSans-Bold-6e" x="3173.974609"/>
    <use xlink:href="#DejaVuSans-Bold-73" x="3245.166016"/>
   </g>
  </g>
 </g>
 <defs>
  <clipPath id="p5ded330730">
   <rect x="236.09375" y="56.32" width="463.315061" height="298.68"/>
  </clipPath>
 </defs>
</svg>
