<?xml version="1.0" encoding="utf-8" standalone="no"?>
<!DOCTYPE svg PUBLIC "-//W3C//DTD SVG 1.1//EN"
  "http://www.w3.org/Graphics/SVG/1.1/DTD/svg11.dtd">
<svg xmlns:xlink="http://www.w3.org/1999/xlink" width="1152.951348pt" height="362.2pt" viewBox="0 0 1152.951348 362.2" xmlns="http://www.w3.org/2000/svg" version="1.1">
 <metadata>
  <rdf:RDF xmlns:dc="http://purl.org/dc/elements/1.1/" xmlns:cc="http://creativecommons.org/ns#" xmlns:rdf="http://www.w3.org/1999/02/22-rdf-syntax-ns#">
   <cc:Work>
    <dc:type rdf:resource="http://purl.org/dc/dcmitype/StillImage"/>
    <dc:date>2026-03-11T08:25:22.343287</dc:date>
    <dc:format>image/svg+xml</dc:format>
    <dc:creator>
     <cc:Agent>
      <dc:title>Matplotlib v3.9.1.post1, https://matplotlib.org/</dc:title>
     </cc:Agent>
    </dc:creator>
   </cc:Work>
  </rdf:RDF>
 </metadata>
 <defs>
  <style type="text/css">*{stroke-linejoin: round; stroke-linecap: butt}</style>
 </defs>
 <g id="figure_1">
  <g id="patch_1">
   <path d="M 0 362.2 
L 1152.951348 362.2 
L 1152.951348 0 
L 0 0 
L 0 362.2 
z
" style="fill: none"/>
  </g>
  <g id="axes_1">
   <g id="patch_2">
    <path d="M 124.31875 355 
L 735.308359 355 
L 735.308359 56.32 
L 124.31875 56.32 
L 124.31875 355 
z
" style="fill: none"/>
   </g>
   <g id="patch_3">
    <path d="M 124.31875 69.896364 
L 706.213615 69.896364 
L 706.213615 341.423636 
L 124.31875 341.423636 
z
" clip-path="url(#p9edd36ef1b)" style="fill: #6e5cbf; stroke: #6e5cbf; stroke-linejoin: miter"/>
   </g>
   <g id="matplotlib.axis_1"/>
   <g id="matplotlib.axis_2">
    <g id="ytick_1">
     <g id="line2d_1">
      <defs>
       <path id="mcc41c28a6f" d="M 0 0 
L -3.5 0 
" style="stroke: #000000; stroke-width: 0.8"/>
      </defs>
      <g>
       <use xlink:href="#mcc41c28a6f" x="124.31875" y="205.66" style="stroke: #000000; stroke-width: 0.8"/>
      </g>
     </g>
     <g id="text_1">
      <!-- Commitor -->
      <g style="fill: #586069" transform="translate(7.2 213.258437) scale(0.2 -0.2)">
       <defs>
        <path id="DejaVuSans-Bold-43" d="M 4288 256 
Q 3956 84 3597 -3 
Q 3238 -91 2847 -91 
Q 1681 -91 1000 561 
Q 319 1213 319 2328 
Q 319 3447 1000 4098 
Q 1681 4750 2847 4750 
Q 3238 4750 3597 4662 
Q 3956 4575 4288 4403 
L 4288 3438 
Q 3953 3666 3628 3772 
Q 3303 3878 2944 3878 
Q 2300 3878 1931 3465 
Q 1563 3053 1563 2328 
Q 1563 1606 1931 1193 
Q 2300 781 2944 781 
Q 3303 781 3628 887 
Q 3953 994 4288 1222 
L 4288 256 
z
" transform="scale(0.015625)"/>
        <path id="DejaVuSans-Bold-6f" d="M 2203 2784 
Q 1831 2784 1636 2517 
Q 1441 2250 1441 1747 
Q 1441 1244 1636 976 
Q 1831 709 2203 709 
Q 2569 709 2762 976 
Q 2956 1244 2956 1747 
Q 2956 2250 2762 2517 
Q 2569 2784 2203 2784 
z
M 2203 3584 
Q 3106 3584 3614 3096 
Q 4122 2609 4122 1747 
Q 4122 884 3614 396 
Q 3106 -91 2203 -91 
Q 1297 -91 786 396 
Q 275 884 275 1747 
Q 275 2609 786 3096 
Q 1297 3584 2203 3584 
z
" transform="scale(0.015625)"/>
        <path id="DejaVuSans-Bold-6d" d="M 3781 2919 
Q 3994 3244 4286 3414 
Q 4578 3584 4928 3584 
Q 5531 3584 5847 3212 
Q 6163 2841 6163 2131 
L 6163 0 
L 5038 0 
L 5038 1825 
Q 5041 1866 5042 1909 
Q 5044 1953 5044 2034 
Q 5044 2406 4934 2573 
Q 4825 2741 4581 2741 
Q 4263 2741 4089 2478 
Q 3916 2216 3909 1719 
L 3909 0 
L 2784 0 
L 2784 1825 
Q 2784 2406 2684 2573 
Q 2584 2741 2328 2741 
Q 2006 2741 1831 2477 
Q 1656 2213 1656 1722 
L 1656 0 
L 531 0 
L 531 3500 
L 1656 3500 
L 1656 2988 
Q 1863 3284 2130 3434 
Q 2397 3584 2719 3584 
Q 3081 3584 3359 3409 
Q 3638 3234 3781 2919 
z
" transform="scale(0.015625)"/>
        <path id="DejaVuSans-Bold-69" d="M 538 3500 
L 1656 3500 
L 1656 0 
L 538 0 
L 538 3500 
z
M 538 4863 
L 1656 4863 
L 1656 3950 
L 538 3950 
L 538 4863 
z
" transform="scale(0.015625)"/>
        <path id="DejaVuSans-Bold-74" d="M 1759 4494 
L 1759 3500 
L 2913 3500 
L 2913 2700 
L 1759 2700 
L 1759 1216 
Q 1759 972 1856 886 
Q 1953 800 2241 800 
L 2816 800 
L 2816 0 
L 1856 0 
Q 1194 0 917 276 
Q 641 553 641 1216 
L 641 2700 
L 84 2700 
L 84 3500 
L 641 3500 
L 641 4494 
L 1759 4494 
z
" transform="scale(0.015625)"/>
        <path id="DejaVuSans-Bold-72" d="M 3138 2547 
Q 2991 2616 2845 2648 
Q 2700 2681 2553 2681 
Q 2122 2681 1889 2404 
Q 1656 2128 1656 1613 
L 1656 0 
L 538 0 
L 538 3500 
L 1656 3500 
L 1656 2925 
Q 1872 3269 2151 3426 
Q 2431 3584 2822 3584 
Q 2878 3584 2943 3579 
Q 3009 3575 3134 3559 
L 3138 2547 
z
" transform="scale(0.015625)"/>
       </defs>
       <use xlink:href="#DejaVuSans-Bold-43"/>
       <use xlink:href="#DejaVuSans-Bold-6f" x="73.388672"/>
       <use xlink:href="#DejaVuSans-Bold-6d" x="142.089844"/>
       <use xlink:href="#DejaVuSans-Bold-6d" x="246.289062"/>
       <use xlink:href="#DejaVuSans-Bold-69" x="350.488281"/>
       <use xlink:href="#DejaVuSans-Bold-74" x="384.765625"/>
       <use xlink:href="#DejaVuSans-Bold-6f" x="432.568359"/>
       <use xlink:href="#DejaVuSans-Bold-72" x="501.269531"/>
      </g>
     </g>
    </g>
   </g>
   <g id="patch_4">
    <path d="M 124.31875 355 
L 124.31875 56.32 
" style="fill: none; stroke: #000000; stroke-width: 0.8; stroke-linejoin: miter; stroke-linecap: square"/>
   </g>
   <g id="patch_5">
    <path d="M 124.31875 355 
L 735.308359 355 
" style="fill: none; stroke: #000000; stroke-width: 0.8; stroke-linejoin: miter; stroke-linecap: square"/>
   </g>
   <g id="text_2">
    <!-- 41 mins -->
    <g style="fill: #586069" transform="translate(710.213615 209.799062) scale(0.15 -0.15)">
     <defs>
      <path id="DejaVuSans-Bold-34" d="M 2356 3675 
L 1038 1722 
L 2356 1722 
L 2356 3675 
z
M 2156 4666 
L 3494 4666 
L 3494 1722 
L 4159 1722 
L 4159 850 
L 3494 850 
L 3494 0 
L 2356 0 
L 2356 850 
L 288 850 
L 288 1881 
L 2156 4666 
z
" transform="scale(0.015625)"/>
      <path id="DejaVuSans-Bold-31" d="M 750 831 
L 1813 831 
L 1813 3847 
L 722 3622 
L 722 4441 
L 1806 4666 
L 2950 4666 
L 2950 831 
L 4013 831 
L 4013 0 
L 750 0 
L 750 831 
z
" transform="scale(0.015625)"/>
      <path id="DejaVuSans-Bold-20" transform="scale(0.015625)"/>
      <path id="DejaVuSans-Bold-6e" d="M 4056 2131 
L 4056 0 
L 2931 0 
L 2931 347 
L 2931 1631 
Q 2931 2084 2911 2256 
Q 2891 2428 2841 2509 
Q 2775 2619 2662 2680 
Q 2550 2741 2406 2741 
Q 2056 2741 1856 2470 
Q 1656 2200 1656 1722 
L 1656 0 
L 538 0 
L 538 3500 
L 1656 3500 
L 1656 2988 
Q 1909 3294 2193 3439 
Q 2478 3584 2822 3584 
Q 3428 3584 3742 3212 
Q 4056 2841 4056 2131 
z
" transform="scale(0.015625)"/>
      <path id="DejaVuSans-Bold-73" d="M 3272 3391 
L 3272 2541 
Q 2913 2691 2578 2766 
Q 2244 2841 1947 2841 
Q 1628 2841 1473 2761 
Q 1319 2681 1319 2516 
Q 1319 2381 1436 2309 
Q 1553 2238 1856 2203 
L 2053 2175 
Q 2913 2066 3209 1816 
Q 3506 1566 3506 1031 
Q 3506 472 3093 190 
Q 2681 -91 1863 -91 
Q 1516 -91 1145 -36 
Q 775 19 384 128 
L 384 978 
Q 719 816 1070 734 
Q 1422 653 1784 653 
Q 2113 653 2278 743 
Q 2444 834 2444 1013 
Q 2444 1163 2330 1236 
Q 2216 1309 1875 1350 
L 1678 1375 
Q 931 1469 631 1722 
Q 331 1975 331 2491 
Q 331 3047 712 3315 
Q 1094 3584 1881 3584 
Q 2191 3584 2531 3537 
Q 2872 3491 3272 3391 
z
" transform="scale(0.015625)"/>
     </defs>
     <use xlink:href="#DejaVuSans-Bold-34"/>
     <use xlink:href="#DejaVuSans-Bold-31" x="69.580078"/>
     <use xlink:href="#DejaVuSans-Bold-20" x="139.160156"/>
     <use xlink:href="#DejaVuSans-Bold-6d" x="173.974609"/>
     <use xlink:href="#DejaVuSans-Bold-69" x="278.173828"/>
     <use xlink:href="#DejaVuSans-Bold-6e" x="312.451172"/>
     <use xlink:href="#DejaVuSans-Bold-73" x="383.642578"/>
    </g>
   </g>
   <g id="text_3">
    <!-- Projects touched : -->
    <g style="fill: #2a475e" transform="translate(368.182304 50.32) scale(0.12 -0.12)">
     <defs>
      <path id="DejaVuSans-Bold-50" d="M 588 4666 
L 2584 4666 
Q 3475 4666 3951 4270 
Q 4428 3875 4428 3144 
Q 4428 2409 3951 2014 
Q 3475 1619 2584 1619 
L 1791 1619 
L 1791 0 
L 588 0 
L 588 4666 
z
M 1791 3794 
L 1791 2491 
L 2456 2491 
Q 2806 2491 2997 2661 
Q 3188 2831 3188 3144 
Q 3188 3456 2997 3625 
Q 2806 3794 2456 3794 
L 1791 3794 
z
" transform="scale(0.015625)"/>
      <path id="DejaVuSans-Bold-6a" d="M 538 3500 
L 1656 3500 
L 1656 63 
Q 1656 -641 1318 -1011 
Q 981 -1381 341 -1381 
L -213 -1381 
L -213 -647 
L -19 -647 
Q 300 -647 419 -503 
Q 538 -359 538 63 
L 538 3500 
z
M 538 4863 
L 1656 4863 
L 1656 3950 
L 538 3950 
L 538 4863 
z
" transform="scale(0.015625)"/>
      <path id="DejaVuSans-Bold-65" d="M 4031 1759 
L 4031 1441 
L 1416 1441 
Q 1456 1047 1700 850 
Q 1944 653 2381 653 
Q 2734 653 3104 758 
Q 3475 863 3866 1075 
L 3866 213 
Q 3469 63 3072 -14 
Q 2675 -91 2278 -91 
Q 1328 -91 801 392 
Q 275 875 275 1747 
Q 275 2603 792 3093 
Q 1309 3584 2216 3584 
Q 3041 3584 3536 3087 
Q 4031 2591 4031 1759 
z
M 2881 2131 
Q 2881 2450 2695 2645 
Q 2509 2841 2209 2841 
Q 1884 2841 1681 2658 
Q 1478 2475 1428 2131 
L 2881 2131 
z
" transform="scale(0.015625)"/>
      <path id="DejaVuSans-Bold-63" d="M 3366 3391 
L 3366 2478 
Q 3138 2634 2908 2709 
Q 2678 2784 2431 2784 
Q 1963 2784 1702 2511 
Q 1441 2238 1441 1747 
Q 1441 1256 1702 982 
Q 1963 709 2431 709 
Q 2694 709 2930 787 
Q 3166 866 3366 1019 
L 3366 103 
Q 3103 6 2833 -42 
Q 2563 -91 2291 -91 
Q 1344 -91 809 395 
Q 275 881 275 1747 
Q 275 2613 809 3098 
Q 1344 3584 2291 3584 
Q 2566 3584 2833 3536 
Q 3100 3488 3366 3391 
z
" transform="scale(0.015625)"/>
      <path id="DejaVuSans-Bold-75" d="M 500 1363 
L 500 3500 
L 1625 3500 
L 1625 3150 
Q 1625 2866 1622 2436 
Q 1619 2006 1619 1863 
Q 1619 1441 1641 1255 
Q 1663 1069 1716 984 
Q 1784 875 1895 815 
Q 2006 756 2150 756 
Q 2500 756 2700 1025 
Q 2900 1294 2900 1772 
L 2900 3500 
L 4019 3500 
L 4019 0 
L 2900 0 
L 2900 506 
Q 2647 200 2364 54 
Q 2081 -91 1741 -91 
Q 1134 -91 817 281 
Q 500 653 500 1363 
z
" transform="scale(0.015625)"/>
      <path id="DejaVuSans-Bold-68" d="M 4056 2131 
L 4056 0 
L 2931 0 
L 2931 347 
L 2931 1625 
Q 2931 2084 2911 2256 
Q 2891 2428 2841 2509 
Q 2775 2619 2662 2680 
Q 2550 2741 2406 2741 
Q 2056 2741 1856 2470 
Q 1656 2200 1656 1722 
L 1656 0 
L 538 0 
L 538 4863 
L 1656 4863 
L 1656 2988 
Q 1909 3294 2193 3439 
Q 2478 3584 2822 3584 
Q 3428 3584 3742 3212 
Q 4056 2841 4056 2131 
z
" transform="scale(0.015625)"/>
      <path id="DejaVuSans-Bold-64" d="M 2919 2988 
L 2919 4863 
L 4044 4863 
L 4044 0 
L 2919 0 
L 2919 506 
Q 2688 197 2409 53 
Q 2131 -91 1766 -91 
Q 1119 -91 703 423 
Q 288 938 288 1747 
Q 288 2556 703 3070 
Q 1119 3584 1766 3584 
Q 2128 3584 2408 3439 
Q 2688 3294 2919 2988 
z
M 2181 722 
Q 2541 722 2730 984 
Q 2919 1247 2919 1747 
Q 2919 2247 2730 2509 
Q 2541 2772 2181 2772 
Q 1825 2772 1636 2509 
Q 1447 2247 1447 1747 
Q 1447 1247 1636 984 
Q 1825 722 2181 722 
z
" transform="scale(0.015625)"/>
      <path id="DejaVuSans-Bold-3a" d="M 716 3500 
L 1844 3500 
L 1844 2291 
L 716 2291 
L 716 3500 
z
M 716 1209 
L 1844 1209 
L 1844 0 
L 716 0 
L 716 1209 
z
" transform="scale(0.015625)"/>
     </defs>
     <use xlink:href="#DejaVuSans-Bold-50"/>
     <use xlink:href="#DejaVuSans-Bold-72" x="73.291016"/>
     <use xlink:href="#DejaVuSans-Bold-6f" x="122.607422"/>
     <use xlink:href="#DejaVuSans-Bold-6a" x="191.308594"/>
     <use xlink:href="#DejaVuSans-Bold-65" x="225.585938"/>
     <use xlink:href="#DejaVuSans-Bold-63" x="293.408203"/>
     <use xlink:href="#DejaVuSans-Bold-74" x="352.685547"/>
     <use xlink:href="#DejaVuSans-Bold-73" x="400.488281"/>
     <use xlink:href="#DejaVuSans-Bold-20" x="460.009766"/>
     <use xlink:href="#DejaVuSans-Bold-74" x="494.824219"/>
     <use xlink:href="#DejaVuSans-Bold-6f" x="542.626953"/>
     <use xlink:href="#DejaVuSans-Bold-75" x="611.328125"/>
     <use xlink:href="#DejaVuSans-Bold-63" x="682.519531"/>
     <use xlink:href="#DejaVuSans-Bold-68" x="741.796875"/>
     <use xlink:href="#DejaVuSans-Bold-65" x="812.988281"/>
     <use xlink:href="#DejaVuSans-Bold-64" x="880.810547"/>
     <use xlink:href="#DejaVuSans-Bold-20" x="952.392578"/>
     <use xlink:href="#DejaVuSans-Bold-3a" x="987.207031"/>
    </g>
   </g>
  </g>
  <g id="axes_2">
   <g id="patch_6">
    <path d="M 841.053513 233.053786 
L 876.789277 226.752606 
" style="fill: none; stroke: #000000; stroke-linecap: round"/>
   </g>
   <g id="text_4">
    <g id="patch_7">
     <path d="M 783.61602 244.158293 
L 838.724145 244.158293 
L 838.724145 225.250793 
L 783.61602 225.250793 
z
" style="fill: #ffffff; stroke: #000000; stroke-width: 0.72; stroke-linejoin: miter"/>
    </g>
    <!-- Python -->
    <g style="fill: #2a475e" transform="translate(787.21602 237.968918) scale(0.12 -0.12)">
     <defs>
      <path id="DejaVuSans-Bold-79" d="M 78 3500 
L 1197 3500 
L 2138 1125 
L 2938 3500 
L 4056 3500 
L 2584 -331 
Q 2363 -916 2067 -1148 
Q 1772 -1381 1288 -1381 
L 641 -1381 
L 641 -647 
L 991 -647 
Q 1275 -647 1404 -556 
Q 1534 -466 1606 -231 
L 1638 -134 
L 78 3500 
z
" transform="scale(0.015625)"/>
     </defs>
     <use xlink:href="#DejaVuSans-Bold-50"/>
     <use xlink:href="#DejaVuSans-Bold-79" x="75.166016"/>
     <use xlink:href="#DejaVuSans-Bold-74" x="140.351562"/>
     <use xlink:href="#DejaVuSans-Bold-68" x="188.154297"/>
     <use xlink:href="#DejaVuSans-Bold-6f" x="259.345703"/>
     <use xlink:href="#DejaVuSans-Bold-6e" x="328.046875"/>
    </g>
   </g>
   <g id="patch_8">
    <path d="M 1113.493908 208.04944 
C 1113.493908 192.360521 1110.403533 176.824156 1104.399643 162.329485 
C 1098.395754 147.834814 1089.59511 134.66372 1078.501369 123.569979 
C 1067.407628 112.476237 1054.236534 103.675594 1039.741863 97.671704 
C 1025.247191 91.667815 1009.710827 88.57744 994.021908 88.57744 
C 978.332989 88.57744 962.796624 91.667815 948.301953 97.671704 
C 933.807281 103.675594 920.636188 112.476237 909.542446 123.569979 
C 898.448705 134.66372 889.648062 147.834814 883.644172 162.329485 
C 877.640283 176.824156 874.549908 192.360521 874.549908 208.04944 
C 874.549908 223.738359 877.640283 239.274724 883.644172 253.769395 
C 889.648062 268.264066 898.448705 281.43516 909.542446 292.528901 
C 920.636188 303.622643 933.807281 312.423286 948.301953 318.427176 
C 962.796624 324.431065 978.332989 327.52144 994.021908 327.52144 
C 1009.710827 327.52144 1025.247191 324.431065 1039.741863 318.427176 
C 1054.236534 312.423286 1067.407628 303.622643 1078.501369 292.528901 
C 1089.59511 281.43516 1098.395754 268.264066 1104.399643 253.769395 
C 1110.403533 239.274724 1113.493908 223.738359 1113.493908 208.04944 
M 1053.757908 208.04944 
C 1053.757908 215.8939 1052.21272 223.662082 1049.210776 230.909418 
C 1046.208831 238.156753 1041.808509 244.7423 1036.261639 250.289171 
C 1030.714768 255.836041 1024.129221 260.236363 1016.881885 263.238308 
C 1009.63455 266.240252 1001.866367 267.78544 994.021908 267.78544 
C 986.177448 267.78544 978.409266 266.240252 971.16193 263.238308 
C 963.914595 260.236363 957.329048 255.836041 951.782177 250.289171 
C 946.235307 244.7423 941.834985 238.156753 938.83304 230.909418 
C 935.831095 223.662082 934.285908 215.8939 934.285908 208.04944 
C 934.285908 200.20498 935.831095 192.436798 938.83304 185.189462 
C 941.834985 177.942127 946.235307 171.35658 951.782177 165.809709 
C 957.329048 160.262839 963.914595 155.862517 971.16193 152.860572 
C 978.409266 149.858628 986.177448 148.31344 994.021908 148.31344 
C 1001.866367 148.31344 1009.63455 149.858628 1016.881885 152.860572 
C 1024.129221 155.862517 1030.714768 160.262839 1036.261639 165.809709 
C 1041.808509 171.35658 1046.208831 177.942127 1049.210776 185.189462 
C 1052.21272 192.436798 1053.757908 200.20498 1053.757908 208.04944 
z
" style="fill: #092436; opacity: 0.5; stroke: #092436; stroke-width: 4; stroke-linejoin: miter"/>
   </g>
   <g id="patch_9">
    <path d="M 1115.883348 205.66 
C 1115.883348 189.971081 1112.792973 174.434716 1106.789083 159.940045 
C 1100.785194 145.445374 1091.98455 132.27428 1080.890809 121.180539 
C 1069.797068 110.086797 1056.625974 101.286154 1042.131303 95.282264 
C 1027.636631 89.278375 1012.100267 86.188 996.411348 86.188 
C 980.722429 86.188 965.186064 89.278375 950.691393 95.282264 
C 936.196721 101.286154 923.025628 110.086797 911.931886 121.180539 
C 900.838145 132.27428 892.037502 145.445374 886.033612 159.940045 
C 880.029723 174.434716 876.939348 189.971081 876.939348 205.66 
C 876.939348 221.348919 880.029723 236.885284 886.033612 251.379955 
C 892.037502 265.874626 900.838145 279.04572 911.931886 290.139461 
C 923.025628 301.233203 936.196721 310.033846 950.691393 316.037736 
C 965.186064 322.041625 980.722429 325.132 996.411348 325.132 
C 1012.100267 325.132 1027.636631 322.041625 1042.131303 316.037736 
C 1056.625974 310.033846 1069.797068 301.233203 1080.890809 290.139461 
C 1091.98455 279.04572 1100.785194 265.874626 1106.789083 251.379955 
C 1112.792973 236.885284 1115.883348 221.348919 1115.883348 205.66 
M 1056.147348 205.66 
C 1056.147348 213.50446 1054.60216 221.272642 1051.600216 228.519978 
C 1048.598271 235.767313 1044.197949 242.35286 1038.651079 247.899731 
C 1033.104208 253.446601 1026.518661 257.846923 1019.271325 260.848868 
C 1012.02399 263.850812 1004.255807 265.396 996.411348 265.396 
C 988.566888 265.396 980.798706 263.850812 973.55137 260.848868 
C 966.304035 257.846923 959.718488 253.446601 954.171617 247.899731 
C 948.624747 242.35286 944.224425 235.767313 941.22248 228.519978 
C 938.220535 221.272642 936.675348 213.50446 936.675348 205.66 
C 936.675348 197.81554 938.220535 190.047358 941.22248 182.800022 
C 944.224425 175.552687 948.624747 168.96714 954.171617 163.420269 
C 959.718488 157.873399 966.304035 153.473077 973.55137 150.471132 
C 980.798706 147.469188 988.566888 145.924 996.411348 145.924 
C 1004.255807 145.924 1012.02399 147.469188 1019.271325 150.471132 
C 1026.518661 153.473077 1033.104208 157.873399 1038.651079 163.420269 
C 1044.197949 168.96714 1048.598271 175.552687 1051.600216 182.800022 
C 1054.60216 190.047358 1056.147348 197.81554 1056.147348 205.66 
z
" style="fill: #1f77b4; stroke: #ffffff; stroke-width: 4; stroke-linejoin: miter"/>
   </g>
   <g id="matplotlib.axis_3"/>
   <g id="matplotlib.axis_4"/>
   <g id="text_5">
    <!-- Languages -->
    <g style="fill: #2a475e" transform="translate(965.833223 208.34125) scale(0.1 -0.1)">
     <defs>
      <path id="DejaVuSans-Bold-4c" d="M 588 4666 
L 1791 4666 
L 1791 909 
L 3903 909 
L 3903 0 
L 588 0 
L 588 4666 
z
" transform="scale(0.015625)"/>
      <path id="DejaVuSans-Bold-61" d="M 2106 1575 
Q 1756 1575 1579 1456 
Q 1403 1338 1403 1106 
Q 1403 894 1545 773 
Q 1688 653 1941 653 
Q 2256 653 2472 879 
Q 2688 1106 2688 1447 
L 2688 1575 
L 2106 1575 
z
M 3816 1997 
L 3816 0 
L 2688 0 
L 2688 519 
Q 2463 200 2181 54 
Q 1900 -91 1497 -91 
Q 953 -91 614 226 
Q 275 544 275 1050 
Q 275 1666 698 1953 
Q 1122 2241 2028 2241 
L 2688 2241 
L 2688 2328 
Q 2688 2594 2478 2717 
Q 2269 2841 1825 2841 
Q 1466 2841 1156 2769 
Q 847 2697 581 2553 
L 581 3406 
Q 941 3494 1303 3539 
Q 1666 3584 2028 3584 
Q 2975 3584 3395 3211 
Q 3816 2838 3816 1997 
z
" transform="scale(0.015625)"/>
      <path id="DejaVuSans-Bold-67" d="M 2919 594 
Q 2688 288 2409 144 
Q 2131 0 1766 0 
Q 1125 0 706 504 
Q 288 1009 288 1791 
Q 288 2575 706 3076 
Q 1125 3578 1766 3578 
Q 2131 3578 2409 3434 
Q 2688 3291 2919 2981 
L 2919 3500 
L 4044 3500 
L 4044 353 
Q 4044 -491 3511 -936 
Q 2978 -1381 1966 -1381 
Q 1638 -1381 1331 -1331 
Q 1025 -1281 716 -1178 
L 716 -306 
Q 1009 -475 1290 -558 
Q 1572 -641 1856 -641 
Q 2406 -641 2662 -400 
Q 2919 -159 2919 353 
L 2919 594 
z
M 2181 2772 
Q 1834 2772 1640 2515 
Q 1447 2259 1447 1791 
Q 1447 1309 1634 1061 
Q 1822 813 2181 813 
Q 2531 813 2725 1069 
Q 2919 1325 2919 1791 
Q 2919 2259 2725 2515 
Q 2531 2772 2181 2772 
z
" transform="scale(0.015625)"/>
     </defs>
     <use xlink:href="#DejaVuSans-Bold-4c"/>
     <use xlink:href="#DejaVuSans-Bold-61" x="63.720703"/>
     <use xlink:href="#DejaVuSans-Bold-6e" x="131.201172"/>
     <use xlink:href="#DejaVuSans-Bold-67" x="202.392578"/>
     <use xlink:href="#DejaVuSans-Bold-75" x="273.974609"/>
     <use xlink:href="#DejaVuSans-Bold-61" x="345.166016"/>
     <use xlink:href="#DejaVuSans-Bold-67" x="412.646484"/>
     <use xlink:href="#DejaVuSans-Bold-65" x="484.228516"/>
     <use xlink:href="#DejaVuSans-Bold-73" x="552.050781"/>
    </g>
   </g>
   <g id="text_6">
    <!-- Languages exploited : -->
    <g style="fill: #2a475e" transform="translate(921.438535 50.32) scale(0.12 -0.12)">
     <defs>
      <path id="DejaVuSans-Bold-78" d="M 1422 1791 
L 159 3500 
L 1344 3500 
L 2059 2463 
L 2784 3500 
L 3969 3500 
L 2706 1797 
L 4031 0 
L 2847 0 
L 2059 1106 
L 1281 0 
L 97 0 
L 1422 1791 
z
" transform="scale(0.015625)"/>
      <path id="DejaVuSans-Bold-70" d="M 1656 506 
L 1656 -1331 
L 538 -1331 
L 538 3500 
L 1656 3500 
L 1656 2988 
Q 1888 3294 2169 3439 
Q 2450 3584 2816 3584 
Q 3463 3584 3878 3070 
Q 4294 2556 4294 1747 
Q 4294 938 3878 423 
Q 3463 -91 2816 -91 
Q 2450 -91 2169 54 
Q 1888 200 1656 506 
z
M 2400 2772 
Q 2041 2772 1848 2508 
Q 1656 2244 1656 1747 
Q 1656 1250 1848 986 
Q 2041 722 2400 722 
Q 2759 722 2948 984 
Q 3138 1247 3138 1747 
Q 3138 2247 2948 2509 
Q 2759 2772 2400 2772 
z
" transform="scale(0.015625)"/>
      <path id="DejaVuSans-Bold-6c" d="M 538 4863 
L 1656 4863 
L 1656 0 
L 538 0 
L 538 4863 
z
" transform="scale(0.015625)"/>
     </defs>
     <use xlink:href="#DejaVuSans-Bold-4c"/>
     <use xlink:href="#DejaVuSans-Bold-61" x="63.720703"/>
     <use xlink:href="#DejaVuSans-Bold-6e" x="131.201172"/>
     <use xlink:href="#DejaVuSans-Bold-67" x="202.392578"/>
     <use xlink:href="#DejaVuSans-Bold-75" x="273.974609"/>
     <use xlink:href="#DejaVuSans-Bold-61" x="345.166016"/>
     <use xlink:href="#DejaVuSans-Bold-67" x="412.646484"/>
     <use xlink:href="#DejaVuSans-Bold-65" x="484.228516"/>
     <use xlink:href="#DejaVuSans-Bold-73" x="552.050781"/>
     <use xlink:href="#DejaVuSans-Bold-20" x="611.572266"/>
     <use xlink:href="#DejaVuSans-Bold-65" x="646.386719"/>
     <use xlink:href="#DejaVuSans-Bold-78" x="714.208984"/>
     <use xlink:href="#DejaVuSans-Bold-70" x="778.710938"/>
     <use xlink:href="#DejaVuSans-Bold-6c" x="850.292969"/>
     <use xlink:href="#DejaVuSans-Bold-6f" x="884.570312"/>
     <use xlink:href="#DejaVuSans-Bold-69" x="953.271484"/>
     <use xlink:href="#DejaVuSans-Bold-74" x="987.548828"/>
     <use xlink:href="#DejaVuSans-Bold-65" x="1035.351562"/>
     <use xlink:href="#DejaVuSans-Bold-64" x="1103.173828"/>
     <use xlink:href="#DejaVuSans-Bold-20" x="1174.755859"/>
     <use xlink:href="#DejaVuSans-Bold-3a" x="1209.570312"/>
    </g>
   </g>
  </g>
  <g id="text_7">
   <!-- From 03 March, 2026 to 10 March, 2026: 42 mins -->
   <g transform="translate(163.143906 29.995312) scale(0.3 -0.3)">
    <defs>
     <path id="DejaVuSans-Bold-46" d="M 588 4666 
L 3834 4666 
L 3834 3756 
L 1791 3756 
L 1791 2888 
L 3713 2888 
L 3713 1978 
L 1791 1978 
L 1791 0 
L 588 0 
L 588 4666 
z
" transform="scale(0.015625)"/>
     <path id="DejaVuSans-Bold-30" d="M 2944 2338 
Q 2944 3213 2780 3570 
Q 2616 3928 2228 3928 
Q 1841 3928 1675 3570 
Q 1509 3213 1509 2338 
Q 1509 1453 1675 1090 
Q 1841 728 2228 728 
Q 2613 728 2778 1090 
Q 2944 1453 2944 2338 
z
M 4147 2328 
Q 4147 1169 3647 539 
Q 3147 -91 2228 -91 
Q 1306 -91 806 539 
Q 306 1169 306 2328 
Q 306 3491 806 4120 
Q 1306 4750 2228 4750 
Q 3147 4750 3647 4120 
Q 4147 3491 4147 2328 
z
" transform="scale(0.015625)"/>
     <path id="DejaVuSans-Bold-33" d="M 2981 2516 
Q 3453 2394 3698 2092 
Q 3944 1791 3944 1325 
Q 3944 631 3412 270 
Q 2881 -91 1863 -91 
Q 1503 -91 1142 -33 
Q 781 25 428 141 
L 428 1069 
Q 766 900 1098 814 
Q 1431 728 1753 728 
Q 2231 728 2486 893 
Q 2741 1059 2741 1369 
Q 2741 1688 2480 1852 
Q 2219 2016 1709 2016 
L 1228 2016 
L 1228 2791 
L 1734 2791 
Q 2188 2791 2409 2933 
Q 2631 3075 2631 3366 
Q 2631 3634 2415 3781 
Q 2200 3928 1806 3928 
Q 1516 3928 1219 3862 
Q 922 3797 628 3669 
L 628 4550 
Q 984 4650 1334 4700 
Q 1684 4750 2022 4750 
Q 2931 4750 3382 4451 
Q 3834 4153 3834 3553 
Q 3834 3144 3618 2883 
Q 3403 2622 2981 2516 
z
" transform="scale(0.015625)"/>
     <path id="DejaVuSans-Bold-4d" d="M 588 4666 
L 2119 4666 
L 3181 2169 
L 4250 4666 
L 5778 4666 
L 5778 0 
L 4641 0 
L 4641 3413 
L 3566 897 
L 2803 897 
L 1728 3413 
L 1728 0 
L 588 0 
L 588 4666 
z
" transform="scale(0.015625)"/>
     <path id="DejaVuSans-Bold-2c" d="M 653 1209 
L 1778 1209 
L 1778 256 
L 1006 -909 
L 341 -909 
L 653 256 
L 653 1209 
z
" transform="scale(0.015625)"/>
     <path id="DejaVuSans-Bold-32" d="M 1844 884 
L 3897 884 
L 3897 0 
L 506 0 
L 506 884 
L 2209 2388 
Q 2438 2594 2547 2791 
Q 2656 2988 2656 3200 
Q 2656 3528 2436 3728 
Q 2216 3928 1850 3928 
Q 1569 3928 1234 3808 
Q 900 3688 519 3450 
L 519 4475 
Q 925 4609 1322 4679 
Q 1719 4750 2100 4750 
Q 2938 4750 3402 4381 
Q 3866 4013 3866 3353 
Q 3866 2972 3669 2642 
Q 3472 2313 2841 1759 
L 1844 884 
z
" transform="scale(0.015625)"/>
     <path id="DejaVuSans-Bold-36" d="M 2316 2303 
Q 2000 2303 1842 2098 
Q 1684 1894 1684 1484 
Q 1684 1075 1842 870 
Q 2000 666 2316 666 
Q 2634 666 2792 870 
Q 2950 1075 2950 1484 
Q 2950 1894 2792 2098 
Q 2634 2303 2316 2303 
z
M 3803 4544 
L 3803 3681 
Q 3506 3822 3243 3889 
Q 2981 3956 2731 3956 
Q 2194 3956 1894 3657 
Q 1594 3359 1544 2772 
Q 1750 2925 1990 3001 
Q 2231 3078 2516 3078 
Q 3231 3078 3670 2659 
Q 4109 2241 4109 1563 
Q 4109 813 3618 361 
Q 3128 -91 2303 -91 
Q 1394 -91 895 523 
Q 397 1138 397 2266 
Q 397 3422 980 4083 
Q 1563 4744 2578 4744 
Q 2900 4744 3203 4694 
Q 3506 4644 3803 4544 
z
" transform="scale(0.015625)"/>
    </defs>
    <use xlink:href="#DejaVuSans-Bold-46"/>
    <use xlink:href="#DejaVuSans-Bold-72" x="61.935547"/>
    <use xlink:href="#DejaVuSans-Bold-6f" x="111.251953"/>
    <use xlink:href="#DejaVuSans-Bold-6d" x="179.953125"/>
    <use xlink:href="#DejaVuSans-Bold-20" x="284.152344"/>
    <use xlink:href="#DejaVuSans-Bold-30" x="318.966797"/>
    <use xlink:href="#DejaVuSans-Bold-33" x="388.546875"/>
    <use xlink:href="#DejaVuSans-Bold-20" x="458.126953"/>
    <use xlink:href="#DejaVuSans-Bold-4d" x="492.941406"/>
    <use xlink:href="#DejaVuSans-Bold-61" x="592.453125"/>
    <use xlink:href="#DejaVuSans-Bold-72" x="659.933594"/>
    <use xlink:href="#DejaVuSans-Bold-63" x="709.25"/>
    <use xlink:href="#DejaVuSans-Bold-68" x="768.527344"/>
    <use xlink:href="#DejaVuSans-Bold-2c" x="839.71875"/>
    <use xlink:href="#DejaVuSans-Bold-20" x="877.707031"/>
    <use xlink:href="#DejaVuSans-Bold-32" x="912.521484"/>
    <use xlink:href="#DejaVuSans-Bold-30" x="982.101562"/>
    <use xlink:href="#DejaVuSans-Bold-32" x="1051.681641"/>
    <use xlink:href="#DejaVuSans-Bold-36" x="1121.261719"/>
    <use xlink:href="#DejaVuSans-Bold-20" x="1190.841797"/>
    <use xlink:href="#DejaVuSans-Bold-74" x="1225.65625"/>
    <use xlink:href="#DejaVuSans-Bold-6f" x="1273.458984"/>
    <use xlink:href="#DejaVuSans-Bold-20" x="1342.160156"/>
    <use xlink:href="#DejaVuSans-Bold-31" x="1376.974609"/>
    <use xlink:href="#DejaVuSans-Bold-30" x="1446.554688"/>
    <use xlink:href="#DejaVuSans-Bold-20" x="1516.134766"/>
    <use xlink:href="#DejaVuSans-Bold-4d" x="1550.949219"/>
    <use xlink:href="#DejaVuSans-Bold-61" x="1650.460938"/>
    <use xlink:href="#DejaVuSans-Bold-72" x="1717.941406"/>
    <use xlink:href="#DejaVuSans-Bold-63" x="1767.257812"/>
    <use xlink:href="#DejaVuSans-Bold-68" x="1826.535156"/>
    <use xlink:href="#DejaVuSans-Bold-2c" x="1897.726562"/>
    <use xlink:href="#DejaVuSans-Bold-20" x="1935.714844"/>
    <use xlink:href="#DejaVuSans-Bold-32" x="1970.529297"/>
    <use xlink:href="#DejaVuSans-Bold-30" x="2040.109375"/>
    <use xlink:href="#DejaVuSans-Bold-32" x="2109.689453"/>
    <use xlink:href="#DejaVuSans-Bold-36" x="2179.269531"/>
    <use xlink:href="#DejaVuSans-Bold-3a" x="2248.849609"/>
    <use xlink:href="#DejaVuSans-Bold-20" x="2288.839844"/>
    <use xlink:href="#DejaVuSans-Bold-34" x="2323.654297"/>
    <use xlink:href="#DejaVuSans-Bold-32" x="2393.234375"/>
    <use xlink:href="#DejaVuSans-Bold-20" x="2462.814453"/>
    <use xlink:href="#DejaVuSans-Bold-6d" x="2497.628906"/>
    <use xlink:href="#DejaVuSans-Bold-69" x="2601.828125"/>
    <use xlink:href="#DejaVuSans-Bold-6e" x="2636.105469"/>
    <use xlink:href="#DejaVuSans-Bold-73" x="2707.296875"/>
   </g>
  </g>
 </g>
 <defs>
  <clipPath id="p9edd36ef1b">
   <rect x="124.31875" y="56.32" width="610.989609" height="298.68"/>
  </clipPath>
 </defs>
</svg>
