<?xml version="1.0" encoding="utf-8" standalone="no"?>
<!DOCTYPE svg PUBLIC "-//W3C//DTD SVG 1.1//EN"
  "http://www.w3.org/Graphics/SVG/1.1/DTD/svg11.dtd">
<svg xmlns:xlink="http://www.w3.org/1999/xlink" width="1156.230508pt" height="362.2pt" viewBox="0 0 1156.230508 362.2" xmlns="http://www.w3.org/2000/svg" version="1.1">
 <metadata>
  <rdf:RDF xmlns:dc="http://purl.org/dc/elements/1.1/" xmlns:cc="http://creativecommons.org/ns#" xmlns:rdf="http://www.w3.org/1999/02/22-rdf-syntax-ns#">
   <cc:Work>
    <dc:type rdf:resource="http://purl.org/dc/dcmitype/StillImage"/>
    <dc:date>2025-05-29T08:12:49.203628</dc:date>
    <dc:format>image/svg+xml</dc:format>
    <dc:creator>
     <cc:Agent>
      <dc:title>Matplotlib v3.9.1.post1, https://matplotlib.org/</dc:title>
     </cc:Agent>
    </dc:creator>
   </cc:Work>
  </rdf:RDF>
 </metadata>
 <defs>
  <style type="text/css">*{stroke-linejoin: round; stroke-linecap: butt}</style>
 </defs>
 <g id="figure_1">
  <g id="patch_1">
   <path d="M 0 362.2 
L 1156.230508 362.2 
L 1156.230508 0 
L 0 0 
L 0 362.2 
z
" style="fill: none"/>
  </g>
  <g id="axes_1">
   <g id="patch_2">
    <path d="M 128.31875 355 
L 664.653811 355 
L 664.653811 56.32 
L 128.31875 56.32 
L 128.31875 355 
z
" style="fill: none"/>
   </g>
   <g id="patch_3">
    <path d="M 128.31875 69.896364 
L 639.114047 69.896364 
L 639.114047 94.580661 
L 128.31875 94.580661 
z
" clip-path="url(#pc50df5a4ed)" style="fill: #db1a71; stroke: #db1a71; stroke-linejoin: miter"/>
   </g>
   <g id="patch_4">
    <path d="M 128.31875 119.264959 
L 470.066959 119.264959 
L 470.066959 143.949256 
L 128.31875 143.949256 
z
" clip-path="url(#pc50df5a4ed)" style="fill: #ac5b3b; stroke: #ac5b3b; stroke-linejoin: miter"/>
   </g>
   <g id="patch_5">
    <path d="M 128.31875 168.633554 
L 321.982479 168.633554 
L 321.982479 193.317851 
L 128.31875 193.317851 
z
" clip-path="url(#pc50df5a4ed)" style="fill: #433191; stroke: #433191; stroke-linejoin: miter"/>
   </g>
   <g id="patch_6">
    <path d="M 128.31875 218.002149 
L 314.674414 218.002149 
L 314.674414 242.686446 
L 128.31875 242.686446 
z
" clip-path="url(#pc50df5a4ed)" style="fill: #a6f61a; stroke: #a6f61a; stroke-linejoin: miter"/>
   </g>
   <g id="patch_7">
    <path d="M 128.31875 267.370744 
L 256.402209 267.370744 
L 256.402209 292.055041 
L 128.31875 292.055041 
z
" clip-path="url(#pc50df5a4ed)" style="fill: #a8abd6; stroke: #a8abd6; stroke-linejoin: miter"/>
   </g>
   <g id="patch_8">
    <path d="M 128.31875 316.739339 
L 227.362266 316.739339 
L 227.362266 341.423636 
L 128.31875 341.423636 
z
" clip-path="url(#pc50df5a4ed)" style="fill: #a5144f; stroke: #a5144f; stroke-linejoin: miter"/>
   </g>
   <g id="matplotlib.axis_1"/>
   <g id="matplotlib.axis_2">
    <g id="ytick_1">
     <g id="line2d_1">
      <defs>
       <path id="m209141d3aa" d="M 0 0 
L -3.5 0 
" style="stroke: #000000; stroke-width: 0.8"/>
      </defs>
      <g>
       <use xlink:href="#m209141d3aa" x="128.31875" y="82.238512" style="stroke: #000000; stroke-width: 0.8"/>
      </g>
     </g>
     <g id="text_1">
      <!-- LigUnbind -->
      <g style="fill: #586069" transform="translate(7.2 89.83695) scale(0.2 -0.2)">
       <defs>
        <path id="DejaVuSans-Bold-4c" d="M 588 4666 
L 1791 4666 
L 1791 909 
L 3903 909 
L 3903 0 
L 588 0 
L 588 4666 
z
" transform="scale(0.015625)"/>
        <path id="DejaVuSans-Bold-69" d="M 538 3500 
L 1656 3500 
L 1656 0 
L 538 0 
L 538 3500 
z
M 538 4863 
L 1656 4863 
L 1656 3950 
L 538 3950 
L 538 4863 
z
" transform="scale(0.015625)"/>
        <path id="DejaVuSans-Bold-67" d="M 2919 594 
Q 2688 288 2409 144 
Q 2131 0 1766 0 
Q 1125 0 706 504 
Q 288 1009 288 1791 
Q 288 2575 706 3076 
Q 1125 3578 1766 3578 
Q 2131 3578 2409 3434 
Q 2688 3291 2919 2981 
L 2919 3500 
L 4044 3500 
L 4044 353 
Q 4044 -491 3511 -936 
Q 2978 -1381 1966 -1381 
Q 1638 -1381 1331 -1331 
Q 1025 -1281 716 -1178 
L 716 -306 
Q 1009 -475 1290 -558 
Q 1572 -641 1856 -641 
Q 2406 -641 2662 -400 
Q 2919 -159 2919 353 
L 2919 594 
z
M 2181 2772 
Q 1834 2772 1640 2515 
Q 1447 2259 1447 1791 
Q 1447 1309 1634 1061 
Q 1822 813 2181 813 
Q 2531 813 2725 1069 
Q 2919 1325 2919 1791 
Q 2919 2259 2725 2515 
Q 2531 2772 2181 2772 
z
" transform="scale(0.015625)"/>
        <path id="DejaVuSans-Bold-55" d="M 588 4666 
L 1791 4666 
L 1791 1869 
Q 1791 1291 1980 1042 
Q 2169 794 2597 794 
Q 3028 794 3217 1042 
Q 3406 1291 3406 1869 
L 3406 4666 
L 4609 4666 
L 4609 1869 
Q 4609 878 4112 393 
Q 3616 -91 2597 -91 
Q 1581 -91 1084 393 
Q 588 878 588 1869 
L 588 4666 
z
" transform="scale(0.015625)"/>
        <path id="DejaVuSans-Bold-6e" d="M 4056 2131 
L 4056 0 
L 2931 0 
L 2931 347 
L 2931 1631 
Q 2931 2084 2911 2256 
Q 2891 2428 2841 2509 
Q 2775 2619 2662 2680 
Q 2550 2741 2406 2741 
Q 2056 2741 1856 2470 
Q 1656 2200 1656 1722 
L 1656 0 
L 538 0 
L 538 3500 
L 1656 3500 
L 1656 2988 
Q 1909 3294 2193 3439 
Q 2478 3584 2822 3584 
Q 3428 3584 3742 3212 
Q 4056 2841 4056 2131 
z
" transform="scale(0.015625)"/>
        <path id="DejaVuSans-Bold-62" d="M 2400 722 
Q 2759 722 2948 984 
Q 3138 1247 3138 1747 
Q 3138 2247 2948 2509 
Q 2759 2772 2400 2772 
Q 2041 2772 1848 2508 
Q 1656 2244 1656 1747 
Q 1656 1250 1848 986 
Q 2041 722 2400 722 
z
M 1656 2988 
Q 1888 3294 2169 3439 
Q 2450 3584 2816 3584 
Q 3463 3584 3878 3070 
Q 4294 2556 4294 1747 
Q 4294 938 3878 423 
Q 3463 -91 2816 -91 
Q 2450 -91 2169 54 
Q 1888 200 1656 506 
L 1656 0 
L 538 0 
L 538 4863 
L 1656 4863 
L 1656 2988 
z
" transform="scale(0.015625)"/>
        <path id="DejaVuSans-Bold-64" d="M 2919 2988 
L 2919 4863 
L 4044 4863 
L 4044 0 
L 2919 0 
L 2919 506 
Q 2688 197 2409 53 
Q 2131 -91 1766 -91 
Q 1119 -91 703 423 
Q 288 938 288 1747 
Q 288 2556 703 3070 
Q 1119 3584 1766 3584 
Q 2128 3584 2408 3439 
Q 2688 3294 2919 2988 
z
M 2181 722 
Q 2541 722 2730 984 
Q 2919 1247 2919 1747 
Q 2919 2247 2730 2509 
Q 2541 2772 2181 2772 
Q 1825 2772 1636 2509 
Q 1447 2247 1447 1747 
Q 1447 1247 1636 984 
Q 1825 722 2181 722 
z
" transform="scale(0.015625)"/>
       </defs>
       <use xlink:href="#DejaVuSans-Bold-4c"/>
       <use xlink:href="#DejaVuSans-Bold-69" x="63.720703"/>
       <use xlink:href="#DejaVuSans-Bold-67" x="97.998047"/>
       <use xlink:href="#DejaVuSans-Bold-55" x="169.580078"/>
       <use xlink:href="#DejaVuSans-Bold-6e" x="250.78125"/>
       <use xlink:href="#DejaVuSans-Bold-62" x="321.972656"/>
       <use xlink:href="#DejaVuSans-Bold-69" x="393.554688"/>
       <use xlink:href="#DejaVuSans-Bold-6e" x="427.832031"/>
       <use xlink:href="#DejaVuSans-Bold-64" x="499.023438"/>
      </g>
     </g>
    </g>
    <g id="ytick_2">
     <g id="line2d_2">
      <g>
       <use xlink:href="#m209141d3aa" x="128.31875" y="131.607107" style="stroke: #000000; stroke-width: 0.8"/>
      </g>
     </g>
     <g id="text_2">
      <!-- WE -->
      <g style="fill: #586069" transform="translate(85.596875 139.205545) scale(0.2 -0.2)">
       <defs>
        <path id="DejaVuSans-Bold-57" d="M 191 4666 
L 1344 4666 
L 2150 1275 
L 2950 4666 
L 4109 4666 
L 4909 1275 
L 5716 4666 
L 6859 4666 
L 5759 0 
L 4372 0 
L 3525 3547 
L 2688 0 
L 1300 0 
L 191 4666 
z
" transform="scale(0.015625)"/>
        <path id="DejaVuSans-Bold-45" d="M 588 4666 
L 3834 4666 
L 3834 3756 
L 1791 3756 
L 1791 2888 
L 3713 2888 
L 3713 1978 
L 1791 1978 
L 1791 909 
L 3903 909 
L 3903 0 
L 588 0 
L 588 4666 
z
" transform="scale(0.015625)"/>
       </defs>
       <use xlink:href="#DejaVuSans-Bold-57"/>
       <use xlink:href="#DejaVuSans-Bold-45" x="110.302734"/>
      </g>
     </g>
    </g>
    <g id="ytick_3">
     <g id="line2d_3">
      <g>
       <use xlink:href="#m209141d3aa" x="128.31875" y="180.975702" style="stroke: #000000; stroke-width: 0.8"/>
      </g>
     </g>
     <g id="text_3">
      <!-- dibyendu -->
      <g style="fill: #586069" transform="translate(16.4375 188.57414) scale(0.2 -0.2)">
       <defs>
        <path id="DejaVuSans-Bold-79" d="M 78 3500 
L 1197 3500 
L 2138 1125 
L 2938 3500 
L 4056 3500 
L 2584 -331 
Q 2363 -916 2067 -1148 
Q 1772 -1381 1288 -1381 
L 641 -1381 
L 641 -647 
L 991 -647 
Q 1275 -647 1404 -556 
Q 1534 -466 1606 -231 
L 1638 -134 
L 78 3500 
z
" transform="scale(0.015625)"/>
        <path id="DejaVuSans-Bold-65" d="M 4031 1759 
L 4031 1441 
L 1416 1441 
Q 1456 1047 1700 850 
Q 1944 653 2381 653 
Q 2734 653 3104 758 
Q 3475 863 3866 1075 
L 3866 213 
Q 3469 63 3072 -14 
Q 2675 -91 2278 -91 
Q 1328 -91 801 392 
Q 275 875 275 1747 
Q 275 2603 792 3093 
Q 1309 3584 2216 3584 
Q 3041 3584 3536 3087 
Q 4031 2591 4031 1759 
z
M 2881 2131 
Q 2881 2450 2695 2645 
Q 2509 2841 2209 2841 
Q 1884 2841 1681 2658 
Q 1478 2475 1428 2131 
L 2881 2131 
z
" transform="scale(0.015625)"/>
        <path id="DejaVuSans-Bold-75" d="M 500 1363 
L 500 3500 
L 1625 3500 
L 1625 3150 
Q 1625 2866 1622 2436 
Q 1619 2006 1619 1863 
Q 1619 1441 1641 1255 
Q 1663 1069 1716 984 
Q 1784 875 1895 815 
Q 2006 756 2150 756 
Q 2500 756 2700 1025 
Q 2900 1294 2900 1772 
L 2900 3500 
L 4019 3500 
L 4019 0 
L 2900 0 
L 2900 506 
Q 2647 200 2364 54 
Q 2081 -91 1741 -91 
Q 1134 -91 817 281 
Q 500 653 500 1363 
z
" transform="scale(0.015625)"/>
       </defs>
       <use xlink:href="#DejaVuSans-Bold-64"/>
       <use xlink:href="#DejaVuSans-Bold-69" x="71.582031"/>
       <use xlink:href="#DejaVuSans-Bold-62" x="105.859375"/>
       <use xlink:href="#DejaVuSans-Bold-79" x="177.441406"/>
       <use xlink:href="#DejaVuSans-Bold-65" x="242.626953"/>
       <use xlink:href="#DejaVuSans-Bold-6e" x="310.449219"/>
       <use xlink:href="#DejaVuSans-Bold-64" x="381.640625"/>
       <use xlink:href="#DejaVuSans-Bold-75" x="453.222656"/>
      </g>
     </g>
    </g>
    <g id="ytick_4">
     <g id="line2d_4">
      <g>
       <use xlink:href="#m209141d3aa" x="128.31875" y="230.344298" style="stroke: #000000; stroke-width: 0.8"/>
      </g>
     </g>
     <g id="text_4">
      <!-- UnFolder -->
      <g style="fill: #586069" transform="translate(19.6375 237.942735) scale(0.2 -0.2)">
       <defs>
        <path id="DejaVuSans-Bold-46" d="M 588 4666 
L 3834 4666 
L 3834 3756 
L 1791 3756 
L 1791 2888 
L 3713 2888 
L 3713 1978 
L 1791 1978 
L 1791 0 
L 588 0 
L 588 4666 
z
" transform="scale(0.015625)"/>
        <path id="DejaVuSans-Bold-6f" d="M 2203 2784 
Q 1831 2784 1636 2517 
Q 1441 2250 1441 1747 
Q 1441 1244 1636 976 
Q 1831 709 2203 709 
Q 2569 709 2762 976 
Q 2956 1244 2956 1747 
Q 2956 2250 2762 2517 
Q 2569 2784 2203 2784 
z
M 2203 3584 
Q 3106 3584 3614 3096 
Q 4122 2609 4122 1747 
Q 4122 884 3614 396 
Q 3106 -91 2203 -91 
Q 1297 -91 786 396 
Q 275 884 275 1747 
Q 275 2609 786 3096 
Q 1297 3584 2203 3584 
z
" transform="scale(0.015625)"/>
        <path id="DejaVuSans-Bold-6c" d="M 538 4863 
L 1656 4863 
L 1656 0 
L 538 0 
L 538 4863 
z
" transform="scale(0.015625)"/>
        <path id="DejaVuSans-Bold-72" d="M 3138 2547 
Q 2991 2616 2845 2648 
Q 2700 2681 2553 2681 
Q 2122 2681 1889 2404 
Q 1656 2128 1656 1613 
L 1656 0 
L 538 0 
L 538 3500 
L 1656 3500 
L 1656 2925 
Q 1872 3269 2151 3426 
Q 2431 3584 2822 3584 
Q 2878 3584 2943 3579 
Q 3009 3575 3134 3559 
L 3138 2547 
z
" transform="scale(0.015625)"/>
       </defs>
       <use xlink:href="#DejaVuSans-Bold-55"/>
       <use xlink:href="#DejaVuSans-Bold-6e" x="81.201172"/>
       <use xlink:href="#DejaVuSans-Bold-46" x="152.392578"/>
       <use xlink:href="#DejaVuSans-Bold-6f" x="216.703125"/>
       <use xlink:href="#DejaVuSans-Bold-6c" x="285.404297"/>
       <use xlink:href="#DejaVuSans-Bold-64" x="319.681641"/>
       <use xlink:href="#DejaVuSans-Bold-65" x="391.263672"/>
       <use xlink:href="#DejaVuSans-Bold-72" x="459.085938"/>
      </g>
     </g>
    </g>
    <g id="ytick_5">
     <g id="line2d_5">
      <g>
       <use xlink:href="#m209141d3aa" x="128.31875" y="279.712893" style="stroke: #000000; stroke-width: 0.8"/>
      </g>
     </g>
     <g id="text_5">
      <!-- Abeta -->
      <g style="fill: #586069" transform="translate(54.903125 287.31133) scale(0.2 -0.2)">
       <defs>
        <path id="DejaVuSans-Bold-41" d="M 3419 850 
L 1538 850 
L 1241 0 
L 31 0 
L 1759 4666 
L 3194 4666 
L 4922 0 
L 3713 0 
L 3419 850 
z
M 1838 1716 
L 3116 1716 
L 2478 3572 
L 1838 1716 
z
" transform="scale(0.015625)"/>
        <path id="DejaVuSans-Bold-74" d="M 1759 4494 
L 1759 3500 
L 2913 3500 
L 2913 2700 
L 1759 2700 
L 1759 1216 
Q 1759 972 1856 886 
Q 1953 800 2241 800 
L 2816 800 
L 2816 0 
L 1856 0 
Q 1194 0 917 276 
Q 641 553 641 1216 
L 641 2700 
L 84 2700 
L 84 3500 
L 641 3500 
L 641 4494 
L 1759 4494 
z
" transform="scale(0.015625)"/>
        <path id="DejaVuSans-Bold-61" d="M 2106 1575 
Q 1756 1575 1579 1456 
Q 1403 1338 1403 1106 
Q 1403 894 1545 773 
Q 1688 653 1941 653 
Q 2256 653 2472 879 
Q 2688 1106 2688 1447 
L 2688 1575 
L 2106 1575 
z
M 3816 1997 
L 3816 0 
L 2688 0 
L 2688 519 
Q 2463 200 2181 54 
Q 1900 -91 1497 -91 
Q 953 -91 614 226 
Q 275 544 275 1050 
Q 275 1666 698 1953 
Q 1122 2241 2028 2241 
L 2688 2241 
L 2688 2328 
Q 2688 2594 2478 2717 
Q 2269 2841 1825 2841 
Q 1466 2841 1156 2769 
Q 847 2697 581 2553 
L 581 3406 
Q 941 3494 1303 3539 
Q 1666 3584 2028 3584 
Q 2975 3584 3395 3211 
Q 3816 2838 3816 1997 
z
" transform="scale(0.015625)"/>
       </defs>
       <use xlink:href="#DejaVuSans-Bold-41"/>
       <use xlink:href="#DejaVuSans-Bold-62" x="77.392578"/>
       <use xlink:href="#DejaVuSans-Bold-65" x="148.974609"/>
       <use xlink:href="#DejaVuSans-Bold-74" x="216.796875"/>
       <use xlink:href="#DejaVuSans-Bold-61" x="264.599609"/>
      </g>
     </g>
    </g>
    <g id="ytick_6">
     <g id="line2d_6">
      <g>
       <use xlink:href="#m209141d3aa" x="128.31875" y="329.081488" style="stroke: #000000; stroke-width: 0.8"/>
      </g>
     </g>
     <g id="text_6">
      <!-- Trp-Cage -->
      <g style="fill: #586069" transform="translate(21.340625 336.6018) scale(0.2 -0.2)">
       <defs>
        <path id="DejaVuSans-Bold-54" d="M 31 4666 
L 4331 4666 
L 4331 3756 
L 2784 3756 
L 2784 0 
L 1581 0 
L 1581 3756 
L 31 3756 
L 31 4666 
z
" transform="scale(0.015625)"/>
        <path id="DejaVuSans-Bold-70" d="M 1656 506 
L 1656 -1331 
L 538 -1331 
L 538 3500 
L 1656 3500 
L 1656 2988 
Q 1888 3294 2169 3439 
Q 2450 3584 2816 3584 
Q 3463 3584 3878 3070 
Q 4294 2556 4294 1747 
Q 4294 938 3878 423 
Q 3463 -91 2816 -91 
Q 2450 -91 2169 54 
Q 1888 200 1656 506 
z
M 2400 2772 
Q 2041 2772 1848 2508 
Q 1656 2244 1656 1747 
Q 1656 1250 1848 986 
Q 2041 722 2400 722 
Q 2759 722 2948 984 
Q 3138 1247 3138 1747 
Q 3138 2247 2948 2509 
Q 2759 2772 2400 2772 
z
" transform="scale(0.015625)"/>
        <path id="DejaVuSans-Bold-2d" d="M 347 2297 
L 2309 2297 
L 2309 1388 
L 347 1388 
L 347 2297 
z
" transform="scale(0.015625)"/>
        <path id="DejaVuSans-Bold-43" d="M 4288 256 
Q 3956 84 3597 -3 
Q 3238 -91 2847 -91 
Q 1681 -91 1000 561 
Q 319 1213 319 2328 
Q 319 3447 1000 4098 
Q 1681 4750 2847 4750 
Q 3238 4750 3597 4662 
Q 3956 4575 4288 4403 
L 4288 3438 
Q 3953 3666 3628 3772 
Q 3303 3878 2944 3878 
Q 2300 3878 1931 3465 
Q 1563 3053 1563 2328 
Q 1563 1606 1931 1193 
Q 2300 781 2944 781 
Q 3303 781 3628 887 
Q 3953 994 4288 1222 
L 4288 256 
z
" transform="scale(0.015625)"/>
       </defs>
       <use xlink:href="#DejaVuSans-Bold-54"/>
       <use xlink:href="#DejaVuSans-Bold-72" x="57.212891"/>
       <use xlink:href="#DejaVuSans-Bold-70" x="106.529297"/>
       <use xlink:href="#DejaVuSans-Bold-2d" x="178.111328"/>
       <use xlink:href="#DejaVuSans-Bold-43" x="219.615234"/>
       <use xlink:href="#DejaVuSans-Bold-61" x="293.003906"/>
       <use xlink:href="#DejaVuSans-Bold-67" x="360.484375"/>
       <use xlink:href="#DejaVuSans-Bold-65" x="432.066406"/>
      </g>
     </g>
    </g>
   </g>
   <g id="patch_9">
    <path d="M 128.31875 355 
L 128.31875 56.32 
" style="fill: none; stroke: #000000; stroke-width: 0.8; stroke-linejoin: miter; stroke-linecap: square"/>
   </g>
   <g id="patch_10">
    <path d="M 128.31875 355 
L 664.653811 355 
" style="fill: none; stroke: #000000; stroke-width: 0.8; stroke-linejoin: miter; stroke-linecap: square"/>
   </g>
   <g id="text_7">
    <!-- 30 hrs 45 mins -->
    <g style="fill: #586069" transform="translate(643.114047 86.377575) scale(0.15 -0.15)">
     <defs>
      <path id="DejaVuSans-Bold-33" d="M 2981 2516 
Q 3453 2394 3698 2092 
Q 3944 1791 3944 1325 
Q 3944 631 3412 270 
Q 2881 -91 1863 -91 
Q 1503 -91 1142 -33 
Q 781 25 428 141 
L 428 1069 
Q 766 900 1098 814 
Q 1431 728 1753 728 
Q 2231 728 2486 893 
Q 2741 1059 2741 1369 
Q 2741 1688 2480 1852 
Q 2219 2016 1709 2016 
L 1228 2016 
L 1228 2791 
L 1734 2791 
Q 2188 2791 2409 2933 
Q 2631 3075 2631 3366 
Q 2631 3634 2415 3781 
Q 2200 3928 1806 3928 
Q 1516 3928 1219 3862 
Q 922 3797 628 3669 
L 628 4550 
Q 984 4650 1334 4700 
Q 1684 4750 2022 4750 
Q 2931 4750 3382 4451 
Q 3834 4153 3834 3553 
Q 3834 3144 3618 2883 
Q 3403 2622 2981 2516 
z
" transform="scale(0.015625)"/>
      <path id="DejaVuSans-Bold-30" d="M 2944 2338 
Q 2944 3213 2780 3570 
Q 2616 3928 2228 3928 
Q 1841 3928 1675 3570 
Q 1509 3213 1509 2338 
Q 1509 1453 1675 1090 
Q 1841 728 2228 728 
Q 2613 728 2778 1090 
Q 2944 1453 2944 2338 
z
M 4147 2328 
Q 4147 1169 3647 539 
Q 3147 -91 2228 -91 
Q 1306 -91 806 539 
Q 306 1169 306 2328 
Q 306 3491 806 4120 
Q 1306 4750 2228 4750 
Q 3147 4750 3647 4120 
Q 4147 3491 4147 2328 
z
" transform="scale(0.015625)"/>
      <path id="DejaVuSans-Bold-20" transform="scale(0.015625)"/>
      <path id="DejaVuSans-Bold-68" d="M 4056 2131 
L 4056 0 
L 2931 0 
L 2931 347 
L 2931 1625 
Q 2931 2084 2911 2256 
Q 2891 2428 2841 2509 
Q 2775 2619 2662 2680 
Q 2550 2741 2406 2741 
Q 2056 2741 1856 2470 
Q 1656 2200 1656 1722 
L 1656 0 
L 538 0 
L 538 4863 
L 1656 4863 
L 1656 2988 
Q 1909 3294 2193 3439 
Q 2478 3584 2822 3584 
Q 3428 3584 3742 3212 
Q 4056 2841 4056 2131 
z
" transform="scale(0.015625)"/>
      <path id="DejaVuSans-Bold-73" d="M 3272 3391 
L 3272 2541 
Q 2913 2691 2578 2766 
Q 2244 2841 1947 2841 
Q 1628 2841 1473 2761 
Q 1319 2681 1319 2516 
Q 1319 2381 1436 2309 
Q 1553 2238 1856 2203 
L 2053 2175 
Q 2913 2066 3209 1816 
Q 3506 1566 3506 1031 
Q 3506 472 3093 190 
Q 2681 -91 1863 -91 
Q 1516 -91 1145 -36 
Q 775 19 384 128 
L 384 978 
Q 719 816 1070 734 
Q 1422 653 1784 653 
Q 2113 653 2278 743 
Q 2444 834 2444 1013 
Q 2444 1163 2330 1236 
Q 2216 1309 1875 1350 
L 1678 1375 
Q 931 1469 631 1722 
Q 331 1975 331 2491 
Q 331 3047 712 3315 
Q 1094 3584 1881 3584 
Q 2191 3584 2531 3537 
Q 2872 3491 3272 3391 
z
" transform="scale(0.015625)"/>
      <path id="DejaVuSans-Bold-34" d="M 2356 3675 
L 1038 1722 
L 2356 1722 
L 2356 3675 
z
M 2156 4666 
L 3494 4666 
L 3494 1722 
L 4159 1722 
L 4159 850 
L 3494 850 
L 3494 0 
L 2356 0 
L 2356 850 
L 288 850 
L 288 1881 
L 2156 4666 
z
" transform="scale(0.015625)"/>
      <path id="DejaVuSans-Bold-35" d="M 678 4666 
L 3669 4666 
L 3669 3781 
L 1638 3781 
L 1638 3059 
Q 1775 3097 1914 3117 
Q 2053 3138 2203 3138 
Q 3056 3138 3531 2711 
Q 4006 2284 4006 1522 
Q 4006 766 3489 337 
Q 2972 -91 2053 -91 
Q 1656 -91 1267 -14 
Q 878 63 494 219 
L 494 1166 
Q 875 947 1217 837 
Q 1559 728 1863 728 
Q 2300 728 2551 942 
Q 2803 1156 2803 1522 
Q 2803 1891 2551 2103 
Q 2300 2316 1863 2316 
Q 1603 2316 1309 2248 
Q 1016 2181 678 2041 
L 678 4666 
z
" transform="scale(0.015625)"/>
      <path id="DejaVuSans-Bold-6d" d="M 3781 2919 
Q 3994 3244 4286 3414 
Q 4578 3584 4928 3584 
Q 5531 3584 5847 3212 
Q 6163 2841 6163 2131 
L 6163 0 
L 5038 0 
L 5038 1825 
Q 5041 1866 5042 1909 
Q 5044 1953 5044 2034 
Q 5044 2406 4934 2573 
Q 4825 2741 4581 2741 
Q 4263 2741 4089 2478 
Q 3916 2216 3909 1719 
L 3909 0 
L 2784 0 
L 2784 1825 
Q 2784 2406 2684 2573 
Q 2584 2741 2328 2741 
Q 2006 2741 1831 2477 
Q 1656 2213 1656 1722 
L 1656 0 
L 531 0 
L 531 3500 
L 1656 3500 
L 1656 2988 
Q 1863 3284 2130 3434 
Q 2397 3584 2719 3584 
Q 3081 3584 3359 3409 
Q 3638 3234 3781 2919 
z
" transform="scale(0.015625)"/>
     </defs>
     <use xlink:href="#DejaVuSans-Bold-33"/>
     <use xlink:href="#DejaVuSans-Bold-30" x="69.580078"/>
     <use xlink:href="#DejaVuSans-Bold-20" x="139.160156"/>
     <use xlink:href="#DejaVuSans-Bold-68" x="173.974609"/>
     <use xlink:href="#DejaVuSans-Bold-72" x="245.166016"/>
     <use xlink:href="#DejaVuSans-Bold-73" x="294.482422"/>
     <use xlink:href="#DejaVuSans-Bold-20" x="354.003906"/>
     <use xlink:href="#DejaVuSans-Bold-34" x="388.818359"/>
     <use xlink:href="#DejaVuSans-Bold-35" x="458.398438"/>
     <use xlink:href="#DejaVuSans-Bold-20" x="527.978516"/>
     <use xlink:href="#DejaVuSans-Bold-6d" x="562.792969"/>
     <use xlink:href="#DejaVuSans-Bold-69" x="666.992188"/>
     <use xlink:href="#DejaVuSans-Bold-6e" x="701.269531"/>
     <use xlink:href="#DejaVuSans-Bold-73" x="772.460938"/>
    </g>
   </g>
   <g id="text_8">
    <!-- 20 hrs 34 mins -->
    <g style="fill: #586069" transform="translate(474.066959 135.74617) scale(0.15 -0.15)">
     <defs>
      <path id="DejaVuSans-Bold-32" d="M 1844 884 
L 3897 884 
L 3897 0 
L 506 0 
L 506 884 
L 2209 2388 
Q 2438 2594 2547 2791 
Q 2656 2988 2656 3200 
Q 2656 3528 2436 3728 
Q 2216 3928 1850 3928 
Q 1569 3928 1234 3808 
Q 900 3688 519 3450 
L 519 4475 
Q 925 4609 1322 4679 
Q 1719 4750 2100 4750 
Q 2938 4750 3402 4381 
Q 3866 4013 3866 3353 
Q 3866 2972 3669 2642 
Q 3472 2313 2841 1759 
L 1844 884 
z
" transform="scale(0.015625)"/>
     </defs>
     <use xlink:href="#DejaVuSans-Bold-32"/>
     <use xlink:href="#DejaVuSans-Bold-30" x="69.580078"/>
     <use xlink:href="#DejaVuSans-Bold-20" x="139.160156"/>
     <use xlink:href="#DejaVuSans-Bold-68" x="173.974609"/>
     <use xlink:href="#DejaVuSans-Bold-72" x="245.166016"/>
     <use xlink:href="#DejaVuSans-Bold-73" x="294.482422"/>
     <use xlink:href="#DejaVuSans-Bold-20" x="354.003906"/>
     <use xlink:href="#DejaVuSans-Bold-33" x="388.818359"/>
     <use xlink:href="#DejaVuSans-Bold-34" x="458.398438"/>
     <use xlink:href="#DejaVuSans-Bold-20" x="527.978516"/>
     <use xlink:href="#DejaVuSans-Bold-6d" x="562.792969"/>
     <use xlink:href="#DejaVuSans-Bold-69" x="666.992188"/>
     <use xlink:href="#DejaVuSans-Bold-6e" x="701.269531"/>
     <use xlink:href="#DejaVuSans-Bold-73" x="772.460938"/>
    </g>
   </g>
   <g id="text_9">
    <!-- 11 hrs 39 mins -->
    <g style="fill: #586069" transform="translate(325.982479 185.114765) scale(0.15 -0.15)">
     <defs>
      <path id="DejaVuSans-Bold-31" d="M 750 831 
L 1813 831 
L 1813 3847 
L 722 3622 
L 722 4441 
L 1806 4666 
L 2950 4666 
L 2950 831 
L 4013 831 
L 4013 0 
L 750 0 
L 750 831 
z
" transform="scale(0.015625)"/>
      <path id="DejaVuSans-Bold-39" d="M 641 103 
L 641 966 
Q 928 831 1190 764 
Q 1453 697 1709 697 
Q 2247 697 2547 995 
Q 2847 1294 2900 1881 
Q 2688 1725 2447 1647 
Q 2206 1569 1925 1569 
Q 1209 1569 770 1986 
Q 331 2403 331 3084 
Q 331 3838 820 4291 
Q 1309 4744 2131 4744 
Q 3044 4744 3544 4128 
Q 4044 3513 4044 2388 
Q 4044 1231 3459 570 
Q 2875 -91 1856 -91 
Q 1528 -91 1228 -42 
Q 928 6 641 103 
z
M 2125 2350 
Q 2441 2350 2600 2554 
Q 2759 2759 2759 3169 
Q 2759 3575 2600 3781 
Q 2441 3988 2125 3988 
Q 1809 3988 1650 3781 
Q 1491 3575 1491 3169 
Q 1491 2759 1650 2554 
Q 1809 2350 2125 2350 
z
" transform="scale(0.015625)"/>
     </defs>
     <use xlink:href="#DejaVuSans-Bold-31"/>
     <use xlink:href="#DejaVuSans-Bold-31" x="69.580078"/>
     <use xlink:href="#DejaVuSans-Bold-20" x="139.160156"/>
     <use xlink:href="#DejaVuSans-Bold-68" x="173.974609"/>
     <use xlink:href="#DejaVuSans-Bold-72" x="245.166016"/>
     <use xlink:href="#DejaVuSans-Bold-73" x="294.482422"/>
     <use xlink:href="#DejaVuSans-Bold-20" x="354.003906"/>
     <use xlink:href="#DejaVuSans-Bold-33" x="388.818359"/>
     <use xlink:href="#DejaVuSans-Bold-39" x="458.398438"/>
     <use xlink:href="#DejaVuSans-Bold-20" x="527.978516"/>
     <use xlink:href="#DejaVuSans-Bold-6d" x="562.792969"/>
     <use xlink:href="#DejaVuSans-Bold-69" x="666.992188"/>
     <use xlink:href="#DejaVuSans-Bold-6e" x="701.269531"/>
     <use xlink:href="#DejaVuSans-Bold-73" x="772.460938"/>
    </g>
   </g>
   <g id="text_10">
    <!-- 11 hrs 12 mins -->
    <g style="fill: #586069" transform="translate(318.674414 234.48336) scale(0.15 -0.15)">
     <use xlink:href="#DejaVuSans-Bold-31"/>
     <use xlink:href="#DejaVuSans-Bold-31" x="69.580078"/>
     <use xlink:href="#DejaVuSans-Bold-20" x="139.160156"/>
     <use xlink:href="#DejaVuSans-Bold-68" x="173.974609"/>
     <use xlink:href="#DejaVuSans-Bold-72" x="245.166016"/>
     <use xlink:href="#DejaVuSans-Bold-73" x="294.482422"/>
     <use xlink:href="#DejaVuSans-Bold-20" x="354.003906"/>
     <use xlink:href="#DejaVuSans-Bold-31" x="388.818359"/>
     <use xlink:href="#DejaVuSans-Bold-32" x="458.398438"/>
     <use xlink:href="#DejaVuSans-Bold-20" x="527.978516"/>
     <use xlink:href="#DejaVuSans-Bold-6d" x="562.792969"/>
     <use xlink:href="#DejaVuSans-Bold-69" x="666.992188"/>
     <use xlink:href="#DejaVuSans-Bold-6e" x="701.269531"/>
     <use xlink:href="#DejaVuSans-Bold-73" x="772.460938"/>
    </g>
   </g>
   <g id="text_11">
    <!-- 7 hrs 42 mins -->
    <g style="fill: #586069" transform="translate(260.402209 283.851955) scale(0.15 -0.15)">
     <defs>
      <path id="DejaVuSans-Bold-37" d="M 428 4666 
L 3944 4666 
L 3944 3988 
L 2125 0 
L 953 0 
L 2675 3781 
L 428 3781 
L 428 4666 
z
" transform="scale(0.015625)"/>
     </defs>
     <use xlink:href="#DejaVuSans-Bold-37"/>
     <use xlink:href="#DejaVuSans-Bold-20" x="69.580078"/>
     <use xlink:href="#DejaVuSans-Bold-68" x="104.394531"/>
     <use xlink:href="#DejaVuSans-Bold-72" x="175.585938"/>
     <use xlink:href="#DejaVuSans-Bold-73" x="224.902344"/>
     <use xlink:href="#DejaVuSans-Bold-20" x="284.423828"/>
     <use xlink:href="#DejaVuSans-Bold-34" x="319.238281"/>
     <use xlink:href="#DejaVuSans-Bold-32" x="388.818359"/>
     <use xlink:href="#DejaVuSans-Bold-20" x="458.398438"/>
     <use xlink:href="#DejaVuSans-Bold-6d" x="493.212891"/>
     <use xlink:href="#DejaVuSans-Bold-69" x="597.412109"/>
     <use xlink:href="#DejaVuSans-Bold-6e" x="631.689453"/>
     <use xlink:href="#DejaVuSans-Bold-73" x="702.880859"/>
    </g>
   </g>
   <g id="text_12">
    <!-- 5 hrs 58 mins -->
    <g style="fill: #586069" transform="translate(231.362266 333.22055) scale(0.15 -0.15)">
     <defs>
      <path id="DejaVuSans-Bold-38" d="M 2228 2088 
Q 1891 2088 1709 1903 
Q 1528 1719 1528 1375 
Q 1528 1031 1709 848 
Q 1891 666 2228 666 
Q 2563 666 2741 848 
Q 2919 1031 2919 1375 
Q 2919 1722 2741 1905 
Q 2563 2088 2228 2088 
z
M 1350 2484 
Q 925 2613 709 2878 
Q 494 3144 494 3541 
Q 494 4131 934 4440 
Q 1375 4750 2228 4750 
Q 3075 4750 3515 4442 
Q 3956 4134 3956 3541 
Q 3956 3144 3739 2878 
Q 3522 2613 3097 2484 
Q 3572 2353 3814 2058 
Q 4056 1763 4056 1313 
Q 4056 619 3595 264 
Q 3134 -91 2228 -91 
Q 1319 -91 855 264 
Q 391 619 391 1313 
Q 391 1763 633 2058 
Q 875 2353 1350 2484 
z
M 1631 3419 
Q 1631 3141 1786 2991 
Q 1941 2841 2228 2841 
Q 2509 2841 2662 2991 
Q 2816 3141 2816 3419 
Q 2816 3697 2662 3845 
Q 2509 3994 2228 3994 
Q 1941 3994 1786 3844 
Q 1631 3694 1631 3419 
z
" transform="scale(0.015625)"/>
     </defs>
     <use xlink:href="#DejaVuSans-Bold-35"/>
     <use xlink:href="#DejaVuSans-Bold-20" x="69.580078"/>
     <use xlink:href="#DejaVuSans-Bold-68" x="104.394531"/>
     <use xlink:href="#DejaVuSans-Bold-72" x="175.585938"/>
     <use xlink:href="#DejaVuSans-Bold-73" x="224.902344"/>
     <use xlink:href="#DejaVuSans-Bold-20" x="284.423828"/>
     <use xlink:href="#DejaVuSans-Bold-35" x="319.238281"/>
     <use xlink:href="#DejaVuSans-Bold-38" x="388.818359"/>
     <use xlink:href="#DejaVuSans-Bold-20" x="458.398438"/>
     <use xlink:href="#DejaVuSans-Bold-6d" x="493.212891"/>
     <use xlink:href="#DejaVuSans-Bold-69" x="597.412109"/>
     <use xlink:href="#DejaVuSans-Bold-6e" x="631.689453"/>
     <use xlink:href="#DejaVuSans-Bold-73" x="702.880859"/>
    </g>
   </g>
   <g id="text_13">
    <!-- Projects touched : -->
    <g style="fill: #2a475e" transform="translate(334.855031 50.32) scale(0.12 -0.12)">
     <defs>
      <path id="DejaVuSans-Bold-50" d="M 588 4666 
L 2584 4666 
Q 3475 4666 3951 4270 
Q 4428 3875 4428 3144 
Q 4428 2409 3951 2014 
Q 3475 1619 2584 1619 
L 1791 1619 
L 1791 0 
L 588 0 
L 588 4666 
z
M 1791 3794 
L 1791 2491 
L 2456 2491 
Q 2806 2491 2997 2661 
Q 3188 2831 3188 3144 
Q 3188 3456 2997 3625 
Q 2806 3794 2456 3794 
L 1791 3794 
z
" transform="scale(0.015625)"/>
      <path id="DejaVuSans-Bold-6a" d="M 538 3500 
L 1656 3500 
L 1656 63 
Q 1656 -641 1318 -1011 
Q 981 -1381 341 -1381 
L -213 -1381 
L -213 -647 
L -19 -647 
Q 300 -647 419 -503 
Q 538 -359 538 63 
L 538 3500 
z
M 538 4863 
L 1656 4863 
L 1656 3950 
L 538 3950 
L 538 4863 
z
" transform="scale(0.015625)"/>
      <path id="DejaVuSans-Bold-63" d="M 3366 3391 
L 3366 2478 
Q 3138 2634 2908 2709 
Q 2678 2784 2431 2784 
Q 1963 2784 1702 2511 
Q 1441 2238 1441 1747 
Q 1441 1256 1702 982 
Q 1963 709 2431 709 
Q 2694 709 2930 787 
Q 3166 866 3366 1019 
L 3366 103 
Q 3103 6 2833 -42 
Q 2563 -91 2291 -91 
Q 1344 -91 809 395 
Q 275 881 275 1747 
Q 275 2613 809 3098 
Q 1344 3584 2291 3584 
Q 2566 3584 2833 3536 
Q 3100 3488 3366 3391 
z
" transform="scale(0.015625)"/>
      <path id="DejaVuSans-Bold-3a" d="M 716 3500 
L 1844 3500 
L 1844 2291 
L 716 2291 
L 716 3500 
z
M 716 1209 
L 1844 1209 
L 1844 0 
L 716 0 
L 716 1209 
z
" transform="scale(0.015625)"/>
     </defs>
     <use xlink:href="#DejaVuSans-Bold-50"/>
     <use xlink:href="#DejaVuSans-Bold-72" x="73.291016"/>
     <use xlink:href="#DejaVuSans-Bold-6f" x="122.607422"/>
     <use xlink:href="#DejaVuSans-Bold-6a" x="191.308594"/>
     <use xlink:href="#DejaVuSans-Bold-65" x="225.585938"/>
     <use xlink:href="#DejaVuSans-Bold-63" x="293.408203"/>
     <use xlink:href="#DejaVuSans-Bold-74" x="352.685547"/>
     <use xlink:href="#DejaVuSans-Bold-73" x="400.488281"/>
     <use xlink:href="#DejaVuSans-Bold-20" x="460.009766"/>
     <use xlink:href="#DejaVuSans-Bold-74" x="494.824219"/>
     <use xlink:href="#DejaVuSans-Bold-6f" x="542.626953"/>
     <use xlink:href="#DejaVuSans-Bold-75" x="611.328125"/>
     <use xlink:href="#DejaVuSans-Bold-63" x="682.519531"/>
     <use xlink:href="#DejaVuSans-Bold-68" x="741.796875"/>
     <use xlink:href="#DejaVuSans-Bold-65" x="812.988281"/>
     <use xlink:href="#DejaVuSans-Bold-64" x="880.810547"/>
     <use xlink:href="#DejaVuSans-Bold-20" x="952.392578"/>
     <use xlink:href="#DejaVuSans-Bold-3a" x="987.207031"/>
    </g>
   </g>
  </g>
  <g id="axes_2">
   <g id="patch_11">
    <path d="M 826.740613 163.262142 
L 861.174235 173.769445 
" style="fill: none; stroke: #000000; stroke-linecap: round"/>
   </g>
   <g id="text_14">
    <g id="patch_12">
     <path d="M 769.36457 171.283892 
L 824.472695 171.283892 
L 824.472695 152.376392 
L 769.36457 152.376392 
z
" style="fill: #ffffff; stroke: #000000; stroke-width: 0.72; stroke-linejoin: miter"/>
    </g>
    <!-- Python -->
    <g style="fill: #2a475e" transform="translate(772.96457 165.094517) scale(0.12 -0.12)">
     <use xlink:href="#DejaVuSans-Bold-50"/>
     <use xlink:href="#DejaVuSans-Bold-79" x="75.166016"/>
     <use xlink:href="#DejaVuSans-Bold-74" x="140.351562"/>
     <use xlink:href="#DejaVuSans-Bold-68" x="188.154297"/>
     <use xlink:href="#DejaVuSans-Bold-6f" x="259.345703"/>
     <use xlink:href="#DejaVuSans-Bold-6e" x="328.046875"/>
    </g>
   </g>
   <g id="patch_13">
    <path d="M 1104.532811 294.965342 
L 1086.41731 294.965342 
L 1053.528283 270.637796 
" style="fill: none; stroke: #000000; stroke-linecap: round"/>
   </g>
   <g id="text_15">
    <g id="patch_14">
     <path d="M 1106.893633 304.372217 
L 1152.630508 304.372217 
L 1152.630508 285.558467 
L 1106.893633 285.558467 
z
" style="fill: #ffffff; stroke: #000000; stroke-width: 0.72; stroke-linejoin: miter"/>
    </g>
    <!-- Other -->
    <g style="fill: #2a475e" transform="translate(1110.493633 298.276592) scale(0.12 -0.12)">
     <defs>
      <path id="DejaVuSans-Bold-4f" d="M 2719 3878 
Q 2169 3878 1866 3472 
Q 1563 3066 1563 2328 
Q 1563 1594 1866 1187 
Q 2169 781 2719 781 
Q 3272 781 3575 1187 
Q 3878 1594 3878 2328 
Q 3878 3066 3575 3472 
Q 3272 3878 2719 3878 
z
M 2719 4750 
Q 3844 4750 4481 4106 
Q 5119 3463 5119 2328 
Q 5119 1197 4481 553 
Q 3844 -91 2719 -91 
Q 1597 -91 958 553 
Q 319 1197 319 2328 
Q 319 3463 958 4106 
Q 1597 4750 2719 4750 
z
" transform="scale(0.015625)"/>
     </defs>
     <use xlink:href="#DejaVuSans-Bold-4f"/>
     <use xlink:href="#DejaVuSans-Bold-74" x="85.009766"/>
     <use xlink:href="#DejaVuSans-Bold-68" x="132.8125"/>
     <use xlink:href="#DejaVuSans-Bold-65" x="204.003906"/>
     <use xlink:href="#DejaVuSans-Bold-72" x="271.826172"/>
    </g>
   </g>
   <g id="patch_15">
    <path d="M 1104.53633 263.109642 
L 1104.433683 263.109642 
L 1066.63686 247.459865 
" style="fill: none; stroke: #000000; stroke-linecap: round"/>
   </g>
   <g id="text_16">
    <g id="patch_16">
     <path d="M 1106.893633 272.516517 
L 1142.304883 272.516517 
L 1142.304883 253.702767 
L 1106.893633 253.702767 
z
" style="fill: #ffffff; stroke: #000000; stroke-width: 0.72; stroke-linejoin: miter"/>
    </g>
    <!-- Text -->
    <g style="fill: #2a475e" transform="translate(1110.493633 266.420892) scale(0.12 -0.12)">
     <defs>
      <path id="DejaVuSans-Bold-78" d="M 1422 1791 
L 159 3500 
L 1344 3500 
L 2059 2463 
L 2784 3500 
L 3969 3500 
L 2706 1797 
L 4031 0 
L 2847 0 
L 2059 1106 
L 1281 0 
L 97 0 
L 1422 1791 
z
" transform="scale(0.015625)"/>
     </defs>
     <use xlink:href="#DejaVuSans-Bold-54"/>
     <use xlink:href="#DejaVuSans-Bold-65" x="54.962891"/>
     <use xlink:href="#DejaVuSans-Bold-78" x="122.785156"/>
     <use xlink:href="#DejaVuSans-Bold-74" x="187.287109"/>
    </g>
   </g>
   <g id="patch_17">
    <path d="M 1104.5605 228.771433 
L 1073.468749 223.597258 
" style="fill: none; stroke: #000000; stroke-linecap: round"/>
   </g>
   <g id="text_17">
    <g id="patch_18">
     <path d="M 1106.893633 239.719184 
L 1142.933008 239.719184 
L 1142.933008 220.905434 
L 1106.893633 220.905434 
z
" style="fill: #ffffff; stroke: #000000; stroke-width: 0.72; stroke-linejoin: miter"/>
    </g>
    <!-- XML -->
    <g style="fill: #2a475e" transform="translate(1110.493633 233.623559) scale(0.12 -0.12)">
     <defs>
      <path id="DejaVuSans-Bold-58" d="M 3188 2381 
L 4806 0 
L 3553 0 
L 2463 1594 
L 1381 0 
L 122 0 
L 1741 2381 
L 184 4666 
L 1441 4666 
L 2463 3163 
L 3481 4666 
L 4744 4666 
L 3188 2381 
z
" transform="scale(0.015625)"/>
      <path id="DejaVuSans-Bold-4d" d="M 588 4666 
L 2119 4666 
L 3181 2169 
L 4250 4666 
L 5778 4666 
L 5778 0 
L 4641 0 
L 4641 3413 
L 3566 897 
L 2803 897 
L 1728 3413 
L 1728 0 
L 588 0 
L 588 4666 
z
" transform="scale(0.015625)"/>
     </defs>
     <use xlink:href="#DejaVuSans-Bold-58"/>
     <use xlink:href="#DejaVuSans-Bold-4d" x="77.099609"/>
     <use xlink:href="#DejaVuSans-Bold-4c" x="176.611328"/>
    </g>
   </g>
   <g id="patch_19">
    <path d="M 1104.531517 197.111268 
L 1074.745586 198.945156 
" style="fill: none; stroke: #000000; stroke-linecap: round"/>
   </g>
   <g id="text_18">
    <g id="patch_20">
     <path d="M 1106.893633 205.838327 
L 1152.069883 205.838327 
L 1152.069883 187.024577 
L 1106.893633 187.024577 
z
" style="fill: #ffffff; stroke: #000000; stroke-width: 0.72; stroke-linejoin: miter"/>
    </g>
    <!-- TOML -->
    <g style="fill: #2a475e" transform="translate(1110.493633 199.742702) scale(0.12 -0.12)">
     <use xlink:href="#DejaVuSans-Bold-54"/>
     <use xlink:href="#DejaVuSans-Bold-4f" x="68.212891"/>
     <use xlink:href="#DejaVuSans-Bold-4d" x="153.222656"/>
     <use xlink:href="#DejaVuSans-Bold-4c" x="252.734375"/>
    </g>
   </g>
   <g id="patch_21">
    <path d="M 1069.175209 189.178619 
C 1067.097495 177.39532 1063.0628 166.042271 1057.238501 155.590449 
C 1051.414202 145.138627 1043.881969 135.734588 1034.954272 127.768456 
C 1026.026574 119.802323 1015.828599 113.385799 1004.783404 108.78507 
C 993.738209 104.18434 982.000672 101.463917 970.057719 100.736657 
C 958.114765 100.009397 946.133862 101.285497 934.61203 104.512018 
C 923.090199 107.73854 912.189 112.87024 902.360665 119.694233 
C 892.532331 126.518226 883.914674 134.938825 876.865196 144.606704 
C 869.815718 154.274584 864.433266 165.054181 860.94113 176.498307 
C 857.448993 187.942433 855.89614 199.890618 856.346988 211.847197 
C 856.797836 223.803776 859.246064 235.601092 863.590108 246.749738 
C 867.934153 257.898385 874.113101 268.242034 881.870622 277.351585 
C 889.628143 286.461135 898.85546 294.208852 909.169781 300.273323 
C 919.484102 306.337795 930.7408 310.633985 942.472894 312.983668 
C 954.204988 315.333351 966.24797 315.70358 978.102242 314.078995 
C 989.956514 312.45441 1001.455854 308.857792 1012.123217 303.438344 
C 1022.79058 298.018897 1032.476387 290.852613 1040.778826 282.236782 
L 1002.158325 245.021061 
C 998.007105 249.328977 993.164202 252.912119 987.83052 255.621842 
C 982.496839 258.331566 976.747169 260.129875 970.820033 260.942168 
C 964.892897 261.75446 958.871406 261.569346 953.005359 260.394504 
C 947.139312 259.219663 941.510963 257.071568 936.353802 254.039332 
C 931.196642 251.007096 926.582983 247.133238 922.704223 242.578462 
C 918.825462 238.023687 915.735988 232.851862 913.563966 227.277539 
C 911.391944 221.703216 910.16783 215.804558 909.942406 209.826269 
C 909.716982 203.847979 910.493409 197.873887 912.239477 192.151824 
C 913.985545 186.42976 916.676771 181.039962 920.20151 176.206022 
C 923.726249 171.372083 928.035077 167.161783 932.949244 163.749787 
C 937.863412 160.33779 943.314011 157.77194 949.074927 156.158679 
C 954.835843 154.545418 960.826294 153.907369 966.797771 154.270999 
C 972.769248 154.634629 978.638017 155.99484 984.160614 158.295205 
C 989.683211 160.59557 994.782199 163.803832 999.246048 167.786898 
C 1003.709896 171.769964 1007.476013 176.471983 1010.388163 181.697894 
C 1013.300312 186.923805 1015.317659 192.60033 1016.356516 198.49198 
z
" style="fill: #092436; opacity: 0.5; stroke: #092436; stroke-width: 4; stroke-linejoin: miter"/>
   </g>
   <g id="patch_22">
    <path d="M 1049.402686 288.615742 
C 1052.62942 285.267209 1055.635006 281.712368 1058.40039 277.973773 
C 1061.165775 274.235179 1063.685114 270.320734 1065.942474 266.255174 
L 1019.052084 240.219731 
C 1017.923404 242.252512 1016.663734 244.209734 1015.281042 246.079031 
C 1013.89835 247.948328 1012.395557 249.725749 1010.78219 251.400016 
z
" style="fill: #4d2604; opacity: 0.5; stroke: #4d2604; stroke-width: 4; stroke-linejoin: miter"/>
   </g>
   <g id="patch_23">
    <path d="M 1067.22936 263.979767 
C 1069.21377 260.405798 1070.992256 256.72131 1072.556108 252.944341 
C 1074.11996 249.167372 1075.466634 245.304089 1076.589518 241.373408 
L 1025.019048 226.641145 
C 1024.457606 228.606485 1023.784269 230.538127 1023.002343 232.426611 
C 1022.220417 234.315096 1021.331175 236.15734 1020.338969 237.944324 
z
" style="fill: #0d300d; opacity: 0.5; stroke: #0d300d; stroke-width: 4; stroke-linejoin: miter"/>
   </g>
   <g id="patch_24">
    <path d="M 1077.259946 239.030747 
C 1078.373566 235.1325 1079.265296 231.174255 1079.930826 227.175063 
C 1080.596356 223.175872 1081.034625 219.142163 1081.243524 215.093357 
L 1027.681265 212.329788 
C 1027.576816 214.354191 1027.357681 216.371046 1027.024916 218.370642 
C 1026.692151 220.370237 1026.246286 222.34936 1025.689476 224.298483 
z
" style="fill: #400c0c; opacity: 0.5; stroke: #400c0c; stroke-width: 4; stroke-linejoin: miter"/>
   </g>
   <g id="patch_25">
    <path d="M 1081.368769 212.673285 
C 1081.577092 208.635709 1081.556978 204.589583 1081.308528 200.554277 
C 1081.060079 196.518971 1080.583684 192.500938 1079.881634 188.519412 
L 1027.062942 197.83278 
C 1027.413968 199.823543 1027.652165 201.83256 1027.77639 203.850213 
C 1027.900614 205.867866 1027.910671 207.890929 1027.80651 209.909717 
z
" style="fill: #2c1f39; opacity: 0.5; stroke: #2c1f39; stroke-width: 4; stroke-linejoin: miter"/>
   </g>
   <g id="patch_26">
    <path d="M 1071.320549 187.033279 
C 1069.242836 175.249979 1065.208141 163.89693 1059.383842 153.445108 
C 1053.559543 142.993286 1046.027309 133.589248 1037.099612 125.623115 
C 1028.171915 117.656983 1017.973939 111.240459 1006.928745 106.639729 
C 995.88355 102.039 984.146012 99.318577 972.203059 98.591317 
C 960.260106 97.864057 948.279202 99.140156 936.75737 102.366678 
C 925.235539 105.593199 914.33434 110.7249 904.506006 117.548893 
C 894.677671 124.372886 886.060015 132.793485 879.010536 142.461364 
C 871.961058 152.129244 866.578606 162.90884 863.08647 174.352967 
C 859.594334 185.797093 858.04148 197.745278 858.492328 209.701857 
C 858.943176 221.658436 861.391404 233.455752 865.735449 244.604398 
C 870.079493 255.753044 876.258441 266.096694 884.015962 275.206244 
C 891.773483 284.315795 901.0008 292.063511 911.315121 298.127983 
C 921.629443 304.192455 932.88614 308.488645 944.618234 310.838328 
C 956.350328 313.188011 968.39331 313.558239 980.247582 311.933655 
C 992.101854 310.30907 1003.601194 306.712451 1014.268557 301.293004 
C 1024.93592 295.873557 1034.621727 288.707273 1042.924166 280.091442 
L 1004.303665 242.875721 
C 1000.152445 247.183636 995.309542 250.766778 989.975861 253.476502 
C 984.642179 256.186226 978.892509 257.984535 972.965373 258.796827 
C 967.038237 259.60912 961.016746 259.424005 955.150699 258.249164 
C 949.284652 257.074322 943.656303 254.926227 938.499143 251.893992 
C 933.341982 248.861756 928.728324 244.987897 924.849563 240.433122 
C 920.970803 235.878347 917.881328 230.706522 915.709306 225.132199 
C 913.537284 219.557876 912.31317 213.659218 912.087746 207.680928 
C 911.862322 201.702639 912.638749 195.728546 914.384817 190.006483 
C 916.130885 184.28442 918.822111 178.894622 922.34685 174.060682 
C 925.871589 169.226742 930.180417 165.016443 935.094585 161.604446 
C 940.008752 158.19245 945.459351 155.6266 951.220267 154.013339 
C 956.981183 152.400078 962.971635 151.762028 968.943111 152.125658 
C 974.914588 152.489289 980.783357 153.8495 986.305954 156.149865 
C 991.828552 158.450229 996.927539 161.658492 1001.391388 165.641558 
C 1005.855236 169.624624 1009.621353 174.326643 1012.533503 179.552554 
C 1015.445652 184.778465 1017.463 190.45499 1018.501857 196.346639 
z
" style="fill: #1f77b4; stroke: #ffffff; stroke-width: 4; stroke-linejoin: miter"/>
   </g>
   <g id="patch_27">
    <path d="M 1051.548026 286.470402 
C 1054.77476 283.121869 1057.780346 279.567027 1060.545731 275.828433 
C 1063.311115 272.089839 1065.830454 268.175394 1068.087815 264.109834 
L 1021.197424 238.074391 
C 1020.068744 240.107171 1018.809074 242.064394 1017.426382 243.933691 
C 1016.04369 245.802988 1014.540897 247.580409 1012.92753 249.254675 
z
" style="fill: #ff7f0e; stroke: #ffffff; stroke-width: 4; stroke-linejoin: miter"/>
   </g>
   <g id="patch_28">
    <path d="M 1069.3747 261.834426 
C 1071.359111 258.260458 1073.137596 254.575969 1074.701448 250.799001 
C 1076.2653 247.022032 1077.611974 243.158749 1078.734858 239.228068 
L 1027.164389 224.495805 
C 1026.602946 226.461145 1025.92961 228.392787 1025.147684 230.281271 
C 1024.365758 232.169755 1023.476515 234.012 1022.484309 235.798984 
z
" style="fill: #2ca02c; stroke: #ffffff; stroke-width: 4; stroke-linejoin: miter"/>
   </g>
   <g id="patch_29">
    <path d="M 1079.405286 236.885406 
C 1080.518906 232.98716 1081.410636 229.028915 1082.076166 225.029723 
C 1082.741696 221.030532 1083.179966 216.996822 1083.388864 212.948017 
L 1029.826605 210.184448 
C 1029.722156 212.208851 1029.503021 214.225706 1029.170256 216.225301 
C 1028.837491 218.224897 1028.391626 220.20402 1027.834816 222.153143 
z
" style="fill: #d62728; stroke: #ffffff; stroke-width: 4; stroke-linejoin: miter"/>
   </g>
   <g id="patch_30">
    <path d="M 1083.514109 210.527945 
C 1083.722432 206.490369 1083.702318 202.444243 1083.453868 198.408937 
C 1083.205419 194.373631 1082.729025 190.355598 1082.026974 186.374072 
L 1029.208283 195.68744 
C 1029.559308 197.678203 1029.797505 199.687219 1029.92173 201.704872 
C 1030.045954 203.722525 1030.056012 205.745588 1029.95185 207.764377 
z
" style="fill: #9467bd; stroke: #ffffff; stroke-width: 4; stroke-linejoin: miter"/>
   </g>
   <g id="matplotlib.axis_3"/>
   <g id="matplotlib.axis_4"/>
   <g id="text_19">
    <!-- Languages -->
    <g style="fill: #2a475e" transform="translate(935.105039 208.34125) scale(0.1 -0.1)">
     <use xlink:href="#DejaVuSans-Bold-4c"/>
     <use xlink:href="#DejaVuSans-Bold-61" x="63.720703"/>
     <use xlink:href="#DejaVuSans-Bold-6e" x="131.201172"/>
     <use xlink:href="#DejaVuSans-Bold-67" x="202.392578"/>
     <use xlink:href="#DejaVuSans-Bold-75" x="273.974609"/>
     <use xlink:href="#DejaVuSans-Bold-61" x="345.166016"/>
     <use xlink:href="#DejaVuSans-Bold-67" x="412.646484"/>
     <use xlink:href="#DejaVuSans-Bold-65" x="484.228516"/>
     <use xlink:href="#DejaVuSans-Bold-73" x="552.050781"/>
    </g>
   </g>
   <g id="text_20">
    <!-- Languages exploited : -->
    <g style="fill: #2a475e" transform="translate(890.710351 65.576235) scale(0.12 -0.12)">
     <use xlink:href="#DejaVuSans-Bold-4c"/>
     <use xlink:href="#DejaVuSans-Bold-61" x="63.720703"/>
     <use xlink:href="#DejaVuSans-Bold-6e" x="131.201172"/>
     <use xlink:href="#DejaVuSans-Bold-67" x="202.392578"/>
     <use xlink:href="#DejaVuSans-Bold-75" x="273.974609"/>
     <use xlink:href="#DejaVuSans-Bold-61" x="345.166016"/>
     <use xlink:href="#DejaVuSans-Bold-67" x="412.646484"/>
     <use xlink:href="#DejaVuSans-Bold-65" x="484.228516"/>
     <use xlink:href="#DejaVuSans-Bold-73" x="552.050781"/>
     <use xlink:href="#DejaVuSans-Bold-20" x="611.572266"/>
     <use xlink:href="#DejaVuSans-Bold-65" x="646.386719"/>
     <use xlink:href="#DejaVuSans-Bold-78" x="714.208984"/>
     <use xlink:href="#DejaVuSans-Bold-70" x="778.710938"/>
     <use xlink:href="#DejaVuSans-Bold-6c" x="850.292969"/>
     <use xlink:href="#DejaVuSans-Bold-6f" x="884.570312"/>
     <use xlink:href="#DejaVuSans-Bold-69" x="953.271484"/>
     <use xlink:href="#DejaVuSans-Bold-74" x="987.548828"/>
     <use xlink:href="#DejaVuSans-Bold-65" x="1035.351562"/>
     <use xlink:href="#DejaVuSans-Bold-64" x="1103.173828"/>
     <use xlink:href="#DejaVuSans-Bold-20" x="1174.755859"/>
     <use xlink:href="#DejaVuSans-Bold-3a" x="1209.570312"/>
    </g>
   </g>
  </g>
  <g id="text_21">
   <!-- From 28 April, 2025 to 28 May, 2025: 115 hrs 46 mins -->
   <g transform="translate(125.238594 29.995312) scale(0.3 -0.3)">
    <defs>
     <path id="DejaVuSans-Bold-2c" d="M 653 1209 
L 1778 1209 
L 1778 256 
L 1006 -909 
L 341 -909 
L 653 256 
L 653 1209 
z
" transform="scale(0.015625)"/>
     <path id="DejaVuSans-Bold-36" d="M 2316 2303 
Q 2000 2303 1842 2098 
Q 1684 1894 1684 1484 
Q 1684 1075 1842 870 
Q 2000 666 2316 666 
Q 2634 666 2792 870 
Q 2950 1075 2950 1484 
Q 2950 1894 2792 2098 
Q 2634 2303 2316 2303 
z
M 3803 4544 
L 3803 3681 
Q 3506 3822 3243 3889 
Q 2981 3956 2731 3956 
Q 2194 3956 1894 3657 
Q 1594 3359 1544 2772 
Q 1750 2925 1990 3001 
Q 2231 3078 2516 3078 
Q 3231 3078 3670 2659 
Q 4109 2241 4109 1563 
Q 4109 813 3618 361 
Q 3128 -91 2303 -91 
Q 1394 -91 895 523 
Q 397 1138 397 2266 
Q 397 3422 980 4083 
Q 1563 4744 2578 4744 
Q 2900 4744 3203 4694 
Q 3506 4644 3803 4544 
z
" transform="scale(0.015625)"/>
    </defs>
    <use xlink:href="#DejaVuSans-Bold-46"/>
    <use xlink:href="#DejaVuSans-Bold-72" x="61.935547"/>
    <use xlink:href="#DejaVuSans-Bold-6f" x="111.251953"/>
    <use xlink:href="#DejaVuSans-Bold-6d" x="179.953125"/>
    <use xlink:href="#DejaVuSans-Bold-20" x="284.152344"/>
    <use xlink:href="#DejaVuSans-Bold-32" x="318.966797"/>
    <use xlink:href="#DejaVuSans-Bold-38" x="388.546875"/>
    <use xlink:href="#DejaVuSans-Bold-20" x="458.126953"/>
    <use xlink:href="#DejaVuSans-Bold-41" x="492.941406"/>
    <use xlink:href="#DejaVuSans-Bold-70" x="570.333984"/>
    <use xlink:href="#DejaVuSans-Bold-72" x="641.916016"/>
    <use xlink:href="#DejaVuSans-Bold-69" x="691.232422"/>
    <use xlink:href="#DejaVuSans-Bold-6c" x="725.509766"/>
    <use xlink:href="#DejaVuSans-Bold-2c" x="759.787109"/>
    <use xlink:href="#DejaVuSans-Bold-20" x="797.775391"/>
    <use xlink:href="#DejaVuSans-Bold-32" x="832.589844"/>
    <use xlink:href="#DejaVuSans-Bold-30" x="902.169922"/>
    <use xlink:href="#DejaVuSans-Bold-32" x="971.75"/>
    <use xlink:href="#DejaVuSans-Bold-35" x="1041.330078"/>
    <use xlink:href="#DejaVuSans-Bold-20" x="1110.910156"/>
    <use xlink:href="#DejaVuSans-Bold-74" x="1145.724609"/>
    <use xlink:href="#DejaVuSans-Bold-6f" x="1193.527344"/>
    <use xlink:href="#DejaVuSans-Bold-20" x="1262.228516"/>
    <use xlink:href="#DejaVuSans-Bold-32" x="1297.042969"/>
    <use xlink:href="#DejaVuSans-Bold-38" x="1366.623047"/>
    <use xlink:href="#DejaVuSans-Bold-20" x="1436.203125"/>
    <use xlink:href="#DejaVuSans-Bold-4d" x="1471.017578"/>
    <use xlink:href="#DejaVuSans-Bold-61" x="1570.529297"/>
    <use xlink:href="#DejaVuSans-Bold-79" x="1634.884766"/>
    <use xlink:href="#DejaVuSans-Bold-2c" x="1692.320312"/>
    <use xlink:href="#DejaVuSans-Bold-20" x="1730.308594"/>
    <use xlink:href="#DejaVuSans-Bold-32" x="1765.123047"/>
    <use xlink:href="#DejaVuSans-Bold-30" x="1834.703125"/>
    <use xlink:href="#DejaVuSans-Bold-32" x="1904.283203"/>
    <use xlink:href="#DejaVuSans-Bold-35" x="1973.863281"/>
    <use xlink:href="#DejaVuSans-Bold-3a" x="2043.443359"/>
    <use xlink:href="#DejaVuSans-Bold-20" x="2083.433594"/>
    <use xlink:href="#DejaVuSans-Bold-31" x="2118.248047"/>
    <use xlink:href="#DejaVuSans-Bold-31" x="2187.828125"/>
    <use xlink:href="#DejaVuSans-Bold-35" x="2257.408203"/>
    <use xlink:href="#DejaVuSans-Bold-20" x="2326.988281"/>
    <use xlink:href="#DejaVuSans-Bold-68" x="2361.802734"/>
    <use xlink:href="#DejaVuSans-Bold-72" x="2432.994141"/>
    <use xlink:href="#DejaVuSans-Bold-73" x="2482.310547"/>
    <use xlink:href="#DejaVuSans-Bold-20" x="2541.832031"/>
    <use xlink:href="#DejaVuSans-Bold-34" x="2576.646484"/>
    <use xlink:href="#DejaVuSans-Bold-36" x="2646.226562"/>
    <use xlink:href="#DejaVuSans-Bold-20" x="2715.806641"/>
    <use xlink:href="#DejaVuSans-Bold-6d" x="2750.621094"/>
    <use xlink:href="#DejaVuSans-Bold-69" x="2854.820312"/>
    <use xlink:href="#DejaVuSans-Bold-6e" x="2889.097656"/>
    <use xlink:href="#DejaVuSans-Bold-73" x="2960.289062"/>
   </g>
  </g>
 </g>
 <defs>
  <clipPath id="pc50df5a4ed">
   <rect x="128.31875" y="56.32" width="536.335061" height="298.68"/>
  </clipPath>
 </defs>
</svg>
