<?xml version="1.0" encoding="utf-8" standalone="no"?>
<!DOCTYPE svg PUBLIC "-//W3C//DTD SVG 1.1//EN"
  "http://www.w3.org/Graphics/SVG/1.1/DTD/svg11.dtd">
<svg xmlns:xlink="http://www.w3.org/1999/xlink" width="1154.706733pt" height="362.2pt" viewBox="0 0 1154.706733 362.2" xmlns="http://www.w3.org/2000/svg" version="1.1">
 <metadata>
  <rdf:RDF xmlns:dc="http://purl.org/dc/elements/1.1/" xmlns:cc="http://creativecommons.org/ns#" xmlns:rdf="http://www.w3.org/1999/02/22-rdf-syntax-ns#">
   <cc:Work>
    <dc:type rdf:resource="http://purl.org/dc/dcmitype/StillImage"/>
    <dc:date>2024-09-02T00:35:44.060831</dc:date>
    <dc:format>image/svg+xml</dc:format>
    <dc:creator>
     <cc:Agent>
      <dc:title>Matplotlib v3.8.4, https://matplotlib.org/</dc:title>
     </cc:Agent>
    </dc:creator>
   </cc:Work>
  </rdf:RDF>
 </metadata>
 <defs>
  <style type="text/css">*{stroke-linejoin: round; stroke-linecap: butt}</style>
 </defs>
 <g id="figure_1">
  <g id="patch_1">
   <path d="M 0 362.2 
L 1154.706733 362.2 
L 1154.706733 0 
L 0 0 
L 0 362.2 
z
" style="fill: none"/>
  </g>
  <g id="axes_1">
   <g id="patch_2">
    <path d="M 228.209375 355 
L 697.82444 355 
L 697.82444 56.32 
L 228.209375 56.32 
L 228.209375 355 
z
" style="fill: none"/>
   </g>
   <g id="patch_3">
    <path d="M 228.209375 69.896364 
L 675.461818 69.896364 
L 675.461818 94.580661 
L 228.209375 94.580661 
z
" clip-path="url(#p239b229c84)" style="fill: #ff8225; stroke: #ff8225; stroke-linejoin: miter"/>
   </g>
   <g id="patch_4">
    <path d="M 228.209375 119.264959 
L 439.382206 119.264959 
L 439.382206 143.949256 
L 228.209375 143.949256 
z
" clip-path="url(#p239b229c84)" style="fill: #04e117; stroke: #04e117; stroke-linejoin: miter"/>
   </g>
   <g id="patch_5">
    <path d="M 228.209375 168.633554 
L 434.950938 168.633554 
L 434.950938 193.317851 
L 228.209375 193.317851 
z
" clip-path="url(#p239b229c84)" style="fill: #eafbb9; stroke: #eafbb9; stroke-linejoin: miter"/>
   </g>
   <g id="patch_6">
    <path d="M 228.209375 218.002149 
L 405.612889 218.002149 
L 405.612889 242.686446 
L 228.209375 242.686446 
z
" clip-path="url(#p239b229c84)" style="fill: #26e517; stroke: #26e517; stroke-linejoin: miter"/>
   </g>
   <g id="patch_7">
    <path d="M 228.209375 267.370744 
L 376.733247 267.370744 
L 376.733247 292.055041 
L 228.209375 292.055041 
z
" clip-path="url(#p239b229c84)" style="fill: #ccb723; stroke: #ccb723; stroke-linejoin: miter"/>
   </g>
   <g id="patch_8">
    <path d="M 228.209375 316.739339 
L 355.493722 316.739339 
L 355.493722 341.423636 
L 228.209375 341.423636 
z
" clip-path="url(#p239b229c84)" style="fill: #e0748f; stroke: #e0748f; stroke-linejoin: miter"/>
   </g>
   <g id="matplotlib.axis_1"/>
   <g id="matplotlib.axis_2">
    <g id="ytick_1">
     <g id="line2d_1">
      <defs>
       <path id="m2d5a35709f" d="M 0 0 
L -3.5 0 
" style="stroke: #000000; stroke-width: 0.8"/>
      </defs>
      <g>
       <use xlink:href="#m2d5a35709f" x="228.209375" y="82.238512" style="stroke: #000000; stroke-width: 0.8"/>
      </g>
     </g>
     <g id="text_1">
      <!-- NoteBooks -->
      <g style="fill: #586069" transform="translate(99.678125 89.83695) scale(0.2 -0.2)">
       <defs>
        <path id="DejaVuSans-Bold-4e" d="M 588 4666 
L 1931 4666 
L 3628 1466 
L 3628 4666 
L 4769 4666 
L 4769 0 
L 3425 0 
L 1728 3200 
L 1728 0 
L 588 0 
L 588 4666 
z
" transform="scale(0.015625)"/>
        <path id="DejaVuSans-Bold-6f" d="M 2203 2784 
Q 1831 2784 1636 2517 
Q 1441 2250 1441 1747 
Q 1441 1244 1636 976 
Q 1831 709 2203 709 
Q 2569 709 2762 976 
Q 2956 1244 2956 1747 
Q 2956 2250 2762 2517 
Q 2569 2784 2203 2784 
z
M 2203 3584 
Q 3106 3584 3614 3096 
Q 4122 2609 4122 1747 
Q 4122 884 3614 396 
Q 3106 -91 2203 -91 
Q 1297 -91 786 396 
Q 275 884 275 1747 
Q 275 2609 786 3096 
Q 1297 3584 2203 3584 
z
" transform="scale(0.015625)"/>
        <path id="DejaVuSans-Bold-74" d="M 1759 4494 
L 1759 3500 
L 2913 3500 
L 2913 2700 
L 1759 2700 
L 1759 1216 
Q 1759 972 1856 886 
Q 1953 800 2241 800 
L 2816 800 
L 2816 0 
L 1856 0 
Q 1194 0 917 276 
Q 641 553 641 1216 
L 641 2700 
L 84 2700 
L 84 3500 
L 641 3500 
L 641 4494 
L 1759 4494 
z
" transform="scale(0.015625)"/>
        <path id="DejaVuSans-Bold-65" d="M 4031 1759 
L 4031 1441 
L 1416 1441 
Q 1456 1047 1700 850 
Q 1944 653 2381 653 
Q 2734 653 3104 758 
Q 3475 863 3866 1075 
L 3866 213 
Q 3469 63 3072 -14 
Q 2675 -91 2278 -91 
Q 1328 -91 801 392 
Q 275 875 275 1747 
Q 275 2603 792 3093 
Q 1309 3584 2216 3584 
Q 3041 3584 3536 3087 
Q 4031 2591 4031 1759 
z
M 2881 2131 
Q 2881 2450 2695 2645 
Q 2509 2841 2209 2841 
Q 1884 2841 1681 2658 
Q 1478 2475 1428 2131 
L 2881 2131 
z
" transform="scale(0.015625)"/>
        <path id="DejaVuSans-Bold-42" d="M 2456 2859 
Q 2741 2859 2887 2984 
Q 3034 3109 3034 3353 
Q 3034 3594 2887 3720 
Q 2741 3847 2456 3847 
L 1791 3847 
L 1791 2859 
L 2456 2859 
z
M 2497 819 
Q 2859 819 3042 972 
Q 3225 1125 3225 1434 
Q 3225 1738 3044 1889 
Q 2863 2041 2497 2041 
L 1791 2041 
L 1791 819 
L 2497 819 
z
M 3616 2497 
Q 4003 2384 4215 2081 
Q 4428 1778 4428 1338 
Q 4428 663 3972 331 
Q 3516 0 2584 0 
L 588 0 
L 588 4666 
L 2394 4666 
Q 3366 4666 3802 4372 
Q 4238 4078 4238 3431 
Q 4238 3091 4078 2852 
Q 3919 2613 3616 2497 
z
" transform="scale(0.015625)"/>
        <path id="DejaVuSans-Bold-6b" d="M 538 4863 
L 1656 4863 
L 1656 2216 
L 2944 3500 
L 4244 3500 
L 2534 1894 
L 4378 0 
L 3022 0 
L 1656 1459 
L 1656 0 
L 538 0 
L 538 4863 
z
" transform="scale(0.015625)"/>
        <path id="DejaVuSans-Bold-73" d="M 3272 3391 
L 3272 2541 
Q 2913 2691 2578 2766 
Q 2244 2841 1947 2841 
Q 1628 2841 1473 2761 
Q 1319 2681 1319 2516 
Q 1319 2381 1436 2309 
Q 1553 2238 1856 2203 
L 2053 2175 
Q 2913 2066 3209 1816 
Q 3506 1566 3506 1031 
Q 3506 472 3093 190 
Q 2681 -91 1863 -91 
Q 1516 -91 1145 -36 
Q 775 19 384 128 
L 384 978 
Q 719 816 1070 734 
Q 1422 653 1784 653 
Q 2113 653 2278 743 
Q 2444 834 2444 1013 
Q 2444 1163 2330 1236 
Q 2216 1309 1875 1350 
L 1678 1375 
Q 931 1469 631 1722 
Q 331 1975 331 2491 
Q 331 3047 712 3315 
Q 1094 3584 1881 3584 
Q 2191 3584 2531 3537 
Q 2872 3491 3272 3391 
z
" transform="scale(0.015625)"/>
       </defs>
       <use xlink:href="#DejaVuSans-Bold-4e"/>
       <use xlink:href="#DejaVuSans-Bold-6f" x="83.691406"/>
       <use xlink:href="#DejaVuSans-Bold-74" x="152.392578"/>
       <use xlink:href="#DejaVuSans-Bold-65" x="200.195312"/>
       <use xlink:href="#DejaVuSans-Bold-42" x="268.017578"/>
       <use xlink:href="#DejaVuSans-Bold-6f" x="344.238281"/>
       <use xlink:href="#DejaVuSans-Bold-6f" x="412.939453"/>
       <use xlink:href="#DejaVuSans-Bold-6b" x="481.640625"/>
       <use xlink:href="#DejaVuSans-Bold-73" x="548.144531"/>
      </g>
     </g>
    </g>
    <g id="ytick_2">
     <g id="line2d_2">
      <g>
       <use xlink:href="#m2d5a35709f" x="228.209375" y="131.607107" style="stroke: #000000; stroke-width: 0.8"/>
      </g>
     </g>
     <g id="text_2">
      <!-- Trp-Cage -->
      <g style="fill: #586069" transform="translate(121.23125 139.12742) scale(0.2 -0.2)">
       <defs>
        <path id="DejaVuSans-Bold-54" d="M 31 4666 
L 4331 4666 
L 4331 3756 
L 2784 3756 
L 2784 0 
L 1581 0 
L 1581 3756 
L 31 3756 
L 31 4666 
z
" transform="scale(0.015625)"/>
        <path id="DejaVuSans-Bold-72" d="M 3138 2547 
Q 2991 2616 2845 2648 
Q 2700 2681 2553 2681 
Q 2122 2681 1889 2404 
Q 1656 2128 1656 1613 
L 1656 0 
L 538 0 
L 538 3500 
L 1656 3500 
L 1656 2925 
Q 1872 3269 2151 3426 
Q 2431 3584 2822 3584 
Q 2878 3584 2943 3579 
Q 3009 3575 3134 3559 
L 3138 2547 
z
" transform="scale(0.015625)"/>
        <path id="DejaVuSans-Bold-70" d="M 1656 506 
L 1656 -1331 
L 538 -1331 
L 538 3500 
L 1656 3500 
L 1656 2988 
Q 1888 3294 2169 3439 
Q 2450 3584 2816 3584 
Q 3463 3584 3878 3070 
Q 4294 2556 4294 1747 
Q 4294 938 3878 423 
Q 3463 -91 2816 -91 
Q 2450 -91 2169 54 
Q 1888 200 1656 506 
z
M 2400 2772 
Q 2041 2772 1848 2508 
Q 1656 2244 1656 1747 
Q 1656 1250 1848 986 
Q 2041 722 2400 722 
Q 2759 722 2948 984 
Q 3138 1247 3138 1747 
Q 3138 2247 2948 2509 
Q 2759 2772 2400 2772 
z
" transform="scale(0.015625)"/>
        <path id="DejaVuSans-Bold-2d" d="M 347 2297 
L 2309 2297 
L 2309 1388 
L 347 1388 
L 347 2297 
z
" transform="scale(0.015625)"/>
        <path id="DejaVuSans-Bold-43" d="M 4288 256 
Q 3956 84 3597 -3 
Q 3238 -91 2847 -91 
Q 1681 -91 1000 561 
Q 319 1213 319 2328 
Q 319 3447 1000 4098 
Q 1681 4750 2847 4750 
Q 3238 4750 3597 4662 
Q 3956 4575 4288 4403 
L 4288 3438 
Q 3953 3666 3628 3772 
Q 3303 3878 2944 3878 
Q 2300 3878 1931 3465 
Q 1563 3053 1563 2328 
Q 1563 1606 1931 1193 
Q 2300 781 2944 781 
Q 3303 781 3628 887 
Q 3953 994 4288 1222 
L 4288 256 
z
" transform="scale(0.015625)"/>
        <path id="DejaVuSans-Bold-61" d="M 2106 1575 
Q 1756 1575 1579 1456 
Q 1403 1338 1403 1106 
Q 1403 894 1545 773 
Q 1688 653 1941 653 
Q 2256 653 2472 879 
Q 2688 1106 2688 1447 
L 2688 1575 
L 2106 1575 
z
M 3816 1997 
L 3816 0 
L 2688 0 
L 2688 519 
Q 2463 200 2181 54 
Q 1900 -91 1497 -91 
Q 953 -91 614 226 
Q 275 544 275 1050 
Q 275 1666 698 1953 
Q 1122 2241 2028 2241 
L 2688 2241 
L 2688 2328 
Q 2688 2594 2478 2717 
Q 2269 2841 1825 2841 
Q 1466 2841 1156 2769 
Q 847 2697 581 2553 
L 581 3406 
Q 941 3494 1303 3539 
Q 1666 3584 2028 3584 
Q 2975 3584 3395 3211 
Q 3816 2838 3816 1997 
z
" transform="scale(0.015625)"/>
        <path id="DejaVuSans-Bold-67" d="M 2919 594 
Q 2688 288 2409 144 
Q 2131 0 1766 0 
Q 1125 0 706 504 
Q 288 1009 288 1791 
Q 288 2575 706 3076 
Q 1125 3578 1766 3578 
Q 2131 3578 2409 3434 
Q 2688 3291 2919 2981 
L 2919 3500 
L 4044 3500 
L 4044 353 
Q 4044 -491 3511 -936 
Q 2978 -1381 1966 -1381 
Q 1638 -1381 1331 -1331 
Q 1025 -1281 716 -1178 
L 716 -306 
Q 1009 -475 1290 -558 
Q 1572 -641 1856 -641 
Q 2406 -641 2662 -400 
Q 2919 -159 2919 353 
L 2919 594 
z
M 2181 2772 
Q 1834 2772 1640 2515 
Q 1447 2259 1447 1791 
Q 1447 1309 1634 1061 
Q 1822 813 2181 813 
Q 2531 813 2725 1069 
Q 2919 1325 2919 1791 
Q 2919 2259 2725 2515 
Q 2531 2772 2181 2772 
z
" transform="scale(0.015625)"/>
       </defs>
       <use xlink:href="#DejaVuSans-Bold-54"/>
       <use xlink:href="#DejaVuSans-Bold-72" x="57.212891"/>
       <use xlink:href="#DejaVuSans-Bold-70" x="106.529297"/>
       <use xlink:href="#DejaVuSans-Bold-2d" x="178.111328"/>
       <use xlink:href="#DejaVuSans-Bold-43" x="219.615234"/>
       <use xlink:href="#DejaVuSans-Bold-61" x="293.003906"/>
       <use xlink:href="#DejaVuSans-Bold-67" x="360.484375"/>
       <use xlink:href="#DejaVuSans-Bold-65" x="432.066406"/>
      </g>
     </g>
    </g>
    <g id="ytick_3">
     <g id="line2d_3">
      <g>
       <use xlink:href="#m2d5a35709f" x="228.209375" y="180.975702" style="stroke: #000000; stroke-width: 0.8"/>
      </g>
     </g>
     <g id="text_3">
      <!-- Templates -->
      <g style="fill: #586069" transform="translate(106.1125 188.57414) scale(0.2 -0.2)">
       <defs>
        <path id="DejaVuSans-Bold-6d" d="M 3781 2919 
Q 3994 3244 4286 3414 
Q 4578 3584 4928 3584 
Q 5531 3584 5847 3212 
Q 6163 2841 6163 2131 
L 6163 0 
L 5038 0 
L 5038 1825 
Q 5041 1866 5042 1909 
Q 5044 1953 5044 2034 
Q 5044 2406 4934 2573 
Q 4825 2741 4581 2741 
Q 4263 2741 4089 2478 
Q 3916 2216 3909 1719 
L 3909 0 
L 2784 0 
L 2784 1825 
Q 2784 2406 2684 2573 
Q 2584 2741 2328 2741 
Q 2006 2741 1831 2477 
Q 1656 2213 1656 1722 
L 1656 0 
L 531 0 
L 531 3500 
L 1656 3500 
L 1656 2988 
Q 1863 3284 2130 3434 
Q 2397 3584 2719 3584 
Q 3081 3584 3359 3409 
Q 3638 3234 3781 2919 
z
" transform="scale(0.015625)"/>
        <path id="DejaVuSans-Bold-6c" d="M 538 4863 
L 1656 4863 
L 1656 0 
L 538 0 
L 538 4863 
z
" transform="scale(0.015625)"/>
       </defs>
       <use xlink:href="#DejaVuSans-Bold-54"/>
       <use xlink:href="#DejaVuSans-Bold-65" x="54.962891"/>
       <use xlink:href="#DejaVuSans-Bold-6d" x="122.785156"/>
       <use xlink:href="#DejaVuSans-Bold-70" x="226.984375"/>
       <use xlink:href="#DejaVuSans-Bold-6c" x="298.566406"/>
       <use xlink:href="#DejaVuSans-Bold-61" x="332.84375"/>
       <use xlink:href="#DejaVuSans-Bold-74" x="400.324219"/>
       <use xlink:href="#DejaVuSans-Bold-65" x="448.126953"/>
       <use xlink:href="#DejaVuSans-Bold-73" x="515.949219"/>
      </g>
     </g>
    </g>
    <g id="ytick_4">
     <g id="line2d_4">
      <g>
       <use xlink:href="#m2d5a35709f" x="228.209375" y="230.344298" style="stroke: #000000; stroke-width: 0.8"/>
      </g>
     </g>
     <g id="text_4">
      <!-- SERB -->
      <g style="fill: #586069" transform="translate(162.5 237.942735) scale(0.2 -0.2)">
       <defs>
        <path id="DejaVuSans-Bold-53" d="M 3834 4519 
L 3834 3531 
Q 3450 3703 3084 3790 
Q 2719 3878 2394 3878 
Q 1963 3878 1756 3759 
Q 1550 3641 1550 3391 
Q 1550 3203 1689 3098 
Q 1828 2994 2194 2919 
L 2706 2816 
Q 3484 2659 3812 2340 
Q 4141 2022 4141 1434 
Q 4141 663 3683 286 
Q 3225 -91 2284 -91 
Q 1841 -91 1394 -6 
Q 947 78 500 244 
L 500 1259 
Q 947 1022 1364 901 
Q 1781 781 2169 781 
Q 2563 781 2772 912 
Q 2981 1044 2981 1288 
Q 2981 1506 2839 1625 
Q 2697 1744 2272 1838 
L 1806 1941 
Q 1106 2091 782 2419 
Q 459 2747 459 3303 
Q 459 4000 909 4375 
Q 1359 4750 2203 4750 
Q 2588 4750 2994 4692 
Q 3400 4634 3834 4519 
z
" transform="scale(0.015625)"/>
        <path id="DejaVuSans-Bold-45" d="M 588 4666 
L 3834 4666 
L 3834 3756 
L 1791 3756 
L 1791 2888 
L 3713 2888 
L 3713 1978 
L 1791 1978 
L 1791 909 
L 3903 909 
L 3903 0 
L 588 0 
L 588 4666 
z
" transform="scale(0.015625)"/>
        <path id="DejaVuSans-Bold-52" d="M 2297 2597 
Q 2675 2597 2839 2737 
Q 3003 2878 3003 3200 
Q 3003 3519 2839 3656 
Q 2675 3794 2297 3794 
L 1791 3794 
L 1791 2597 
L 2297 2597 
z
M 1791 1766 
L 1791 0 
L 588 0 
L 588 4666 
L 2425 4666 
Q 3347 4666 3776 4356 
Q 4206 4047 4206 3378 
Q 4206 2916 3982 2619 
Q 3759 2322 3309 2181 
Q 3556 2125 3751 1926 
Q 3947 1728 4147 1325 
L 4800 0 
L 3519 0 
L 2950 1159 
Q 2778 1509 2601 1637 
Q 2425 1766 2131 1766 
L 1791 1766 
z
" transform="scale(0.015625)"/>
       </defs>
       <use xlink:href="#DejaVuSans-Bold-53"/>
       <use xlink:href="#DejaVuSans-Bold-45" x="72.021484"/>
       <use xlink:href="#DejaVuSans-Bold-52" x="140.332031"/>
       <use xlink:href="#DejaVuSans-Bold-42" x="217.333984"/>
      </g>
     </g>
    </g>
    <g id="ytick_5">
     <g id="line2d_5">
      <g>
       <use xlink:href="#m2d5a35709f" x="228.209375" y="279.712893" style="stroke: #000000; stroke-width: 0.8"/>
      </g>
     </g>
     <g id="text_5">
      <!-- Sarkar -->
      <g style="fill: #586069" transform="translate(146.7875 287.31133) scale(0.2 -0.2)">
       <use xlink:href="#DejaVuSans-Bold-53"/>
       <use xlink:href="#DejaVuSans-Bold-61" x="72.021484"/>
       <use xlink:href="#DejaVuSans-Bold-72" x="139.501953"/>
       <use xlink:href="#DejaVuSans-Bold-6b" x="188.818359"/>
       <use xlink:href="#DejaVuSans-Bold-61" x="255.322266"/>
       <use xlink:href="#DejaVuSans-Bold-72" x="322.802734"/>
      </g>
     </g>
    </g>
    <g id="ytick_6">
     <g id="line2d_6">
      <g>
       <use xlink:href="#m2d5a35709f" x="228.209375" y="329.081488" style="stroke: #000000; stroke-width: 0.8"/>
      </g>
     </g>
     <g id="text_6">
      <!-- namusite.github.io -->
      <g style="fill: #586069" transform="translate(7.2 336.679925) scale(0.2 -0.2)">
       <defs>
        <path id="DejaVuSans-Bold-6e" d="M 4056 2131 
L 4056 0 
L 2931 0 
L 2931 347 
L 2931 1631 
Q 2931 2084 2911 2256 
Q 2891 2428 2841 2509 
Q 2775 2619 2662 2680 
Q 2550 2741 2406 2741 
Q 2056 2741 1856 2470 
Q 1656 2200 1656 1722 
L 1656 0 
L 538 0 
L 538 3500 
L 1656 3500 
L 1656 2988 
Q 1909 3294 2193 3439 
Q 2478 3584 2822 3584 
Q 3428 3584 3742 3212 
Q 4056 2841 4056 2131 
z
" transform="scale(0.015625)"/>
        <path id="DejaVuSans-Bold-75" d="M 500 1363 
L 500 3500 
L 1625 3500 
L 1625 3150 
Q 1625 2866 1622 2436 
Q 1619 2006 1619 1863 
Q 1619 1441 1641 1255 
Q 1663 1069 1716 984 
Q 1784 875 1895 815 
Q 2006 756 2150 756 
Q 2500 756 2700 1025 
Q 2900 1294 2900 1772 
L 2900 3500 
L 4019 3500 
L 4019 0 
L 2900 0 
L 2900 506 
Q 2647 200 2364 54 
Q 2081 -91 1741 -91 
Q 1134 -91 817 281 
Q 500 653 500 1363 
z
" transform="scale(0.015625)"/>
        <path id="DejaVuSans-Bold-69" d="M 538 3500 
L 1656 3500 
L 1656 0 
L 538 0 
L 538 3500 
z
M 538 4863 
L 1656 4863 
L 1656 3950 
L 538 3950 
L 538 4863 
z
" transform="scale(0.015625)"/>
        <path id="DejaVuSans-Bold-2e" d="M 653 1209 
L 1778 1209 
L 1778 0 
L 653 0 
L 653 1209 
z
" transform="scale(0.015625)"/>
        <path id="DejaVuSans-Bold-68" d="M 4056 2131 
L 4056 0 
L 2931 0 
L 2931 347 
L 2931 1625 
Q 2931 2084 2911 2256 
Q 2891 2428 2841 2509 
Q 2775 2619 2662 2680 
Q 2550 2741 2406 2741 
Q 2056 2741 1856 2470 
Q 1656 2200 1656 1722 
L 1656 0 
L 538 0 
L 538 4863 
L 1656 4863 
L 1656 2988 
Q 1909 3294 2193 3439 
Q 2478 3584 2822 3584 
Q 3428 3584 3742 3212 
Q 4056 2841 4056 2131 
z
" transform="scale(0.015625)"/>
        <path id="DejaVuSans-Bold-62" d="M 2400 722 
Q 2759 722 2948 984 
Q 3138 1247 3138 1747 
Q 3138 2247 2948 2509 
Q 2759 2772 2400 2772 
Q 2041 2772 1848 2508 
Q 1656 2244 1656 1747 
Q 1656 1250 1848 986 
Q 2041 722 2400 722 
z
M 1656 2988 
Q 1888 3294 2169 3439 
Q 2450 3584 2816 3584 
Q 3463 3584 3878 3070 
Q 4294 2556 4294 1747 
Q 4294 938 3878 423 
Q 3463 -91 2816 -91 
Q 2450 -91 2169 54 
Q 1888 200 1656 506 
L 1656 0 
L 538 0 
L 538 4863 
L 1656 4863 
L 1656 2988 
z
" transform="scale(0.015625)"/>
       </defs>
       <use xlink:href="#DejaVuSans-Bold-6e"/>
       <use xlink:href="#DejaVuSans-Bold-61" x="71.191406"/>
       <use xlink:href="#DejaVuSans-Bold-6d" x="138.671875"/>
       <use xlink:href="#DejaVuSans-Bold-75" x="242.871094"/>
       <use xlink:href="#DejaVuSans-Bold-73" x="314.0625"/>
       <use xlink:href="#DejaVuSans-Bold-69" x="373.583984"/>
       <use xlink:href="#DejaVuSans-Bold-74" x="407.861328"/>
       <use xlink:href="#DejaVuSans-Bold-65" x="455.664062"/>
       <use xlink:href="#DejaVuSans-Bold-2e" x="523.486328"/>
       <use xlink:href="#DejaVuSans-Bold-67" x="561.474609"/>
       <use xlink:href="#DejaVuSans-Bold-69" x="633.056641"/>
       <use xlink:href="#DejaVuSans-Bold-74" x="667.333984"/>
       <use xlink:href="#DejaVuSans-Bold-68" x="715.136719"/>
       <use xlink:href="#DejaVuSans-Bold-75" x="786.328125"/>
       <use xlink:href="#DejaVuSans-Bold-62" x="857.519531"/>
       <use xlink:href="#DejaVuSans-Bold-2e" x="929.101562"/>
       <use xlink:href="#DejaVuSans-Bold-69" x="967.089844"/>
       <use xlink:href="#DejaVuSans-Bold-6f" x="1001.367188"/>
      </g>
     </g>
    </g>
   </g>
   <g id="patch_9">
    <path d="M 228.209375 355 
L 228.209375 56.32 
" style="fill: none; stroke: #000000; stroke-width: 0.8; stroke-linejoin: miter; stroke-linecap: square"/>
   </g>
   <g id="patch_10">
    <path d="M 228.209375 355 
L 697.82444 355 
" style="fill: none; stroke: #000000; stroke-width: 0.8; stroke-linejoin: miter; stroke-linecap: square"/>
   </g>
   <g id="text_7">
    <!-- 33 hrs 29 mins -->
    <g style="fill: #586069" transform="translate(679.461818 86.377575) scale(0.15 -0.15)">
     <defs>
      <path id="DejaVuSans-Bold-33" d="M 2981 2516 
Q 3453 2394 3698 2092 
Q 3944 1791 3944 1325 
Q 3944 631 3412 270 
Q 2881 -91 1863 -91 
Q 1503 -91 1142 -33 
Q 781 25 428 141 
L 428 1069 
Q 766 900 1098 814 
Q 1431 728 1753 728 
Q 2231 728 2486 893 
Q 2741 1059 2741 1369 
Q 2741 1688 2480 1852 
Q 2219 2016 1709 2016 
L 1228 2016 
L 1228 2791 
L 1734 2791 
Q 2188 2791 2409 2933 
Q 2631 3075 2631 3366 
Q 2631 3634 2415 3781 
Q 2200 3928 1806 3928 
Q 1516 3928 1219 3862 
Q 922 3797 628 3669 
L 628 4550 
Q 984 4650 1334 4700 
Q 1684 4750 2022 4750 
Q 2931 4750 3382 4451 
Q 3834 4153 3834 3553 
Q 3834 3144 3618 2883 
Q 3403 2622 2981 2516 
z
" transform="scale(0.015625)"/>
      <path id="DejaVuSans-Bold-20" transform="scale(0.015625)"/>
      <path id="DejaVuSans-Bold-32" d="M 1844 884 
L 3897 884 
L 3897 0 
L 506 0 
L 506 884 
L 2209 2388 
Q 2438 2594 2547 2791 
Q 2656 2988 2656 3200 
Q 2656 3528 2436 3728 
Q 2216 3928 1850 3928 
Q 1569 3928 1234 3808 
Q 900 3688 519 3450 
L 519 4475 
Q 925 4609 1322 4679 
Q 1719 4750 2100 4750 
Q 2938 4750 3402 4381 
Q 3866 4013 3866 3353 
Q 3866 2972 3669 2642 
Q 3472 2313 2841 1759 
L 1844 884 
z
" transform="scale(0.015625)"/>
      <path id="DejaVuSans-Bold-39" d="M 641 103 
L 641 966 
Q 928 831 1190 764 
Q 1453 697 1709 697 
Q 2247 697 2547 995 
Q 2847 1294 2900 1881 
Q 2688 1725 2447 1647 
Q 2206 1569 1925 1569 
Q 1209 1569 770 1986 
Q 331 2403 331 3084 
Q 331 3838 820 4291 
Q 1309 4744 2131 4744 
Q 3044 4744 3544 4128 
Q 4044 3513 4044 2388 
Q 4044 1231 3459 570 
Q 2875 -91 1856 -91 
Q 1528 -91 1228 -42 
Q 928 6 641 103 
z
M 2125 2350 
Q 2441 2350 2600 2554 
Q 2759 2759 2759 3169 
Q 2759 3575 2600 3781 
Q 2441 3988 2125 3988 
Q 1809 3988 1650 3781 
Q 1491 3575 1491 3169 
Q 1491 2759 1650 2554 
Q 1809 2350 2125 2350 
z
" transform="scale(0.015625)"/>
     </defs>
     <use xlink:href="#DejaVuSans-Bold-33"/>
     <use xlink:href="#DejaVuSans-Bold-33" x="69.580078"/>
     <use xlink:href="#DejaVuSans-Bold-20" x="139.160156"/>
     <use xlink:href="#DejaVuSans-Bold-68" x="173.974609"/>
     <use xlink:href="#DejaVuSans-Bold-72" x="245.166016"/>
     <use xlink:href="#DejaVuSans-Bold-73" x="294.482422"/>
     <use xlink:href="#DejaVuSans-Bold-20" x="354.003906"/>
     <use xlink:href="#DejaVuSans-Bold-32" x="388.818359"/>
     <use xlink:href="#DejaVuSans-Bold-39" x="458.398438"/>
     <use xlink:href="#DejaVuSans-Bold-20" x="527.978516"/>
     <use xlink:href="#DejaVuSans-Bold-6d" x="562.792969"/>
     <use xlink:href="#DejaVuSans-Bold-69" x="666.992188"/>
     <use xlink:href="#DejaVuSans-Bold-6e" x="701.269531"/>
     <use xlink:href="#DejaVuSans-Bold-73" x="772.460938"/>
    </g>
   </g>
   <g id="text_8">
    <!-- 15 hrs 48 mins -->
    <g style="fill: #586069" transform="translate(443.382206 135.74617) scale(0.15 -0.15)">
     <defs>
      <path id="DejaVuSans-Bold-31" d="M 750 831 
L 1813 831 
L 1813 3847 
L 722 3622 
L 722 4441 
L 1806 4666 
L 2950 4666 
L 2950 831 
L 4013 831 
L 4013 0 
L 750 0 
L 750 831 
z
" transform="scale(0.015625)"/>
      <path id="DejaVuSans-Bold-35" d="M 678 4666 
L 3669 4666 
L 3669 3781 
L 1638 3781 
L 1638 3059 
Q 1775 3097 1914 3117 
Q 2053 3138 2203 3138 
Q 3056 3138 3531 2711 
Q 4006 2284 4006 1522 
Q 4006 766 3489 337 
Q 2972 -91 2053 -91 
Q 1656 -91 1267 -14 
Q 878 63 494 219 
L 494 1166 
Q 875 947 1217 837 
Q 1559 728 1863 728 
Q 2300 728 2551 942 
Q 2803 1156 2803 1522 
Q 2803 1891 2551 2103 
Q 2300 2316 1863 2316 
Q 1603 2316 1309 2248 
Q 1016 2181 678 2041 
L 678 4666 
z
" transform="scale(0.015625)"/>
      <path id="DejaVuSans-Bold-34" d="M 2356 3675 
L 1038 1722 
L 2356 1722 
L 2356 3675 
z
M 2156 4666 
L 3494 4666 
L 3494 1722 
L 4159 1722 
L 4159 850 
L 3494 850 
L 3494 0 
L 2356 0 
L 2356 850 
L 288 850 
L 288 1881 
L 2156 4666 
z
" transform="scale(0.015625)"/>
      <path id="DejaVuSans-Bold-38" d="M 2228 2088 
Q 1891 2088 1709 1903 
Q 1528 1719 1528 1375 
Q 1528 1031 1709 848 
Q 1891 666 2228 666 
Q 2563 666 2741 848 
Q 2919 1031 2919 1375 
Q 2919 1722 2741 1905 
Q 2563 2088 2228 2088 
z
M 1350 2484 
Q 925 2613 709 2878 
Q 494 3144 494 3541 
Q 494 4131 934 4440 
Q 1375 4750 2228 4750 
Q 3075 4750 3515 4442 
Q 3956 4134 3956 3541 
Q 3956 3144 3739 2878 
Q 3522 2613 3097 2484 
Q 3572 2353 3814 2058 
Q 4056 1763 4056 1313 
Q 4056 619 3595 264 
Q 3134 -91 2228 -91 
Q 1319 -91 855 264 
Q 391 619 391 1313 
Q 391 1763 633 2058 
Q 875 2353 1350 2484 
z
M 1631 3419 
Q 1631 3141 1786 2991 
Q 1941 2841 2228 2841 
Q 2509 2841 2662 2991 
Q 2816 3141 2816 3419 
Q 2816 3697 2662 3845 
Q 2509 3994 2228 3994 
Q 1941 3994 1786 3844 
Q 1631 3694 1631 3419 
z
" transform="scale(0.015625)"/>
     </defs>
     <use xlink:href="#DejaVuSans-Bold-31"/>
     <use xlink:href="#DejaVuSans-Bold-35" x="69.580078"/>
     <use xlink:href="#DejaVuSans-Bold-20" x="139.160156"/>
     <use xlink:href="#DejaVuSans-Bold-68" x="173.974609"/>
     <use xlink:href="#DejaVuSans-Bold-72" x="245.166016"/>
     <use xlink:href="#DejaVuSans-Bold-73" x="294.482422"/>
     <use xlink:href="#DejaVuSans-Bold-20" x="354.003906"/>
     <use xlink:href="#DejaVuSans-Bold-34" x="388.818359"/>
     <use xlink:href="#DejaVuSans-Bold-38" x="458.398438"/>
     <use xlink:href="#DejaVuSans-Bold-20" x="527.978516"/>
     <use xlink:href="#DejaVuSans-Bold-6d" x="562.792969"/>
     <use xlink:href="#DejaVuSans-Bold-69" x="666.992188"/>
     <use xlink:href="#DejaVuSans-Bold-6e" x="701.269531"/>
     <use xlink:href="#DejaVuSans-Bold-73" x="772.460938"/>
    </g>
   </g>
   <g id="text_9">
    <!-- 15 hrs 29 mins -->
    <g style="fill: #586069" transform="translate(438.950938 185.114765) scale(0.15 -0.15)">
     <use xlink:href="#DejaVuSans-Bold-31"/>
     <use xlink:href="#DejaVuSans-Bold-35" x="69.580078"/>
     <use xlink:href="#DejaVuSans-Bold-20" x="139.160156"/>
     <use xlink:href="#DejaVuSans-Bold-68" x="173.974609"/>
     <use xlink:href="#DejaVuSans-Bold-72" x="245.166016"/>
     <use xlink:href="#DejaVuSans-Bold-73" x="294.482422"/>
     <use xlink:href="#DejaVuSans-Bold-20" x="354.003906"/>
     <use xlink:href="#DejaVuSans-Bold-32" x="388.818359"/>
     <use xlink:href="#DejaVuSans-Bold-39" x="458.398438"/>
     <use xlink:href="#DejaVuSans-Bold-20" x="527.978516"/>
     <use xlink:href="#DejaVuSans-Bold-6d" x="562.792969"/>
     <use xlink:href="#DejaVuSans-Bold-69" x="666.992188"/>
     <use xlink:href="#DejaVuSans-Bold-6e" x="701.269531"/>
     <use xlink:href="#DejaVuSans-Bold-73" x="772.460938"/>
    </g>
   </g>
   <g id="text_10">
    <!-- 13 hrs 17 mins -->
    <g style="fill: #586069" transform="translate(409.612889 234.48336) scale(0.15 -0.15)">
     <defs>
      <path id="DejaVuSans-Bold-37" d="M 428 4666 
L 3944 4666 
L 3944 3988 
L 2125 0 
L 953 0 
L 2675 3781 
L 428 3781 
L 428 4666 
z
" transform="scale(0.015625)"/>
     </defs>
     <use xlink:href="#DejaVuSans-Bold-31"/>
     <use xlink:href="#DejaVuSans-Bold-33" x="69.580078"/>
     <use xlink:href="#DejaVuSans-Bold-20" x="139.160156"/>
     <use xlink:href="#DejaVuSans-Bold-68" x="173.974609"/>
     <use xlink:href="#DejaVuSans-Bold-72" x="245.166016"/>
     <use xlink:href="#DejaVuSans-Bold-73" x="294.482422"/>
     <use xlink:href="#DejaVuSans-Bold-20" x="354.003906"/>
     <use xlink:href="#DejaVuSans-Bold-31" x="388.818359"/>
     <use xlink:href="#DejaVuSans-Bold-37" x="458.398438"/>
     <use xlink:href="#DejaVuSans-Bold-20" x="527.978516"/>
     <use xlink:href="#DejaVuSans-Bold-6d" x="562.792969"/>
     <use xlink:href="#DejaVuSans-Bold-69" x="666.992188"/>
     <use xlink:href="#DejaVuSans-Bold-6e" x="701.269531"/>
     <use xlink:href="#DejaVuSans-Bold-73" x="772.460938"/>
    </g>
   </g>
   <g id="text_11">
    <!-- 11 hrs 7 mins -->
    <g style="fill: #586069" transform="translate(380.733247 283.851955) scale(0.15 -0.15)">
     <use xlink:href="#DejaVuSans-Bold-31"/>
     <use xlink:href="#DejaVuSans-Bold-31" x="69.580078"/>
     <use xlink:href="#DejaVuSans-Bold-20" x="139.160156"/>
     <use xlink:href="#DejaVuSans-Bold-68" x="173.974609"/>
     <use xlink:href="#DejaVuSans-Bold-72" x="245.166016"/>
     <use xlink:href="#DejaVuSans-Bold-73" x="294.482422"/>
     <use xlink:href="#DejaVuSans-Bold-20" x="354.003906"/>
     <use xlink:href="#DejaVuSans-Bold-37" x="388.818359"/>
     <use xlink:href="#DejaVuSans-Bold-20" x="458.398438"/>
     <use xlink:href="#DejaVuSans-Bold-6d" x="493.212891"/>
     <use xlink:href="#DejaVuSans-Bold-69" x="597.412109"/>
     <use xlink:href="#DejaVuSans-Bold-6e" x="631.689453"/>
     <use xlink:href="#DejaVuSans-Bold-73" x="702.880859"/>
    </g>
   </g>
   <g id="text_12">
    <!-- 9 hrs 31 mins -->
    <g style="fill: #586069" transform="translate(359.493722 333.22055) scale(0.15 -0.15)">
     <use xlink:href="#DejaVuSans-Bold-39"/>
     <use xlink:href="#DejaVuSans-Bold-20" x="69.580078"/>
     <use xlink:href="#DejaVuSans-Bold-68" x="104.394531"/>
     <use xlink:href="#DejaVuSans-Bold-72" x="175.585938"/>
     <use xlink:href="#DejaVuSans-Bold-73" x="224.902344"/>
     <use xlink:href="#DejaVuSans-Bold-20" x="284.423828"/>
     <use xlink:href="#DejaVuSans-Bold-33" x="319.238281"/>
     <use xlink:href="#DejaVuSans-Bold-31" x="388.818359"/>
     <use xlink:href="#DejaVuSans-Bold-20" x="458.398438"/>
     <use xlink:href="#DejaVuSans-Bold-6d" x="493.212891"/>
     <use xlink:href="#DejaVuSans-Bold-69" x="597.412109"/>
     <use xlink:href="#DejaVuSans-Bold-6e" x="631.689453"/>
     <use xlink:href="#DejaVuSans-Bold-73" x="702.880859"/>
    </g>
   </g>
   <g id="text_13">
    <!-- Projects touched : -->
    <g style="fill: #2a475e" transform="translate(401.385657 50.32) scale(0.12 -0.12)">
     <defs>
      <path id="DejaVuSans-Bold-50" d="M 588 4666 
L 2584 4666 
Q 3475 4666 3951 4270 
Q 4428 3875 4428 3144 
Q 4428 2409 3951 2014 
Q 3475 1619 2584 1619 
L 1791 1619 
L 1791 0 
L 588 0 
L 588 4666 
z
M 1791 3794 
L 1791 2491 
L 2456 2491 
Q 2806 2491 2997 2661 
Q 3188 2831 3188 3144 
Q 3188 3456 2997 3625 
Q 2806 3794 2456 3794 
L 1791 3794 
z
" transform="scale(0.015625)"/>
      <path id="DejaVuSans-Bold-6a" d="M 538 3500 
L 1656 3500 
L 1656 63 
Q 1656 -641 1318 -1011 
Q 981 -1381 341 -1381 
L -213 -1381 
L -213 -647 
L -19 -647 
Q 300 -647 419 -503 
Q 538 -359 538 63 
L 538 3500 
z
M 538 4863 
L 1656 4863 
L 1656 3950 
L 538 3950 
L 538 4863 
z
" transform="scale(0.015625)"/>
      <path id="DejaVuSans-Bold-63" d="M 3366 3391 
L 3366 2478 
Q 3138 2634 2908 2709 
Q 2678 2784 2431 2784 
Q 1963 2784 1702 2511 
Q 1441 2238 1441 1747 
Q 1441 1256 1702 982 
Q 1963 709 2431 709 
Q 2694 709 2930 787 
Q 3166 866 3366 1019 
L 3366 103 
Q 3103 6 2833 -42 
Q 2563 -91 2291 -91 
Q 1344 -91 809 395 
Q 275 881 275 1747 
Q 275 2613 809 3098 
Q 1344 3584 2291 3584 
Q 2566 3584 2833 3536 
Q 3100 3488 3366 3391 
z
" transform="scale(0.015625)"/>
      <path id="DejaVuSans-Bold-64" d="M 2919 2988 
L 2919 4863 
L 4044 4863 
L 4044 0 
L 2919 0 
L 2919 506 
Q 2688 197 2409 53 
Q 2131 -91 1766 -91 
Q 1119 -91 703 423 
Q 288 938 288 1747 
Q 288 2556 703 3070 
Q 1119 3584 1766 3584 
Q 2128 3584 2408 3439 
Q 2688 3294 2919 2988 
z
M 2181 722 
Q 2541 722 2730 984 
Q 2919 1247 2919 1747 
Q 2919 2247 2730 2509 
Q 2541 2772 2181 2772 
Q 1825 2772 1636 2509 
Q 1447 2247 1447 1747 
Q 1447 1247 1636 984 
Q 1825 722 2181 722 
z
" transform="scale(0.015625)"/>
      <path id="DejaVuSans-Bold-3a" d="M 716 3500 
L 1844 3500 
L 1844 2291 
L 716 2291 
L 716 3500 
z
M 716 1209 
L 1844 1209 
L 1844 0 
L 716 0 
L 716 1209 
z
" transform="scale(0.015625)"/>
     </defs>
     <use xlink:href="#DejaVuSans-Bold-50"/>
     <use xlink:href="#DejaVuSans-Bold-72" x="73.291016"/>
     <use xlink:href="#DejaVuSans-Bold-6f" x="122.607422"/>
     <use xlink:href="#DejaVuSans-Bold-6a" x="191.308594"/>
     <use xlink:href="#DejaVuSans-Bold-65" x="225.585938"/>
     <use xlink:href="#DejaVuSans-Bold-63" x="293.408203"/>
     <use xlink:href="#DejaVuSans-Bold-74" x="352.685547"/>
     <use xlink:href="#DejaVuSans-Bold-73" x="400.488281"/>
     <use xlink:href="#DejaVuSans-Bold-20" x="460.009766"/>
     <use xlink:href="#DejaVuSans-Bold-74" x="494.824219"/>
     <use xlink:href="#DejaVuSans-Bold-6f" x="542.626953"/>
     <use xlink:href="#DejaVuSans-Bold-75" x="611.328125"/>
     <use xlink:href="#DejaVuSans-Bold-63" x="682.519531"/>
     <use xlink:href="#DejaVuSans-Bold-68" x="741.796875"/>
     <use xlink:href="#DejaVuSans-Bold-65" x="812.988281"/>
     <use xlink:href="#DejaVuSans-Bold-64" x="880.810547"/>
     <use xlink:href="#DejaVuSans-Bold-20" x="952.392578"/>
     <use xlink:href="#DejaVuSans-Bold-3a" x="987.207031"/>
    </g>
   </g>
  </g>
  <g id="axes_2">
   <g id="patch_11">
    <path d="M 861.34359 140.662763 
L 867.869099 140.662763 
L 898.785424 158.242756 
" style="fill: none; stroke: #000000; stroke-linecap: round"/>
   </g>
   <g id="text_14">
    <g id="patch_12">
     <path d="M 803.869598 150.116513 
L 858.977723 150.116513 
L 858.977723 131.209013 
L 803.869598 131.209013 
z
" style="fill: #ffffff; stroke: #000000; stroke-width: 0.72; stroke-linejoin: miter"/>
    </g>
    <!-- Python -->
    <g style="fill: #2a475e" transform="translate(807.469598 143.927138) scale(0.12 -0.12)">
     <defs>
      <path id="DejaVuSans-Bold-79" d="M 78 3500 
L 1197 3500 
L 2138 1125 
L 2938 3500 
L 4056 3500 
L 2584 -331 
Q 2363 -916 2067 -1148 
Q 1772 -1381 1288 -1381 
L 641 -1381 
L 641 -647 
L 991 -647 
Q 1275 -647 1404 -556 
Q 1534 -466 1606 -231 
L 1638 -134 
L 78 3500 
z
" transform="scale(0.015625)"/>
     </defs>
     <use xlink:href="#DejaVuSans-Bold-50"/>
     <use xlink:href="#DejaVuSans-Bold-79" x="75.166016"/>
     <use xlink:href="#DejaVuSans-Bold-74" x="140.351562"/>
     <use xlink:href="#DejaVuSans-Bold-68" x="188.154297"/>
     <use xlink:href="#DejaVuSans-Bold-6f" x="259.345703"/>
     <use xlink:href="#DejaVuSans-Bold-6e" x="328.046875"/>
    </g>
   </g>
   <g id="patch_13">
    <path d="M 1103.017054 283.405778 
L 1088.219995 283.405778 
L 1059.537367 262.377649 
" style="fill: none; stroke: #000000; stroke-linecap: round"/>
   </g>
   <g id="text_15">
    <g id="patch_14">
     <path d="M 1105.369858 292.812653 
L 1150.386733 292.812653 
L 1150.386733 273.998903 
L 1105.369858 273.998903 
z
" style="fill: #ffffff; stroke: #000000; stroke-width: 0.72; stroke-linejoin: miter"/>
    </g>
    <!-- HTML -->
    <g style="fill: #2a475e" transform="translate(1108.969858 286.717028) scale(0.12 -0.12)">
     <defs>
      <path id="DejaVuSans-Bold-48" d="M 588 4666 
L 1791 4666 
L 1791 2888 
L 3566 2888 
L 3566 4666 
L 4769 4666 
L 4769 0 
L 3566 0 
L 3566 1978 
L 1791 1978 
L 1791 0 
L 588 0 
L 588 4666 
z
" transform="scale(0.015625)"/>
      <path id="DejaVuSans-Bold-4d" d="M 588 4666 
L 2119 4666 
L 3181 2169 
L 4250 4666 
L 5778 4666 
L 5778 0 
L 4641 0 
L 4641 3413 
L 3566 897 
L 2803 897 
L 1728 3413 
L 1728 0 
L 588 0 
L 588 4666 
z
" transform="scale(0.015625)"/>
      <path id="DejaVuSans-Bold-4c" d="M 588 4666 
L 1791 4666 
L 1791 909 
L 3903 909 
L 3903 0 
L 588 0 
L 588 4666 
z
" transform="scale(0.015625)"/>
     </defs>
     <use xlink:href="#DejaVuSans-Bold-48"/>
     <use xlink:href="#DejaVuSans-Bold-54" x="83.691406"/>
     <use xlink:href="#DejaVuSans-Bold-4d" x="151.904297"/>
     <use xlink:href="#DejaVuSans-Bold-4c" x="251.416016"/>
    </g>
   </g>
   <g id="patch_15">
    <path d="M 1103.009228 203.541123 
L 1078.084132 203.97819 
" style="fill: none; stroke: #000000; stroke-linecap: round"/>
   </g>
   <g id="text_16">
    <g id="patch_16">
     <path d="M 1105.369858 212.761483 
L 1138.345483 212.761483 
L 1138.345483 193.947733 
L 1105.369858 193.947733 
z
" style="fill: #ffffff; stroke: #000000; stroke-width: 0.72; stroke-linejoin: miter"/>
    </g>
    <!-- CSS -->
    <g style="fill: #2a475e" transform="translate(1108.969858 206.665858) scale(0.12 -0.12)">
     <use xlink:href="#DejaVuSans-Bold-43"/>
     <use xlink:href="#DejaVuSans-Bold-53" x="75.263672"/>
     <use xlink:href="#DejaVuSans-Bold-53" x="142.785156"/>
    </g>
   </g>
   <g id="patch_17">
    <path d="M 1103.023161 191.684037 
L 1077.462378 194.640085 
" style="fill: none; stroke: #000000; stroke-linecap: round"/>
   </g>
   <g id="text_17">
    <g id="patch_18">
     <path d="M 1105.369858 199.960772 
L 1145.920483 199.960772 
L 1145.920483 181.147022 
L 1105.369858 181.147022 
z
" style="fill: #ffffff; stroke: #000000; stroke-width: 0.72; stroke-linejoin: miter"/>
    </g>
    <!-- JSON -->
    <g style="fill: #2a475e" transform="translate(1108.969858 193.865147) scale(0.12 -0.12)">
     <defs>
      <path id="DejaVuSans-Bold-4a" d="M 588 4666 
L 1791 4666 
L 1791 453 
Q 1791 -419 1317 -850 
Q 844 -1281 -116 -1281 
L -359 -1281 
L -359 -372 
L -172 -372 
Q 203 -372 395 -162 
Q 588 47 588 453 
L 588 4666 
z
" transform="scale(0.015625)"/>
      <path id="DejaVuSans-Bold-4f" d="M 2719 3878 
Q 2169 3878 1866 3472 
Q 1563 3066 1563 2328 
Q 1563 1594 1866 1187 
Q 2169 781 2719 781 
Q 3272 781 3575 1187 
Q 3878 1594 3878 2328 
Q 3878 3066 3575 3472 
Q 3272 3878 2719 3878 
z
M 2719 4750 
Q 3844 4750 4481 4106 
Q 5119 3463 5119 2328 
Q 5119 1197 4481 553 
Q 3844 -91 2719 -91 
Q 1597 -91 958 553 
Q 319 1197 319 2328 
Q 319 3463 958 4106 
Q 1597 4750 2719 4750 
z
" transform="scale(0.015625)"/>
     </defs>
     <use xlink:href="#DejaVuSans-Bold-4a"/>
     <use xlink:href="#DejaVuSans-Bold-53" x="37.207031"/>
     <use xlink:href="#DejaVuSans-Bold-4f" x="109.228516"/>
     <use xlink:href="#DejaVuSans-Bold-4e" x="194.238281"/>
    </g>
   </g>
   <g id="patch_19">
    <path d="M 1103.035587 186.582572 
L 1076.9265 190.70376 
" style="fill: none; stroke: #000000; stroke-linecap: round"/>
   </g>
   <g id="text_18">
    <g id="patch_20">
     <path d="M 1105.369858 194.565316 
L 1151.106733 194.565316 
L 1151.106733 175.751566 
L 1105.369858 175.751566 
z
" style="fill: #ffffff; stroke: #000000; stroke-width: 0.72; stroke-linejoin: miter"/>
    </g>
    <!-- Other -->
    <g style="fill: #2a475e" transform="translate(1108.969858 188.469691) scale(0.12 -0.12)">
     <use xlink:href="#DejaVuSans-Bold-4f"/>
     <use xlink:href="#DejaVuSans-Bold-74" x="85.009766"/>
     <use xlink:href="#DejaVuSans-Bold-68" x="132.8125"/>
     <use xlink:href="#DejaVuSans-Bold-65" x="204.003906"/>
     <use xlink:href="#DejaVuSans-Bold-72" x="271.826172"/>
    </g>
   </g>
   <g id="patch_21">
    <path d="M 1072.791442 191.2289 
C 1071.123244 181.768081 1068.013351 172.618963 1063.570449 164.101299 
C 1059.127548 155.583635 1053.404006 147.797822 1046.599858 141.015968 
C 1039.79571 134.234114 1031.991155 128.536156 1023.458956 124.121233 
C 1014.926756 119.70631 1005.767481 116.62646 996.301238 114.98932 
C 986.834995 113.352181 977.173364 113.17705 967.654008 114.470048 
C 958.134652 115.763046 948.869777 118.508932 940.183181 122.61174 
C 931.496586 126.714547 923.490658 132.125918 916.445199 138.656728 
C 909.39974 145.187538 903.397793 152.760809 898.649122 161.111862 
C 893.90045 169.462916 890.461027 178.493318 888.451056 187.887465 
C 886.441085 197.281612 885.884258 206.928774 886.800035 216.491793 
C 887.715813 226.054812 890.093401 235.420968 893.849704 244.262922 
C 897.606008 253.104877 902.696752 261.31841 908.944019 268.616466 
C 915.191287 275.914522 922.521441 282.21108 930.678301 287.286079 
C 938.83516 292.361079 947.72258 296.154702 957.029952 298.534364 
C 966.337325 300.914027 975.954944 301.85168 985.546684 301.314553 
C 995.138424 300.777427 1004.591226 298.771852 1013.574724 295.367922 
L 996.935027 251.453191 
C 992.443278 253.155156 987.716877 254.157944 982.921007 254.426507 
C 978.125137 254.69507 973.316328 254.226244 968.662641 253.036412 
C 964.008955 251.846581 959.565245 249.94977 955.486816 247.41227 
C 951.408386 244.87477 947.743309 241.726491 944.619675 238.077463 
C 941.496041 234.428435 938.950669 230.321668 937.072517 225.900691 
C 935.194365 221.479714 934.005572 216.796636 933.547683 212.015127 
C 933.089794 207.233617 933.368208 202.410036 934.373193 197.712963 
C 935.378179 193.015889 937.09789 188.500688 939.472226 184.325161 
C 941.846562 180.149634 944.847535 176.362999 948.370265 173.097594 
C 951.892994 169.832189 955.895958 167.126504 960.239256 165.0751 
C 964.582554 163.023696 969.214991 161.650753 973.974669 161.004254 
C 978.734347 160.357755 983.565163 160.445321 988.298284 161.26389 
C 993.031406 162.08246 997.611043 163.622385 1001.877143 165.829847 
C 1006.143243 168.037308 1010.04552 170.886287 1013.447594 174.277214 
C 1016.849668 177.668141 1019.711439 181.561048 1021.93289 185.81988 
C 1024.15434 190.078712 1025.709287 194.653271 1026.543386 199.38368 
z
" style="fill: #092436; opacity: 0.5; stroke: #092436; stroke-width: 4; stroke-linejoin: miter"/>
   </g>
   <g id="patch_22">
    <path d="M 1021.149453 300.921192 
C 1038.127952 294.487882 1052.882205 283.267297 1063.617348 268.624428 
C 1074.352491 253.98156 1080.614813 236.535275 1081.642499 218.407927 
L 1034.756279 215.749829 
C 1034.242436 224.813503 1031.111275 233.536645 1025.743704 240.858079 
C 1020.376132 248.179513 1012.999005 253.789806 1004.509756 257.006461 
z
" style="fill: #4d2604; opacity: 0.5; stroke: #4d2604; stroke-width: 4; stroke-linejoin: miter"/>
   </g>
   <g id="patch_23">
    <path d="M 1083.458627 212.689987 
C 1083.590068 210.371499 1083.635479 208.048934 1083.594764 205.727081 
C 1083.55405 203.405227 1083.427239 201.085682 1083.214594 198.773229 
L 1036.450391 203.073509 
C 1036.556714 204.229736 1036.620119 205.389508 1036.640476 206.550435 
C 1036.660833 207.711362 1036.638128 208.872644 1036.572408 210.031888 
z
" style="fill: #0d300d; opacity: 0.5; stroke: #0d300d; stroke-width: 4; stroke-linejoin: miter"/>
   </g>
   <g id="patch_24">
    <path d="M 1083.153852 197.858892 
C 1083.08666 197.128192 1083.010906 196.398304 1082.926608 195.66938 
C 1082.842309 194.940455 1082.749471 194.212543 1082.648113 193.485794 
L 1036.13678 199.972623 
C 1036.187459 200.335998 1036.233878 200.699954 1036.276027 201.064416 
C 1036.318176 201.428879 1036.356053 201.793822 1036.389649 202.159173 
z
" style="fill: #400c0c; opacity: 0.5; stroke: #400c0c; stroke-width: 4; stroke-linejoin: miter"/>
   </g>
   <g id="patch_25">
    <path d="M 1082.595436 193.100404 
C 1082.517682 192.542901 1082.434918 191.986108 1082.347154 191.430092 
C 1082.259389 190.874077 1082.166628 190.318862 1082.068882 189.764514 
L 1035.820825 197.919289 
C 1035.869699 198.196462 1035.916079 198.47407 1035.959961 198.752078 
C 1036.003843 199.030085 1036.045225 199.308482 1036.084102 199.587234 
z
" style="fill: #2c1f39; opacity: 0.5; stroke: #2c1f39; stroke-width: 4; stroke-linejoin: miter"/>
   </g>
   <g id="patch_26">
    <path d="M 1074.669902 189.35044 
C 1073.001704 179.889621 1069.891811 170.740503 1065.448909 162.222839 
C 1061.006008 153.705175 1055.282467 145.919362 1048.478319 139.137508 
C 1041.67417 132.355654 1033.869616 126.657696 1025.337416 122.242773 
C 1016.805217 117.827849 1007.645941 114.747999 998.179699 113.11086 
C 988.713456 111.473721 979.051824 111.29859 969.532468 112.591588 
C 960.013112 113.884586 950.748237 116.630471 942.061642 120.733279 
C 933.375046 124.836087 925.369119 130.247457 918.323659 136.778267 
C 911.2782 143.309077 905.276253 150.882348 900.527582 159.233402 
C 895.778911 167.584456 892.339487 176.614858 890.329516 186.009005 
C 888.319545 195.403152 887.762718 205.050314 888.678496 214.613333 
C 889.594273 224.176352 891.971861 233.542507 895.728165 242.384462 
C 899.484468 251.226416 904.575212 259.43995 910.82248 266.738006 
C 917.069747 274.036062 924.399902 280.332619 932.556761 285.407619 
C 940.713621 290.482619 949.60104 294.276242 958.908413 296.655904 
C 968.215785 299.035567 977.833405 299.97322 987.425144 299.436093 
C 997.016884 298.898967 1006.469686 296.893392 1015.453184 293.489462 
L 998.813487 249.574731 
C 994.321738 251.276696 989.595337 252.279483 984.799467 252.548047 
C 980.003598 252.81661 975.194788 252.347783 970.541102 251.157952 
C 965.887415 249.968121 961.443706 248.071309 957.365276 245.53381 
C 953.286846 242.99631 949.621769 239.848031 946.498135 236.199003 
C 943.374501 232.549975 940.829129 228.443208 938.950978 224.022231 
C 937.072826 219.601254 935.884032 214.918176 935.426143 210.136666 
C 934.968254 205.355157 935.246668 200.531576 936.251653 195.834502 
C 937.256639 191.137429 938.976351 186.622228 941.350686 182.446701 
C 943.725022 178.271174 946.725995 174.484539 950.248725 171.219134 
C 953.771455 167.953729 957.774418 165.248044 962.117716 163.19664 
C 966.461014 161.145236 971.093452 159.772293 975.853129 159.125794 
C 980.612807 158.479295 985.443623 158.566861 990.176745 159.38543 
C 994.909866 160.204 999.489504 161.743925 1003.755603 163.951386 
C 1008.021703 166.158848 1011.92398 169.007827 1015.326055 172.398754 
C 1018.728129 175.789681 1021.589899 179.682587 1023.81135 183.941419 
C 1026.032801 188.200252 1027.587747 192.774811 1028.421846 197.50522 
z
" style="fill: #1f77b4; stroke: #ffffff; stroke-width: 4; stroke-linejoin: miter"/>
   </g>
   <g id="patch_27">
    <path d="M 1023.027913 299.042731 
C 1040.006412 292.609422 1054.760665 281.388836 1065.495808 266.745968 
C 1076.230952 252.1031 1082.493274 234.656815 1083.520959 216.529467 
L 1036.634739 213.871368 
C 1036.120897 222.935043 1032.989736 231.658185 1027.622164 238.979619 
C 1022.254592 246.301053 1014.877466 251.911346 1006.388216 255.128001 
z
" style="fill: #ff7f0e; stroke: #ffffff; stroke-width: 4; stroke-linejoin: miter"/>
   </g>
   <g id="patch_28">
    <path d="M 1085.337088 210.811526 
C 1085.468529 208.493039 1085.513939 206.170474 1085.473225 203.84862 
C 1085.43251 201.526767 1085.3057 199.207222 1085.093054 196.894768 
L 1038.328851 201.195049 
C 1038.435174 202.351276 1038.498579 203.511048 1038.518936 204.671975 
C 1038.539294 205.832902 1038.516588 206.994184 1038.450868 208.153428 
z
" style="fill: #2ca02c; stroke: #ffffff; stroke-width: 4; stroke-linejoin: miter"/>
   </g>
   <g id="patch_29">
    <path d="M 1085.032313 195.980432 
C 1084.96512 195.249732 1084.889366 194.519844 1084.805068 193.790919 
C 1084.720769 193.061995 1084.627932 192.334083 1084.526574 191.607334 
L 1038.01524 198.094163 
C 1038.065919 198.457538 1038.112338 198.821494 1038.154487 199.185956 
C 1038.196637 199.550418 1038.234513 199.915362 1038.26811 200.280712 
z
" style="fill: #d62728; stroke: #ffffff; stroke-width: 4; stroke-linejoin: miter"/>
   </g>
   <g id="patch_30">
    <path d="M 1084.473896 191.221944 
C 1084.396142 190.664441 1084.313378 190.107647 1084.225614 189.551632 
C 1084.13785 188.995617 1084.045089 188.440401 1083.947342 187.886054 
L 1037.699286 196.040828 
C 1037.748159 196.318002 1037.794539 196.59561 1037.838421 196.873617 
C 1037.882304 197.151625 1037.923686 197.430022 1037.962562 197.708773 
z
" style="fill: #9467bd; stroke: #ffffff; stroke-width: 4; stroke-linejoin: miter"/>
   </g>
   <g id="matplotlib.axis_3"/>
   <g id="matplotlib.axis_4"/>
   <g id="text_19">
    <!-- Languages -->
    <g style="fill: #2a475e" transform="translate(951.595666 208.34125) scale(0.1 -0.1)">
     <use xlink:href="#DejaVuSans-Bold-4c"/>
     <use xlink:href="#DejaVuSans-Bold-61" x="63.720703"/>
     <use xlink:href="#DejaVuSans-Bold-6e" x="131.201172"/>
     <use xlink:href="#DejaVuSans-Bold-67" x="202.392578"/>
     <use xlink:href="#DejaVuSans-Bold-75" x="273.974609"/>
     <use xlink:href="#DejaVuSans-Bold-61" x="345.166016"/>
     <use xlink:href="#DejaVuSans-Bold-67" x="412.646484"/>
     <use xlink:href="#DejaVuSans-Bold-65" x="484.228516"/>
     <use xlink:href="#DejaVuSans-Bold-73" x="552.050781"/>
    </g>
   </g>
   <g id="text_20">
    <!-- Languages exploited : -->
    <g style="fill: #2a475e" transform="translate(907.200978 82.256234) scale(0.12 -0.12)">
     <defs>
      <path id="DejaVuSans-Bold-78" d="M 1422 1791 
L 159 3500 
L 1344 3500 
L 2059 2463 
L 2784 3500 
L 3969 3500 
L 2706 1797 
L 4031 0 
L 2847 0 
L 2059 1106 
L 1281 0 
L 97 0 
L 1422 1791 
z
" transform="scale(0.015625)"/>
     </defs>
     <use xlink:href="#DejaVuSans-Bold-4c"/>
     <use xlink:href="#DejaVuSans-Bold-61" x="63.720703"/>
     <use xlink:href="#DejaVuSans-Bold-6e" x="131.201172"/>
     <use xlink:href="#DejaVuSans-Bold-67" x="202.392578"/>
     <use xlink:href="#DejaVuSans-Bold-75" x="273.974609"/>
     <use xlink:href="#DejaVuSans-Bold-61" x="345.166016"/>
     <use xlink:href="#DejaVuSans-Bold-67" x="412.646484"/>
     <use xlink:href="#DejaVuSans-Bold-65" x="484.228516"/>
     <use xlink:href="#DejaVuSans-Bold-73" x="552.050781"/>
     <use xlink:href="#DejaVuSans-Bold-20" x="611.572266"/>
     <use xlink:href="#DejaVuSans-Bold-65" x="646.386719"/>
     <use xlink:href="#DejaVuSans-Bold-78" x="714.208984"/>
     <use xlink:href="#DejaVuSans-Bold-70" x="778.710938"/>
     <use xlink:href="#DejaVuSans-Bold-6c" x="850.292969"/>
     <use xlink:href="#DejaVuSans-Bold-6f" x="884.570312"/>
     <use xlink:href="#DejaVuSans-Bold-69" x="953.271484"/>
     <use xlink:href="#DejaVuSans-Bold-74" x="987.548828"/>
     <use xlink:href="#DejaVuSans-Bold-65" x="1035.351562"/>
     <use xlink:href="#DejaVuSans-Bold-64" x="1103.173828"/>
     <use xlink:href="#DejaVuSans-Bold-20" x="1174.755859"/>
     <use xlink:href="#DejaVuSans-Bold-3a" x="1209.570312"/>
    </g>
   </g>
  </g>
  <g id="text_21">
   <!-- From 01 August, 2024 to 31 August, 2024: 114 hrs 24 mins -->
   <g transform="translate(78.675781 29.995312) scale(0.3 -0.3)">
    <defs>
     <path id="DejaVuSans-Bold-46" d="M 588 4666 
L 3834 4666 
L 3834 3756 
L 1791 3756 
L 1791 2888 
L 3713 2888 
L 3713 1978 
L 1791 1978 
L 1791 0 
L 588 0 
L 588 4666 
z
" transform="scale(0.015625)"/>
     <path id="DejaVuSans-Bold-30" d="M 2944 2338 
Q 2944 3213 2780 3570 
Q 2616 3928 2228 3928 
Q 1841 3928 1675 3570 
Q 1509 3213 1509 2338 
Q 1509 1453 1675 1090 
Q 1841 728 2228 728 
Q 2613 728 2778 1090 
Q 2944 1453 2944 2338 
z
M 4147 2328 
Q 4147 1169 3647 539 
Q 3147 -91 2228 -91 
Q 1306 -91 806 539 
Q 306 1169 306 2328 
Q 306 3491 806 4120 
Q 1306 4750 2228 4750 
Q 3147 4750 3647 4120 
Q 4147 3491 4147 2328 
z
" transform="scale(0.015625)"/>
     <path id="DejaVuSans-Bold-41" d="M 3419 850 
L 1538 850 
L 1241 0 
L 31 0 
L 1759 4666 
L 3194 4666 
L 4922 0 
L 3713 0 
L 3419 850 
z
M 1838 1716 
L 3116 1716 
L 2478 3572 
L 1838 1716 
z
" transform="scale(0.015625)"/>
     <path id="DejaVuSans-Bold-2c" d="M 653 1209 
L 1778 1209 
L 1778 256 
L 1006 -909 
L 341 -909 
L 653 256 
L 653 1209 
z
" transform="scale(0.015625)"/>
    </defs>
    <use xlink:href="#DejaVuSans-Bold-46"/>
    <use xlink:href="#DejaVuSans-Bold-72" x="61.935547"/>
    <use xlink:href="#DejaVuSans-Bold-6f" x="111.251953"/>
    <use xlink:href="#DejaVuSans-Bold-6d" x="179.953125"/>
    <use xlink:href="#DejaVuSans-Bold-20" x="284.152344"/>
    <use xlink:href="#DejaVuSans-Bold-30" x="318.966797"/>
    <use xlink:href="#DejaVuSans-Bold-31" x="388.546875"/>
    <use xlink:href="#DejaVuSans-Bold-20" x="458.126953"/>
    <use xlink:href="#DejaVuSans-Bold-41" x="492.941406"/>
    <use xlink:href="#DejaVuSans-Bold-75" x="570.333984"/>
    <use xlink:href="#DejaVuSans-Bold-67" x="641.525391"/>
    <use xlink:href="#DejaVuSans-Bold-75" x="713.107422"/>
    <use xlink:href="#DejaVuSans-Bold-73" x="784.298828"/>
    <use xlink:href="#DejaVuSans-Bold-74" x="843.820312"/>
    <use xlink:href="#DejaVuSans-Bold-2c" x="891.623047"/>
    <use xlink:href="#DejaVuSans-Bold-20" x="929.611328"/>
    <use xlink:href="#DejaVuSans-Bold-32" x="964.425781"/>
    <use xlink:href="#DejaVuSans-Bold-30" x="1034.005859"/>
    <use xlink:href="#DejaVuSans-Bold-32" x="1103.585938"/>
    <use xlink:href="#DejaVuSans-Bold-34" x="1173.166016"/>
    <use xlink:href="#DejaVuSans-Bold-20" x="1242.746094"/>
    <use xlink:href="#DejaVuSans-Bold-74" x="1277.560547"/>
    <use xlink:href="#DejaVuSans-Bold-6f" x="1325.363281"/>
    <use xlink:href="#DejaVuSans-Bold-20" x="1394.064453"/>
    <use xlink:href="#DejaVuSans-Bold-33" x="1428.878906"/>
    <use xlink:href="#DejaVuSans-Bold-31" x="1498.458984"/>
    <use xlink:href="#DejaVuSans-Bold-20" x="1568.039062"/>
    <use xlink:href="#DejaVuSans-Bold-41" x="1602.853516"/>
    <use xlink:href="#DejaVuSans-Bold-75" x="1680.246094"/>
    <use xlink:href="#DejaVuSans-Bold-67" x="1751.4375"/>
    <use xlink:href="#DejaVuSans-Bold-75" x="1823.019531"/>
    <use xlink:href="#DejaVuSans-Bold-73" x="1894.210938"/>
    <use xlink:href="#DejaVuSans-Bold-74" x="1953.732422"/>
    <use xlink:href="#DejaVuSans-Bold-2c" x="2001.535156"/>
    <use xlink:href="#DejaVuSans-Bold-20" x="2039.523438"/>
    <use xlink:href="#DejaVuSans-Bold-32" x="2074.337891"/>
    <use xlink:href="#DejaVuSans-Bold-30" x="2143.917969"/>
    <use xlink:href="#DejaVuSans-Bold-32" x="2213.498047"/>
    <use xlink:href="#DejaVuSans-Bold-34" x="2283.078125"/>
    <use xlink:href="#DejaVuSans-Bold-3a" x="2352.658203"/>
    <use xlink:href="#DejaVuSans-Bold-20" x="2392.648438"/>
    <use xlink:href="#DejaVuSans-Bold-31" x="2427.462891"/>
    <use xlink:href="#DejaVuSans-Bold-31" x="2497.042969"/>
    <use xlink:href="#DejaVuSans-Bold-34" x="2566.623047"/>
    <use xlink:href="#DejaVuSans-Bold-20" x="2636.203125"/>
    <use xlink:href="#DejaVuSans-Bold-68" x="2671.017578"/>
    <use xlink:href="#DejaVuSans-Bold-72" x="2742.208984"/>
    <use xlink:href="#DejaVuSans-Bold-73" x="2791.525391"/>
    <use xlink:href="#DejaVuSans-Bold-20" x="2851.046875"/>
    <use xlink:href="#DejaVuSans-Bold-32" x="2885.861328"/>
    <use xlink:href="#DejaVuSans-Bold-34" x="2955.441406"/>
    <use xlink:href="#DejaVuSans-Bold-20" x="3025.021484"/>
    <use xlink:href="#DejaVuSans-Bold-6d" x="3059.835938"/>
    <use xlink:href="#DejaVuSans-Bold-69" x="3164.035156"/>
    <use xlink:href="#DejaVuSans-Bold-6e" x="3198.3125"/>
    <use xlink:href="#DejaVuSans-Bold-73" x="3269.503906"/>
   </g>
  </g>
 </g>
 <defs>
  <clipPath id="p239b229c84">
   <rect x="228.209375" y="56.32" width="469.615065" height="298.68"/>
  </clipPath>
 </defs>
</svg>
