<?xml version="1.0" encoding="utf-8" standalone="no"?>
<!DOCTYPE svg PUBLIC "-//W3C//DTD SVG 1.1//EN"
  "http://www.w3.org/Graphics/SVG/1.1/DTD/svg11.dtd">
<svg xmlns:xlink="http://www.w3.org/1999/xlink" width="1155.503708pt" height="344.801707pt" viewBox="0 0 1155.503708 344.801707" xmlns="http://www.w3.org/2000/svg" version="1.1">
 <metadata>
  <rdf:RDF xmlns:dc="http://purl.org/dc/elements/1.1/" xmlns:cc="http://creativecommons.org/ns#" xmlns:rdf="http://www.w3.org/1999/02/22-rdf-syntax-ns#">
   <cc:Work>
    <dc:type rdf:resource="http://purl.org/dc/dcmitype/StillImage"/>
    <dc:date>2026-07-14T16:58:05.142035</dc:date>
    <dc:format>image/svg+xml</dc:format>
    <dc:creator>
     <cc:Agent>
      <dc:title>Matplotlib v3.9.1.post1, https://matplotlib.org/</dc:title>
     </cc:Agent>
    </dc:creator>
   </cc:Work>
  </rdf:RDF>
 </metadata>
 <defs>
  <style type="text/css">*{stroke-linejoin: round; stroke-linecap: butt}</style>
 </defs>
 <g id="figure_1">
  <g id="patch_1">
   <path d="M 0 344.801707 
L 1155.503708 344.801707 
L 1155.503708 0 
L 0 0 
L 0 344.801707 
z
" style="fill: none"/>
  </g>
  <g id="axes_1">
   <g id="patch_2">
    <path d="M 182.775 336.245065 
L 668.770061 336.245065 
L 668.770061 56.32 
L 182.775 56.32 
L 182.775 336.245065 
z
" style="fill: none"/>
   </g>
   <g id="patch_3">
    <path d="M 182.775 69.043867 
L 645.62744 69.043867 
L 645.62744 92.17817 
L 182.775 92.17817 
z
" clip-path="url(#p0035357ac6)" style="fill: #4a656f; stroke: #4a656f; stroke-linejoin: miter"/>
   </g>
   <g id="patch_4">
    <path d="M 182.775 115.312472 
L 543.831714 115.312472 
L 543.831714 138.446775 
L 182.775 138.446775 
z
" clip-path="url(#p0035357ac6)" style="fill: #9daa18; stroke: #9daa18; stroke-linejoin: miter"/>
   </g>
   <g id="patch_5">
    <path d="M 182.775 161.581078 
L 516.792224 161.581078 
L 516.792224 184.715381 
L 182.775 184.715381 
z
" clip-path="url(#p0035357ac6)" style="fill: #780d0f; stroke: #780d0f; stroke-linejoin: miter"/>
   </g>
   <g id="patch_6">
    <path d="M 182.775 207.849684 
L 313.34537 207.849684 
L 313.34537 230.983987 
L 182.775 230.983987 
z
" clip-path="url(#p0035357ac6)" style="fill: #d054bc; stroke: #d054bc; stroke-linejoin: miter"/>
   </g>
   <g id="patch_7">
    <path d="M 182.775 254.11829 
L 258.977198 254.11829 
L 258.977198 277.252593 
L 182.775 277.252593 
z
" clip-path="url(#p0035357ac6)" style="fill: #06ba85; stroke: #06ba85; stroke-linejoin: miter"/>
   </g>
   <g id="patch_8">
    <path d="M 182.775 300.386896 
L 233.094478 300.386896 
L 233.094478 323.521199 
L 182.775 323.521199 
z
" clip-path="url(#p0035357ac6)" style="fill: #c7143a; stroke: #c7143a; stroke-linejoin: miter"/>
   </g>
   <g id="matplotlib.axis_1"/>
   <g id="matplotlib.axis_2">
    <g id="ytick_1">
     <g id="line2d_1">
      <defs>
       <path id="me7ffe0b62c" d="M 0 0 
L -3.5 0 
" style="stroke: #000000; stroke-width: 0.8"/>
      </defs>
      <g>
       <use xlink:href="#me7ffe0b62c" x="182.775" y="80.611018" style="stroke: #000000; stroke-width: 0.8"/>
      </g>
     </g>
     <g id="text_1">
      <!-- MolWeave -->
      <g style="fill: #586069" transform="translate(60.275 88.209456) scale(0.2 -0.2)">
       <defs>
        <path id="DejaVuSans-Bold-4d" d="M 588 4666 
L 2119 4666 
L 3181 2169 
L 4250 4666 
L 5778 4666 
L 5778 0 
L 4641 0 
L 4641 3413 
L 3566 897 
L 2803 897 
L 1728 3413 
L 1728 0 
L 588 0 
L 588 4666 
z
" transform="scale(0.015625)"/>
        <path id="DejaVuSans-Bold-6f" d="M 2203 2784 
Q 1831 2784 1636 2517 
Q 1441 2250 1441 1747 
Q 1441 1244 1636 976 
Q 1831 709 2203 709 
Q 2569 709 2762 976 
Q 2956 1244 2956 1747 
Q 2956 2250 2762 2517 
Q 2569 2784 2203 2784 
z
M 2203 3584 
Q 3106 3584 3614 3096 
Q 4122 2609 4122 1747 
Q 4122 884 3614 396 
Q 3106 -91 2203 -91 
Q 1297 -91 786 396 
Q 275 884 275 1747 
Q 275 2609 786 3096 
Q 1297 3584 2203 3584 
z
" transform="scale(0.015625)"/>
        <path id="DejaVuSans-Bold-6c" d="M 538 4863 
L 1656 4863 
L 1656 0 
L 538 0 
L 538 4863 
z
" transform="scale(0.015625)"/>
        <path id="DejaVuSans-Bold-57" d="M 191 4666 
L 1344 4666 
L 2150 1275 
L 2950 4666 
L 4109 4666 
L 4909 1275 
L 5716 4666 
L 6859 4666 
L 5759 0 
L 4372 0 
L 3525 3547 
L 2688 0 
L 1300 0 
L 191 4666 
z
" transform="scale(0.015625)"/>
        <path id="DejaVuSans-Bold-65" d="M 4031 1759 
L 4031 1441 
L 1416 1441 
Q 1456 1047 1700 850 
Q 1944 653 2381 653 
Q 2734 653 3104 758 
Q 3475 863 3866 1075 
L 3866 213 
Q 3469 63 3072 -14 
Q 2675 -91 2278 -91 
Q 1328 -91 801 392 
Q 275 875 275 1747 
Q 275 2603 792 3093 
Q 1309 3584 2216 3584 
Q 3041 3584 3536 3087 
Q 4031 2591 4031 1759 
z
M 2881 2131 
Q 2881 2450 2695 2645 
Q 2509 2841 2209 2841 
Q 1884 2841 1681 2658 
Q 1478 2475 1428 2131 
L 2881 2131 
z
" transform="scale(0.015625)"/>
        <path id="DejaVuSans-Bold-61" d="M 2106 1575 
Q 1756 1575 1579 1456 
Q 1403 1338 1403 1106 
Q 1403 894 1545 773 
Q 1688 653 1941 653 
Q 2256 653 2472 879 
Q 2688 1106 2688 1447 
L 2688 1575 
L 2106 1575 
z
M 3816 1997 
L 3816 0 
L 2688 0 
L 2688 519 
Q 2463 200 2181 54 
Q 1900 -91 1497 -91 
Q 953 -91 614 226 
Q 275 544 275 1050 
Q 275 1666 698 1953 
Q 1122 2241 2028 2241 
L 2688 2241 
L 2688 2328 
Q 2688 2594 2478 2717 
Q 2269 2841 1825 2841 
Q 1466 2841 1156 2769 
Q 847 2697 581 2553 
L 581 3406 
Q 941 3494 1303 3539 
Q 1666 3584 2028 3584 
Q 2975 3584 3395 3211 
Q 3816 2838 3816 1997 
z
" transform="scale(0.015625)"/>
        <path id="DejaVuSans-Bold-76" d="M 97 3500 
L 1216 3500 
L 2088 1081 
L 2956 3500 
L 4078 3500 
L 2700 0 
L 1472 0 
L 97 3500 
z
" transform="scale(0.015625)"/>
       </defs>
       <use xlink:href="#DejaVuSans-Bold-4d"/>
       <use xlink:href="#DejaVuSans-Bold-6f" x="99.511719"/>
       <use xlink:href="#DejaVuSans-Bold-6c" x="168.212891"/>
       <use xlink:href="#DejaVuSans-Bold-57" x="202.490234"/>
       <use xlink:href="#DejaVuSans-Bold-65" x="309.167969"/>
       <use xlink:href="#DejaVuSans-Bold-61" x="376.990234"/>
       <use xlink:href="#DejaVuSans-Bold-76" x="444.470703"/>
       <use xlink:href="#DejaVuSans-Bold-65" x="509.65625"/>
      </g>
     </g>
    </g>
    <g id="ytick_2">
     <g id="line2d_2">
      <g>
       <use xlink:href="#me7ffe0b62c" x="182.775" y="126.879624" style="stroke: #000000; stroke-width: 0.8"/>
      </g>
     </g>
     <g id="text_2">
      <!-- RNA_Project -->
      <g style="fill: #586069" transform="translate(38.059375 134.478061) scale(0.2 -0.2)">
       <defs>
        <path id="DejaVuSans-Bold-52" d="M 2297 2597 
Q 2675 2597 2839 2737 
Q 3003 2878 3003 3200 
Q 3003 3519 2839 3656 
Q 2675 3794 2297 3794 
L 1791 3794 
L 1791 2597 
L 2297 2597 
z
M 1791 1766 
L 1791 0 
L 588 0 
L 588 4666 
L 2425 4666 
Q 3347 4666 3776 4356 
Q 4206 4047 4206 3378 
Q 4206 2916 3982 2619 
Q 3759 2322 3309 2181 
Q 3556 2125 3751 1926 
Q 3947 1728 4147 1325 
L 4800 0 
L 3519 0 
L 2950 1159 
Q 2778 1509 2601 1637 
Q 2425 1766 2131 1766 
L 1791 1766 
z
" transform="scale(0.015625)"/>
        <path id="DejaVuSans-Bold-4e" d="M 588 4666 
L 1931 4666 
L 3628 1466 
L 3628 4666 
L 4769 4666 
L 4769 0 
L 3425 0 
L 1728 3200 
L 1728 0 
L 588 0 
L 588 4666 
z
" transform="scale(0.015625)"/>
        <path id="DejaVuSans-Bold-41" d="M 3419 850 
L 1538 850 
L 1241 0 
L 31 0 
L 1759 4666 
L 3194 4666 
L 4922 0 
L 3713 0 
L 3419 850 
z
M 1838 1716 
L 3116 1716 
L 2478 3572 
L 1838 1716 
z
" transform="scale(0.015625)"/>
        <path id="DejaVuSans-Bold-5f" d="M 3200 -916 
L 3200 -1509 
L 0 -1509 
L 0 -916 
L 3200 -916 
z
" transform="scale(0.015625)"/>
        <path id="DejaVuSans-Bold-50" d="M 588 4666 
L 2584 4666 
Q 3475 4666 3951 4270 
Q 4428 3875 4428 3144 
Q 4428 2409 3951 2014 
Q 3475 1619 2584 1619 
L 1791 1619 
L 1791 0 
L 588 0 
L 588 4666 
z
M 1791 3794 
L 1791 2491 
L 2456 2491 
Q 2806 2491 2997 2661 
Q 3188 2831 3188 3144 
Q 3188 3456 2997 3625 
Q 2806 3794 2456 3794 
L 1791 3794 
z
" transform="scale(0.015625)"/>
        <path id="DejaVuSans-Bold-72" d="M 3138 2547 
Q 2991 2616 2845 2648 
Q 2700 2681 2553 2681 
Q 2122 2681 1889 2404 
Q 1656 2128 1656 1613 
L 1656 0 
L 538 0 
L 538 3500 
L 1656 3500 
L 1656 2925 
Q 1872 3269 2151 3426 
Q 2431 3584 2822 3584 
Q 2878 3584 2943 3579 
Q 3009 3575 3134 3559 
L 3138 2547 
z
" transform="scale(0.015625)"/>
        <path id="DejaVuSans-Bold-6a" d="M 538 3500 
L 1656 3500 
L 1656 63 
Q 1656 -641 1318 -1011 
Q 981 -1381 341 -1381 
L -213 -1381 
L -213 -647 
L -19 -647 
Q 300 -647 419 -503 
Q 538 -359 538 63 
L 538 3500 
z
M 538 4863 
L 1656 4863 
L 1656 3950 
L 538 3950 
L 538 4863 
z
" transform="scale(0.015625)"/>
        <path id="DejaVuSans-Bold-63" d="M 3366 3391 
L 3366 2478 
Q 3138 2634 2908 2709 
Q 2678 2784 2431 2784 
Q 1963 2784 1702 2511 
Q 1441 2238 1441 1747 
Q 1441 1256 1702 982 
Q 1963 709 2431 709 
Q 2694 709 2930 787 
Q 3166 866 3366 1019 
L 3366 103 
Q 3103 6 2833 -42 
Q 2563 -91 2291 -91 
Q 1344 -91 809 395 
Q 275 881 275 1747 
Q 275 2613 809 3098 
Q 1344 3584 2291 3584 
Q 2566 3584 2833 3536 
Q 3100 3488 3366 3391 
z
" transform="scale(0.015625)"/>
        <path id="DejaVuSans-Bold-74" d="M 1759 4494 
L 1759 3500 
L 2913 3500 
L 2913 2700 
L 1759 2700 
L 1759 1216 
Q 1759 972 1856 886 
Q 1953 800 2241 800 
L 2816 800 
L 2816 0 
L 1856 0 
Q 1194 0 917 276 
Q 641 553 641 1216 
L 641 2700 
L 84 2700 
L 84 3500 
L 641 3500 
L 641 4494 
L 1759 4494 
z
" transform="scale(0.015625)"/>
       </defs>
       <use xlink:href="#DejaVuSans-Bold-52"/>
       <use xlink:href="#DejaVuSans-Bold-4e" x="77.001953"/>
       <use xlink:href="#DejaVuSans-Bold-41" x="160.693359"/>
       <use xlink:href="#DejaVuSans-Bold-5f" x="238.085938"/>
       <use xlink:href="#DejaVuSans-Bold-50" x="288.085938"/>
       <use xlink:href="#DejaVuSans-Bold-72" x="361.376953"/>
       <use xlink:href="#DejaVuSans-Bold-6f" x="410.693359"/>
       <use xlink:href="#DejaVuSans-Bold-6a" x="479.394531"/>
       <use xlink:href="#DejaVuSans-Bold-65" x="513.671875"/>
       <use xlink:href="#DejaVuSans-Bold-63" x="581.494141"/>
       <use xlink:href="#DejaVuSans-Bold-74" x="640.771484"/>
      </g>
     </g>
    </g>
    <g id="ytick_3">
     <g id="line2d_3">
      <g>
       <use xlink:href="#me7ffe0b62c" x="182.775" y="173.14823" style="stroke: #000000; stroke-width: 0.8"/>
      </g>
     </g>
     <g id="text_3">
      <!-- SolvDyn -->
      <g style="fill: #586069" transform="translate(83.859375 180.746667) scale(0.2 -0.2)">
       <defs>
        <path id="DejaVuSans-Bold-53" d="M 3834 4519 
L 3834 3531 
Q 3450 3703 3084 3790 
Q 2719 3878 2394 3878 
Q 1963 3878 1756 3759 
Q 1550 3641 1550 3391 
Q 1550 3203 1689 3098 
Q 1828 2994 2194 2919 
L 2706 2816 
Q 3484 2659 3812 2340 
Q 4141 2022 4141 1434 
Q 4141 663 3683 286 
Q 3225 -91 2284 -91 
Q 1841 -91 1394 -6 
Q 947 78 500 244 
L 500 1259 
Q 947 1022 1364 901 
Q 1781 781 2169 781 
Q 2563 781 2772 912 
Q 2981 1044 2981 1288 
Q 2981 1506 2839 1625 
Q 2697 1744 2272 1838 
L 1806 1941 
Q 1106 2091 782 2419 
Q 459 2747 459 3303 
Q 459 4000 909 4375 
Q 1359 4750 2203 4750 
Q 2588 4750 2994 4692 
Q 3400 4634 3834 4519 
z
" transform="scale(0.015625)"/>
        <path id="DejaVuSans-Bold-44" d="M 1791 3756 
L 1791 909 
L 2222 909 
Q 2959 909 3348 1275 
Q 3738 1641 3738 2338 
Q 3738 3031 3350 3393 
Q 2963 3756 2222 3756 
L 1791 3756 
z
M 588 4666 
L 1856 4666 
Q 2919 4666 3439 4514 
Q 3959 4363 4331 4000 
Q 4659 3684 4818 3271 
Q 4978 2859 4978 2338 
Q 4978 1809 4818 1395 
Q 4659 981 4331 666 
Q 3956 303 3431 151 
Q 2906 0 1856 0 
L 588 0 
L 588 4666 
z
" transform="scale(0.015625)"/>
        <path id="DejaVuSans-Bold-79" d="M 78 3500 
L 1197 3500 
L 2138 1125 
L 2938 3500 
L 4056 3500 
L 2584 -331 
Q 2363 -916 2067 -1148 
Q 1772 -1381 1288 -1381 
L 641 -1381 
L 641 -647 
L 991 -647 
Q 1275 -647 1404 -556 
Q 1534 -466 1606 -231 
L 1638 -134 
L 78 3500 
z
" transform="scale(0.015625)"/>
        <path id="DejaVuSans-Bold-6e" d="M 4056 2131 
L 4056 0 
L 2931 0 
L 2931 347 
L 2931 1631 
Q 2931 2084 2911 2256 
Q 2891 2428 2841 2509 
Q 2775 2619 2662 2680 
Q 2550 2741 2406 2741 
Q 2056 2741 1856 2470 
Q 1656 2200 1656 1722 
L 1656 0 
L 538 0 
L 538 3500 
L 1656 3500 
L 1656 2988 
Q 1909 3294 2193 3439 
Q 2478 3584 2822 3584 
Q 3428 3584 3742 3212 
Q 4056 2841 4056 2131 
z
" transform="scale(0.015625)"/>
       </defs>
       <use xlink:href="#DejaVuSans-Bold-53"/>
       <use xlink:href="#DejaVuSans-Bold-6f" x="72.021484"/>
       <use xlink:href="#DejaVuSans-Bold-6c" x="140.722656"/>
       <use xlink:href="#DejaVuSans-Bold-76" x="175"/>
       <use xlink:href="#DejaVuSans-Bold-44" x="240.185547"/>
       <use xlink:href="#DejaVuSans-Bold-79" x="323.193359"/>
       <use xlink:href="#DejaVuSans-Bold-6e" x="388.378906"/>
      </g>
     </g>
    </g>
    <g id="ytick_4">
     <g id="line2d_4">
      <g>
       <use xlink:href="#me7ffe0b62c" x="182.775" y="219.416836" style="stroke: #000000; stroke-width: 0.8"/>
      </g>
     </g>
     <g id="text_4">
      <!-- Thesis -->
      <g style="fill: #586069" transform="translate(103.665625 227.015273) scale(0.2 -0.2)">
       <defs>
        <path id="DejaVuSans-Bold-54" d="M 31 4666 
L 4331 4666 
L 4331 3756 
L 2784 3756 
L 2784 0 
L 1581 0 
L 1581 3756 
L 31 3756 
L 31 4666 
z
" transform="scale(0.015625)"/>
        <path id="DejaVuSans-Bold-68" d="M 4056 2131 
L 4056 0 
L 2931 0 
L 2931 347 
L 2931 1625 
Q 2931 2084 2911 2256 
Q 2891 2428 2841 2509 
Q 2775 2619 2662 2680 
Q 2550 2741 2406 2741 
Q 2056 2741 1856 2470 
Q 1656 2200 1656 1722 
L 1656 0 
L 538 0 
L 538 4863 
L 1656 4863 
L 1656 2988 
Q 1909 3294 2193 3439 
Q 2478 3584 2822 3584 
Q 3428 3584 3742 3212 
Q 4056 2841 4056 2131 
z
" transform="scale(0.015625)"/>
        <path id="DejaVuSans-Bold-73" d="M 3272 3391 
L 3272 2541 
Q 2913 2691 2578 2766 
Q 2244 2841 1947 2841 
Q 1628 2841 1473 2761 
Q 1319 2681 1319 2516 
Q 1319 2381 1436 2309 
Q 1553 2238 1856 2203 
L 2053 2175 
Q 2913 2066 3209 1816 
Q 3506 1566 3506 1031 
Q 3506 472 3093 190 
Q 2681 -91 1863 -91 
Q 1516 -91 1145 -36 
Q 775 19 384 128 
L 384 978 
Q 719 816 1070 734 
Q 1422 653 1784 653 
Q 2113 653 2278 743 
Q 2444 834 2444 1013 
Q 2444 1163 2330 1236 
Q 2216 1309 1875 1350 
L 1678 1375 
Q 931 1469 631 1722 
Q 331 1975 331 2491 
Q 331 3047 712 3315 
Q 1094 3584 1881 3584 
Q 2191 3584 2531 3537 
Q 2872 3491 3272 3391 
z
" transform="scale(0.015625)"/>
        <path id="DejaVuSans-Bold-69" d="M 538 3500 
L 1656 3500 
L 1656 0 
L 538 0 
L 538 3500 
z
M 538 4863 
L 1656 4863 
L 1656 3950 
L 538 3950 
L 538 4863 
z
" transform="scale(0.015625)"/>
       </defs>
       <use xlink:href="#DejaVuSans-Bold-54"/>
       <use xlink:href="#DejaVuSans-Bold-68" x="68.212891"/>
       <use xlink:href="#DejaVuSans-Bold-65" x="139.404297"/>
       <use xlink:href="#DejaVuSans-Bold-73" x="207.226562"/>
       <use xlink:href="#DejaVuSans-Bold-69" x="266.748047"/>
       <use xlink:href="#DejaVuSans-Bold-73" x="301.025391"/>
      </g>
     </g>
    </g>
    <g id="ytick_5">
     <g id="line2d_5">
      <g>
       <use xlink:href="#me7ffe0b62c" x="182.775" y="265.685442" style="stroke: #000000; stroke-width: 0.8"/>
      </g>
     </g>
     <g id="text_5">
      <!-- Fold_Switching -->
      <g style="fill: #586069" transform="translate(7.2 273.283879) scale(0.2 -0.2)">
       <defs>
        <path id="DejaVuSans-Bold-46" d="M 588 4666 
L 3834 4666 
L 3834 3756 
L 1791 3756 
L 1791 2888 
L 3713 2888 
L 3713 1978 
L 1791 1978 
L 1791 0 
L 588 0 
L 588 4666 
z
" transform="scale(0.015625)"/>
        <path id="DejaVuSans-Bold-64" d="M 2919 2988 
L 2919 4863 
L 4044 4863 
L 4044 0 
L 2919 0 
L 2919 506 
Q 2688 197 2409 53 
Q 2131 -91 1766 -91 
Q 1119 -91 703 423 
Q 288 938 288 1747 
Q 288 2556 703 3070 
Q 1119 3584 1766 3584 
Q 2128 3584 2408 3439 
Q 2688 3294 2919 2988 
z
M 2181 722 
Q 2541 722 2730 984 
Q 2919 1247 2919 1747 
Q 2919 2247 2730 2509 
Q 2541 2772 2181 2772 
Q 1825 2772 1636 2509 
Q 1447 2247 1447 1747 
Q 1447 1247 1636 984 
Q 1825 722 2181 722 
z
" transform="scale(0.015625)"/>
        <path id="DejaVuSans-Bold-77" d="M 225 3500 
L 1313 3500 
L 1900 1088 
L 2491 3500 
L 3425 3500 
L 4013 1113 
L 4603 3500 
L 5691 3500 
L 4769 0 
L 3547 0 
L 2956 2406 
L 2369 0 
L 1147 0 
L 225 3500 
z
" transform="scale(0.015625)"/>
        <path id="DejaVuSans-Bold-67" d="M 2919 594 
Q 2688 288 2409 144 
Q 2131 0 1766 0 
Q 1125 0 706 504 
Q 288 1009 288 1791 
Q 288 2575 706 3076 
Q 1125 3578 1766 3578 
Q 2131 3578 2409 3434 
Q 2688 3291 2919 2981 
L 2919 3500 
L 4044 3500 
L 4044 353 
Q 4044 -491 3511 -936 
Q 2978 -1381 1966 -1381 
Q 1638 -1381 1331 -1331 
Q 1025 -1281 716 -1178 
L 716 -306 
Q 1009 -475 1290 -558 
Q 1572 -641 1856 -641 
Q 2406 -641 2662 -400 
Q 2919 -159 2919 353 
L 2919 594 
z
M 2181 2772 
Q 1834 2772 1640 2515 
Q 1447 2259 1447 1791 
Q 1447 1309 1634 1061 
Q 1822 813 2181 813 
Q 2531 813 2725 1069 
Q 2919 1325 2919 1791 
Q 2919 2259 2725 2515 
Q 2531 2772 2181 2772 
z
" transform="scale(0.015625)"/>
       </defs>
       <use xlink:href="#DejaVuSans-Bold-46"/>
       <use xlink:href="#DejaVuSans-Bold-6f" x="64.310547"/>
       <use xlink:href="#DejaVuSans-Bold-6c" x="133.011719"/>
       <use xlink:href="#DejaVuSans-Bold-64" x="167.289062"/>
       <use xlink:href="#DejaVuSans-Bold-5f" x="238.871094"/>
       <use xlink:href="#DejaVuSans-Bold-53" x="288.871094"/>
       <use xlink:href="#DejaVuSans-Bold-77" x="360.892578"/>
       <use xlink:href="#DejaVuSans-Bold-69" x="453.275391"/>
       <use xlink:href="#DejaVuSans-Bold-74" x="487.552734"/>
       <use xlink:href="#DejaVuSans-Bold-63" x="535.355469"/>
       <use xlink:href="#DejaVuSans-Bold-68" x="594.632812"/>
       <use xlink:href="#DejaVuSans-Bold-69" x="665.824219"/>
       <use xlink:href="#DejaVuSans-Bold-6e" x="700.101562"/>
       <use xlink:href="#DejaVuSans-Bold-67" x="771.292969"/>
      </g>
     </g>
    </g>
    <g id="ytick_6">
     <g id="line2d_6">
      <g>
       <use xlink:href="#me7ffe0b62c" x="182.775" y="311.954047" style="stroke: #000000; stroke-width: 0.8"/>
      </g>
     </g>
     <g id="text_6">
      <!-- mdsolv -->
      <g style="fill: #586069" transform="translate(95.08125 319.552485) scale(0.2 -0.2)">
       <defs>
        <path id="DejaVuSans-Bold-6d" d="M 3781 2919 
Q 3994 3244 4286 3414 
Q 4578 3584 4928 3584 
Q 5531 3584 5847 3212 
Q 6163 2841 6163 2131 
L 6163 0 
L 5038 0 
L 5038 1825 
Q 5041 1866 5042 1909 
Q 5044 1953 5044 2034 
Q 5044 2406 4934 2573 
Q 4825 2741 4581 2741 
Q 4263 2741 4089 2478 
Q 3916 2216 3909 1719 
L 3909 0 
L 2784 0 
L 2784 1825 
Q 2784 2406 2684 2573 
Q 2584 2741 2328 2741 
Q 2006 2741 1831 2477 
Q 1656 2213 1656 1722 
L 1656 0 
L 531 0 
L 531 3500 
L 1656 3500 
L 1656 2988 
Q 1863 3284 2130 3434 
Q 2397 3584 2719 3584 
Q 3081 3584 3359 3409 
Q 3638 3234 3781 2919 
z
" transform="scale(0.015625)"/>
       </defs>
       <use xlink:href="#DejaVuSans-Bold-6d"/>
       <use xlink:href="#DejaVuSans-Bold-64" x="104.199219"/>
       <use xlink:href="#DejaVuSans-Bold-73" x="175.78125"/>
       <use xlink:href="#DejaVuSans-Bold-6f" x="235.302734"/>
       <use xlink:href="#DejaVuSans-Bold-6c" x="304.003906"/>
       <use xlink:href="#DejaVuSans-Bold-76" x="338.28125"/>
      </g>
     </g>
    </g>
   </g>
   <g id="patch_9">
    <path d="M 182.775 336.245065 
L 182.775 56.32 
" style="fill: none; stroke: #000000; stroke-width: 0.8; stroke-linejoin: miter; stroke-linecap: square"/>
   </g>
   <g id="patch_10">
    <path d="M 182.775 336.245065 
L 668.770061 336.245065 
" style="fill: none; stroke: #000000; stroke-width: 0.8; stroke-linejoin: miter; stroke-linecap: square"/>
   </g>
   <g id="text_7">
    <!-- 8 hrs 22 mins -->
    <g style="fill: #586069" transform="translate(649.62744 84.750081) scale(0.15 -0.15)">
     <defs>
      <path id="DejaVuSans-Bold-38" d="M 2228 2088 
Q 1891 2088 1709 1903 
Q 1528 1719 1528 1375 
Q 1528 1031 1709 848 
Q 1891 666 2228 666 
Q 2563 666 2741 848 
Q 2919 1031 2919 1375 
Q 2919 1722 2741 1905 
Q 2563 2088 2228 2088 
z
M 1350 2484 
Q 925 2613 709 2878 
Q 494 3144 494 3541 
Q 494 4131 934 4440 
Q 1375 4750 2228 4750 
Q 3075 4750 3515 4442 
Q 3956 4134 3956 3541 
Q 3956 3144 3739 2878 
Q 3522 2613 3097 2484 
Q 3572 2353 3814 2058 
Q 4056 1763 4056 1313 
Q 4056 619 3595 264 
Q 3134 -91 2228 -91 
Q 1319 -91 855 264 
Q 391 619 391 1313 
Q 391 1763 633 2058 
Q 875 2353 1350 2484 
z
M 1631 3419 
Q 1631 3141 1786 2991 
Q 1941 2841 2228 2841 
Q 2509 2841 2662 2991 
Q 2816 3141 2816 3419 
Q 2816 3697 2662 3845 
Q 2509 3994 2228 3994 
Q 1941 3994 1786 3844 
Q 1631 3694 1631 3419 
z
" transform="scale(0.015625)"/>
      <path id="DejaVuSans-Bold-20" transform="scale(0.015625)"/>
      <path id="DejaVuSans-Bold-32" d="M 1844 884 
L 3897 884 
L 3897 0 
L 506 0 
L 506 884 
L 2209 2388 
Q 2438 2594 2547 2791 
Q 2656 2988 2656 3200 
Q 2656 3528 2436 3728 
Q 2216 3928 1850 3928 
Q 1569 3928 1234 3808 
Q 900 3688 519 3450 
L 519 4475 
Q 925 4609 1322 4679 
Q 1719 4750 2100 4750 
Q 2938 4750 3402 4381 
Q 3866 4013 3866 3353 
Q 3866 2972 3669 2642 
Q 3472 2313 2841 1759 
L 1844 884 
z
" transform="scale(0.015625)"/>
     </defs>
     <use xlink:href="#DejaVuSans-Bold-38"/>
     <use xlink:href="#DejaVuSans-Bold-20" x="69.580078"/>
     <use xlink:href="#DejaVuSans-Bold-68" x="104.394531"/>
     <use xlink:href="#DejaVuSans-Bold-72" x="175.585938"/>
     <use xlink:href="#DejaVuSans-Bold-73" x="224.902344"/>
     <use xlink:href="#DejaVuSans-Bold-20" x="284.423828"/>
     <use xlink:href="#DejaVuSans-Bold-32" x="319.238281"/>
     <use xlink:href="#DejaVuSans-Bold-32" x="388.818359"/>
     <use xlink:href="#DejaVuSans-Bold-20" x="458.398438"/>
     <use xlink:href="#DejaVuSans-Bold-6d" x="493.212891"/>
     <use xlink:href="#DejaVuSans-Bold-69" x="597.412109"/>
     <use xlink:href="#DejaVuSans-Bold-6e" x="631.689453"/>
     <use xlink:href="#DejaVuSans-Bold-73" x="702.880859"/>
    </g>
   </g>
   <g id="text_8">
    <!-- 6 hrs 31 mins -->
    <g style="fill: #586069" transform="translate(547.831714 131.018686) scale(0.15 -0.15)">
     <defs>
      <path id="DejaVuSans-Bold-36" d="M 2316 2303 
Q 2000 2303 1842 2098 
Q 1684 1894 1684 1484 
Q 1684 1075 1842 870 
Q 2000 666 2316 666 
Q 2634 666 2792 870 
Q 2950 1075 2950 1484 
Q 2950 1894 2792 2098 
Q 2634 2303 2316 2303 
z
M 3803 4544 
L 3803 3681 
Q 3506 3822 3243 3889 
Q 2981 3956 2731 3956 
Q 2194 3956 1894 3657 
Q 1594 3359 1544 2772 
Q 1750 2925 1990 3001 
Q 2231 3078 2516 3078 
Q 3231 3078 3670 2659 
Q 4109 2241 4109 1563 
Q 4109 813 3618 361 
Q 3128 -91 2303 -91 
Q 1394 -91 895 523 
Q 397 1138 397 2266 
Q 397 3422 980 4083 
Q 1563 4744 2578 4744 
Q 2900 4744 3203 4694 
Q 3506 4644 3803 4544 
z
" transform="scale(0.015625)"/>
      <path id="DejaVuSans-Bold-33" d="M 2981 2516 
Q 3453 2394 3698 2092 
Q 3944 1791 3944 1325 
Q 3944 631 3412 270 
Q 2881 -91 1863 -91 
Q 1503 -91 1142 -33 
Q 781 25 428 141 
L 428 1069 
Q 766 900 1098 814 
Q 1431 728 1753 728 
Q 2231 728 2486 893 
Q 2741 1059 2741 1369 
Q 2741 1688 2480 1852 
Q 2219 2016 1709 2016 
L 1228 2016 
L 1228 2791 
L 1734 2791 
Q 2188 2791 2409 2933 
Q 2631 3075 2631 3366 
Q 2631 3634 2415 3781 
Q 2200 3928 1806 3928 
Q 1516 3928 1219 3862 
Q 922 3797 628 3669 
L 628 4550 
Q 984 4650 1334 4700 
Q 1684 4750 2022 4750 
Q 2931 4750 3382 4451 
Q 3834 4153 3834 3553 
Q 3834 3144 3618 2883 
Q 3403 2622 2981 2516 
z
" transform="scale(0.015625)"/>
      <path id="DejaVuSans-Bold-31" d="M 750 831 
L 1813 831 
L 1813 3847 
L 722 3622 
L 722 4441 
L 1806 4666 
L 2950 4666 
L 2950 831 
L 4013 831 
L 4013 0 
L 750 0 
L 750 831 
z
" transform="scale(0.015625)"/>
     </defs>
     <use xlink:href="#DejaVuSans-Bold-36"/>
     <use xlink:href="#DejaVuSans-Bold-20" x="69.580078"/>
     <use xlink:href="#DejaVuSans-Bold-68" x="104.394531"/>
     <use xlink:href="#DejaVuSans-Bold-72" x="175.585938"/>
     <use xlink:href="#DejaVuSans-Bold-73" x="224.902344"/>
     <use xlink:href="#DejaVuSans-Bold-20" x="284.423828"/>
     <use xlink:href="#DejaVuSans-Bold-33" x="319.238281"/>
     <use xlink:href="#DejaVuSans-Bold-31" x="388.818359"/>
     <use xlink:href="#DejaVuSans-Bold-20" x="458.398438"/>
     <use xlink:href="#DejaVuSans-Bold-6d" x="493.212891"/>
     <use xlink:href="#DejaVuSans-Bold-69" x="597.412109"/>
     <use xlink:href="#DejaVuSans-Bold-6e" x="631.689453"/>
     <use xlink:href="#DejaVuSans-Bold-73" x="702.880859"/>
    </g>
   </g>
   <g id="text_9">
    <!-- 6 hrs 2 mins -->
    <g style="fill: #586069" transform="translate(520.792224 177.287292) scale(0.15 -0.15)">
     <use xlink:href="#DejaVuSans-Bold-36"/>
     <use xlink:href="#DejaVuSans-Bold-20" x="69.580078"/>
     <use xlink:href="#DejaVuSans-Bold-68" x="104.394531"/>
     <use xlink:href="#DejaVuSans-Bold-72" x="175.585938"/>
     <use xlink:href="#DejaVuSans-Bold-73" x="224.902344"/>
     <use xlink:href="#DejaVuSans-Bold-20" x="284.423828"/>
     <use xlink:href="#DejaVuSans-Bold-32" x="319.238281"/>
     <use xlink:href="#DejaVuSans-Bold-20" x="388.818359"/>
     <use xlink:href="#DejaVuSans-Bold-6d" x="423.632812"/>
     <use xlink:href="#DejaVuSans-Bold-69" x="527.832031"/>
     <use xlink:href="#DejaVuSans-Bold-6e" x="562.109375"/>
     <use xlink:href="#DejaVuSans-Bold-73" x="633.300781"/>
    </g>
   </g>
   <g id="text_10">
    <!-- 2 hrs 21 mins -->
    <g style="fill: #586069" transform="translate(317.34537 223.555898) scale(0.15 -0.15)">
     <use xlink:href="#DejaVuSans-Bold-32"/>
     <use xlink:href="#DejaVuSans-Bold-20" x="69.580078"/>
     <use xlink:href="#DejaVuSans-Bold-68" x="104.394531"/>
     <use xlink:href="#DejaVuSans-Bold-72" x="175.585938"/>
     <use xlink:href="#DejaVuSans-Bold-73" x="224.902344"/>
     <use xlink:href="#DejaVuSans-Bold-20" x="284.423828"/>
     <use xlink:href="#DejaVuSans-Bold-32" x="319.238281"/>
     <use xlink:href="#DejaVuSans-Bold-31" x="388.818359"/>
     <use xlink:href="#DejaVuSans-Bold-20" x="458.398438"/>
     <use xlink:href="#DejaVuSans-Bold-6d" x="493.212891"/>
     <use xlink:href="#DejaVuSans-Bold-69" x="597.412109"/>
     <use xlink:href="#DejaVuSans-Bold-6e" x="631.689453"/>
     <use xlink:href="#DejaVuSans-Bold-73" x="702.880859"/>
    </g>
   </g>
   <g id="text_11">
    <!-- 1 hr 22 mins -->
    <g style="fill: #586069" transform="translate(262.977198 269.824504) scale(0.15 -0.15)">
     <use xlink:href="#DejaVuSans-Bold-31"/>
     <use xlink:href="#DejaVuSans-Bold-20" x="69.580078"/>
     <use xlink:href="#DejaVuSans-Bold-68" x="104.394531"/>
     <use xlink:href="#DejaVuSans-Bold-72" x="175.585938"/>
     <use xlink:href="#DejaVuSans-Bold-20" x="224.902344"/>
     <use xlink:href="#DejaVuSans-Bold-32" x="259.716797"/>
     <use xlink:href="#DejaVuSans-Bold-32" x="329.296875"/>
     <use xlink:href="#DejaVuSans-Bold-20" x="398.876953"/>
     <use xlink:href="#DejaVuSans-Bold-6d" x="433.691406"/>
     <use xlink:href="#DejaVuSans-Bold-69" x="537.890625"/>
     <use xlink:href="#DejaVuSans-Bold-6e" x="572.167969"/>
     <use xlink:href="#DejaVuSans-Bold-73" x="643.359375"/>
    </g>
   </g>
   <g id="text_12">
    <!-- 54 mins -->
    <g style="fill: #586069" transform="translate(237.094478 316.09311) scale(0.15 -0.15)">
     <defs>
      <path id="DejaVuSans-Bold-35" d="M 678 4666 
L 3669 4666 
L 3669 3781 
L 1638 3781 
L 1638 3059 
Q 1775 3097 1914 3117 
Q 2053 3138 2203 3138 
Q 3056 3138 3531 2711 
Q 4006 2284 4006 1522 
Q 4006 766 3489 337 
Q 2972 -91 2053 -91 
Q 1656 -91 1267 -14 
Q 878 63 494 219 
L 494 1166 
Q 875 947 1217 837 
Q 1559 728 1863 728 
Q 2300 728 2551 942 
Q 2803 1156 2803 1522 
Q 2803 1891 2551 2103 
Q 2300 2316 1863 2316 
Q 1603 2316 1309 2248 
Q 1016 2181 678 2041 
L 678 4666 
z
" transform="scale(0.015625)"/>
      <path id="DejaVuSans-Bold-34" d="M 2356 3675 
L 1038 1722 
L 2356 1722 
L 2356 3675 
z
M 2156 4666 
L 3494 4666 
L 3494 1722 
L 4159 1722 
L 4159 850 
L 3494 850 
L 3494 0 
L 2356 0 
L 2356 850 
L 288 850 
L 288 1881 
L 2156 4666 
z
" transform="scale(0.015625)"/>
     </defs>
     <use xlink:href="#DejaVuSans-Bold-35"/>
     <use xlink:href="#DejaVuSans-Bold-34" x="69.580078"/>
     <use xlink:href="#DejaVuSans-Bold-20" x="139.160156"/>
     <use xlink:href="#DejaVuSans-Bold-6d" x="173.974609"/>
     <use xlink:href="#DejaVuSans-Bold-69" x="278.173828"/>
     <use xlink:href="#DejaVuSans-Bold-6e" x="312.451172"/>
     <use xlink:href="#DejaVuSans-Bold-73" x="383.642578"/>
    </g>
   </g>
   <g id="text_13">
    <!-- Projects touched : -->
    <g style="fill: #2a475e" transform="translate(364.141281 50.32) scale(0.12 -0.12)">
     <defs>
      <path id="DejaVuSans-Bold-75" d="M 500 1363 
L 500 3500 
L 1625 3500 
L 1625 3150 
Q 1625 2866 1622 2436 
Q 1619 2006 1619 1863 
Q 1619 1441 1641 1255 
Q 1663 1069 1716 984 
Q 1784 875 1895 815 
Q 2006 756 2150 756 
Q 2500 756 2700 1025 
Q 2900 1294 2900 1772 
L 2900 3500 
L 4019 3500 
L 4019 0 
L 2900 0 
L 2900 506 
Q 2647 200 2364 54 
Q 2081 -91 1741 -91 
Q 1134 -91 817 281 
Q 500 653 500 1363 
z
" transform="scale(0.015625)"/>
      <path id="DejaVuSans-Bold-3a" d="M 716 3500 
L 1844 3500 
L 1844 2291 
L 716 2291 
L 716 3500 
z
M 716 1209 
L 1844 1209 
L 1844 0 
L 716 0 
L 716 1209 
z
" transform="scale(0.015625)"/>
     </defs>
     <use xlink:href="#DejaVuSans-Bold-50"/>
     <use xlink:href="#DejaVuSans-Bold-72" x="73.291016"/>
     <use xlink:href="#DejaVuSans-Bold-6f" x="122.607422"/>
     <use xlink:href="#DejaVuSans-Bold-6a" x="191.308594"/>
     <use xlink:href="#DejaVuSans-Bold-65" x="225.585938"/>
     <use xlink:href="#DejaVuSans-Bold-63" x="293.408203"/>
     <use xlink:href="#DejaVuSans-Bold-74" x="352.685547"/>
     <use xlink:href="#DejaVuSans-Bold-73" x="400.488281"/>
     <use xlink:href="#DejaVuSans-Bold-20" x="460.009766"/>
     <use xlink:href="#DejaVuSans-Bold-74" x="494.824219"/>
     <use xlink:href="#DejaVuSans-Bold-6f" x="542.626953"/>
     <use xlink:href="#DejaVuSans-Bold-75" x="611.328125"/>
     <use xlink:href="#DejaVuSans-Bold-63" x="682.519531"/>
     <use xlink:href="#DejaVuSans-Bold-68" x="741.796875"/>
     <use xlink:href="#DejaVuSans-Bold-65" x="812.988281"/>
     <use xlink:href="#DejaVuSans-Bold-64" x="880.810547"/>
     <use xlink:href="#DejaVuSans-Bold-20" x="952.392578"/>
     <use xlink:href="#DejaVuSans-Bold-3a" x="987.207031"/>
    </g>
   </g>
  </g>
  <g id="axes_2">
   <g id="patch_11">
    <path d="M 821.424218 89.100394 
L 862.843013 89.100394 
L 885.566633 118.150076 
" style="fill: none; stroke: #000000; stroke-linecap: round"/>
   </g>
   <g id="text_14">
    <g id="patch_12">
     <path d="M 763.95762 98.554144 
L 819.065745 98.554144 
L 819.065745 79.646644 
L 763.95762 79.646644 
z
" style="fill: #ffffff; stroke: #000000; stroke-width: 0.72; stroke-linejoin: miter"/>
    </g>
    <!-- Python -->
    <g style="fill: #2a475e" transform="translate(767.55762 92.364769) scale(0.12 -0.12)">
     <use xlink:href="#DejaVuSans-Bold-50"/>
     <use xlink:href="#DejaVuSans-Bold-79" x="75.166016"/>
     <use xlink:href="#DejaVuSans-Bold-74" x="140.351562"/>
     <use xlink:href="#DejaVuSans-Bold-68" x="188.154297"/>
     <use xlink:href="#DejaVuSans-Bold-6f" x="259.345703"/>
     <use xlink:href="#DejaVuSans-Bold-6e" x="328.046875"/>
    </g>
   </g>
   <g id="patch_13">
    <path d="M 1071.944319 331.794832 
L 959.086368 331.794832 
L 955.725049 295.0668 
" style="fill: none; stroke: #000000; stroke-linecap: round"/>
   </g>
   <g id="text_15">
    <g id="patch_14">
     <path d="M 1074.303083 341.201707 
L 1151.903708 341.201707 
L 1151.903708 322.387957 
L 1074.303083 322.387957 
z
" style="fill: #ffffff; stroke: #000000; stroke-width: 0.72; stroke-linejoin: miter"/>
    </g>
    <!-- Markdown -->
    <g style="fill: #2a475e" transform="translate(1077.903083 335.106082) scale(0.12 -0.12)">
     <defs>
      <path id="DejaVuSans-Bold-6b" d="M 538 4863 
L 1656 4863 
L 1656 2216 
L 2944 3500 
L 4244 3500 
L 2534 1894 
L 4378 0 
L 3022 0 
L 1656 1459 
L 1656 0 
L 538 0 
L 538 4863 
z
" transform="scale(0.015625)"/>
     </defs>
     <use xlink:href="#DejaVuSans-Bold-4d"/>
     <use xlink:href="#DejaVuSans-Bold-61" x="99.511719"/>
     <use xlink:href="#DejaVuSans-Bold-72" x="166.992188"/>
     <use xlink:href="#DejaVuSans-Bold-6b" x="216.308594"/>
     <use xlink:href="#DejaVuSans-Bold-64" x="282.8125"/>
     <use xlink:href="#DejaVuSans-Bold-6f" x="354.394531"/>
     <use xlink:href="#DejaVuSans-Bold-77" x="423.095703"/>
     <use xlink:href="#DejaVuSans-Bold-6e" x="515.478516"/>
    </g>
   </g>
   <g id="patch_15">
    <path d="M 1071.942041 277.872744 
L 1055.589989 277.872744 
L 1026.073211 255.759269 
" style="fill: none; stroke: #000000; stroke-linecap: round"/>
   </g>
   <g id="text_16">
    <g id="patch_16">
     <path d="M 1074.303083 287.279619 
L 1105.489958 287.279619 
L 1105.489958 268.465869 
L 1074.303083 268.465869 
z
" style="fill: #ffffff; stroke: #000000; stroke-width: 0.72; stroke-linejoin: miter"/>
    </g>
    <!-- TeX -->
    <g style="fill: #2a475e" transform="translate(1077.903083 281.183994) scale(0.12 -0.12)">
     <defs>
      <path id="DejaVuSans-Bold-58" d="M 3188 2381 
L 4806 0 
L 3553 0 
L 2463 1594 
L 1381 0 
L 122 0 
L 1741 2381 
L 184 4666 
L 1441 4666 
L 2463 3163 
L 3481 4666 
L 4744 4666 
L 3188 2381 
z
" transform="scale(0.015625)"/>
     </defs>
     <use xlink:href="#DejaVuSans-Bold-54"/>
     <use xlink:href="#DejaVuSans-Bold-65" x="54.962891"/>
     <use xlink:href="#DejaVuSans-Bold-58" x="122.785156"/>
    </g>
   </g>
   <g id="patch_17">
    <path d="M 1071.967054 215.318834 
L 1044.757799 211.184471 
" style="fill: none; stroke: #000000; stroke-linecap: round"/>
   </g>
   <g id="text_17">
    <g id="patch_18">
     <path d="M 1074.303083 226.131485 
L 1117.911833 226.131485 
L 1117.911833 207.317735 
L 1074.303083 207.317735 
z
" style="fill: #ffffff; stroke: #000000; stroke-width: 0.72; stroke-linejoin: miter"/>
    </g>
    <!-- YAML -->
    <g style="fill: #2a475e" transform="translate(1077.903083 220.03586) scale(0.12 -0.12)">
     <defs>
      <path id="DejaVuSans-Bold-59" d="M -63 4666 
L 1253 4666 
L 2316 3003 
L 3378 4666 
L 4697 4666 
L 2919 1966 
L 2919 0 
L 1716 0 
L 1716 1966 
L -63 4666 
z
" transform="scale(0.015625)"/>
      <path id="DejaVuSans-Bold-4c" d="M 588 4666 
L 1791 4666 
L 1791 909 
L 3903 909 
L 3903 0 
L 588 0 
L 588 4666 
z
" transform="scale(0.015625)"/>
     </defs>
     <use xlink:href="#DejaVuSans-Bold-59"/>
     <use xlink:href="#DejaVuSans-Bold-41" x="62.787109"/>
     <use xlink:href="#DejaVuSans-Bold-4d" x="140.179688"/>
     <use xlink:href="#DejaVuSans-Bold-4c" x="239.691406"/>
    </g>
   </g>
   <g id="patch_19">
    <path d="M 1071.952022 184.451173 
L 1045.446188 186.954615 
" style="fill: none; stroke: #000000; stroke-linecap: round"/>
   </g>
   <g id="text_18">
    <g id="patch_20">
     <path d="M 1074.303083 192.893909 
L 1120.039958 192.893909 
L 1120.039958 174.080159 
L 1074.303083 174.080159 
z
" style="fill: #ffffff; stroke: #000000; stroke-width: 0.72; stroke-linejoin: miter"/>
    </g>
    <!-- Other -->
    <g style="fill: #2a475e" transform="translate(1077.903083 186.798284) scale(0.12 -0.12)">
     <defs>
      <path id="DejaVuSans-Bold-4f" d="M 2719 3878 
Q 2169 3878 1866 3472 
Q 1563 3066 1563 2328 
Q 1563 1594 1866 1187 
Q 2169 781 2719 781 
Q 3272 781 3575 1187 
Q 3878 1594 3878 2328 
Q 3878 3066 3575 3472 
Q 3272 3878 2719 3878 
z
M 2719 4750 
Q 3844 4750 4481 4106 
Q 5119 3463 5119 2328 
Q 5119 1197 4481 553 
Q 3844 -91 2719 -91 
Q 1597 -91 958 553 
Q 319 1197 319 2328 
Q 319 3463 958 4106 
Q 1597 4750 2719 4750 
z
" transform="scale(0.015625)"/>
     </defs>
     <use xlink:href="#DejaVuSans-Bold-4f"/>
     <use xlink:href="#DejaVuSans-Bold-74" x="85.009766"/>
     <use xlink:href="#DejaVuSans-Bold-68" x="132.8125"/>
     <use xlink:href="#DejaVuSans-Bold-65" x="204.003906"/>
     <use xlink:href="#DejaVuSans-Bold-72" x="271.826172"/>
    </g>
   </g>
   <g id="patch_21">
    <path d="M 1040.462775 181.348082 
C 1037.549287 164.824872 1030.406581 149.334141 1019.732489 136.389311 
C 1009.058398 123.444481 995.212237 113.481307 979.546757 107.473178 
C 963.881278 101.465049 946.923819 99.614213 930.331101 102.101495 
C 913.738383 104.588776 898.068958 111.330447 884.853707 121.667856 
C 871.638457 132.005264 861.322238 145.590427 854.912933 161.096092 
C 848.503628 176.601758 846.216988 193.505967 848.276416 210.157202 
C 850.335844 226.808436 856.672014 242.646175 866.665891 256.123091 
C 876.659768 269.600008 889.974933 280.262437 905.310513 287.068673 
L 925.025473 242.647593 
C 917.357683 239.244475 910.700101 233.913261 905.703162 227.174802 
C 900.706224 220.436344 897.538139 212.517475 896.508425 204.191857 
C 895.478711 195.86624 896.622031 187.414135 899.826683 179.661303 
C 903.031336 171.90847 908.189445 165.115888 914.79707 159.947184 
C 921.404696 154.77848 929.239408 151.407645 937.535767 150.164004 
C 945.832126 148.920363 954.310856 149.845781 962.143595 152.849845 
C 969.976335 155.85391 976.899416 160.835497 982.236461 167.307912 
C 987.573507 173.780327 991.14486 181.525693 992.601604 189.787297 
z
" style="fill: #092436; opacity: 0.5; stroke: #092436; stroke-width: 4; stroke-linejoin: miter"/>
   </g>
   <g id="patch_22">
    <path d="M 906.196375 296.748122 
C 921.349836 303.473527 937.974965 306.211419 954.484824 304.70046 
C 970.994684 303.189494 986.846696 297.47931 1000.527639 288.115 
L 973.076965 248.010481 
C 966.236494 252.692636 958.310488 255.547728 950.055558 256.303211 
C 941.800628 257.058691 933.488064 255.689745 925.911333 252.327042 
z
" style="fill: #4d2604; opacity: 0.5; stroke: #4d2604; stroke-width: 4; stroke-linejoin: miter"/>
   </g>
   <g id="patch_23">
    <path d="M 1007.420752 284.263424 
C 1016.198723 278.255094 1023.931162 270.846309 1030.309106 262.333107 
C 1036.687051 253.819905 1041.624445 244.31718 1044.924036 234.204538 
L 998.72172 219.129461 
C 997.071925 224.185783 994.603228 228.937145 991.414255 233.193746 
C 988.225283 237.450347 984.359063 241.154739 979.970078 244.158905 
z
" style="fill: #0d300d; opacity: 0.5; stroke: #0d300d; stroke-width: 4; stroke-linejoin: miter"/>
   </g>
   <g id="patch_24">
    <path d="M 1046.754668 229.836809 
C 1048.409834 224.764027 1049.644472 219.563573 1050.446056 214.288141 
C 1051.247641 209.012709 1051.613449 203.680194 1051.539785 198.344719 
L 1002.94491 199.015688 
C 1002.981743 201.683425 1002.798839 204.349683 1002.398046 206.987399 
C 1001.997254 209.625115 1001.379935 212.225342 1000.552352 214.761733 
z
" style="fill: #400c0c; opacity: 0.5; stroke: #400c0c; stroke-width: 4; stroke-linejoin: miter"/>
   </g>
   <g id="patch_25">
    <path d="M 1051.607017 195.970607 
C 1051.571063 193.366761 1051.430483 190.765412 1051.18562 188.172856 
C 1050.940758 185.580299 1050.591803 182.998631 1050.139608 180.4341 
L 1002.278438 188.873322 
C 1002.504536 190.155588 1002.679013 191.446422 1002.801445 192.7427 
C 1002.923876 194.038978 1002.994166 195.339653 1003.012143 196.641576 
z
" style="fill: #2c1f39; opacity: 0.5; stroke: #2c1f39; stroke-width: 4; stroke-linejoin: miter"/>
   </g>
   <g id="patch_26">
    <path d="M 1042.406755 179.404101 
C 1039.493267 162.880892 1032.350561 147.390161 1021.67647 134.44533 
C 1011.002378 121.5005 997.156217 111.537327 981.490737 105.529198 
C 965.825258 99.521069 948.867799 97.670233 932.275081 100.157515 
C 915.682363 102.644796 900.012938 109.386467 886.797688 119.723875 
C 873.582437 130.061284 863.266219 143.646447 856.856913 159.152112 
C 850.447608 174.657778 848.160968 191.561987 850.220396 208.213221 
C 852.279824 224.864456 858.615994 240.702195 868.609871 254.179111 
C 878.603748 267.656028 891.918913 278.318457 907.254493 285.124693 
L 926.969454 240.703613 
C 919.301664 237.300495 912.644081 231.96928 907.647143 225.230822 
C 902.650204 218.492364 899.482119 210.573494 898.452405 202.247877 
C 897.422691 193.92226 898.566011 185.470155 901.770664 177.717322 
C 904.975316 169.96449 910.133425 163.171908 916.741051 158.003204 
C 923.348676 152.8345 931.183389 149.463664 939.479747 148.220024 
C 947.776106 146.976383 956.254836 147.901801 964.087576 150.905865 
C 971.920315 153.90993 978.843396 158.891517 984.180442 165.363932 
C 989.517488 171.836347 993.088841 179.581712 994.545584 187.843317 
z
" style="fill: #1f77b4; stroke: #ffffff; stroke-width: 4; stroke-linejoin: miter"/>
   </g>
   <g id="patch_27">
    <path d="M 908.140355 294.804142 
C 923.293816 301.529547 939.918945 304.267439 956.428805 302.75648 
C 972.938664 301.245514 988.790677 295.53533 1002.471619 286.17102 
L 975.020945 246.066501 
C 968.180474 250.748656 960.254468 253.603748 951.999538 254.359231 
C 943.744608 255.114711 935.432044 253.745764 927.855313 250.383062 
z
" style="fill: #ff7f0e; stroke: #ffffff; stroke-width: 4; stroke-linejoin: miter"/>
   </g>
   <g id="patch_28">
    <path d="M 1009.364732 282.319444 
C 1018.142703 276.311113 1025.875142 268.902329 1032.253087 260.389127 
C 1038.631031 251.875925 1043.568425 242.3732 1046.868016 232.260557 
L 1000.6657 217.185481 
C 999.015905 222.241803 996.547208 226.993165 993.358236 231.249766 
C 990.169263 235.506367 986.303044 239.210759 981.914058 242.214924 
z
" style="fill: #2ca02c; stroke: #ffffff; stroke-width: 4; stroke-linejoin: miter"/>
   </g>
   <g id="patch_29">
    <path d="M 1048.698648 227.892829 
C 1050.353814 222.820046 1051.588452 217.619593 1052.390037 212.34416 
C 1053.191621 207.068729 1053.557429 201.736214 1053.483765 196.400739 
L 1004.888891 197.071708 
C 1004.925723 199.739445 1004.742819 202.405703 1004.342026 205.043419 
C 1003.941234 207.681135 1003.323915 210.281362 1002.496332 212.817753 
z
" style="fill: #d62728; stroke: #ffffff; stroke-width: 4; stroke-linejoin: miter"/>
   </g>
   <g id="patch_30">
    <path d="M 1053.550998 194.026627 
C 1053.515043 191.422781 1053.374463 188.821432 1053.129601 186.228876 
C 1052.884738 183.636319 1052.535783 181.054651 1052.083588 178.490119 
L 1004.222418 186.929342 
C 1004.448516 188.211607 1004.622994 189.502442 1004.745425 190.79872 
C 1004.867856 192.094998 1004.938146 193.395672 1004.956123 194.697595 
z
" style="fill: #9467bd; stroke: #ffffff; stroke-width: 4; stroke-linejoin: miter"/>
   </g>
   <g id="matplotlib.axis_3"/>
   <g id="matplotlib.axis_4"/>
   <g id="text_19">
    <!-- Languages -->
    <g style="fill: #2a475e" transform="translate(916.106289 198.963783) scale(0.1 -0.1)">
     <use xlink:href="#DejaVuSans-Bold-4c"/>
     <use xlink:href="#DejaVuSans-Bold-61" x="63.720703"/>
     <use xlink:href="#DejaVuSans-Bold-6e" x="131.201172"/>
     <use xlink:href="#DejaVuSans-Bold-67" x="202.392578"/>
     <use xlink:href="#DejaVuSans-Bold-75" x="273.974609"/>
     <use xlink:href="#DejaVuSans-Bold-61" x="345.166016"/>
     <use xlink:href="#DejaVuSans-Bold-67" x="412.646484"/>
     <use xlink:href="#DejaVuSans-Bold-65" x="484.228516"/>
     <use xlink:href="#DejaVuSans-Bold-73" x="552.050781"/>
    </g>
   </g>
   <g id="text_20">
    <!-- Languages exploited : -->
    <g style="fill: #2a475e" transform="translate(871.711601 68.783767) scale(0.12 -0.12)">
     <defs>
      <path id="DejaVuSans-Bold-78" d="M 1422 1791 
L 159 3500 
L 1344 3500 
L 2059 2463 
L 2784 3500 
L 3969 3500 
L 2706 1797 
L 4031 0 
L 2847 0 
L 2059 1106 
L 1281 0 
L 97 0 
L 1422 1791 
z
" transform="scale(0.015625)"/>
      <path id="DejaVuSans-Bold-70" d="M 1656 506 
L 1656 -1331 
L 538 -1331 
L 538 3500 
L 1656 3500 
L 1656 2988 
Q 1888 3294 2169 3439 
Q 2450 3584 2816 3584 
Q 3463 3584 3878 3070 
Q 4294 2556 4294 1747 
Q 4294 938 3878 423 
Q 3463 -91 2816 -91 
Q 2450 -91 2169 54 
Q 1888 200 1656 506 
z
M 2400 2772 
Q 2041 2772 1848 2508 
Q 1656 2244 1656 1747 
Q 1656 1250 1848 986 
Q 2041 722 2400 722 
Q 2759 722 2948 984 
Q 3138 1247 3138 1747 
Q 3138 2247 2948 2509 
Q 2759 2772 2400 2772 
z
" transform="scale(0.015625)"/>
     </defs>
     <use xlink:href="#DejaVuSans-Bold-4c"/>
     <use xlink:href="#DejaVuSans-Bold-61" x="63.720703"/>
     <use xlink:href="#DejaVuSans-Bold-6e" x="131.201172"/>
     <use xlink:href="#DejaVuSans-Bold-67" x="202.392578"/>
     <use xlink:href="#DejaVuSans-Bold-75" x="273.974609"/>
     <use xlink:href="#DejaVuSans-Bold-61" x="345.166016"/>
     <use xlink:href="#DejaVuSans-Bold-67" x="412.646484"/>
     <use xlink:href="#DejaVuSans-Bold-65" x="484.228516"/>
     <use xlink:href="#DejaVuSans-Bold-73" x="552.050781"/>
     <use xlink:href="#DejaVuSans-Bold-20" x="611.572266"/>
     <use xlink:href="#DejaVuSans-Bold-65" x="646.386719"/>
     <use xlink:href="#DejaVuSans-Bold-78" x="714.208984"/>
     <use xlink:href="#DejaVuSans-Bold-70" x="778.710938"/>
     <use xlink:href="#DejaVuSans-Bold-6c" x="850.292969"/>
     <use xlink:href="#DejaVuSans-Bold-6f" x="884.570312"/>
     <use xlink:href="#DejaVuSans-Bold-69" x="953.271484"/>
     <use xlink:href="#DejaVuSans-Bold-74" x="987.548828"/>
     <use xlink:href="#DejaVuSans-Bold-65" x="1035.351562"/>
     <use xlink:href="#DejaVuSans-Bold-64" x="1103.173828"/>
     <use xlink:href="#DejaVuSans-Bold-20" x="1174.755859"/>
     <use xlink:href="#DejaVuSans-Bold-3a" x="1209.570312"/>
    </g>
   </g>
  </g>
  <g id="text_21">
   <!-- From 06 July, 2026 to 13 July, 2026: 26 hrs 8 mins -->
   <g transform="translate(159.218906 29.995312) scale(0.3 -0.3)">
    <defs>
     <path id="DejaVuSans-Bold-30" d="M 2944 2338 
Q 2944 3213 2780 3570 
Q 2616 3928 2228 3928 
Q 1841 3928 1675 3570 
Q 1509 3213 1509 2338 
Q 1509 1453 1675 1090 
Q 1841 728 2228 728 
Q 2613 728 2778 1090 
Q 2944 1453 2944 2338 
z
M 4147 2328 
Q 4147 1169 3647 539 
Q 3147 -91 2228 -91 
Q 1306 -91 806 539 
Q 306 1169 306 2328 
Q 306 3491 806 4120 
Q 1306 4750 2228 4750 
Q 3147 4750 3647 4120 
Q 4147 3491 4147 2328 
z
" transform="scale(0.015625)"/>
     <path id="DejaVuSans-Bold-4a" d="M 588 4666 
L 1791 4666 
L 1791 453 
Q 1791 -419 1317 -850 
Q 844 -1281 -116 -1281 
L -359 -1281 
L -359 -372 
L -172 -372 
Q 203 -372 395 -162 
Q 588 47 588 453 
L 588 4666 
z
" transform="scale(0.015625)"/>
     <path id="DejaVuSans-Bold-2c" d="M 653 1209 
L 1778 1209 
L 1778 256 
L 1006 -909 
L 341 -909 
L 653 256 
L 653 1209 
z
" transform="scale(0.015625)"/>
    </defs>
    <use xlink:href="#DejaVuSans-Bold-46"/>
    <use xlink:href="#DejaVuSans-Bold-72" x="61.935547"/>
    <use xlink:href="#DejaVuSans-Bold-6f" x="111.251953"/>
    <use xlink:href="#DejaVuSans-Bold-6d" x="179.953125"/>
    <use xlink:href="#DejaVuSans-Bold-20" x="284.152344"/>
    <use xlink:href="#DejaVuSans-Bold-30" x="318.966797"/>
    <use xlink:href="#DejaVuSans-Bold-36" x="388.546875"/>
    <use xlink:href="#DejaVuSans-Bold-20" x="458.126953"/>
    <use xlink:href="#DejaVuSans-Bold-4a" x="492.941406"/>
    <use xlink:href="#DejaVuSans-Bold-75" x="530.148438"/>
    <use xlink:href="#DejaVuSans-Bold-6c" x="601.339844"/>
    <use xlink:href="#DejaVuSans-Bold-79" x="635.617188"/>
    <use xlink:href="#DejaVuSans-Bold-2c" x="693.052734"/>
    <use xlink:href="#DejaVuSans-Bold-20" x="731.041016"/>
    <use xlink:href="#DejaVuSans-Bold-32" x="765.855469"/>
    <use xlink:href="#DejaVuSans-Bold-30" x="835.435547"/>
    <use xlink:href="#DejaVuSans-Bold-32" x="905.015625"/>
    <use xlink:href="#DejaVuSans-Bold-36" x="974.595703"/>
    <use xlink:href="#DejaVuSans-Bold-20" x="1044.175781"/>
    <use xlink:href="#DejaVuSans-Bold-74" x="1078.990234"/>
    <use xlink:href="#DejaVuSans-Bold-6f" x="1126.792969"/>
    <use xlink:href="#DejaVuSans-Bold-20" x="1195.494141"/>
    <use xlink:href="#DejaVuSans-Bold-31" x="1230.308594"/>
    <use xlink:href="#DejaVuSans-Bold-33" x="1299.888672"/>
    <use xlink:href="#DejaVuSans-Bold-20" x="1369.46875"/>
    <use xlink:href="#DejaVuSans-Bold-4a" x="1404.283203"/>
    <use xlink:href="#DejaVuSans-Bold-75" x="1441.490234"/>
    <use xlink:href="#DejaVuSans-Bold-6c" x="1512.681641"/>
    <use xlink:href="#DejaVuSans-Bold-79" x="1546.958984"/>
    <use xlink:href="#DejaVuSans-Bold-2c" x="1604.394531"/>
    <use xlink:href="#DejaVuSans-Bold-20" x="1642.382812"/>
    <use xlink:href="#DejaVuSans-Bold-32" x="1677.197266"/>
    <use xlink:href="#DejaVuSans-Bold-30" x="1746.777344"/>
    <use xlink:href="#DejaVuSans-Bold-32" x="1816.357422"/>
    <use xlink:href="#DejaVuSans-Bold-36" x="1885.9375"/>
    <use xlink:href="#DejaVuSans-Bold-3a" x="1955.517578"/>
    <use xlink:href="#DejaVuSans-Bold-20" x="1995.507812"/>
    <use xlink:href="#DejaVuSans-Bold-32" x="2030.322266"/>
    <use xlink:href="#DejaVuSans-Bold-36" x="2099.902344"/>
    <use xlink:href="#DejaVuSans-Bold-20" x="2169.482422"/>
    <use xlink:href="#DejaVuSans-Bold-68" x="2204.296875"/>
    <use xlink:href="#DejaVuSans-Bold-72" x="2275.488281"/>
    <use xlink:href="#DejaVuSans-Bold-73" x="2324.804688"/>
    <use xlink:href="#DejaVuSans-Bold-20" x="2384.326172"/>
    <use xlink:href="#DejaVuSans-Bold-38" x="2419.140625"/>
    <use xlink:href="#DejaVuSans-Bold-20" x="2488.720703"/>
    <use xlink:href="#DejaVuSans-Bold-6d" x="2523.535156"/>
    <use xlink:href="#DejaVuSans-Bold-69" x="2627.734375"/>
    <use xlink:href="#DejaVuSans-Bold-6e" x="2662.011719"/>
    <use xlink:href="#DejaVuSans-Bold-73" x="2733.203125"/>
   </g>
  </g>
 </g>
 <defs>
  <clipPath id="p0035357ac6">
   <rect x="182.775" y="56.32" width="485.995061" height="279.925065"/>
  </clipPath>
 </defs>
</svg>
