<?xml version="1.0" encoding="utf-8" standalone="no"?>
<!DOCTYPE svg PUBLIC "-//W3C//DTD SVG 1.1//EN"
  "http://www.w3.org/Graphics/SVG/1.1/DTD/svg11.dtd">
<svg xmlns:xlink="http://www.w3.org/1999/xlink" width="1153.234058pt" height="362.2pt" viewBox="0 0 1153.234058 362.2" xmlns="http://www.w3.org/2000/svg" version="1.1">
 <metadata>
  <rdf:RDF xmlns:dc="http://purl.org/dc/elements/1.1/" xmlns:cc="http://creativecommons.org/ns#" xmlns:rdf="http://www.w3.org/1999/02/22-rdf-syntax-ns#">
   <cc:Work>
    <dc:type rdf:resource="http://purl.org/dc/dcmitype/StillImage"/>
    <dc:date>2024-05-16T00:28:59.511009</dc:date>
    <dc:format>image/svg+xml</dc:format>
    <dc:creator>
     <cc:Agent>
      <dc:title>Matplotlib v3.8.4, https://matplotlib.org/</dc:title>
     </cc:Agent>
    </dc:creator>
   </cc:Work>
  </rdf:RDF>
 </metadata>
 <defs>
  <style type="text/css">*{stroke-linejoin: round; stroke-linecap: butt}</style>
 </defs>
 <g id="figure_1">
  <g id="patch_1">
   <path d="M 0 362.2 
L 1153.234058 362.2 
L 1153.234058 0 
L 0 0 
L 0 362.2 
z
" style="fill: none"/>
  </g>
  <g id="axes_1">
   <g id="patch_2">
    <path d="M 339.24375 355 
L 713.818815 355 
L 713.818815 56.32 
L 339.24375 56.32 
L 339.24375 355 
z
" style="fill: none"/>
   </g>
   <g id="patch_3">
    <path d="M 339.24375 69.896364 
L 695.981907 69.896364 
L 695.981907 94.580661 
L 339.24375 94.580661 
z
" clip-path="url(#p6e69c4547f)" style="fill: #dc8e5e; stroke: #dc8e5e; stroke-linejoin: miter"/>
   </g>
   <g id="patch_4">
    <path d="M 339.24375 119.264959 
L 450.036878 119.264959 
L 450.036878 143.949256 
L 339.24375 143.949256 
z
" clip-path="url(#p6e69c4547f)" style="fill: #355cd8; stroke: #355cd8; stroke-linejoin: miter"/>
   </g>
   <g id="patch_5">
    <path d="M 339.24375 168.633554 
L 349.998934 168.633554 
L 349.998934 193.317851 
L 339.24375 193.317851 
z
" clip-path="url(#p6e69c4547f)" style="fill: #3b4839; stroke: #3b4839; stroke-linejoin: miter"/>
   </g>
   <g id="patch_6">
    <path d="M 339.24375 218.002149 
L 344.351235 218.002149 
L 344.351235 242.686446 
L 339.24375 242.686446 
z
" clip-path="url(#p6e69c4547f)" style="fill: #cc1abd; stroke: #cc1abd; stroke-linejoin: miter"/>
   </g>
   <g id="patch_7">
    <path d="M 339.24375 267.370744 
L 343.516357 267.370744 
L 343.516357 292.055041 
L 339.24375 292.055041 
z
" clip-path="url(#p6e69c4547f)" style="fill: #0633fc; stroke: #0633fc; stroke-linejoin: miter"/>
   </g>
   <g id="patch_8">
    <path d="M 339.24375 316.739339 
L 342.68148 316.739339 
L 342.68148 341.423636 
L 339.24375 341.423636 
z
" clip-path="url(#p6e69c4547f)" style="fill: #5df9ba; stroke: #5df9ba; stroke-linejoin: miter"/>
   </g>
   <g id="matplotlib.axis_1"/>
   <g id="matplotlib.axis_2">
    <g id="ytick_1">
     <g id="line2d_1">
      <defs>
       <path id="m868de2ec92" d="M 0 0 
L -3.5 0 
" style="stroke: #000000; stroke-width: 0.8"/>
      </defs>
      <g>
       <use xlink:href="#m868de2ec92" x="339.24375" y="82.238512" style="stroke: #000000; stroke-width: 0.8"/>
      </g>
     </g>
     <g id="text_1">
      <!-- New_Sampling_NoteBooks -->
      <g style="fill: #586069" transform="translate(36.609375 89.83695) scale(0.2 -0.2)">
       <defs>
        <path id="DejaVuSans-Bold-4e" d="M 588 4666 
L 1931 4666 
L 3628 1466 
L 3628 4666 
L 4769 4666 
L 4769 0 
L 3425 0 
L 1728 3200 
L 1728 0 
L 588 0 
L 588 4666 
z
" transform="scale(0.015625)"/>
        <path id="DejaVuSans-Bold-65" d="M 4031 1759 
L 4031 1441 
L 1416 1441 
Q 1456 1047 1700 850 
Q 1944 653 2381 653 
Q 2734 653 3104 758 
Q 3475 863 3866 1075 
L 3866 213 
Q 3469 63 3072 -14 
Q 2675 -91 2278 -91 
Q 1328 -91 801 392 
Q 275 875 275 1747 
Q 275 2603 792 3093 
Q 1309 3584 2216 3584 
Q 3041 3584 3536 3087 
Q 4031 2591 4031 1759 
z
M 2881 2131 
Q 2881 2450 2695 2645 
Q 2509 2841 2209 2841 
Q 1884 2841 1681 2658 
Q 1478 2475 1428 2131 
L 2881 2131 
z
" transform="scale(0.015625)"/>
        <path id="DejaVuSans-Bold-77" d="M 225 3500 
L 1313 3500 
L 1900 1088 
L 2491 3500 
L 3425 3500 
L 4013 1113 
L 4603 3500 
L 5691 3500 
L 4769 0 
L 3547 0 
L 2956 2406 
L 2369 0 
L 1147 0 
L 225 3500 
z
" transform="scale(0.015625)"/>
        <path id="DejaVuSans-Bold-5f" d="M 3200 -916 
L 3200 -1509 
L 0 -1509 
L 0 -916 
L 3200 -916 
z
" transform="scale(0.015625)"/>
        <path id="DejaVuSans-Bold-53" d="M 3834 4519 
L 3834 3531 
Q 3450 3703 3084 3790 
Q 2719 3878 2394 3878 
Q 1963 3878 1756 3759 
Q 1550 3641 1550 3391 
Q 1550 3203 1689 3098 
Q 1828 2994 2194 2919 
L 2706 2816 
Q 3484 2659 3812 2340 
Q 4141 2022 4141 1434 
Q 4141 663 3683 286 
Q 3225 -91 2284 -91 
Q 1841 -91 1394 -6 
Q 947 78 500 244 
L 500 1259 
Q 947 1022 1364 901 
Q 1781 781 2169 781 
Q 2563 781 2772 912 
Q 2981 1044 2981 1288 
Q 2981 1506 2839 1625 
Q 2697 1744 2272 1838 
L 1806 1941 
Q 1106 2091 782 2419 
Q 459 2747 459 3303 
Q 459 4000 909 4375 
Q 1359 4750 2203 4750 
Q 2588 4750 2994 4692 
Q 3400 4634 3834 4519 
z
" transform="scale(0.015625)"/>
        <path id="DejaVuSans-Bold-61" d="M 2106 1575 
Q 1756 1575 1579 1456 
Q 1403 1338 1403 1106 
Q 1403 894 1545 773 
Q 1688 653 1941 653 
Q 2256 653 2472 879 
Q 2688 1106 2688 1447 
L 2688 1575 
L 2106 1575 
z
M 3816 1997 
L 3816 0 
L 2688 0 
L 2688 519 
Q 2463 200 2181 54 
Q 1900 -91 1497 -91 
Q 953 -91 614 226 
Q 275 544 275 1050 
Q 275 1666 698 1953 
Q 1122 2241 2028 2241 
L 2688 2241 
L 2688 2328 
Q 2688 2594 2478 2717 
Q 2269 2841 1825 2841 
Q 1466 2841 1156 2769 
Q 847 2697 581 2553 
L 581 3406 
Q 941 3494 1303 3539 
Q 1666 3584 2028 3584 
Q 2975 3584 3395 3211 
Q 3816 2838 3816 1997 
z
" transform="scale(0.015625)"/>
        <path id="DejaVuSans-Bold-6d" d="M 3781 2919 
Q 3994 3244 4286 3414 
Q 4578 3584 4928 3584 
Q 5531 3584 5847 3212 
Q 6163 2841 6163 2131 
L 6163 0 
L 5038 0 
L 5038 1825 
Q 5041 1866 5042 1909 
Q 5044 1953 5044 2034 
Q 5044 2406 4934 2573 
Q 4825 2741 4581 2741 
Q 4263 2741 4089 2478 
Q 3916 2216 3909 1719 
L 3909 0 
L 2784 0 
L 2784 1825 
Q 2784 2406 2684 2573 
Q 2584 2741 2328 2741 
Q 2006 2741 1831 2477 
Q 1656 2213 1656 1722 
L 1656 0 
L 531 0 
L 531 3500 
L 1656 3500 
L 1656 2988 
Q 1863 3284 2130 3434 
Q 2397 3584 2719 3584 
Q 3081 3584 3359 3409 
Q 3638 3234 3781 2919 
z
" transform="scale(0.015625)"/>
        <path id="DejaVuSans-Bold-70" d="M 1656 506 
L 1656 -1331 
L 538 -1331 
L 538 3500 
L 1656 3500 
L 1656 2988 
Q 1888 3294 2169 3439 
Q 2450 3584 2816 3584 
Q 3463 3584 3878 3070 
Q 4294 2556 4294 1747 
Q 4294 938 3878 423 
Q 3463 -91 2816 -91 
Q 2450 -91 2169 54 
Q 1888 200 1656 506 
z
M 2400 2772 
Q 2041 2772 1848 2508 
Q 1656 2244 1656 1747 
Q 1656 1250 1848 986 
Q 2041 722 2400 722 
Q 2759 722 2948 984 
Q 3138 1247 3138 1747 
Q 3138 2247 2948 2509 
Q 2759 2772 2400 2772 
z
" transform="scale(0.015625)"/>
        <path id="DejaVuSans-Bold-6c" d="M 538 4863 
L 1656 4863 
L 1656 0 
L 538 0 
L 538 4863 
z
" transform="scale(0.015625)"/>
        <path id="DejaVuSans-Bold-69" d="M 538 3500 
L 1656 3500 
L 1656 0 
L 538 0 
L 538 3500 
z
M 538 4863 
L 1656 4863 
L 1656 3950 
L 538 3950 
L 538 4863 
z
" transform="scale(0.015625)"/>
        <path id="DejaVuSans-Bold-6e" d="M 4056 2131 
L 4056 0 
L 2931 0 
L 2931 347 
L 2931 1631 
Q 2931 2084 2911 2256 
Q 2891 2428 2841 2509 
Q 2775 2619 2662 2680 
Q 2550 2741 2406 2741 
Q 2056 2741 1856 2470 
Q 1656 2200 1656 1722 
L 1656 0 
L 538 0 
L 538 3500 
L 1656 3500 
L 1656 2988 
Q 1909 3294 2193 3439 
Q 2478 3584 2822 3584 
Q 3428 3584 3742 3212 
Q 4056 2841 4056 2131 
z
" transform="scale(0.015625)"/>
        <path id="DejaVuSans-Bold-67" d="M 2919 594 
Q 2688 288 2409 144 
Q 2131 0 1766 0 
Q 1125 0 706 504 
Q 288 1009 288 1791 
Q 288 2575 706 3076 
Q 1125 3578 1766 3578 
Q 2131 3578 2409 3434 
Q 2688 3291 2919 2981 
L 2919 3500 
L 4044 3500 
L 4044 353 
Q 4044 -491 3511 -936 
Q 2978 -1381 1966 -1381 
Q 1638 -1381 1331 -1331 
Q 1025 -1281 716 -1178 
L 716 -306 
Q 1009 -475 1290 -558 
Q 1572 -641 1856 -641 
Q 2406 -641 2662 -400 
Q 2919 -159 2919 353 
L 2919 594 
z
M 2181 2772 
Q 1834 2772 1640 2515 
Q 1447 2259 1447 1791 
Q 1447 1309 1634 1061 
Q 1822 813 2181 813 
Q 2531 813 2725 1069 
Q 2919 1325 2919 1791 
Q 2919 2259 2725 2515 
Q 2531 2772 2181 2772 
z
" transform="scale(0.015625)"/>
        <path id="DejaVuSans-Bold-6f" d="M 2203 2784 
Q 1831 2784 1636 2517 
Q 1441 2250 1441 1747 
Q 1441 1244 1636 976 
Q 1831 709 2203 709 
Q 2569 709 2762 976 
Q 2956 1244 2956 1747 
Q 2956 2250 2762 2517 
Q 2569 2784 2203 2784 
z
M 2203 3584 
Q 3106 3584 3614 3096 
Q 4122 2609 4122 1747 
Q 4122 884 3614 396 
Q 3106 -91 2203 -91 
Q 1297 -91 786 396 
Q 275 884 275 1747 
Q 275 2609 786 3096 
Q 1297 3584 2203 3584 
z
" transform="scale(0.015625)"/>
        <path id="DejaVuSans-Bold-74" d="M 1759 4494 
L 1759 3500 
L 2913 3500 
L 2913 2700 
L 1759 2700 
L 1759 1216 
Q 1759 972 1856 886 
Q 1953 800 2241 800 
L 2816 800 
L 2816 0 
L 1856 0 
Q 1194 0 917 276 
Q 641 553 641 1216 
L 641 2700 
L 84 2700 
L 84 3500 
L 641 3500 
L 641 4494 
L 1759 4494 
z
" transform="scale(0.015625)"/>
        <path id="DejaVuSans-Bold-42" d="M 2456 2859 
Q 2741 2859 2887 2984 
Q 3034 3109 3034 3353 
Q 3034 3594 2887 3720 
Q 2741 3847 2456 3847 
L 1791 3847 
L 1791 2859 
L 2456 2859 
z
M 2497 819 
Q 2859 819 3042 972 
Q 3225 1125 3225 1434 
Q 3225 1738 3044 1889 
Q 2863 2041 2497 2041 
L 1791 2041 
L 1791 819 
L 2497 819 
z
M 3616 2497 
Q 4003 2384 4215 2081 
Q 4428 1778 4428 1338 
Q 4428 663 3972 331 
Q 3516 0 2584 0 
L 588 0 
L 588 4666 
L 2394 4666 
Q 3366 4666 3802 4372 
Q 4238 4078 4238 3431 
Q 4238 3091 4078 2852 
Q 3919 2613 3616 2497 
z
" transform="scale(0.015625)"/>
        <path id="DejaVuSans-Bold-6b" d="M 538 4863 
L 1656 4863 
L 1656 2216 
L 2944 3500 
L 4244 3500 
L 2534 1894 
L 4378 0 
L 3022 0 
L 1656 1459 
L 1656 0 
L 538 0 
L 538 4863 
z
" transform="scale(0.015625)"/>
        <path id="DejaVuSans-Bold-73" d="M 3272 3391 
L 3272 2541 
Q 2913 2691 2578 2766 
Q 2244 2841 1947 2841 
Q 1628 2841 1473 2761 
Q 1319 2681 1319 2516 
Q 1319 2381 1436 2309 
Q 1553 2238 1856 2203 
L 2053 2175 
Q 2913 2066 3209 1816 
Q 3506 1566 3506 1031 
Q 3506 472 3093 190 
Q 2681 -91 1863 -91 
Q 1516 -91 1145 -36 
Q 775 19 384 128 
L 384 978 
Q 719 816 1070 734 
Q 1422 653 1784 653 
Q 2113 653 2278 743 
Q 2444 834 2444 1013 
Q 2444 1163 2330 1236 
Q 2216 1309 1875 1350 
L 1678 1375 
Q 931 1469 631 1722 
Q 331 1975 331 2491 
Q 331 3047 712 3315 
Q 1094 3584 1881 3584 
Q 2191 3584 2531 3537 
Q 2872 3491 3272 3391 
z
" transform="scale(0.015625)"/>
       </defs>
       <use xlink:href="#DejaVuSans-Bold-4e"/>
       <use xlink:href="#DejaVuSans-Bold-65" x="83.691406"/>
       <use xlink:href="#DejaVuSans-Bold-77" x="151.513672"/>
       <use xlink:href="#DejaVuSans-Bold-5f" x="243.896484"/>
       <use xlink:href="#DejaVuSans-Bold-53" x="293.896484"/>
       <use xlink:href="#DejaVuSans-Bold-61" x="365.917969"/>
       <use xlink:href="#DejaVuSans-Bold-6d" x="433.398438"/>
       <use xlink:href="#DejaVuSans-Bold-70" x="537.597656"/>
       <use xlink:href="#DejaVuSans-Bold-6c" x="609.179688"/>
       <use xlink:href="#DejaVuSans-Bold-69" x="643.457031"/>
       <use xlink:href="#DejaVuSans-Bold-6e" x="677.734375"/>
       <use xlink:href="#DejaVuSans-Bold-67" x="748.925781"/>
       <use xlink:href="#DejaVuSans-Bold-5f" x="820.507812"/>
       <use xlink:href="#DejaVuSans-Bold-4e" x="870.507812"/>
       <use xlink:href="#DejaVuSans-Bold-6f" x="954.199219"/>
       <use xlink:href="#DejaVuSans-Bold-74" x="1022.900391"/>
       <use xlink:href="#DejaVuSans-Bold-65" x="1070.703125"/>
       <use xlink:href="#DejaVuSans-Bold-42" x="1138.525391"/>
       <use xlink:href="#DejaVuSans-Bold-6f" x="1214.746094"/>
       <use xlink:href="#DejaVuSans-Bold-6f" x="1283.447266"/>
       <use xlink:href="#DejaVuSans-Bold-6b" x="1352.148438"/>
       <use xlink:href="#DejaVuSans-Bold-73" x="1418.652344"/>
      </g>
     </g>
    </g>
    <g id="ytick_2">
     <g id="line2d_2">
      <g>
       <use xlink:href="#m868de2ec92" x="339.24375" y="131.607107" style="stroke: #000000; stroke-width: 0.8"/>
      </g>
     </g>
     <g id="text_2">
      <!-- Unknown Project -->
      <g style="fill: #586069" transform="translate(140.709375 139.205545) scale(0.2 -0.2)">
       <defs>
        <path id="DejaVuSans-Bold-55" d="M 588 4666 
L 1791 4666 
L 1791 1869 
Q 1791 1291 1980 1042 
Q 2169 794 2597 794 
Q 3028 794 3217 1042 
Q 3406 1291 3406 1869 
L 3406 4666 
L 4609 4666 
L 4609 1869 
Q 4609 878 4112 393 
Q 3616 -91 2597 -91 
Q 1581 -91 1084 393 
Q 588 878 588 1869 
L 588 4666 
z
" transform="scale(0.015625)"/>
        <path id="DejaVuSans-Bold-20" transform="scale(0.015625)"/>
        <path id="DejaVuSans-Bold-50" d="M 588 4666 
L 2584 4666 
Q 3475 4666 3951 4270 
Q 4428 3875 4428 3144 
Q 4428 2409 3951 2014 
Q 3475 1619 2584 1619 
L 1791 1619 
L 1791 0 
L 588 0 
L 588 4666 
z
M 1791 3794 
L 1791 2491 
L 2456 2491 
Q 2806 2491 2997 2661 
Q 3188 2831 3188 3144 
Q 3188 3456 2997 3625 
Q 2806 3794 2456 3794 
L 1791 3794 
z
" transform="scale(0.015625)"/>
        <path id="DejaVuSans-Bold-72" d="M 3138 2547 
Q 2991 2616 2845 2648 
Q 2700 2681 2553 2681 
Q 2122 2681 1889 2404 
Q 1656 2128 1656 1613 
L 1656 0 
L 538 0 
L 538 3500 
L 1656 3500 
L 1656 2925 
Q 1872 3269 2151 3426 
Q 2431 3584 2822 3584 
Q 2878 3584 2943 3579 
Q 3009 3575 3134 3559 
L 3138 2547 
z
" transform="scale(0.015625)"/>
        <path id="DejaVuSans-Bold-6a" d="M 538 3500 
L 1656 3500 
L 1656 63 
Q 1656 -641 1318 -1011 
Q 981 -1381 341 -1381 
L -213 -1381 
L -213 -647 
L -19 -647 
Q 300 -647 419 -503 
Q 538 -359 538 63 
L 538 3500 
z
M 538 4863 
L 1656 4863 
L 1656 3950 
L 538 3950 
L 538 4863 
z
" transform="scale(0.015625)"/>
        <path id="DejaVuSans-Bold-63" d="M 3366 3391 
L 3366 2478 
Q 3138 2634 2908 2709 
Q 2678 2784 2431 2784 
Q 1963 2784 1702 2511 
Q 1441 2238 1441 1747 
Q 1441 1256 1702 982 
Q 1963 709 2431 709 
Q 2694 709 2930 787 
Q 3166 866 3366 1019 
L 3366 103 
Q 3103 6 2833 -42 
Q 2563 -91 2291 -91 
Q 1344 -91 809 395 
Q 275 881 275 1747 
Q 275 2613 809 3098 
Q 1344 3584 2291 3584 
Q 2566 3584 2833 3536 
Q 3100 3488 3366 3391 
z
" transform="scale(0.015625)"/>
       </defs>
       <use xlink:href="#DejaVuSans-Bold-55"/>
       <use xlink:href="#DejaVuSans-Bold-6e" x="81.201172"/>
       <use xlink:href="#DejaVuSans-Bold-6b" x="152.392578"/>
       <use xlink:href="#DejaVuSans-Bold-6e" x="218.896484"/>
       <use xlink:href="#DejaVuSans-Bold-6f" x="290.087891"/>
       <use xlink:href="#DejaVuSans-Bold-77" x="358.789062"/>
       <use xlink:href="#DejaVuSans-Bold-6e" x="451.171875"/>
       <use xlink:href="#DejaVuSans-Bold-20" x="522.363281"/>
       <use xlink:href="#DejaVuSans-Bold-50" x="557.177734"/>
       <use xlink:href="#DejaVuSans-Bold-72" x="630.46875"/>
       <use xlink:href="#DejaVuSans-Bold-6f" x="679.785156"/>
       <use xlink:href="#DejaVuSans-Bold-6a" x="748.486328"/>
       <use xlink:href="#DejaVuSans-Bold-65" x="782.763672"/>
       <use xlink:href="#DejaVuSans-Bold-63" x="850.585938"/>
       <use xlink:href="#DejaVuSans-Bold-74" x="909.863281"/>
      </g>
     </g>
    </g>
    <g id="ytick_3">
     <g id="line2d_3">
      <g>
       <use xlink:href="#m868de2ec92" x="339.24375" y="180.975702" style="stroke: #000000; stroke-width: 0.8"/>
      </g>
     </g>
     <g id="text_3">
      <!-- tica_vae -->
      <g style="fill: #586069" transform="translate(240.375 188.57414) scale(0.2 -0.2)">
       <defs>
        <path id="DejaVuSans-Bold-76" d="M 97 3500 
L 1216 3500 
L 2088 1081 
L 2956 3500 
L 4078 3500 
L 2700 0 
L 1472 0 
L 97 3500 
z
" transform="scale(0.015625)"/>
       </defs>
       <use xlink:href="#DejaVuSans-Bold-74"/>
       <use xlink:href="#DejaVuSans-Bold-69" x="47.802734"/>
       <use xlink:href="#DejaVuSans-Bold-63" x="82.080078"/>
       <use xlink:href="#DejaVuSans-Bold-61" x="141.357422"/>
       <use xlink:href="#DejaVuSans-Bold-5f" x="208.837891"/>
       <use xlink:href="#DejaVuSans-Bold-76" x="258.837891"/>
       <use xlink:href="#DejaVuSans-Bold-61" x="324.023438"/>
       <use xlink:href="#DejaVuSans-Bold-65" x="391.503906"/>
      </g>
     </g>
    </g>
    <g id="ytick_4">
     <g id="line2d_4">
      <g>
       <use xlink:href="#m868de2ec92" x="339.24375" y="230.344298" style="stroke: #000000; stroke-width: 0.8"/>
      </g>
     </g>
     <g id="text_4">
      <!-- Enhanced_Sampling -->
      <g style="fill: #586069" transform="translate(107.3125 237.942735) scale(0.2 -0.2)">
       <defs>
        <path id="DejaVuSans-Bold-45" d="M 588 4666 
L 3834 4666 
L 3834 3756 
L 1791 3756 
L 1791 2888 
L 3713 2888 
L 3713 1978 
L 1791 1978 
L 1791 909 
L 3903 909 
L 3903 0 
L 588 0 
L 588 4666 
z
" transform="scale(0.015625)"/>
        <path id="DejaVuSans-Bold-68" d="M 4056 2131 
L 4056 0 
L 2931 0 
L 2931 347 
L 2931 1625 
Q 2931 2084 2911 2256 
Q 2891 2428 2841 2509 
Q 2775 2619 2662 2680 
Q 2550 2741 2406 2741 
Q 2056 2741 1856 2470 
Q 1656 2200 1656 1722 
L 1656 0 
L 538 0 
L 538 4863 
L 1656 4863 
L 1656 2988 
Q 1909 3294 2193 3439 
Q 2478 3584 2822 3584 
Q 3428 3584 3742 3212 
Q 4056 2841 4056 2131 
z
" transform="scale(0.015625)"/>
        <path id="DejaVuSans-Bold-64" d="M 2919 2988 
L 2919 4863 
L 4044 4863 
L 4044 0 
L 2919 0 
L 2919 506 
Q 2688 197 2409 53 
Q 2131 -91 1766 -91 
Q 1119 -91 703 423 
Q 288 938 288 1747 
Q 288 2556 703 3070 
Q 1119 3584 1766 3584 
Q 2128 3584 2408 3439 
Q 2688 3294 2919 2988 
z
M 2181 722 
Q 2541 722 2730 984 
Q 2919 1247 2919 1747 
Q 2919 2247 2730 2509 
Q 2541 2772 2181 2772 
Q 1825 2772 1636 2509 
Q 1447 2247 1447 1747 
Q 1447 1247 1636 984 
Q 1825 722 2181 722 
z
" transform="scale(0.015625)"/>
       </defs>
       <use xlink:href="#DejaVuSans-Bold-45"/>
       <use xlink:href="#DejaVuSans-Bold-6e" x="68.310547"/>
       <use xlink:href="#DejaVuSans-Bold-68" x="139.501953"/>
       <use xlink:href="#DejaVuSans-Bold-61" x="210.693359"/>
       <use xlink:href="#DejaVuSans-Bold-6e" x="278.173828"/>
       <use xlink:href="#DejaVuSans-Bold-63" x="349.365234"/>
       <use xlink:href="#DejaVuSans-Bold-65" x="408.642578"/>
       <use xlink:href="#DejaVuSans-Bold-64" x="476.464844"/>
       <use xlink:href="#DejaVuSans-Bold-5f" x="548.046875"/>
       <use xlink:href="#DejaVuSans-Bold-53" x="598.046875"/>
       <use xlink:href="#DejaVuSans-Bold-61" x="670.068359"/>
       <use xlink:href="#DejaVuSans-Bold-6d" x="737.548828"/>
       <use xlink:href="#DejaVuSans-Bold-70" x="841.748047"/>
       <use xlink:href="#DejaVuSans-Bold-6c" x="913.330078"/>
       <use xlink:href="#DejaVuSans-Bold-69" x="947.607422"/>
       <use xlink:href="#DejaVuSans-Bold-6e" x="981.884766"/>
       <use xlink:href="#DejaVuSans-Bold-67" x="1053.076172"/>
      </g>
     </g>
    </g>
    <g id="ytick_5">
     <g id="line2d_5">
      <g>
       <use xlink:href="#m868de2ec92" x="339.24375" y="279.712893" style="stroke: #000000; stroke-width: 0.8"/>
      </g>
     </g>
     <g id="text_5">
      <!-- Autoencoder_2_construct_CV -->
      <g style="fill: #586069" transform="translate(7.2 287.31133) scale(0.2 -0.2)">
       <defs>
        <path id="DejaVuSans-Bold-41" d="M 3419 850 
L 1538 850 
L 1241 0 
L 31 0 
L 1759 4666 
L 3194 4666 
L 4922 0 
L 3713 0 
L 3419 850 
z
M 1838 1716 
L 3116 1716 
L 2478 3572 
L 1838 1716 
z
" transform="scale(0.015625)"/>
        <path id="DejaVuSans-Bold-75" d="M 500 1363 
L 500 3500 
L 1625 3500 
L 1625 3150 
Q 1625 2866 1622 2436 
Q 1619 2006 1619 1863 
Q 1619 1441 1641 1255 
Q 1663 1069 1716 984 
Q 1784 875 1895 815 
Q 2006 756 2150 756 
Q 2500 756 2700 1025 
Q 2900 1294 2900 1772 
L 2900 3500 
L 4019 3500 
L 4019 0 
L 2900 0 
L 2900 506 
Q 2647 200 2364 54 
Q 2081 -91 1741 -91 
Q 1134 -91 817 281 
Q 500 653 500 1363 
z
" transform="scale(0.015625)"/>
        <path id="DejaVuSans-Bold-32" d="M 1844 884 
L 3897 884 
L 3897 0 
L 506 0 
L 506 884 
L 2209 2388 
Q 2438 2594 2547 2791 
Q 2656 2988 2656 3200 
Q 2656 3528 2436 3728 
Q 2216 3928 1850 3928 
Q 1569 3928 1234 3808 
Q 900 3688 519 3450 
L 519 4475 
Q 925 4609 1322 4679 
Q 1719 4750 2100 4750 
Q 2938 4750 3402 4381 
Q 3866 4013 3866 3353 
Q 3866 2972 3669 2642 
Q 3472 2313 2841 1759 
L 1844 884 
z
" transform="scale(0.015625)"/>
        <path id="DejaVuSans-Bold-43" d="M 4288 256 
Q 3956 84 3597 -3 
Q 3238 -91 2847 -91 
Q 1681 -91 1000 561 
Q 319 1213 319 2328 
Q 319 3447 1000 4098 
Q 1681 4750 2847 4750 
Q 3238 4750 3597 4662 
Q 3956 4575 4288 4403 
L 4288 3438 
Q 3953 3666 3628 3772 
Q 3303 3878 2944 3878 
Q 2300 3878 1931 3465 
Q 1563 3053 1563 2328 
Q 1563 1606 1931 1193 
Q 2300 781 2944 781 
Q 3303 781 3628 887 
Q 3953 994 4288 1222 
L 4288 256 
z
" transform="scale(0.015625)"/>
        <path id="DejaVuSans-Bold-56" d="M 31 4666 
L 1241 4666 
L 2478 1222 
L 3713 4666 
L 4922 4666 
L 3194 0 
L 1759 0 
L 31 4666 
z
" transform="scale(0.015625)"/>
       </defs>
       <use xlink:href="#DejaVuSans-Bold-41"/>
       <use xlink:href="#DejaVuSans-Bold-75" x="77.392578"/>
       <use xlink:href="#DejaVuSans-Bold-74" x="148.583984"/>
       <use xlink:href="#DejaVuSans-Bold-6f" x="196.386719"/>
       <use xlink:href="#DejaVuSans-Bold-65" x="265.087891"/>
       <use xlink:href="#DejaVuSans-Bold-6e" x="332.910156"/>
       <use xlink:href="#DejaVuSans-Bold-63" x="404.101562"/>
       <use xlink:href="#DejaVuSans-Bold-6f" x="463.378906"/>
       <use xlink:href="#DejaVuSans-Bold-64" x="532.080078"/>
       <use xlink:href="#DejaVuSans-Bold-65" x="603.662109"/>
       <use xlink:href="#DejaVuSans-Bold-72" x="671.484375"/>
       <use xlink:href="#DejaVuSans-Bold-5f" x="720.800781"/>
       <use xlink:href="#DejaVuSans-Bold-32" x="770.800781"/>
       <use xlink:href="#DejaVuSans-Bold-5f" x="840.380859"/>
       <use xlink:href="#DejaVuSans-Bold-63" x="890.380859"/>
       <use xlink:href="#DejaVuSans-Bold-6f" x="949.658203"/>
       <use xlink:href="#DejaVuSans-Bold-6e" x="1018.359375"/>
       <use xlink:href="#DejaVuSans-Bold-73" x="1089.550781"/>
       <use xlink:href="#DejaVuSans-Bold-74" x="1149.072266"/>
       <use xlink:href="#DejaVuSans-Bold-72" x="1196.875"/>
       <use xlink:href="#DejaVuSans-Bold-75" x="1246.191406"/>
       <use xlink:href="#DejaVuSans-Bold-63" x="1317.382812"/>
       <use xlink:href="#DejaVuSans-Bold-74" x="1376.660156"/>
       <use xlink:href="#DejaVuSans-Bold-5f" x="1424.462891"/>
       <use xlink:href="#DejaVuSans-Bold-43" x="1474.462891"/>
       <use xlink:href="#DejaVuSans-Bold-56" x="1547.851562"/>
      </g>
     </g>
    </g>
    <g id="ytick_6">
     <g id="line2d_6">
      <g>
       <use xlink:href="#m868de2ec92" x="339.24375" y="329.081488" style="stroke: #000000; stroke-width: 0.8"/>
      </g>
     </g>
     <g id="text_6">
      <!-- dotfiles-sway -->
      <g style="fill: #586069" transform="translate(182.15625 336.679925) scale(0.2 -0.2)">
       <defs>
        <path id="DejaVuSans-Bold-66" d="M 2841 4863 
L 2841 4128 
L 2222 4128 
Q 1984 4128 1890 4042 
Q 1797 3956 1797 3744 
L 1797 3500 
L 2753 3500 
L 2753 2700 
L 1797 2700 
L 1797 0 
L 678 0 
L 678 2700 
L 122 2700 
L 122 3500 
L 678 3500 
L 678 3744 
Q 678 4316 997 4589 
Q 1316 4863 1984 4863 
L 2841 4863 
z
" transform="scale(0.015625)"/>
        <path id="DejaVuSans-Bold-2d" d="M 347 2297 
L 2309 2297 
L 2309 1388 
L 347 1388 
L 347 2297 
z
" transform="scale(0.015625)"/>
        <path id="DejaVuSans-Bold-79" d="M 78 3500 
L 1197 3500 
L 2138 1125 
L 2938 3500 
L 4056 3500 
L 2584 -331 
Q 2363 -916 2067 -1148 
Q 1772 -1381 1288 -1381 
L 641 -1381 
L 641 -647 
L 991 -647 
Q 1275 -647 1404 -556 
Q 1534 -466 1606 -231 
L 1638 -134 
L 78 3500 
z
" transform="scale(0.015625)"/>
       </defs>
       <use xlink:href="#DejaVuSans-Bold-64"/>
       <use xlink:href="#DejaVuSans-Bold-6f" x="71.582031"/>
       <use xlink:href="#DejaVuSans-Bold-74" x="140.283203"/>
       <use xlink:href="#DejaVuSans-Bold-66" x="188.085938"/>
       <use xlink:href="#DejaVuSans-Bold-69" x="231.591797"/>
       <use xlink:href="#DejaVuSans-Bold-6c" x="265.869141"/>
       <use xlink:href="#DejaVuSans-Bold-65" x="300.146484"/>
       <use xlink:href="#DejaVuSans-Bold-73" x="367.96875"/>
       <use xlink:href="#DejaVuSans-Bold-2d" x="427.490234"/>
       <use xlink:href="#DejaVuSans-Bold-73" x="468.994141"/>
       <use xlink:href="#DejaVuSans-Bold-77" x="528.515625"/>
       <use xlink:href="#DejaVuSans-Bold-61" x="620.898438"/>
       <use xlink:href="#DejaVuSans-Bold-79" x="685.253906"/>
      </g>
     </g>
    </g>
   </g>
   <g id="patch_9">
    <path d="M 339.24375 355 
L 339.24375 56.32 
" style="fill: none; stroke: #000000; stroke-width: 0.8; stroke-linejoin: miter; stroke-linecap: square"/>
   </g>
   <g id="patch_10">
    <path d="M 339.24375 355 
L 713.818815 355 
" style="fill: none; stroke: #000000; stroke-width: 0.8; stroke-linejoin: miter; stroke-linecap: square"/>
   </g>
   <g id="text_7">
    <!-- 20 hrs 55 mins -->
    <g style="fill: #586069" transform="translate(699.981907 86.377575) scale(0.15 -0.15)">
     <defs>
      <path id="DejaVuSans-Bold-30" d="M 2944 2338 
Q 2944 3213 2780 3570 
Q 2616 3928 2228 3928 
Q 1841 3928 1675 3570 
Q 1509 3213 1509 2338 
Q 1509 1453 1675 1090 
Q 1841 728 2228 728 
Q 2613 728 2778 1090 
Q 2944 1453 2944 2338 
z
M 4147 2328 
Q 4147 1169 3647 539 
Q 3147 -91 2228 -91 
Q 1306 -91 806 539 
Q 306 1169 306 2328 
Q 306 3491 806 4120 
Q 1306 4750 2228 4750 
Q 3147 4750 3647 4120 
Q 4147 3491 4147 2328 
z
" transform="scale(0.015625)"/>
      <path id="DejaVuSans-Bold-35" d="M 678 4666 
L 3669 4666 
L 3669 3781 
L 1638 3781 
L 1638 3059 
Q 1775 3097 1914 3117 
Q 2053 3138 2203 3138 
Q 3056 3138 3531 2711 
Q 4006 2284 4006 1522 
Q 4006 766 3489 337 
Q 2972 -91 2053 -91 
Q 1656 -91 1267 -14 
Q 878 63 494 219 
L 494 1166 
Q 875 947 1217 837 
Q 1559 728 1863 728 
Q 2300 728 2551 942 
Q 2803 1156 2803 1522 
Q 2803 1891 2551 2103 
Q 2300 2316 1863 2316 
Q 1603 2316 1309 2248 
Q 1016 2181 678 2041 
L 678 4666 
z
" transform="scale(0.015625)"/>
     </defs>
     <use xlink:href="#DejaVuSans-Bold-32"/>
     <use xlink:href="#DejaVuSans-Bold-30" x="69.580078"/>
     <use xlink:href="#DejaVuSans-Bold-20" x="139.160156"/>
     <use xlink:href="#DejaVuSans-Bold-68" x="173.974609"/>
     <use xlink:href="#DejaVuSans-Bold-72" x="245.166016"/>
     <use xlink:href="#DejaVuSans-Bold-73" x="294.482422"/>
     <use xlink:href="#DejaVuSans-Bold-20" x="354.003906"/>
     <use xlink:href="#DejaVuSans-Bold-35" x="388.818359"/>
     <use xlink:href="#DejaVuSans-Bold-35" x="458.398438"/>
     <use xlink:href="#DejaVuSans-Bold-20" x="527.978516"/>
     <use xlink:href="#DejaVuSans-Bold-6d" x="562.792969"/>
     <use xlink:href="#DejaVuSans-Bold-69" x="666.992188"/>
     <use xlink:href="#DejaVuSans-Bold-6e" x="701.269531"/>
     <use xlink:href="#DejaVuSans-Bold-73" x="772.460938"/>
    </g>
   </g>
   <g id="text_8">
    <!-- 6 hrs 30 mins -->
    <g style="fill: #586069" transform="translate(454.036878 135.74617) scale(0.15 -0.15)">
     <defs>
      <path id="DejaVuSans-Bold-36" d="M 2316 2303 
Q 2000 2303 1842 2098 
Q 1684 1894 1684 1484 
Q 1684 1075 1842 870 
Q 2000 666 2316 666 
Q 2634 666 2792 870 
Q 2950 1075 2950 1484 
Q 2950 1894 2792 2098 
Q 2634 2303 2316 2303 
z
M 3803 4544 
L 3803 3681 
Q 3506 3822 3243 3889 
Q 2981 3956 2731 3956 
Q 2194 3956 1894 3657 
Q 1594 3359 1544 2772 
Q 1750 2925 1990 3001 
Q 2231 3078 2516 3078 
Q 3231 3078 3670 2659 
Q 4109 2241 4109 1563 
Q 4109 813 3618 361 
Q 3128 -91 2303 -91 
Q 1394 -91 895 523 
Q 397 1138 397 2266 
Q 397 3422 980 4083 
Q 1563 4744 2578 4744 
Q 2900 4744 3203 4694 
Q 3506 4644 3803 4544 
z
" transform="scale(0.015625)"/>
      <path id="DejaVuSans-Bold-33" d="M 2981 2516 
Q 3453 2394 3698 2092 
Q 3944 1791 3944 1325 
Q 3944 631 3412 270 
Q 2881 -91 1863 -91 
Q 1503 -91 1142 -33 
Q 781 25 428 141 
L 428 1069 
Q 766 900 1098 814 
Q 1431 728 1753 728 
Q 2231 728 2486 893 
Q 2741 1059 2741 1369 
Q 2741 1688 2480 1852 
Q 2219 2016 1709 2016 
L 1228 2016 
L 1228 2791 
L 1734 2791 
Q 2188 2791 2409 2933 
Q 2631 3075 2631 3366 
Q 2631 3634 2415 3781 
Q 2200 3928 1806 3928 
Q 1516 3928 1219 3862 
Q 922 3797 628 3669 
L 628 4550 
Q 984 4650 1334 4700 
Q 1684 4750 2022 4750 
Q 2931 4750 3382 4451 
Q 3834 4153 3834 3553 
Q 3834 3144 3618 2883 
Q 3403 2622 2981 2516 
z
" transform="scale(0.015625)"/>
     </defs>
     <use xlink:href="#DejaVuSans-Bold-36"/>
     <use xlink:href="#DejaVuSans-Bold-20" x="69.580078"/>
     <use xlink:href="#DejaVuSans-Bold-68" x="104.394531"/>
     <use xlink:href="#DejaVuSans-Bold-72" x="175.585938"/>
     <use xlink:href="#DejaVuSans-Bold-73" x="224.902344"/>
     <use xlink:href="#DejaVuSans-Bold-20" x="284.423828"/>
     <use xlink:href="#DejaVuSans-Bold-33" x="319.238281"/>
     <use xlink:href="#DejaVuSans-Bold-30" x="388.818359"/>
     <use xlink:href="#DejaVuSans-Bold-20" x="458.398438"/>
     <use xlink:href="#DejaVuSans-Bold-6d" x="493.212891"/>
     <use xlink:href="#DejaVuSans-Bold-69" x="597.412109"/>
     <use xlink:href="#DejaVuSans-Bold-6e" x="631.689453"/>
     <use xlink:href="#DejaVuSans-Bold-73" x="702.880859"/>
    </g>
   </g>
   <g id="text_9">
    <!-- 37 mins -->
    <g style="fill: #586069" transform="translate(353.998934 185.114765) scale(0.15 -0.15)">
     <defs>
      <path id="DejaVuSans-Bold-37" d="M 428 4666 
L 3944 4666 
L 3944 3988 
L 2125 0 
L 953 0 
L 2675 3781 
L 428 3781 
L 428 4666 
z
" transform="scale(0.015625)"/>
     </defs>
     <use xlink:href="#DejaVuSans-Bold-33"/>
     <use xlink:href="#DejaVuSans-Bold-37" x="69.580078"/>
     <use xlink:href="#DejaVuSans-Bold-20" x="139.160156"/>
     <use xlink:href="#DejaVuSans-Bold-6d" x="173.974609"/>
     <use xlink:href="#DejaVuSans-Bold-69" x="278.173828"/>
     <use xlink:href="#DejaVuSans-Bold-6e" x="312.451172"/>
     <use xlink:href="#DejaVuSans-Bold-73" x="383.642578"/>
    </g>
   </g>
   <g id="text_10">
    <!-- 18 mins -->
    <g style="fill: #586069" transform="translate(348.351235 234.48336) scale(0.15 -0.15)">
     <defs>
      <path id="DejaVuSans-Bold-31" d="M 750 831 
L 1813 831 
L 1813 3847 
L 722 3622 
L 722 4441 
L 1806 4666 
L 2950 4666 
L 2950 831 
L 4013 831 
L 4013 0 
L 750 0 
L 750 831 
z
" transform="scale(0.015625)"/>
      <path id="DejaVuSans-Bold-38" d="M 2228 2088 
Q 1891 2088 1709 1903 
Q 1528 1719 1528 1375 
Q 1528 1031 1709 848 
Q 1891 666 2228 666 
Q 2563 666 2741 848 
Q 2919 1031 2919 1375 
Q 2919 1722 2741 1905 
Q 2563 2088 2228 2088 
z
M 1350 2484 
Q 925 2613 709 2878 
Q 494 3144 494 3541 
Q 494 4131 934 4440 
Q 1375 4750 2228 4750 
Q 3075 4750 3515 4442 
Q 3956 4134 3956 3541 
Q 3956 3144 3739 2878 
Q 3522 2613 3097 2484 
Q 3572 2353 3814 2058 
Q 4056 1763 4056 1313 
Q 4056 619 3595 264 
Q 3134 -91 2228 -91 
Q 1319 -91 855 264 
Q 391 619 391 1313 
Q 391 1763 633 2058 
Q 875 2353 1350 2484 
z
M 1631 3419 
Q 1631 3141 1786 2991 
Q 1941 2841 2228 2841 
Q 2509 2841 2662 2991 
Q 2816 3141 2816 3419 
Q 2816 3697 2662 3845 
Q 2509 3994 2228 3994 
Q 1941 3994 1786 3844 
Q 1631 3694 1631 3419 
z
" transform="scale(0.015625)"/>
     </defs>
     <use xlink:href="#DejaVuSans-Bold-31"/>
     <use xlink:href="#DejaVuSans-Bold-38" x="69.580078"/>
     <use xlink:href="#DejaVuSans-Bold-20" x="139.160156"/>
     <use xlink:href="#DejaVuSans-Bold-6d" x="173.974609"/>
     <use xlink:href="#DejaVuSans-Bold-69" x="278.173828"/>
     <use xlink:href="#DejaVuSans-Bold-6e" x="312.451172"/>
     <use xlink:href="#DejaVuSans-Bold-73" x="383.642578"/>
    </g>
   </g>
   <g id="text_11">
    <!-- 15 mins -->
    <g style="fill: #586069" transform="translate(347.516357 283.851955) scale(0.15 -0.15)">
     <use xlink:href="#DejaVuSans-Bold-31"/>
     <use xlink:href="#DejaVuSans-Bold-35" x="69.580078"/>
     <use xlink:href="#DejaVuSans-Bold-20" x="139.160156"/>
     <use xlink:href="#DejaVuSans-Bold-6d" x="173.974609"/>
     <use xlink:href="#DejaVuSans-Bold-69" x="278.173828"/>
     <use xlink:href="#DejaVuSans-Bold-6e" x="312.451172"/>
     <use xlink:href="#DejaVuSans-Bold-73" x="383.642578"/>
    </g>
   </g>
   <g id="text_12">
    <!-- 12 mins -->
    <g style="fill: #586069" transform="translate(346.68148 333.22055) scale(0.15 -0.15)">
     <use xlink:href="#DejaVuSans-Bold-31"/>
     <use xlink:href="#DejaVuSans-Bold-32" x="69.580078"/>
     <use xlink:href="#DejaVuSans-Bold-20" x="139.160156"/>
     <use xlink:href="#DejaVuSans-Bold-6d" x="173.974609"/>
     <use xlink:href="#DejaVuSans-Bold-69" x="278.173828"/>
     <use xlink:href="#DejaVuSans-Bold-6e" x="312.451172"/>
     <use xlink:href="#DejaVuSans-Bold-73" x="383.642578"/>
    </g>
   </g>
   <g id="text_13">
    <!-- Projects touched : -->
    <g style="fill: #2a475e" transform="translate(464.900032 50.32) scale(0.12 -0.12)">
     <defs>
      <path id="DejaVuSans-Bold-3a" d="M 716 3500 
L 1844 3500 
L 1844 2291 
L 716 2291 
L 716 3500 
z
M 716 1209 
L 1844 1209 
L 1844 0 
L 716 0 
L 716 1209 
z
" transform="scale(0.015625)"/>
     </defs>
     <use xlink:href="#DejaVuSans-Bold-50"/>
     <use xlink:href="#DejaVuSans-Bold-72" x="73.291016"/>
     <use xlink:href="#DejaVuSans-Bold-6f" x="122.607422"/>
     <use xlink:href="#DejaVuSans-Bold-6a" x="191.308594"/>
     <use xlink:href="#DejaVuSans-Bold-65" x="225.585938"/>
     <use xlink:href="#DejaVuSans-Bold-63" x="293.408203"/>
     <use xlink:href="#DejaVuSans-Bold-74" x="352.685547"/>
     <use xlink:href="#DejaVuSans-Bold-73" x="400.488281"/>
     <use xlink:href="#DejaVuSans-Bold-20" x="460.009766"/>
     <use xlink:href="#DejaVuSans-Bold-74" x="494.824219"/>
     <use xlink:href="#DejaVuSans-Bold-6f" x="542.626953"/>
     <use xlink:href="#DejaVuSans-Bold-75" x="611.328125"/>
     <use xlink:href="#DejaVuSans-Bold-63" x="682.519531"/>
     <use xlink:href="#DejaVuSans-Bold-68" x="741.796875"/>
     <use xlink:href="#DejaVuSans-Bold-65" x="812.988281"/>
     <use xlink:href="#DejaVuSans-Bold-64" x="880.810547"/>
     <use xlink:href="#DejaVuSans-Bold-20" x="952.392578"/>
     <use xlink:href="#DejaVuSans-Bold-3a" x="987.207031"/>
    </g>
   </g>
  </g>
  <g id="axes_2">
   <g id="patch_11">
    <path d="M 879.325287 148.795364 
L 886.370752 148.795364 
L 909.868732 163.957548 
" style="fill: none; stroke: #000000; stroke-linecap: round"/>
   </g>
   <g id="text_14">
    <g id="patch_12">
     <path d="M 821.854773 158.249114 
L 876.962898 158.249114 
L 876.962898 139.341614 
L 821.854773 139.341614 
z
" style="fill: #ffffff; stroke: #000000; stroke-width: 0.72; stroke-linejoin: miter"/>
    </g>
    <!-- Python -->
    <g style="fill: #2a475e" transform="translate(825.454773 152.059739) scale(0.12 -0.12)">
     <use xlink:href="#DejaVuSans-Bold-50"/>
     <use xlink:href="#DejaVuSans-Bold-79" x="75.166016"/>
     <use xlink:href="#DejaVuSans-Bold-74" x="140.351562"/>
     <use xlink:href="#DejaVuSans-Bold-68" x="188.154297"/>
     <use xlink:href="#DejaVuSans-Bold-6f" x="259.345703"/>
     <use xlink:href="#DejaVuSans-Bold-6e" x="328.046875"/>
    </g>
   </g>
   <g id="patch_13">
    <path d="M 1069.674288 294.22993 
L 1030.671073 294.22993 
L 1015.693329 270.613959 
" style="fill: none; stroke: #000000; stroke-linecap: round"/>
   </g>
   <g id="text_15">
    <g id="patch_14">
     <path d="M 1072.033433 303.636805 
L 1117.770308 303.636805 
L 1117.770308 284.823055 
L 1072.033433 284.823055 
z
" style="fill: #ffffff; stroke: #000000; stroke-width: 0.72; stroke-linejoin: miter"/>
    </g>
    <!-- Other -->
    <g style="fill: #2a475e" transform="translate(1075.633433 297.54118) scale(0.12 -0.12)">
     <defs>
      <path id="DejaVuSans-Bold-4f" d="M 2719 3878 
Q 2169 3878 1866 3472 
Q 1563 3066 1563 2328 
Q 1563 1594 1866 1187 
Q 2169 781 2719 781 
Q 3272 781 3575 1187 
Q 3878 1594 3878 2328 
Q 3878 3066 3575 3472 
Q 3272 3878 2719 3878 
z
M 2719 4750 
Q 3844 4750 4481 4106 
Q 5119 3463 5119 2328 
Q 5119 1197 4481 553 
Q 3844 -91 2719 -91 
Q 1597 -91 958 553 
Q 319 1197 319 2328 
Q 319 3463 958 4106 
Q 1597 4750 2719 4750 
z
" transform="scale(0.015625)"/>
     </defs>
     <use xlink:href="#DejaVuSans-Bold-4f"/>
     <use xlink:href="#DejaVuSans-Bold-74" x="85.009766"/>
     <use xlink:href="#DejaVuSans-Bold-68" x="132.8125"/>
     <use xlink:href="#DejaVuSans-Bold-65" x="204.003906"/>
     <use xlink:href="#DejaVuSans-Bold-72" x="271.826172"/>
    </g>
   </g>
   <g id="patch_15">
    <path d="M 1069.67666 254.679289 
L 1067.218915 254.679289 
L 1042.496184 241.60896 
" style="fill: none; stroke: #000000; stroke-linecap: round"/>
   </g>
   <g id="text_16">
    <g id="patch_16">
     <path d="M 1072.033433 264.086164 
L 1103.520308 264.086164 
L 1103.520308 245.272414 
L 1072.033433 245.272414 
z
" style="fill: #ffffff; stroke: #000000; stroke-width: 0.72; stroke-linejoin: miter"/>
    </g>
    <!-- Lua -->
    <g style="fill: #2a475e" transform="translate(1075.633433 257.990539) scale(0.12 -0.12)">
     <defs>
      <path id="DejaVuSans-Bold-4c" d="M 588 4666 
L 1791 4666 
L 1791 909 
L 3903 909 
L 3903 0 
L 588 0 
L 588 4666 
z
" transform="scale(0.015625)"/>
     </defs>
     <use xlink:href="#DejaVuSans-Bold-4c"/>
     <use xlink:href="#DejaVuSans-Bold-75" x="63.720703"/>
     <use xlink:href="#DejaVuSans-Bold-61" x="134.912109"/>
    </g>
   </g>
   <g id="patch_17">
    <path d="M 1069.687258 217.295772 
L 1050.845312 214.992561 
" style="fill: none; stroke: #000000; stroke-linecap: round"/>
   </g>
   <g id="text_17">
    <g id="patch_18">
     <path d="M 1072.033433 227.79265 
L 1149.634058 227.79265 
L 1149.634058 208.9789 
L 1072.033433 208.9789 
z
" style="fill: #ffffff; stroke: #000000; stroke-width: 0.72; stroke-linejoin: miter"/>
    </g>
    <!-- Markdown -->
    <g style="fill: #2a475e" transform="translate(1075.633433 221.697025) scale(0.12 -0.12)">
     <defs>
      <path id="DejaVuSans-Bold-4d" d="M 588 4666 
L 2119 4666 
L 3181 2169 
L 4250 4666 
L 5778 4666 
L 5778 0 
L 4641 0 
L 4641 3413 
L 3566 897 
L 2803 897 
L 1728 3413 
L 1728 0 
L 588 0 
L 588 4666 
z
" transform="scale(0.015625)"/>
     </defs>
     <use xlink:href="#DejaVuSans-Bold-4d"/>
     <use xlink:href="#DejaVuSans-Bold-61" x="99.511719"/>
     <use xlink:href="#DejaVuSans-Bold-72" x="166.992188"/>
     <use xlink:href="#DejaVuSans-Bold-6b" x="216.308594"/>
     <use xlink:href="#DejaVuSans-Bold-64" x="282.8125"/>
     <use xlink:href="#DejaVuSans-Bold-6f" x="354.394531"/>
     <use xlink:href="#DejaVuSans-Bold-77" x="423.095703"/>
     <use xlink:href="#DejaVuSans-Bold-6e" x="515.478516"/>
    </g>
   </g>
   <g id="patch_19">
    <path d="M 1069.681448 195.468945 
L 1050.975501 197.471748 
" style="fill: none; stroke: #000000; stroke-linecap: round"/>
   </g>
   <g id="text_18">
    <g id="patch_20">
     <path d="M 1072.033433 203.901321 
L 1108.354058 203.901321 
L 1108.354058 185.087571 
L 1072.033433 185.087571 
z
" style="fill: #ffffff; stroke: #000000; stroke-width: 0.72; stroke-linejoin: miter"/>
    </g>
    <!-- conf -->
    <g style="fill: #2a475e" transform="translate(1075.633433 197.805696) scale(0.12 -0.12)">
     <use xlink:href="#DejaVuSans-Bold-63"/>
     <use xlink:href="#DejaVuSans-Bold-6f" x="59.277344"/>
     <use xlink:href="#DejaVuSans-Bold-6e" x="127.978516"/>
     <use xlink:href="#DejaVuSans-Bold-66" x="199.169922"/>
    </g>
   </g>
   <g id="patch_21">
    <path d="M 1046.776751 194.149445 
C 1045.476686 186.776413 1043.078679 179.639747 1039.662773 172.977663 
C 1036.246866 166.31558 1031.851496 160.203039 1026.623375 154.844073 
C 1021.395254 149.485106 1015.393208 144.940012 1008.817581 141.360501 
C 1002.241954 137.78099 995.166732 135.207338 987.828082 133.725452 
C 980.489432 132.243567 972.969926 131.87012 965.520558 132.617579 
C 958.071191 133.365038 950.77578 135.224991 943.877842 138.135355 
C 936.979904 141.045719 930.557052 144.973748 924.823676 149.788326 
C 919.090299 154.602905 914.110909 160.249861 910.051712 166.540703 
C 905.992516 172.831545 902.899187 179.695491 900.874978 186.903428 
C 898.85077 194.111364 897.918457 201.58219 898.10916 209.066533 
C 898.299862 216.550877 899.611435 223.964528 902.000099 231.060023 
C 904.388763 238.155519 907.827641 244.853023 912.201946 250.928977 
C 916.576251 257.004932 921.836765 262.390973 927.807896 266.907317 
C 933.779026 271.423662 940.393588 275.019494 947.430793 277.574788 
C 954.467997 280.130081 961.848663 281.616084 969.32643 281.983196 
C 976.804197 282.350308 984.294927 281.594397 991.548586 279.740696 
L 982.274226 243.449498 
C 978.647396 244.376349 974.902031 244.754304 971.163148 244.570748 
C 967.424264 244.387192 963.733931 243.644191 960.215329 242.366544 
C 956.696727 241.088897 953.389446 239.290981 950.40388 237.032809 
C 947.418315 234.774636 944.788058 232.081616 942.600906 229.043639 
C 940.413753 226.005661 938.694314 222.656909 937.499982 219.109162 
C 936.30565 215.561414 935.649864 211.854589 935.554512 208.112417 
C 935.459161 204.370245 935.925317 200.634832 936.937422 197.030864 
C 937.949526 193.426896 939.496191 189.994923 941.525789 186.849502 
C 943.555387 183.70408 946.045082 180.880602 948.91177 178.473313 
C 951.778459 176.066024 954.989885 174.10201 958.438854 172.646828 
C 961.887823 171.191646 965.535528 170.261669 969.260212 169.88794 
C 972.984896 169.51421 976.744649 169.700933 980.413974 170.441876 
C 984.083299 171.182819 987.62091 172.469645 990.908723 174.2594 
C 994.196537 176.049156 997.19756 178.321703 999.81162 181.001187 
C 1002.42568 183.68067 1004.623366 186.73694 1006.331319 190.067982 
C 1008.039272 193.399023 1009.238276 196.967357 1009.888308 200.653873 
z
" style="fill: #092436; opacity: 0.5; stroke: #092436; stroke-width: 4; stroke-linejoin: miter"/>
   </g>
   <g id="patch_22">
    <path d="M 995.560936 286.067119 
C 1003.197895 284.115464 1010.479199 280.970666 1017.135721 276.748959 
C 1023.792244 272.527253 1029.740952 267.281301 1034.761973 261.204999 
L 1005.887095 237.344862 
C 1003.376584 240.383012 1000.40223 243.005988 997.073969 245.116842 
C 993.745707 247.227695 990.105055 248.800094 986.286576 249.775922 
z
" style="fill: #4d2604; opacity: 0.5; stroke: #4d2604; stroke-width: 4; stroke-linejoin: miter"/>
   </g>
   <g id="patch_23">
    <path d="M 1037.372533 258.379953 
C 1040.624553 254.444449 1043.465779 250.186807 1045.851882 245.673456 
C 1048.237985 241.160105 1050.15649 236.414641 1051.577464 231.511106 
L 1015.60012 221.085392 
C 1014.889633 223.53716 1013.930381 225.909891 1012.737329 228.166567 
C 1011.544278 230.423242 1010.123664 232.552064 1008.497655 234.519816 
z
" style="fill: #0d300d; opacity: 0.5; stroke: #0d300d; stroke-width: 4; stroke-linejoin: miter"/>
   </g>
   <g id="patch_24">
    <path d="M 1052.390704 228.918712 
C 1053.506329 225.068885 1054.311187 221.135724 1054.797525 217.157124 
C 1055.283863 213.178523 1055.450114 209.1673 1055.294677 205.1621 
L 1017.865347 206.614692 
C 1017.943065 208.617292 1017.85994 210.622904 1017.616771 212.612204 
C 1017.373602 214.601504 1016.971172 216.568084 1016.41336 218.492998 
z
" style="fill: #400c0c; opacity: 0.5; stroke: #400c0c; stroke-width: 4; stroke-linejoin: miter"/>
   </g>
   <g id="patch_25">
    <path d="M 1055.307454 203.455577 
C 1055.24172 201.761814 1055.118521 200.07077 1054.938069 198.385365 
C 1054.757617 196.69996 1054.520015 195.021165 1054.225674 193.351879 
L 1017.337233 199.85632 
C 1017.484404 200.690963 1017.603205 201.530361 1017.693431 202.373063 
C 1017.783657 203.215765 1017.845257 204.061287 1017.878123 204.908169 
z
" style="fill: #2c1f39; opacity: 0.5; stroke: #2c1f39; stroke-width: 4; stroke-linejoin: miter"/>
   </g>
   <g id="patch_26">
    <path d="M 1048.275051 192.651145 
C 1046.974987 185.278112 1044.576979 178.141446 1041.161073 171.479363 
C 1037.745167 164.81728 1033.349796 158.704739 1028.121675 153.345772 
C 1022.893554 147.986806 1016.891508 143.441711 1010.315881 139.8622 
C 1003.740254 136.28269 996.665033 133.709038 989.326383 132.227152 
C 981.987733 130.745266 974.468226 130.37182 967.018859 131.119279 
C 959.569491 131.866737 952.274081 133.726691 945.376143 136.637055 
C 938.478205 139.547419 932.055352 143.475448 926.321976 148.290026 
C 920.588599 153.104604 915.609209 158.75156 911.550013 165.042403 
C 907.490817 171.333245 904.397488 178.197191 902.373279 185.405127 
C 900.34907 192.613064 899.416757 200.083889 899.60746 207.568233 
C 899.798163 215.052577 901.109736 222.466228 903.498399 229.561723 
C 905.887063 236.657218 909.325941 243.354722 913.700246 249.430677 
C 918.074551 255.506632 923.335065 260.892672 929.306196 265.409017 
C 935.277326 269.925362 941.891889 273.521194 948.929093 276.076487 
C 955.966297 278.631781 963.346963 280.117784 970.82473 280.484896 
C 978.302497 280.852008 985.793228 280.096097 993.046886 278.242396 
L 983.772526 241.951198 
C 980.145697 242.878048 976.400331 243.256004 972.661448 243.072448 
C 968.922565 242.888892 965.232231 242.14589 961.713629 240.868244 
C 958.195027 239.590597 954.887746 237.792681 951.902181 235.534509 
C 948.916615 233.276336 946.286358 230.583316 944.099206 227.545339 
C 941.912053 224.507361 940.192614 221.158609 938.998282 217.610862 
C 937.803951 214.063114 937.148164 210.356288 937.052813 206.614117 
C 936.957461 202.871945 937.423618 199.136532 938.435722 195.532564 
C 939.447827 191.928595 940.994491 188.496622 943.024089 185.351201 
C 945.053687 182.20578 947.543383 179.382302 950.410071 176.975013 
C 953.276759 174.567724 956.488185 172.60371 959.937154 171.148527 
C 963.386123 169.693345 967.033828 168.763369 970.758512 168.389639 
C 974.483196 168.01591 978.242949 168.202633 981.912274 168.943576 
C 985.581599 169.684519 989.11921 170.971345 992.407023 172.7611 
C 995.694837 174.550856 998.69586 176.823403 1001.30992 179.502886 
C 1003.923981 182.182369 1006.121666 185.23864 1007.829619 188.569682 
C 1009.537572 191.900723 1010.736576 195.469056 1011.386608 199.155572 
z
" style="fill: #1f77b4; stroke: #ffffff; stroke-width: 4; stroke-linejoin: miter"/>
   </g>
   <g id="patch_27">
    <path d="M 997.059237 284.568819 
C 1004.696195 282.617164 1011.977499 279.472365 1018.634022 275.250659 
C 1025.290544 271.028953 1031.239252 265.783 1036.260274 259.706699 
L 1007.385395 235.846561 
C 1004.874884 238.884712 1001.90053 241.507688 998.572269 243.618541 
C 995.244008 245.729394 991.603356 247.301794 987.784876 248.277621 
z
" style="fill: #ff7f0e; stroke: #ffffff; stroke-width: 4; stroke-linejoin: miter"/>
   </g>
   <g id="patch_28">
    <path d="M 1038.870834 256.881653 
C 1042.122853 252.946149 1044.96408 248.688507 1047.350183 244.175156 
C 1049.736286 239.661805 1051.654791 234.916341 1053.075764 230.012806 
L 1017.09842 219.587092 
C 1016.387933 222.038859 1015.428681 224.411591 1014.235629 226.668267 
C 1013.042578 228.924942 1011.621965 231.053763 1009.995955 233.021515 
z
" style="fill: #2ca02c; stroke: #ffffff; stroke-width: 4; stroke-linejoin: miter"/>
   </g>
   <g id="patch_29">
    <path d="M 1053.889004 227.420412 
C 1055.004629 223.570584 1055.809487 219.637424 1056.295825 215.658823 
C 1056.782163 211.680223 1056.948415 207.669 1056.792977 203.6638 
L 1019.363647 205.116392 
C 1019.441366 207.118992 1019.35824 209.124603 1019.115071 211.113904 
C 1018.871902 213.103204 1018.469473 215.069784 1017.91166 216.994698 
z
" style="fill: #d62728; stroke: #ffffff; stroke-width: 4; stroke-linejoin: miter"/>
   </g>
   <g id="patch_30">
    <path d="M 1056.805754 201.957276 
C 1056.740021 200.263514 1056.616822 198.57247 1056.436369 196.887065 
C 1056.255917 195.20166 1056.018315 193.522865 1055.723974 191.853579 
L 1018.835534 198.35802 
C 1018.982704 199.192663 1019.101505 200.03206 1019.191731 200.874763 
C 1019.281957 201.717465 1019.343557 202.562987 1019.376424 203.409868 
z
" style="fill: #9467bd; stroke: #ffffff; stroke-width: 4; stroke-linejoin: miter"/>
   </g>
   <g id="matplotlib.axis_3"/>
   <g id="matplotlib.axis_4"/>
   <g id="text_19">
    <!-- Languages -->
    <g style="fill: #2a475e" transform="translate(943.920041 208.34125) scale(0.1 -0.1)">
     <use xlink:href="#DejaVuSans-Bold-4c"/>
     <use xlink:href="#DejaVuSans-Bold-61" x="63.720703"/>
     <use xlink:href="#DejaVuSans-Bold-6e" x="131.201172"/>
     <use xlink:href="#DejaVuSans-Bold-67" x="202.392578"/>
     <use xlink:href="#DejaVuSans-Bold-75" x="273.974609"/>
     <use xlink:href="#DejaVuSans-Bold-61" x="345.166016"/>
     <use xlink:href="#DejaVuSans-Bold-67" x="412.646484"/>
     <use xlink:href="#DejaVuSans-Bold-65" x="484.228516"/>
     <use xlink:href="#DejaVuSans-Bold-73" x="552.050781"/>
    </g>
   </g>
   <g id="text_20">
    <!-- Languages exploited : -->
    <g style="fill: #2a475e" transform="translate(899.525353 106.016234) scale(0.12 -0.12)">
     <defs>
      <path id="DejaVuSans-Bold-78" d="M 1422 1791 
L 159 3500 
L 1344 3500 
L 2059 2463 
L 2784 3500 
L 3969 3500 
L 2706 1797 
L 4031 0 
L 2847 0 
L 2059 1106 
L 1281 0 
L 97 0 
L 1422 1791 
z
" transform="scale(0.015625)"/>
     </defs>
     <use xlink:href="#DejaVuSans-Bold-4c"/>
     <use xlink:href="#DejaVuSans-Bold-61" x="63.720703"/>
     <use xlink:href="#DejaVuSans-Bold-6e" x="131.201172"/>
     <use xlink:href="#DejaVuSans-Bold-67" x="202.392578"/>
     <use xlink:href="#DejaVuSans-Bold-75" x="273.974609"/>
     <use xlink:href="#DejaVuSans-Bold-61" x="345.166016"/>
     <use xlink:href="#DejaVuSans-Bold-67" x="412.646484"/>
     <use xlink:href="#DejaVuSans-Bold-65" x="484.228516"/>
     <use xlink:href="#DejaVuSans-Bold-73" x="552.050781"/>
     <use xlink:href="#DejaVuSans-Bold-20" x="611.572266"/>
     <use xlink:href="#DejaVuSans-Bold-65" x="646.386719"/>
     <use xlink:href="#DejaVuSans-Bold-78" x="714.208984"/>
     <use xlink:href="#DejaVuSans-Bold-70" x="778.710938"/>
     <use xlink:href="#DejaVuSans-Bold-6c" x="850.292969"/>
     <use xlink:href="#DejaVuSans-Bold-6f" x="884.570312"/>
     <use xlink:href="#DejaVuSans-Bold-69" x="953.271484"/>
     <use xlink:href="#DejaVuSans-Bold-74" x="987.548828"/>
     <use xlink:href="#DejaVuSans-Bold-65" x="1035.351562"/>
     <use xlink:href="#DejaVuSans-Bold-64" x="1103.173828"/>
     <use xlink:href="#DejaVuSans-Bold-20" x="1174.755859"/>
     <use xlink:href="#DejaVuSans-Bold-3a" x="1209.570312"/>
    </g>
   </g>
  </g>
  <g id="text_21">
   <!-- From 08 May, 2024 to 15 May, 2024: 28 hrs 48 mins -->
   <g transform="translate(142.38 29.995312) scale(0.3 -0.3)">
    <defs>
     <path id="DejaVuSans-Bold-46" d="M 588 4666 
L 3834 4666 
L 3834 3756 
L 1791 3756 
L 1791 2888 
L 3713 2888 
L 3713 1978 
L 1791 1978 
L 1791 0 
L 588 0 
L 588 4666 
z
" transform="scale(0.015625)"/>
     <path id="DejaVuSans-Bold-2c" d="M 653 1209 
L 1778 1209 
L 1778 256 
L 1006 -909 
L 341 -909 
L 653 256 
L 653 1209 
z
" transform="scale(0.015625)"/>
     <path id="DejaVuSans-Bold-34" d="M 2356 3675 
L 1038 1722 
L 2356 1722 
L 2356 3675 
z
M 2156 4666 
L 3494 4666 
L 3494 1722 
L 4159 1722 
L 4159 850 
L 3494 850 
L 3494 0 
L 2356 0 
L 2356 850 
L 288 850 
L 288 1881 
L 2156 4666 
z
" transform="scale(0.015625)"/>
    </defs>
    <use xlink:href="#DejaVuSans-Bold-46"/>
    <use xlink:href="#DejaVuSans-Bold-72" x="61.935547"/>
    <use xlink:href="#DejaVuSans-Bold-6f" x="111.251953"/>
    <use xlink:href="#DejaVuSans-Bold-6d" x="179.953125"/>
    <use xlink:href="#DejaVuSans-Bold-20" x="284.152344"/>
    <use xlink:href="#DejaVuSans-Bold-30" x="318.966797"/>
    <use xlink:href="#DejaVuSans-Bold-38" x="388.546875"/>
    <use xlink:href="#DejaVuSans-Bold-20" x="458.126953"/>
    <use xlink:href="#DejaVuSans-Bold-4d" x="492.941406"/>
    <use xlink:href="#DejaVuSans-Bold-61" x="592.453125"/>
    <use xlink:href="#DejaVuSans-Bold-79" x="656.808594"/>
    <use xlink:href="#DejaVuSans-Bold-2c" x="714.244141"/>
    <use xlink:href="#DejaVuSans-Bold-20" x="752.232422"/>
    <use xlink:href="#DejaVuSans-Bold-32" x="787.046875"/>
    <use xlink:href="#DejaVuSans-Bold-30" x="856.626953"/>
    <use xlink:href="#DejaVuSans-Bold-32" x="926.207031"/>
    <use xlink:href="#DejaVuSans-Bold-34" x="995.787109"/>
    <use xlink:href="#DejaVuSans-Bold-20" x="1065.367188"/>
    <use xlink:href="#DejaVuSans-Bold-74" x="1100.181641"/>
    <use xlink:href="#DejaVuSans-Bold-6f" x="1147.984375"/>
    <use xlink:href="#DejaVuSans-Bold-20" x="1216.685547"/>
    <use xlink:href="#DejaVuSans-Bold-31" x="1251.5"/>
    <use xlink:href="#DejaVuSans-Bold-35" x="1321.080078"/>
    <use xlink:href="#DejaVuSans-Bold-20" x="1390.660156"/>
    <use xlink:href="#DejaVuSans-Bold-4d" x="1425.474609"/>
    <use xlink:href="#DejaVuSans-Bold-61" x="1524.986328"/>
    <use xlink:href="#DejaVuSans-Bold-79" x="1589.341797"/>
    <use xlink:href="#DejaVuSans-Bold-2c" x="1646.777344"/>
    <use xlink:href="#DejaVuSans-Bold-20" x="1684.765625"/>
    <use xlink:href="#DejaVuSans-Bold-32" x="1719.580078"/>
    <use xlink:href="#DejaVuSans-Bold-30" x="1789.160156"/>
    <use xlink:href="#DejaVuSans-Bold-32" x="1858.740234"/>
    <use xlink:href="#DejaVuSans-Bold-34" x="1928.320312"/>
    <use xlink:href="#DejaVuSans-Bold-3a" x="1997.900391"/>
    <use xlink:href="#DejaVuSans-Bold-20" x="2037.890625"/>
    <use xlink:href="#DejaVuSans-Bold-32" x="2072.705078"/>
    <use xlink:href="#DejaVuSans-Bold-38" x="2142.285156"/>
    <use xlink:href="#DejaVuSans-Bold-20" x="2211.865234"/>
    <use xlink:href="#DejaVuSans-Bold-68" x="2246.679688"/>
    <use xlink:href="#DejaVuSans-Bold-72" x="2317.871094"/>
    <use xlink:href="#DejaVuSans-Bold-73" x="2367.1875"/>
    <use xlink:href="#DejaVuSans-Bold-20" x="2426.708984"/>
    <use xlink:href="#DejaVuSans-Bold-34" x="2461.523438"/>
    <use xlink:href="#DejaVuSans-Bold-38" x="2531.103516"/>
    <use xlink:href="#DejaVuSans-Bold-20" x="2600.683594"/>
    <use xlink:href="#DejaVuSans-Bold-6d" x="2635.498047"/>
    <use xlink:href="#DejaVuSans-Bold-69" x="2739.697266"/>
    <use xlink:href="#DejaVuSans-Bold-6e" x="2773.974609"/>
    <use xlink:href="#DejaVuSans-Bold-73" x="2845.166016"/>
   </g>
  </g>
 </g>
 <defs>
  <clipPath id="p6e69c4547f">
   <rect x="339.24375" y="56.32" width="374.575065" height="298.68"/>
  </clipPath>
 </defs>
</svg>
