<?xml version="1.0" encoding="utf-8" standalone="no"?>
<!DOCTYPE svg PUBLIC "-//W3C//DTD SVG 1.1//EN"
  "http://www.w3.org/Graphics/SVG/1.1/DTD/svg11.dtd">
<svg xmlns:xlink="http://www.w3.org/1999/xlink" width="1155.128483pt" height="362.2pt" viewBox="0 0 1155.128483 362.2" xmlns="http://www.w3.org/2000/svg" version="1.1">
 <metadata>
  <rdf:RDF xmlns:dc="http://purl.org/dc/elements/1.1/" xmlns:cc="http://creativecommons.org/ns#" xmlns:rdf="http://www.w3.org/1999/02/22-rdf-syntax-ns#">
   <cc:Work>
    <dc:type rdf:resource="http://purl.org/dc/dcmitype/StillImage"/>
    <dc:date>2024-12-12T00:40:36.391075</dc:date>
    <dc:format>image/svg+xml</dc:format>
    <dc:creator>
     <cc:Agent>
      <dc:title>Matplotlib v3.9.1.post1, https://matplotlib.org/</dc:title>
     </cc:Agent>
    </dc:creator>
   </cc:Work>
  </rdf:RDF>
 </metadata>
 <defs>
  <style type="text/css">*{stroke-linejoin: round; stroke-linecap: butt}</style>
 </defs>
 <g id="figure_1">
  <g id="patch_1">
   <path d="M 0 362.2 
L 1155.128483 362.2 
L 1155.128483 0 
L 0 0 
L 0 362.2 
z
" style="fill: none"/>
  </g>
  <g id="axes_1">
   <g id="patch_2">
    <path d="M 205.734375 355 
L 662.749436 355 
L 662.749436 56.32 
L 205.734375 56.32 
L 205.734375 355 
z
" style="fill: none"/>
   </g>
   <g id="patch_3">
    <path d="M 205.734375 69.896364 
L 640.986815 69.896364 
L 640.986815 100.066061 
L 205.734375 100.066061 
z
" clip-path="url(#pf2384a7657)" style="fill: #afb13b; stroke: #afb13b; stroke-linejoin: miter"/>
   </g>
   <g id="patch_4">
    <path d="M 205.734375 130.235758 
L 352.785906 130.235758 
L 352.785906 160.405455 
L 205.734375 160.405455 
z
" clip-path="url(#pf2384a7657)" style="fill: #951970; stroke: #951970; stroke-linejoin: miter"/>
   </g>
   <g id="patch_5">
    <path d="M 205.734375 190.575152 
L 249.247061 190.575152 
L 249.247061 220.744848 
L 205.734375 220.744848 
z
" clip-path="url(#pf2384a7657)" style="fill: #c7916b; stroke: #c7916b; stroke-linejoin: miter"/>
   </g>
   <g id="patch_6">
    <path d="M 205.734375 250.914545 
L 207.241308 250.914545 
L 207.241308 281.084242 
L 205.734375 281.084242 
z
" clip-path="url(#pf2384a7657)" style="fill: #8020be; stroke: #8020be; stroke-linejoin: miter"/>
   </g>
   <g id="patch_7">
    <path d="M 205.734375 311.253939 
L 206.362264 311.253939 
L 206.362264 341.423636 
L 205.734375 341.423636 
z
" clip-path="url(#pf2384a7657)" style="fill: #68d577; stroke: #68d577; stroke-linejoin: miter"/>
   </g>
   <g id="matplotlib.axis_1"/>
   <g id="matplotlib.axis_2">
    <g id="ytick_1">
     <g id="line2d_1">
      <defs>
       <path id="m395d1f0f81" d="M 0 0 
L -3.5 0 
" style="stroke: #000000; stroke-width: 0.8"/>
      </defs>
      <g>
       <use xlink:href="#m395d1f0f81" x="205.734375" y="84.981212" style="stroke: #000000; stroke-width: 0.8"/>
      </g>
     </g>
     <g id="text_1">
      <!-- CVSampler -->
      <g style="fill: #586069" transform="translate(75.2375 92.57965) scale(0.2 -0.2)">
       <defs>
        <path id="DejaVuSans-Bold-43" d="M 4288 256 
Q 3956 84 3597 -3 
Q 3238 -91 2847 -91 
Q 1681 -91 1000 561 
Q 319 1213 319 2328 
Q 319 3447 1000 4098 
Q 1681 4750 2847 4750 
Q 3238 4750 3597 4662 
Q 3956 4575 4288 4403 
L 4288 3438 
Q 3953 3666 3628 3772 
Q 3303 3878 2944 3878 
Q 2300 3878 1931 3465 
Q 1563 3053 1563 2328 
Q 1563 1606 1931 1193 
Q 2300 781 2944 781 
Q 3303 781 3628 887 
Q 3953 994 4288 1222 
L 4288 256 
z
" transform="scale(0.015625)"/>
        <path id="DejaVuSans-Bold-56" d="M 31 4666 
L 1241 4666 
L 2478 1222 
L 3713 4666 
L 4922 4666 
L 3194 0 
L 1759 0 
L 31 4666 
z
" transform="scale(0.015625)"/>
        <path id="DejaVuSans-Bold-53" d="M 3834 4519 
L 3834 3531 
Q 3450 3703 3084 3790 
Q 2719 3878 2394 3878 
Q 1963 3878 1756 3759 
Q 1550 3641 1550 3391 
Q 1550 3203 1689 3098 
Q 1828 2994 2194 2919 
L 2706 2816 
Q 3484 2659 3812 2340 
Q 4141 2022 4141 1434 
Q 4141 663 3683 286 
Q 3225 -91 2284 -91 
Q 1841 -91 1394 -6 
Q 947 78 500 244 
L 500 1259 
Q 947 1022 1364 901 
Q 1781 781 2169 781 
Q 2563 781 2772 912 
Q 2981 1044 2981 1288 
Q 2981 1506 2839 1625 
Q 2697 1744 2272 1838 
L 1806 1941 
Q 1106 2091 782 2419 
Q 459 2747 459 3303 
Q 459 4000 909 4375 
Q 1359 4750 2203 4750 
Q 2588 4750 2994 4692 
Q 3400 4634 3834 4519 
z
" transform="scale(0.015625)"/>
        <path id="DejaVuSans-Bold-61" d="M 2106 1575 
Q 1756 1575 1579 1456 
Q 1403 1338 1403 1106 
Q 1403 894 1545 773 
Q 1688 653 1941 653 
Q 2256 653 2472 879 
Q 2688 1106 2688 1447 
L 2688 1575 
L 2106 1575 
z
M 3816 1997 
L 3816 0 
L 2688 0 
L 2688 519 
Q 2463 200 2181 54 
Q 1900 -91 1497 -91 
Q 953 -91 614 226 
Q 275 544 275 1050 
Q 275 1666 698 1953 
Q 1122 2241 2028 2241 
L 2688 2241 
L 2688 2328 
Q 2688 2594 2478 2717 
Q 2269 2841 1825 2841 
Q 1466 2841 1156 2769 
Q 847 2697 581 2553 
L 581 3406 
Q 941 3494 1303 3539 
Q 1666 3584 2028 3584 
Q 2975 3584 3395 3211 
Q 3816 2838 3816 1997 
z
" transform="scale(0.015625)"/>
        <path id="DejaVuSans-Bold-6d" d="M 3781 2919 
Q 3994 3244 4286 3414 
Q 4578 3584 4928 3584 
Q 5531 3584 5847 3212 
Q 6163 2841 6163 2131 
L 6163 0 
L 5038 0 
L 5038 1825 
Q 5041 1866 5042 1909 
Q 5044 1953 5044 2034 
Q 5044 2406 4934 2573 
Q 4825 2741 4581 2741 
Q 4263 2741 4089 2478 
Q 3916 2216 3909 1719 
L 3909 0 
L 2784 0 
L 2784 1825 
Q 2784 2406 2684 2573 
Q 2584 2741 2328 2741 
Q 2006 2741 1831 2477 
Q 1656 2213 1656 1722 
L 1656 0 
L 531 0 
L 531 3500 
L 1656 3500 
L 1656 2988 
Q 1863 3284 2130 3434 
Q 2397 3584 2719 3584 
Q 3081 3584 3359 3409 
Q 3638 3234 3781 2919 
z
" transform="scale(0.015625)"/>
        <path id="DejaVuSans-Bold-70" d="M 1656 506 
L 1656 -1331 
L 538 -1331 
L 538 3500 
L 1656 3500 
L 1656 2988 
Q 1888 3294 2169 3439 
Q 2450 3584 2816 3584 
Q 3463 3584 3878 3070 
Q 4294 2556 4294 1747 
Q 4294 938 3878 423 
Q 3463 -91 2816 -91 
Q 2450 -91 2169 54 
Q 1888 200 1656 506 
z
M 2400 2772 
Q 2041 2772 1848 2508 
Q 1656 2244 1656 1747 
Q 1656 1250 1848 986 
Q 2041 722 2400 722 
Q 2759 722 2948 984 
Q 3138 1247 3138 1747 
Q 3138 2247 2948 2509 
Q 2759 2772 2400 2772 
z
" transform="scale(0.015625)"/>
        <path id="DejaVuSans-Bold-6c" d="M 538 4863 
L 1656 4863 
L 1656 0 
L 538 0 
L 538 4863 
z
" transform="scale(0.015625)"/>
        <path id="DejaVuSans-Bold-65" d="M 4031 1759 
L 4031 1441 
L 1416 1441 
Q 1456 1047 1700 850 
Q 1944 653 2381 653 
Q 2734 653 3104 758 
Q 3475 863 3866 1075 
L 3866 213 
Q 3469 63 3072 -14 
Q 2675 -91 2278 -91 
Q 1328 -91 801 392 
Q 275 875 275 1747 
Q 275 2603 792 3093 
Q 1309 3584 2216 3584 
Q 3041 3584 3536 3087 
Q 4031 2591 4031 1759 
z
M 2881 2131 
Q 2881 2450 2695 2645 
Q 2509 2841 2209 2841 
Q 1884 2841 1681 2658 
Q 1478 2475 1428 2131 
L 2881 2131 
z
" transform="scale(0.015625)"/>
        <path id="DejaVuSans-Bold-72" d="M 3138 2547 
Q 2991 2616 2845 2648 
Q 2700 2681 2553 2681 
Q 2122 2681 1889 2404 
Q 1656 2128 1656 1613 
L 1656 0 
L 538 0 
L 538 3500 
L 1656 3500 
L 1656 2925 
Q 1872 3269 2151 3426 
Q 2431 3584 2822 3584 
Q 2878 3584 2943 3579 
Q 3009 3575 3134 3559 
L 3138 2547 
z
" transform="scale(0.015625)"/>
       </defs>
       <use xlink:href="#DejaVuSans-Bold-43"/>
       <use xlink:href="#DejaVuSans-Bold-56" x="73.388672"/>
       <use xlink:href="#DejaVuSans-Bold-53" x="150.78125"/>
       <use xlink:href="#DejaVuSans-Bold-61" x="222.802734"/>
       <use xlink:href="#DejaVuSans-Bold-6d" x="290.283203"/>
       <use xlink:href="#DejaVuSans-Bold-70" x="394.482422"/>
       <use xlink:href="#DejaVuSans-Bold-6c" x="466.064453"/>
       <use xlink:href="#DejaVuSans-Bold-65" x="500.341797"/>
       <use xlink:href="#DejaVuSans-Bold-72" x="568.164062"/>
      </g>
     </g>
    </g>
    <g id="ytick_2">
     <g id="line2d_2">
      <g>
       <use xlink:href="#m395d1f0f81" x="205.734375" y="145.320606" style="stroke: #000000; stroke-width: 0.8"/>
      </g>
     </g>
     <g id="text_2">
      <!-- Sarkar -->
      <g style="fill: #586069" transform="translate(124.3125 152.919044) scale(0.2 -0.2)">
       <defs>
        <path id="DejaVuSans-Bold-6b" d="M 538 4863 
L 1656 4863 
L 1656 2216 
L 2944 3500 
L 4244 3500 
L 2534 1894 
L 4378 0 
L 3022 0 
L 1656 1459 
L 1656 0 
L 538 0 
L 538 4863 
z
" transform="scale(0.015625)"/>
       </defs>
       <use xlink:href="#DejaVuSans-Bold-53"/>
       <use xlink:href="#DejaVuSans-Bold-61" x="72.021484"/>
       <use xlink:href="#DejaVuSans-Bold-72" x="139.501953"/>
       <use xlink:href="#DejaVuSans-Bold-6b" x="188.818359"/>
       <use xlink:href="#DejaVuSans-Bold-61" x="255.322266"/>
       <use xlink:href="#DejaVuSans-Bold-72" x="322.802734"/>
      </g>
     </g>
    </g>
    <g id="ytick_3">
     <g id="line2d_3">
      <g>
       <use xlink:href="#m395d1f0f81" x="205.734375" y="205.66" style="stroke: #000000; stroke-width: 0.8"/>
      </g>
     </g>
     <g id="text_3">
      <!-- Unknown Project -->
      <g style="fill: #586069" transform="translate(7.2 213.258437) scale(0.2 -0.2)">
       <defs>
        <path id="DejaVuSans-Bold-55" d="M 588 4666 
L 1791 4666 
L 1791 1869 
Q 1791 1291 1980 1042 
Q 2169 794 2597 794 
Q 3028 794 3217 1042 
Q 3406 1291 3406 1869 
L 3406 4666 
L 4609 4666 
L 4609 1869 
Q 4609 878 4112 393 
Q 3616 -91 2597 -91 
Q 1581 -91 1084 393 
Q 588 878 588 1869 
L 588 4666 
z
" transform="scale(0.015625)"/>
        <path id="DejaVuSans-Bold-6e" d="M 4056 2131 
L 4056 0 
L 2931 0 
L 2931 347 
L 2931 1631 
Q 2931 2084 2911 2256 
Q 2891 2428 2841 2509 
Q 2775 2619 2662 2680 
Q 2550 2741 2406 2741 
Q 2056 2741 1856 2470 
Q 1656 2200 1656 1722 
L 1656 0 
L 538 0 
L 538 3500 
L 1656 3500 
L 1656 2988 
Q 1909 3294 2193 3439 
Q 2478 3584 2822 3584 
Q 3428 3584 3742 3212 
Q 4056 2841 4056 2131 
z
" transform="scale(0.015625)"/>
        <path id="DejaVuSans-Bold-6f" d="M 2203 2784 
Q 1831 2784 1636 2517 
Q 1441 2250 1441 1747 
Q 1441 1244 1636 976 
Q 1831 709 2203 709 
Q 2569 709 2762 976 
Q 2956 1244 2956 1747 
Q 2956 2250 2762 2517 
Q 2569 2784 2203 2784 
z
M 2203 3584 
Q 3106 3584 3614 3096 
Q 4122 2609 4122 1747 
Q 4122 884 3614 396 
Q 3106 -91 2203 -91 
Q 1297 -91 786 396 
Q 275 884 275 1747 
Q 275 2609 786 3096 
Q 1297 3584 2203 3584 
z
" transform="scale(0.015625)"/>
        <path id="DejaVuSans-Bold-77" d="M 225 3500 
L 1313 3500 
L 1900 1088 
L 2491 3500 
L 3425 3500 
L 4013 1113 
L 4603 3500 
L 5691 3500 
L 4769 0 
L 3547 0 
L 2956 2406 
L 2369 0 
L 1147 0 
L 225 3500 
z
" transform="scale(0.015625)"/>
        <path id="DejaVuSans-Bold-20" transform="scale(0.015625)"/>
        <path id="DejaVuSans-Bold-50" d="M 588 4666 
L 2584 4666 
Q 3475 4666 3951 4270 
Q 4428 3875 4428 3144 
Q 4428 2409 3951 2014 
Q 3475 1619 2584 1619 
L 1791 1619 
L 1791 0 
L 588 0 
L 588 4666 
z
M 1791 3794 
L 1791 2491 
L 2456 2491 
Q 2806 2491 2997 2661 
Q 3188 2831 3188 3144 
Q 3188 3456 2997 3625 
Q 2806 3794 2456 3794 
L 1791 3794 
z
" transform="scale(0.015625)"/>
        <path id="DejaVuSans-Bold-6a" d="M 538 3500 
L 1656 3500 
L 1656 63 
Q 1656 -641 1318 -1011 
Q 981 -1381 341 -1381 
L -213 -1381 
L -213 -647 
L -19 -647 
Q 300 -647 419 -503 
Q 538 -359 538 63 
L 538 3500 
z
M 538 4863 
L 1656 4863 
L 1656 3950 
L 538 3950 
L 538 4863 
z
" transform="scale(0.015625)"/>
        <path id="DejaVuSans-Bold-63" d="M 3366 3391 
L 3366 2478 
Q 3138 2634 2908 2709 
Q 2678 2784 2431 2784 
Q 1963 2784 1702 2511 
Q 1441 2238 1441 1747 
Q 1441 1256 1702 982 
Q 1963 709 2431 709 
Q 2694 709 2930 787 
Q 3166 866 3366 1019 
L 3366 103 
Q 3103 6 2833 -42 
Q 2563 -91 2291 -91 
Q 1344 -91 809 395 
Q 275 881 275 1747 
Q 275 2613 809 3098 
Q 1344 3584 2291 3584 
Q 2566 3584 2833 3536 
Q 3100 3488 3366 3391 
z
" transform="scale(0.015625)"/>
        <path id="DejaVuSans-Bold-74" d="M 1759 4494 
L 1759 3500 
L 2913 3500 
L 2913 2700 
L 1759 2700 
L 1759 1216 
Q 1759 972 1856 886 
Q 1953 800 2241 800 
L 2816 800 
L 2816 0 
L 1856 0 
Q 1194 0 917 276 
Q 641 553 641 1216 
L 641 2700 
L 84 2700 
L 84 3500 
L 641 3500 
L 641 4494 
L 1759 4494 
z
" transform="scale(0.015625)"/>
       </defs>
       <use xlink:href="#DejaVuSans-Bold-55"/>
       <use xlink:href="#DejaVuSans-Bold-6e" x="81.201172"/>
       <use xlink:href="#DejaVuSans-Bold-6b" x="152.392578"/>
       <use xlink:href="#DejaVuSans-Bold-6e" x="218.896484"/>
       <use xlink:href="#DejaVuSans-Bold-6f" x="290.087891"/>
       <use xlink:href="#DejaVuSans-Bold-77" x="358.789062"/>
       <use xlink:href="#DejaVuSans-Bold-6e" x="451.171875"/>
       <use xlink:href="#DejaVuSans-Bold-20" x="522.363281"/>
       <use xlink:href="#DejaVuSans-Bold-50" x="557.177734"/>
       <use xlink:href="#DejaVuSans-Bold-72" x="630.46875"/>
       <use xlink:href="#DejaVuSans-Bold-6f" x="679.785156"/>
       <use xlink:href="#DejaVuSans-Bold-6a" x="748.486328"/>
       <use xlink:href="#DejaVuSans-Bold-65" x="782.763672"/>
       <use xlink:href="#DejaVuSans-Bold-63" x="850.585938"/>
       <use xlink:href="#DejaVuSans-Bold-74" x="909.863281"/>
      </g>
     </g>
    </g>
    <g id="ytick_4">
     <g id="line2d_4">
      <g>
       <use xlink:href="#m395d1f0f81" x="205.734375" y="265.999394" style="stroke: #000000; stroke-width: 0.8"/>
      </g>
     </g>
     <g id="text_4">
      <!-- latex-examples -->
      <g style="fill: #586069" transform="translate(26.6125 273.597831) scale(0.2 -0.2)">
       <defs>
        <path id="DejaVuSans-Bold-78" d="M 1422 1791 
L 159 3500 
L 1344 3500 
L 2059 2463 
L 2784 3500 
L 3969 3500 
L 2706 1797 
L 4031 0 
L 2847 0 
L 2059 1106 
L 1281 0 
L 97 0 
L 1422 1791 
z
" transform="scale(0.015625)"/>
        <path id="DejaVuSans-Bold-2d" d="M 347 2297 
L 2309 2297 
L 2309 1388 
L 347 1388 
L 347 2297 
z
" transform="scale(0.015625)"/>
        <path id="DejaVuSans-Bold-73" d="M 3272 3391 
L 3272 2541 
Q 2913 2691 2578 2766 
Q 2244 2841 1947 2841 
Q 1628 2841 1473 2761 
Q 1319 2681 1319 2516 
Q 1319 2381 1436 2309 
Q 1553 2238 1856 2203 
L 2053 2175 
Q 2913 2066 3209 1816 
Q 3506 1566 3506 1031 
Q 3506 472 3093 190 
Q 2681 -91 1863 -91 
Q 1516 -91 1145 -36 
Q 775 19 384 128 
L 384 978 
Q 719 816 1070 734 
Q 1422 653 1784 653 
Q 2113 653 2278 743 
Q 2444 834 2444 1013 
Q 2444 1163 2330 1236 
Q 2216 1309 1875 1350 
L 1678 1375 
Q 931 1469 631 1722 
Q 331 1975 331 2491 
Q 331 3047 712 3315 
Q 1094 3584 1881 3584 
Q 2191 3584 2531 3537 
Q 2872 3491 3272 3391 
z
" transform="scale(0.015625)"/>
       </defs>
       <use xlink:href="#DejaVuSans-Bold-6c"/>
       <use xlink:href="#DejaVuSans-Bold-61" x="34.277344"/>
       <use xlink:href="#DejaVuSans-Bold-74" x="101.757812"/>
       <use xlink:href="#DejaVuSans-Bold-65" x="149.560547"/>
       <use xlink:href="#DejaVuSans-Bold-78" x="217.382812"/>
       <use xlink:href="#DejaVuSans-Bold-2d" x="281.884766"/>
       <use xlink:href="#DejaVuSans-Bold-65" x="323.388672"/>
       <use xlink:href="#DejaVuSans-Bold-78" x="391.210938"/>
       <use xlink:href="#DejaVuSans-Bold-61" x="455.712891"/>
       <use xlink:href="#DejaVuSans-Bold-6d" x="523.193359"/>
       <use xlink:href="#DejaVuSans-Bold-70" x="627.392578"/>
       <use xlink:href="#DejaVuSans-Bold-6c" x="698.974609"/>
       <use xlink:href="#DejaVuSans-Bold-65" x="733.251953"/>
       <use xlink:href="#DejaVuSans-Bold-73" x="801.074219"/>
      </g>
     </g>
    </g>
    <g id="ytick_5">
     <g id="line2d_5">
      <g>
       <use xlink:href="#m395d1f0f81" x="205.734375" y="326.338788" style="stroke: #000000; stroke-width: 0.8"/>
      </g>
     </g>
     <g id="text_5">
      <!-- Learnings -->
      <g style="fill: #586069" transform="translate(87.515625 333.937225) scale(0.2 -0.2)">
       <defs>
        <path id="DejaVuSans-Bold-4c" d="M 588 4666 
L 1791 4666 
L 1791 909 
L 3903 909 
L 3903 0 
L 588 0 
L 588 4666 
z
" transform="scale(0.015625)"/>
        <path id="DejaVuSans-Bold-69" d="M 538 3500 
L 1656 3500 
L 1656 0 
L 538 0 
L 538 3500 
z
M 538 4863 
L 1656 4863 
L 1656 3950 
L 538 3950 
L 538 4863 
z
" transform="scale(0.015625)"/>
        <path id="DejaVuSans-Bold-67" d="M 2919 594 
Q 2688 288 2409 144 
Q 2131 0 1766 0 
Q 1125 0 706 504 
Q 288 1009 288 1791 
Q 288 2575 706 3076 
Q 1125 3578 1766 3578 
Q 2131 3578 2409 3434 
Q 2688 3291 2919 2981 
L 2919 3500 
L 4044 3500 
L 4044 353 
Q 4044 -491 3511 -936 
Q 2978 -1381 1966 -1381 
Q 1638 -1381 1331 -1331 
Q 1025 -1281 716 -1178 
L 716 -306 
Q 1009 -475 1290 -558 
Q 1572 -641 1856 -641 
Q 2406 -641 2662 -400 
Q 2919 -159 2919 353 
L 2919 594 
z
M 2181 2772 
Q 1834 2772 1640 2515 
Q 1447 2259 1447 1791 
Q 1447 1309 1634 1061 
Q 1822 813 2181 813 
Q 2531 813 2725 1069 
Q 2919 1325 2919 1791 
Q 2919 2259 2725 2515 
Q 2531 2772 2181 2772 
z
" transform="scale(0.015625)"/>
       </defs>
       <use xlink:href="#DejaVuSans-Bold-4c"/>
       <use xlink:href="#DejaVuSans-Bold-65" x="63.720703"/>
       <use xlink:href="#DejaVuSans-Bold-61" x="131.542969"/>
       <use xlink:href="#DejaVuSans-Bold-72" x="199.023438"/>
       <use xlink:href="#DejaVuSans-Bold-6e" x="248.339844"/>
       <use xlink:href="#DejaVuSans-Bold-69" x="319.53125"/>
       <use xlink:href="#DejaVuSans-Bold-6e" x="353.808594"/>
       <use xlink:href="#DejaVuSans-Bold-67" x="425"/>
       <use xlink:href="#DejaVuSans-Bold-73" x="496.582031"/>
      </g>
     </g>
    </g>
   </g>
   <g id="patch_8">
    <path d="M 205.734375 355 
L 205.734375 56.32 
" style="fill: none; stroke: #000000; stroke-width: 0.8; stroke-linejoin: miter; stroke-linecap: square"/>
   </g>
   <g id="patch_9">
    <path d="M 205.734375 355 
L 662.749436 355 
" style="fill: none; stroke: #000000; stroke-width: 0.8; stroke-linejoin: miter; stroke-linecap: square"/>
   </g>
   <g id="text_6">
    <!-- 28 hrs 59 mins -->
    <g style="fill: #586069" transform="translate(644.986815 89.120275) scale(0.15 -0.15)">
     <defs>
      <path id="DejaVuSans-Bold-32" d="M 1844 884 
L 3897 884 
L 3897 0 
L 506 0 
L 506 884 
L 2209 2388 
Q 2438 2594 2547 2791 
Q 2656 2988 2656 3200 
Q 2656 3528 2436 3728 
Q 2216 3928 1850 3928 
Q 1569 3928 1234 3808 
Q 900 3688 519 3450 
L 519 4475 
Q 925 4609 1322 4679 
Q 1719 4750 2100 4750 
Q 2938 4750 3402 4381 
Q 3866 4013 3866 3353 
Q 3866 2972 3669 2642 
Q 3472 2313 2841 1759 
L 1844 884 
z
" transform="scale(0.015625)"/>
      <path id="DejaVuSans-Bold-38" d="M 2228 2088 
Q 1891 2088 1709 1903 
Q 1528 1719 1528 1375 
Q 1528 1031 1709 848 
Q 1891 666 2228 666 
Q 2563 666 2741 848 
Q 2919 1031 2919 1375 
Q 2919 1722 2741 1905 
Q 2563 2088 2228 2088 
z
M 1350 2484 
Q 925 2613 709 2878 
Q 494 3144 494 3541 
Q 494 4131 934 4440 
Q 1375 4750 2228 4750 
Q 3075 4750 3515 4442 
Q 3956 4134 3956 3541 
Q 3956 3144 3739 2878 
Q 3522 2613 3097 2484 
Q 3572 2353 3814 2058 
Q 4056 1763 4056 1313 
Q 4056 619 3595 264 
Q 3134 -91 2228 -91 
Q 1319 -91 855 264 
Q 391 619 391 1313 
Q 391 1763 633 2058 
Q 875 2353 1350 2484 
z
M 1631 3419 
Q 1631 3141 1786 2991 
Q 1941 2841 2228 2841 
Q 2509 2841 2662 2991 
Q 2816 3141 2816 3419 
Q 2816 3697 2662 3845 
Q 2509 3994 2228 3994 
Q 1941 3994 1786 3844 
Q 1631 3694 1631 3419 
z
" transform="scale(0.015625)"/>
      <path id="DejaVuSans-Bold-68" d="M 4056 2131 
L 4056 0 
L 2931 0 
L 2931 347 
L 2931 1625 
Q 2931 2084 2911 2256 
Q 2891 2428 2841 2509 
Q 2775 2619 2662 2680 
Q 2550 2741 2406 2741 
Q 2056 2741 1856 2470 
Q 1656 2200 1656 1722 
L 1656 0 
L 538 0 
L 538 4863 
L 1656 4863 
L 1656 2988 
Q 1909 3294 2193 3439 
Q 2478 3584 2822 3584 
Q 3428 3584 3742 3212 
Q 4056 2841 4056 2131 
z
" transform="scale(0.015625)"/>
      <path id="DejaVuSans-Bold-35" d="M 678 4666 
L 3669 4666 
L 3669 3781 
L 1638 3781 
L 1638 3059 
Q 1775 3097 1914 3117 
Q 2053 3138 2203 3138 
Q 3056 3138 3531 2711 
Q 4006 2284 4006 1522 
Q 4006 766 3489 337 
Q 2972 -91 2053 -91 
Q 1656 -91 1267 -14 
Q 878 63 494 219 
L 494 1166 
Q 875 947 1217 837 
Q 1559 728 1863 728 
Q 2300 728 2551 942 
Q 2803 1156 2803 1522 
Q 2803 1891 2551 2103 
Q 2300 2316 1863 2316 
Q 1603 2316 1309 2248 
Q 1016 2181 678 2041 
L 678 4666 
z
" transform="scale(0.015625)"/>
      <path id="DejaVuSans-Bold-39" d="M 641 103 
L 641 966 
Q 928 831 1190 764 
Q 1453 697 1709 697 
Q 2247 697 2547 995 
Q 2847 1294 2900 1881 
Q 2688 1725 2447 1647 
Q 2206 1569 1925 1569 
Q 1209 1569 770 1986 
Q 331 2403 331 3084 
Q 331 3838 820 4291 
Q 1309 4744 2131 4744 
Q 3044 4744 3544 4128 
Q 4044 3513 4044 2388 
Q 4044 1231 3459 570 
Q 2875 -91 1856 -91 
Q 1528 -91 1228 -42 
Q 928 6 641 103 
z
M 2125 2350 
Q 2441 2350 2600 2554 
Q 2759 2759 2759 3169 
Q 2759 3575 2600 3781 
Q 2441 3988 2125 3988 
Q 1809 3988 1650 3781 
Q 1491 3575 1491 3169 
Q 1491 2759 1650 2554 
Q 1809 2350 2125 2350 
z
" transform="scale(0.015625)"/>
     </defs>
     <use xlink:href="#DejaVuSans-Bold-32"/>
     <use xlink:href="#DejaVuSans-Bold-38" x="69.580078"/>
     <use xlink:href="#DejaVuSans-Bold-20" x="139.160156"/>
     <use xlink:href="#DejaVuSans-Bold-68" x="173.974609"/>
     <use xlink:href="#DejaVuSans-Bold-72" x="245.166016"/>
     <use xlink:href="#DejaVuSans-Bold-73" x="294.482422"/>
     <use xlink:href="#DejaVuSans-Bold-20" x="354.003906"/>
     <use xlink:href="#DejaVuSans-Bold-35" x="388.818359"/>
     <use xlink:href="#DejaVuSans-Bold-39" x="458.398438"/>
     <use xlink:href="#DejaVuSans-Bold-20" x="527.978516"/>
     <use xlink:href="#DejaVuSans-Bold-6d" x="562.792969"/>
     <use xlink:href="#DejaVuSans-Bold-69" x="666.992188"/>
     <use xlink:href="#DejaVuSans-Bold-6e" x="701.269531"/>
     <use xlink:href="#DejaVuSans-Bold-73" x="772.460938"/>
    </g>
   </g>
   <g id="text_7">
    <!-- 9 hrs 47 mins -->
    <g style="fill: #586069" transform="translate(356.785906 149.459669) scale(0.15 -0.15)">
     <defs>
      <path id="DejaVuSans-Bold-34" d="M 2356 3675 
L 1038 1722 
L 2356 1722 
L 2356 3675 
z
M 2156 4666 
L 3494 4666 
L 3494 1722 
L 4159 1722 
L 4159 850 
L 3494 850 
L 3494 0 
L 2356 0 
L 2356 850 
L 288 850 
L 288 1881 
L 2156 4666 
z
" transform="scale(0.015625)"/>
      <path id="DejaVuSans-Bold-37" d="M 428 4666 
L 3944 4666 
L 3944 3988 
L 2125 0 
L 953 0 
L 2675 3781 
L 428 3781 
L 428 4666 
z
" transform="scale(0.015625)"/>
     </defs>
     <use xlink:href="#DejaVuSans-Bold-39"/>
     <use xlink:href="#DejaVuSans-Bold-20" x="69.580078"/>
     <use xlink:href="#DejaVuSans-Bold-68" x="104.394531"/>
     <use xlink:href="#DejaVuSans-Bold-72" x="175.585938"/>
     <use xlink:href="#DejaVuSans-Bold-73" x="224.902344"/>
     <use xlink:href="#DejaVuSans-Bold-20" x="284.423828"/>
     <use xlink:href="#DejaVuSans-Bold-34" x="319.238281"/>
     <use xlink:href="#DejaVuSans-Bold-37" x="388.818359"/>
     <use xlink:href="#DejaVuSans-Bold-20" x="458.398438"/>
     <use xlink:href="#DejaVuSans-Bold-6d" x="493.212891"/>
     <use xlink:href="#DejaVuSans-Bold-69" x="597.412109"/>
     <use xlink:href="#DejaVuSans-Bold-6e" x="631.689453"/>
     <use xlink:href="#DejaVuSans-Bold-73" x="702.880859"/>
    </g>
   </g>
   <g id="text_8">
    <!-- 2 hrs 53 mins -->
    <g style="fill: #586069" transform="translate(253.247061 209.799062) scale(0.15 -0.15)">
     <defs>
      <path id="DejaVuSans-Bold-33" d="M 2981 2516 
Q 3453 2394 3698 2092 
Q 3944 1791 3944 1325 
Q 3944 631 3412 270 
Q 2881 -91 1863 -91 
Q 1503 -91 1142 -33 
Q 781 25 428 141 
L 428 1069 
Q 766 900 1098 814 
Q 1431 728 1753 728 
Q 2231 728 2486 893 
Q 2741 1059 2741 1369 
Q 2741 1688 2480 1852 
Q 2219 2016 1709 2016 
L 1228 2016 
L 1228 2791 
L 1734 2791 
Q 2188 2791 2409 2933 
Q 2631 3075 2631 3366 
Q 2631 3634 2415 3781 
Q 2200 3928 1806 3928 
Q 1516 3928 1219 3862 
Q 922 3797 628 3669 
L 628 4550 
Q 984 4650 1334 4700 
Q 1684 4750 2022 4750 
Q 2931 4750 3382 4451 
Q 3834 4153 3834 3553 
Q 3834 3144 3618 2883 
Q 3403 2622 2981 2516 
z
" transform="scale(0.015625)"/>
     </defs>
     <use xlink:href="#DejaVuSans-Bold-32"/>
     <use xlink:href="#DejaVuSans-Bold-20" x="69.580078"/>
     <use xlink:href="#DejaVuSans-Bold-68" x="104.394531"/>
     <use xlink:href="#DejaVuSans-Bold-72" x="175.585938"/>
     <use xlink:href="#DejaVuSans-Bold-73" x="224.902344"/>
     <use xlink:href="#DejaVuSans-Bold-20" x="284.423828"/>
     <use xlink:href="#DejaVuSans-Bold-35" x="319.238281"/>
     <use xlink:href="#DejaVuSans-Bold-33" x="388.818359"/>
     <use xlink:href="#DejaVuSans-Bold-20" x="458.398438"/>
     <use xlink:href="#DejaVuSans-Bold-6d" x="493.212891"/>
     <use xlink:href="#DejaVuSans-Bold-69" x="597.412109"/>
     <use xlink:href="#DejaVuSans-Bold-6e" x="631.689453"/>
     <use xlink:href="#DejaVuSans-Bold-73" x="702.880859"/>
    </g>
   </g>
   <g id="text_9">
    <!-- 5 mins -->
    <g style="fill: #586069" transform="translate(211.241308 270.138456) scale(0.15 -0.15)">
     <use xlink:href="#DejaVuSans-Bold-35"/>
     <use xlink:href="#DejaVuSans-Bold-20" x="69.580078"/>
     <use xlink:href="#DejaVuSans-Bold-6d" x="104.394531"/>
     <use xlink:href="#DejaVuSans-Bold-69" x="208.59375"/>
     <use xlink:href="#DejaVuSans-Bold-6e" x="242.871094"/>
     <use xlink:href="#DejaVuSans-Bold-73" x="314.0625"/>
    </g>
   </g>
   <g id="text_10">
    <!-- 2 mins -->
    <g style="fill: #586069" transform="translate(210.362264 330.47785) scale(0.15 -0.15)">
     <use xlink:href="#DejaVuSans-Bold-32"/>
     <use xlink:href="#DejaVuSans-Bold-20" x="69.580078"/>
     <use xlink:href="#DejaVuSans-Bold-6d" x="104.394531"/>
     <use xlink:href="#DejaVuSans-Bold-69" x="208.59375"/>
     <use xlink:href="#DejaVuSans-Bold-6e" x="242.871094"/>
     <use xlink:href="#DejaVuSans-Bold-73" x="314.0625"/>
    </g>
   </g>
   <g id="text_11">
    <!-- Projects touched : -->
    <g style="fill: #2a475e" transform="translate(372.610656 50.32) scale(0.12 -0.12)">
     <defs>
      <path id="DejaVuSans-Bold-75" d="M 500 1363 
L 500 3500 
L 1625 3500 
L 1625 3150 
Q 1625 2866 1622 2436 
Q 1619 2006 1619 1863 
Q 1619 1441 1641 1255 
Q 1663 1069 1716 984 
Q 1784 875 1895 815 
Q 2006 756 2150 756 
Q 2500 756 2700 1025 
Q 2900 1294 2900 1772 
L 2900 3500 
L 4019 3500 
L 4019 0 
L 2900 0 
L 2900 506 
Q 2647 200 2364 54 
Q 2081 -91 1741 -91 
Q 1134 -91 817 281 
Q 500 653 500 1363 
z
" transform="scale(0.015625)"/>
      <path id="DejaVuSans-Bold-64" d="M 2919 2988 
L 2919 4863 
L 4044 4863 
L 4044 0 
L 2919 0 
L 2919 506 
Q 2688 197 2409 53 
Q 2131 -91 1766 -91 
Q 1119 -91 703 423 
Q 288 938 288 1747 
Q 288 2556 703 3070 
Q 1119 3584 1766 3584 
Q 2128 3584 2408 3439 
Q 2688 3294 2919 2988 
z
M 2181 722 
Q 2541 722 2730 984 
Q 2919 1247 2919 1747 
Q 2919 2247 2730 2509 
Q 2541 2772 2181 2772 
Q 1825 2772 1636 2509 
Q 1447 2247 1447 1747 
Q 1447 1247 1636 984 
Q 1825 722 2181 722 
z
" transform="scale(0.015625)"/>
      <path id="DejaVuSans-Bold-3a" d="M 716 3500 
L 1844 3500 
L 1844 2291 
L 716 2291 
L 716 3500 
z
M 716 1209 
L 1844 1209 
L 1844 0 
L 716 0 
L 716 1209 
z
" transform="scale(0.015625)"/>
     </defs>
     <use xlink:href="#DejaVuSans-Bold-50"/>
     <use xlink:href="#DejaVuSans-Bold-72" x="73.291016"/>
     <use xlink:href="#DejaVuSans-Bold-6f" x="122.607422"/>
     <use xlink:href="#DejaVuSans-Bold-6a" x="191.308594"/>
     <use xlink:href="#DejaVuSans-Bold-65" x="225.585938"/>
     <use xlink:href="#DejaVuSans-Bold-63" x="293.408203"/>
     <use xlink:href="#DejaVuSans-Bold-74" x="352.685547"/>
     <use xlink:href="#DejaVuSans-Bold-73" x="400.488281"/>
     <use xlink:href="#DejaVuSans-Bold-20" x="460.009766"/>
     <use xlink:href="#DejaVuSans-Bold-74" x="494.824219"/>
     <use xlink:href="#DejaVuSans-Bold-6f" x="542.626953"/>
     <use xlink:href="#DejaVuSans-Bold-75" x="611.328125"/>
     <use xlink:href="#DejaVuSans-Bold-63" x="682.519531"/>
     <use xlink:href="#DejaVuSans-Bold-68" x="741.796875"/>
     <use xlink:href="#DejaVuSans-Bold-65" x="812.988281"/>
     <use xlink:href="#DejaVuSans-Bold-64" x="880.810547"/>
     <use xlink:href="#DejaVuSans-Bold-20" x="952.392578"/>
     <use xlink:href="#DejaVuSans-Bold-3a" x="987.207031"/>
    </g>
   </g>
  </g>
  <g id="axes_2">
   <g id="patch_10">
    <path d="M 826.518194 169.730388 
L 854.714598 178.350886 
" style="fill: none; stroke: #000000; stroke-linecap: round"/>
   </g>
   <g id="text_12">
    <g id="patch_11">
     <path d="M 769.136595 177.700675 
L 824.24472 177.700675 
L 824.24472 158.793175 
L 769.136595 158.793175 
z
" style="fill: #ffffff; stroke: #000000; stroke-width: 0.72; stroke-linejoin: miter"/>
    </g>
    <!-- Python -->
    <g style="fill: #2a475e" transform="translate(772.736595 171.5113) scale(0.12 -0.12)">
     <defs>
      <path id="DejaVuSans-Bold-79" d="M 78 3500 
L 1197 3500 
L 2138 1125 
L 2938 3500 
L 4056 3500 
L 2584 -331 
Q 2363 -916 2067 -1148 
Q 1772 -1381 1288 -1381 
L 641 -1381 
L 641 -647 
L 991 -647 
Q 1275 -647 1404 -556 
Q 1534 -466 1606 -231 
L 1638 -134 
L 78 3500 
z
" transform="scale(0.015625)"/>
     </defs>
     <use xlink:href="#DejaVuSans-Bold-50"/>
     <use xlink:href="#DejaVuSans-Bold-79" x="75.166016"/>
     <use xlink:href="#DejaVuSans-Bold-74" x="140.351562"/>
     <use xlink:href="#DejaVuSans-Bold-68" x="188.154297"/>
     <use xlink:href="#DejaVuSans-Bold-6f" x="259.345703"/>
     <use xlink:href="#DejaVuSans-Bold-6e" x="328.046875"/>
    </g>
   </g>
   <g id="patch_12">
    <path d="M 1061.468566 278.140555 
L 1049.496874 278.140555 
L 1021.017462 258.566862 
" style="fill: none; stroke: #000000; stroke-linecap: round"/>
   </g>
   <g id="text_13">
    <g id="patch_13">
     <path d="M 1063.832858 287.54743 
L 1109.569733 287.54743 
L 1109.569733 268.73368 
L 1063.832858 268.73368 
z
" style="fill: #ffffff; stroke: #000000; stroke-width: 0.72; stroke-linejoin: miter"/>
    </g>
    <!-- Other -->
    <g style="fill: #2a475e" transform="translate(1067.432858 281.451805) scale(0.12 -0.12)">
     <defs>
      <path id="DejaVuSans-Bold-4f" d="M 2719 3878 
Q 2169 3878 1866 3472 
Q 1563 3066 1563 2328 
Q 1563 1594 1866 1187 
Q 2169 781 2719 781 
Q 3272 781 3575 1187 
Q 3878 1594 3878 2328 
Q 3878 3066 3575 3472 
Q 3272 3878 2719 3878 
z
M 2719 4750 
Q 3844 4750 4481 4106 
Q 5119 3463 5119 2328 
Q 5119 1197 4481 553 
Q 3844 -91 2719 -91 
Q 1597 -91 958 553 
Q 319 1197 319 2328 
Q 319 3463 958 4106 
Q 1597 4750 2719 4750 
z
" transform="scale(0.015625)"/>
     </defs>
     <use xlink:href="#DejaVuSans-Bold-4f"/>
     <use xlink:href="#DejaVuSans-Bold-74" x="85.009766"/>
     <use xlink:href="#DejaVuSans-Bold-68" x="132.8125"/>
     <use xlink:href="#DejaVuSans-Bold-65" x="204.003906"/>
     <use xlink:href="#DejaVuSans-Bold-72" x="271.826172"/>
    </g>
   </g>
   <g id="patch_14">
    <path d="M 1061.575818 245.951077 
L 1032.395508 235.948219 
" style="fill: none; stroke: #000000; stroke-linecap: round"/>
   </g>
   <g id="text_14">
    <g id="patch_15">
     <path d="M 1063.832858 256.562023 
L 1100.153483 256.562023 
L 1100.153483 237.748273 
L 1063.832858 237.748273 
z
" style="fill: #ffffff; stroke: #000000; stroke-width: 0.72; stroke-linejoin: miter"/>
    </g>
    <!-- conf -->
    <g style="fill: #2a475e" transform="translate(1067.432858 250.466398) scale(0.12 -0.12)">
     <defs>
      <path id="DejaVuSans-Bold-66" d="M 2841 4863 
L 2841 4128 
L 2222 4128 
Q 1984 4128 1890 4042 
Q 1797 3956 1797 3744 
L 1797 3500 
L 2753 3500 
L 2753 2700 
L 1797 2700 
L 1797 0 
L 678 0 
L 678 2700 
L 122 2700 
L 122 3500 
L 678 3500 
L 678 3744 
Q 678 4316 997 4589 
Q 1316 4863 1984 4863 
L 2841 4863 
z
" transform="scale(0.015625)"/>
     </defs>
     <use xlink:href="#DejaVuSans-Bold-63"/>
     <use xlink:href="#DejaVuSans-Bold-6f" x="59.277344"/>
     <use xlink:href="#DejaVuSans-Bold-6e" x="127.978516"/>
     <use xlink:href="#DejaVuSans-Bold-66" x="199.169922"/>
    </g>
   </g>
   <g id="patch_16">
    <path d="M 1061.488925 219.96131 
L 1036.757827 216.949928 
" style="fill: none; stroke: #000000; stroke-linecap: round"/>
   </g>
   <g id="text_15">
    <g id="patch_17">
     <path d="M 1063.832858 230.534187 
L 1095.019733 230.534187 
L 1095.019733 211.720437 
L 1063.832858 211.720437 
z
" style="fill: #ffffff; stroke: #000000; stroke-width: 0.72; stroke-linejoin: miter"/>
    </g>
    <!-- TeX -->
    <g style="fill: #2a475e" transform="translate(1067.432858 224.438562) scale(0.12 -0.12)">
     <defs>
      <path id="DejaVuSans-Bold-54" d="M 31 4666 
L 4331 4666 
L 4331 3756 
L 2784 3756 
L 2784 0 
L 1581 0 
L 1581 3756 
L 31 3756 
L 31 4666 
z
" transform="scale(0.015625)"/>
      <path id="DejaVuSans-Bold-58" d="M 3188 2381 
L 4806 0 
L 3553 0 
L 2463 1594 
L 1381 0 
L 122 0 
L 1741 2381 
L 184 4666 
L 1441 4666 
L 2463 3163 
L 3481 4666 
L 4744 4666 
L 3188 2381 
z
" transform="scale(0.015625)"/>
     </defs>
     <use xlink:href="#DejaVuSans-Bold-54"/>
     <use xlink:href="#DejaVuSans-Bold-65" x="54.962891"/>
     <use xlink:href="#DejaVuSans-Bold-58" x="122.785156"/>
    </g>
   </g>
   <g id="patch_18">
    <path d="M 1061.480126 196.461368 
L 1037.157723 198.366432 
" style="fill: none; stroke: #000000; stroke-linecap: round"/>
   </g>
   <g id="text_16">
    <g id="patch_19">
     <path d="M 1063.832858 205.114957 
L 1151.528483 205.114957 
L 1151.528483 186.220582 
L 1063.832858 186.220582 
z
" style="fill: #ffffff; stroke: #000000; stroke-width: 0.72; stroke-linejoin: miter"/>
    </g>
    <!-- Image (svg) -->
    <g style="fill: #2a475e" transform="translate(1067.432858 198.925582) scale(0.12 -0.12)">
     <defs>
      <path id="DejaVuSans-Bold-49" d="M 588 4666 
L 1791 4666 
L 1791 0 
L 588 0 
L 588 4666 
z
" transform="scale(0.015625)"/>
      <path id="DejaVuSans-Bold-28" d="M 2413 -844 
L 1484 -844 
Q 1006 -72 778 623 
Q 550 1319 550 2003 
Q 550 2688 779 3389 
Q 1009 4091 1484 4856 
L 2413 4856 
Q 2013 4116 1813 3408 
Q 1613 2700 1613 2009 
Q 1613 1319 1811 609 
Q 2009 -100 2413 -844 
z
" transform="scale(0.015625)"/>
      <path id="DejaVuSans-Bold-76" d="M 97 3500 
L 1216 3500 
L 2088 1081 
L 2956 3500 
L 4078 3500 
L 2700 0 
L 1472 0 
L 97 3500 
z
" transform="scale(0.015625)"/>
      <path id="DejaVuSans-Bold-29" d="M 513 -844 
Q 913 -100 1113 609 
Q 1313 1319 1313 2009 
Q 1313 2700 1113 3408 
Q 913 4116 513 4856 
L 1441 4856 
Q 1916 4091 2145 3389 
Q 2375 2688 2375 2003 
Q 2375 1319 2147 623 
Q 1919 -72 1441 -844 
L 513 -844 
z
" transform="scale(0.015625)"/>
     </defs>
     <use xlink:href="#DejaVuSans-Bold-49"/>
     <use xlink:href="#DejaVuSans-Bold-6d" x="37.207031"/>
     <use xlink:href="#DejaVuSans-Bold-61" x="141.40625"/>
     <use xlink:href="#DejaVuSans-Bold-67" x="208.886719"/>
     <use xlink:href="#DejaVuSans-Bold-65" x="280.46875"/>
     <use xlink:href="#DejaVuSans-Bold-20" x="348.291016"/>
     <use xlink:href="#DejaVuSans-Bold-28" x="383.105469"/>
     <use xlink:href="#DejaVuSans-Bold-73" x="428.808594"/>
     <use xlink:href="#DejaVuSans-Bold-76" x="488.330078"/>
     <use xlink:href="#DejaVuSans-Bold-67" x="553.515625"/>
     <use xlink:href="#DejaVuSans-Bold-29" x="625.097656"/>
    </g>
   </g>
   <g id="patch_20">
    <path d="M 1032.225124 191.616094 
C 1030.455044 181.577474 1027.018074 171.905312 1022.056737 163.000695 
C 1017.0954 154.096078 1010.679237 146.083817 1003.074314 139.296165 
C 995.469392 132.508513 986.782303 127.040609 977.373287 123.119196 
C 967.96427 119.197784 957.965206 116.877828 947.790737 116.255532 
C 937.616268 115.633236 927.409004 116.717323 917.592222 119.462838 
C 907.775439 122.208352 898.486734 126.576812 890.111293 132.387065 
C 881.735851 138.197319 874.391066 145.367926 868.381512 153.601536 
C 862.371959 161.835146 857.781869 171.016353 854.801586 180.764429 
C 851.821303 190.512505 850.4926 200.690816 850.870574 210.877288 
C 851.248549 221.06376 853.327904 231.115613 857.022413 240.616017 
C 860.716922 250.116421 865.9748 258.932213 872.578013 266.69782 
C 879.181227 274.463426 887.037222 281.07 895.820225 286.24358 
C 904.603228 291.417159 914.190133 295.085229 924.183388 297.095681 
C 934.176643 299.106133 944.436179 299.430788 954.536552 298.056182 
C 964.636925 296.681577 974.436563 293.626979 983.529094 289.019056 
C 992.621625 284.411134 1000.879604 278.314474 1007.960587 270.981893 
L 975.085658 239.234977 
C 971.545166 242.901267 967.416177 245.949597 962.869911 248.253558 
C 958.323646 250.55752 953.423827 252.084819 948.37364 252.772121 
C 943.323454 253.459424 938.193686 253.297096 933.197058 252.29187 
C 928.200431 251.286645 923.406978 249.45261 919.015477 246.86582 
C 914.623975 244.27903 910.695978 240.975743 907.394371 237.09294 
C 904.092764 233.210137 901.463825 228.802241 899.616571 224.052039 
C 897.769316 219.301837 896.729639 214.27591 896.540651 209.182674 
C 896.351664 204.089438 897.016016 199.000283 898.506157 194.126245 
C 899.996299 189.252207 902.291344 184.661603 905.29612 180.544798 
C 908.300897 176.427993 911.97329 172.842689 916.161011 169.937563 
C 920.348732 167.032436 924.993084 164.848206 929.901475 163.475449 
C 934.809866 162.102692 939.913498 161.560648 945.000733 161.871796 
C 950.087967 162.182944 955.087499 163.342922 959.792008 165.303628 
C 964.496516 167.264334 968.84006 169.998286 972.642521 173.392113 
C 976.444983 176.785939 979.653064 180.792069 982.133733 185.244378 
C 984.614401 189.696686 986.332886 194.532767 987.217926 199.552077 
z
" style="fill: #092436; opacity: 0.5; stroke: #092436; stroke-width: 4; stroke-linejoin: miter"/>
   </g>
   <g id="patch_21">
    <path d="M 1015.493317 276.159064 
C 1019.004369 272.523257 1022.207808 268.60248 1025.070662 264.437069 
C 1027.933517 260.271658 1030.445937 255.875958 1032.582077 251.295185 
L 991.162763 231.980214 
C 990.094693 234.270601 988.838483 236.46845 987.407056 238.551156 
C 985.975629 240.633862 984.373909 242.59425 982.618383 244.412154 
z
" style="fill: #4d2604; opacity: 0.5; stroke: #4d2604; stroke-width: 4; stroke-linejoin: miter"/>
   </g>
   <g id="patch_22">
    <path d="M 1033.695752 249.081942 
C 1035.062378 246.15133 1036.272524 243.150258 1037.321088 240.091391 
C 1038.369651 237.032524 1039.25516 233.920166 1039.973866 230.767449 
L 995.415495 220.609724 
C 995.056142 222.186083 994.613388 223.742262 994.089106 225.271695 
C 993.564825 226.801129 992.959751 228.301665 992.276439 229.76697 
z
" style="fill: #0d300d; opacity: 0.5; stroke: #0d300d; stroke-width: 4; stroke-linejoin: miter"/>
   </g>
   <g id="patch_23">
    <path d="M 1040.400755 228.908318 
C 1041.098175 225.848984 1041.637591 222.755763 1042.016868 219.640948 
C 1042.396144 216.526133 1042.614774 213.393851 1042.671886 210.256549 
L 996.97795 209.424709 
C 996.949394 210.99336 996.840079 212.559501 996.650441 214.116908 
C 996.460803 215.674316 996.191094 217.220926 995.842384 218.750593 
z
" style="fill: #400c0c; opacity: 0.5; stroke: #400c0c; stroke-width: 4; stroke-linejoin: miter"/>
   </g>
   <g id="patch_24">
    <path d="M 1042.710993 208.438011 
C 1042.764444 205.501811 1042.67636 202.564741 1042.447046 199.637022 
C 1042.217733 196.709302 1041.847451 193.794336 1041.337498 190.902265 
L 996.330309 198.838297 
C 996.585286 200.284333 996.770427 201.741816 996.885084 203.205676 
C 996.99974 204.669535 997.043782 206.13807 997.017057 207.60617 
z
" style="fill: #2c1f39; opacity: 0.5; stroke: #2c1f39; stroke-width: 4; stroke-linejoin: miter"/>
   </g>
   <g id="patch_25">
    <path d="M 1034.053184 189.788033 
C 1032.283105 179.749414 1028.846134 170.077252 1023.884797 161.172635 
C 1018.92346 152.268018 1012.507297 144.255757 1004.902374 137.468105 
C 997.297452 130.680452 988.610363 125.212548 979.201347 121.291136 
C 969.79233 117.369724 959.793266 115.049768 949.618797 114.427472 
C 939.444328 113.805176 929.237064 114.889263 919.420282 117.634778 
C 909.603499 120.380292 900.314795 124.748752 891.939353 130.559005 
C 883.563911 136.369258 876.219126 143.539866 870.209572 151.773476 
C 864.200019 160.007086 859.609929 169.188293 856.629646 178.936369 
C 853.649363 188.684445 852.32066 198.862756 852.698635 209.049228 
C 853.076609 219.235699 855.155964 229.287553 858.850473 238.787957 
C 862.544982 248.288361 867.80286 257.104153 874.406074 264.869759 
C 881.009287 272.635366 888.865282 279.24194 897.648285 284.415519 
C 906.431288 289.589099 916.018193 293.257169 926.011448 295.26762 
C 936.004704 297.278072 946.26424 297.602727 956.364612 296.228122 
C 966.464985 294.853517 976.264623 291.798919 985.357154 287.190996 
C 994.449685 282.583074 1002.707664 276.486413 1009.788647 269.153833 
L 976.913718 237.406916 
C 973.373226 241.073207 969.244237 244.121537 964.697972 246.425498 
C 960.151706 248.729459 955.251887 250.256758 950.201701 250.944061 
C 945.151514 251.631364 940.021746 251.469036 935.025119 250.46381 
C 930.028491 249.458584 925.235039 247.624549 920.843537 245.03776 
C 916.452035 242.45097 912.524038 239.147683 909.222431 235.26488 
C 905.920824 231.382077 903.291885 226.97418 901.444631 222.223978 
C 899.597377 217.473776 898.557699 212.44785 898.368712 207.354614 
C 898.179724 202.261378 898.844076 197.172222 900.334218 192.298184 
C 901.824359 187.424146 904.119404 182.833543 907.124181 178.716738 
C 910.128957 174.599933 913.80135 171.014629 917.989071 168.109503 
C 922.176792 165.204376 926.821144 163.020146 931.729535 161.647389 
C 936.637927 160.274632 941.741559 159.732588 946.828793 160.043736 
C 951.916027 160.354884 956.915559 161.514862 961.620068 163.475568 
C 966.324576 165.436274 970.66812 168.170226 974.470582 171.564052 
C 978.273043 174.957878 981.481124 178.964009 983.961793 183.416317 
C 986.442461 187.868626 988.160947 192.704707 989.045986 197.724017 
z
" style="fill: #1f77b4; stroke: #ffffff; stroke-width: 4; stroke-linejoin: miter"/>
   </g>
   <g id="patch_26">
    <path d="M 1017.321377 274.331004 
C 1020.832429 270.695197 1024.035868 266.77442 1026.898722 262.609009 
C 1029.761577 258.443598 1032.273997 254.047898 1034.410137 249.467125 
L 992.990823 230.152154 
C 991.922753 232.44254 990.666543 234.64039 989.235116 236.723096 
C 987.803689 238.805801 986.201969 240.76619 984.446443 242.584093 
z
" style="fill: #ff7f0e; stroke: #ffffff; stroke-width: 4; stroke-linejoin: miter"/>
   </g>
   <g id="patch_27">
    <path d="M 1035.523812 247.253881 
C 1036.890438 244.323269 1038.100585 241.322198 1039.149148 238.263331 
C 1040.197711 235.204464 1041.08322 232.092105 1041.801926 228.939389 
L 997.243556 218.781664 
C 996.884203 220.358022 996.441448 221.914202 995.917167 223.443635 
C 995.392885 224.973069 994.787812 226.473604 994.104499 227.93891 
z
" style="fill: #2ca02c; stroke: #ffffff; stroke-width: 4; stroke-linejoin: miter"/>
   </g>
   <g id="patch_28">
    <path d="M 1042.228815 227.080258 
C 1042.926235 224.020924 1043.465652 220.927703 1043.844928 217.812888 
C 1044.224204 214.698073 1044.442834 211.565791 1044.499946 208.428489 
L 998.80601 207.596649 
C 998.777454 209.165299 998.668139 210.73144 998.478501 212.288848 
C 998.288863 213.846255 998.019155 215.392866 997.670444 216.922533 
z
" style="fill: #d62728; stroke: #ffffff; stroke-width: 4; stroke-linejoin: miter"/>
   </g>
   <g id="patch_29">
    <path d="M 1044.539053 206.60995 
C 1044.592504 203.673751 1044.50442 200.736681 1044.275107 197.808962 
C 1044.045793 194.881242 1043.675511 191.966276 1043.165558 189.074205 
L 998.15837 197.010237 
C 998.413346 198.456272 998.598487 199.913756 998.713144 201.377615 
C 998.827801 202.841475 998.871843 204.31001 998.845117 205.77811 
z
" style="fill: #9467bd; stroke: #ffffff; stroke-width: 4; stroke-linejoin: miter"/>
   </g>
   <g id="matplotlib.axis_3"/>
   <g id="matplotlib.axis_4"/>
   <g id="text_17">
    <!-- Languages -->
    <g style="fill: #2a475e" transform="translate(913.460664 208.34125) scale(0.1 -0.1)">
     <use xlink:href="#DejaVuSans-Bold-4c"/>
     <use xlink:href="#DejaVuSans-Bold-61" x="63.720703"/>
     <use xlink:href="#DejaVuSans-Bold-6e" x="131.201172"/>
     <use xlink:href="#DejaVuSans-Bold-67" x="202.392578"/>
     <use xlink:href="#DejaVuSans-Bold-75" x="273.974609"/>
     <use xlink:href="#DejaVuSans-Bold-61" x="345.166016"/>
     <use xlink:href="#DejaVuSans-Bold-67" x="412.646484"/>
     <use xlink:href="#DejaVuSans-Bold-65" x="484.228516"/>
     <use xlink:href="#DejaVuSans-Bold-73" x="552.050781"/>
    </g>
   </g>
   <g id="text_18">
    <!-- Languages exploited : -->
    <g style="fill: #2a475e" transform="translate(869.065976 85.406235) scale(0.12 -0.12)">
     <use xlink:href="#DejaVuSans-Bold-4c"/>
     <use xlink:href="#DejaVuSans-Bold-61" x="63.720703"/>
     <use xlink:href="#DejaVuSans-Bold-6e" x="131.201172"/>
     <use xlink:href="#DejaVuSans-Bold-67" x="202.392578"/>
     <use xlink:href="#DejaVuSans-Bold-75" x="273.974609"/>
     <use xlink:href="#DejaVuSans-Bold-61" x="345.166016"/>
     <use xlink:href="#DejaVuSans-Bold-67" x="412.646484"/>
     <use xlink:href="#DejaVuSans-Bold-65" x="484.228516"/>
     <use xlink:href="#DejaVuSans-Bold-73" x="552.050781"/>
     <use xlink:href="#DejaVuSans-Bold-20" x="611.572266"/>
     <use xlink:href="#DejaVuSans-Bold-65" x="646.386719"/>
     <use xlink:href="#DejaVuSans-Bold-78" x="714.208984"/>
     <use xlink:href="#DejaVuSans-Bold-70" x="778.710938"/>
     <use xlink:href="#DejaVuSans-Bold-6c" x="850.292969"/>
     <use xlink:href="#DejaVuSans-Bold-6f" x="884.570312"/>
     <use xlink:href="#DejaVuSans-Bold-69" x="953.271484"/>
     <use xlink:href="#DejaVuSans-Bold-74" x="987.548828"/>
     <use xlink:href="#DejaVuSans-Bold-65" x="1035.351562"/>
     <use xlink:href="#DejaVuSans-Bold-64" x="1103.173828"/>
     <use xlink:href="#DejaVuSans-Bold-20" x="1174.755859"/>
     <use xlink:href="#DejaVuSans-Bold-3a" x="1209.570312"/>
    </g>
   </g>
  </g>
  <g id="text_19">
   <!-- From 04 December, 2024 to 11 December, 2024: 41 hrs 48 mins -->
   <g transform="translate(42.076875 29.995312) scale(0.3 -0.3)">
    <defs>
     <path id="DejaVuSans-Bold-46" d="M 588 4666 
L 3834 4666 
L 3834 3756 
L 1791 3756 
L 1791 2888 
L 3713 2888 
L 3713 1978 
L 1791 1978 
L 1791 0 
L 588 0 
L 588 4666 
z
" transform="scale(0.015625)"/>
     <path id="DejaVuSans-Bold-30" d="M 2944 2338 
Q 2944 3213 2780 3570 
Q 2616 3928 2228 3928 
Q 1841 3928 1675 3570 
Q 1509 3213 1509 2338 
Q 1509 1453 1675 1090 
Q 1841 728 2228 728 
Q 2613 728 2778 1090 
Q 2944 1453 2944 2338 
z
M 4147 2328 
Q 4147 1169 3647 539 
Q 3147 -91 2228 -91 
Q 1306 -91 806 539 
Q 306 1169 306 2328 
Q 306 3491 806 4120 
Q 1306 4750 2228 4750 
Q 3147 4750 3647 4120 
Q 4147 3491 4147 2328 
z
" transform="scale(0.015625)"/>
     <path id="DejaVuSans-Bold-44" d="M 1791 3756 
L 1791 909 
L 2222 909 
Q 2959 909 3348 1275 
Q 3738 1641 3738 2338 
Q 3738 3031 3350 3393 
Q 2963 3756 2222 3756 
L 1791 3756 
z
M 588 4666 
L 1856 4666 
Q 2919 4666 3439 4514 
Q 3959 4363 4331 4000 
Q 4659 3684 4818 3271 
Q 4978 2859 4978 2338 
Q 4978 1809 4818 1395 
Q 4659 981 4331 666 
Q 3956 303 3431 151 
Q 2906 0 1856 0 
L 588 0 
L 588 4666 
z
" transform="scale(0.015625)"/>
     <path id="DejaVuSans-Bold-62" d="M 2400 722 
Q 2759 722 2948 984 
Q 3138 1247 3138 1747 
Q 3138 2247 2948 2509 
Q 2759 2772 2400 2772 
Q 2041 2772 1848 2508 
Q 1656 2244 1656 1747 
Q 1656 1250 1848 986 
Q 2041 722 2400 722 
z
M 1656 2988 
Q 1888 3294 2169 3439 
Q 2450 3584 2816 3584 
Q 3463 3584 3878 3070 
Q 4294 2556 4294 1747 
Q 4294 938 3878 423 
Q 3463 -91 2816 -91 
Q 2450 -91 2169 54 
Q 1888 200 1656 506 
L 1656 0 
L 538 0 
L 538 4863 
L 1656 4863 
L 1656 2988 
z
" transform="scale(0.015625)"/>
     <path id="DejaVuSans-Bold-2c" d="M 653 1209 
L 1778 1209 
L 1778 256 
L 1006 -909 
L 341 -909 
L 653 256 
L 653 1209 
z
" transform="scale(0.015625)"/>
     <path id="DejaVuSans-Bold-31" d="M 750 831 
L 1813 831 
L 1813 3847 
L 722 3622 
L 722 4441 
L 1806 4666 
L 2950 4666 
L 2950 831 
L 4013 831 
L 4013 0 
L 750 0 
L 750 831 
z
" transform="scale(0.015625)"/>
    </defs>
    <use xlink:href="#DejaVuSans-Bold-46"/>
    <use xlink:href="#DejaVuSans-Bold-72" x="61.935547"/>
    <use xlink:href="#DejaVuSans-Bold-6f" x="111.251953"/>
    <use xlink:href="#DejaVuSans-Bold-6d" x="179.953125"/>
    <use xlink:href="#DejaVuSans-Bold-20" x="284.152344"/>
    <use xlink:href="#DejaVuSans-Bold-30" x="318.966797"/>
    <use xlink:href="#DejaVuSans-Bold-34" x="388.546875"/>
    <use xlink:href="#DejaVuSans-Bold-20" x="458.126953"/>
    <use xlink:href="#DejaVuSans-Bold-44" x="492.941406"/>
    <use xlink:href="#DejaVuSans-Bold-65" x="575.949219"/>
    <use xlink:href="#DejaVuSans-Bold-63" x="643.771484"/>
    <use xlink:href="#DejaVuSans-Bold-65" x="703.048828"/>
    <use xlink:href="#DejaVuSans-Bold-6d" x="770.871094"/>
    <use xlink:href="#DejaVuSans-Bold-62" x="875.070312"/>
    <use xlink:href="#DejaVuSans-Bold-65" x="946.652344"/>
    <use xlink:href="#DejaVuSans-Bold-72" x="1014.474609"/>
    <use xlink:href="#DejaVuSans-Bold-2c" x="1049.041016"/>
    <use xlink:href="#DejaVuSans-Bold-20" x="1087.029297"/>
    <use xlink:href="#DejaVuSans-Bold-32" x="1121.84375"/>
    <use xlink:href="#DejaVuSans-Bold-30" x="1191.423828"/>
    <use xlink:href="#DejaVuSans-Bold-32" x="1261.003906"/>
    <use xlink:href="#DejaVuSans-Bold-34" x="1330.583984"/>
    <use xlink:href="#DejaVuSans-Bold-20" x="1400.164062"/>
    <use xlink:href="#DejaVuSans-Bold-74" x="1434.978516"/>
    <use xlink:href="#DejaVuSans-Bold-6f" x="1482.78125"/>
    <use xlink:href="#DejaVuSans-Bold-20" x="1551.482422"/>
    <use xlink:href="#DejaVuSans-Bold-31" x="1586.296875"/>
    <use xlink:href="#DejaVuSans-Bold-31" x="1655.876953"/>
    <use xlink:href="#DejaVuSans-Bold-20" x="1725.457031"/>
    <use xlink:href="#DejaVuSans-Bold-44" x="1760.271484"/>
    <use xlink:href="#DejaVuSans-Bold-65" x="1843.279297"/>
    <use xlink:href="#DejaVuSans-Bold-63" x="1911.101562"/>
    <use xlink:href="#DejaVuSans-Bold-65" x="1970.378906"/>
    <use xlink:href="#DejaVuSans-Bold-6d" x="2038.201172"/>
    <use xlink:href="#DejaVuSans-Bold-62" x="2142.400391"/>
    <use xlink:href="#DejaVuSans-Bold-65" x="2213.982422"/>
    <use xlink:href="#DejaVuSans-Bold-72" x="2281.804688"/>
    <use xlink:href="#DejaVuSans-Bold-2c" x="2316.371094"/>
    <use xlink:href="#DejaVuSans-Bold-20" x="2354.359375"/>
    <use xlink:href="#DejaVuSans-Bold-32" x="2389.173828"/>
    <use xlink:href="#DejaVuSans-Bold-30" x="2458.753906"/>
    <use xlink:href="#DejaVuSans-Bold-32" x="2528.333984"/>
    <use xlink:href="#DejaVuSans-Bold-34" x="2597.914062"/>
    <use xlink:href="#DejaVuSans-Bold-3a" x="2667.494141"/>
    <use xlink:href="#DejaVuSans-Bold-20" x="2707.484375"/>
    <use xlink:href="#DejaVuSans-Bold-34" x="2742.298828"/>
    <use xlink:href="#DejaVuSans-Bold-31" x="2811.878906"/>
    <use xlink:href="#DejaVuSans-Bold-20" x="2881.458984"/>
    <use xlink:href="#DejaVuSans-Bold-68" x="2916.273438"/>
    <use xlink:href="#DejaVuSans-Bold-72" x="2987.464844"/>
    <use xlink:href="#DejaVuSans-Bold-73" x="3036.78125"/>
    <use xlink:href="#DejaVuSans-Bold-20" x="3096.302734"/>
    <use xlink:href="#DejaVuSans-Bold-34" x="3131.117188"/>
    <use xlink:href="#DejaVuSans-Bold-38" x="3200.697266"/>
    <use xlink:href="#DejaVuSans-Bold-20" x="3270.277344"/>
    <use xlink:href="#DejaVuSans-Bold-6d" x="3305.091797"/>
    <use xlink:href="#DejaVuSans-Bold-69" x="3409.291016"/>
    <use xlink:href="#DejaVuSans-Bold-6e" x="3443.568359"/>
    <use xlink:href="#DejaVuSans-Bold-73" x="3514.759766"/>
   </g>
  </g>
 </g>
 <defs>
  <clipPath id="pf2384a7657">
   <rect x="205.734375" y="56.32" width="457.015061" height="298.68"/>
  </clipPath>
 </defs>
</svg>
